<?xml version="1.0" encoding="utf-8"?>
<!-- Generator: Adobe Illustrator 19.0.0, SVG Export Plug-In . SVG Version: 6.00 Build 0)  -->
<svg version="1.1" id="Layer_1" xmlns="http://www.w3.org/2000/svg" xmlns:xlink="http://www.w3.org/1999/xlink" x="0px" y="0px"
	 viewBox="-790.5 375.5 134.5 192" style="enable-background:new -790.5 375.5 134.5 192;" xml:space="preserve">
<style type="text/css">
	.st0{fill:#F1FF5E;stroke:#F1FF5E;stroke-width:21;stroke-linecap:round;stroke-linejoin:round;stroke-miterlimit:10;}
	.st1{fill:#F1FF5E;}
	.st2{fill:none;}
</style>
<polyline id="XMLID_2_" class="st0" points="-666.5,442.8 -723.2,386 -780,442.8 "/>
<path class="st1" d="M-685,415.7h-76.4c-6.9,0-12.5,5.6-12.5,12.5v76.4c0,6.9,5.6,12.5,12.5,12.5h9v-42.2h25.7v42.2h41.8
	c6.9,0,12.5-5.6,12.5-12.5v-76.4C-672.5,421.3-678.1,415.7-685,415.7z M-685.9,487.1h-27.9v-24.5h27.9V487.1z"/>
<g id="Layer_5">
	<path class="st1" d="M-768.9,567.1h-15.6c-1.9,0-3.4-1.5-3.4-3.4v-36.8c0-1.9,1.5-3.4,3.4-3.4h13c1.2-0.1,7.5-0.2,11.5,3.6
		c2.1,2,3.2,4.6,3.2,7.7c0,3.8-1.2,7-3.4,9.2c2.9,1.9,5,5.2,5,10.8c0,9.1-8.8,12-13.5,12.4C-768.7,567.1-768.8,567.1-768.9,567.1z
		 M-781,560.3h12c1-0.1,7-0.8,7-5.5c0-3.5-1.1-4.6-2.1-5.2c-1.3-0.8-3.5-1.3-6.8-1.4c-0.6,0-1.2,0.1-1.8,0c-0.1,0-0.2,0-0.3,0
		c-3.9,0-6.4,0-8.1,0L-781,560.3L-781,560.3z M-781,530.3v11c1.7,0,4.3,0,8.1,0c0.6,0,1.4,0,2.2,0c1.5-0.1,3.3-0.4,4.7-1.3
		c1.1-0.6,2.5-1.9,2.5-5.3c0-1.5-0.6-2.3-1-2.7c-1.7-1.6-5.4-1.8-6.5-1.8c-0.1,0-0.1,0-0.2,0L-781,530.3L-781,530.3z"/>
</g>
<g>
	<line class="st2" x1="-736.6" y1="527.2" x2="-748.8" y2="563.8"/>
	<path class="st1" d="M-748.8,567.5c-0.4,0-0.8-0.1-1.2-0.2c-1.9-0.6-3-2.8-2.3-4.7l12.2-36.6c0.6-1.9,2.7-3,4.7-2.3
		c1.9,0.6,3,2.8,2.3,4.7l-12.2,36.6C-745.8,566.5-747.3,567.5-748.8,567.5z"/>
</g>
<g>
	<line class="st2" x1="-736.6" y1="527.2" x2="-724.4" y2="563.8"/>
	<path class="st1" d="M-724.4,567.5c-1.6,0-3-1-3.5-2.5l-12.2-36.6c-0.6-1.9,0.4-4,2.3-4.7c1.9-0.6,4,0.4,4.7,2.3l12.2,36.6
		c0.6,1.9-0.4,4-2.3,4.7C-723.6,567.5-724,567.5-724.4,567.5z"/>
</g>
<path class="st1" d="M-728.8,558.6h-15.7c-2.1,0-3.7-1.7-3.7-3.7s1.7-3.7,3.7-3.7h15.7c2.1,0,3.7,1.7,3.7,3.7
	S-726.7,558.6-728.8,558.6z"/>
<g>
	<path class="st1" d="M-702.9,567.5c-8.5,0-15.2-9.7-15.2-22s6.7-22,15.2-22c5.9,0,11.1,4.7,13.7,12.1c0.7,1.9-0.4,4.1-2.3,4.7
		c-1.9,0.7-4.1-0.4-4.7-2.3c-1.5-4.3-4.1-7.1-6.6-7.1c-3.7,0-7.8,6-7.8,14.6c0,8.6,4.1,14.6,7.8,14.6c2.6,0,5.2-2.8,6.6-7.1
		c0.7-1.9,2.8-3,4.7-2.3c1.9,0.7,3,2.8,2.3,4.7C-691.8,562.9-697.1,567.5-702.9,567.5z"/>
</g>
<path class="st1" d="M-680.3,567.5c-2.1,0-3.7-1.7-3.7-3.7v-36.6c0-2.1,1.7-3.7,3.7-3.7s3.7,1.7,3.7,3.7v36.6
	C-676.6,565.9-678.2,567.5-680.3,567.5z"/>
<path class="st1" d="M-680.3,549c-1,0-1.9-0.4-2.6-1.1c-1.5-1.4-1.5-3.8,0-5.3l18-18c1.5-1.5,3.8-1.5,5.3,0s1.5,3.8,0,5.3l-18,18
	C-678.4,548.6-679.3,549-680.3,549z"/>
<path class="st1" d="M-662,567.2c-1,0-1.9-0.4-2.6-1.1l-18.2-18.2c-1.5-1.4-1.5-3.8,0-5.3s3.8-1.5,5.3,0l18.2,18.2
	c1.5,1.4,1.5,3.8,0,5.3C-660.1,566.9-661.1,567.2-662,567.2z"/>
</svg>
