<?xml version="1.0" encoding="utf-8"?>
<!-- Generator: Adobe Illustrator 19.0.0, SVG Export Plug-In . SVG Version: 6.00 Build 0)  -->
<svg version="1.1" id="Layer_1" xmlns="http://www.w3.org/2000/svg" xmlns:xlink="http://www.w3.org/1999/xlink" x="0px" y="0px"
	 viewBox="-154 184.9 650.3 192.1" style="enable-background:new -154 184.9 650.3 192.1;" xml:space="preserve">
<style type="text/css">
	.st0{fill:#F1FF5E;}
	.st1{fill:#A0943F;}
	.st2{fill:#252628;}
</style>
<g id="Layer_2">
	<path id="XMLID_8_" class="st0" d="M-150,367.1c11.8-20.2,30.5-41.7,40.2-52.2c2.9-3.2,2-8.4-1.9-10.3c-11.2-5.7-31.1-17.8-41.4-36
		c-2.2-3.8,0-8.6,4.2-9.6c16.2-3.9,56.2-12.7,106.6-19.7c4-0.5,7.5,2.5,7.5,6.6v105.8c0,3.3-2.4,6.1-5.7,6.5
		c-45.8,6.2-83.1,14.2-102.3,18.6C-148.5,378.1-152.9,372.1-150,367.1z"/>
	<polygon id="XMLID_47_" class="st1" points="-82.2,328.2 -35.8,351.7 -35.8,282.8 	"/>
	<path id="XMLID_48_" class="st0" d="M492.3,367.1c-11.8-20.1-30.5-41.6-40.2-52.2c-2.9-3.2-2-8.4,1.9-10.3
		c11.2-5.7,31.1-17.8,41.5-35.9c2.2-3.8,0-8.6-4.2-9.6c-16.3-4-56.3-12.8-106.6-19.8c-4-0.5-7.5,2.5-7.5,6.6v105.8
		c0,3.3,2.4,6.1,5.7,6.5c45.8,6.2,83.1,14.2,102.3,18.6C490.8,378.1,495.3,372.1,492.3,367.1z"/>
	<polygon id="XMLID_46_" class="st1" points="424.6,328.2 378.2,351.7 378.2,282.8 	"/>
	<path id="XMLID_2_" class="st0" d="M427.4,318.9c0,8.3-7.7,14.5-15.8,12.8c-38.2-8.1-140.1-27.5-241.4-27.5
		c-101.1,0-201.7,19.3-239.7,27.5c-8.1,1.7-15.8-4.5-15.8-12.8v-92.5c0-6.2,4.3-11.5,10.3-12.8c33-7.2,140.3-28.7,246.9-28.7
		s212.5,21.4,245.2,28.7c6,1.3,10.3,6.6,10.3,12.8L427.4,318.9L427.4,318.9z"/>
	<g id="XMLID_12_">
	</g>
</g>
<g id="text">
	<g id="XMLID_14_">
		<g id="XMLID_52_">
			<path id="XMLID_68_" class="st2" d="M93.3,227.1c0-0.4-0.1-0.9-0.3-1.4c-0.5-1.7-1.8-2.9-3.5-3.2c-1.8-0.4-3.5,0.1-4.7,1.4
				c-0.7,0.7-1,1.5-1.3,2.1c-1.6,3.5-2.3,5.3-3.9,8.9c-3,7-5.9,14-8.8,21.1c-3.1-4.7-6.3-9.3-9.5-14c-3-4.4-6-8.7-9.1-13
				c-0.5-0.6-1-1.2-1.5-1.6c-1.4-1-3.2-1.3-4.9-0.6c-1.6,0.7-2.7,2.1-2.9,3.8c-0.1,0.7,0,1.4,0.1,2c1.6,13.2,3.3,26.5,4.9,39.7
				c0.1,0.7,0.2,1.2,0.4,2c0.8,1.9,2.4,2.8,4.5,2.6h0.1c1.3-0.2,2.3-0.5,3-1.3c0.7-0.9,1.1-2,0.9-3.5c-1.1-10-1.7-15-2.9-25.1
				c3.8,6.2,8.7,12.1,12.9,18.3c0.6,0.9,2,2.9,4.9,2.6h0.1c2.9-0.3,3.9-2.5,4.3-3.5c0.5-1.1,0.7-1.7,1.2-2.8
				c2.3-5.4,4.7-10.8,7.1-16.3c0.2-0.5,0.5-1,0.7-1.6c0.8,10,1.2,14.9,2.1,24.9c0,0.6,0.1,1.2,0.3,1.9c0.6,1.9,2.1,3,4.1,2.9
				c2.7-0.1,3.8-1.8,4.2-2.8c0.4-0.9,0.4-1.8,0.3-2.5c-1-13.6-2-27.1-3-40.7C93.4,227.2,93.4,227.2,93.3,227.1z"/>
			<path id="XMLID_67_" class="st2" d="M398.9,250.2c0.2-0.9,0.3-1.8,0.3-2.6c0-2.1-1.3-3.7-3.6-4.2c-1.7-0.4-2.9,0-3.6,0.4
				c-1.1,0.7-1.9,1.8-2.2,3.4c-1.2,5.6-1.8,8.4-3,13.9c-1,4.8-2.1,9.6-3.1,14.4c-0.2-0.3-0.3-0.7-0.5-1
				c-5.5-11.6-11.3-23.3-17.2-34.8c-1.5-2.9-3.8-3.4-5.4-3.2c-2.3,0.2-3.8,1.7-4.2,4.4c-2.4,13.3-4.8,26.6-7.2,39.9
				c-0.1,0.7-0.2,1.5-0.1,2.3c0.3,2.1,1.8,3.5,4,3.7c2.1,0.3,3.9-0.8,4.6-2.7c0.3-0.7,0.4-1.4,0.5-2.1c1-5.5,1.6-8.2,2.6-13.7
				c0.9-4.5,1.7-9,2.6-13.5c4.2,8.1,8.3,16.2,12.3,24.3c1.9,3.8,3.7,7.5,5.5,11.3c0.7,1.5,1.9,2.5,3.4,2.8c0.4,0.1,0.8,0.1,1.3,0.1
				c1.9-0.1,3.3-1.2,4.1-3.3c0.2-0.6,0.3-1.1,0.4-1.6C393.3,275.6,396.1,262.9,398.9,250.2z"/>
			<path id="XMLID_66_" class="st2" d="M-14.5,274.6c-0.1,0-0.1,0.1-0.1,0.1c-0.3,0.3-0.6,0.6-0.9,0.9c-3,3.5-6.8,5.4-11.7,5.8
				c-4,0.4-7.2-0.7-9.9-3.2c-3.2-3.1-4.5-7.1-5.5-10.9c-0.4-2.2-0.7-4.1-0.7-5.9c0-3.4,0.7-6,2.1-8.2c3.3-5.2,11.4-7.7,17.8-5.6
				c0.9,0.3,1.7,0.7,2.6,1.1c0.6,0.3,1.2,0.5,1.8,0.8c2.5,1,4.2,0.1,4.9-0.6c1.8-1.6,1.2-3.8,1-4.5c-0.3-1.1-1-2-2.2-2.6
				c-1.6-0.9-3.2-1.6-4.7-2c-5.7-1.6-11.8-1.4-17.8,0.7c-7.2,2.5-11.9,7.1-14,13.6c-2.4,7.6-1.5,15.3,2.7,23.7
				c2.5,4.9,6.2,8.4,11.1,10.5c4.4,1.8,9.6,2.1,14.6,1.1c4.8-1,9.4-3.1,12.9-6.3c0.9-0.9,2-1.9,2.8-3.1c0.7-1,0.9-2.4,0.5-3.7
				c-0.3-1.1-0.9-2-1.8-2.5C-10.4,272.9-12.3,272.5-14.5,274.6z"/>
			<path id="XMLID_65_" class="st2" d="M279.4,225.2c-7.1-0.7-14.2-1.2-21.3-1.8c-5.5-0.5-8.2-0.7-13.7-1c-0.7-0.1-1.4-0.2-2.1,0
				c-1.4,0.3-3,1.2-3.1,3.9c-0.1,1.9,1,3.3,2.9,3.8c0.8,0.2,1.6,0.4,2.6,0.4c0.5,0,0.8,0.1,1.4,0.1c3.4,0.3,6.9,0.5,10.3,0.8
				c-0.4,4.5-1,9.1-1.3,13.5c-0.2,1.9-0.3,2.9-0.6,4.8c-0.1,1.7-0.2,2.6-0.3,4.3c-0.4,5-0.6,10-1,15c-0.2,2.6,1.5,4.6,4.2,4.9
				c0.1,0,0.2,0,0.2,0c1.6,0.1,2.7-0.4,3.3-0.9c0.7-0.6,1.6-1.6,1.8-3.7c0.2-2.5,0.3-3.8,0.6-6.3c0.9-10.3,1.9-20.6,2.8-30.9
				c2.5,0.3,5,0.5,7.4,0.7c1.1,0.1,2.1,0.2,3.2,0.3c0.2,0,0.3,0,0.5,0.1c0.9,0.1,2,0.2,3.1,0.1c2.3-0.3,3.9-1.9,3.8-4.1
				C284,228.3,283.5,225.6,279.4,225.2z"/>
			<path id="XMLID_64_" class="st2" d="M219.9,220.5c-11.6-0.5-23.2-0.8-34.8-1c-0.6,0-1.4,0-2.3,0.3c-0.7,0.2-1.5,0.6-2,1.3
				c0,0,0-0.1-0.1-0.1c-0.6-0.7-1.9-1.6-4.1-1.6c-8.3,0-16.6,0-24.8,0.2c-4,0.1-5.8,1.9-5.7,5.6c0.2,10,0.4,15.1,0.6,25.1
				c0.1,4.8,0.2,9.6,0.4,14.4c0.1,3.5,1.9,5.3,5.5,5.2c4-0.1,7.9-0.1,11.9-0.1c3,0,5.9,0,8.9,0c1.2,0,1.8,0,3,0c0.6,0,1.3,0,2-0.2
				c1.9-0.5,3-2.1,3-4.1c0-2.1-1.3-3.6-3.4-3.9c-0.9-0.1-1.7-0.2-2.4-0.2c-1.2,0-1.9,0-3.1,0c-5.3,0-10.7,0-16.1,0.1
				c0-4.5-0.1-8.9-0.2-13.3c4,0,8.1-0.1,12.1-0.1c1.7,0,2.6,0,4.3,0c0.3,0,0.7,0,1,0c0.9,0,1.7,0,2.6,0c2.3-0.2,3.8-1.6,4-3.8
				c0.2-2.3-1.2-3.9-3.5-4.4c-0.7-0.1-1.4-0.1-2.1-0.1c-0.1,0-0.2,0-0.3,0c-1.4,0-2.1,0-3.5,0c-4.8,0-9.8,0-14.7,0.1
				c0-4.1-0.1-8.1-0.2-12.1c6.4-0.1,13-0.1,19.3-0.1c0.2,0,0.3,0,0.5,0c0.9,0,1.8-0.1,2.7-0.2c1-0.2,1.8-0.7,2.4-1.4
				c0.5,0.7,1.3,1.2,2.4,1.5c0.8,0.2,1.7,0.3,2.6,0.3c0.1,0,0.2,0,0.3,0c3.7,0.1,7.6,0.2,11.4,0.2c-0.1,2.5-0.2,4.9-0.2,7.3
				c-0.1,3.8-0.1,5.7-0.2,9.5c-0.2,6.9-0.3,13.8-0.5,20.7c-0.1,3,1.8,4.2,3,4.6c0.6,0.2,1.1,0.3,1.7,0.3c0.9,0,1.8-0.2,2.6-0.7
				c1.3-0.8,1.9-2.3,2-4c0.2-4.7,0.2-9.5,0.4-14.2c0.1-1.9,0.1-2.8,0.2-4.7c0.1-2,0.2-3,0.3-5c0.2-4.5,0.4-9,0.5-13.5
				c2.6,0.1,5.2,0.2,7.6,0.3c1,0,1.6,0.1,2.6,0.1c0.2,0,0.5,0,0.7,0c1.1,0.1,2.2,0.1,3.5-0.1c1.5-0.3,2.7-1.3,3.2-2.7
				c0.5-1.4,0.2-2.9-0.8-4C222.5,220.7,220.7,220.6,219.9,220.5z"/>
			<path id="XMLID_63_" class="st2" d="M232.6,220.9c-1.9-0.2-3.1,0.4-3.8,1c-1.1,0.9-1.7,2.2-1.8,3.9c-0.3,4.9-0.6,9.8-0.9,14.7
				c-0.6,10.2-0.9,15.2-1.4,25.4c0,0.1,0,0.1,0,0.2c0,0.4,0,0.8,0.1,1.3c0.2,2.5,2,4,4.5,4.1h0.1c2.5,0.1,4.2-1.2,4.7-3.7
				c0.1-0.8,0.3-1.8,0.4-2.8c0.8-12.3,1.6-24.7,2.3-37c0.1-0.9,0-1.8,0-3C236.7,222.8,235,221.1,232.6,220.9z"/>
			<path id="XMLID_62_" class="st2" d="M292.1,226.1c-1.9-0.4-3.2,0.1-3.9,0.7c-0.8,0.5-1.8,1.6-2,3.8c-0.6,5.1-1.1,10.1-1.7,15.2
				c-0.9,8.5-1.4,12.8-2.4,21.3c-0.1,0.5-0.1,0.9-0.2,1.4c-0.1,1.1-0.3,2.1-0.3,3.3c-0.1,2.6,1.5,4.4,4.2,4.7l0,0
				c2.5,0.3,4.4-0.9,5-3.4c0.2-0.8,0.4-1.5,0.5-2.3c1.5-12.5,3-25,4.5-37.5c0.1-0.8,0.1-1.6,0.1-2.7
				C295.9,228.2,294.5,226.6,292.1,226.1z"/>
			<path id="XMLID_59_" class="st2" d="M36.1,241.9c-3.1-5.8-8-9.5-14.7-10.7c-4.4-0.8-9.1-0.5-13.8,1c-6.5,2.1-11.2,6-13.7,11.6
				c-2.2,4.9-2.6,10.3-1.4,17.1c0.1,1,0.6,2.9,1.3,4.9c2.1,5.8,5.3,10,9.8,12.8c4.7,2.9,10,3.9,16,3c0.9-0.1,1.8-0.3,2.7-0.5
				c8.7-2.1,14.5-7.5,16.7-15.9C41,257.4,40.1,249.5,36.1,241.9L36.1,241.9z M30.1,254c0.7,4.9,0.4,8.3-0.9,11.5
				c-1.7,4.3-4.9,6.8-9.7,7.8c-5.1,1-9,0.1-12.2-3c-2.1-2.1-3.6-4.7-4.5-8.2s-1.8-8.2-0.7-13c1.2-5.1,5.1-8.7,10.7-9.7
				c0.2,0,0.4-0.1,0.5-0.1c8-1.2,12,2.7,14,6.2c1.4,2.5,2.4,5.4,2.7,8.3C30,253.9,30,253.9,30.1,254L30.1,254z"/>
			<path id="XMLID_56_" class="st2" d="M338.7,235.2c-4.4-3.2-9.7-4.8-16.1-4.9c-8.5,0-14.9,3.4-19,10.1c-3.9,6.5-5.2,13.9-3.9,21.9
				c1.1,7.2,5,12.7,11.1,16c2.6,1.4,5.3,2.3,8.3,2.8c1.4,0.2,2.9,0.3,4.5,0.3c6.2,0,11.5-2.1,15.8-6.4c4.8-4.8,6.5-11,7.4-15.3
				c0.4-3,0.6-5.4,0.4-7.8C346.8,244.7,344,239.2,338.7,235.2z M333.1,268.5c-3,3.7-6.8,5.2-11.8,4.6c-4.7-0.6-7.9-2.4-10.1-5.7
				c-1.6-2.4-2.4-5.2-2.4-8.5c0-5.2,0.7-9.2,2.5-12.8c2.8-5.7,7.7-8.2,13.9-7.3c1.1,0.2,2.2,0.4,3.4,0.8c5.7,1.9,8.9,6.4,9,12.7
				c0,2-0.1,3.9-0.5,5.8C336.4,262.8,335.2,265.9,333.1,268.5L333.1,268.5z"/>
			<path id="XMLID_53_" class="st2" d="M130.2,221.3c-2.3-0.6-4.7-0.9-7.2-0.8c-4.4,0.2-8.8,0.4-13.3,0.7c-1.1,0.1-1.6,0.1-2.7,0.2
				c-3.9,0.2-5.4,2.1-5.1,5.8c0.9,13.2,1.8,26.5,2.6,39.7c0,0.5-0.2,0.9,0,1.4c0.6,2.3,2.2,3.5,4.6,3.4c0,0,0,0,0.1,0
				c2.5-0.2,4.1-1.7,4.2-4.2c0.1-1.1,0.1-1.9,0-2.8c-0.1-2.2-0.2-4.3-0.4-6.5c-0.1-2-0.2-4-0.3-6c1.7-0.1,3.4-0.2,5.1-0.3
				c3.4-0.1,6.9-0.2,10.4-0.9c4.6-0.9,8.2-3,10.5-6.2c2.4-3.4,3.2-7.8,2.2-12.8C139.8,226.6,136.1,222.9,130.2,221.3z M111.9,238.9
				c0-0.7-0.1-1.5-0.1-2.2c0-0.9-0.1-1.3-0.1-2.2c-0.1-1.7-0.2-3.3-0.3-5c1.6-0.1,3.3-0.2,4.9-0.3c2.7-0.2,5.6-0.3,8.3-0.4
				c4.2-0.1,6.8,2.4,7.1,6.5c0.3,4.7-2.1,6.5-4.1,7.2l0,0c-1.2,0.4-2.1,0.6-2.9,0.6c-0.9,0-1.3,0.1-2.1,0.1
				c-3.4,0.1-6.9,0.3-10.3,0.6C112.1,242.2,112,240.6,111.9,238.9z"/>
		</g>
	</g>
</g>
</svg>
