<?xml version="1.0" encoding="utf-8"?>
<!-- Generator: Adobe Illustrator 19.0.0, SVG Export Plug-In . SVG Version: 6.00 Build 0)  -->
<svg version="1.1" id="Layer_1" xmlns="http://www.w3.org/2000/svg" xmlns:xlink="http://www.w3.org/1999/xlink" x="0px" y="0px"
	 viewBox="113 -295.8 1186.4 1150.8" style="enable-background:new 113 -295.8 1186.4 1150.8;" xml:space="preserve">
<style type="text/css">
	.st0{opacity:0.6;fill:none;stroke:#727272;stroke-width:2;stroke-miterlimit:10;}
	.st1{opacity:0.6;}
	.st2{fill:#FFFFFF;stroke:#727272;stroke-width:2;stroke-miterlimit:10;}
	.st3{fill:none;stroke:#727272;stroke-width:2;stroke-miterlimit:10;}
</style>
<g id="drawers">
	<path id="XMLID_28_" class="st0" d="M328.1,510.7c12.9-9.5,25.8-19.1,38.7-28.6"/>
	<path id="XMLID_29_" class="st0" d="M250.7,417.5c12.6-10,25.2-20.1,37.7-30.1c-0.3,0.3-0.7,0.7-1,1"/>
	<path id="XMLID_30_" class="st0" d="M326.4,511.8c-27.2-29.3-53.3-59.7-78-91.2c0.4,0.6,0.8,1.2,1.2,1.8"/>
	<path id="XMLID_31_" class="st0" d="M364.1,482c-25.1-30.2-49.4-61-72.9-92.5c0.2,0.1,0.4,0.2,0.7,0.4"/>
	<path id="XMLID_32_" class="st0" d="M313.7,450.8c1,0.7,1.3,2.2,0.9,3.4s-1.4,2.1-2.5,2.7c-1.5,0.8-3.4,1.2-4.9,0.4
		c-1.7-0.9-2.3-3.3-1.5-5c1.1-2.5,4.8-3.3,6.9-1.5"/>
	<path id="XMLID_33_" class="st0" d="M373,473.5c-5.2-4.1-9.4-9.2-13.5-14.3c-20.9-25.8-41.6-51.8-62.1-77.9c-0.5-0.6-1-1.3-0.8-2.1
		c0.1-0.8,1.4-1.2,1.7-0.5"/>
	<path id="XMLID_34_" class="st0" d="M406.3,443.2c-13.9-18.9-27.8-37.8-41.7-56.7c-9.1-12.4-18.2-24.8-25.9-38"/>
	<path id="XMLID_36_" class="st0" d="M297.8,378.6c13.6-12.1,27.7-23.7,42.2-34.6"/>
	<path id="XMLID_38_" class="st0" d="M373.3,473.8c11.3-11.2,23.4-21.5,36.2-30.8c-0.4-0.1-0.8-0.2-1.2-0.3"/>
	<path id="XMLID_40_" class="st0" d="M360.8,414.8c0.3-0.3,0.7,0,0.8,0.4c0,0.4-0.3,0.7-0.5,0.9c-0.9,1-2,2-3.3,1.8
		c-1.8-0.2-2.4-2.5-2.6-4.3c-0.1-1-0.1-2.1,0.2-3c0.4-1,1.2-1.8,2.2-1.9c1.3-0.1,2.3,1,3.1,1.9c0.7,0.8,1.4,1.7,1.7,2.7
		s0,2.3-0.9,2.9"/>
	<path id="XMLID_42_" class="st0" d="M349.1,337c11.7-8.9,23.4-17.8,35.1-26.7"/>
	<path id="XMLID_44_" class="st0" d="M419.2,436c10.3-7.4,20-15.7,28.9-24.7c2.6-2.6,5.1-5.4,8.3-7.2c-0.4,0-0.8,0.1-1.2,0.1"/>
	<path id="XMLID_46_" class="st0" d="M419.3,436.1c-9.6-7.5-16.8-17.5-23.9-27.3c-16.3-22.7-32.5-45.4-48.8-68.1"/>
	<path id="XMLID_48_" class="st0" d="M451.8,403.8C451.6,403.6,451.6,403.6,451.8,403.8"/>
	<path id="XMLID_50_" class="st0" d="M453.6,405.1c-21.4-32.4-43.2-64.5-65.3-96.4c-0.2-0.3,0.4-0.5,0.6-0.3c0.2,0.3,0.1,0.7-0.1,1"
		/>
	<path id="XMLID_52_" class="st0" d="M462,399.7c-2.8-4-5.3-8.1-7.8-12.3c-14.2-23.6-29.7-46.5-45.1-69.4
		c-3.8-5.7-7.7-11.4-11.5-17.1c1.7,0.7,3.5,1.3,5.2,2"/>
	<path id="XMLID_54_" class="st0" d="M495.9,368.7c-6.8-5.9-9.8-14.9-14.1-22.8c-2.1-3.8-4.5-7.4-6.9-11
		c-14.2-21.1-28.5-42.2-42.7-63.2"/>
	<path id="XMLID_1133_" class="st0" d="M505.5,361.8c-20.9-33-41.7-66.1-62.3-99.3"/>
	<path id="XMLID_1134_" class="st0" d="M480.7,232c11,27.8,32.5,50,46.6,76.4c4,7.4,7.3,15.2,11.6,22.4c0.3,0.4,0.5,1,0.1,1.4
		c-0.4,0.4-0.9-0.6-0.4-0.5"/>
	<path id="XMLID_1135_" class="st0" d="M395.2,299.1c13.4-8.6,22.4-23.4,36.7-30.4"/>
	<path id="XMLID_1136_" class="st0" d="M443.1,259.4c11.4-9.9,23.3-19.2,35.7-27.8"/>
	<path id="XMLID_1137_" class="st0" d="M462.5,399.5c11.9-9.1,23.5-18.6,34.9-28.3c0.3-0.3,0.7-0.8,0.5-1.1
		c-0.2-0.4-0.9,0.3-0.5,0.4"/>
	<path id="XMLID_1138_" class="st0" d="M505,360.7c11.3-6.9,21.8-15,31.3-24.1"/>
	<path id="XMLID_1139_" class="st0" d="M409.6,375.3c0.4,0.6,0.1,1.3-0.2,1.9c-0.7,1.3-1.5,2.6-2.8,3.3c-1.3,0.8-3,0.8-4.1-0.2
		c-1.6-1.5-0.6-4.2,0.5-6.1c0.4-0.7,0.9-1.4,1.6-1.7c1.3-0.4,2.5,0.8,3.2,1.9c0.7,1.1,1.6,2.5,3,2.4"/>
	<path id="XMLID_1141_" class="st0" d="M455.9,338c-1,1.5-2.2,2.9-3.5,4.1c-1.1,1-2.8,1.9-4,1.1c-1-0.6-1.1-2-1-3.1
		c0.3-2.6,1.8-5,3.9-6.5c1.7,1.5,3.2,3.2,4.3,5.1c-0.3,0.2-0.5,0.5-0.8,0.7"/>
	<path id="XMLID_1147_" class="st0" d="M498.4,301.9c-0.6,1.4-1.9,2.7-3.5,2.8c-1.6,0.2-3.3-0.9-3.5-2.5c-0.1-1,0.3-1.9,0.8-2.8
		c1-1.7,2.3-3.3,3.9-4.6c0.4-0.3,0.9-0.7,1.5-0.6c0.4,0.1,0.7,0.3,1,0.6c1.3,1.5,1.9,3.6,1.4,5.6c-0.5,1.9-2,3.6-3.9,4.2"/>
	<path id="XMLID_1149_" class="st0" d="M619.1,292.4c-1-3.9-2.3-8.2-5.9-10.1c-2.6-1.4-5.7-1.2-8.7-0.9c-3.6,0.3-7.1,0.7-10.6,1.6
		c-7.9,2.2-14.6,7.4-19.9,13.6c-5.3,6.2-9.3,13.4-13.3,20.5"/>
	<path id="XMLID_1151_" class="st0" d="M560,316.5c-2-3.9-4-7.7-6.1-11.6c-2.6,2.1-6.4,1.4-9.4,0.2c-2.8-1.1-5.7-2.6-7.2-5.2
		c-1.2-2-1.5-4.4-1.9-6.7c-1.4-8.3-4.2-16.4-8.5-23.7c-1.8-3.2-4-6.3-7.3-8.1c-2.6-1.4-5.7-1.9-8.1-3.6c-1.5-1.1-2.7-2.6-3.5-4.2
		c-3.7-7-1.7-16.5,4.5-21.3"/>
	<path id="XMLID_1153_" class="st0" d="M548.7,155c0.2,0,0-0.4-0.2-0.3c-0.2,0.1-0.2,0.4-0.1,0.6c0.7,3.4,2,6.8,3.8,9.8"/>
	<path id="XMLID_1155_" class="st0" d="M508.9,231.4c-2.1-1.7-3.3-4.2-4.5-6.6c-1.1-2.3-2.3-4.6-3.4-6.9"/>
	<path id="XMLID_1157_" class="st0" d="M501.8,218.7c0.7-6.1,4.6-11.4,9.3-15.4c4.7-4,10.1-6.9,15.2-10.3c9-6.1,17-13.7,23.3-22.6
		c2.3-3.2,4.4-6.6,5.6-10.4"/>
	<path id="XMLID_1159_" class="st0" d="M545.5,155.9c0.2,0.5-0.6,0.8-1.2,0.6c-2.8-0.7-5.6-1.3-8.4-2"/>
	<path id="XMLID_1161_" class="st0" d="M538.8,152.7c-6.9,5.6-10.2,14.8-17.3,20.2c-4.8,3.6-10.8,5.2-16.2,7.6
		c-10.1,4.4-18.6,12-29,15.8c-2.5,0.9-5.2,1.6-7.7,0.8c-1.7-0.5-3.3-1.7-5-2.2c-2.2-0.5-4.5,0.3-6.7,1.2c-2.1,0.9-4.4,1.8-6.6,1.5
		s-4.5-2.4-4-4.7c0.2-1,1-1.9,1.7-2.6c2.3-2.3,5.1-4.2,8.1-5.5c3.6-1.6,7.4-2.4,11.1-3.8c12.2-4.5,22-15.4,25.1-28"/>
	<path id="XMLID_1163_" class="st0" d="M493.1,152.3c1.2,3.3,2.4,6.5,3.5,9.8"/>
	<path id="XMLID_1165_" class="st0" d="M498.3,162.5c-0.1-0.5-0.9-0.3-1.2,0.1c-3.6,3.5-5,8.7-7.4,13.2
		c-4.9,9.2-14.8,15.6-25.2,16.3"/>
	<path id="XMLID_1167_" class="st0" d="M490.3,153.1c-1.9,0.9-4.1,1.2-6.2,0.8"/>
	<path id="XMLID_1169_" class="st0" d="M483.5,154.4c-3.9,8.4-8.7,16.8-16.2,22.2c-5.7,4.1-12.5,6.2-19.1,8.4
		c-6.2,2-12.7,4.5-16.6,9.7c-2.9,3.8-4.1,8.5-5.2,13.1c-0.3,1.1,0.2,2.9,1.3,2.4"/>
	<path id="XMLID_1171_" class="st0" d="M620.3,292.2c-6.4,1.8-12.6,4.1-18.6,6.9c-6.7,3.2-13.3,7.2-17.1,13.6
		c-4.6,7.7-4.6,17.9-10.9,24.3c-3.2,3.3-7.5,5.1-11.9,6.2c-5.7,1.5-12.2,2-17.1-1.2"/>
	<path id="XMLID_1173_" class="st0" d="M543.2,156.8c-2.6,3.3-5.2,6.6-7.7,9.9c-2.9,3.7-5.8,7.4-9.6,10.2
		c-6.2,4.6-14.2,6.1-20.9,9.8c-14.5,8-21.5,25.1-34.6,35.2"/>
	<path id="XMLID_2541_" class="st0" d="M544.9,338.6"/>
	<path id="XMLID_2542_" class="st0" d="M544.4,342.2c-0.8-1.6-1.5-3.3-2.3-4.9"/>
	<path id="XMLID_2543_" class="st0" d="M477.6,226.6c-2.4-3.3-4.2-6.9-5.3-10.8"/>
	<path id="XMLID_2544_" class="st0" d="M463.5,217.6c-5.9-0.2-11.5-3.2-17.4-3.7c-3.8-0.4-7.8,0.2-11.1-1.7"/>
	<path id="XMLID_2545_" class="st0" d="M460.1,220"/>
	<path id="XMLID_2546_" class="st0" d="M463.6,218.5c-17.9,12.9-34.7,27.2-51.6,41.4c-9,7.6-18,15.2-26.9,22.8"/>
	<path id="XMLID_2547_" class="st0" d="M388.7,280.7c-11.7,8.4-23.2,17.1-34.4,26.2c-9.8,7.9-19.4,16-29,24c-4,3.4-8,6.7-12,10.1"/>
	<path id="XMLID_2549_" class="st0" d="M314,340c-26.4,19.8-52,40.8-76.6,62.8"/>
	<path id="XMLID_2555_" class="st0" d="M430.7,213.3c-28.6,23.8-57.7,47.1-87.2,69.8"/>
	<path id="XMLID_2562_" class="st0" d="M346.1,281.7c-10,8.9-20.4,17.2-30.9,25.5c-7.4,5.9-14.8,11.7-22.2,17.6
		c-23.9,19-47.7,37.9-71.6,56.9"/>
	<path id="XMLID_2564_" class="st0" d="M236.7,403c-5.3-6.8-10.4-13.6-15.4-20.6"/>
	<path id="XMLID_2566_" class="st0" d="M426.2,209.8c-7.5,5.7-14.9,11.4-22.4,17.1"/>
	<path id="XMLID_2568_" class="st0" d="M405.6,227.1c-16.7,13.3-33.6,26.3-50.8,39"/>
	<path id="XMLID_2575_" class="st0" d="M356.9,265.4c-29.4,22-58,45-85.7,69"/>
	<path id="XMLID_2577_" class="st0" d="M272.7,332.4c-19.8,22.5-47,37.1-69.2,57.2"/>
	<path id="XMLID_2579_" class="st0" d="M545.9,343.6c-17.1,16.5-35.4,31.9-54.5,46"/>
	<path id="XMLID_2581_" class="st0" d="M492.4,389.6c-25.2,22.3-51.1,43.7-77.7,64.2c-3.2,2.4-6.3,4.9-9,7.8
		c-3.2,3.4-5.9,7.6-10.2,9.2"/>
	<path id="XMLID_2583_" class="st0" d="M395.7,472.2c-17.6,16.5-36.5,31.8-56.5,45.5c-5.5,3.8-11.2,7.5-15.8,12.4"/>
	<path id="XMLID_2585_" class="st0" d="M470.5,223.5c-23.3,17.6-46.4,35.6-69,54"/>
	<path id="XMLID_2587_" class="st0" d="M403.8,276.6c-22.6,18.7-45.5,37-68.9,54.9"/>
	<path id="XMLID_3707_" class="st0" d="M336.7,332.4c-37.6,27.9-74.4,57-110.2,87.3"/>
	<path id="XMLID_3708_" class="st0" d="M226.4,416.3c-10-12.2-19.4-24.9-28.2-38"/>
	<path id="XMLID_3709_" class="st0" d="M224.1,415.5c-2.1,1.1-2.7,4.4-1.1,6.2"/>
	<path id="XMLID_3710_" class="st0" d="M219,419.2c-9.1-9.8-15.4-21.7-21.7-33.5c-0.7-1.4-1.5-2.8-1.4-4.4c0.1-1.6,1.5-3.1,3-2.9"/>
	<path id="XMLID_3711_" class="st0" d="M333.9,544.1c-19.3-23.7-38.6-47.4-57.9-71.1"/>
	<path id="XMLID_3712_" class="st0" d="M282.1,481.3c-5.2-5.5-10.2-11.2-15.3-17c-14.4-16.3-28.8-32.6-43.2-48.9"/>
	<path id="XMLID_3713_" class="st0" d="M334.3,544.8c-1.6,1.6-4.2,1.6-6.2,0.7c-2-0.9-3.6-2.5-5.1-4.1c-20.7-21.5-41.5-43-59.6-66.6
		c-6.6-8.6-12.9-17.4-20.3-25.3c-9.3-9.9-20.7-18.6-25.2-31.4"/>
</g>
<g id="chair">
	<polyline id="XMLID_4194_" class="st0" points="1046.2,599.1 1042.8,660.8 1042,659 	"/>
	<path id="XMLID_4193_" class="st0" d="M1052.7,599.9c0.1,6.9,0.1,13.9,0.2,20.8c0.1,13.1-1.8,39.2-1.8,39.2"/>
	<path id="XMLID_4192_" class="st0" d="M1035.1,658.6c2.2,1.5,4.3,2.9,6.5,4.4"/>
	<path id="XMLID_4191_" class="st0" d="M1053.3,655.6c-4.2,1.4-8,4.3-10.5,8"/>
	<path id="XMLID_4190_" class="st0" d="M1035,598.2c4.1,1,8.2,1.9,12.4,2s8.5-0.8,12-3.1c1.2-0.8,2.2-1.7,3.4-2.5
		c3.6-2.3,8.1-2.8,12.2-4.2c2.6-0.9,5-2.1,7.4-3.3c9.5-4.8,19-9.6,28.5-14.4c4.6-2.3,9.2-4.6,14.1-6c4.9-1.3,10.2-1.8,14.1-4.9"/>
	<path id="XMLID_4189_" class="st0" d="M1124.9,568.3c-0.5,11.7-0.8,23.5-0.7,35.3c0,2,0.1,4,1,5.7"/>
	<path id="XMLID_4188_" class="st0" d="M1131.9,568.3c0.3,4.6,0.7,9.2,1,13.9c0.6,8.9,1.3,18-0.6,26.8"/>
	<path id="XMLID_4187_" class="st0" d="M1139.8,565.1c1.4,13.4,1.3,27-0.2,40.5c0.2-0.4,0.4-0.8,0.7-1.2"/>
	<path id="XMLID_4186_" class="st0" d="M1140,604.3c0.7,0.7,0.7,1.9,0.4,2.9c-0.4,0.9-1.1,1.7-1.8,2.4c-1.5,1.6-3.4,3.2-5.5,2.8"/>
	<path id="XMLID_4185_" class="st0" d="M1124,608.1c2.5,2.1,5.3,3.7,8.4,4.9"/>
	<path id="XMLID_4184_" class="st0" d="M1034.4,598.4c0.8,19.8,1.2,39.6,1.2,59.4c0,0.3,0,0.7,0.3,0.9c0.3,0.1,0.6-0.4,0.3-0.5"/>
	<path id="XMLID_4183_" class="st0" d="M1034,594.5c-0.2,0.1,0.1,0.5,0.3,0.4c0.2-0.1,0.3-0.4,0.3-0.6c1-12.1,1.6-24.3,3.4-36.3
		c0.6-4,1.3-8.1,0.9-12.2c-0.2-2.2-0.8-4.3-0.6-6.4"/>
	<path id="XMLID_4182_" class="st0" d="M1039,534.3c8.6-17.7,15-36.4,19-55.6c0.4-1.9,0.8-3.7,1-5.6c0.6-5.8-0.4-11.8,0.9-17.5"/>
	<path id="XMLID_4181_" class="st0" d="M1033.3,533.4c-1.3-14.7,5.4-28.7,9.1-43c3.2-12.5,4.1-25.5,8-37.8c1-3.1,1.2-7.3,3.3-9.8
		c2.2-2.7,6.2-3.6,9.2-5.4c3.3-2.1,20.7-9.8,25-10.1c4.3-0.3,8.4-1.8,12.6-2.9c9.9-2.4,20.5-2.1,29.8-6.2"/>
	<path id="XMLID_4180_" class="st0" d="M1048.2,535.7c-0.6,3-0.3,6.2-0.3,9.2c0,3.3-0.4,6.7-0.8,10c-1.6,13.9-3.2,27.9-4.8,41.8"/>
	<path id="XMLID_4179_" class="st0" d="M1154.9,427.5c2.5,0.5,4.9,1.1,7.4,1.6c0.9,0.2,1.9,0.4,2.7,1"/>
	<path id="XMLID_4178_" class="st0" d="M1151.9,426.3c1.5-15.3,2.6-30.6,3.4-46c0.2-3.8,0.3-7.7,0-11.5c-0.3-2.6-0.8-5.2-1.1-7.9
		c-0.4-3-0.5-6.1-0.7-9.1c-0.2-5-0.5-10-0.2-15c0.3-6.8,1.6-13.6,2.8-20.3c1.2-6.4,2.4-13,5.5-18.8c2.5-4.7,6.4-8.8,11.5-10.4
		c4-1.2,8.3-0.8,12.5-0.4c3.8,0.4,7.6,0.8,11.3,1.2"/>
	<path id="XMLID_4177_" class="st0" d="M1164.6,429.4c1.6-14,5.9-27.5,9.6-41c8-29.2,13.4-59,21.3-88.2c0.9-3.3,1.9-6.7,4.4-9"/>
	<path id="XMLID_4176_" class="st0" d="M1067.7,481c5.2,2.7,11.6,1.4,17.3,0c5.6-1.4,11.2-2.8,16.8-4.2c3.3-0.8,6.6-1.6,9.9-2.7
		c2.9-0.9,5.8-2,8.8-2.8s6.1-1.3,9.2-1.8c8.2-1.4,16.4-2.8,24.7-4.2c0.1,0.5,0.2,0.9,0.3,1.4"/>
	<path id="XMLID_4175_" class="st0" d="M1141.9,562.6c0.8-7.3,1.7-14.6,2.5-21.9c2.9-25.7,5.9-51.5,11.7-76.8c0.1-0.5,0.6-1.1,1-0.8
		"/>
	<path id="XMLID_4174_" class="st0" d="M1155.1,463.8c5.8-1.1,10.3-6,12.7-11.4c1.6-3.5,2.5-7.5,2.1-11.3s-2.3-7.7-5.4-9.9"/>
	<path id="XMLID_4173_" class="st0" d="M857.6,566.2"/>
	<path id="XMLID_4172_" class="st0" d="M857.6,566.2"/>
	<path id="XMLID_4171_" class="st0" d="M857.7,566.3c1.1,16.4,2.3,32.9,3.4,49.3c0.2,2.8,0.4,5.6,0.5,8.4c0,0.4,0.5-0.3,0.1-0.4"/>
	<path id="XMLID_4170_" class="st0" d="M861.9,623.3c3,0.6,6.1,1.3,9.1,1.9"/>
	<path id="XMLID_4169_" class="st0" d="M879.4,620.7c-1.1-0.3-2.2,0.6-3.1,1.4c-1.6,1.6-3,3.4-4.3,5.2"/>
	<path id="XMLID_4168_" class="st0" d="M871.2,570.6c0.3,18.5,0.1,37-0.7,55.5"/>
	<path id="XMLID_4167_" class="st0" d="M878.5,573.1c1.9,16.7,2.2,33.5,1.1,50.3"/>
	<path id="XMLID_4166_" class="st0" d="M860.9,522.9c18.2,6.1,37.1,10.1,56.3,12c8.7,0.9,17.5,1.3,26.2,2.4
		c16.8,2.1,33.2,6.8,49.9,9.5c13.3,2.2,26.9,3,40.4,2.7"/>
	<path id="XMLID_4165_" class="st0" d="M1032.5,535.3c0.1,2.6,1.3,5.2,3.2,7c1.4,1.2,3,2,4.7,2.8"/>
	<path id="XMLID_4164_" class="st0" d="M861.6,521.9c0.6-1.3-0.1-2.7-0.9-3.8c-0.9-1.1-2-2-2.5-3.2c-0.3-0.8-0.4-1.6-0.5-2.4
		c-0.7-6.7-1.3-14,2.6-19.5c1.8-2.5,4.3-4.3,6.6-6.3"/>
	<path id="XMLID_4163_" class="st0" d="M864.7,487.8c15.6,4.3,31.3,8.6,47.3,11c6.2,1,12.5,1.7,18.7,2.8c4.7,0.9,9.3,2,14,2.9
		c22.2,4.6,45,5.8,67.7,7c6.1,0.3,12.2,0.6,18.2-0.7"/>
	<path id="XMLID_4162_" class="st0" d="M861.9,488.8c1.3-8,2.5-15.9,3.8-23.9c0.6-3.9,1.2-8,0-11.7c-2-6.1-8.5-10.2-9.6-16.6
		c-0.4-2.4,0-4.9,0.7-7.3c0.3-1.2,0.8-2.4,1.7-3.1c0.6-0.5,1.4-0.8,2.1-0.9c2.9-0.5,5.9,0.8,7.9,2.9c2.1,2.1,3.3,4.8,4.2,7.6
		c1.9,6.1,2.1,12.6,1.8,18.9c-0.5,11-2.7,22-6.5,32.4"/>
	<path id="XMLID_4161_" class="st0" d="M858.2,562.1c-1.2-16.4-2.3-32.8-3.5-49.2c0-0.3,0-0.6,0.2-0.8s0.7-0.1,0.6,0.2"/>
	<path id="XMLID_4160_" class="st0" d="M864.6,561c-0.2-11.6-0.9-23.2-2.2-34.8"/>
	<path id="XMLID_4159_" class="st0" d="M864.8,564.5c0.2,3.4,4.3,4.9,7.6,5.6c18.3,3.8,36.5,7.6,54.8,11.4c10.5,2.2,21,4.4,31.4,6.5
		c5.1,1.1,10.2,2.1,15.3,2.9c5.5,0.8,11,1.3,16.5,1.8c13.7,1.2,27.4,2.3,41.1,3.5"/>
	<path id="XMLID_4158_" class="st0" d="M999.4,402.1c-3.9,23.9-5.9,48-6,72.2"/>
	<path id="XMLID_4157_" class="st0" d="M966.3,398c1.2,0.4,2.5,0.5,3.7,0.7c3.8,0.4,7.6,0.9,11.4,1.3c2,0.2,4,0.5,6,0.5
		c3.1,0.1,6.3-0.2,9.4-0.8"/>
	<path id="XMLID_4156_" class="st0" d="M868.3,484.9c9.9-2.1,20-3.7,30-4.9c2.6-0.3,5.3-0.6,7.9-0.6c4.6-0.1,9.2,0.7,13.8,0.4
		c4.7-0.2,9.3-1.5,14-1.7c6.8-0.4,13.6,1.3,20.4,0.7c7.6-0.7,14.7-4.1,22.3-4.6c5.8-0.3,11.6,1.1,17.4,1c0,0.8-0.1,1.6-0.1,2.4"/>
	<path id="XMLID_4155_" class="st0" d="M863.8,452.9c-4.3-1.7-7.9-5-9.9-9c-1.6-3.2-2.3-6.8-2.7-10.3c-0.4-3.4-0.5-7.1,1.3-10.1
		c0.9-1.5,2.2-2.8,3.5-4c2.1-2,4.3-3.9,6.4-5.9c1.1-1,2.5-2,3.9-1.8"/>
	<path id="XMLID_4154_" class="st0" d="M864.9,411.5c5.4-1.2,10.7-2.3,16.1-3.5c2.5-0.5,4.9-1.1,7.4-1.4c2.9-0.4,5.8-0.5,8.6-0.8
		c17.5-1.4,35-6.5,52.4-4.3c2,0.2,4,0.6,5.9,0.3c4.1-0.5,7.4-3.4,10.4-6.2c0.2-0.2,0.3-0.3,0.5-0.5"/>
	<path id="XMLID_4153_" class="st0" d="M964.5,395.4c2-1.6,2.4-4.5,2.7-7c1.5-14.6,1.5-29.7-3.4-43.6c-0.8-2.4-1.8-4.7-2.4-7.2
		c-0.4-1.9-0.6-3.8-0.8-5.8c-0.6-5.4-1.1-10.8-1.7-16.3c-0.8-7.8-1.6-15.8,0.2-23.5s6.7-15.1,14.1-17.7c4.5-1.6,9.4-1.4,14.2-1.2
		c9.2,0.2,18.4-0.2,27.5-1.3c3.8-0.4,8.3-0.7,10.5,2.5"/>
	<path id="XMLID_4152_" class="st0" d="M1072.6,409.6c8-19.3,9.4-40.5,12-61.3c1.9-15,4.5-29.9,7.2-44.8c0.6-3.3,1.2-6.7,2.2-9.9
		c1.3-4.3,3.4-8.4,5.5-12.4c1.2-2.3,2.4-4.6,4.2-6.4c1.8-1.8,4.2-3.1,6.8-3c0.7,0,1.5,0.3,1.8,0.9"/>
	<path id="XMLID_4151_" class="st0" d="M999.4,400.1c5.8,0.9,11.7,1.8,17.5,2.6c12.3,1.9,24.6,3.7,36.9,5.6c3.1,0.5,6.2,0.9,9.3,1.4
		c9.2,1.4,18.4,2.8,27.6,3.6c3.5,0.3,7.1,0.5,10.6,1c10.6,1.4,21.6,4.8,31.5,1.1"/>
	<path id="XMLID_4150_" class="st0" d="M1133.1,416.6c-1.2-21.9-1.1-43.8,0.4-65.7c1-15.2,2.7-30.4,7.8-44.7
		c3-8.4,7.4-16.6,14.2-22.4c6.8-5.7,16.5-8.7,25-5.8"/>
	<path id="XMLID_4149_" class="st0" d="M1024.1,272.6c21-4.8,43-0.4,64.5-1.4c4-0.2,8-0.6,12-0.7c4.7-0.1,9.4,0.2,14.1,0.6
		c6.9,0.5,13.8,1,20.8,1.5c5.2,0.4,10.4,0.7,15.6,1.6c6.2,1,12.3,2.8,18.6,2.9c6,0.2,12.1-1.1,17.9,0.3c5.8,1.4,11.4,6.8,10.1,12.6
		c-0.4,0.3-0.9,0.6-1.3,0.8"/>
	<path id="XMLID_4148_" class="st0" d="M995.6,474.1c15.7,2.4,31.4,4.8,47.1,7.2"/>
	<path id="XMLID_4147_" class="st0" d="M1000.9,397.4c2.1-7.8,5.6-15.1,7.7-22.8c5.2-19,1.6-39.2,3.6-58.8c0.8-8,2.5-15.9,4.4-23.8
		c1.6-6.9,3.7-14.3,9.2-18.8c0.5,0.5,1,1,1.5,1.5"/>
	<path id="XMLID_4146_" class="st0" d="M1113.6,479.5c-0.3,0.3-0.4,0.8-0.3,1.2"/>
	<path id="XMLID_4145_" class="st0" d="M1111.8,487.9c-0.2,1.4-0.6,2.7-1.1,4"/>
	<path id="XMLID_4144_" class="st0" d="M1109.3,502.4c-0.8,1.6-1.3,3.4-1.2,5.3"/>
	<line id="XMLID_4143_" class="st0" x1="1107.6" y1="516.4" x2="1107.6" y2="526.4"/>
	<path id="XMLID_4142_" class="st0" d="M1107.4,532.8c-0.1,1.8-0.3,3.5-0.4,5.3"/>
	<path id="XMLID_4141_" class="st0" d="M1105.9,549.3c-0.1,0.4-0.2,0.8-0.3,1.2"/>
	<line id="XMLID_4140_" class="st0" x1="1104.6" y1="562.4" x2="1104.6" y2="565.4"/>
	<path id="XMLID_4139_" class="st0" d="M1134.7,416.4c3.3,0,5.9,2.9,8.9,4.2c2.2,0.9,5,1.3,5.9,3.5"/>
	<path id="XMLID_4138_" class="st0" d="M1049.4,533.4c5.1-18,10.2-36,15.3-54"/>
	<path id="XMLID_4137_" class="st0" d="M1065.4,474.2c2.5-1.1,4.8-2.5,6.8-4.4c1-0.9,1.9-1.9,2.4-3.1c0.4-0.9,0.6-2,0.6-3
		c0.2-3-0.6-6.1-2.4-8.5s-4.5-4.2-7.5-4.4c-1.1-0.1-2.4,0-3.3,0.7c-1.3,0.9-1.7,2.7-2,4.2c-0.2,1.4-0.4,2.7-0.4,4.1
		c0,0.6,0.1,1.4,0.6,1.5"/>
</g>
<g id="sideboard">
	<path id="XMLID_4345_" class="st0" d="M760.4-154.7c-0.6,0-1.1-0.3-1.5-0.7"/>
	<path id="XMLID_4344_" class="st0" d="M760.3-158.7c-7.2,25.6-14.5,51.1-21.7,76.7c-2.2,7.7-4.3,15.3-7.7,22.6"/>
	<path id="XMLID_4343_" class="st0" d="M920.3-113.1c-6.7,22.6-13.4,45.1-20.1,67.7c-3.1,10.4-6.2,21-11.4,30.6"/>
	<path id="XMLID_4342_" class="st0" d="M760.4-160.4c8.9,0.8,17.8,2.3,26.4,4.6c4.6,1.2,9.1,2.5,13.6,3.9
		c40,12.1,79.7,24.9,120,35.8"/>
	<path id="XMLID_4341_" class="st0" d="M735.1-61c14.6,4.5,29.2,9.1,43.8,13.6c4.3,1.3,8.7,2.7,13,4C824.6-33.3,857.3-23.1,890-13
		c0.3,0.1,0.7,0.3,0.7,0.6c0,0.3-0.7,0.3-0.5,0"/>
	<path id="XMLID_4340_" class="st0" d="M749.8-113.6c53.3,13.7,106,30,157.7,48.9"/>
	<path id="XMLID_4339_" class="st0" d="M784.4-134.4c-3.2,2.2-3.6,7.3-0.9,10.1c1.9,1.9,4.6,2.4,7.2,3c27.4,5.9,53.2,18,80.8,23.1
		c2.8,0.5,5.7,0.9,8.3-0.2s4.4-4.4,3.1-6.8c-1-1.8-3.1-2.5-5.1-3c-31.1-8.7-62.1-17.3-93.2-26"/>
	<path id="XMLID_4338_" class="st0" d="M798.5-129.4c4.4,3.8,10.2,5.7,15.7,7.4c8.9,2.8,17.8,5.4,26.8,7.9c8.1,2.3,16.8,4.5,25,2.2"
		/>
	<path id="XMLID_4337_" class="st0" d="M772-86.8c-3.2,2.2-3.6,7.3-0.9,10.1c1.9,1.9,4.6,2.4,7.2,3c27.4,5.9,53.2,18,80.8,23.1
		c2.8,0.5,5.7,0.9,8.3-0.2s4.4-4.4,3.1-6.8c-1-1.8-3.1-2.5-5.1-3c-31.1-8.7-62.1-17.3-93.2-26"/>
	<path id="XMLID_4336_" class="st0" d="M786.1-81.9c4.4,3.8,10.2,5.7,15.7,7.4c8.9,2.8,17.8,5.4,26.8,7.9c8.1,2.3,16.8,4.5,25,2.2"
		/>
	<path id="XMLID_4335_" class="st0" d="M729.2-58.3c0-0.3,0.2-0.5,0.5-0.5"/>
	<path id="XMLID_4334_" class="st0" d="M725.6-58c38.2,18.6,79.8,29.1,121.1,39.4c4.4,1.1,8.7,2.2,13.1,3
		c10.6,2.1,21.5,2.9,32.4,2.5"/>
	<path id="XMLID_4333_" class="st0" d="M800.1-26.6c0.6,0,1.1,0.1,1.7,0.1"/>
	<path id="XMLID_4332_" class="st0" d="M799.2-22.2c-5.1,26.3-10.1,52.6-15.2,78.8"/>
	<path id="XMLID_9701_" class="st0" d="M785.4,53.4"/>
	<path id="XMLID_6383_" class="st0" d="M794.6,54.7"/>
	<path id="XMLID_4347_" class="st0" d="M785.5,53c0.2-0.5,0.9-0.5,1.5-0.5c1.7,0.2,3.3,0.3,5,0.5c1.2,0.1,2.6,0.5,2.8,1.7"/>
	<path id="XMLID_4323_" class="st0" d="M818.4-21.5c-6.4,26.8-15.3,53-26.6,78.1c0.6,0,1.3,0,1.9-0.1"/>
	<path id="XMLID_4322_" class="st0" d="M817.7-16.2c1.6-2.2,4.2-3.6,6.9-3.8"/>
	<path id="XMLID_4321_" class="st0" d="M827.6-15.7c-3.3,14.8-6.7,29.6-10,44.4c-0.7,3.1-1.2,6.8,1,8.9"/>
	<path id="XMLID_4320_" class="st0" d="M840.9-11.8c0.3-0.5,0-1.3-0.5-1.5"/>
	<path id="XMLID_4319_" class="st0" d="M843.3-16.5c-3,4.7-4,10.4-5.3,15.9c-2.6,11.2-8.1,26.8-13.4,37"/>
	<path id="XMLID_4318_" class="st0" d="M816.2,38.7c3.3,0,6.7,0.3,10,0.8"/>
	<path id="XMLID_4317_" class="st0" d="M927-112.2c0.3,0.5,0.8-0.8,0.2-0.8s-1,0.7-1.1,1.3c-9.1,31-18.2,61.9-27.3,92.9
		c-0.8,2.7-1.6,5.4-3.5,7.5c-0.3,0.3-0.6,0.7-0.4,1.1c0.2,0.4,0.9-0.2,0.5-0.3"/>
	<path id="XMLID_4316_" class="st0" d="M1262.4-8.1c0.5,0.3,1.1,0.4,1.7,0.2"/>
	<path id="XMLID_4315_" class="st0" d="M1264.6-11.5c-7.7,25.4-15.3,50.9-23,76.3c-2.3,7.6-4.6,15.3-5.6,23.2"/>
	<path id="XMLID_4314_" class="st0" d="M1105.2-59.1c-6.5,22.6-13,45.3-19.4,67.9c-3,10.5-6,21-6.8,31.9"/>
	<path id="XMLID_4313_" class="st0" d="M1265.5-13c-8-4.1-16.2-7.6-24.7-10.4c-4.5-1.5-9-2.7-13.5-4
		c-40.2-11.3-80.6-21.9-120.4-34.4"/>
	<path id="XMLID_4312_" class="st0" d="M1233.3,84.4c-14.7-4-29.5-8.1-44.2-12.1c-4.4-1.2-8.7-2.4-13.1-3.6c-33-9.1-66-18.1-99-27.2
		c-0.3-0.1-0.7-0.1-0.9,0.1c-0.2,0.3,0.4,0.6,0.4,0.3"/>
	<path id="XMLID_4311_" class="st0" d="M1249.2,32.2c-52.3-17.2-105.5-31.7-159.3-43.6"/>
	<path id="XMLID_4310_" class="st0" d="M1231.2-3.9c1.5,3.5-0.9,8.1-4.6,9c-2.6,0.6-5.2-0.4-7.6-1.3c-26.3-9.8-54.6-13.4-80.5-24
		c-2.6-1.1-5.3-2.3-6.9-4.6c-1.6-2.3-1.4-6.1,1.1-7.4c1.8-1,4-0.4,5.9,0.2c30.8,9.4,61.7,18.8,92.5,28.2"/>
	<path id="XMLID_4309_" class="st0" d="M1216.7-7.4c-5.8,0.8-11.6-0.7-17.3-2.2c-9-2.5-17.9-5-26.8-7.7c-8.1-2.4-16.6-5.3-22.2-11.6
		"/>
	<path id="XMLID_4308_" class="st0" d="M1216.1,42.8c1.5,3.5-0.9,8.1-4.6,9c-2.6,0.6-5.2-0.4-7.6-1.3c-26.3-9.8-54.6-13.4-80.5-24
		c-2.6-1.1-5.3-2.3-6.9-4.6c-1.6-2.3-1.4-6.1,1.1-7.4c1.8-1,4-0.4,5.9,0.2c30.8,9.4,61.7,18.8,92.5,28.2"/>
	<path id="XMLID_4307_" class="st0" d="M1201.5,39.4c-5.8,0.8-11.6-0.7-17.3-2.2c-9-2.5-17.9-5-26.8-7.7
		c-8.1-2.4-16.6-5.3-22.2-11.6"/>
	<path id="XMLID_4306_" class="st0" d="M1236.8,89.8c0.2-0.2,0.1-0.6-0.1-0.7"/>
	<path id="XMLID_4305_" class="st0" d="M1239.7,92.1c-42.3-4.8-82.9-18.4-123.3-31.9c-4.3-1.4-8.5-2.8-12.7-4.5
		c-10.1-3.9-19.7-9.1-28.6-15.4"/>
	<path id="XMLID_4304_" class="st0" d="M1160,78.4c-0.5-0.3-1-0.5-1.5-0.8"/>
	<path id="XMLID_4303_" class="st0" d="M1158.3,82.6c-9.9,24.9-19.7,49.8-29.6,74.6"/>
	<path id="XMLID_4302_" class="st0" d="M1141.8,73c-9.1,26-15.6,52.9-19.6,80.2c-0.5-0.4-1.1-0.7-1.6-1.1"/>
	<path id="XMLID_4301_" class="st0" d="M1139.6,77.8c-0.1-2.7-1.6-5.3-3.8-6.9"/>
	<path id="XMLID_4300_" class="st0" d="M1131,72.9c-5.1,14.3-10.3,28.6-15.4,42.8c-1.1,3-2.6,6.3-5.7,7"/>
	<path id="XMLID_4299_" class="st0" d="M1117.6,68.9c0-0.6,0.7-1.1,1.3-1"/>
	<path id="XMLID_4298_" class="st0" d="M1118.1,63.7c0,5.6-2.2,11-4.1,16.2c-3.8,10.8-7.6,27-8.6,38.4"/>
	<path id="XMLID_4297_" class="st0" d="M1099.1-62c-0.6,0.3-0.3-1.1,0.3-0.8c0.6,0.3,0.4,1.1,0.3,1.7c-9,31-18,62-26.9,93
		c-0.8,2.7-1.6,5.5-1,8.2c0.1,0.4,0.1,1-0.2,1.2c-0.3,0.2-0.7-0.6-0.3-0.5"/>
	<path id="XMLID_4296_" class="st0" d="M896.9-8.2c4.6-6,9.7-11.7,15.3-16.8c1.1-1,2.2-2,3.5-2.6c2.4-1.2,5.5-1.1,7.5-2.9"/>
	<path id="XMLID_4295_" class="st0" d="M940.6-105.6c-10.6,24.5-18.7,50.1-24,76.3"/>
	<path id="XMLID_4294_" class="st0" d="M944.1-125.7c-1.9,6.3-3.8,12.5-5.7,18.8"/>
	<path id="XMLID_4293_" class="st0" d="M1091.1-85.8c-1.3,3.6-2.6,7.3-3.8,10.9c-0.4,1.2-0.8,2.6-0.1,3.7"/>
	<path id="XMLID_4292_" class="st0" d="M943.1-102.2C977.3-89.8,1069.3-64,1080.7-63"/>
	<path id="XMLID_4291_" class="st0" d="M767.1-200.2C871.1-167.4,1146.9-88,1180-80.7"/>
	<path id="XMLID_4290_" class="st0" d="M763.1-186.4C867-153.6,1142.9-74.1,1176-66.8"/>
	<path id="XMLID_4289_" class="st0" d="M926.1-28.9c-0.1,0-0.2-0.1-0.3-0.1"/>
	<path id="XMLID_4288_" class="st0" d="M926.5-30.3c46,13.4,91.8,27.6,137.3,42.6"/>
	<path id="XMLID_4287_" class="st0" d="M917.5-23.9c48.9,14.3,97.6,29.3,146.1,45.2"/>
	<path id="XMLID_4286_" class="st0" d="M915.6-22.1c0.4,0.1,0.8,0.2,1.3,0.4"/>
	<path id="XMLID_4285_" class="st0" d="M853.1-155.3c-1.4,6.2-3.8,12.2-7,17.7"/>
	<path id="XMLID_4284_" class="st0" d="M860.8-151c-1.6,4.9-3.2,9.9-4.8,14.8c-0.1,0.4-0.5,0.8-0.8,0.6"/>
	<path id="XMLID_4283_" class="st0" d="M1089.5-60.7c-4.2,25-18.6,47.4-23.4,72.4"/>
	<path id="XMLID_4282_" class="st0" d="M1075.4-64.4c3.7,2.2,7.5,4.3,11.4,6.2"/>
	<path id="XMLID_4281_" class="st0" d="M1088.5-70.9c-0.9,4.4-1.8,8.8-2.6,13.2"/>
	<path id="XMLID_4280_" class="st0" d="M1093.7,58.6"/>
	<path id="XMLID_4279_" class="st0" d="M1275-35.1c-45.8-15.8-168.6-50.6-183.6-52.6"/>
	<path id="XMLID_4278_" class="st0" d="M1279.1-48.9c-45.8-15.8-168.6-50.6-183.6-52.6"/>
	<path id="XMLID_4277_" class="st0" d="M768.6-200.1c-3.1,3.9-5.3,8.5-6.5,13.4c-0.1,0.5-0.2,1.1,0.3,1.3"/>
	<path id="XMLID_4276_" class="st0" d="M1278.5-50.6c-2.2,4.3-4.4,8.7-6.5,13.1c-0.4,0.8-0.7,1.8-0.1,2.4"/>
	<path id="XMLID_4275_" class="st0" d="M1103.9,119.6c4.1,1.9,8.2,3.9,12.2,6"/>
	<path id="XMLID_4274_" class="st0" d="M1177.7-61.7c-3.7,4.7-5.7,10.7-5.5,16.6"/>
	<path id="XMLID_4273_" class="st0" d="M1182.1-59.6c-1.7,5.7-3.3,11.4-5,17.1c-0.4,1.2-0.7,2.6-0.1,3.7"/>
	<path id="XMLID_4272_" class="st0" d="M1066.6,16.6c-0.2-0.6-0.4-1.2-0.7-1.7c-0.5,9,0.4,18.2,2.5,27"/>
	<path id="XMLID_4271_" class="st0" d="M926.9-113.6c0,1,1.3,1.2,2.3,1.1c3.9-0.3,8.3-0.2,10.9,2.7"/>
	<path id="XMLID_4270_" class="st0" d="M1099.1-63.6c-2.1-2.4-3.6-5.4-4.1-8.5"/>
	<path id="XMLID_4269_" class="st0" d="M951.6-124.8c-1.5,1.5-3.1,3-4.6,4.5c-2.6,2.5-5.2,5.1-6.7,8.3"/>
	<path id="XMLID_4200_" class="st0" d="M963.9-119.1c-7.1,3.9-13.7,8.7-19.7,14.2"/>
	<path id="XMLID_4199_" class="st0" d="M985.2-118.5c-9.6,5.2-18.7,11.2-27.1,18"/>
	<path id="XMLID_4198_" class="st0" d="M995.7-111.2c-9.7,5.5-19.4,11-29.1,16.5c-0.9,0.5-1.9,1.1-2.2,2.1"/>
	<path id="XMLID_4197_" class="st0" d="M1016.1-108.2c-10.2,6.4-20.2,13.2-29.8,20.4"/>
	<path id="XMLID_4196_" class="st0" d="M1034.1-106.3c-11.2,7.4-22.4,14.8-33.5,22.2"/>
	<path id="XMLID_4195_" class="st0" d="M1045.9-99.6c-11.8,6.5-23.2,13.6-34.3,21.3"/>
	<path id="XMLID_4834_" class="st0" d="M1062-93.2c-11.3,5.2-22.2,11.5-32.3,18.8"/>
	<path id="XMLID_4898_" class="st0" d="M1079.9-91.7c0.4,0.2,0.3-0.7,0-0.5c-11.4,7.5-22.8,15.1-34.2,22.6"/>
	<path id="XMLID_4962_" class="st0" d="M1089.6-82.8c-9.8,6.9-19.2,14.3-28.3,22.1"/>
	<path id="XMLID_5026_" class="st0" d="M760.6-159.8c-0.4,0.1-0.9-0.3-0.9-0.7c3.3-0.7,6.7-0.5,10.1-0.1c6.5,0.7,13,1.6,19.4,2.9
		c2.4,0.5,4.9,1,6.8,2.7"/>
	<path id="XMLID_5090_" class="st0" d="M1262.1-14.7c-7.9-4.6-9.8-15.7-17.2-21.1"/>
	<path id="XMLID_5159_" class="st0" d="M1082.6-51.2"/>
</g>
<g id="chair_1_" class="st1">
	<path id="XMLID_10894_" class="st2" d="M191.9-177.3"/>
	<path id="XMLID_4515_" class="st2" d="M220.9,54.2c-0.4-0.4-0.7-0.7-1.1-1.1"/>
	<path id="XMLID_4514_" class="st3" d="M218.9,45.6c0.1,0.2,0.1,0.4,0.2,0.6"/>
	<path id="XMLID_4513_" class="st3" d="M224.2-1.5c23.8-7,46.6-17.2,67.8-30.1"/>
	<path id="XMLID_4512_" class="st3" d="M431.8-84.1c7.1,9.7,14.2,19.5,21.3,29.2c1.6,2.2,3.2,4.4,4.8,6.6
		c6.3,8.6,12.7,17.2,19.1,25.7"/>
	<path id="XMLID_4511_" class="st3" d="M473-28.9c3.7,0.1,7.4-0.8,10.6-2.6"/>
	<path id="XMLID_4510_" class="st3" d="M482.4-33.1c-0.8-2,0.1-4.4,1.9-5.5"/>
	<path id="XMLID_4509_" class="st3" d="M396.8-167.9c0,0.3,0.7,0.1,0.5-0.2"/>
	<path id="XMLID_4508_" class="st3" d="M395.7-170.8c5.8,6.4,10.5,13.8,13.8,21.8c-0.4-0.9-0.8-1.9-1.2-2.8"/>
	<path id="XMLID_4507_" class="st3" d="M396.2-174c2.3-2.9,4.2-6.1,5.7-9.5c0.6-1.4,1.2-2.9,1.1-4.4s-1-3.1-2.5-3.5"/>
	<path id="XMLID_4506_" class="st3" d="M321.9-133.6c-0.2-0.6-0.4-1.3-0.6-1.9"/>
	<path id="XMLID_4505_" class="st3" d="M315.8-129.7c29.4-19.2,52.6-48.1,84.9-61.9"/>
	<path id="XMLID_4504_" class="st3" d="M315.9-128.6c-1.4,2.8-1.1,6.3,0.7,8.8c4.5-1.5,8.4-4.7,10.8-8.8"/>
	<path id="XMLID_4503_" class="st3" d="M329.6-125.4c-1.4,2.8-2.1,6-1.9,9.1"/>
	<path id="XMLID_4502_" class="st3" d="M342.2-118.9c-1.9-5.3-1.3-11.1-0.7-16.7c0.1-0.9,0.2-1.9,0.7-2.7c0.3-0.5,0.8-0.9,1.3-1.3
		c9.3-7.6,18.7-15.2,28-22.8c0.7-0.6,1.5-1.2,2.4-1.2c0.7,0,1.4,0.4,2,0.8c7.4,5.4,8.4,17,16.2,21.7"/>
	<path id="XMLID_4501_" class="st3" d="M348.2-120.6c3.6-1.6,6.7-4.1,9.8-6.4c9.1-6.6,19.2-11.9,29.9-15.5"/>
	<path id="XMLID_4500_" class="st3" d="M326.6-114.6c-3.5,2-7.9,2.4-11.7,1"/>
	<path id="XMLID_4499_" class="st3" d="M118-179.5c23.6,41.1,45.1,83.5,64.5,126.8c3.5,7.9,8,16.7,16.3,19"/>
	<path id="XMLID_4498_" class="st3" d="M208,58.1c5-1.1,9.7-3.5,13.6-6.7"/>
	<path id="XMLID_4497_" class="st3" d="M215.9-22.4c-1.3,0.9-2.7-0.9-3.2-2.4c-2.1-7.1-1.2-14.6-1.2-22c0-4-0.3-8-0.6-12.1
		c-0.3-4.2-0.6-8.4-0.9-12.6c-0.4-5.8-0.9-11.6-2.6-17.1"/>
	<path id="XMLID_4496_" class="st3" d="M206.9-91.8c9.5-7.1,18.9-14.2,28.4-21.3"/>
	<path id="XMLID_4495_" class="st3" d="M219.9-24c9.1,2.9,18.9,0.5,28.2-1.9c11.2-2.9,22.3-5.9,33.5-8.8"/>
	<path id="XMLID_4490_" class="st3" d="M251.2-133.6c14.3,25.7,28.5,51.4,42.8,77.1c0.3,0.6,0.8,1.3,1.4,1.4s1.4-0.8,0.9-1.3"/>
	<path id="XMLID_4489_" class="st3" d="M271.6-98c5.9-5.6,14.1-8,22.1-9.5s16.2-2.1,23.9-4.9"/>
	<path id="XMLID_4484_" class="st3" d="M299.8-61.1c45.1-3.3,89-21,123.7-50"/>
	<path id="XMLID_4483_" class="st3" d="M216.1-67.9c4.6,2.2,8.3,6.2,10.1,10.9"/>
	<path id="XMLID_4482_" class="st3" d="M227.5-58.5c2.6-6.5,8.4-11.2,14.4-14.8c6-3.6,12.6-6.3,18.3-10.4"/>
	<path id="XMLID_4481_" class="st3" d="M149.2-192.5c1,3.2,2.1,6.4,3.1,9.6"/>
	<path id="XMLID_4480_" class="st3" d="M157-181.8c-1.6-0.3-1.9-2.7-0.8-3.9c1-1.2,2.7-1.5,4.3-1.8c3.3-0.5,6.7-0.8,10-0.9"/>
	<path id="XMLID_4479_" class="st3" d="M150.2-181.6c-2.5-1.7-6.2-1.6-8.6,0.3"/>
	<path id="XMLID_4478_" class="st3" d="M189.5-202.1c1.2,3.6,2.4,7.3,3.6,10.9"/>
	<path id="XMLID_4477_" class="st3" d="M194.2-190c1.8-2.5,4.6-4.2,7.7-4.7"/>
	<path id="XMLID_4476_" class="st3" d="M190.2-191c-2.3,0-4.6,0.5-6.6,1.5"/>
	<path id="XMLID_4475_" class="st3" d="M228.3-210.2c3.9,3,6.7,7.3,8,12"/>
	<path id="XMLID_4474_" class="st3" d="M232.4-201c-2.6-0.2-5.3-0.4-7.9-0.5"/>
	<path id="XMLID_4473_" class="st3" d="M234.2-201.2c0.7-3.4,5.1-5.5,8.2-3.9"/>
	<path id="XMLID_4472_" class="st3" d="M168.6-156.1c2.3,2.2,4.6,4.5,6.9,6.7"/>
	<path id="XMLID_4471_" class="st3" d="M172.4-148.7c-1.9-1.7-5.3-1.2-6.7,0.9"/>
	<path id="XMLID_4470_" class="st3" d="M177.8-147.9c1.8-4.1,6.2-6.8,10.6-6.7"/>
	<path id="XMLID_4469_" class="st3" d="M209.9-163.7c4.2-0.2,8.2,3.4,8.5,7.6"/>
	<path id="XMLID_4468_" class="st3" d="M216.9-154.8c-2.1-1.9-5.8-1.8-7.7,0.3"/>
	<path id="XMLID_4467_" class="st3" d="M220.2-157.4c-0.1-3.4,4.2-5.9,7.1-4.3"/>
	<path id="XMLID_4466_" class="st3" d="M248.5-181.4c3,4.8,5.3,10,6.7,15.5"/>
	<path id="XMLID_4465_" class="st3" d="M254.2-167c-2.3-0.7-4.7-1.3-7-2"/>
	<path id="XMLID_4464_" class="st3" d="M254.6-167.2c0-2.3,2-4.5,4.3-4.8"/>
	<path id="XMLID_4463_" class="st3" d="M265.5-152.7c5,4.5,8.6,10.5,10.3,17"/>
	<path id="XMLID_4462_" class="st3" d="M278-133.6c-1.2-1.7-3.2-2.7-5.2-2.5"/>
	<path id="XMLID_4461_" class="st3" d="M281.1-138.8c0.5-0.6,1-1.3,1.5-1.9"/>
	<path id="XMLID_4460_" class="st3" d="M190.3-122.7c2.5,5.1,4.4,10.4,5.9,15.8"/>
	<path id="XMLID_4459_" class="st3" d="M197.1-106.5c-1.7-1.4-3.8-2.5-6-3"/>
	<path id="XMLID_4458_" class="st3" d="M196.5-108.4c4.6-1.9,9.2-3.8,13.8-5.7"/>
	<path id="XMLID_4457_" class="st3" d="M286.3-125.4c4.3,6.2,7.9,12.8,10.8,19.7"/>
	<path id="XMLID_4456_" class="st3" d="M115.6-178.6c2.7-7.7,2-16.5-1.8-23.7"/>
	<path id="XMLID_4455_" class="st3" d="M116.8-200.1c7.9-4,17.1-4.3,25.9-5.4c28-3.3,54.3-14.6,81.6-21.8c2-0.5,4.2-1.1,6.2-0.6
		c4.9,1,7.8,6.7,12.7,7.7"/>
	<path id="XMLID_4454_" class="st3" d="M196.6-43.1c-2.4-3.4-2.4-7.8-2.3-11.9c0.1-6.5,0.2-13,0.3-19.5"/>
	<path id="XMLID_4453_" class="st3" d="M192.5-79c-2.1,1.6-4.9,2.3-7.4,1.6"/>
	<path id="XMLID_4452_" class="st3" d="M184.6-77.8c-2.6-0.8-4.6-3.3-4.9-6"/>
	<path id="XMLID_4436_" class="st3" d="M181-89.6c23.7-19.3,47.8-38.3,72.2-56.8c1.6-1.2,3.5-2.5,5.5-2.1c2.2,0.4,3.6,2.9,3.5,5.1
		c0,2.3-1.1,4.3-2.2,6.3c-0.9,1.7-1.8,3.5-2.8,5.2"/>
	<path id="XMLID_4429_" class="st3" d="M218.6,0.9"/>
	<path id="XMLID_4425_" class="st3" d="M216.6,3.9c0,16,0.8,32,2.4,47.9"/>
	<path id="XMLID_4424_" class="st3" d="M198.6-31.6c1.8,19.5,3.5,39,5.3,58.5c1,10.8,2,21.6,5.2,32c-0.3-0.4-0.6-0.8-0.9-1.2"/>
	<path id="XMLID_4392_" class="st3" d="M346.7,36.8C336.3,17.9,325.8-1.1,315.4-20c-2.7-4.9-5.4-9.8-8.5-14.4"/>
	<path id="XMLID_4391_" class="st3" d="M289.4-27.8c17.6,21.9,33.3,45.3,46.8,69.9"/>
	<path id="XMLID_4390_" class="st3" d="M347,37.2c0.6,3.1-2.3,6.3-5.5,6"/>
	<path id="XMLID_4389_" class="st3" d="M333.4,41.9c4.6,1.9,9.9,2.4,14.8,1.4"/>
	<path id="XMLID_4349_" class="st3" d="M309.5-31.9c40.9-14.5,81.1-30.6,120.7-48.4"/>
	<path id="XMLID_4268_" class="st3" d="M343.6-40.3c0,10.4-1.3,20.9-3.9,31"/>
	<path id="XMLID_4267_" class="st3" d="M332.9-34.8c0.7,8.9,1.1,17.8,1,26.7c0,0.5-0.1,1-0.5,1.3s-1-0.5-0.5-0.7"/>
	<path id="XMLID_4262_" class="st3" d="M334-4.9c4.3-1.6,4.3-2.6,8.9-2.4"/>
	<path id="XMLID_4261_" class="st3" d="M434.7-112.8c4.1,12,11.5,22.5,18.8,32.9c10.6,15.1,21.2,30.2,31.9,45.3c0.4,0.6,1,1.2,1.6,1
		c0.7-0.2,0-1.5-0.4-1"/>
	<path id="XMLID_4206_" class="st3" d="M237.4-113.3c2,5.8,5.8,10.8,9.3,15.9C262-74.9,270.3-47.6,289-27.9"/>
	<path id="XMLID_4205_" class="st3" d="M296.9-55.7c4.2,7.5,9,14.6,14.3,21.4"/>
	<path id="XMLID_4204_" class="st3" d="M425.3-105.4c2.4,5.4,5.2,10.7,8.3,15.7"/>
	<path id="XMLID_4552_" class="st3" d="M182.9-174.3"/>
	<path id="XMLID_4203_" class="st3" d="M185.7-180.9"/>
	<path id="XMLID_4642_" class="st3" d="M124.7-199.7c4.5,5.3,7.6,11.8,8.8,18.6"/>
	<path id="XMLID_4710_" class="st3" d="M138.2-180.4c5.7,8.2,9.9,17.5,12.3,27.2"/>
	<path id="XMLID_4774_" class="st3" d="M153.6-148.7c1.6,0.4,2.8,1.5,4,2.6c10.8,10.3,18.1,24.1,20.5,38.8"/>
	<path id="XMLID_4838_" class="st3" d="M177.4-104.7c3,1.1,5.3,3.8,6.1,6.9"/>
	<path id="XMLID_4202_" class="st3" d="M234.7-224.3c0.7,0-0.3-1.1-0.6-0.5c-0.3,0.6,0.3,1.2,0.8,1.6c7.6,6,13,14.7,15.3,24.1"/>
	<path id="XMLID_4966_" class="st3" d="M249.3-201.2c9.8,5.2,16.2,16.2,15.8,27.3"/>
	<path id="XMLID_5030_" class="st3" d="M266.8-176.1c0.3,1.7,1.8,2.8,3.2,3.9c10.1,7.8,16,20.7,15.2,33.4"/>
	<path id="XMLID_5094_" class="st3" d="M288.1-138.3c14.3,9.9,19.5,10.3,18.6,27.7"/>
	<path id="XMLID_5158_" class="st3" d="M204.3-183.6c2.8,2.5,4.7,6.1,5,9.9"/>
	<path id="XMLID_5222_" class="st3" d="M227-144c2.1,4.3,3.7,8.8,4.8,13.4"/>
	<path id="XMLID_5286_" class="st3" d="M194.3-154.6c1.7-0.6,3.4-1.1,5.1-1.7"/>
	<path id="XMLID_5350_" class="st3" d="M174.1-185.8c1.6-1.3,3.6-2.1,5.7-2.4"/>
	<path id="XMLID_5414_" class="st3" d="M209-196.9c2.3-1.6,5.3-2.2,8.1-1.6"/>
	<path id="XMLID_5478_" class="st3" d="M241.9-191.4c2.7,2.6,4.8,5.9,6,9.4"/>
	<path id="XMLID_5542_" class="st3" d="M260.2-160.6c3.7,4.1,6.9,8.6,9.4,13.5"/>
	<path id="XMLID_5606_" class="st3" d="M324.4-101.7c5.7,6.3,8.2,15.3,6.6,23.6"/>
	<path id="XMLID_5670_" class="st3" d="M367.9-117.8c6.3,6.8,9.3,16.5,8.1,25.7"/>
	<path id="XMLID_5734_" class="st3" d="M403-139.9c1.2,1.3,2.3,2.7,3.5,4c1.8,2,3.5,4,4.9,6.3c3.4,5.6,4,12.8,1.7,18.9"/>
	<path id="XMLID_5798_" class="st3" d="M230.4-50.5c-0.3,7-0.7,14-1,20.9"/>
	<path id="XMLID_5862_" class="st3" d="M238.6-25.1c11.7-5.9,22.3-14,31.1-23.7"/>
	<path id="XMLID_5926_" class="st3" d="M410.8-150.3c7.7,1.5,14.7,6.2,19,12.7c1.4,2.1,2.5,4.3,3.2,6.6c2,6.4,0.9,13.4-0.2,20"/>
</g>
</svg>
