<?xml version="1.0" encoding="utf-8"?>
<!-- Generator: Adobe Illustrator 19.0.0, SVG Export Plug-In . SVG Version: 6.00 Build 0)  -->
<svg version="1.1" id="Layer_1" xmlns="http://www.w3.org/2000/svg" xmlns:xlink="http://www.w3.org/1999/xlink" x="0px" y="0px"
	 viewBox="-762 397.6 196.1 164.2" style="enable-background:new -762 397.6 196.1 164.2;" xml:space="preserve">
<style type="text/css">
	.st0{fill:#34363A;stroke:#5858A3;stroke-width:6;stroke-linecap:round;stroke-linejoin:round;stroke-miterlimit:10;}
	.st1{fill:none;stroke:#5858A3;stroke-width:6;stroke-linecap:round;stroke-linejoin:round;stroke-miterlimit:10;}
	.st2{fill:#34363A;stroke:#5858A3;stroke-width:6;stroke-miterlimit:10;}
</style>
<g id="Layer_2">
	<polyline id="XMLID_24_" class="st0" points="-737.7,460.1 -716.6,400.6 -684.8,400.6 -653,400.6 -621.3,400.6 -589.5,400.6 
		-568.9,460.1 	"/>
	<path id="XMLID_26_" class="st0" d="M-725.4,465.9v53.4c0,6.4,5.2,11.6,11.6,11.6h121.1c6.4,0,11.6-5.2,11.6-11.6v-53.4"/>
	<line id="XMLID_19_" class="st1" x1="-653" y1="400.9" x2="-653.3" y2="460.1"/>
	<path id="XMLID_20_" class="st0" d="M-737.7,460.1l6.5,6.1c9.5,3.1,19.7,3.1,29.1,0l6.5-6.1l6.5,6.1c9.5,3.1,19.7,3.1,29.1,0
		l6.5-6.1l6.5,6.1c9.5,3.1,19.7,3.1,29.1,0l6.5-6.1l6.5,6.1c9.5,3.1,19.7,3.1,29.1,0l6.5-6.1"/>
	<line id="XMLID_21_" class="st1" x1="-684.8" y1="400.6" x2="-695.5" y2="460.1"/>
	<line id="XMLID_23_" class="st1" x1="-621.3" y1="400.6" x2="-611.1" y2="460.1"/>
	<rect id="XMLID_27_" x="-663.8" y="477.4" class="st1" width="68.1" height="34.2"/>
</g>
<g id="Layer_3">
	<path id="XMLID_4_" class="st1" d="M-671.6,525.5h-84.9c-1.4,0-2.5-1.1-2.5-2.5l0,0c0-1.4,1.1-2.5,2.5-2.5h84.8
		c1.4,0,2.5,1.1,2.5,2.5l0,0C-669.1,524.3-670.3,525.5-671.6,525.5z"/>
	<polyline id="XMLID_8_" class="st0" points="-758.6,520.4 -749.3,510.3 -749.1,510.4 -679.4,510.4 -679.3,510.3 -669.9,520.4 	"/>
	<line id="XMLID_2_" class="st1" x1="-754" y1="514.3" x2="-754" y2="487.3"/>
	<line id="XMLID_13_" class="st1" x1="-676" y1="514.3" x2="-676" y2="487.3"/>
	<path id="XMLID_3_" class="st2" d="M-675.2,525.5h-78.5v27.3c0,3.3,2.7,6,6,6h66.5c3.3,0,6-2.7,6-6V525.5z"/>
	<path id="XMLID_36_" class="st0" d="M-684.7,477.8c0,4.1,3.3,7.4,7.4,7.4c4.1,0,7.4-3.3,7.4-7.4v-0.2l-11.1-21.1h-66.8l-11.1,21.1
		v0.2c0,4.1,3.3,7.4,7.4,7.4s7.4-3.3,7.4-7.4"/>
	<path id="XMLID_47_" class="st0" d="M-744.1,477.8c0,4.1,3.3,7.4,7.4,7.4s7.4-3.3,7.4-7.4"/>
	<path id="XMLID_46_" class="st0" d="M-729.3,477.8c0,4.1,3.3,7.4,7.4,7.4c4.1,0,7.4-3.3,7.4-7.4"/>
	<path id="XMLID_45_" class="st0" d="M-714.4,477.8c0,4.1,3.3,7.4,7.4,7.4s7.4-3.3,7.4-7.4"/>
	<path id="XMLID_44_" class="st0" d="M-699.6,477.8c0,4.1,3.3,7.4,7.4,7.4s7.4-3.3,7.4-7.4"/>
</g>
</svg>
