<?xml version="1.0" encoding="utf-8"?>
<!-- Generator: Adobe Illustrator 19.0.0, SVG Export Plug-In . SVG Version: 6.00 Build 0)  -->
<svg version="1.1" id="Layer_1" xmlns="http://www.w3.org/2000/svg" xmlns:xlink="http://www.w3.org/1999/xlink" x="0px" y="0px"
	 viewBox="17 42 551.4 477.9" style="enable-background:new 17 42 551.4 477.9;" xml:space="preserve">
<style type="text/css">
	.st0{fill:#F2E482;}
	.st1{fill:#5858A3;}
</style>
<g id="mortar">
	<path id="XMLID_1_" class="st0" d="M489.7,334c-0.3-2.6-1.5-5.2-3.4-7.2L464,302.9v-105c0-0.3-0.3-0.5-0.3-0.8
		c15-6.8,25.3-22,25.3-39.5v-1c0-2-0.1-4-1-5.8l-46-88.1c-2.2-4.1-6.2-6.8-10.9-6.8H152.4c-4.6,0-8.9,2.7-11.1,6.8l-46.6,88
		c-0.9,1.8-1.8,3.8-1.8,5.9v1c0,15.7,8.7,29.5,21.2,37.1c-0.3,1-0.2,2.1-0.2,3.2v111.6l-15.8,17.2c-2.7,2.9-3.6,6.6-3.1,10.2
		c-1.1,2.7-2.6,5.7-2.6,8.8c0,12.4,9.4,22.5,21.4,23v101.5c0,20.7,18.5,35.7,39.3,35.7h277.1c20.7,0,38.7-15,38.7-35.7V369h1
		c12.7,0,23-10.4,23-23.1C493,341.6,491.8,337.4,489.7,334z M168,188.1c7.9,8,18.9,13,31,13s23.1-5,31-13c7.9,8,18.8,13,30.9,13
		s23-5,30.9-13c7.9,8,18.8,13,30.9,13s23-5,30.9-13c7.9,8,18.8,13,30.9,13c12.1,0,22.8-5,30.7-13c6.3,6.4,14.7,10.9,23.7,12.4v80.2
		c-1-0.1-1.8,0.3-2.8,0.3H148.7c-3.3,0-6.7,0.1-9.7,2v-82C151,200.4,160.5,195.6,168,188.1z"/>
</g>
<g id="stall">
</g>
<g id="Layer_3">
	<g id="XMLID_176_">
		<path id="XMLID_177_" class="st1" d="M260.8,200.8c12.1,0,23-5,30.9-13c4,4.1,8.9,7.4,14.3,9.6V172h-31h-7h-30v22.3
			C244.6,198.4,252.5,200.8,260.8,200.8z"/>
		<polygon id="XMLID_178_" class="st1" points="238,315 268,315 268,285 238,285 231,285 200,285 200,315 231,315 		"/>
		<polygon id="XMLID_179_" class="st1" points="418,397 388,397 388,428 418,428 425,428 457,428 457,397 425,397 		"/>
		<polygon id="XMLID_180_" class="st1" points="306,435 275,435 275,465 343,465 343,435 313,435 		"/>
		<path id="XMLID_181_" class="st1" d="M418,172h-30v28.7c10.7-0.9,20.1-5.6,27.3-12.8c6.3,6.4,14.7,10.9,23.7,12.4v2.8h18v-31h-32
			L418,172L418,172z"/>
		<rect id="XMLID_182_" x="439" y="247" class="st1" width="18" height="31"/>
		<polygon id="XMLID_183_" class="st1" points="418,322 388,322 388,353 418,353 425,353 457,353 457,322 425,322 		"/>
		<polygon id="XMLID_184_" class="st1" points="306,285 275,285 275,315 306,315 313,315 343,315 343,285 313,285 		"/>
		<path id="XMLID_185_" class="st1" d="M343,172h-30v27.7c3.1,0.7,6.3,1.1,9.7,1.1c12.1,0,23-5,30.9-13c7.1,7.2,16.7,12,27.4,12.8
			V172h-31H343z"/>
		<polygon id="XMLID_186_" class="st1" points="418,97 388,97 388,128 418,128 425,128 457,128 457,97 425,97 		"/>
		<polygon id="XMLID_187_" class="st1" points="343,322 313,322 313,353 343,353 350,353 381,353 381,322 350,322 		"/>
		<polygon id="XMLID_188_" class="st1" points="306,135 275,135 275,165 306,165 313,165 343,165 343,135 313,135 		"/>
		<polygon id="XMLID_189_" class="st1" points="306,360 275,360 275,390 306,390 313,390 343,390 343,360 313,360 		"/>
		<polygon id="XMLID_190_" class="st1" points="275,353 306,353 306,322 275,322 268,322 238,322 238,353 268,353 		"/>
		<polygon id="XMLID_191_" class="st1" points="268,397 238,397 238,428 268,428 275,428 306,428 306,397 275,397 		"/>
		<polygon id="XMLID_192_" class="st1" points="238,165 268,165 268,135 238,135 231,135 200,135 200,165 231,165 		"/>
		<path id="XMLID_193_" class="st1" d="M457,135h-32v30h32h7h24.3c0.4-2.5,0.7-5,0.7-7.6v-1c0-2-0.1-4-1-5.8l-8.2-15.6H464L457,135
			L457,135z"/>
		<polygon id="XMLID_194_" class="st1" points="439,210 439,240 457,240 464,240 464,210 457,210 		"/>
		<polygon id="XMLID_195_" class="st1" points="457,285 425,285 425,315 457,315 464,315 475.6,315 464,302.6 464,285 		"/>
		<path id="XMLID_196_" class="st1" d="M425,472h-7h-30v31h57.8c4.2-1.7,8-4,11.2-6.9V472H425z"/>
		<path id="XMLID_197_" class="st1" d="M464,353h27.8c0.8-2.3,1.2-4.7,1.2-7.2c0-4.3-1.2-8.6-3.3-12.1c-0.3-2.6-1.5-5.2-3.4-7.2
			l-4.2-4.5H464V353z"/>
		<path id="XMLID_198_" class="st1" d="M126.9,90H156h37V60h-49.8c-0.7,0.8-1.4,1.7-1.9,2.7L126.9,90z"/>
		<path id="XMLID_199_" class="st1" d="M425,90h31.3L442,62.7c-0.5-1-1.1-1.9-1.9-2.7H425V90z"/>
		<rect id="XMLID_200_" x="116" y="210" class="st1" width="23" height="30"/>
		<path id="XMLID_201_" class="st1" d="M464,360h-7h-32v30h32h7h5v-21h1c7.3,0,13.9-3.6,18.1-9H464z"/>
		<polygon id="XMLID_202_" class="st1" points="156,165 193,165 193,135 156,135 116,135 116,165 		"/>
		<polygon id="XMLID_203_" class="st1" points="109,315 109,314.7 108.8,315 		"/>
		<polygon id="XMLID_204_" class="st1" points="193,315 193,285 156,285 116,285 116,315 156,315 		"/>
		<polygon id="XMLID_205_" class="st1" points="464,435 457,435 425,435 425,465 469,465 469,435 		"/>
		<polygon id="XMLID_206_" class="st1" points="193,390 193,360 156,360 116,360 116,390 156,390 		"/>
		<polygon id="XMLID_207_" class="st1" points="193,435 156,435 116,435 116,465 193,465 		"/>
		<polygon id="XMLID_208_" class="st1" points="381,285 350,285 350,315 381,315 388,315 418,315 418,285 388,285 		"/>
		<polygon id="XMLID_209_" class="st1" points="200,90 231,90 238,90 268,90 268,60 200,60 		"/>
		<polygon id="XMLID_210_" class="st1" points="156,128 156,97 123.2,97 106.8,128 		"/>
		<path id="XMLID_211_" class="st1" d="M93,156.4v1c0,2.6,0.3,5.1,0.7,7.6H109v-30h-5.9l-8.3,15.6C93.9,152.4,93,154.4,93,156.4z"/>
		<polygon id="XMLID_212_" class="st1" points="275,90 306,90 313,90 343,90 343,60 275,60 		"/>
		<path id="XMLID_213_" class="st1" d="M464,172v24.8c10.5-4.9,18.6-13.8,22.5-24.8H464z"/>
		<polygon id="XMLID_214_" class="st1" points="163,322 163,353 193,353 200,353 231,353 231,322 200,322 193,322 		"/>
		<polygon id="XMLID_215_" class="st1" points="464,128 476.1,128 464,104.8 		"/>
		<polygon id="XMLID_216_" class="st1" points="350,90 381,90 388,90 418,90 418,60 350,60 		"/>
		<path id="XMLID_217_" class="st1" d="M114.2,194.5c-0.3,1-0.2,2.1-0.2,3.2v5.4h25v-2.3c6.3-0.3,12-1.8,17-4.2V172H95.6
			C99.1,181.4,105.8,189.4,114.2,194.5z"/>
		<path id="XMLID_218_" class="st1" d="M156,472h-41.9c0.8,14.3,10.6,25.8,23.6,31H156V472z"/>
		<path id="XMLID_219_" class="st1" d="M464,472v15.8c2.8-4.6,4.6-10,4.9-15.8H464z"/>
		<rect id="XMLID_220_" x="114" y="397" class="st1" width="42" height="31"/>
		<rect id="XMLID_221_" x="114" y="247" class="st1" width="25" height="31"/>
		<path id="XMLID_222_" class="st1" d="M95.1,336.7c-1.1,2.7-2.6,5.7-2.6,8.8c0,2.6,0.4,5.1,1.2,7.5H156v-31h-53.7l-4.1,4.5
			C95.6,329.3,94.6,333.1,95.1,336.7z"/>
		<path id="XMLID_223_" class="st1" d="M109,367.7V360H97.5C100.4,363.7,104.4,366.5,109,367.7z"/>
		<rect id="XMLID_224_" x="464" y="397" class="st1" width="5" height="31"/>
		<polygon id="XMLID_225_" class="st1" points="381,428 381,397 350,397 343,397 313,397 313,428 343,428 350,428 		"/>
		<polygon id="XMLID_226_" class="st1" points="381,360 350,360 350,390 381,390 388,390 418,390 418,360 388,360 		"/>
		<polygon id="XMLID_227_" class="st1" points="381,135 350,135 350,165 381,165 388,165 418,165 418,135 388,135 		"/>
		<polygon id="XMLID_228_" class="st1" points="268,435 238,435 231,435 200,435 200,465 268,465 		"/>
		<polygon id="XMLID_229_" class="st1" points="238,390 268,390 268,360 238,360 231,360 200,360 200,390 231,390 		"/>
		<polygon id="XMLID_230_" class="st1" points="163,397 163,428 193,428 200,428 231,428 231,397 200,397 193,397 		"/>
		<polygon id="XMLID_231_" class="st1" points="343,97 313,97 313,128 343,128 350,128 381,128 381,97 350,97 		"/>
		<polygon id="XMLID_232_" class="st1" points="268,97 238,97 238,128 268,128 275,128 306,128 306,97 275,97 		"/>
		<polygon id="XMLID_233_" class="st1" points="306,472 275,472 268,472 238,472 238,503 306,503 		"/>
		<polygon id="XMLID_234_" class="st1" points="418,435 388,435 381,435 350,435 350,465 418,465 		"/>
		<polygon id="XMLID_235_" class="st1" points="231,472 193,472 163,472 163,503 231,503 		"/>
		<polygon id="XMLID_236_" class="st1" points="381,472 350,472 343,472 313,472 313,503 381,503 		"/>
		<path id="XMLID_237_" class="st1" d="M198.9,200.8c12.1,0,23.1-5,31-13c0.4,0.4,0.7,0.7,1.1,1.1V172h-31h-7h-30v20.2
			c1.7-1.3,3.4-2.8,4.9-4.3C175.8,195.8,186.8,200.8,198.9,200.8z"/>
		<polygon id="XMLID_238_" class="st1" points="193,97 163,97 163,128 193,128 200,128 231,128 231,97 200,97 		"/>
	</g>
</g>
</svg>
