<?xml version="1.0" encoding="utf-8"?>
<!-- Generator: Adobe Illustrator 19.0.0, SVG Export Plug-In . SVG Version: 6.00 Build 0)  -->
<svg version="1.1" id="Layer_1" xmlns="http://www.w3.org/2000/svg" xmlns:xlink="http://www.w3.org/1999/xlink" x="0px" y="0px"
	 viewBox="0 0 960 560" style="enable-background:new 0 0 960 560;" xml:space="preserve">
<style type="text/css">
	.st0{fill:#F1FF5E;}
	.st1{fill:#5858A3;}
</style>
<g id="mortar">
	<path id="XMLID_1_" class="st0" d="M677.7,334c-0.3-2.6-1.5-5.2-3.4-7.2L652,302.9v-105c0-0.3-0.3-0.5-0.3-0.8
		c15-6.8,25.3-22,25.3-39.5v-1c0-2-0.1-4-1-5.8l-46-88.1c-2.2-4.1-6.2-6.8-10.9-6.8H340.4c-4.6,0-8.9,2.7-11.1,6.8l-46.6,88
		c-0.9,1.8-1.8,3.8-1.8,5.9v1c0,15.7,8.7,29.5,21.2,37.1c-0.3,1-0.2,2.1-0.2,3.2v111.6l-15.8,17.2c-2.7,2.9-3.6,6.6-3.1,10.2
		c-1.1,2.7-2.6,5.7-2.6,8.8c0,12.4,9.4,22.5,21.4,23v101.5c0,20.7,18.5,35.7,39.3,35.7h277.1c20.7,0,38.7-15,38.7-35.7V369h1
		c12.7,0,23-10.4,23-23.1C681,341.6,679.8,337.4,677.7,334z M356,188.1c7.9,8,18.9,13,31,13s23.1-5,31-13c7.9,8,18.8,13,30.9,13
		s23-5,30.9-13c7.9,8,18.8,13,30.9,13s23-5,30.9-13c7.9,8,18.8,13,30.9,13c12.1,0,22.8-5,30.7-13c6.3,6.4,14.7,10.9,23.7,12.4v80.2
		c-1-0.1-1.8,0.3-2.8,0.3H336.7c-3.3,0-6.7,0.1-9.7,2v-82C339,200.4,348.5,195.6,356,188.1z"/>
</g>
<g id="stall">
</g>
<g id="Layer_3">
	<g id="XMLID_176_">
		<path id="XMLID_177_" class="st1" d="M448.8,200.8c12.1,0,23-5,30.9-13c4,4.1,8.9,7.4,14.3,9.6V172h-31h-7h-30v22.3
			C432.6,198.4,440.5,200.8,448.8,200.8z"/>
		<polygon id="XMLID_178_" class="st1" points="426,315 456,315 456,285 426,285 419,285 388,285 388,315 419,315 		"/>
		<polygon id="XMLID_179_" class="st1" points="606,397 576,397 576,428 606,428 613,428 645,428 645,397 613,397 		"/>
		<polygon id="XMLID_180_" class="st1" points="494,435 463,435 463,465 531,465 531,435 501,435 		"/>
		<path id="XMLID_181_" class="st1" d="M606,172h-30v28.7c10.7-0.9,20.1-5.6,27.3-12.8c6.3,6.4,14.7,10.9,23.7,12.4v2.8h18v-31h-32
			L606,172L606,172z"/>
		<rect id="XMLID_182_" x="627" y="247" class="st1" width="18" height="31"/>
		<polygon id="XMLID_183_" class="st1" points="606,322 576,322 576,353 606,353 613,353 645,353 645,322 613,322 		"/>
		<polygon id="XMLID_184_" class="st1" points="494,285 463,285 463,315 494,315 501,315 531,315 531,285 501,285 		"/>
		<path id="XMLID_185_" class="st1" d="M531,172h-30v27.7c3.1,0.7,6.3,1.1,9.7,1.1c12.1,0,23-5,30.9-13c7.1,7.2,16.7,12,27.4,12.8
			V172h-31H531z"/>
		<polygon id="XMLID_186_" class="st1" points="606,97 576,97 576,128 606,128 613,128 645,128 645,97 613,97 		"/>
		<polygon id="XMLID_187_" class="st1" points="531,322 501,322 501,353 531,353 538,353 569,353 569,322 538,322 		"/>
		<polygon id="XMLID_188_" class="st1" points="494,135 463,135 463,165 494,165 501,165 531,165 531,135 501,135 		"/>
		<polygon id="XMLID_189_" class="st1" points="494,360 463,360 463,390 494,390 501,390 531,390 531,360 501,360 		"/>
		<polygon id="XMLID_190_" class="st1" points="463,353 494,353 494,322 463,322 456,322 426,322 426,353 456,353 		"/>
		<polygon id="XMLID_191_" class="st1" points="456,397 426,397 426,428 456,428 463,428 494,428 494,397 463,397 		"/>
		<polygon id="XMLID_192_" class="st1" points="426,165 456,165 456,135 426,135 419,135 388,135 388,165 419,165 		"/>
		<path id="XMLID_193_" class="st1" d="M645,135h-32v30h32h7h24.3c0.4-2.5,0.7-5,0.7-7.6v-1c0-2-0.1-4-1-5.8l-8.2-15.6H652L645,135
			L645,135z"/>
		<polygon id="XMLID_194_" class="st1" points="627,210 627,240 645,240 652,240 652,210 645,210 		"/>
		<polygon id="XMLID_195_" class="st1" points="645,285 613,285 613,315 645,315 652,315 663.6,315 652,302.6 652,285 		"/>
		<path id="XMLID_196_" class="st1" d="M613,472h-7h-30v31h57.8c4.2-1.7,8-4,11.2-6.9V472H613z"/>
		<path id="XMLID_197_" class="st1" d="M652,353h27.8c0.8-2.3,1.2-4.7,1.2-7.2c0-4.3-1.2-8.6-3.3-12.1c-0.3-2.6-1.5-5.2-3.4-7.2
			l-4.2-4.5H652V353z"/>
		<path id="XMLID_198_" class="st1" d="M314.9,90H344h37V60h-49.8c-0.7,0.8-1.4,1.7-1.9,2.7L314.9,90z"/>
		<path id="XMLID_199_" class="st1" d="M613,90h31.3L630,62.7c-0.5-1-1.1-1.9-1.9-2.7H613V90z"/>
		<rect id="XMLID_200_" x="304" y="210" class="st1" width="23" height="30"/>
		<path id="XMLID_201_" class="st1" d="M652,360h-7h-32v30h32h7h5v-21h1c7.3,0,13.9-3.6,18.1-9H652z"/>
		<polygon id="XMLID_202_" class="st1" points="344,165 381,165 381,135 344,135 304,135 304,165 		"/>
		<polygon id="XMLID_203_" class="st1" points="297,315 297,314.7 296.8,315 		"/>
		<polygon id="XMLID_204_" class="st1" points="381,315 381,285 344,285 304,285 304,315 344,315 		"/>
		<polygon id="XMLID_205_" class="st1" points="652,435 645,435 613,435 613,465 657,465 657,435 		"/>
		<polygon id="XMLID_206_" class="st1" points="381,390 381,360 344,360 304,360 304,390 344,390 		"/>
		<polygon id="XMLID_207_" class="st1" points="381,435 344,435 304,435 304,465 381,465 		"/>
		<polygon id="XMLID_208_" class="st1" points="569,285 538,285 538,315 569,315 576,315 606,315 606,285 576,285 		"/>
		<polygon id="XMLID_209_" class="st1" points="388,90 419,90 426,90 456,90 456,60 388,60 		"/>
		<polygon id="XMLID_210_" class="st1" points="344,128 344,97 311.2,97 294.8,128 		"/>
		<path id="XMLID_211_" class="st1" d="M281,156.4v1c0,2.6,0.3,5.1,0.7,7.6H297v-30h-5.9l-8.3,15.6C281.9,152.4,281,154.4,281,156.4
			z"/>
		<polygon id="XMLID_212_" class="st1" points="463,90 494,90 501,90 531,90 531,60 463,60 		"/>
		<path id="XMLID_213_" class="st1" d="M652,172v24.8c10.5-4.9,18.6-13.8,22.5-24.8H652z"/>
		<polygon id="XMLID_214_" class="st1" points="351,322 351,353 381,353 388,353 419,353 419,322 388,322 381,322 		"/>
		<polygon id="XMLID_215_" class="st1" points="652,128 664.1,128 652,104.8 		"/>
		<polygon id="XMLID_216_" class="st1" points="538,90 569,90 576,90 606,90 606,60 538,60 		"/>
		<path id="XMLID_217_" class="st1" d="M302.2,194.5c-0.3,1-0.2,2.1-0.2,3.2v5.4h25v-2.3c6.3-0.3,12-1.8,17-4.2V172h-60.4
			C287.1,181.4,293.8,189.4,302.2,194.5z"/>
		<path id="XMLID_218_" class="st1" d="M344,472h-41.9c0.8,14.3,10.6,25.8,23.6,31H344V472z"/>
		<path id="XMLID_219_" class="st1" d="M652,472v15.8c2.8-4.6,4.6-10,4.9-15.8H652z"/>
		<rect id="XMLID_220_" x="302" y="397" class="st1" width="42" height="31"/>
		<rect id="XMLID_221_" x="302" y="247" class="st1" width="25" height="31"/>
		<path id="XMLID_222_" class="st1" d="M283.1,336.7c-1.1,2.7-2.6,5.7-2.6,8.8c0,2.6,0.4,5.1,1.2,7.5H344v-31h-53.7l-4.1,4.5
			C283.6,329.3,282.6,333.1,283.1,336.7z"/>
		<path id="XMLID_223_" class="st1" d="M297,367.7V360h-11.5C288.4,363.7,292.4,366.5,297,367.7z"/>
		<rect id="XMLID_224_" x="652" y="397" class="st1" width="5" height="31"/>
		<polygon id="XMLID_225_" class="st1" points="569,428 569,397 538,397 531,397 501,397 501,428 531,428 538,428 		"/>
		<polygon id="XMLID_226_" class="st1" points="569,360 538,360 538,390 569,390 576,390 606,390 606,360 576,360 		"/>
		<polygon id="XMLID_227_" class="st1" points="569,135 538,135 538,165 569,165 576,165 606,165 606,135 576,135 		"/>
		<polygon id="XMLID_228_" class="st1" points="456,435 426,435 419,435 388,435 388,465 456,465 		"/>
		<polygon id="XMLID_229_" class="st1" points="426,390 456,390 456,360 426,360 419,360 388,360 388,390 419,390 		"/>
		<polygon id="XMLID_230_" class="st1" points="351,397 351,428 381,428 388,428 419,428 419,397 388,397 381,397 		"/>
		<polygon id="XMLID_231_" class="st1" points="531,97 501,97 501,128 531,128 538,128 569,128 569,97 538,97 		"/>
		<polygon id="XMLID_232_" class="st1" points="456,97 426,97 426,128 456,128 463,128 494,128 494,97 463,97 		"/>
		<polygon id="XMLID_233_" class="st1" points="494,472 463,472 456,472 426,472 426,503 494,503 		"/>
		<polygon id="XMLID_234_" class="st1" points="606,435 576,435 569,435 538,435 538,465 606,465 		"/>
		<polygon id="XMLID_235_" class="st1" points="419,472 381,472 351,472 351,503 419,503 		"/>
		<polygon id="XMLID_236_" class="st1" points="569,472 538,472 531,472 501,472 501,503 569,503 		"/>
		<path id="XMLID_237_" class="st1" d="M386.9,200.8c12.1,0,23.1-5,31-13c0.4,0.4,0.7,0.7,1.1,1.1V172h-31h-7h-30v20.2
			c1.7-1.3,3.4-2.8,4.9-4.3C363.8,195.8,374.8,200.8,386.9,200.8z"/>
		<polygon id="XMLID_238_" class="st1" points="381,97 351,97 351,128 381,128 388,128 419,128 419,97 388,97 		"/>
	</g>
</g>
</svg>
