<?xml version="1.0" encoding="utf-8"?>
<!-- Generator: Adobe Illustrator 19.0.0, SVG Export Plug-In . SVG Version: 6.00 Build 0)  -->
<svg version="1.1" id="hat" xmlns="http://www.w3.org/2000/svg" xmlns:xlink="http://www.w3.org/1999/xlink" x="0px" y="0px"
	 viewBox="-195 -13.1 568.9 587.1" style="enable-background:new -195 -13.1 568.9 587.1;" xml:space="preserve">
<style type="text/css">
	.st0{fill:#F1FF5E;}
	.st1{fill:#FF0000;}
	.st2{fill:#DA4DEF;}
	.st3{fill:#5858A3;}
	.st4{fill:#999999;}
	.st5{fill:none;stroke:#DA4DEF;stroke-width:3;stroke-miterlimit:10;}
	.st6{fill:#D1903B;}
</style>
<g id="XMLID_1_">
	<g id="XMLID_7_">
		<path id="XMLID_39_" class="st0" d="M26.1,137.1c0.8,0.1,1.7,0.1,1.8,1.2c0.1,1.1-0.5,1.6-1.5,1.7c-0.4,0-0.7,0.1-1.1,0.1
			c-3.8,0.3-5.5,2.5-5.1,6.3c0.1,0.7,0.4,0.8,1,0.8c1.3,0,2.7,0,4,0c1.1,0,1.8,0.5,1.8,1.6s-0.8,1.4-1.8,1.4c-1.2,0-2.5,0.1-3.7,0
			c-1-0.1-1.3,0.3-1.3,1.3c0,5.3,0,10.5,0,15.8c0,0.6,0.1,1.1-0.2,1.6c-0.4,0.7-1.1,1.1-2,0.9c-1-0.2-1.4-0.9-1.4-1.9
			c0-3.8,0-7.7,0-11.5c0-0.9,0-1.7,0-2.6c0-1.1,0.3-2.5-0.2-3.3s-2-0.2-3-0.3c-0.9-0.1-1.5-0.5-1.5-1.4c-0.1-1,0.5-1.5,1.4-1.6
			c0,0,0.1,0,0.2,0c1-0.1,2.3,0.4,2.9-0.2c0.5-0.6,0.2-1.8,0.4-2.8c0.6-3.9,3.2-6.4,7.1-6.8C24.6,137.3,25.3,137.2,26.1,137.1z"/>
		<path id="XMLID_34_" class="st0" d="M19.5,51.9c0,4.3,0,8.6,0,12.9c0,0.3,0,0.5,0,0.8c0,1.9-0.6,2.8-1.9,2.8
			c-1.2,0-1.8-0.9-1.8-2.8c0-2,0-4.1,0-6.1c0-6.9,0-13.9,0-20.8c0-0.5,0-0.9,0-1.4c0-1.1,0.6-1.9,1.8-1.9s1.9,0.7,1.9,2
			c0,2.3,0,4.6,0,6.9C19.5,46.7,19.5,49.3,19.5,51.9z"/>
		<path id="XMLID_33_" class="st0" d="M42.5,51.7c0,4.7,0,9.5,0,14.2c0,1.6-0.6,2.4-1.8,2.3c-1.4-0.1-1.9-1-1.9-2.3
			c0-9.5,0-18.9,0-28.4c0-1.3,0.4-2.2,1.8-2.3c1.2-0.1,1.8,0.8,1.8,2.4C42.5,42.4,42.5,47.1,42.5,51.7z"/>
		<path id="XMLID_27_" class="st0" d="M33.9,150.9c2-2.6,4.6-3.8,7.7-3.7c1,0,1.6,0.3,1.6,1.4c0,1-0.5,1.6-1.5,1.8
			c-0.7,0.1-1.4,0.2-2.1,0.3c-3.5,0.5-5.5,2.6-5.6,6.1c-0.1,3.7,0,7.4-0.1,11.2c0,1.6-1.3,2.5-2.6,1.8c-0.7-0.3-0.9-0.9-0.9-1.6
			c0-6.4,0-12.8,0-19.3c0-1.2,0.7-1.8,1.8-1.8s1.6,0.7,1.7,1.8C34,149.5,33.9,150.2,33.9,150.9z"/>
		<g id="XMLID_3_">
			<path id="XMLID_4_" class="st0" d="M48.1,119.1c1.4,0,1.9-1,2.3-2.1c2.1-5.9,4.1-11.7,6.2-17.6c1.3-3.6,2.6-7.2,3.8-10.8
				c0.4-1.1,0.2-2-1-2.4c-1.1-0.4-1.8,0.2-2.2,1.2c-0.1,0.2-0.1,0.4-0.2,0.6c-2.7,7.9-5.5,15.8-8.2,23.7c-0.2,0.5-0.4,1-0.7,1.9
				c-1.7-4.8-3.2-9.3-4.7-13.7c-1.4-4.1-2.9-8.2-4.3-12.3c-0.3-0.9-0.8-1.6-1.8-1.6s-1.6,0.6-1.9,1.5c-0.1,0.3-0.2,0.6-0.3,0.9
				c-2.7,7.7-5.5,15.5-8.2,23.2c-0.2,0.5-0.2,1.1-0.8,1.5c-0.2-0.6-0.5-1.2-0.7-1.9c-2.7-7.9-5.5-15.8-8.2-23.7
				c-0.4-1.2-1.1-1.9-2.4-1.4c-1.2,0.4-1.4,1.3-1,2.5c3.4,9.6,6.8,19.2,10.2,28.8c0.3,1,1,1.6,2,1.6s1.7-0.6,2-1.6
				c0.6-1.6,1.2-3.3,1.7-4.9c2.4-6.7,4.8-13.3,7.2-20.1c0.6,0.5,0.6,1,0.8,1.5c2.7,7.6,5.4,15.3,8.1,22.9
				C46.3,118,46.7,119,48.1,119.1z"/>
			<path id="XMLID_59_" class="st0" d="M103.6,152.9c-0.6-4.4-4.2-6.7-8.6-5.8c-2.6,0.5-4.5,1.9-5.9,4.2c-2.3-5.3-9.9-6-13.8-0.5
				c0-0.6,0-1.1,0-1.5c0-1.2-0.3-2.3-1.8-2.3c-1.4,0-1.8,1-1.8,2.3c0,6.1,0,12.2,0,18.4c0,1.5,0.7,2.3,1.9,2.2
				c1.4-0.1,1.7-1,1.7-2.2c0-3.4,0-6.8,0-10.2c0-1.5,0.1-2.9,0.8-4.3c1.2-2.4,3.9-3.6,6.6-3c2.2,0.5,3.2,2.1,3.3,5
				c0,0.5,0,0.9,0,1.4c0,3.5,0,7,0,10.6c0,2,0.5,2.8,1.8,2.8s1.8-0.8,1.8-2.7c0-3.3,0-6.6,0-9.9c0-1.5,0.2-3.1,1-4.4
				c1.3-2.2,3.9-3.3,6.5-2.7c2.1,0.5,3.2,2.1,3.2,4.9c0.1,2.3,0,4.6,0,6.9c0,2,0,4.1,0,6.1c0,1.2,0.7,1.8,1.8,1.8
				c1,0,1.8-0.5,1.7-1.5C103.8,163.2,104.3,158,103.6,152.9z"/>
			<path id="XMLID_60_" class="st0" d="M262.3,66.1c0-3.3,0-6.6,0-9.9c0-1.2,0-2.4,0.5-3.6c1.1-3,4.1-4.6,7.5-4.1
				c2.6,0.4,3.8,2,4,5.5c0,0.7,0,1.4,0,2.1c0,3.5,0,6.9,0,10.4c0,1.1,0.6,1.7,1.6,1.8c1,0.1,1.9-0.4,1.9-1.5
				c0.1-5.1,0.4-10.2-0.2-15.3c-0.4-3.4-2.4-5.3-5.7-5.9c-3.8-0.7-7,0.4-9.4,3.7c-0.4-0.5-0.2-1-0.2-1.5c0-3.4,0-6.8,0-10.2
				c0-1.2-0.4-2.2-1.7-2.2c-1.3,0-1.9,0.8-1.9,2.1c0,9.6,0,19.2,0,28.8c0,1.3,0.5,2.1,1.8,2.1C261.9,68.3,262.3,67.4,262.3,66.1z"/>
			<path id="XMLID_61_" class="st0" d="M273,96.4c-3.9-0.8-7.1,0.3-9.8,4c0-4.3,0-8.2,0-12.1c0-1.2-0.4-2.2-1.7-2.2
				c-1.3,0-1.9,0.8-1.9,2.1c0,9.6,0,19.2,0,28.8c0,1.3,0.5,2.1,1.8,2.1c1.4,0,1.8-0.9,1.8-2.2c0-3.3,0-6.6,0-9.9
				c0-1.3,0-2.6,0.5-3.8c1.1-2.9,4.1-4.5,7.5-4c2.6,0.4,3.8,1.9,4,5.5c0,0.5,0,1,0,1.5c0,3.7,0,7.3,0,11c0,1.2,0.7,1.8,1.8,1.8
				c1.1,0,1.8-0.6,1.8-1.7c0-4.9,0.3-9.9-0.2-14.8C278.2,99.1,276.2,97,273,96.4z"/>
			<path id="XMLID_62_" class="st0" d="M77.5,99.2c2.6,0.4,3.8,1.9,4,5.4c0,0.6,0,1.1,0,1.7c0,3.6,0,7.2,0,10.9
				c0,1.2,0.6,1.9,1.7,1.9c1,0,1.8-0.5,1.8-1.6c0.1-5,0.4-10-0.2-15c-0.4-3.5-2.4-5.5-5.7-6.1c-3.8-0.7-7,0.3-9.7,4
				c0-4.3,0-8.1,0-12c0-1.2-0.3-2.1-1.7-2.3c-1.2-0.1-1.9,0.7-1.9,2.2c0,9.5,0,19.1,0,28.6c0,1.5,0.7,2.3,1.9,2.2
				c1.4-0.1,1.7-1,1.7-2.3c0-3.3,0-6.5,0-9.8c0-1.3,0-2.5,0.5-3.8C71.1,100.4,74,98.8,77.5,99.2z"/>
			<path id="XMLID_65_" class="st0" d="M287.9,67.4c3.8,1.8,7.4,1,10.6-2.5c0.3,0.6,0.1,1.2,0.2,1.8c0.2,1.1,0.8,1.7,1.9,1.6
				c1,0,1.6-0.6,1.6-1.7c0-4.7,0.1-9.5-0.1-14.2c-0.2-4.1-2.4-6.3-6.5-6.9c-3.6-0.5-7,0.3-10,2.3c-0.9,0.6-1.3,1.5-0.7,2.5
				c0.6,1,1.4,0.5,2.1,0.1c1.6-0.9,3.3-1.5,5.1-1.9c4.4-0.8,6.5,0.9,6.6,5.2c0,1.3-0.4,1.4-1.5,1.5c-3.2,0-6.4,0-9.5,1.2
				c-2.8,1-4,3.1-3.6,6C284.4,64.7,285.8,66.4,287.9,67.4z M287.7,61.1c0.1-1.7,0.9-2.5,3-3.1c0.3-0.1,0.6,0.4,0.9,0.4
				c1.4-0.2,2.7,0.3,3.9,0.3c0.5,0,0.7,0,0.9,0c2.6,0,2.6-0.6,2.2,2c-0.5,3.9-4.5,6.1-8.1,4.8C288.7,64.9,287.6,63,287.7,61.1z"/>
			<path id="XMLID_68_" class="st0" d="M178.7,96.3c-3.6-0.5-7,0.3-10.1,2.3c-0.9,0.6-1.3,1.5-0.7,2.5c0.6,1,1.4,0.5,2.1,0.1
				c1.6-0.9,3.3-1.5,5.1-1.9c4.4-0.8,6.6,1,6.6,5.3c0,1.1-0.3,1.3-1.4,1.3c-3.3,0-6.5,0-9.6,1.1c-2.8,1-4,3-3.7,5.9
				c0.3,2.4,1.6,4,3.7,5.1c3.8,1.9,7.7,1,10.9-2.7c0,0.9,0,1.4,0,2c0.1,1.1,0.8,1.7,1.8,1.7s1.6-0.6,1.6-1.7c0-4.8,0.1-9.6-0.1-14.4
				C184.9,99,182.8,96.9,178.7,96.3z M175.5,116.3c-2.6,0-4.4-1.4-4.7-3.6c-0.2-1.9,0.5-3.1,2.3-3.6c2.6-0.8,5.3-0.7,8-0.7
				c0.4,0,0.6,0.2,0.6,0.6C182.4,112.8,179.5,116.3,175.5,116.3z"/>
			<path id="XMLID_71_" class="st0" d="M135.2,108.1c2.2,0.1,4.5,0,6.7,0s4.5,0,6.7,0c1.3,0,1.8-0.6,1.8-1.9
				c0.2-7.2-5.9-11.8-12.8-9.5c-7.1,2.3-9.8,12.9-4.7,18.7c3.2,3.7,7.5,4.2,12,3.2c1.7-0.4,3.3-1,4.6-2.2c0.7-0.7,0.9-1.5,0.3-2.3
				c-0.6-0.9-1.4-0.3-2,0c-1.1,0.5-2.1,1.1-3.2,1.5c-5.4,2-10-0.9-10.6-6.3C134.1,108.3,134.3,108,135.2,108.1z M134.3,104.9
				c0.3-3.2,3.1-5.7,6.5-5.7c3.8,0,6.1,1.8,6.5,5.4c0.1,0.8,0,1.1-0.9,1c-1.9-0.1-3.8,0-5.6,0c-1.9,0-3.8,0-5.6,0
				C134.6,105.6,134.3,105.6,134.3,104.9z"/>
			<path id="XMLID_74_" class="st0" d="M289,108.1c2.2,0.1,4.5,0,6.7,0s4.5,0,6.7,0c1.4,0,1.9-0.6,1.9-1.9c0.1-7.2-6-11.7-12.8-9.4
				c-6.9,2.3-9.7,12.6-4.8,18.5c3.2,3.9,7.5,4.4,12.1,3.4c1.7-0.4,3.4-1,4.7-2.3c0.7-0.6,0.8-1.4,0.3-2.2c-0.6-0.9-1.3-0.5-2-0.1
				c-1,0.5-2.1,1.1-3.2,1.5c-5.4,2-10.2-0.9-10.6-6.4C288,108.3,288.1,108,289,108.1z M288.2,104.9c0.3-3.1,3-5.6,6.2-5.7
				c3.8-0.1,6.1,1.6,6.7,5c0.2,1,0.1,1.6-1.2,1.5c-1.7-0.1-3.5,0-5.2,0c-1.9,0-3.8,0-5.6,0C288.5,105.6,288.1,105.7,288.2,104.9z"/>
			<path id="XMLID_77_" class="st0" d="M211.4,108c2.2,0.1,4.5,0,6.7,0s4.4,0,6.6,0c1.4,0,1.9-0.6,1.9-1.9
				c0.1-7.2-5.9-11.7-12.8-9.5c-7,2.3-9.6,12.5-4.8,18.6c3.9,4.9,11.9,4.8,16.5,1.4c0.2-0.2,0.5-0.4,0.6-0.7c0.5-0.7,0.5-1.4,0-2
				c-0.5-0.7-1.2-0.4-1.8-0.1c-1.1,0.5-2.2,1.2-3.3,1.6c-5.3,2-10-0.7-10.6-6.2C210.2,108.4,210.3,108,211.4,108z M210.4,104.9
				c0.2-3.1,3-5.6,6.3-5.7c3.9-0.1,6.2,1.8,6.6,5.2c0.1,0.9,0,1.3-1,1.2c-1.8-0.1-3.7,0-5.5,0c-1.9,0-3.8,0-5.6,0
				C210.7,105.6,210.4,105.6,210.4,104.9z"/>
			<path id="XMLID_80_" class="st0" d="M111.2,67.8c1.7-0.4,3.4-1,4.7-2.3c0.7-0.6,0.8-1.4,0.3-2.2c-0.6-0.9-1.3-0.5-2-0.1
				c-1,0.5-2.1,1.1-3.2,1.5c-5.4,2-10.2-0.9-10.6-6.4c-0.1-0.8,0.1-1.1,0.9-1c2.2,0.1,4.5,0,6.7,0s4.5,0,6.7,0
				c1.4,0,1.9-0.6,1.9-1.9c0.1-7.2-6-11.7-12.8-9.4c-6.9,2.3-9.6,12.6-4.8,18.5C102.3,68.3,106.6,68.8,111.2,67.8z M100.6,54.1
				c0.1-2.9,2.9-5.5,6-5.7c3.9-0.2,6.3,1.5,6.9,4.9c0.2,1.1,0.1,1.7-1.3,1.6c-1.7-0.1-3.5,0-5.2,0c-1.9,0-3.8,0-5.6,0
				C100.9,54.8,100.5,54.9,100.6,54.1z"/>
			<path id="XMLID_83_" class="st0" d="M110,114c-0.6-0.8-1.3-0.4-1.9-0.1c-1.1,0.5-2.2,1.2-3.3,1.6c-5.3,2-9.9-0.8-10.6-6.4
				c-0.1-0.9,0.1-1.1,1-1.1c2.2,0.1,4.5,0,6.7,0s4.5,0,6.7,0c1.3,0,1.8-0.6,1.8-1.9c0.2-7.2-5.8-11.7-12.6-9.6
				c-7.1,2.2-9.9,12.5-5,18.6c3.2,4,7.5,4.5,12.2,3.4c1.7-0.4,3.4-1,4.7-2.3C110.5,115.6,110.6,114.8,110,114z M94.4,104.9
				c0.3-3,2.9-5.5,6-5.7c3.9-0.2,6.3,1.5,6.9,5c0.2,1,0.2,1.6-1.2,1.5c-1.7-0.1-3.5,0-5.2,0c-1.9,0-3.8,0-5.6,0
				C94.8,105.6,94.3,105.7,94.4,104.9z"/>
			<path id="XMLID_86_" class="st0" d="M52.1,147.4c-4.6,1.4-7.3,5.4-7.2,11.1c0,0.5,0,1.2,0.1,1.8c0.7,5.7,4.7,9.4,10.3,9.5
				c5.7,0.1,9.7-3.5,10.6-9.2c0.2-1.6,0.2-3.2,0-4.7C64.7,149.2,58.7,145.4,52.1,147.4z M62,161.6c-0.8,3.5-3.1,5.3-6.7,5.3
				c-3.4,0-5.7-1.9-6.5-5.3c-0.5-2.4-0.5-4.8,0.3-7.1c1-3,3.2-4.4,6.4-4.4c3.1,0,5.2,1.5,6.2,4.5c0.4,1.3,0.6,2.6,0.5,3.9
				C62.3,159.4,62.2,160.5,62,161.6z"/>
			<path id="XMLID_89_" class="st0" d="M58.7,68.3c5.5,0.1,9.4-3.2,10.5-8.6c0.4-1.9,0.4-3.8,0-5.6C68,47.5,62,43.9,55.6,45.8
				c-4.6,1.4-7.3,5.4-7.3,11c0.1,0.9,0.1,1.8,0.3,2.7C49.5,64.9,53.4,68.2,58.7,68.3z M52.4,53.2c0.9-3.2,3.1-4.8,6.4-4.8
				s5.5,1.6,6.4,4.8c0.3,1.1,0.5,2.3,0.4,3.5c0,1.1,0,2.2-0.3,3.3c-0.9,3.5-3.1,5.3-6.9,5.2c-3.3,0-5.6-2-6.3-5.4
				C51.8,57.6,51.8,55.4,52.4,53.2z"/>
			<path id="XMLID_92_" class="st0" d="M176.9,60.3c2.1-9.7-4-16.4-12.7-14.7c-4.9,1-8,5.3-8,11.5c0.1,3.3,1,6.6,4,9
				C165,70,175,69.1,176.9,60.3z M173.1,60.5c-0.9,3.2-3.1,4.8-6.4,4.8s-5.5-1.6-6.4-4.8c-0.3-1.2-0.4-2.4-0.5-3.6
				c0.1-1.1,0.1-2.1,0.4-3.2c0.9-3.5,3.1-5.2,6.6-5.2c3.4,0,5.7,1.8,6.5,5.2C173.8,55.9,173.8,58.2,173.1,60.5z"/>
			<path id="XMLID_93_" class="st0" d="M198.2,64.3c0,0.9,0,1.4,0,1.9c0,1.2,0.4,2.1,1.7,2.1c1.4,0,1.8-0.9,1.8-2.1
				c0-6.2,0-12.4,0-18.7c0-1.2-0.5-2.2-1.8-2.1c-1.3,0-1.8,0.9-1.8,2.2c0,3.3,0,6.6,0,9.9c0,1.1,0,2.2-0.4,3.3
				c-1,3.1-3.9,4.9-7.3,4.4c-2.7-0.4-3.9-2.2-3.9-5.8c0-3.9,0-7.8,0-11.6c0-1.6-0.7-2.5-1.9-2.4c-1.4,0.1-1.8,1.1-1.7,2.4
				c0,4,0,8.1,0,12.1c0,1.2,0.1,2.3,0.5,3.5c0.8,2.6,2.5,4.2,5.2,4.8C192.4,68.8,195.6,67.8,198.2,64.3z"/>
			<path id="XMLID_94_" class="st0" d="M152.5,45.5c-1.1-0.5-1.7,0-2.2,0.9c-0.2,0.3-0.3,0.7-0.4,1c-2.4,5.4-4.8,10.7-7.3,16.4
				c-0.4-0.9-0.7-1.5-1-2.1c-2.2-4.9-4.4-9.9-6.5-14.8c-0.7-1.5-1.4-1.9-2.5-1.4c-1.4,0.7-1.2,1.7-0.6,2.8c2.8,6,5.5,11.9,8.3,17.9
				c0.4,0.9,0.4,1.6,0,2.4c-0.9,1.8-1.7,3.6-2.6,5.4c-0.4,0.9-0.4,1.7,0.6,2.2c1,0.6,1.8,0.1,2.3-0.8c0.2-0.3,0.3-0.6,0.5-1
				c1.8-4,3.7-7.9,5.5-11.9c2.3-4.9,4.5-9.8,6.8-14.7C153.8,46.9,153.7,46,152.5,45.5z"/>
			<path id="XMLID_95_" class="st0" d="M328,96.3c-1.2-0.5-1.8,0.2-2.3,1.2c-0.8,1.8-1.6,3.6-2.4,5.4c-1.7,3.8-3.4,7.6-5.2,11.8
				c-2.6-5.8-5-11.3-7.4-16.8c-0.5-1.1-1.1-2.1-2.5-1.5c-1.3,0.5-1.4,1.3-0.7,2.9c2.7,6,5.5,11.9,8.3,17.9c0.4,0.8,0.4,1.5,0,2.3
				c-0.9,1.7-1.6,3.4-2.4,5.1c-0.5,1.1-0.8,2.1,0.6,2.7c1.3,0.5,1.9-0.3,2.3-1.3c4.2-9,8.4-18,12.6-27
				C329.3,97.7,329.2,96.8,328,96.3z"/>
			<path id="XMLID_96_" class="st0" d="M348.9,57c-2.4-1.1-5-1.4-7.4-2.2c-2.1-0.7-2.9-1.6-2.8-3.1c0.1-1.6,1.1-2.6,3-3.1
				c1.8-0.5,3.6-0.3,5.3,0.5c0.9,0.4,1.7,1,2.5,1.4c0.5,0.3,1,0.5,1.5,0s0.6-1.1,0.4-1.7c-0.2-0.5-0.5-0.9-0.9-1.2
				c-3.3-3.1-10.4-3-13.7,0.1c-2.9,2.8-2.2,7.2,1.4,9c1.1,0.5,2.2,0.8,3.3,1.1c1.8,0.4,3.6,0.7,5.3,1.5c0.9,0.4,1.6,1.1,1.6,2.2
				c0.1,1.2-0.4,2.1-1.4,2.7c-0.9,0.6-2,0.8-3,0.9c-2.8,0.2-5.2-0.6-7.5-2c-0.6-0.4-1.3-0.7-1.9,0.1c-0.5,0.7-0.4,1.5,0.1,2.1
				s1.1,1,1.8,1.4c2,1,4.2,1.4,6.4,1.6c1.8,0,3.5-0.3,5.1-0.9c1.4-0.6,2.6-1.5,3.3-2.8C352.9,61.7,351.8,58.4,348.9,57z"/>
			<path id="XMLID_97_" class="st0" d="M249.2,67.8c1.6-0.4,3.2-1.1,4.4-2.3c0.6-0.7,0.7-1.5,0.2-2.2c-0.6-0.8-1.3-0.4-1.9,0
				c-0.5,0.3-1,0.6-1.6,0.9c-5.3,2.9-10.5,0.1-11.1-5.8c0-0.5,0-0.9-0.1-1.5c0-0.5,0-1.3,0.1-2c0.6-4.2,3.2-6.4,7.4-6.4
				c2,0,3.6,1,5.2,2c0.5,0.3,1.1,0.7,1.7,0.2c0.6-0.6,0.6-1.3,0.3-2c-0.2-0.6-0.7-1-1.2-1.3c-3-2-6.3-2.5-9.8-1.4
				c-5.8,1.7-8.8,8.2-6.9,15C237.6,66.6,243.1,69.5,249.2,67.8z"/>
			<path id="XMLID_98_" class="st0" d="M254.6,116.3c-0.6-0.1-1.1-0.2-1.7-0.2c-2.6-0.1-3.9-1.3-4-4c-0.1-3.9,0-7.7-0.1-11.6
				c0-0.7,0.2-1,1-0.9c1.3,0.1,2.5,0,3.8,0c1,0,1.9-0.3,1.9-1.5s-0.8-1.6-1.9-1.6c-1.2,0-2.3-0.1-3.5,0c-0.9,0.1-1.3-0.2-1.2-1.2
				c0.1-1.3,0-2.5,0-3.8c0-1.2-0.8-1.9-2.1-1.8c-1.2,0-1.8,0.8-1.8,1.9c0,0.8,0,1.6,0,2.4c0,2.4,0.1,2.4-2.3,2.4c-0.2,0-0.3,0-0.5,0
				c-1,0.1-1.6,0.6-1.6,1.6s0.7,1.4,1.6,1.4c0.6,0,1.1,0.1,1.7,0c1.1-0.1,1.5-0.1,1.5,1.1c-0.1,1.8,0,3.1,0,5.1h0.1
				c0,3-0.2,4.6,0,6.8c0.4,4.4,4.9,7.5,9.2,6.4c0.7-0.2,1.3-0.5,1.2-1.4C255.8,116.7,255.3,116.4,254.6,116.3z"/>
			<path id="XMLID_99_" class="st0" d="M80.9,66.1c0.5,1,1.1,1.8,2.2,1.8c1.2,0,1.8-0.8,2.2-1.8c1.4-3,2.8-6,4.2-9
				c1.5-3.1,2.9-6.2,4.4-9.3c0.5-1,0.4-1.8-0.6-2.3c-1.1-0.6-1.8-0.1-2.4,0.9c-0.2,0.4-0.3,0.7-0.5,1.1c-2.4,5.2-4.7,10.4-7.2,15.9
				c-0.4-0.8-0.6-1.2-0.8-1.7c-2.3-5-4.5-10-6.8-15c-0.5-1-1.2-1.7-2.4-1.2c-1.3,0.5-1.4,1.4-0.8,2.6C75.3,54.1,78.1,60.1,80.9,66.1
				z"/>
			<path id="XMLID_100_" class="st0" d="M120.3,137.2c-0.9-0.2-1.9-0.3-2.7-0.4c-3.8,0.2-7.1,1.2-9.9,3.6c-0.9,0.8-1.4,1.8-0.6,2.8
				c0.8,1.1,1.7,0.2,2.5-0.3c0.7-0.5,1.3-0.9,2-1.4c1.9-1.2,3.9-1.7,6.1-1.6c3.5,0.2,5.3,2.7,4.4,6.1c-0.2,0.8-0.6,1.6-1.1,2.3
				c-1.1,1.5-2.2,3-3.3,4.6c-1.5,2.1-2.4,4.4-2.3,7c0,0.7,0.1,1.4,1,1.5s1.2-0.4,1.3-1.2c0.2-2.3,1.4-4.1,2.8-5.9
				c1.5-2,3.3-3.7,4.6-5.9C127.6,143.8,125.4,138.5,120.3,137.2z"/>
			<path id="XMLID_101_" class="st0" d="M331,45.6c-3.1,0-5.7,1.1-7.6,3.8c0-0.5,0-1.1,0-1.6c0-1.5-0.7-2.4-1.8-2.4
				c-1.4,0.1-1.8,1.1-1.8,2.4c0,6.1,0,12.1,0,18.2c0,1.6,0.7,2.5,1.9,2.4c1.5-0.1,1.7-1.1,1.7-2.4c0-3.6-0.1-7.1,0-10.7
				s2.1-5.7,5.6-6.3c0.7-0.1,1.4-0.2,2.1-0.3c1-0.2,1.5-0.7,1.5-1.8C332.6,45.8,331.9,45.6,331,45.6z"/>
			<path id="XMLID_102_" class="st0" d="M210.5,68.3c1.3,0,1.8-0.7,1.8-2.4c0-3.5-0.1-7,0-10.5c0.1-3.7,2.1-5.8,5.7-6.4
				c0.7-0.1,1.3-0.2,2-0.2c1.1-0.1,1.6-0.7,1.6-1.8c-0.1-1.1-0.8-1.3-1.7-1.3c-3.1,0-5.6,1.1-7.6,3.7c0-0.5,0-1,0-1.5
				c0-1.2-0.2-2.3-1.7-2.5c-1.1-0.1-1.9,0.8-1.9,2.4c0,6,0,12,0,18C208.7,67.5,209.3,68.3,210.5,68.3z"/>
			<path id="XMLID_103_" class="st0" d="M203.5,96.4c-3.2,0-5.8,1-7.8,3.8c0-0.5,0-1.1,0-1.6c0-1.6-0.7-2.4-1.8-2.4
				c-1.4,0.1-1.8,1.1-1.8,2.4c0,6.1,0,12.1,0,18.2c0,1.6,0.7,2.5,1.9,2.4c1.5-0.1,1.7-1.1,1.7-2.4c0-3.5-0.1-6.9,0-10.4
				c0.1-3.8,2-6,5.7-6.6c0.8-0.1,1.5-0.1,2.3-0.3c0.9-0.2,1.4-0.8,1.3-1.8C205,96.7,204.4,96.4,203.5,96.4z"/>
			<path id="XMLID_104_" class="st0" d="M127.3,96.4c-3.1,0-5.6,1.2-7.3,3.8c-0.4-0.6-0.2-1.1-0.2-1.6c0-1.2-0.2-2.3-1.7-2.5
				c-1.2-0.1-1.9,0.8-1.9,2.4c0,6,0,12,0,18c0,1.7,0.6,2.5,1.8,2.5c1.2,0,1.8-0.7,1.8-2.4c0-3.6-0.1-7.1,0.1-10.7
				c0.1-3.5,2.1-5.7,5.5-6.2c0.7-0.1,1.4-0.2,2.1-0.3c1-0.1,1.6-0.7,1.6-1.7C129,96.6,128.3,96.4,127.3,96.4z"/>
			<path id="XMLID_105_" class="st0" d="M311,45.4c-1.3,0-1.9,0.8-1.9,2.1c0,6.3,0,12.5,0,18.8c0,1.3,0.6,2.1,1.9,2
				c1.3,0,1.7-0.9,1.7-2.1c0-3.1,0-6.2,0-9.3c0-3.1,0-6.2,0-9.3C312.7,46.3,312.3,45.4,311,45.4z"/>
			<path id="XMLID_106_" class="st0" d="M358.4,58c0,0.8,0.1,1.7,1.1,1.7s1.1-0.9,1.1-1.7c0.2-3.4,0.4-7.2,0.5-10.2l0,0
				c0.2-3,0.4-6.7,0.5-10c0.1-1.6-0.9-2.5-2.3-2.4c-1.3,0-2.2,1-2.1,2.5C357.7,44.5,358,51.2,358.4,58z"/>
			<path id="XMLID_107_" class="st0" d="M359.6,63.1c-1.4-0.1-2.6,1.1-2.6,2.6c0,1.4,1.1,2.6,2.4,2.6c1.4,0,2.5-1.1,2.5-2.5
				C362,64.3,361,63.1,359.6,63.1z"/>
			<path id="XMLID_108_" class="st0" d="M116.5,164.7c-1.3-0.1-2.5,1-2.6,2.5c-0.1,1.4,0.9,2.6,2.3,2.7c1.3,0.1,2.5-0.9,2.6-2.4
				S117.9,164.8,116.5,164.7z"/>
			<path id="XMLID_109_" class="st0" d="M310.9,40.4c1.4,0,2.4-0.9,2.5-2.1c0.1-1.4-0.9-2.4-2.3-2.4c-1.3,0-2.4,0.9-2.5,2.1
				C308.5,39.3,309.5,40.4,310.9,40.4z"/>
		</g>
	</g>
</g>
<g id="XMLID_12_">
	<path id="XMLID_307_" class="st0" d="M-160.1,323.1c-1.4,0-2,1-2,2.4c0,10,0,20,0,30c0,1.4,0.6,2.4,2,2.4c5.3-0.1,10.7,0.7,16-0.5
		c4.4-1,6.7-3.5,7.2-7.6c0.5-4.5-1.2-7.4-5.8-9.7c4.3-2.4,5.9-5.9,4.8-10.4c-1-4.2-4.2-6-8-6.3
		C-150.6,322.9-155.3,323.1-160.1,323.1z M-140.4,348.6c-0.1,3.1-1.6,5-4.6,5.7c-2.2,0.6-4.5,0.2-6.4,0.3c-7,0-7,0-7-6.6
		c0-6.3,0-6.3,6.4-6.2c2.4,0,4.9-0.3,7.3,0.5C-141.5,343.3-140.4,345.5-140.4,348.6z M-141.2,332.8c-0.2,3.3-2.5,5.5-6.2,5.7
		c-1.5,0.1-3,0-4.5,0c-6.5,0-6.5,0-6.5-6.5c0-5.8,0-5.8,5.9-5.8c1.8,0,3.7-0.1,5.5,0.1C-143,326.8-141.1,329.1-141.2,332.8z"/>
	<path id="XMLID_311_" class="st0" d="M-65.1,417.2c-2.2-0.1-4.1-1-6.1-1.9c-0.8-0.4-1.8-1.2-2.5,0.1c-0.6,1.2,0.1,2,1,2.7
		c2.6,1.7,5.5,2.3,8.5,2.4c7.1,0.1,10.9-3.5,11-10.5c0.1-4.4,0-8.8,0-13.2c0-2.5,0-4.9,0-7.4c0-1.2-0.4-2.2-1.7-2.4
		c-1.3-0.2-1.9,0.8-2,2c-0.1,0.6-0.1,1.2-0.1,1.9c-5.7-5-11.2-5.2-15.4-0.8c-4.1,4.4-4.1,13.1,0.1,17.5s9.8,4.2,15.5-0.9
		c0,1,0,1.9,0,2.7C-56.7,415.2-59.3,417.6-65.1,417.2z M-64.2,407.6c-4.6,0-7.3-3.2-7.4-8.7c0-5.4,2.7-8.7,7.3-8.7
		c4.7-0.1,7.4,3.1,7.5,8.5C-56.8,404.3-59.5,407.6-64.2,407.6z"/>
	<path id="XMLID_312_" class="st0" d="M185.6,441.1c-3.3-1.2-6.3-0.5-9,1.7c-0.7,0.6-1.3,1.4-2,2.1c-4.1-5.7-8.8-5.9-14.5-0.7
		c-0.3-1.7,0.1-3.6-2.1-3.6c-1.1,0-1.7,0.9-1.7,2c0,6.9,0,13.8,0,20.6c0,1.1,0.5,1.8,1.7,1.9c1.4,0.1,1.9-0.7,1.9-2
		c0-3.1,0-6.2,0-9.4c0-1.3,0-2.6,0.1-3.9c0.5-4.1,3.2-6.4,6.9-6.1c3.2,0.2,4.4,2,4.5,6.6c0,4,0,8,0,11.9c0,1.3-0.2,2.8,1.7,2.8
		c2.1,0.1,2-1.6,2-2.9c0-4.1-0.1-8.2,0.1-12.3c0.2-3.9,2.9-6.3,6.5-6.2c3.3,0.1,4.7,1.9,4.7,6.3c0.1,4.2,0,8.4,0,12.6
		c0,1.2,0,2.5,1.7,2.5c1.6,0.1,2-1,2-2.3c0-5.1,0.1-10.1-0.2-15.2C189.9,444.7,188.7,442.2,185.6,441.1z"/>
	<path id="XMLID_315_" class="st0" d="M-146.5,300c1.5,7.9-2.7,11.9-10.3,9.7c-1.1-0.3-2.2-0.9-3.3-1.2c-1-0.3-2.2-1.8-3-0.1
		c-0.7,1.5,0.5,2.4,1.7,3c3.5,1.8,7.3,2.5,11.2,1.7c4.7-1,7.3-3.6,7.5-8.3c0.3-7.5,0.2-15,0.2-22.5c0-1.2-0.5-2.2-1.8-2.3
		c-1.3-0.1-1.8,0.9-2,2.1c-0.1,0.5-0.1,1-0.2,1.6c-6-4.8-11.4-5-15.4-0.4c-4,4.5-3.9,13.2,0.3,17.5
		C-157.4,304.9-151.7,304.6-146.5,300z M-153.5,283c4.7,0,7.3,3.1,7.3,8.6c0,5.6-2.6,8.7-7.2,8.8c-4.8,0-7.6-3.2-7.5-8.8
		C-160.9,286.2-158.2,283-153.5,283z"/>
	<path id="XMLID_316_" class="st0" d="M133.5,289.5c0,4.2,0,8.4,0,12.6c0,1.3,0.2,2.4,1.9,2.4c1.4,0,1.8-1,1.8-2.1
		c0-5.3,0.4-10.5-0.3-15.8c-0.4-3.2-2-5.7-5.4-6.4c-4.3-1-7.4,0.9-9.9,4.2c-4.1-5.7-9-6-14.3-0.7c-0.5-1.5,0.1-3.7-2.1-3.6
		c-2.4,0.1-1.8,2.3-1.8,3.8c0,5.8,0,11.6,0,17.4c0,1.4-0.5,3.3,1.9,3.3c2.2-0.1,1.7-1.8,1.7-3.2c0.1-4-0.1-8,0.1-11.9
		c0.3-4.1,3-6.5,6.7-6.3c3.2,0.2,4.5,1.9,4.5,6.5c0,4.2,0,8.4,0,12.6c0,1,0.1,2,1.3,2.3c0.6,0.2,1.3,0.1,1.8-0.4
		c0.7-0.7,0.6-1.6,0.6-2.4c0-4.1-0.1-8.2,0.1-12.2s3-6.5,6.7-6.3C132.2,283.2,133.5,285,133.5,289.5z"/>
	<path id="XMLID_317_" class="st0" d="M-7.8,304.4c1.1,0,1.6-0.6,1.6-1.6c0.1-1.1,0-2.1,0.1-3.2c0.1-3.8-0.1-7.5,0.3-11.2
		c0.4-3.7,3.3-5.6,6.8-5.3c2.9,0.3,4.2,2,4.2,6.1c0,4.2,0,8.4,0,12.6c0,1.3,0,2.7,1.9,2.7s1.8-1.5,1.8-2.8c0-4.1-0.1-8.2,0.1-12.2
		c0.2-4,3-6.5,6.6-6.3c3.2,0.1,4.5,1.9,4.6,6.4c0.1,4.2,0,8.4,0,12.6c0,1.3,0.2,2.4,1.9,2.4c1.4,0,1.8-0.9,1.8-2.1
		c0-5.2,0.1-10.3-0.2-15.5c-0.1-2.9-1.5-5.4-4.5-6.5c-3.2-1.2-6.1-0.5-8.7,1.6c-0.8,0.6-1.4,1.5-2.1,2.2c-4.2-5.6-9-5.9-14.3-0.6
		c-0.5-1.6,0-3.6-2.1-3.7c-1.1,0-1.7,0.8-1.7,1.9c0,7,0,14,0,20.9C-9.7,303.9-8.9,304.4-7.8,304.4z"/>
	<path id="XMLID_318_" class="st0" d="M-66.4,340.5c0,4.8,0,9.7,0,14.5c0,2,0.8,3,2.9,2.9c5.5-0.1,11,0,16.4,0
		c1.1,0,2.3-0.1,2.4-1.5c0.1-1.7-1.2-1.7-2.5-1.7c-4.1,0-8.2-0.2-12.2,0.1c-2.8,0.2-3.5-0.8-3.2-3.4c0.2-2.3,0.2-4.7,0-7.1
		c-0.1-1.9,0.4-2.6,2.4-2.5c4,0.2,7.9,0.1,11.9,0c1.2,0,2.6,0.2,2.6-1.6c0-1.7-1.3-1.7-2.6-1.7c-4.1,0-8.2-0.1-12.2,0
		c-1.7,0.1-2.2-0.5-2.1-2.2c0.1-2.6,0.2-5.2,0-7.7c-0.2-2.2,0.7-2.5,2.6-2.4c4.2,0.1,8.4,0,12.6,0c1.3,0,2.9,0.3,2.8-1.7
		c-0.1-1.6-1.5-1.5-2.7-1.5c-5.3,0-10.5,0.1-15.8,0c-2.4,0-3.2,1-3.2,3.3C-66.3,331-66.4,335.7-66.4,340.5z"/>
	<path id="XMLID_321_" class="st0" d="M66.9,433.8c0-1.5,0.4-3.5-1.8-3.5c-2.5,0-1.8,2.2-1.9,3.6c-0.1,3.4,0,6.9,0,11.1
		c-1.8-2-3.1-3.4-5-4c-3.9-1.2-7.3-0.5-10,2.4c-4,4.3-4.1,9.5-2.4,14.8c1.2,3.7,3.7,6.2,7.7,6.8c0.2,0,0.4,0,0.6,0.1
		c3.6,0.4,6.6-0.8,8.8-4c0.6,1.8-0.4,4,2,4c2.6,0,1.9-2.2,1.9-3.6C67,452.2,66.9,443,66.9,433.8z M57.1,462
		c-3.7,0.6-6.8-1.3-7.9-4.9c-0.8-2.5-0.8-5.1-0.2-7.6c0.9-3.7,3.4-5.8,7.1-5.7c3.7,0,6,2,6.9,5.9c0.2,1,0.3,2.1,0.4,2.8
		C63.3,458.1,61.2,461.4,57.1,462z"/>
	<path id="XMLID_322_" class="st0" d="M38,355c3.2,2.1,6.8,3.1,10.7,3c1.2-0.1,2.4,0,3.5-0.2c5-0.7,8.8-4.2,9.2-8.5
		c0.4-4.6-1.7-7.2-7.3-9c-2.9-0.9-5.8-1.6-8.6-2.5s-5.1-2.5-4.7-6c0.3-2.9,2.3-4.9,5.7-5.6c4.4-0.8,8.3,0.1,11.8,2.9
		c0.7,0.5,1.5,1.6,2.4,0.5c0.9-1,0.6-2-0.4-2.8c-0.7-0.6-1.5-1.3-2.3-1.7c-4.2-2.4-8.8-2.7-13.4-1.5c-4.8,1.3-7.6,4.7-7.6,9.1
		c-0.1,4.3,2,6.9,7.2,8.6c2.9,1,6,1.6,8.9,2.6c2.5,0.8,4.8,2,4.6,5.3c-0.2,2.9-2.1,4.9-5.4,5.5c-4.5,0.9-8.7,0-12.6-2.5
		c-0.9-0.6-1.9-2.4-3.1-0.6C35.5,353.2,36.9,354.3,38,355z"/>
	<path id="XMLID_325_" class="st0" d="M-35,494.1c-2.2,0-1.6,2.1-1.8,3.5c0,0.1-0.3,0.2-0.4,0.2c-4.5-4.6-10-5.2-14.2-1.2
		c-3.3,3.2-4,7.2-3.6,11.6c0.4,4.5,2.1,8.3,6.6,9.8c4.3,1.5,8.3,0.8,11.7-3.9c0,4.4,0,7.8,0,11.2c0,1.2,0.6,2.1,1.9,2.1
		c1.1-0.1,1.7-0.9,1.7-2c0-0.5,0-1.1,0-1.6c0-8.7,0-17.4,0-26.1C-33.1,496.3-32.6,494.1-35,494.1z M-45.7,515.4
		c-2.2-0.4-3.8-1.6-4.6-3.6c-1.5-3.6-1.6-7.3,0.1-10.9c1.4-2.8,3.8-3.9,6.9-3.7c2.9,0.2,4.8,1.7,5.8,4.4c0.6,1.5,0.7,3.1,0.8,4.7
		C-36.7,512.9-40.3,516.5-45.7,515.4z"/>
	<path id="XMLID_326_" class="st0" d="M7.6,452.4c0,0.6,0,1.3,0,1.9c0,2.7,0,5.4,0,8.1c0,1.4,0,2.7,1.9,2.6c1.7-0.1,1.7-1.3,1.7-2.6
		c0-6.2-0.1-12.5,0-18.7c0-2.2-0.8-2.8-2.9-2.8c-3.2,0.1-6.4-0.1-9.7,0.1c-1.9,0.1-2.1-0.7-2-2.3c0.3-3.3,1.6-4.7,5.6-5.4
		c1.1-0.2,2.4,0,2.2-1.6s-1.5-1.2-2.5-1.2c-5.1,0-8.3,2.8-8.8,7.9c-0.2,1.7-0.3,2.9-2.5,2.5c-1.2-0.2-2.5,0-2.5,1.7
		c0,1.8,1.5,1.6,2.6,1.5c1.9-0.2,2.3,0.6,2.3,2.3c-0.1,5.2,0,10.3,0,15.5c0,1.4-0.2,3,1.9,2.9c1.9-0.1,1.7-1.6,1.7-2.9
		c0-5.3,0-10.5,0-15.8c0-1.1-0.2-2,1.5-2.1C7.6,443.3,7.6,443.2,7.6,452.4z"/>
	<path id="XMLID_327_" class="st0" d="M-177.8,409.1c0.5,1.1,0.8,2.5,2.6,2.5c1.7,0,2.1-1.2,2.6-2.4c4-9,8-18,12-27.1
		c0.5-1.1,1-2.1,1.4-3.3c0.3-0.9,0.1-1.8-0.9-2.2c-1-0.4-1.9-0.2-2.4,0.8c-0.4,0.9-0.8,1.8-1.2,2.6c-3.7,8.6-7.4,17.1-11.4,26.4
		c-4.2-9.7-8.1-18.8-12-27.8c-0.6-1.3-1.1-2.9-2.9-2.1c-1.9,0.8-1,2.2-0.4,3.5C-186.2,389.8-182,399.4-177.8,409.1z"/>
	<path id="XMLID_328_" class="st0" d="M18.8,405c-1.2-1.7-2.2,0.3-3.2,0.8c-0.7,0.3-1.3,0.8-1.9,1.2c-7.5,4.1-15.7,0.5-17.4-7.9
		c-0.9-4.5-0.9-9,1-13.3c1.5-3.5,4.2-5.5,8-6.1c4.2-0.7,7.8,0.6,11.1,3.1c0.7,0.6,1.6,1.4,2.4,0.2c0.6-0.9,0.3-1.9-0.4-2.6
		c-0.4-0.4-0.8-0.7-1.2-1c-9.1-6.8-21.9-2.3-24.7,8.6c-1,4.1-1,8.3,0.1,12.4c2,7.2,7.1,11.1,14.9,11.1c3.3,0.2,6.7-0.8,9.7-2.9
		C18.5,407.8,20,406.7,18.8,405z"/>
	<path id="XMLID_329_" class="st0" d="M123.2,447.3c-0.4-5.1-4.8-7.8-9.8-6.7c-2.3,0.5-4.3,1.7-6.4,4.3c0-4.7,0-8.3,0-12
		c0-1.4-0.1-2.8-1.9-2.8c-1.7,0.1-1.8,1.5-1.8,2.9c0,9.8,0,19.5,0,29.3c0,1.3,0,2.7,1.9,2.7s1.8-1.5,1.8-2.8c0-4.1-0.1-8.2,0.1-12.2
		c0.3-4.1,3.3-6.5,7.4-6.4c3.6,0.1,5.1,2,5.1,6.6c0,4.2,0,8.4,0,12.6c0,1.1,0.3,2.1,1.8,2.2c1.4,0.1,1.9-0.7,1.9-2
		C123.4,457.8,123.6,452.6,123.2,447.3z"/>
	<path id="XMLID_330_" class="st0" d="M45.4,409.6c0-5.3,0.2-10.5-0.3-15.8c-0.4-5.1-4.7-7.8-9.7-6.8c-2.4,0.5-4.3,1.6-6.4,4.4
		c0-4.7,0-8.3,0-12c0-1.4-0.1-2.8-1.8-2.8s-1.9,1.4-1.9,2.8c0,9.8,0,19.5,0,29.3c0,1.3-0.1,2.7,1.8,2.7c1.9,0,1.8-1.4,1.8-2.7
		c0-4-0.1-7.9,0.1-11.9c0.2-4.3,3.2-6.9,7.4-6.7c3.8,0.1,5.2,2,5.2,6.9c0,4.1,0,8.2,0,12.2c0,1.1,0.2,2.2,1.7,2.2
		C44.8,411.6,45.4,410.9,45.4,409.6z"/>
	<path id="XMLID_331_" class="st0" d="M135.8,325.3c0,10.2,0,20.4,0,30.6c0,0.9,0.2,1.7,1.2,2c0.7,0.2,1.6,0.3,2-0.5
		c0.3-0.6,0.4-1.4,0.4-2.2c0.1-4.1-0.1-8.2,0.2-12.2c0.3-4.1,3.3-6.5,7.4-6.4c3.6,0.1,5.1,2,5.2,6.7c0,4.2,0,8.4,0,12.6
		c0,1.2,0.3,2.1,1.8,2.2c1.4,0,1.9-0.9,1.9-2c0-5.3,0.1-10.5-0.3-15.8c-0.3-3.8-2.5-5.9-6-6.6c-3.9-0.8-7.1,0.6-10.1,4.1
		c0-4.6,0-8.3,0-12.1c0-1.3-0.3-2.5-1.8-2.5C136.3,323.1,135.8,324.1,135.8,325.3z"/>
	<path id="XMLID_332_" class="st0" d="M142.4,386.9c-1.6,5.2-1.5,10.4,0.5,15.5c3.7,9.4,16.6,12.5,24.3,5.9c0.4-0.3,0.8-0.7,1.1-1.1
		c0.5-0.8,0.6-1.6-0.1-2.4s-1.4-0.2-2,0.2c-0.5,0.3-1,0.8-1.6,1.1c-8.5,5.7-17.7,1.5-19.2-8.5c-0.2-1.2-0.2-2.4-0.3-4.1
		c0.2-1.4,0.3-3.4,0.8-5.2c1.6-6.4,6.4-9.6,13-8.7c2.8,0.4,5,1.8,7.2,3.3c0.7,0.5,1.4,1.2,2.2,0.2c0.6-0.8,0.5-1.7-0.1-2.4
		c-0.4-0.5-0.9-0.9-1.4-1.3C158.3,372.8,145.6,376.7,142.4,386.9z"/>
	<path id="XMLID_333_" class="st0" d="M-62.6,301.4c0,1.4-0.3,3.1,1.9,3s1.7-1.8,1.7-3.1c0.1-4-0.1-8,0.2-11.9
		c0.3-4.1,3.4-6.5,7.5-6.3c3.6,0.2,5.1,2,5.1,6.7c0,4.2,0,8.4,0,12.6c0,1.2,0.4,2.1,1.8,2.1c1.4,0,1.9-0.8,1.9-2
		c0-5.2,0.1-10.3-0.2-15.4c-0.3-4.1-3.1-6.3-6.9-7c-3.8-0.7-5.3,0.8-10.3,4.2c0-4.2,0-7.8,0-11.4c0-1.4,0.6-3.1-1.3-3.1
		c-1.9,0-1.6,1.7-1.6,3.2C-62.9,282.3-62.6,291.9-62.6,301.4z"/>
	<path id="XMLID_336_" class="st0" d="M-55.8,448.6c-0.1-3.6-1.5-6.5-5.3-7.6c-4.6-1.3-8.7-0.3-12.4,2.5c-0.8,0.6-0.9,1.5-0.4,2.3
		c0.7,0.9,1.5,0.5,2.3,0c2-1.1,4-2,6.3-2.1c4.1-0.2,5.9,1.6,6,5.7c0,1.5-0.4,2-2,2c-2.7,0.1-5.4,0.2-8,0.7c-2.9,0.5-5.3,1.9-5.5,5.4
		c-0.2,3.3,1.4,5.5,4.3,6.9c3.7,1.7,7.2,0.8,10.9-2.9c0.5,1.5-0.3,3.7,2.1,3.5c2.3-0.2,1.7-2.1,1.7-3.5
		C-55.6,457.2-55.6,452.9-55.8,448.6z M-59.3,455.7c-0.1,4.7-5.2,7.9-9.3,5.8c-1.6-0.8-2.4-2.1-2.3-3.9s1.3-2.5,2.8-3
		c2.4-0.8,4.9-0.5,7.4-0.6C-59.3,453.9-59.2,454.7-59.3,455.7z"/>
	<path id="XMLID_339_" class="st0" d="M-129.8,336.6c-0.6,0.5-0.7,1.4-0.3,2.1c0.6,0.9,1.5,0.6,2.3,0.1c2-1.1,4-2.1,6.3-2.2
		c4.2-0.2,6.1,1.7,6.1,6c0,1.5-0.5,1.7-1.9,1.8c-2.6,0.1-5.1,0.3-7.7,0.7c-4.1,0.6-6.1,2.8-5.9,6.3c0.1,3.3,2.8,6.1,6.4,6.6
		c3.5,0.5,6.6-0.4,8.8-3.6c0.7,1.5-0.2,3.7,2.1,3.6c2.5-0.1,1.8-2.3,1.8-3.7c0-4.5,0.1-9-0.2-13.5c-0.3-3.9-2.3-6.2-6-7
		C-122.4,332.8-126.3,333.8-129.8,336.6z M-116.7,352.4c-1.2,1.6-2.8,2.3-4.7,2.5c-2.9,0.3-5.3-1.2-5.6-3.6
		c-0.4-3.2,1.9-3.7,4.2-4.2c1.1-0.2,2.3-0.2,3.6-0.3c1.2,0.4,3.1-0.7,3.7,0.8C-114.9,349.2-115.6,351-116.7,352.4z"/>
	<path id="XMLID_342_" class="st0" d="M71,395.9c-0.1-3.6-1.1-6.8-4.9-8.3c-3.6-1.4-10.6-0.2-12.8,2.2c-0.7,0.8-1.2,1.7-0.4,2.6
		c0.7,0.9,1.6,0.3,2.3-0.1c1.8-1,3.7-1.8,5.7-2.1c4.3-0.5,6.3,1.3,6.5,5.5c0.1,1.5-0.2,2.3-2,2.3c-2.7,0-5.4,0.2-8,0.7
		c-2.8,0.5-5,1.9-5.4,5.1c-0.4,2.9,1.2,5.6,4.1,7c3.6,1.7,7.3,0.9,11.1-2.6c0.3,1.7,0,3.7,2.3,3.4c2.1-0.3,1.5-2.1,1.5-3.3
		C71,404.1,71,400,71,395.9z M66.3,405.6c-1.2,1.8-2.9,2.7-5.1,2.9c-2.9,0.3-5.2-1.3-5.5-3.7c-0.4-3.1,1.9-3.7,4.2-4.1
		c1.2-0.3,2.5-0.2,3.8-0.3c1.2,0.3,2.9-0.6,3.5,0.7C67.8,402.5,67.2,404.2,66.3,405.6z"/>
	<path id="XMLID_345_" class="st0" d="M84.3,357.9c2.1-0.3,1.5-2.1,1.5-3.3c0.1-4.1,0.1-8.2,0-12.2c-0.1-3.6-1-6.8-4.8-8.3
		c-3.6-1.4-10.6-0.2-12.8,2.2c-0.7,0.8-1.2,1.7-0.4,2.6c0.7,0.9,1.5,0.3,2.3-0.1c1.8-1,3.7-1.8,5.7-2.1c4.4-0.5,6.5,1.5,6.5,5.8
		c0,1.6-0.6,1.9-2,1.9c-2.7,0.1-5.4,0.3-8,0.7c-2.8,0.5-5,1.9-5.4,5.1c-0.4,2.9,1.2,5.6,4.1,7c3.6,1.7,7.2,1,11-2.5
		C82.4,356.1,81.9,358.3,84.3,357.9z M81.1,352.2c-1.1,1.6-2.6,2.4-4.5,2.7c-3,0.4-5.6-1.1-5.9-3.5c-0.5-3.3,2-3.8,4.3-4.3
		c1.1-0.2,2.3-0.2,3.4-0.3c1.3,0.3,3-0.6,3.6,0.5C82.7,348.9,82.1,350.7,81.1,352.2z"/>
	<path id="XMLID_348_" class="st0" d="M128.4,342.4c-0.1-3.6-1-6.8-4.8-8.3c-3.6-1.4-10.6-0.2-12.8,2.2c-0.7,0.8-1.2,1.7-0.4,2.6
		c0.7,0.9,1.5,0.3,2.3-0.1c1.8-1,3.7-1.8,5.7-2.1c4.4-0.5,6.5,1.5,6.5,5.8c0,1.7-0.6,1.9-2,1.9c-2.7,0.1-5.4,0.3-8,0.7
		c-2.8,0.5-5,1.9-5.4,5.1c-0.4,2.9,1.2,5.6,4.1,7c3.6,1.7,7.2,1,11-2.5c0.6,1.4,0.1,3.6,2.4,3.3c2.1-0.3,1.5-2.1,1.5-3.3
		C128.5,350.5,128.5,346.4,128.4,342.4z M123.9,351.8c-1,1.6-2.4,2.6-4.3,3c-3.2,0.6-5.9-0.7-6.4-3.2c-0.5-2.6,1-4,4.8-4.5
		c1.1-0.1,2.1-0.1,3.3-0.2c1.1,0.3,2.7-0.7,3.3,0.7C125.2,348.9,124.7,350.5,123.9,351.8z"/>
	<path id="XMLID_351_" class="st0" d="M-99.2,390c-0.6,0.7-0.9,1.5-0.2,2.4c0.6,0.8,1.4,0.4,2,0.1c2-1.1,4-2.1,6.3-2.3
		c4.2-0.3,6.2,1.6,6.2,5.8c0,1.6-0.5,1.9-2,2c-2.8,0.1-5.6,0.3-8.3,0.8c-2.7,0.5-4.8,1.9-5.1,5c-0.3,3.1,1.1,5.4,3.7,6.9
		c3.5,2,7.6,1.1,11.3-2.4c0.6,1.4,0,3.6,2.4,3.3c2.3-0.3,1.5-2.3,1.5-3.6c0.1-4.3,0.1-8.6-0.1-12.9c-0.2-4.1-2-6.5-5.4-7.5
		C-90.5,386.3-97.4,387.7-99.2,390z M-86.2,406c-1.3,1.8-3.1,2.6-5.2,2.6c-2.5,0-4.7-0.9-5.1-3.8s1.8-3.5,4-4
		c1.2-0.3,2.5-0.3,3.8-0.4c1.2,0.5,3-0.8,3.7,0.8C-84.4,402.8-85.1,404.5-86.2,406z"/>
	<path id="XMLID_354_" class="st0" d="M14.7,494.7c-6.2-2.1-12.3,1.2-14,7.7c-1.3,5.3-0.9,10.3,3.6,14.1c3.4,2.9,10.1,3,14.3,0.5
		c1.2-0.7,2.8-1.5,1.9-3.2c-1-1.8-2.2-0.1-3.2,0.3c-0.8,0.3-1.5,0.8-2.3,1.1c-5.5,1.8-10.4-1-11.1-6.4c-0.2-1.4,0.1-2,1.6-1.9
		c2.1,0.1,4.3,0,6.4,0c2.3,0,4.5,0,6.8,0c1.2,0,2-0.3,2.2-1.7C21.7,501.1,18.7,496,14.7,494.7z M15.8,504.4c-1.6-0.1-3.2,0-4.8,0
		c-1.8,0-3.6,0-5.4,0c-0.9,0-1.6,0-1.5-1.3c0.4-2.9,3.1-5.5,6.4-5.7c3.8-0.3,6.4,1.6,7.2,4.9C18,503.9,17.6,504.5,15.8,504.4z"/>
	<path id="XMLID_357_" class="st0" d="M138.6,440.7c-4.7,1-8,4.3-8.7,9.2c-0.8,5.1-0.4,10.1,4.3,13.3c4.5,3,9.3,2.6,14,0.2
		c1.2-0.6,2.8-1.6,1.8-3.2s-2.2,0.1-3.3,0.4c-0.8,0.3-1.5,0.8-2.3,1.1c-5.3,1.7-9.6-0.7-10.7-5.6c-0.5-2.1,0-2.9,2.2-2.7
		c1.9,0.2,3.9,0,5.8,0c2.3,0,4.5,0,6.8,0c1.3,0,1.9-0.5,2.1-1.9C151.2,444.9,145.1,439.3,138.6,440.7z M145,450.8
		c-1.6-0.2-3.2,0-4.8,0c-1.2,0-2.4,0.1-3.5,0c-1-0.1-2.4,0.6-3-0.4c-0.6-1.2,0.2-2.5,0.9-3.6c1.7-2.7,4.3-3.5,7.3-3
		c2.5,0.4,4.3,1.8,5,4.4C147.4,449.9,147.4,451.1,145,450.8z"/>
	<path id="XMLID_360_" class="st0" d="M-31.5,302.9c3.6,2.4,10.6,2,14.1-0.5c1-0.7,2-1.6,1.2-2.9c-0.8-1.4-1.9-0.2-2.8,0.2
		c-0.8,0.3-1.5,0.8-2.3,1.1c-5.2,2-9.9-0.1-11.2-5.1c-0.5-2-0.5-3.3,2.2-3c1.9,0.2,3.9,0,5.8,0c2.1,0,4.3-0.1,6.4,0
		c1.6,0.1,2.3-0.6,2.4-2.2c0.5-6.8-5.5-12-12.2-10.4c-4.7,1.1-7.9,4.6-8.5,9.7C-37.1,295-36.3,299.8-31.5,302.9z M-31.6,286.2
		c1.7-2.9,4.5-3.5,7.5-3c2.7,0.4,4.3,2.1,5,4.8c0.4,1.6,0.1,2.4-1.8,2.2c-1.6-0.1-3.2,0-4.8,0c-1.3,0-2.6,0.1-3.8,0
		c-1-0.1-2.5,0.5-3-0.4C-33.1,288.6-32.3,287.3-31.6,286.2z"/>
	<path id="XMLID_363_" class="st0" d="M-177.7,358c2.8,0,6.2-1,7.7-2.4c0.9-0.8,1.5-1.7,0.7-2.8c-0.7-1-1.5-0.2-2.3,0.1
		c-1,0.4-1.9,1.1-2.9,1.4c-5.5,2-10.3-0.6-11.3-5.9c-0.3-1.7,0.1-2.2,1.9-2.2c4.2,0.1,8.4,0,12.6,0c1.3,0,2.3-0.1,2.5-1.7
		c0.7-4.2-2.3-9.2-6.3-10.5c-4.4-1.5-8.4-0.6-11.4,2.9c-3.8,4.4-4,9.6-2,14.8C-186.6,356.2-182.9,358.1-177.7,358z M-184.5,339.7
		c1.7-2.9,4.5-3.5,7.5-3.1c2.7,0.4,4.3,2.1,5,4.8c0.4,1.6,0.2,2.4-1.8,2.2c-1.6-0.2-3.2,0-4.8,0c-1.3,0-2.6,0.1-3.8,0
		c-1-0.1-2.5,0.5-3-0.4C-186.1,342.2-185.2,340.8-184.5,339.7z"/>
	<path id="XMLID_366_" class="st0" d="M-38.1,387.2c-4.7,1.1-7.9,4.5-8.7,9.6c-0.9,5.7,1.1,11,5.1,13.3c3.8,2.2,10.8,1.9,14.1-0.7
		c1-0.8,1.9-1.7,1-3c-0.8-1.1-1.7-0.2-2.5,0.2c-0.9,0.4-1.7,0.9-2.6,1.3c-5.6,2.1-10.7-0.8-11.4-6.2c-0.2-1.3,0-2,1.6-1.9
		c2.1,0.1,4.3,0,6.4,0c2.3,0,4.5,0,6.8,0c1.5,0,2.1-0.5,2.2-2C-25.4,391.1-31.5,385.7-38.1,387.2z M-31.3,397.3
		c-1.6-0.1-3.2,0-4.8,0c-1.7,0-3.4-0.1-5.1,0c-2,0.1-2-0.7-1.5-2.3c1.1-3.3,3.7-5,7.4-4.8c3.1,0.2,5.2,2,5.9,4.9
		C-29.1,396.7-29.5,397.4-31.3,397.3z"/>
	<path id="XMLID_369_" class="st0" d="M-132.4,302.1c1.6,1.3,3.4,2.2,5.6,2.3c7.9,0.5,12.7-4.1,12.7-13.3c-0.1-3.6-1.4-7.7-5.8-10
		c-4.1-2.1-8.2-1.8-11.9,0.9C-137.6,286.1-137.9,297.6-132.4,302.1z M-131.9,287.7c1.2-3.4,4.2-5.1,7.9-4.6
		c4.6,0.7,7.1,5.9,5.8,12.2c-1,4.8-4.6,7.1-9.3,5.8c-3.4-0.9-5.1-3.9-5.1-9C-132.6,290.6-132.4,289.1-131.9,287.7z"/>
	<path id="XMLID_372_" class="st0" d="M-178.5,494c-6.6,0-11,4.9-11.1,12.3c0,7.6,4.1,12.3,10.9,12.3c6.9,0,11.2-4.5,11.2-12
		C-167.3,499.1-171.8,494-178.5,494z M-180.6,515.3c-0.1,0-0.2,0-0.3-0.1c-3.7-1.1-5.7-5.8-4.7-11.5c0.7-4.3,3.4-6.6,7.4-6.6
		c4.5,0.1,7.2,3.6,7.1,9.3C-171.1,513.2-175,516.8-180.6,515.3z"/>
	<path id="XMLID_375_" class="st0" d="M-142.9,453.2c0.1-7.6-4.3-12.7-11-12.7c-6.6,0-11.1,4.9-11.1,12.3c0,7.6,4.1,12.3,10.9,12.3
		C-147.2,465.1-143,460.6-142.9,453.2z M-161.3,452.8c0-6.1,2.9-9.4,7.9-9.1c3,0.2,5.1,1.8,6,4.6c1.3,4.1,1.5,8.4-1.6,11.9
		c-2.1,2.4-5,2.5-7.7,1.5C-160.7,460.1-161.2,456.5-161.3,452.8z"/>
	<path id="XMLID_378_" class="st0" d="M85.9,304.4c6.9,0,11.2-4.5,11.3-11.9c0.1-7.6-4.3-12.7-11-12.7c-6.6,0-11.1,4.9-11.1,12.3
		C75,299.7,79.1,304.4,85.9,304.4z M78.9,289.4c0.8-4.6,4.2-7.1,8.5-6.4c3.8,0.6,6,4,6,9.1c0.1,6.7-3.7,10.3-9.3,9
		C79.9,300.2,77.8,295.4,78.9,289.4z"/>
	<path id="XMLID_381_" class="st0" d="M184.2,386.9c-6.6-0.1-11.1,4.9-11.1,12.3c0,7.6,4.1,12.3,10.8,12.4c7.1,0,11.3-4.6,11.3-12.2
		C195.2,391.9,190.8,387,184.2,386.9z M189.1,406.5c-2.1,2.4-5,2.4-7.8,1.5c-3-0.9-4.6-4.1-4.6-8.8c0-6.2,3-9.6,8.1-9.1
		c3,0.3,5,2,5.8,4.8C191.9,399,192.2,403.1,189.1,406.5z"/>
	<path id="XMLID_382_" class="st0" d="M-6,497.3c0-1.4,0.2-3.1-1.8-3.1c-1.9,0-1.9,1.6-1.9,3.1c0,4.1,0.1,8.2-0.2,12.2
		s-3.4,6.5-7.2,6.2c-3.5-0.2-4.9-2-5-6.5c-0.1-4.2,0-8.4,0-12.6c0-1.3-0.3-2.5-1.8-2.5s-1.8,1.2-1.8,2.5c0,4.8-0.1,9.7,0.1,14.5
		c0.3,5.1,3.2,7.4,8.1,7.6c3.2,0.1,5.5-1.3,7.5-3.7c0.8,1.4-0.3,3.9,2.4,3.6c2.3-0.3,1.5-2.3,1.5-3.6C-5.9,509.1-6,503.2-6,497.3z"
		/>
	<path id="XMLID_383_" class="st0" d="M-89,501.1c-0.2-3.9-2.5-6.2-6.1-6.9c-3.9-0.8-7.1,0.6-9.7,3.7c-0.7-1.5,0.1-4-2.3-3.7
		c-2.5,0.2-1.7,2.6-1.7,4.1c-0.1,5.7-0.1,11.4,0,17.1c0,1.4-0.5,3.3,1.9,3.2c2.2-0.1,1.7-1.9,1.7-3.2c0.1-3.9-0.1-7.7,0.1-11.6
		c0.2-4.3,3.3-6.8,7.5-6.6c3.6,0.2,5,2,5.1,6.7c0,4.2,0,8.4,0,12.6c0,1.2,0.4,2.1,1.8,2.1s1.9-0.8,1.9-2.1
		C-88.8,511.4-88.7,506.3-89,501.1z"/>
	<path id="XMLID_384_" class="st0" d="M38.7,447.6c-0.2-3.9-2.5-6.2-6.1-6.9c-3.9-0.8-7.1,0.6-9.8,3.6c-0.7-1.4,0.1-3.9-2.3-3.7
		c-2.6,0.2-1.7,2.6-1.7,4.1c-0.1,5.6-0.1,11.2,0,16.7c0,1.4-0.7,3.6,1.9,3.6c2.4,0,1.7-2.1,1.7-3.4c0.1-3.8-0.1-7.5,0.1-11.3
		c0.2-4.3,3.2-6.8,7.5-6.6c3.6,0.2,5,2,5.1,6.7c0,4.2,0,8.4,0,12.6c0,1.2,0.4,2.1,1.8,2.1c1.4,0,1.9-0.8,1.9-2
		C38.9,457.9,39,452.7,38.7,447.6z"/>
	<path id="XMLID_385_" class="st0" d="M-28.4,447.5c-0.2-3.9-2.5-6.1-6.1-6.9c-3.9-0.8-7.1,0.7-9.8,3.8c-0.5-1.7,0.2-4-2.2-3.9
		c-2.3,0.2-1.7,2.4-1.7,3.9c-0.1,5.8,0,11.6,0,17.4c0,1.4-0.4,3.3,2,3.2c2.2-0.1,1.6-1.9,1.7-3.2c0.1-3.9-0.1-7.7,0.1-11.6
		c0.2-4.3,3.3-6.8,7.5-6.6c3.6,0.2,5,2,5,6.7c0,4.2,0,8.4,0,12.6c0,1.2,0.4,2.1,1.9,2.1c1.4,0,1.8-0.9,1.8-2.1
		C-28.2,457.8-28.1,452.7-28.4,447.5z"/>
	<path id="XMLID_386_" class="st0" d="M-141.2,501.6c-0.4-5.6-4.8-8.6-10.2-7.4c-2.3,0.5-4.1,1.7-5.8,3.9c-0.6-1.9,0.1-4.3-2.4-4
		c-2.1,0.2-1.5,2.2-1.6,3.7c0,6,0,12,0,18c0,1.3-0.1,2.7,1.8,2.8c1.9,0,1.8-1.4,1.8-2.7c0-4.1-0.1-8.2,0.1-12.2
		c0.2-4.1,3.3-6.6,7.4-6.4c3.7,0.1,5.2,1.9,5.2,6.6c0.1,4.2,0,8.4,0,12.6c0,1.3,0.4,2.3,2,2.3c1.5-0.1,1.7-1.1,1.7-2.2
		C-141.1,511.5-140.9,506.5-141.2,501.6z"/>
	<path id="XMLID_387_" class="st0" d="M-132.1,390.2c3.6,0.2,5,2,5,6.7c0,4.2,0,8.4,0,12.6c0,1.2,0.4,2.1,1.9,2.1
		c1.4,0,1.9-0.9,1.9-2.1c0-5.2,0.1-10.3-0.2-15.4c-0.2-3.5-2.1-6-5.8-6.8c-4.1-0.9-7.3,0.5-10.1,3.6c-0.7-1.5,0.1-4-2.2-3.8
		c-2.5,0.2-1.7,2.6-1.7,4.1c-0.1,5.7-0.1,11.4,0,17.1c0,1.4-0.5,3.3,1.9,3.2c2.2-0.1,1.6-1.9,1.6-3.2c0.1-4-0.1-8,0.2-11.9
		C-139.3,392.3-136.2,389.9-132.1,390.2z"/>
	<path id="XMLID_388_" class="st0" d="M-118.8,465.1c1.5,0,1.8-1,1.8-2.1c0-6.8,0-13.5,0-20.3c0-0.9-0.4-1.7-1.2-2.1
		c-0.8-0.3-1.5,0.1-2,0.7c-0.6,0.7-0.4,1.6-0.4,2.5c0,4,0.1,7.9-0.1,11.9s-3.2,6.5-7,6.4c-3.6-0.1-5.1-1.9-5.2-6.6
		c-0.1-4.2,0-8.4,0-12.6c0-1.3-0.4-2.5-1.9-2.4c-1.3,0.1-1.7,1.1-1.7,2.3c0,5-0.2,10.1,0.2,15.1c0.3,4.7,3.2,7,7.8,7.2
		c3.2,0.1,5.6-1,7.9-3.8C-120.3,462.9-121.3,465-118.8,465.1z"/>
	<path id="XMLID_389_" class="st0" d="M19.6,333.6c-1.7-0.7-2.1,1-2.6,2.1c-2.5,5.6-4.9,11.2-7.7,17.6c-2.7-6.2-5.1-11.7-7.5-17.1
		c-0.6-1.2-0.8-3.4-3-2.5c-2.1,0.9-0.9,2.5-0.3,3.8c1.9,4.3,3.6,8.8,5.9,12.9c2.5,4.5,3.2,8.6,0.1,13c-0.7,1-1.4,2.5,0.3,3.3
		c1.7,0.7,2.1-0.9,2.7-2c4.2-9.2,8.4-18.4,12.6-27.6C20.7,335.8,21.4,334.3,19.6,333.6z"/>
	<path id="XMLID_390_" class="st0" d="M-106,333.6c-1.6,0.7-1.3,1.9-0.7,3.2c1.9,4,3.4,8.1,5.5,12c2.7,5,4.6,9.8,0.6,15.1
		c-0.7,0.9-0.8,2.1,0.5,2.7c1.3,0.7,2-0.3,2.5-1.3c4.4-9.7,8.8-19.3,13.2-29c0.5-1.2,0.4-2.2-0.8-2.7c-1.3-0.6-1.9,0.4-2.4,1.5
		c-0.6,1.3-1.1,2.6-1.7,3.8c-2,4.6-4,9.2-6.3,14.4c-2.8-6.4-5.3-12.2-7.9-17.9C-103.9,334.2-104.5,332.9-106,333.6z"/>
	<path id="XMLID_391_" class="st0" d="M-184,470.2c-0.7,1.1-1.7,2.7,0.2,3.5c1.9,0.8,2.2-1.1,2.8-2.3c4.2-9.1,8.3-18.2,12.4-27.3
		c0.6-1.3,1.4-2.8-0.5-3.5c-1.7-0.6-2.1,1-2.6,2.2c-2.5,5.6-4.9,11.2-7.7,17.5c-2.8-6.4-5.3-12.1-7.8-17.8c-0.5-1.2-1-2.6-2.7-1.8
		c-1.6,0.7-1.1,2-0.5,3.3c2.1,4.6,3.9,9.3,6.4,13.7C-181.6,462.1-181.1,466-184,470.2z"/>
	<path id="XMLID_392_" class="st0" d="M173.9,355.9c2.4,1.7,5.1,2.3,7.9,2.1c0.9,0,1.7,0,2.6-0.1c3.7-0.5,6.3-2.8,6.6-6
		c0.3-3.4-1.1-5.3-5.2-6.7c-2-0.7-4.1-1.1-6.2-1.7c-1.5-0.5-2.7-1.3-2.6-3.2c0.1-1.9,1.2-2.9,2.9-3.4c2.5-0.8,4.8-0.2,7.1,1.1
		c1,0.5,2.2,2.2,3.2,0.6c1-1.7-0.5-2.8-1.8-3.5c-3.6-2-7.3-2.3-11.1-0.4c-2.5,1.3-3.9,3.2-3.9,6.2c0,2.9,1.8,4.5,4.2,5.4
		c2.1,0.8,4.3,1.2,6.5,1.9c1.8,0.5,3.5,1.3,3.3,3.6c-0.2,2.3-2,2.8-3.9,3.2c-2.9,0.5-5.5-0.2-8-1.7c-0.9-0.5-2-1.3-2.8,0
		C172.2,354.3,173,355.2,173.9,355.9z"/>
	<path id="XMLID_393_" class="st0" d="M112.7,390.3c2.5-0.6,4.9,0.1,7,1.4c0.9,0.6,2,1.9,2.9,0.2c0.7-1.3-0.3-2.3-1.3-3
		c-3.5-2.2-7.2-2.8-11-1.2c-2.8,1.1-4.6,3.1-4.6,6.3c0,3.2,2,4.8,4.7,5.7c2.1,0.7,4.3,1.2,6.5,1.8c1.7,0.5,3,1.3,2.9,3.3
		c-0.1,2.1-1.6,2.9-3.4,3.3c-3.1,0.7-5.9,0-8.6-1.6c-0.8-0.5-1.9-1.1-2.6-0.1c-0.7,1.1-0.1,2.1,0.9,2.8c2.3,1.7,5,2.3,7.9,2.3
		c1.2-0.1,2.4,0,3.5-0.3c3.4-0.7,5.6-3.1,5.8-6c0.2-3.3-1.1-5.2-5-6.4c-2-0.7-4.1-1.1-6.2-1.8c-1.6-0.5-2.9-1.4-2.8-3.4
		C109.5,391.7,111,390.7,112.7,390.3z"/>
	<path id="XMLID_394_" class="st0" d="M-23,340.9c0.1,2.7,1.8,4.3,4.1,5.2c2.2,0.8,4.5,1.3,6.8,2c1.7,0.5,3.3,1.2,3.1,3.4
		c-0.2,2.3-1.8,2.9-3.7,3.3c-3,0.6-5.7-0.2-8.3-1.7c-0.9-0.5-1.9-1.1-2.6,0c-0.7,1.1,0,2.1,0.9,2.7c2.4,1.7,5,2.3,7.9,2.2
		c1.1-0.1,2.2,0,3.2-0.2c3.5-0.6,5.9-3.1,6.1-6.1c0.2-3.3-1.1-5.1-5.1-6.4c-1.9-0.6-3.9-1.1-5.9-1.7c-1.7-0.5-3.2-1.3-3-3.6
		c0.2-2.2,1.8-3.1,3.7-3.4c2.4-0.5,4.6,0.2,6.7,1.6c0.8,0.5,1.8,1.7,2.8,0.4c1-1.4-0.1-2.5-1.2-3.2c-3.8-2.5-7.8-2.9-11.9-0.8
		C-21.8,335.9-23.1,338-23,340.9z"/>
	<path id="XMLID_395_" class="st0" d="M41.8,283.6c4.4-0.9,3.5,2.2,3.5,4.6c0,1.8,0,3.6,0,5.5c0,2.6,0,5.1,0,7.7c0,1.4-0.2,3,1.9,3
		c1.9,0,1.7-1.6,1.7-2.8c0-3.9,0-7.7,0-11.6c0-2-0.8-4.4,0.4-5.9c0.9-1.2,3.2-0.3,4.9-0.4c1-0.1,1.7-0.5,1.7-1.5s-0.5-1.6-1.5-1.7
		c-1.1-0.1-2.2-0.1-3.2,0c-1.8,0.2-2.5-0.4-2.2-2.3c0.4-3.3,1.6-4.5,6-5.3c1-0.2,2-0.2,2-1.5c0-1.4-1.2-1.2-2.1-1.3
		c-5.1-0.2-8.7,2.4-9.3,7.3c-0.3,2.2-0.5,3.6-3.2,3.2c-1.1-0.2-1.9,0.5-1.9,1.7C40.4,283,41,283.8,41.8,283.6z"/>
	<path id="XMLID_396_" class="st0" d="M-80.9,283.7c3-0.5,3.4,1,3.1,3.4c-0.2,1.4,0,2.8,0,4.2c0,1.6,0,3.2,0,4.8
		c0.1,5.8,2.5,8.2,8.2,8.4c1.2,0,2.6,0.4,2.7-1.4c0-1.5-1.4-1.3-2.4-1.4c-3.8-0.5-4.7-1.6-4.8-5.4c-0.1-2.8,0.2-5.6-0.1-8.4
		c-0.3-3.2,0.5-4.8,4-4.2c1.1,0.2,2.9,0.5,3-1.4c0.1-2.1-1.7-2-3.1-1.8c-3.2,0.5-4.5-0.7-3.9-3.9c0.1-0.6,0-1.3,0-1.9
		c-0.1-0.9-0.7-1.3-1.5-1.4c-0.9,0-1.8,0.2-1.9,1.2c-0.1,0.7-0.1,1.5-0.1,2.2c0.1,2.2,0.3,4.4-3.1,3.7c-1.1-0.2-1.8,0.6-1.7,1.8
		C-82.6,283.4-81.8,283.8-80.9,283.7z"/>
	<path id="XMLID_397_" class="st0" d="M-109.9,283.7c3-0.5,3.4,1,3.1,3.4c-0.2,1.4,0,2.8,0,4.2c0,1.6,0,3.2,0,4.8
		c0.1,5.8,2.5,8.2,8.2,8.4c1.2,0,2.6,0.4,2.7-1.4c0-1.5-1.4-1.3-2.4-1.4c-3.8-0.5-4.7-1.6-4.8-5.4c-0.1-2.8,0.2-5.6-0.1-8.4
		c-0.3-3.2,0.5-4.8,4-4.2c1.1,0.2,2.9,0.5,3-1.4c0.1-2.1-1.7-2-3.1-1.8c-3.2,0.5-4.5-0.7-3.9-3.9c0.1-0.6,0-1.3,0-1.9
		c-0.1-0.9-0.7-1.3-1.5-1.4c-0.9,0-1.8,0.2-1.9,1.2c-0.1,0.7-0.1,1.5-0.1,2.2c0.1,2.2,0.3,4.4-3.1,3.7c-1.1-0.2-1.8,0.6-1.7,1.8
		C-111.6,283.4-110.9,283.8-109.9,283.7z"/>
	<path id="XMLID_398_" class="st0" d="M-79.1,460.2c-0.9-1.2-1.9-0.2-2.8,0.3c-7.1,3.9-12.6,0.6-12.6-7.6s5.5-11.3,12.7-7.4
		c0.8,0.4,1.6,1.4,2.5,0.4c1-1.2,0.1-2.3-0.8-3c-2.7-2-5.8-2.8-9.1-2.1c-7.2,1.5-11,9.2-8.4,17.1c2.3,7.2,11.4,10,17.4,5.3
		C-79.2,462.3-78.2,461.4-79.1,460.2z"/>
	<path id="XMLID_399_" class="st0" d="M-103.8,410.2c0.1-1.6-1.3-1.3-2.4-1.5c-3.8-0.5-4.8-1.5-4.9-5.4c-0.1-2.1,0-4.3,0-6.4
		c0-1.9-0.5-4.2,0.3-5.6c0.8-1.3,3.2-0.3,4.8-0.5c1-0.1,1.7-0.4,1.8-1.4c0.1-1.2-0.7-1.7-1.8-1.8c-0.3,0-0.7-0.1-1,0
		c-3.9,0.8-4.9-1.1-4.3-4.5c0.1-0.5,0-1.1-0.1-1.6c-0.2-0.9-0.9-1.1-1.7-1.1c-0.8,0-1.5,0.3-1.7,1.2c-0.1,0.7-0.1,1.5-0.1,2.2
		c0,2.1,0.5,4.5-3.1,3.8c-1.1-0.2-1.8,0.6-1.8,1.7s0.8,1.6,1.7,1.4c3.5-0.7,3.2,1.5,3.1,3.7c0,1.3,0,2.6,0,3.9c0,1.6,0,3.2,0,4.8
		c0.1,5.8,2.5,8.2,8.2,8.4C-105.3,411.6-103.9,411.9-103.8,410.2z"/>
	<path id="XMLID_400_" class="st0" d="M-71.7,515.9c-3.4-0.1-4.8-2-4.8-5.2c0-2.8,0-5.6,0-8.4c0-4.3,0-4.3,4.4-4.4
		c1.2,0,2.6,0.3,2.6-1.5c0-1.9-1.5-1.7-2.8-1.7c-0.5,0-1.1-0.1-1.6,0c-2.2,0.4-2.7-0.6-2.7-2.7c0-1.6,1.2-4.3-1.6-4.4
		c-3.2-0.1-1.7,2.8-1.9,4.4c-0.1,1.7-0.1,3-2.4,2.6c-1.2-0.2-2.5-0.1-2.6,1.6c-0.1,1.8,1.4,1.7,2.5,1.6c2.1-0.3,2.5,0.7,2.4,2.6
		c-0.1,3.3-0.1,6.7,0,10c0.1,5.7,2.4,8,8.6,8.3c0.5,0,2,0.5,2.2-1.2C-69,515.7-70.6,515.9-71.7,515.9z"/>
	<path id="XMLID_401_" class="st0" d="M-40,337.2c2.1-0.3,2.5,0.6,2.5,2.5c-0.1,3.4-0.1,6.9,0,10.3c0.1,5.4,2.5,7.7,8.5,8
		c0.6,0,2.1,0.5,2.3-1.1c0.3-1.8-1.3-1.7-2.4-1.7c-3.4-0.1-4.8-2-4.8-5.1c0-3.4,0.1-6.9-0.1-10.3c-0.1-2.3,0.8-2.6,2.8-2.6
		c1.5,0,4.1,1.2,4.2-1.4c0.1-2.9-2.7-1.7-4.3-1.7c-2.1,0-2.7-0.6-2.7-2.7c0-1.6,1.4-4.5-1.8-4.4c-2.8,0.1-1.6,2.8-1.6,4.4
		c0,2-0.4,3-2.7,2.7c-1.1-0.2-2.3,0.1-2.3,1.5C-42.5,337.3-41.1,337.3-40,337.2z"/>
	<path id="XMLID_402_" class="st0" d="M96.7,462.3c-3.4-0.1-4.8-2-4.8-5.2c0-3,0.2-6-0.1-9c-0.3-3.1,0.6-4.3,3.8-3.8
		c1.2,0.2,3.2,0.7,3.3-1.4c0.1-2.1-1.8-1.9-3.1-1.7c-3.3,0.5-4.4-0.8-3.9-4c0.2-1.2,0.6-3.1-1.6-3.2c-2.4-0.1-2,1.8-1.9,3.2
		c0.1,2.4,0.3,4.6-3.3,4c-0.9-0.2-1.6,0.5-1.7,1.5c0,1.1,0.6,1.7,1.6,1.6c3.8-0.7,3.4,1.8,3.4,4.2c0,1.2,0,2.4,0,3.5
		c0,1.6,0,3.2,0,4.8c0.1,5.7,2.6,8.1,8.3,8.3c1.1,0,2.4,0.3,2.6-1.2C99.3,462.2,97.8,462.3,96.7,462.3z"/>
	<path id="XMLID_403_" class="st0" d="M-187.6,301.7c0,1.4,0.1,2.7,2,2.7c1.9,0,1.8-1.5,1.8-2.8c0-9.7,0-19.3,0-29
		c0-1.4,0-3.1-1.9-3.1c-1.9,0-1.8,1.7-1.8,3.1c0,4.8,0,9.7,0,14.5C-187.6,292.1-187.6,296.9-187.6,301.7z"/>
	<path id="XMLID_404_" class="st0" d="M-117.1,500.7c0-3,0-9.5,0-14.5c0-1.4-0.2-2.6-1.9-2.6c-1.7,0-1.9,1.5-1.9,2.9
		c0,9.8,0,19.6,0,29.4c0,1.3,0,2.7,1.9,2.7s1.9-1.8,1.9-3.1C-117,510.7-117,505.7-117.1,500.7C-117,500.7-117,500.7-117.1,500.7z"/>
	<path id="XMLID_405_" class="st0" d="M103.9,333.8c-2.9,0.1-5,1.7-6.8,3.8c-0.1-0.5-0.2-0.7-0.3-0.9c-0.1-1.4,0.2-3.2-1.7-3.3
		c-2.1-0.1-1.9,1.8-1.9,3.4c0,5.9,0,11.8,0,17.7c0,1.4-0.6,3.3,1.8,3.4c2.5,0.1,1.8-1.9,1.9-3.3c0.1-2.8,0-5.6,0-8.4
		c0-6.6,1-7.8,7.6-9.2c1.1-0.2,2.3-0.5,2.1-1.9C106.4,333.5,105.1,333.8,103.9,333.8z"/>
	<path id="XMLID_406_" class="st0" d="M100.6,387.3c-2.9,0.1-5.2,1.5-7.4,4.2c0-1-0.1-1.4-0.1-1.8c0-1.4-0.1-2.9-1.8-2.8
		c-1.6,0.1-1.7,1.6-1.7,3c0,6.2,0,12.5,0,18.7c0,1.3-0.2,2.8,1.7,2.8c2.2,0.1,1.9-1.6,1.9-3c0-2.5,0-4.9,0-7.4c0-8,0.3-8.5,7.9-10.5
		c1-0.3,1.9-0.6,1.8-1.9C102.9,387.2,101.7,387.3,100.6,387.3z"/>
	<path id="XMLID_505_" class="st0" d="M59.9,302.2c0,1.4,0.3,2.3,2,2.3c1.5-0.1,1.6-1.1,1.6-2.3c0-2.8,0-5.6,0-8.4
		c0-7.7,0.5-8.4,7.9-10.3c1.1-0.3,2.1-0.7,1.8-2.1c-0.2-1.3-1.3-1.2-2.3-1.2c-2.9,0.1-5.3,1.4-7.4,4.2c-0.1-1-0.1-1.3-0.1-1.7
		c0-1.4-0.1-2.9-1.8-2.8c-1.7,0.1-1.7,1.6-1.7,2.9C59.9,289.3,59.9,295.7,59.9,302.2z"/>
	<path id="XMLID_506_" class="st0" d="M-152.8,387c-1.7-0.1-1.9,1.3-1.9,2.7c0,6.3,0,12.7,0,19c0,1.3-0.1,2.8,1.8,2.8
		c2.2,0,1.9-1.6,1.9-3c0-3,0-6,0-9c0-3.2,0-6.4,0-9.7C-151,388.5-151.1,387-152.8,387z"/>
	<path id="XMLID_507_" class="st0" d="M-63.2,494.1c-1.5,0-1.8,1.2-1.8,2.5c0,6.6,0,13.1,0,19.7c0,1.3,0.2,2.4,1.9,2.4
		s1.8-1.1,1.8-2.4c0-3.2,0-6.4,0-9.7s0-6.7,0-10C-61.3,495.2-61.7,494.1-63.2,494.1z"/>
	<path id="XMLID_508_" class="st0" d="M80,387c-1.5,0.1-1.8,1.3-1.7,2.6c0,3.1,0,6.2,0,9.4c0,3.3,0,6.7,0,10c0,1.4,0.1,2.7,2,2.6
		c1.7,0,1.7-1.3,1.7-2.5c0-6.4,0-12.9,0-19.3C82,388.3,81.8,386.9,80,387z"/>
	<path id="XMLID_509_" class="st0" d="M27.7,507.4c0,0.9,0,2,1.1,1.9c1.1,0,1.1-1.1,1.1-2c0.4-6.9,0.7-13.7,1.1-20.6
		c0.1-1.6-0.3-2.9-2.1-3c-2-0.1-2.4,1.4-2.4,3.1c0.2,3.3,0.4,6.6,0.5,10l0,0C27.3,500.3,27.5,503.9,27.7,507.4z"/>
	<path id="XMLID_510_" class="st0" d="M163.8,335.5c0.1,0.8,0.3,1.6,1.2,1.6c0.7,0,1.1-0.6,1.1-1.3c0.3-3.5,0.6-7,0.9-10.6
		c0.1-1.2-0.7-2.1-1.9-2.2c-1.4-0.1-2.2,0.8-2.2,2.2c0,1.3,0.2,2.6,0.4,4.7C163.4,331.3,163.6,333.4,163.8,335.5z"/>
	<path id="XMLID_511_" class="st0" d="M213.8,406.4c-1-0.4-1.9,0.2-2.5,1c-0.7,1.1-1,2.6,0,3.2c2.3,1.4,1.6,2.8,0.4,4.4
		c-0.6,0.7-0.6,1.4,0.1,1.9c0.9,0.6,1.4-0.2,1.8-0.7c1.5-1.7,2.1-3.7,2.1-5.7C215.8,408.7,215.6,407.1,213.8,406.4z"/>
	<path id="XMLID_512_" class="st0" d="M29,513.3c-1.7-0.1-2.6,0.8-2.6,2.5c-0.1,1.6,0.5,2.7,2.3,2.8s2.5-0.9,2.7-2.7
		C31.2,514.7,30.8,513.3,29,513.3z"/>
	<path id="XMLID_513_" class="st0" d="M-152.7,376.6c-1.6,0-2.6,1-2.6,2.6c0,1.5,0.9,2.4,2.4,2.5c1.6,0,2.5-1,2.6-2.6
		C-150.5,377.6-151.3,376.6-152.7,376.6z"/>
	<path id="XMLID_514_" class="st0" d="M202.4,406.2c-1.7-0.1-2.5,0.9-2.6,2.6c-0.1,1.6,0.6,2.7,2.4,2.8c1.8,0.1,2.5-0.9,2.6-2.5
		C204.7,407.4,204.1,406.2,202.4,406.2z"/>
	<path id="XMLID_515_" class="st0" d="M-63,483.7c-1.6-0.1-2.6,1-2.6,2.6s1,2.6,2.6,2.5c1.5-0.1,2.2-1.1,2.3-2.7
		C-60.8,484.8-61.5,483.8-63,483.7z"/>
	<path id="XMLID_516_" class="st0" d="M80.1,376.6c-1.5,0-2.4,1-2.4,2.4c0,1.6,0.9,2.6,2.5,2.6c1.5,0,2.3-0.9,2.4-2.5
		C82.6,377.6,81.8,376.6,80.1,376.6z"/>
	<path id="XMLID_517_" class="st0" d="M7,432.6c-0.1,1.7,0.9,2.6,2.5,2.7c1.4,0,2.3-0.9,2.5-2.4c0-1.6-0.9-2.6-2.5-2.7
		C8,430.2,7.1,431.1,7,432.6z"/>
</g>
<path id="XMLID_10_" class="st1" d="M-189.7,360.5c-1,0-2-0.6-2.4-1.7c-0.5-1.3,0.2-2.8,1.5-3.3l104.9-39.1c1.3-0.5,2.8,0.2,3.3,1.5
	s-0.2,2.8-1.5,3.3l-104.9,39.1C-189.1,360.4-189.4,360.5-189.7,360.5z"/>
<path id="XMLID_13_" class="st1" d="M-66.5,360.5c-1,0-1.9-0.6-2.4-1.5c-0.6-1.3,0-2.8,1.3-3.4l87.2-39.1c1.3-0.6,2.8,0,3.4,1.3
	c0.6,1.3,0,2.8-1.3,3.4l-87.2,39.1C-65.7,360.4-66.1,360.5-66.5,360.5z"/>
<path id="XMLID_21_" class="st2" d="M297,400.9c-42.6,0-77,34.5-77,77.1v95.7h154V478C374,435.4,339.6,400.9,297,400.9z"/>
<circle id="XMLID_20_" class="st3" cx="297.3" cy="478" r="70.5"/>
<path id="XMLID_44_" class="st4" d="M281.5,561.2"/>
<path id="XMLID_50_" class="st2" d="M352.6,456.9l-110.7,0.3l-0.3-0.3c0-27.3,24.8-49.4,55.5-49.4S352.6,429.7,352.6,456.9
	L352.6,456.9z"/>
<circle id="XMLID_57_" class="st5" cx="268.5" cy="480.1" r="19.1"/>
<path id="XMLID_18_" class="st5" d="M246.4,480.1c-13.2-13.7-20.2-11.3-20.2-11.3"/>
<path id="XMLID_16_" class="st5" d="M297.3,471.4c-7.1,0-9.7,6.7-9.7,6.7"/>
<circle id="XMLID_14_" class="st5" cx="326" cy="480.1" r="19.1"/>
<path id="XMLID_9_" class="st5" d="M345.1,480.1c13.2-13.7,20.2-11.3,20.2-11.3"/>
<path id="XMLID_6_" class="st5" d="M297.3,471.4c7.1,0,9.7,6.7,9.7,6.7"/>
<path id="XMLID_5_" class="st2" d="M312.4,521.7c0,9-7.1,16.6-15.8,16.6c-8.7,0-15.8-7.6-15.8-16.6H312.4z"/>
<circle id="XMLID_22_" class="st3" cx="-95.7" cy="102" r="70.5"/>
<path id="XMLID_48_" class="st6" d="M-26,112.4c-1-1.3-2.4,1.4-4.2,0.1c-1.5,1.2-3.4-0.7-5.4,1.7c-0.5,0.6-1.3,0.9-2.1,0.7
	c-2.1-0.5-4.5,2.1-7,5.1c-0.1,0.2-0.3,0.4-0.3,0.6c-2.8,6.4-5.8,6-9,5.4c-0.6-0.1-1.3,0-1.8,0.4c-3.2,2.4-6.5,5.6-10,4.9
	c-0.5-0.1-1.1,0-1.6,0.2c-3.7,1.9-7.6,2.1-11.7,3.3c-0.3,0.1-0.6,0.2-0.8,0.4c-4.4,3.4-9-1.4-13.7,1.2c-4.8,2-9.5-0.1-14-1.5
	c-0.1,0-0.2-0.1-0.4-0.1c-4.5-0.7-8.9-0.5-13-3.9c-4-2.7-7.8-1.1-11.4-4.7c-0.4-0.3-0.8-0.6-1.3-0.6c-3-0.2-5.8-2-8.4-4.3
	c-0.7-0.6-1.6-0.7-2.4-0.3c-2.8,1.4-5.3-2.6-7.6-5.6c-2.4-3.6-4.4-3.7-6.2-3.1c-0.4,0.1-0.7,0.1-1.1,0c-1.6-0.3-2.9-0.2-3.8,0
	c-1.2,0.3-1.9,3.8-1.9,4.8c0,3.1,0.1,3.6,0.2,7.1c0.2,3.6,0.4,6.9,0.7,6.5c0.3,1,0.7-0.6,1.1,4c0.4,5.2,1,5.3,1.5,8.3
	c0,0.1,0,0.1,0,0.2c0.6,5.3,1.2,3.8,2,7.8c0.7,6.8,1.5,1.8,2.4,3.1c0.8,2.1,1.7,2.6,2.6,6.3c0.1,0.2,0.1,0.5,0.3,0.7
	c0.9,1.3,1.9,5.2,2.9,2.7c1.1,1.4,2.2-1,3.4,3.7c1.1,1.8,2.3-1.2,3.5,3.7c0.1,0.4,0.3,0.9,0.6,1.2c1.2,1.1,2.4,4.6,3.6,2.8
	c1,2.4,2.1,1.9,3.2,2.6c0.6,0.4,1.3,0.3,2,0.2c1.1-0.3,2.3,2.3,3.5,4c0.1,0.2,0.2,0.3,0.3,0.5c1.3,3.6,2.7,1.1,4.1,1.5
	c0.4,0.1,0.8,0,1-0.2c1.5-1.4,3.1,3.6,4.6,2.3c1.7-0.5,3.3-1.8,5.1,1.7c0.1,0.3,0.3,0.5,0.5,0.7c1.3,1.2,2.6,2.1,3.9,1.6
	c0.7-0.3,1.8,0,2.4,0.5c1.2,1.2,2.5,1.1,3.7,0.3c0.4-0.2,0.9-0.3,1.4-0.3c1.7,0.1,3.3-1.6,5-0.8c1.9,1.2,3.9-0.5,5.9,1.5
	c2,0.8,3.9,3.2,5.9,0.7c1.6-0.7,3.3-2.9,4.9-2.2c0.6,0.3,1.2,0.4,1.8,0.1c1.3-0.6,2.6-0.4,3.9-0.4c0.3,0,0.7,0.1,0.9,0.2
	c1.7,1,3.4-1.1,5-1.6c1.6-0.6,3.2-1.9,4.7-1.8c0.4,0,0.8-0.1,1.1-0.3c1.2-0.7,2.4-2,3.6-1.9c0.5,0,1,0,1.4-0.3
	c0.9-0.5,1.8-1.2,2.7-1.8c0.6-0.4,1.2-0.3,1.9-0.1c1.2,0.5,2.4-1.4,3.5-2.8c0.1-0.2,0.3-0.4,0.3-0.6c1.1-2.7,2.2-3.7,3.3-4.3
	c0.5-0.3,0.8-0.7,1-1.2c1.2-3.6,2.4-0.7,3.6-0.9c1.1,1.5,2.2-2.3,3.2-4.3c0.2-0.3,0.4-0.6,0.6-0.8c1-0.8,2-2.6,3-3.1s2-2.4,2.9-5.1
	c0.8,1.5,1.5-3.7,2.2-4.6c0.3-0.3,0.4-0.8,0.4-1.2c0.8-10.3,1.5-2.9,2.1-6.7c0.6,4.8,1.2-1.9,1.7-3c0.1-0.2,0.2-0.5,0.2-0.8
	c0.5-4.5,1-2.7,1.4-5.2c0.4-2.7,0.8-3.1,1.1-6.6c0.3-6.7,0.5-3,0.7-7.1c0.1,0.9,0.2-2.4,0.2-6.7C-24.2,112.6-24.8,111.8-26,112.4z
	 M-85.5,154.7c-3.5,0-9.5,0-13.2,0c-2.3,0-4.5-0.6-6.5-1.8c-9-5.3-3.6-8.6,5.6-7.4c1.2,0.1,2.3,0.2,3.5,0.2h7.9c1,0,2,0,2.9-0.1
	c9.5-1.1,14.6,2.5,5.6,7.6C-81.4,154.2-83.4,154.7-85.5,154.7z"/>
</svg>
