<?xml version="1.0" encoding="utf-8"?>
<!-- Generator: Adobe Illustrator 19.0.0, SVG Export Plug-In . SVG Version: 6.00 Build 0)  -->
<svg version="1.1" id="hat" xmlns="http://www.w3.org/2000/svg" xmlns:xlink="http://www.w3.org/1999/xlink" x="0px" y="0px"
	 viewBox="-583.3 28.2 566.3 542.2" style="enable-background:new -583.3 28.2 566.3 542.2;" xml:space="preserve">
<style type="text/css">
	.st0{fill:#F2E482;}
	.st1{fill:#FF0000;}
	.st2{fill:#DA4DEF;}
	.st3{fill:#5858A3;}
	.st4{fill:#999999;}
	.st5{fill:none;stroke:#DA4DEF;stroke-width:3;stroke-miterlimit:10;}
	.st6{fill:#D1903B;}
</style>
<g id="XMLID_1_">
	<g id="XMLID_7_">
		<path id="XMLID_39_" class="st0" d="M-364.9,133.8c0.8,0.1,1.7,0.1,1.8,1.2c0.1,1.1-0.5,1.6-1.5,1.7c-0.4,0-0.7,0.1-1.1,0.1
			c-3.8,0.3-5.5,2.5-5.1,6.3c0.1,0.7,0.4,0.8,1,0.8c1.3,0,2.7,0,4,0c1.1,0,1.8,0.5,1.8,1.6s-0.8,1.4-1.8,1.4c-1.2,0-2.5,0.1-3.7,0
			c-1-0.1-1.3,0.3-1.3,1.3c0,5.3,0,10.5,0,15.8c0,0.6,0.1,1.1-0.2,1.6c-0.4,0.7-1.1,1.1-2,0.9c-1-0.2-1.4-0.9-1.4-1.9
			c0-3.8,0-7.7,0-11.5c0-0.9,0-1.7,0-2.6c0-1.1,0.3-2.5-0.2-3.3s-2-0.2-3-0.3c-0.9-0.1-1.5-0.5-1.5-1.4c-0.1-1,0.5-1.5,1.4-1.6
			c0,0,0.1,0,0.2,0c1-0.1,2.3,0.4,2.9-0.2c0.5-0.6,0.2-1.8,0.4-2.8c0.6-3.9,3.2-6.4,7.1-6.8C-366.4,134-365.7,133.9-364.9,133.8z"/>
		<path id="XMLID_34_" class="st0" d="M-371.5,48.6c0,4.3,0,8.6,0,12.9c0,0.3,0,0.5,0,0.8c0,1.9-0.6,2.8-1.9,2.8
			c-1.2,0-1.8-0.9-1.8-2.8c0-2,0-4.1,0-6.1c0-6.9,0-13.9,0-20.8c0-0.5,0-0.9,0-1.4c0-1.1,0.6-1.9,1.8-1.9c1.2,0,1.9,0.7,1.9,2
			c0,2.3,0,4.6,0,6.9C-371.5,43.4-371.5,46-371.5,48.6z"/>
		<path id="XMLID_33_" class="st0" d="M-348.5,48.4c0,4.7,0,9.5,0,14.2c0,1.6-0.6,2.4-1.8,2.3c-1.4-0.1-1.9-1-1.9-2.3
			c0-9.5,0-18.9,0-28.4c0-1.3,0.4-2.2,1.8-2.3c1.2-0.1,1.8,0.8,1.8,2.4C-348.5,39.1-348.5,43.8-348.5,48.4z"/>
		<path id="XMLID_27_" class="st0" d="M-357.1,147.6c2-2.6,4.6-3.8,7.7-3.7c1,0,1.6,0.3,1.6,1.4c0,1-0.5,1.6-1.5,1.8
			c-0.7,0.1-1.4,0.2-2.1,0.3c-3.5,0.5-5.5,2.6-5.6,6.1c-0.1,3.7,0,7.4-0.1,11.2c0,1.6-1.3,2.5-2.6,1.8c-0.7-0.3-0.9-0.9-0.9-1.6
			c0-6.4,0-12.8,0-19.3c0-1.2,0.7-1.8,1.8-1.8s1.6,0.7,1.7,1.8C-357,146.2-357.1,146.9-357.1,147.6z"/>
		<g id="XMLID_3_">
			<path id="XMLID_4_" class="st0" d="M-342.9,115.8c1.4,0,1.9-1,2.3-2.1c2.1-5.9,4.1-11.7,6.2-17.6c1.3-3.6,2.6-7.2,3.8-10.8
				c0.4-1.1,0.2-2-1-2.4c-1.1-0.4-1.8,0.2-2.2,1.2c-0.1,0.2-0.1,0.4-0.2,0.6c-2.7,7.9-5.5,15.8-8.2,23.7c-0.2,0.5-0.4,1-0.7,1.9
				c-1.7-4.8-3.2-9.3-4.7-13.7c-1.4-4.1-2.9-8.2-4.3-12.3c-0.3-0.9-0.8-1.6-1.8-1.6s-1.6,0.6-1.9,1.5c-0.1,0.3-0.2,0.6-0.3,0.9
				c-2.7,7.7-5.5,15.5-8.2,23.2c-0.2,0.5-0.2,1.1-0.8,1.5c-0.2-0.6-0.5-1.2-0.7-1.9c-2.7-7.9-5.5-15.8-8.2-23.7
				c-0.4-1.2-1.1-1.9-2.4-1.4c-1.2,0.4-1.4,1.3-1,2.5c3.4,9.6,6.8,19.2,10.2,28.8c0.3,1,1,1.6,2,1.6s1.7-0.6,2-1.6
				c0.6-1.6,1.2-3.3,1.7-4.9c2.4-6.7,4.8-13.3,7.2-20.1c0.6,0.5,0.6,1,0.8,1.5c2.7,7.6,5.4,15.3,8.1,22.9
				C-344.7,114.7-344.3,115.7-342.9,115.8z"/>
			<path id="XMLID_59_" class="st0" d="M-287.4,149.6c-0.6-4.4-4.2-6.7-8.6-5.8c-2.6,0.5-4.5,1.9-5.9,4.2c-2.3-5.3-9.9-6-13.8-0.5
				c0-0.6,0-1.1,0-1.5c0-1.2-0.3-2.3-1.8-2.3c-1.4,0-1.8,1-1.8,2.3c0,6.1,0,12.2,0,18.4c0,1.5,0.7,2.3,1.9,2.2
				c1.4-0.1,1.7-1,1.7-2.2c0-3.4,0-6.8,0-10.2c0-1.5,0.1-2.9,0.8-4.3c1.2-2.4,3.9-3.6,6.6-3c2.2,0.5,3.2,2.1,3.3,5
				c0,0.5,0,0.9,0,1.4c0,3.5,0,7,0,10.6c0,2,0.5,2.8,1.8,2.8c1.3,0,1.8-0.8,1.8-2.7c0-3.3,0-6.6,0-9.9c0-1.5,0.2-3.1,1-4.4
				c1.3-2.2,3.9-3.3,6.5-2.7c2.1,0.5,3.2,2.1,3.2,4.9c0.1,2.3,0,4.6,0,6.9c0,2,0,4.1,0,6.1c0,1.2,0.7,1.8,1.8,1.8
				c1,0,1.8-0.5,1.7-1.5C-287.2,159.9-286.7,154.7-287.4,149.6z"/>
			<path id="XMLID_60_" class="st0" d="M-128.7,62.8c0-3.3,0-6.6,0-9.9c0-1.2,0-2.4,0.5-3.6c1.1-3,4.1-4.6,7.5-4.1
				c2.6,0.4,3.8,2,4,5.5c0,0.7,0,1.4,0,2.1c0,3.5,0,6.9,0,10.4c0,1.1,0.6,1.7,1.6,1.8s1.9-0.4,1.9-1.5c0.1-5.1,0.4-10.2-0.2-15.3
				c-0.4-3.4-2.4-5.3-5.7-5.9c-3.8-0.7-7,0.4-9.4,3.7c-0.4-0.5-0.2-1-0.2-1.5c0-3.4,0-6.8,0-10.2c0-1.2-0.4-2.2-1.7-2.2
				s-1.9,0.8-1.9,2.1c0,9.6,0,19.2,0,28.8c0,1.3,0.5,2.1,1.8,2.1C-129.1,65-128.7,64.1-128.7,62.8z"/>
			<path id="XMLID_61_" class="st0" d="M-118,93.1c-3.9-0.8-7.1,0.3-9.8,4c0-4.3,0-8.2,0-12.1c0-1.2-0.4-2.2-1.7-2.2
				c-1.3,0-1.9,0.8-1.9,2.1c0,9.6,0,19.2,0,28.8c0,1.3,0.5,2.1,1.8,2.1c1.4,0,1.8-0.9,1.8-2.2c0-3.3,0-6.6,0-9.9
				c0-1.3,0-2.6,0.5-3.8c1.1-2.9,4.1-4.5,7.5-4c2.6,0.4,3.8,1.9,4,5.5c0,0.5,0,1,0,1.5c0,3.7,0,7.3,0,11c0,1.2,0.7,1.8,1.8,1.8
				c1.1,0,1.8-0.6,1.8-1.7c0-4.9,0.3-9.9-0.2-14.8C-112.8,95.8-114.8,93.7-118,93.1z"/>
			<path id="XMLID_62_" class="st0" d="M-313.5,95.9c2.6,0.4,3.8,1.9,4,5.4c0,0.6,0,1.1,0,1.7c0,3.6,0,7.2,0,10.9
				c0,1.2,0.6,1.9,1.7,1.9c1,0,1.8-0.5,1.8-1.6c0.1-5,0.4-10-0.2-15c-0.4-3.5-2.4-5.5-5.7-6.1c-3.8-0.7-7,0.3-9.7,4
				c0-4.3,0-8.1,0-12c0-1.2-0.3-2.1-1.7-2.3c-1.2-0.1-1.9,0.7-1.9,2.2c0,9.5,0,19.1,0,28.6c0,1.5,0.7,2.3,1.9,2.2
				c1.4-0.1,1.7-1,1.7-2.3c0-3.3,0-6.5,0-9.8c0-1.3,0-2.5,0.5-3.8C-319.9,97.1-317,95.5-313.5,95.9z"/>
			<path id="XMLID_65_" class="st0" d="M-103.1,64.1c3.8,1.8,7.4,1,10.6-2.5c0.3,0.6,0.1,1.2,0.2,1.8c0.2,1.1,0.8,1.7,1.9,1.6
				c1,0,1.6-0.6,1.6-1.7c0-4.7,0.1-9.5-0.1-14.2c-0.2-4.1-2.4-6.3-6.5-6.9c-3.6-0.5-7,0.3-10,2.3c-0.9,0.6-1.3,1.5-0.7,2.5
				c0.6,1,1.4,0.5,2.1,0.1c1.6-0.9,3.3-1.5,5.1-1.9c4.4-0.8,6.5,0.9,6.6,5.2c0,1.3-0.4,1.4-1.5,1.5c-3.2,0-6.4,0-9.5,1.2
				c-2.8,1-4,3.1-3.6,6C-106.6,61.4-105.2,63.1-103.1,64.1z M-103.3,57.8c0.1-1.7,0.9-2.5,3-3.1c0.3-0.1,0.6,0.4,0.9,0.4
				c1.4-0.2,2.7,0.3,3.9,0.3c0.5,0,0.7,0,0.9,0c2.6,0,2.6-0.6,2.2,2c-0.5,3.9-4.5,6.1-8.1,4.8C-102.3,61.6-103.4,59.7-103.3,57.8z"
				/>
			<path id="XMLID_68_" class="st0" d="M-212.3,93c-3.6-0.5-7,0.3-10.1,2.3c-0.9,0.6-1.3,1.5-0.7,2.5c0.6,1,1.4,0.5,2.1,0.1
				c1.6-0.9,3.3-1.5,5.1-1.9c4.4-0.8,6.6,1,6.6,5.3c0,1.1-0.3,1.3-1.4,1.3c-3.3,0-6.5,0-9.6,1.1c-2.8,1-4,3-3.7,5.9
				c0.3,2.4,1.6,4,3.7,5.1c3.8,1.9,7.7,1,10.9-2.7c0,0.9,0,1.4,0,2c0.1,1.1,0.8,1.7,1.8,1.7s1.6-0.6,1.6-1.7c0-4.8,0.1-9.6-0.1-14.4
				C-206.1,95.7-208.2,93.6-212.3,93z M-215.5,113c-2.6,0-4.4-1.4-4.7-3.6c-0.2-1.9,0.5-3.1,2.3-3.6c2.6-0.8,5.3-0.7,8-0.7
				c0.4,0,0.6,0.2,0.6,0.6C-208.6,109.5-211.5,113-215.5,113z"/>
			<path id="XMLID_71_" class="st0" d="M-255.8,104.8c2.2,0.1,4.5,0,6.7,0s4.5,0,6.7,0c1.3,0,1.8-0.6,1.8-1.9
				c0.2-7.2-5.9-11.8-12.8-9.5c-7.1,2.3-9.8,12.9-4.7,18.7c3.2,3.7,7.5,4.2,12,3.2c1.7-0.4,3.3-1,4.6-2.2c0.7-0.7,0.9-1.5,0.3-2.3
				c-0.6-0.9-1.4-0.3-2,0c-1.1,0.5-2.1,1.1-3.2,1.5c-5.4,2-10-0.9-10.6-6.3C-256.9,105-256.7,104.7-255.8,104.8z M-256.7,101.6
				c0.3-3.2,3.1-5.7,6.5-5.7c3.8,0,6.1,1.8,6.5,5.4c0.1,0.8,0,1.1-0.9,1c-1.9-0.1-3.8,0-5.6,0c-1.9,0-3.8,0-5.6,0
				C-256.4,102.3-256.7,102.3-256.7,101.6z"/>
			<path id="XMLID_74_" class="st0" d="M-102,104.8c2.2,0.1,4.5,0,6.7,0s4.5,0,6.7,0c1.4,0,1.9-0.6,1.9-1.9c0.1-7.2-6-11.7-12.8-9.4
				c-6.9,2.3-9.7,12.6-4.8,18.5c3.2,3.9,7.5,4.4,12.1,3.4c1.7-0.4,3.4-1,4.7-2.3c0.7-0.6,0.8-1.4,0.3-2.2c-0.6-0.9-1.3-0.5-2-0.1
				c-1,0.5-2.1,1.1-3.2,1.5c-5.4,2-10.2-0.9-10.6-6.4C-103,105-102.9,104.7-102,104.8z M-102.8,101.6c0.3-3.1,3-5.6,6.2-5.7
				c3.8-0.1,6.1,1.6,6.7,5c0.2,1,0.1,1.6-1.2,1.5c-1.7-0.1-3.5,0-5.2,0c-1.9,0-3.8,0-5.6,0C-102.5,102.3-102.9,102.4-102.8,101.6z"
				/>
			<path id="XMLID_77_" class="st0" d="M-179.6,104.7c2.2,0.1,4.5,0,6.7,0s4.4,0,6.6,0c1.4,0,1.9-0.6,1.9-1.9
				c0.1-7.2-5.9-11.7-12.8-9.5c-7,2.3-9.6,12.5-4.8,18.6c3.9,4.9,11.9,4.8,16.5,1.4c0.2-0.2,0.5-0.4,0.6-0.7c0.5-0.7,0.5-1.4,0-2
				c-0.5-0.7-1.2-0.4-1.8-0.1c-1.1,0.5-2.2,1.2-3.3,1.6c-5.3,2-10-0.7-10.6-6.2C-180.8,105.1-180.7,104.7-179.6,104.7z
				 M-180.6,101.6c0.2-3.1,3-5.6,6.3-5.7c3.9-0.1,6.2,1.8,6.6,5.2c0.1,0.9,0,1.3-1,1.2c-1.8-0.1-3.7,0-5.5,0c-1.9,0-3.8,0-5.6,0
				C-180.3,102.3-180.6,102.3-180.6,101.6z"/>
			<path id="XMLID_80_" class="st0" d="M-279.8,64.5c1.7-0.4,3.4-1,4.7-2.3c0.7-0.6,0.8-1.4,0.3-2.2c-0.6-0.9-1.3-0.5-2-0.1
				c-1,0.5-2.1,1.1-3.2,1.5c-5.4,2-10.2-0.9-10.6-6.4c-0.1-0.8,0.1-1.1,0.9-1c2.2,0.1,4.5,0,6.7,0c2.2,0,4.5,0,6.7,0
				c1.4,0,1.9-0.6,1.9-1.9c0.1-7.2-6-11.7-12.8-9.4c-6.9,2.3-9.6,12.6-4.8,18.5C-288.7,65-284.4,65.5-279.8,64.5z M-290.4,50.8
				c0.1-2.9,2.9-5.5,6-5.7c3.9-0.2,6.3,1.5,6.9,4.9c0.2,1.1,0.1,1.7-1.3,1.6c-1.7-0.1-3.5,0-5.2,0c-1.9,0-3.8,0-5.6,0
				C-290.1,51.5-290.5,51.6-290.4,50.8z"/>
			<path id="XMLID_83_" class="st0" d="M-281,110.7c-0.6-0.8-1.3-0.4-1.9-0.1c-1.1,0.5-2.2,1.2-3.3,1.6c-5.3,2-9.9-0.8-10.6-6.4
				c-0.1-0.9,0.1-1.1,1-1.1c2.2,0.1,4.5,0,6.7,0c2.2,0,4.5,0,6.7,0c1.3,0,1.8-0.6,1.8-1.9c0.2-7.2-5.8-11.7-12.6-9.6
				c-7.1,2.2-9.9,12.5-5,18.6c3.2,4,7.5,4.5,12.2,3.4c1.7-0.4,3.4-1,4.7-2.3C-280.5,112.3-280.4,111.5-281,110.7z M-296.6,101.6
				c0.3-3,2.9-5.5,6-5.7c3.9-0.2,6.3,1.5,6.9,5c0.2,1,0.2,1.6-1.2,1.5c-1.7-0.1-3.5,0-5.2,0c-1.9,0-3.8,0-5.6,0
				C-296.2,102.3-296.7,102.4-296.6,101.6z"/>
			<path id="XMLID_86_" class="st0" d="M-338.9,144.1c-4.6,1.4-7.3,5.4-7.2,11.1c0,0.5,0,1.2,0.1,1.8c0.7,5.7,4.7,9.4,10.3,9.5
				c5.7,0.1,9.7-3.5,10.6-9.2c0.2-1.6,0.2-3.2,0-4.7C-326.3,145.9-332.3,142.1-338.9,144.1z M-329,158.3c-0.8,3.5-3.1,5.3-6.7,5.3
				c-3.4,0-5.7-1.9-6.5-5.3c-0.5-2.4-0.5-4.8,0.3-7.1c1-3,3.2-4.4,6.4-4.4c3.1,0,5.2,1.5,6.2,4.5c0.4,1.3,0.6,2.6,0.5,3.9
				C-328.7,156.1-328.8,157.2-329,158.3z"/>
			<path id="XMLID_89_" class="st0" d="M-332.3,65c5.5,0.1,9.4-3.2,10.5-8.6c0.4-1.9,0.4-3.8,0-5.6c-1.2-6.6-7.2-10.2-13.6-8.3
				c-4.6,1.4-7.3,5.4-7.3,11c0.1,0.9,0.1,1.8,0.3,2.7C-341.5,61.6-337.6,64.9-332.3,65z M-338.6,49.9c0.9-3.2,3.1-4.8,6.4-4.8
				s5.5,1.6,6.4,4.8c0.3,1.1,0.5,2.3,0.4,3.5c0,1.1,0,2.2-0.3,3.3c-0.9,3.5-3.1,5.3-6.9,5.2c-3.3,0-5.6-2-6.3-5.4
				C-339.2,54.3-339.2,52.1-338.6,49.9z"/>
			<path id="XMLID_92_" class="st0" d="M-214.1,57c2.1-9.7-4-16.4-12.7-14.7c-4.9,1-8,5.3-8,11.5c0.1,3.3,1,6.6,4,9
				C-226,66.7-216,65.8-214.1,57z M-217.9,57.2c-0.9,3.2-3.1,4.8-6.4,4.8s-5.5-1.6-6.4-4.8c-0.3-1.2-0.4-2.4-0.5-3.6
				c0.1-1.1,0.1-2.1,0.4-3.2c0.9-3.5,3.1-5.2,6.6-5.2c3.4,0,5.7,1.8,6.5,5.2C-217.2,52.6-217.2,54.9-217.9,57.2z"/>
			<path id="XMLID_93_" class="st0" d="M-192.8,61c0,0.9,0,1.4,0,1.9c0,1.2,0.4,2.1,1.7,2.1c1.4,0,1.8-0.9,1.8-2.1
				c0-6.2,0-12.4,0-18.7c0-1.2-0.5-2.2-1.8-2.1c-1.3,0-1.8,0.9-1.8,2.2c0,3.3,0,6.6,0,9.9c0,1.1,0,2.2-0.4,3.3
				c-1,3.1-3.9,4.9-7.3,4.4c-2.7-0.4-3.9-2.2-3.9-5.8c0-3.9,0-7.8,0-11.6c0-1.6-0.7-2.5-1.9-2.4c-1.4,0.1-1.8,1.1-1.7,2.4
				c0,4,0,8.1,0,12.1c0,1.2,0.1,2.3,0.5,3.5c0.8,2.6,2.5,4.2,5.2,4.8C-198.6,65.5-195.4,64.5-192.8,61z"/>
			<path id="XMLID_94_" class="st0" d="M-238.5,42.2c-1.1-0.5-1.7,0-2.2,0.9c-0.2,0.3-0.3,0.7-0.4,1c-2.4,5.4-4.8,10.7-7.3,16.4
				c-0.4-0.9-0.7-1.5-1-2.1c-2.2-4.9-4.4-9.9-6.5-14.8c-0.7-1.5-1.4-1.9-2.5-1.4c-1.4,0.7-1.2,1.7-0.6,2.8c2.8,6,5.5,11.9,8.3,17.9
				c0.4,0.9,0.4,1.6,0,2.4c-0.9,1.8-1.7,3.6-2.6,5.4c-0.4,0.9-0.4,1.7,0.6,2.2c1,0.6,1.8,0.1,2.3-0.8c0.2-0.3,0.3-0.6,0.5-1
				c1.8-4,3.7-7.9,5.5-11.9c2.3-4.9,4.5-9.8,6.8-14.7C-237.2,43.6-237.3,42.7-238.5,42.2z"/>
			<path id="XMLID_95_" class="st0" d="M-63,93c-1.2-0.5-1.8,0.2-2.3,1.2c-0.8,1.8-1.6,3.6-2.4,5.4c-1.7,3.8-3.4,7.6-5.2,11.8
				c-2.6-5.8-5-11.3-7.4-16.8c-0.5-1.1-1.1-2.1-2.5-1.5c-1.3,0.5-1.4,1.3-0.7,2.9c2.7,6,5.5,11.9,8.3,17.9c0.4,0.8,0.4,1.5,0,2.3
				c-0.9,1.7-1.6,3.4-2.4,5.1c-0.5,1.1-0.8,2.1,0.6,2.7c1.3,0.5,1.9-0.3,2.3-1.3c4.2-9,8.4-18,12.6-27C-61.7,94.4-61.8,93.5-63,93z"
				/>
			<path id="XMLID_96_" class="st0" d="M-42.1,53.7c-2.4-1.1-5-1.4-7.4-2.2c-2.1-0.7-2.9-1.6-2.8-3.1c0.1-1.6,1.1-2.6,3-3.1
				c1.8-0.5,3.6-0.3,5.3,0.5c0.9,0.4,1.7,1,2.5,1.4c0.5,0.3,1,0.5,1.5,0s0.6-1.1,0.4-1.7c-0.2-0.5-0.5-0.9-0.9-1.2
				c-3.3-3.1-10.4-3-13.7,0.1c-2.9,2.8-2.2,7.2,1.4,9c1.1,0.5,2.2,0.8,3.3,1.1c1.8,0.4,3.6,0.7,5.3,1.5c0.9,0.4,1.6,1.1,1.6,2.2
				c0.1,1.2-0.4,2.1-1.4,2.7c-0.9,0.6-2,0.8-3,0.9c-2.8,0.2-5.2-0.6-7.5-2c-0.6-0.4-1.3-0.7-1.9,0.1c-0.5,0.7-0.4,1.5,0.1,2.1
				s1.1,1,1.8,1.4c2,1,4.2,1.4,6.4,1.6c1.8,0,3.5-0.3,5.1-0.9c1.4-0.6,2.6-1.5,3.3-2.8C-38.1,58.4-39.2,55.1-42.1,53.7z"/>
			<path id="XMLID_97_" class="st0" d="M-141.8,64.5c1.6-0.4,3.2-1.1,4.4-2.3c0.6-0.7,0.7-1.5,0.2-2.2c-0.6-0.8-1.3-0.4-1.9,0
				c-0.5,0.3-1,0.6-1.6,0.9c-5.3,2.9-10.5,0.1-11.1-5.8c0-0.5,0-0.9-0.1-1.5c0-0.5,0-1.3,0.1-2c0.6-4.2,3.2-6.4,7.4-6.4
				c2,0,3.6,1,5.2,2c0.5,0.3,1.1,0.7,1.7,0.2c0.6-0.6,0.6-1.3,0.3-2c-0.2-0.6-0.7-1-1.2-1.3c-3-2-6.3-2.5-9.8-1.4
				c-5.8,1.7-8.8,8.2-6.9,15C-153.4,63.3-147.9,66.2-141.8,64.5z"/>
			<path id="XMLID_98_" class="st0" d="M-136.4,113c-0.6-0.1-1.1-0.2-1.7-0.2c-2.6-0.1-3.9-1.3-4-4c-0.1-3.9,0-7.7-0.1-11.6
				c0-0.7,0.2-1,1-0.9c1.3,0.1,2.5,0,3.8,0c1,0,1.9-0.3,1.9-1.5s-0.8-1.6-1.9-1.6c-1.2,0-2.3-0.1-3.5,0c-0.9,0.1-1.3-0.2-1.2-1.2
				c0.1-1.3,0-2.5,0-3.8c0-1.2-0.8-1.9-2.1-1.8c-1.2,0-1.8,0.8-1.8,1.9c0,0.8,0,1.6,0,2.4c0,2.4,0.1,2.4-2.3,2.4c-0.2,0-0.3,0-0.5,0
				c-1,0.1-1.6,0.6-1.6,1.6s0.7,1.4,1.6,1.4c0.6,0,1.1,0.1,1.7,0c1.1-0.1,1.5-0.1,1.5,1.1c-0.1,1.8,0,3.1,0,5.1h0.1
				c0,3-0.2,4.6,0,6.8c0.4,4.4,4.9,7.5,9.2,6.4c0.7-0.2,1.3-0.5,1.2-1.4C-135.2,113.4-135.7,113.1-136.4,113z"/>
			<path id="XMLID_99_" class="st0" d="M-310.1,62.8c0.5,1,1.1,1.8,2.2,1.8c1.2,0,1.8-0.8,2.2-1.8c1.4-3,2.8-6,4.2-9
				c1.5-3.1,2.9-6.2,4.4-9.3c0.5-1,0.4-1.8-0.6-2.3c-1.1-0.6-1.8-0.1-2.4,0.9c-0.2,0.4-0.3,0.7-0.5,1.1c-2.4,5.2-4.7,10.4-7.2,15.9
				c-0.4-0.8-0.6-1.2-0.8-1.7c-2.3-5-4.5-10-6.8-15c-0.5-1-1.2-1.7-2.4-1.2c-1.3,0.5-1.4,1.4-0.8,2.6
				C-315.7,50.8-312.9,56.8-310.1,62.8z"/>
			<path id="XMLID_100_" class="st0" d="M-270.7,133.9c-0.9-0.2-1.9-0.3-2.7-0.4c-3.8,0.2-7.1,1.2-9.9,3.6c-0.9,0.8-1.4,1.8-0.6,2.8
				c0.8,1.1,1.7,0.2,2.5-0.3c0.7-0.5,1.3-0.9,2-1.4c1.9-1.2,3.9-1.7,6.1-1.6c3.5,0.2,5.3,2.7,4.4,6.1c-0.2,0.8-0.6,1.6-1.1,2.3
				c-1.1,1.5-2.2,3-3.3,4.6c-1.5,2.1-2.4,4.4-2.3,7c0,0.7,0.1,1.4,1,1.5c0.9,0.1,1.2-0.4,1.3-1.2c0.2-2.3,1.4-4.1,2.8-5.9
				c1.5-2,3.3-3.7,4.6-5.9C-263.4,140.5-265.6,135.2-270.7,133.9z"/>
			<path id="XMLID_101_" class="st0" d="M-60,42.3c-3.1,0-5.7,1.1-7.6,3.8c0-0.5,0-1.1,0-1.6c0-1.5-0.7-2.4-1.8-2.4
				c-1.4,0.1-1.8,1.1-1.8,2.4c0,6.1,0,12.1,0,18.2c0,1.6,0.7,2.5,1.9,2.4c1.5-0.1,1.7-1.1,1.7-2.4c0-3.6-0.1-7.1,0-10.7
				s2.1-5.7,5.6-6.3c0.7-0.1,1.4-0.2,2.1-0.3c1-0.2,1.5-0.7,1.5-1.8S-59.1,42.3-60,42.3z"/>
			<path id="XMLID_102_" class="st0" d="M-180.5,65c1.3,0,1.8-0.7,1.8-2.4c0-3.5-0.1-7,0-10.5c0.1-3.7,2.1-5.8,5.7-6.4
				c0.7-0.1,1.3-0.2,2-0.2c1.1-0.1,1.6-0.7,1.6-1.8c-0.1-1.1-0.8-1.3-1.7-1.3c-3.1,0-5.6,1.1-7.6,3.7c0-0.5,0-1,0-1.5
				c0-1.2-0.2-2.3-1.7-2.5c-1.1-0.1-1.9,0.8-1.9,2.4c0,6,0,12,0,18C-182.3,64.2-181.7,65-180.5,65z"/>
			<path id="XMLID_103_" class="st0" d="M-187.5,93.1c-3.2,0-5.8,1-7.8,3.8c0-0.5,0-1.1,0-1.6c0-1.6-0.7-2.4-1.8-2.4
				c-1.4,0.1-1.8,1.1-1.8,2.4c0,6.1,0,12.1,0,18.2c0,1.6,0.7,2.5,1.9,2.4c1.5-0.1,1.7-1.1,1.7-2.4c0-3.5-0.1-6.9,0-10.4
				c0.1-3.8,2-6,5.7-6.6c0.8-0.1,1.5-0.1,2.3-0.3c0.9-0.2,1.4-0.8,1.3-1.8C-186,93.4-186.6,93.1-187.5,93.1z"/>
			<path id="XMLID_104_" class="st0" d="M-263.7,93.1c-3.1,0-5.6,1.2-7.3,3.8c-0.4-0.6-0.2-1.1-0.2-1.6c0-1.2-0.2-2.3-1.7-2.5
				c-1.2-0.1-1.9,0.8-1.9,2.4c0,6,0,12,0,18c0,1.7,0.6,2.5,1.8,2.5c1.2,0,1.8-0.7,1.8-2.4c0-3.6-0.1-7.1,0.1-10.7
				c0.1-3.5,2.1-5.7,5.5-6.2c0.7-0.1,1.4-0.2,2.1-0.3c1-0.1,1.6-0.7,1.6-1.7C-262,93.3-262.7,93.1-263.7,93.1z"/>
			<path id="XMLID_105_" class="st0" d="M-80,42.1c-1.3,0-1.9,0.8-1.9,2.1c0,6.3,0,12.5,0,18.8c0,1.3,0.6,2.1,1.9,2
				c1.3,0,1.7-0.9,1.7-2.1c0-3.1,0-6.2,0-9.3s0-6.2,0-9.3C-78.3,43-78.7,42.1-80,42.1z"/>
			<path id="XMLID_106_" class="st0" d="M-32.6,54.7c0,0.8,0.1,1.7,1.1,1.7s1.1-0.9,1.1-1.7c0.2-3.4,0.4-7.2,0.5-10.2l0,0
				c0.2-3,0.4-6.7,0.5-10c0.1-1.6-0.9-2.5-2.3-2.4c-1.3,0-2.2,1-2.1,2.5C-33.3,41.2-33,47.9-32.6,54.7z"/>
			<path id="XMLID_107_" class="st0" d="M-31.4,59.8c-1.4-0.1-2.6,1.1-2.6,2.6c0,1.4,1.1,2.6,2.4,2.6c1.4,0,2.5-1.1,2.5-2.5
				C-29,61-30,59.8-31.4,59.8z"/>
			<path id="XMLID_108_" class="st0" d="M-274.5,161.4c-1.3-0.1-2.5,1-2.6,2.5c-0.1,1.4,0.9,2.6,2.3,2.7c1.3,0.1,2.5-0.9,2.6-2.4
				S-273.1,161.5-274.5,161.4z"/>
			<path id="XMLID_109_" class="st0" d="M-80.1,37.1c1.4,0,2.4-0.9,2.5-2.1c0.1-1.4-0.9-2.4-2.3-2.4c-1.3,0-2.4,0.9-2.5,2.1
				C-82.5,36-81.5,37.1-80.1,37.1z"/>
		</g>
	</g>
</g>
<g id="XMLID_12_">
	<path id="XMLID_307_" class="st0" d="M-551.1,319.8c-1.4,0-2,1-2,2.4c0,10,0,20,0,30c0,1.4,0.6,2.4,2,2.4c5.3-0.1,10.7,0.7,16-0.5
		c4.4-1,6.7-3.5,7.2-7.6c0.5-4.5-1.2-7.4-5.8-9.7c4.3-2.4,5.9-5.9,4.8-10.4c-1-4.2-4.2-6-8-6.3
		C-541.6,319.6-546.3,319.8-551.1,319.8z M-531.4,345.3c-0.1,3.1-1.6,5-4.6,5.7c-2.2,0.6-4.5,0.2-6.4,0.3c-7,0-7,0-7-6.6
		c0-6.3,0-6.3,6.4-6.2c2.4,0,4.9-0.3,7.3,0.5C-532.5,340-531.4,342.2-531.4,345.3z M-532.2,329.5c-0.2,3.3-2.5,5.5-6.2,5.7
		c-1.5,0.1-3,0-4.5,0c-6.5,0-6.5,0-6.5-6.5c0-5.8,0-5.8,5.9-5.8c1.8,0,3.7-0.1,5.5,0.1C-534,323.5-532.1,325.8-532.2,329.5z"/>
	<path id="XMLID_311_" class="st0" d="M-456.1,413.9c-2.2-0.1-4.1-1-6.1-1.9c-0.8-0.4-1.8-1.2-2.5,0.1c-0.6,1.2,0.1,2,1,2.7
		c2.6,1.7,5.5,2.3,8.5,2.4c7.1,0.1,10.9-3.5,11-10.5c0.1-4.4,0-8.8,0-13.2c0-2.5,0-4.9,0-7.4c0-1.2-0.4-2.2-1.7-2.4
		c-1.3-0.2-1.9,0.8-2,2c-0.1,0.6-0.1,1.2-0.1,1.9c-5.7-5-11.2-5.2-15.4-0.8c-4.1,4.4-4.1,13.1,0.1,17.5s9.8,4.2,15.5-0.9
		c0,1,0,1.9,0,2.7C-447.7,411.9-450.3,414.3-456.1,413.9z M-455.2,404.3c-4.6,0-7.3-3.2-7.4-8.7c0-5.4,2.7-8.7,7.3-8.7
		c4.7-0.1,7.4,3.1,7.5,8.5C-447.8,401-450.5,404.3-455.2,404.3z"/>
	<path id="XMLID_312_" class="st0" d="M-205.4,437.8c-3.3-1.2-6.3-0.5-9,1.7c-0.7,0.6-1.3,1.4-2,2.1c-4.1-5.7-8.8-5.9-14.5-0.7
		c-0.3-1.7,0.1-3.6-2.1-3.6c-1.1,0-1.7,0.9-1.7,2c0,6.9,0,13.8,0,20.6c0,1.1,0.5,1.8,1.7,1.9c1.4,0.1,1.9-0.7,1.9-2
		c0-3.1,0-6.2,0-9.4c0-1.3,0-2.6,0.1-3.9c0.5-4.1,3.2-6.4,6.9-6.1c3.2,0.2,4.4,2,4.5,6.6c0,4,0,8,0,11.9c0,1.3-0.2,2.8,1.7,2.8
		c2.1,0.1,2-1.6,2-2.9c0-4.1-0.1-8.2,0.1-12.3c0.2-3.9,2.9-6.3,6.5-6.2c3.3,0.1,4.7,1.9,4.7,6.3c0.1,4.2,0,8.4,0,12.6
		c0,1.2,0,2.5,1.7,2.5c1.6,0.1,2-1,2-2.3c0-5.1,0.1-10.1-0.2-15.2C-201.1,441.4-202.3,438.9-205.4,437.8z"/>
	<path id="XMLID_315_" class="st0" d="M-537.5,296.7c1.5,7.9-2.7,11.9-10.3,9.7c-1.1-0.3-2.2-0.9-3.3-1.2c-1-0.3-2.2-1.8-3-0.1
		c-0.7,1.5,0.5,2.4,1.7,3c3.5,1.8,7.3,2.5,11.2,1.7c4.7-1,7.3-3.6,7.5-8.3c0.3-7.5,0.2-15,0.2-22.5c0-1.2-0.5-2.2-1.8-2.3
		c-1.3-0.1-1.8,0.9-2,2.1c-0.1,0.5-0.1,1-0.2,1.6c-6-4.8-11.4-5-15.4-0.4c-4,4.5-3.9,13.2,0.3,17.5
		C-548.4,301.6-542.7,301.3-537.5,296.7z M-544.5,279.7c4.7,0,7.3,3.1,7.3,8.6c0,5.6-2.6,8.7-7.2,8.8c-4.8,0-7.6-3.2-7.5-8.8
		C-551.9,282.9-549.2,279.7-544.5,279.7z"/>
	<path id="XMLID_316_" class="st0" d="M-257.5,286.2c0,4.2,0,8.4,0,12.6c0,1.3,0.2,2.4,1.9,2.4c1.4,0,1.8-1,1.8-2.1
		c0-5.3,0.4-10.5-0.3-15.8c-0.4-3.2-2-5.7-5.4-6.4c-4.3-1-7.4,0.9-9.9,4.2c-4.1-5.7-9-6-14.3-0.7c-0.5-1.5,0.1-3.7-2.1-3.6
		c-2.4,0.1-1.8,2.3-1.8,3.8c0,5.8,0,11.6,0,17.4c0,1.4-0.5,3.3,1.9,3.3c2.2-0.1,1.7-1.8,1.7-3.2c0.1-4-0.1-8,0.1-11.9
		c0.3-4.1,3-6.5,6.7-6.3c3.2,0.2,4.5,1.9,4.5,6.5c0,4.2,0,8.4,0,12.6c0,1,0.1,2,1.3,2.3c0.6,0.2,1.3,0.1,1.8-0.4
		c0.7-0.7,0.6-1.6,0.6-2.4c0-4.1-0.1-8.2,0.1-12.2c0.2-4,3-6.5,6.7-6.3C-258.8,279.9-257.5,281.7-257.5,286.2z"/>
	<path id="XMLID_317_" class="st0" d="M-398.8,301.1c1.1,0,1.6-0.6,1.6-1.6c0.1-1.1,0-2.1,0.1-3.2c0.1-3.8-0.1-7.5,0.3-11.2
		s3.3-5.6,6.8-5.3c2.9,0.3,4.2,2,4.2,6.1c0,4.2,0,8.4,0,12.6c0,1.3,0,2.7,1.9,2.7s1.8-1.5,1.8-2.8c0-4.1-0.1-8.2,0.1-12.2
		c0.2-4,3-6.5,6.6-6.3c3.2,0.1,4.5,1.9,4.6,6.4c0.1,4.2,0,8.4,0,12.6c0,1.3,0.2,2.4,1.9,2.4c1.4,0,1.8-0.9,1.8-2.1
		c0-5.2,0.1-10.3-0.2-15.5c-0.1-2.9-1.5-5.4-4.5-6.5c-3.2-1.2-6.1-0.5-8.7,1.6c-0.8,0.6-1.4,1.5-2.1,2.2c-4.2-5.6-9-5.9-14.3-0.6
		c-0.5-1.6,0-3.6-2.1-3.7c-1.1,0-1.7,0.8-1.7,1.9c0,7,0,14,0,20.9C-400.7,300.6-399.9,301.1-398.8,301.1z"/>
	<path id="XMLID_318_" class="st0" d="M-457.4,337.2c0,4.8,0,9.7,0,14.5c0,2,0.8,3,2.9,2.9c5.5-0.1,11,0,16.4,0
		c1.1,0,2.3-0.1,2.4-1.5c0.1-1.7-1.2-1.7-2.5-1.7c-4.1,0-8.2-0.2-12.2,0.1c-2.8,0.2-3.5-0.8-3.2-3.4c0.2-2.3,0.2-4.7,0-7.1
		c-0.1-1.9,0.4-2.6,2.4-2.5c4,0.2,7.9,0.1,11.9,0c1.2,0,2.6,0.2,2.6-1.6c0-1.7-1.3-1.7-2.6-1.7c-4.1,0-8.2-0.1-12.2,0
		c-1.7,0.1-2.2-0.5-2.1-2.2c0.1-2.6,0.2-5.2,0-7.7c-0.2-2.2,0.7-2.5,2.6-2.4c4.2,0.1,8.4,0,12.6,0c1.3,0,2.9,0.3,2.8-1.7
		c-0.1-1.6-1.5-1.5-2.7-1.5c-5.3,0-10.5,0.1-15.8,0c-2.4,0-3.2,1-3.2,3.3C-457.3,327.7-457.4,332.4-457.4,337.2z"/>
	<path id="XMLID_321_" class="st0" d="M-324.1,430.5c0-1.5,0.4-3.5-1.8-3.5c-2.5,0-1.8,2.2-1.9,3.6c-0.1,3.4,0,6.9,0,11.1
		c-1.8-2-3.1-3.4-5-4c-3.9-1.2-7.3-0.5-10,2.4c-4,4.3-4.1,9.5-2.4,14.8c1.2,3.7,3.7,6.2,7.7,6.8c0.2,0,0.4,0,0.6,0.1
		c3.6,0.4,6.6-0.8,8.8-4c0.6,1.8-0.4,4,2,4c2.6,0,1.9-2.2,1.9-3.6C-324,448.9-324.1,439.7-324.1,430.5z M-333.9,458.7
		c-3.7,0.6-6.8-1.3-7.9-4.9c-0.8-2.5-0.8-5.1-0.2-7.6c0.9-3.7,3.4-5.8,7.1-5.7c3.7,0,6,2,6.9,5.9c0.2,1,0.3,2.1,0.4,2.8
		C-327.7,454.8-329.8,458.1-333.9,458.7z"/>
	<path id="XMLID_322_" class="st0" d="M-353,351.7c3.2,2.1,6.8,3.1,10.7,3c1.2-0.1,2.4,0,3.5-0.2c5-0.7,8.8-4.2,9.2-8.5
		c0.4-4.6-1.7-7.2-7.3-9c-2.9-0.9-5.8-1.6-8.6-2.5c-2.8-0.9-5.1-2.5-4.7-6c0.3-2.9,2.3-4.9,5.7-5.6c4.4-0.8,8.3,0.1,11.8,2.9
		c0.7,0.5,1.5,1.6,2.4,0.5c0.9-1,0.6-2-0.4-2.8c-0.7-0.6-1.5-1.3-2.3-1.7c-4.2-2.4-8.8-2.7-13.4-1.5c-4.8,1.3-7.6,4.7-7.6,9.1
		c-0.1,4.3,2,6.9,7.2,8.6c2.9,1,6,1.6,8.9,2.6c2.5,0.8,4.8,2,4.6,5.3c-0.2,2.9-2.1,4.9-5.4,5.5c-4.5,0.9-8.7,0-12.6-2.5
		c-0.9-0.6-1.9-2.4-3.1-0.6C-355.5,349.9-354.1,351-353,351.7z"/>
	<path id="XMLID_325_" class="st0" d="M-426,490.8c-2.2,0-1.6,2.1-1.8,3.5c0,0.1-0.3,0.2-0.4,0.2c-4.5-4.6-10-5.2-14.2-1.2
		c-3.3,3.2-4,7.2-3.6,11.6c0.4,4.5,2.1,8.3,6.6,9.8c4.3,1.5,8.3,0.8,11.7-3.9c0,4.4,0,7.8,0,11.2c0,1.2,0.6,2.1,1.9,2.1
		c1.1-0.1,1.7-0.9,1.7-2c0-0.5,0-1.1,0-1.6c0-8.7,0-17.4,0-26.1C-424.1,493-423.6,490.8-426,490.8z M-436.7,512.1
		c-2.2-0.4-3.8-1.6-4.6-3.6c-1.5-3.6-1.6-7.3,0.1-10.9c1.4-2.8,3.8-3.9,6.9-3.7c2.9,0.2,4.8,1.7,5.8,4.4c0.6,1.5,0.7,3.1,0.8,4.7
		C-427.7,509.6-431.3,513.2-436.7,512.1z"/>
	<path id="XMLID_326_" class="st0" d="M-383.4,449.1c0,0.6,0,1.3,0,1.9c0,2.7,0,5.4,0,8.1c0,1.4,0,2.7,1.9,2.6
		c1.7-0.1,1.7-1.3,1.7-2.6c0-6.2-0.1-12.5,0-18.7c0-2.2-0.8-2.8-2.9-2.8c-3.2,0.1-6.4-0.1-9.7,0.1c-1.9,0.1-2.1-0.7-2-2.3
		c0.3-3.3,1.6-4.7,5.6-5.4c1.1-0.2,2.4,0,2.2-1.6c-0.2-1.6-1.5-1.2-2.5-1.2c-5.1,0-8.3,2.8-8.8,7.9c-0.2,1.7-0.3,2.9-2.5,2.5
		c-1.2-0.2-2.5,0-2.5,1.7c0,1.8,1.5,1.6,2.6,1.5c1.9-0.2,2.3,0.6,2.3,2.3c-0.1,5.2,0,10.3,0,15.5c0,1.4-0.2,3,1.9,2.9
		c1.9-0.1,1.7-1.6,1.7-2.9c0-5.3,0-10.5,0-15.8c0-1.1-0.2-2,1.5-2.1C-383.4,440-383.4,439.9-383.4,449.1z"/>
	<path id="XMLID_327_" class="st0" d="M-568.8,405.8c0.5,1.1,0.8,2.5,2.6,2.5c1.7,0,2.1-1.2,2.6-2.4c4-9,8-18,12-27.1
		c0.5-1.1,1-2.1,1.4-3.3c0.3-0.9,0.1-1.8-0.9-2.2c-1-0.4-1.9-0.2-2.4,0.8c-0.4,0.9-0.8,1.8-1.2,2.6c-3.7,8.6-7.4,17.1-11.4,26.4
		c-4.2-9.7-8.1-18.8-12-27.8c-0.6-1.3-1.1-2.9-2.9-2.1c-1.9,0.8-1,2.2-0.4,3.5C-577.2,386.5-573,396.1-568.8,405.8z"/>
	<path id="XMLID_328_" class="st0" d="M-372.2,401.7c-1.2-1.7-2.2,0.3-3.2,0.8c-0.7,0.3-1.3,0.8-1.9,1.2c-7.5,4.1-15.7,0.5-17.4-7.9
		c-0.9-4.5-0.9-9,1-13.3c1.5-3.5,4.2-5.5,8-6.1c4.2-0.7,7.8,0.6,11.1,3.1c0.7,0.6,1.6,1.4,2.4,0.2c0.6-0.9,0.3-1.9-0.4-2.6
		c-0.4-0.4-0.8-0.7-1.2-1c-9.1-6.8-21.9-2.3-24.7,8.6c-1,4.1-1,8.3,0.1,12.4c2,7.2,7.1,11.1,14.9,11.1c3.3,0.2,6.7-0.8,9.7-2.9
		C-372.5,404.5-371,403.4-372.2,401.7z"/>
	<path id="XMLID_329_" class="st0" d="M-267.8,444c-0.4-5.1-4.8-7.8-9.8-6.7c-2.3,0.5-4.3,1.7-6.4,4.3c0-4.7,0-8.3,0-12
		c0-1.4-0.1-2.8-1.9-2.8c-1.7,0.1-1.8,1.5-1.8,2.9c0,9.8,0,19.5,0,29.3c0,1.3,0,2.7,1.9,2.7c1.9,0,1.8-1.5,1.8-2.8
		c0-4.1-0.1-8.2,0.1-12.2c0.3-4.1,3.3-6.5,7.4-6.4c3.6,0.1,5.1,2,5.1,6.6c0,4.2,0,8.4,0,12.6c0,1.1,0.3,2.1,1.8,2.2
		c1.4,0.1,1.9-0.7,1.9-2C-267.6,454.5-267.4,449.3-267.8,444z"/>
	<path id="XMLID_330_" class="st0" d="M-345.6,406.3c0-5.3,0.2-10.5-0.3-15.8c-0.4-5.1-4.7-7.8-9.7-6.8c-2.4,0.5-4.3,1.6-6.4,4.4
		c0-4.7,0-8.3,0-12c0-1.4-0.1-2.8-1.8-2.8c-1.7,0-1.9,1.4-1.9,2.8c0,9.8,0,19.5,0,29.3c0,1.3-0.1,2.7,1.8,2.7s1.8-1.4,1.8-2.7
		c0-4-0.1-7.9,0.1-11.9c0.2-4.3,3.2-6.9,7.4-6.7c3.8,0.1,5.2,2,5.2,6.9c0,4.1,0,8.2,0,12.2c0,1.1,0.2,2.2,1.7,2.2
		C-346.2,408.3-345.6,407.6-345.6,406.3z"/>
	<path id="XMLID_331_" class="st0" d="M-255.2,322c0,10.2,0,20.4,0,30.6c0,0.9,0.2,1.7,1.2,2c0.7,0.2,1.6,0.3,2-0.5
		c0.3-0.6,0.4-1.4,0.4-2.2c0.1-4.1-0.1-8.2,0.2-12.2c0.3-4.1,3.3-6.5,7.4-6.4c3.6,0.1,5.1,2,5.2,6.7c0,4.2,0,8.4,0,12.6
		c0,1.2,0.3,2.1,1.8,2.2c1.4,0,1.9-0.9,1.9-2c0-5.3,0.1-10.5-0.3-15.8c-0.3-3.8-2.5-5.9-6-6.6c-3.9-0.8-7.1,0.6-10.1,4.1
		c0-4.6,0-8.3,0-12.1c0-1.3-0.3-2.5-1.8-2.5C-254.7,319.8-255.2,320.8-255.2,322z"/>
	<path id="XMLID_332_" class="st0" d="M-248.6,383.6c-1.6,5.2-1.5,10.4,0.5,15.5c3.7,9.4,16.6,12.5,24.3,5.9
		c0.4-0.3,0.8-0.7,1.1-1.1c0.5-0.8,0.6-1.6-0.1-2.4s-1.4-0.2-2,0.2c-0.5,0.3-1,0.8-1.6,1.1c-8.5,5.7-17.7,1.5-19.2-8.5
		c-0.2-1.2-0.2-2.4-0.3-4.1c0.2-1.4,0.3-3.4,0.8-5.2c1.6-6.4,6.4-9.6,13-8.7c2.8,0.4,5,1.8,7.2,3.3c0.7,0.5,1.4,1.2,2.2,0.2
		c0.6-0.8,0.5-1.7-0.1-2.4c-0.4-0.5-0.9-0.9-1.4-1.3C-232.7,369.5-245.4,373.4-248.6,383.6z"/>
	<path id="XMLID_333_" class="st0" d="M-453.6,298.1c0,1.4-0.3,3.1,1.9,3s1.7-1.8,1.7-3.1c0.1-4-0.1-8,0.2-11.9
		c0.3-4.1,3.4-6.5,7.5-6.3c3.6,0.2,5.1,2,5.1,6.7c0,4.2,0,8.4,0,12.6c0,1.2,0.4,2.1,1.8,2.1c1.4,0,1.9-0.8,1.9-2
		c0-5.2,0.1-10.3-0.2-15.4c-0.3-4.1-3.1-6.3-6.9-7s-5.3,0.8-10.3,4.2c0-4.2,0-7.8,0-11.4c0-1.4,0.6-3.1-1.3-3.1
		c-1.9,0-1.6,1.7-1.6,3.2C-453.9,279-453.6,288.6-453.6,298.1z"/>
	<path id="XMLID_336_" class="st0" d="M-446.8,445.3c-0.1-3.6-1.5-6.5-5.3-7.6c-4.6-1.3-8.7-0.3-12.4,2.5c-0.8,0.6-0.9,1.5-0.4,2.3
		c0.7,0.9,1.5,0.5,2.3,0c2-1.1,4-2,6.3-2.1c4.1-0.2,5.9,1.6,6,5.7c0,1.5-0.4,2-2,2c-2.7,0.1-5.4,0.2-8,0.7c-2.9,0.5-5.3,1.9-5.5,5.4
		c-0.2,3.3,1.4,5.5,4.3,6.9c3.7,1.7,7.2,0.8,10.9-2.9c0.5,1.5-0.3,3.7,2.1,3.5c2.3-0.2,1.7-2.1,1.7-3.5
		C-446.6,453.9-446.6,449.6-446.8,445.3z M-450.3,452.4c-0.1,4.7-5.2,7.9-9.3,5.8c-1.6-0.8-2.4-2.1-2.3-3.9s1.3-2.5,2.8-3
		c2.4-0.8,4.9-0.5,7.4-0.6C-450.3,450.6-450.2,451.4-450.3,452.4z"/>
	<path id="XMLID_339_" class="st0" d="M-520.8,333.3c-0.6,0.5-0.7,1.4-0.3,2.1c0.6,0.9,1.5,0.6,2.3,0.1c2-1.1,4-2.1,6.3-2.2
		c4.2-0.2,6.1,1.7,6.1,6c0,1.5-0.5,1.7-1.9,1.8c-2.6,0.1-5.1,0.3-7.7,0.7c-4.1,0.6-6.1,2.8-5.9,6.3c0.1,3.3,2.8,6.1,6.4,6.6
		c3.5,0.5,6.6-0.4,8.8-3.6c0.7,1.5-0.2,3.7,2.1,3.6c2.5-0.1,1.8-2.3,1.8-3.7c0-4.5,0.1-9-0.2-13.5c-0.3-3.9-2.3-6.2-6-7
		C-513.4,329.5-517.3,330.5-520.8,333.3z M-507.7,349.1c-1.2,1.6-2.8,2.3-4.7,2.5c-2.9,0.3-5.3-1.2-5.6-3.6
		c-0.4-3.2,1.9-3.7,4.2-4.2c1.1-0.2,2.3-0.2,3.6-0.3c1.2,0.4,3.1-0.7,3.7,0.8C-505.9,345.9-506.6,347.7-507.7,349.1z"/>
	<path id="XMLID_342_" class="st0" d="M-320,392.6c-0.1-3.6-1.1-6.8-4.9-8.3c-3.6-1.4-10.6-0.2-12.8,2.2c-0.7,0.8-1.2,1.7-0.4,2.6
		c0.7,0.9,1.6,0.3,2.3-0.1c1.8-1,3.7-1.8,5.7-2.1c4.3-0.5,6.3,1.3,6.5,5.5c0.1,1.5-0.2,2.3-2,2.3c-2.7,0-5.4,0.2-8,0.7
		c-2.8,0.5-5,1.9-5.4,5.1c-0.4,2.9,1.2,5.6,4.1,7c3.6,1.7,7.3,0.9,11.1-2.6c0.3,1.7,0,3.7,2.3,3.4c2.1-0.3,1.5-2.1,1.5-3.3
		C-320,400.8-320,396.7-320,392.6z M-324.7,402.3c-1.2,1.8-2.9,2.7-5.1,2.9c-2.9,0.3-5.2-1.3-5.5-3.7c-0.4-3.1,1.9-3.7,4.2-4.1
		c1.2-0.3,2.5-0.2,3.8-0.3c1.2,0.3,2.9-0.6,3.5,0.7C-323.2,399.2-323.8,400.9-324.7,402.3z"/>
	<path id="XMLID_345_" class="st0" d="M-306.7,354.6c2.1-0.3,1.5-2.1,1.5-3.3c0.1-4.1,0.1-8.2,0-12.2c-0.1-3.6-1-6.8-4.8-8.3
		c-3.6-1.4-10.6-0.2-12.8,2.2c-0.7,0.8-1.2,1.7-0.4,2.6c0.7,0.9,1.5,0.3,2.3-0.1c1.8-1,3.7-1.8,5.7-2.1c4.4-0.5,6.5,1.5,6.5,5.8
		c0,1.6-0.6,1.9-2,1.9c-2.7,0.1-5.4,0.3-8,0.7c-2.8,0.5-5,1.9-5.4,5.1c-0.4,2.9,1.2,5.6,4.1,7c3.6,1.7,7.2,1,11-2.5
		C-308.6,352.8-309.1,355-306.7,354.6z M-309.9,348.9c-1.1,1.6-2.6,2.4-4.5,2.7c-3,0.4-5.6-1.1-5.9-3.5c-0.5-3.3,2-3.8,4.3-4.3
		c1.1-0.2,2.3-0.2,3.4-0.3c1.3,0.3,3-0.6,3.6,0.5C-308.3,345.6-308.9,347.4-309.9,348.9z"/>
	<path id="XMLID_348_" class="st0" d="M-262.6,339.1c-0.1-3.6-1-6.8-4.8-8.3c-3.6-1.4-10.6-0.2-12.8,2.2c-0.7,0.8-1.2,1.7-0.4,2.6
		c0.7,0.9,1.5,0.3,2.3-0.1c1.8-1,3.7-1.8,5.7-2.1c4.4-0.5,6.5,1.5,6.5,5.8c0,1.7-0.6,1.9-2,1.9c-2.7,0.1-5.4,0.3-8,0.7
		c-2.8,0.5-5,1.9-5.4,5.1c-0.4,2.9,1.2,5.6,4.1,7c3.6,1.7,7.2,1,11-2.5c0.6,1.4,0.1,3.6,2.4,3.3c2.1-0.3,1.5-2.1,1.5-3.3
		C-262.5,347.2-262.5,343.1-262.6,339.1z M-267.1,348.5c-1,1.6-2.4,2.6-4.3,3c-3.2,0.6-5.9-0.7-6.4-3.2c-0.5-2.6,1-4,4.8-4.5
		c1.1-0.1,2.1-0.1,3.3-0.2c1.1,0.3,2.7-0.7,3.3,0.7C-265.8,345.6-266.3,347.2-267.1,348.5z"/>
	<path id="XMLID_351_" class="st0" d="M-490.2,386.7c-0.6,0.7-0.9,1.5-0.2,2.4c0.6,0.8,1.4,0.4,2,0.1c2-1.1,4-2.1,6.3-2.3
		c4.2-0.3,6.2,1.6,6.2,5.8c0,1.6-0.5,1.9-2,2c-2.8,0.1-5.6,0.3-8.3,0.8c-2.7,0.5-4.8,1.9-5.1,5c-0.3,3.1,1.1,5.4,3.7,6.9
		c3.5,2,7.6,1.1,11.3-2.4c0.6,1.4,0,3.6,2.4,3.3c2.3-0.3,1.5-2.3,1.5-3.6c0.1-4.3,0.1-8.6-0.1-12.9c-0.2-4.1-2-6.5-5.4-7.5
		C-481.5,383-488.4,384.4-490.2,386.7z M-477.2,402.7c-1.3,1.8-3.1,2.6-5.2,2.6c-2.5,0-4.7-0.9-5.1-3.8s1.8-3.5,4-4
		c1.2-0.3,2.5-0.3,3.8-0.4c1.2,0.5,3-0.8,3.7,0.8C-475.4,399.5-476.1,401.2-477.2,402.7z"/>
	<path id="XMLID_354_" class="st0" d="M-376.3,491.4c-6.2-2.1-12.3,1.2-14,7.7c-1.3,5.3-0.9,10.3,3.6,14.1c3.4,2.9,10.1,3,14.3,0.5
		c1.2-0.7,2.8-1.5,1.9-3.2c-1-1.8-2.2-0.1-3.2,0.3c-0.8,0.3-1.5,0.8-2.3,1.1c-5.5,1.8-10.4-1-11.1-6.4c-0.2-1.4,0.1-2,1.6-1.9
		c2.1,0.1,4.3,0,6.4,0c2.3,0,4.5,0,6.8,0c1.2,0,2-0.3,2.2-1.7C-369.3,497.8-372.3,492.7-376.3,491.4z M-375.2,501.1
		c-1.6-0.1-3.2,0-4.8,0c-1.8,0-3.6,0-5.4,0c-0.9,0-1.6,0-1.5-1.3c0.4-2.9,3.1-5.5,6.4-5.7c3.8-0.3,6.4,1.6,7.2,4.9
		C-373,500.6-373.4,501.2-375.2,501.1z"/>
	<path id="XMLID_357_" class="st0" d="M-252.4,437.4c-4.7,1-8,4.3-8.7,9.2c-0.8,5.1-0.4,10.1,4.3,13.3c4.5,3,9.3,2.6,14,0.2
		c1.2-0.6,2.8-1.6,1.8-3.2s-2.2,0.1-3.3,0.4c-0.8,0.3-1.5,0.8-2.3,1.1c-5.3,1.7-9.6-0.7-10.7-5.6c-0.5-2.1,0-2.9,2.2-2.7
		c1.9,0.2,3.9,0,5.8,0c2.3,0,4.5,0,6.8,0c1.3,0,1.9-0.5,2.1-1.9C-239.8,441.6-245.9,436-252.4,437.4z M-246,447.5
		c-1.6-0.2-3.2,0-4.8,0c-1.2,0-2.4,0.1-3.5,0c-1-0.1-2.4,0.6-3-0.4c-0.6-1.2,0.2-2.5,0.9-3.6c1.7-2.7,4.3-3.5,7.3-3
		c2.5,0.4,4.3,1.8,5,4.4C-243.6,446.6-243.6,447.8-246,447.5z"/>
	<path id="XMLID_360_" class="st0" d="M-422.5,299.6c3.6,2.4,10.6,2,14.1-0.5c1-0.7,2-1.6,1.2-2.9c-0.8-1.4-1.9-0.2-2.8,0.2
		c-0.8,0.3-1.5,0.8-2.3,1.1c-5.2,2-9.9-0.1-11.2-5.1c-0.5-2-0.5-3.3,2.2-3c1.9,0.2,3.9,0,5.8,0c2.1,0,4.3-0.1,6.4,0
		c1.6,0.1,2.3-0.6,2.4-2.2c0.5-6.8-5.5-12-12.2-10.4c-4.7,1.1-7.9,4.6-8.5,9.7C-428.1,291.7-427.3,296.5-422.5,299.6z M-422.6,282.9
		c1.7-2.9,4.5-3.5,7.5-3c2.7,0.4,4.3,2.1,5,4.8c0.4,1.6,0.1,2.4-1.8,2.2c-1.6-0.1-3.2,0-4.8,0c-1.3,0-2.6,0.1-3.8,0
		c-1-0.1-2.5,0.5-3-0.4C-424.1,285.3-423.3,284-422.6,282.9z"/>
	<path id="XMLID_363_" class="st0" d="M-568.7,354.7c2.8,0,6.2-1,7.7-2.4c0.9-0.8,1.5-1.7,0.7-2.8c-0.7-1-1.5-0.2-2.3,0.1
		c-1,0.4-1.9,1.1-2.9,1.4c-5.5,2-10.3-0.6-11.3-5.9c-0.3-1.7,0.1-2.2,1.9-2.2c4.2,0.1,8.4,0,12.6,0c1.3,0,2.3-0.1,2.5-1.7
		c0.7-4.2-2.3-9.2-6.3-10.5c-4.4-1.5-8.4-0.6-11.4,2.9c-3.8,4.4-4,9.6-2,14.8C-577.6,352.9-573.9,354.8-568.7,354.7z M-575.5,336.4
		c1.7-2.9,4.5-3.5,7.5-3.1c2.7,0.4,4.3,2.1,5,4.8c0.4,1.6,0.2,2.4-1.8,2.2c-1.6-0.2-3.2,0-4.8,0c-1.3,0-2.6,0.1-3.8,0
		c-1-0.1-2.5,0.5-3-0.4C-577.1,338.9-576.2,337.5-575.5,336.4z"/>
	<path id="XMLID_366_" class="st0" d="M-429.1,383.9c-4.7,1.1-7.9,4.5-8.7,9.6c-0.9,5.7,1.1,11,5.1,13.3c3.8,2.2,10.8,1.9,14.1-0.7
		c1-0.8,1.9-1.7,1-3c-0.8-1.1-1.7-0.2-2.5,0.2c-0.9,0.4-1.7,0.9-2.6,1.3c-5.6,2.1-10.7-0.8-11.4-6.2c-0.2-1.3,0-2,1.6-1.9
		c2.1,0.1,4.3,0,6.4,0c2.3,0,4.5,0,6.8,0c1.5,0,2.1-0.5,2.2-2C-416.4,387.8-422.5,382.4-429.1,383.9z M-422.3,394
		c-1.6-0.1-3.2,0-4.8,0c-1.7,0-3.4-0.1-5.1,0c-2,0.1-2-0.7-1.5-2.3c1.1-3.3,3.7-5,7.4-4.8c3.1,0.2,5.2,2,5.9,4.9
		C-420.1,393.4-420.5,394.1-422.3,394z"/>
	<path id="XMLID_369_" class="st0" d="M-523.4,298.8c1.6,1.3,3.4,2.2,5.6,2.3c7.9,0.5,12.7-4.1,12.7-13.3c-0.1-3.6-1.4-7.7-5.8-10
		c-4.1-2.1-8.2-1.8-11.9,0.9C-528.6,282.8-528.9,294.3-523.4,298.8z M-522.9,284.4c1.2-3.4,4.2-5.1,7.9-4.6
		c4.6,0.7,7.1,5.9,5.8,12.2c-1,4.8-4.6,7.1-9.3,5.8c-3.4-0.9-5.1-3.9-5.1-9C-523.6,287.3-523.4,285.8-522.9,284.4z"/>
	<path id="XMLID_372_" class="st0" d="M-569.5,490.7c-6.6,0-11,4.9-11.1,12.3c0,7.6,4.1,12.3,10.9,12.3c6.9,0,11.2-4.5,11.2-12
		C-558.3,495.8-562.8,490.7-569.5,490.7z M-571.6,512c-0.1,0-0.2,0-0.3-0.1c-3.7-1.1-5.7-5.8-4.7-11.5c0.7-4.3,3.4-6.6,7.4-6.6
		c4.5,0.1,7.2,3.6,7.1,9.3C-562.1,509.9-566,513.5-571.6,512z"/>
	<path id="XMLID_375_" class="st0" d="M-533.9,449.9c0.1-7.6-4.3-12.7-11-12.7c-6.6,0-11.1,4.9-11.1,12.3c0,7.6,4.1,12.3,10.9,12.3
		C-538.2,461.8-534,457.3-533.9,449.9z M-552.3,449.5c0-6.1,2.9-9.4,7.9-9.1c3,0.2,5.1,1.8,6,4.6c1.3,4.1,1.5,8.4-1.6,11.9
		c-2.1,2.4-5,2.5-7.7,1.5C-551.7,456.8-552.2,453.2-552.3,449.5z"/>
	<path id="XMLID_378_" class="st0" d="M-305.1,301.1c6.9,0,11.2-4.5,11.3-11.9c0.1-7.6-4.3-12.7-11-12.7c-6.6,0-11.1,4.9-11.1,12.3
		C-316,296.4-311.9,301.1-305.1,301.1z M-312.1,286.1c0.8-4.6,4.2-7.1,8.5-6.4c3.8,0.6,6,4,6,9.1c0.1,6.7-3.7,10.3-9.3,9
		C-311.1,296.9-313.2,292.1-312.1,286.1z"/>
	<path id="XMLID_381_" class="st0" d="M-206.8,383.6c-6.6-0.1-11.1,4.9-11.1,12.3c0,7.6,4.1,12.3,10.8,12.4
		c7.1,0,11.3-4.6,11.3-12.2C-195.8,388.6-200.2,383.7-206.8,383.6z M-201.9,403.2c-2.1,2.4-5,2.4-7.8,1.5c-3-0.9-4.6-4.1-4.6-8.8
		c0-6.2,3-9.6,8.1-9.1c3,0.3,5,2,5.8,4.8C-199.1,395.7-198.8,399.8-201.9,403.2z"/>
	<path id="XMLID_382_" class="st0" d="M-397,494c0-1.4,0.2-3.1-1.8-3.1c-1.9,0-1.9,1.6-1.9,3.1c0,4.1,0.1,8.2-0.2,12.2
		c-0.3,4-3.4,6.5-7.2,6.2c-3.5-0.2-4.9-2-5-6.5c-0.1-4.2,0-8.4,0-12.6c0-1.3-0.3-2.5-1.8-2.5s-1.8,1.2-1.8,2.5
		c0,4.8-0.1,9.7,0.1,14.5c0.3,5.1,3.2,7.4,8.1,7.6c3.2,0.1,5.5-1.3,7.5-3.7c0.8,1.4-0.3,3.9,2.4,3.6c2.3-0.3,1.5-2.3,1.5-3.6
		C-396.9,505.8-397,499.9-397,494z"/>
	<path id="XMLID_383_" class="st0" d="M-480,497.8c-0.2-3.9-2.5-6.2-6.1-6.9c-3.9-0.8-7.1,0.6-9.7,3.7c-0.7-1.5,0.1-4-2.3-3.7
		c-2.5,0.2-1.7,2.6-1.7,4.1c-0.1,5.7-0.1,11.4,0,17.1c0,1.4-0.5,3.3,1.9,3.2c2.2-0.1,1.7-1.9,1.7-3.2c0.1-3.9-0.1-7.7,0.1-11.6
		c0.2-4.3,3.3-6.8,7.5-6.6c3.6,0.2,5,2,5.1,6.7c0,4.2,0,8.4,0,12.6c0,1.2,0.4,2.1,1.8,2.1s1.9-0.8,1.9-2.1
		C-479.8,508.1-479.7,503-480,497.8z"/>
	<path id="XMLID_384_" class="st0" d="M-352.3,444.3c-0.2-3.9-2.5-6.2-6.1-6.9c-3.9-0.8-7.1,0.6-9.8,3.6c-0.7-1.4,0.1-3.9-2.3-3.7
		c-2.6,0.2-1.7,2.6-1.7,4.1c-0.1,5.6-0.1,11.2,0,16.7c0,1.4-0.7,3.6,1.9,3.6c2.4,0,1.7-2.1,1.7-3.4c0.1-3.8-0.1-7.5,0.1-11.3
		c0.2-4.3,3.2-6.8,7.5-6.6c3.6,0.2,5,2,5.1,6.7c0,4.2,0,8.4,0,12.6c0,1.2,0.4,2.1,1.8,2.1s1.9-0.8,1.9-2
		C-352.1,454.6-352,449.4-352.3,444.3z"/>
	<path id="XMLID_385_" class="st0" d="M-419.4,444.2c-0.2-3.9-2.5-6.1-6.1-6.9c-3.9-0.8-7.1,0.7-9.8,3.8c-0.5-1.7,0.2-4-2.2-3.9
		c-2.3,0.2-1.7,2.4-1.7,3.9c-0.1,5.8,0,11.6,0,17.4c0,1.4-0.4,3.3,2,3.2c2.2-0.1,1.6-1.9,1.7-3.2c0.1-3.9-0.1-7.7,0.1-11.6
		c0.2-4.3,3.3-6.8,7.5-6.6c3.6,0.2,5,2,5,6.7c0,4.2,0,8.4,0,12.6c0,1.2,0.4,2.1,1.9,2.1c1.4,0,1.8-0.9,1.8-2.1
		C-419.2,454.5-419.1,449.4-419.4,444.2z"/>
	<path id="XMLID_386_" class="st0" d="M-532.2,498.3c-0.4-5.6-4.8-8.6-10.2-7.4c-2.3,0.5-4.1,1.7-5.8,3.9c-0.6-1.9,0.1-4.3-2.4-4
		c-2.1,0.2-1.5,2.2-1.6,3.7c0,6,0,12,0,18c0,1.3-0.1,2.7,1.8,2.8c1.9,0,1.8-1.4,1.8-2.7c0-4.1-0.1-8.2,0.1-12.2
		c0.2-4.1,3.3-6.6,7.4-6.4c3.7,0.1,5.2,1.9,5.2,6.6c0.1,4.2,0,8.4,0,12.6c0,1.3,0.4,2.3,2,2.3c1.5-0.1,1.7-1.1,1.7-2.2
		C-532.1,508.2-531.9,503.2-532.2,498.3z"/>
	<path id="XMLID_387_" class="st0" d="M-523.1,386.9c3.6,0.2,5,2,5,6.7c0,4.2,0,8.4,0,12.6c0,1.2,0.4,2.1,1.9,2.1
		c1.4,0,1.9-0.9,1.9-2.1c0-5.2,0.1-10.3-0.2-15.4c-0.2-3.5-2.1-6-5.8-6.8c-4.1-0.9-7.3,0.5-10.1,3.6c-0.7-1.5,0.1-4-2.2-3.8
		c-2.5,0.2-1.7,2.6-1.7,4.1c-0.1,5.7-0.1,11.4,0,17.1c0,1.4-0.5,3.3,1.9,3.2c2.2-0.1,1.6-1.9,1.6-3.2c0.1-4-0.1-8,0.2-11.9
		C-530.3,389-527.2,386.6-523.1,386.9z"/>
	<path id="XMLID_388_" class="st0" d="M-509.8,461.8c1.5,0,1.8-1,1.8-2.1c0-6.8,0-13.5,0-20.3c0-0.9-0.4-1.7-1.2-2.1
		c-0.8-0.3-1.5,0.1-2,0.7c-0.6,0.7-0.4,1.6-0.4,2.5c0,4,0.1,7.9-0.1,11.9s-3.2,6.5-7,6.4c-3.6-0.1-5.1-1.9-5.2-6.6
		c-0.1-4.2,0-8.4,0-12.6c0-1.3-0.4-2.5-1.9-2.4c-1.3,0.1-1.7,1.1-1.7,2.3c0,5-0.2,10.1,0.2,15.1c0.3,4.7,3.2,7,7.8,7.2
		c3.2,0.1,5.6-1,7.9-3.8C-511.3,459.6-512.3,461.7-509.8,461.8z"/>
	<path id="XMLID_389_" class="st0" d="M-371.4,330.3c-1.7-0.7-2.1,1-2.6,2.1c-2.5,5.6-4.9,11.2-7.7,17.6c-2.7-6.2-5.1-11.7-7.5-17.1
		c-0.6-1.2-0.8-3.4-3-2.5c-2.1,0.9-0.9,2.5-0.3,3.8c1.9,4.3,3.6,8.8,5.9,12.9c2.5,4.5,3.2,8.6,0.1,13c-0.7,1-1.4,2.5,0.3,3.3
		c1.7,0.7,2.1-0.9,2.7-2c4.2-9.2,8.4-18.4,12.6-27.6C-370.3,332.5-369.6,331-371.4,330.3z"/>
	<path id="XMLID_390_" class="st0" d="M-497,330.3c-1.6,0.7-1.3,1.9-0.7,3.2c1.9,4,3.4,8.1,5.5,12c2.7,5,4.6,9.8,0.6,15.1
		c-0.7,0.9-0.8,2.1,0.5,2.7c1.3,0.7,2-0.3,2.5-1.3c4.4-9.7,8.8-19.3,13.2-29c0.5-1.2,0.4-2.2-0.8-2.7c-1.3-0.6-1.9,0.4-2.4,1.5
		c-0.6,1.3-1.1,2.6-1.7,3.8c-2,4.6-4,9.2-6.3,14.4c-2.8-6.4-5.3-12.2-7.9-17.9C-494.9,330.9-495.5,329.6-497,330.3z"/>
	<path id="XMLID_391_" class="st0" d="M-575,466.9c-0.7,1.1-1.7,2.7,0.2,3.5s2.2-1.1,2.8-2.3c4.2-9.1,8.3-18.2,12.4-27.3
		c0.6-1.3,1.4-2.8-0.5-3.5c-1.7-0.6-2.1,1-2.6,2.2c-2.5,5.6-4.9,11.2-7.7,17.5c-2.8-6.4-5.3-12.1-7.8-17.8c-0.5-1.2-1-2.6-2.7-1.8
		c-1.6,0.7-1.1,2-0.5,3.3c2.1,4.6,3.9,9.3,6.4,13.7C-572.6,458.8-572.1,462.7-575,466.9z"/>
	<path id="XMLID_392_" class="st0" d="M-217.1,352.6c2.4,1.7,5.1,2.3,7.9,2.1c0.9,0,1.7,0,2.6-0.1c3.7-0.5,6.3-2.8,6.6-6
		c0.3-3.4-1.1-5.3-5.2-6.7c-2-0.7-4.1-1.1-6.2-1.7c-1.5-0.5-2.7-1.3-2.6-3.2c0.1-1.9,1.2-2.9,2.9-3.4c2.5-0.8,4.8-0.2,7.1,1.1
		c1,0.5,2.2,2.2,3.2,0.6c1-1.7-0.5-2.8-1.8-3.5c-3.6-2-7.3-2.3-11.1-0.4c-2.5,1.3-3.9,3.2-3.9,6.2c0,2.9,1.8,4.5,4.2,5.4
		c2.1,0.8,4.3,1.2,6.5,1.9c1.8,0.5,3.5,1.3,3.3,3.6c-0.2,2.3-2,2.8-3.9,3.2c-2.9,0.5-5.5-0.2-8-1.7c-0.9-0.5-2-1.3-2.8,0
		C-218.8,351-218,351.9-217.1,352.6z"/>
	<path id="XMLID_393_" class="st0" d="M-278.3,387c2.5-0.6,4.9,0.1,7,1.4c0.9,0.6,2,1.9,2.9,0.2c0.7-1.3-0.3-2.3-1.3-3
		c-3.5-2.2-7.2-2.8-11-1.2c-2.8,1.1-4.6,3.1-4.6,6.3c0,3.2,2,4.8,4.7,5.7c2.1,0.7,4.3,1.2,6.5,1.8c1.7,0.5,3,1.3,2.9,3.3
		c-0.1,2.1-1.6,2.9-3.4,3.3c-3.1,0.7-5.9,0-8.6-1.6c-0.8-0.5-1.9-1.1-2.6-0.1c-0.7,1.1-0.1,2.1,0.9,2.8c2.3,1.7,5,2.3,7.9,2.3
		c1.2-0.1,2.4,0,3.5-0.3c3.4-0.7,5.6-3.1,5.8-6c0.2-3.3-1.1-5.2-5-6.4c-2-0.7-4.1-1.1-6.2-1.8c-1.6-0.5-2.9-1.4-2.8-3.4
		C-281.5,388.4-280,387.4-278.3,387z"/>
	<path id="XMLID_394_" class="st0" d="M-414,337.6c0.1,2.7,1.8,4.3,4.1,5.2c2.2,0.8,4.5,1.3,6.8,2c1.7,0.5,3.3,1.2,3.1,3.4
		c-0.2,2.3-1.8,2.9-3.7,3.3c-3,0.6-5.7-0.2-8.3-1.7c-0.9-0.5-1.9-1.1-2.6,0s0,2.1,0.9,2.7c2.4,1.7,5,2.3,7.9,2.2
		c1.1-0.1,2.2,0,3.2-0.2c3.5-0.6,5.9-3.1,6.1-6.1c0.2-3.3-1.1-5.1-5.1-6.4c-1.9-0.6-3.9-1.1-5.9-1.7c-1.7-0.5-3.2-1.3-3-3.6
		c0.2-2.2,1.8-3.1,3.7-3.4c2.4-0.5,4.6,0.2,6.7,1.6c0.8,0.5,1.8,1.7,2.8,0.4c1-1.4-0.1-2.5-1.2-3.2c-3.8-2.5-7.8-2.9-11.9-0.8
		C-412.8,332.6-414.1,334.7-414,337.6z"/>
	<path id="XMLID_395_" class="st0" d="M-349.2,280.3c4.4-0.9,3.5,2.2,3.5,4.6c0,1.8,0,3.6,0,5.5c0,2.6,0,5.1,0,7.7
		c0,1.4-0.2,3,1.9,3c1.9,0,1.7-1.6,1.7-2.8c0-3.9,0-7.7,0-11.6c0-2-0.8-4.4,0.4-5.9c0.9-1.2,3.2-0.3,4.9-0.4c1-0.1,1.7-0.5,1.7-1.5
		s-0.5-1.6-1.5-1.7c-1.1-0.1-2.2-0.1-3.2,0c-1.8,0.2-2.5-0.4-2.2-2.3c0.4-3.3,1.6-4.5,6-5.3c1-0.2,2-0.2,2-1.5
		c0-1.4-1.2-1.2-2.1-1.3c-5.1-0.2-8.7,2.4-9.3,7.3c-0.3,2.2-0.5,3.6-3.2,3.2c-1.1-0.2-1.9,0.5-1.9,1.7
		C-350.6,279.7-350,280.5-349.2,280.3z"/>
	<path id="XMLID_396_" class="st0" d="M-471.9,280.4c3-0.5,3.4,1,3.1,3.4c-0.2,1.4,0,2.8,0,4.2c0,1.6,0,3.2,0,4.8
		c0.1,5.8,2.5,8.2,8.2,8.4c1.2,0,2.6,0.4,2.7-1.4c0-1.5-1.4-1.3-2.4-1.4c-3.8-0.5-4.7-1.6-4.8-5.4c-0.1-2.8,0.2-5.6-0.1-8.4
		c-0.3-3.2,0.5-4.8,4-4.2c1.1,0.2,2.9,0.5,3-1.4c0.1-2.1-1.7-2-3.1-1.8c-3.2,0.5-4.5-0.7-3.9-3.9c0.1-0.6,0-1.3,0-1.9
		c-0.1-0.9-0.7-1.3-1.5-1.4c-0.9,0-1.8,0.2-1.9,1.2c-0.1,0.7-0.1,1.5-0.1,2.2c0.1,2.2,0.3,4.4-3.1,3.7c-1.1-0.2-1.8,0.6-1.7,1.8
		C-473.6,280.1-472.8,280.5-471.9,280.4z"/>
	<path id="XMLID_397_" class="st0" d="M-500.9,280.4c3-0.5,3.4,1,3.1,3.4c-0.2,1.4,0,2.8,0,4.2c0,1.6,0,3.2,0,4.8
		c0.1,5.8,2.5,8.2,8.2,8.4c1.2,0,2.6,0.4,2.7-1.4c0-1.5-1.4-1.3-2.4-1.4c-3.8-0.5-4.7-1.6-4.8-5.4c-0.1-2.8,0.2-5.6-0.1-8.4
		c-0.3-3.2,0.5-4.8,4-4.2c1.1,0.2,2.9,0.5,3-1.4c0.1-2.1-1.7-2-3.1-1.8c-3.2,0.5-4.5-0.7-3.9-3.9c0.1-0.6,0-1.3,0-1.9
		c-0.1-0.9-0.7-1.3-1.5-1.4c-0.9,0-1.8,0.2-1.9,1.2c-0.1,0.7-0.1,1.5-0.1,2.2c0.1,2.2,0.3,4.4-3.1,3.7c-1.1-0.2-1.8,0.6-1.7,1.8
		C-502.6,280.1-501.9,280.5-500.9,280.4z"/>
	<path id="XMLID_398_" class="st0" d="M-470.1,456.9c-0.9-1.2-1.9-0.2-2.8,0.3c-7.1,3.9-12.6,0.6-12.6-7.6s5.5-11.3,12.7-7.4
		c0.8,0.4,1.6,1.4,2.5,0.4c1-1.2,0.1-2.3-0.8-3c-2.7-2-5.8-2.8-9.1-2.1c-7.2,1.5-11,9.2-8.4,17.1c2.3,7.2,11.4,10,17.4,5.3
		C-470.2,459-469.2,458.1-470.1,456.9z"/>
	<path id="XMLID_399_" class="st0" d="M-494.8,406.9c0.1-1.6-1.3-1.3-2.4-1.5c-3.8-0.5-4.8-1.5-4.9-5.4c-0.1-2.1,0-4.3,0-6.4
		c0-1.9-0.5-4.2,0.3-5.6c0.8-1.3,3.2-0.3,4.8-0.5c1-0.1,1.7-0.4,1.8-1.4c0.1-1.2-0.7-1.7-1.8-1.8c-0.3,0-0.7-0.1-1,0
		c-3.9,0.8-4.9-1.1-4.3-4.5c0.1-0.5,0-1.1-0.1-1.6c-0.2-0.9-0.9-1.1-1.7-1.1s-1.5,0.3-1.7,1.2c-0.1,0.7-0.1,1.5-0.1,2.2
		c0,2.1,0.5,4.5-3.1,3.8c-1.1-0.2-1.8,0.6-1.8,1.7s0.8,1.6,1.7,1.4c3.5-0.7,3.2,1.5,3.1,3.7c0,1.3,0,2.6,0,3.9c0,1.6,0,3.2,0,4.8
		c0.1,5.8,2.5,8.2,8.2,8.4C-496.3,408.3-494.9,408.6-494.8,406.9z"/>
	<path id="XMLID_400_" class="st0" d="M-462.7,512.6c-3.4-0.1-4.8-2-4.8-5.2c0-2.8,0-5.6,0-8.4c0-4.3,0-4.3,4.4-4.4
		c1.2,0,2.6,0.3,2.6-1.5c0-1.9-1.5-1.7-2.8-1.7c-0.5,0-1.1-0.1-1.6,0c-2.2,0.4-2.7-0.6-2.7-2.7c0-1.6,1.2-4.3-1.6-4.4
		c-3.2-0.1-1.7,2.8-1.9,4.4c-0.1,1.7-0.1,3-2.4,2.6c-1.2-0.2-2.5-0.1-2.6,1.6c-0.1,1.8,1.4,1.7,2.5,1.6c2.1-0.3,2.5,0.7,2.4,2.6
		c-0.1,3.3-0.1,6.7,0,10c0.1,5.7,2.4,8,8.6,8.3c0.5,0,2,0.5,2.2-1.2C-460,512.4-461.6,512.6-462.7,512.6z"/>
	<path id="XMLID_401_" class="st0" d="M-431,333.9c2.1-0.3,2.5,0.6,2.5,2.5c-0.1,3.4-0.1,6.9,0,10.3c0.1,5.4,2.5,7.7,8.5,8
		c0.6,0,2.1,0.5,2.3-1.1c0.3-1.8-1.3-1.7-2.4-1.7c-3.4-0.1-4.8-2-4.8-5.1c0-3.4,0.1-6.9-0.1-10.3c-0.1-2.3,0.8-2.6,2.8-2.6
		c1.5,0,4.1,1.2,4.2-1.4c0.1-2.9-2.7-1.7-4.3-1.7c-2.1,0-2.7-0.6-2.7-2.7c0-1.6,1.4-4.5-1.8-4.4c-2.8,0.1-1.6,2.8-1.6,4.4
		c0,2-0.4,3-2.7,2.7c-1.1-0.2-2.3,0.1-2.3,1.5C-433.5,334-432.1,334-431,333.9z"/>
	<path id="XMLID_402_" class="st0" d="M-294.3,459c-3.4-0.1-4.8-2-4.8-5.2c0-3,0.2-6-0.1-9c-0.3-3.1,0.6-4.3,3.8-3.8
		c1.2,0.2,3.2,0.7,3.3-1.4c0.1-2.1-1.8-1.9-3.1-1.7c-3.3,0.5-4.4-0.8-3.9-4c0.2-1.2,0.6-3.1-1.6-3.2c-2.4-0.1-2,1.8-1.9,3.2
		c0.1,2.4,0.3,4.6-3.3,4c-0.9-0.2-1.6,0.5-1.7,1.5c0,1.1,0.6,1.7,1.6,1.6c3.8-0.7,3.4,1.8,3.4,4.2c0,1.2,0,2.4,0,3.5
		c0,1.6,0,3.2,0,4.8c0.1,5.7,2.6,8.1,8.3,8.3c1.1,0,2.4,0.3,2.6-1.2C-291.7,458.9-293.2,459-294.3,459z"/>
	<path id="XMLID_403_" class="st0" d="M-578.6,298.4c0,1.4,0.1,2.7,2,2.7c1.9,0,1.8-1.5,1.8-2.8c0-9.7,0-19.3,0-29
		c0-1.4,0-3.1-1.9-3.1c-1.9,0-1.8,1.7-1.8,3.1c0,4.8,0,9.7,0,14.5C-578.6,288.8-578.6,293.6-578.6,298.4z"/>
	<path id="XMLID_404_" class="st0" d="M-508.1,497.4c0-3,0-9.5,0-14.5c0-1.4-0.2-2.6-1.9-2.6s-1.9,1.5-1.9,2.9c0,9.8,0,19.6,0,29.4
		c0,1.3,0,2.7,1.9,2.7s1.9-1.8,1.9-3.1C-508,507.4-508,502.4-508.1,497.4C-508,497.4-508,497.4-508.1,497.4z"/>
	<path id="XMLID_405_" class="st0" d="M-287.1,330.5c-2.9,0.1-5,1.7-6.8,3.8c-0.1-0.5-0.2-0.7-0.3-0.9c-0.1-1.4,0.2-3.2-1.7-3.3
		c-2.1-0.1-1.9,1.8-1.9,3.4c0,5.9,0,11.8,0,17.7c0,1.4-0.6,3.3,1.8,3.4c2.5,0.1,1.8-1.9,1.9-3.3c0.1-2.8,0-5.6,0-8.4
		c0-6.6,1-7.8,7.6-9.2c1.1-0.2,2.3-0.5,2.1-1.9C-284.6,330.2-285.9,330.5-287.1,330.5z"/>
	<path id="XMLID_406_" class="st0" d="M-290.4,384c-2.9,0.1-5.2,1.5-7.4,4.2c0-1-0.1-1.4-0.1-1.8c0-1.4-0.1-2.9-1.8-2.8
		c-1.6,0.1-1.7,1.6-1.7,3c0,6.2,0,12.5,0,18.7c0,1.3-0.2,2.8,1.7,2.8c2.2,0.1,1.9-1.6,1.9-3c0-2.5,0-4.9,0-7.4c0-8,0.3-8.5,7.9-10.5
		c1-0.3,1.9-0.6,1.8-1.9C-288.1,383.9-289.3,384-290.4,384z"/>
	<path id="XMLID_505_" class="st0" d="M-331.1,298.9c0,1.4,0.3,2.3,2,2.3c1.5-0.1,1.6-1.1,1.6-2.3c0-2.8,0-5.6,0-8.4
		c0-7.7,0.5-8.4,7.9-10.3c1.1-0.3,2.1-0.7,1.8-2.1c-0.2-1.3-1.3-1.2-2.3-1.2c-2.9,0.1-5.3,1.4-7.4,4.2c-0.1-1-0.1-1.3-0.1-1.7
		c0-1.4-0.1-2.9-1.8-2.8c-1.7,0.1-1.7,1.6-1.7,2.9C-331.1,286-331.1,292.4-331.1,298.9z"/>
	<path id="XMLID_506_" class="st0" d="M-543.8,383.7c-1.7-0.1-1.9,1.3-1.9,2.7c0,6.3,0,12.7,0,19c0,1.3-0.1,2.8,1.8,2.8
		c2.2,0,1.9-1.6,1.9-3c0-3,0-6,0-9c0-3.2,0-6.4,0-9.7C-542,385.2-542.1,383.7-543.8,383.7z"/>
	<path id="XMLID_507_" class="st0" d="M-454.2,490.8c-1.5,0-1.8,1.2-1.8,2.5c0,6.6,0,13.1,0,19.7c0,1.3,0.2,2.4,1.9,2.4
		s1.8-1.1,1.8-2.4c0-3.2,0-6.4,0-9.7s0-6.7,0-10C-452.3,491.9-452.7,490.8-454.2,490.8z"/>
	<path id="XMLID_508_" class="st0" d="M-311,383.7c-1.5,0.1-1.8,1.3-1.7,2.6c0,3.1,0,6.2,0,9.4c0,3.3,0,6.7,0,10
		c0,1.4,0.1,2.7,2,2.6c1.7,0,1.7-1.3,1.7-2.5c0-6.4,0-12.9,0-19.3C-309,385-309.2,383.6-311,383.7z"/>
	<path id="XMLID_509_" class="st0" d="M-363.3,504.1c0,0.9,0,2,1.1,1.9c1.1,0,1.1-1.1,1.1-2c0.4-6.9,0.7-13.7,1.1-20.6
		c0.1-1.6-0.3-2.9-2.1-3c-2-0.1-2.4,1.4-2.4,3.1c0.2,3.3,0.4,6.6,0.5,10l0,0C-363.7,497-363.5,500.6-363.3,504.1z"/>
	<path id="XMLID_510_" class="st0" d="M-227.2,332.2c0.1,0.8,0.3,1.6,1.2,1.6c0.7,0,1.1-0.6,1.1-1.3c0.3-3.5,0.6-7,0.9-10.6
		c0.1-1.2-0.7-2.1-1.9-2.2c-1.4-0.1-2.2,0.8-2.2,2.2c0,1.3,0.2,2.6,0.4,4.7C-227.6,328-227.4,330.1-227.2,332.2z"/>
	<path id="XMLID_511_" class="st0" d="M-177.2,403.1c-1-0.4-1.9,0.2-2.5,1c-0.7,1.1-1,2.6,0,3.2c2.3,1.4,1.6,2.8,0.4,4.4
		c-0.6,0.7-0.6,1.4,0.1,1.9c0.9,0.6,1.4-0.2,1.8-0.7c1.5-1.7,2.1-3.7,2.1-5.7C-175.2,405.4-175.4,403.8-177.2,403.1z"/>
	<path id="XMLID_512_" class="st0" d="M-362,510c-1.7-0.1-2.6,0.8-2.6,2.5c-0.1,1.6,0.5,2.7,2.3,2.8c1.8,0.1,2.5-0.9,2.7-2.7
		C-359.8,511.4-360.2,510-362,510z"/>
	<path id="XMLID_513_" class="st0" d="M-543.7,373.3c-1.6,0-2.6,1-2.6,2.6c0,1.5,0.9,2.4,2.4,2.5c1.6,0,2.5-1,2.6-2.6
		C-541.5,374.3-542.3,373.3-543.7,373.3z"/>
	<path id="XMLID_514_" class="st0" d="M-188.6,402.9c-1.7-0.1-2.5,0.9-2.6,2.6c-0.1,1.6,0.6,2.7,2.4,2.8c1.8,0.1,2.5-0.9,2.6-2.5
		C-186.3,404.1-186.9,402.9-188.6,402.9z"/>
	<path id="XMLID_515_" class="st0" d="M-454,480.4c-1.6-0.1-2.6,1-2.6,2.6s1,2.6,2.6,2.5c1.5-0.1,2.2-1.1,2.3-2.7
		C-451.8,481.5-452.5,480.5-454,480.4z"/>
	<path id="XMLID_516_" class="st0" d="M-310.9,373.3c-1.5,0-2.4,1-2.4,2.4c0,1.6,0.9,2.6,2.5,2.6c1.5,0,2.3-0.9,2.4-2.5
		C-308.4,374.3-309.2,373.3-310.9,373.3z"/>
	<path id="XMLID_517_" class="st0" d="M-384,429.3c-0.1,1.7,0.9,2.6,2.5,2.7c1.4,0,2.3-0.9,2.5-2.4c0-1.6-0.9-2.6-2.5-2.7
		C-383,426.9-383.9,427.8-384,429.3z"/>
</g>
<path id="XMLID_10_" class="st1" d="M-580.7,357.2c-1,0-2-0.6-2.4-1.7c-0.5-1.3,0.2-2.8,1.5-3.3l104.9-39.1c1.3-0.5,2.8,0.2,3.3,1.5
	s-0.2,2.8-1.5,3.3L-579.8,357C-580.1,357.1-580.4,357.2-580.7,357.2z"/>
<path id="XMLID_13_" class="st1" d="M-457.5,357.2c-1,0-1.9-0.6-2.4-1.5c-0.6-1.3,0-2.8,1.3-3.4l87.2-39.1c1.3-0.6,2.8,0,3.4,1.3
	s0,2.8-1.3,3.4l-87.2,39.1C-456.7,357.1-457.1,357.2-457.5,357.2z"/>
<path id="XMLID_21_" class="st2" d="M-94,397.6c-42.6,0-77,34.5-77,77.1v95.7h154v-95.7C-17,432.1-51.4,397.6-94,397.6z"/>
<circle id="XMLID_20_" class="st3" cx="-93.7" cy="474.7" r="70.5"/>
<path id="XMLID_44_" class="st4" d="M-109.5,557.9"/>
<path id="XMLID_50_" class="st2" d="M-38.4,453.6l-110.7,0.3l-0.3-0.3c0-27.3,24.8-49.4,55.5-49.4S-38.4,426.4-38.4,453.6
	L-38.4,453.6z"/>
<circle id="XMLID_57_" class="st5" cx="-122.5" cy="476.8" r="19.1"/>
<path id="XMLID_18_" class="st5" d="M-144.6,476.8c-13.2-13.7-20.2-11.3-20.2-11.3"/>
<path id="XMLID_16_" class="st5" d="M-93.7,468.1c-7.1,0-9.7,6.7-9.7,6.7"/>
<circle id="XMLID_14_" class="st5" cx="-65" cy="476.8" r="19.1"/>
<path id="XMLID_9_" class="st5" d="M-45.9,476.8c13.2-13.7,20.2-11.3,20.2-11.3"/>
<path id="XMLID_6_" class="st5" d="M-93.7,468.1c7.1,0,9.7,6.7,9.7,6.7"/>
<path id="XMLID_5_" class="st2" d="M-78.6,518.4c0,9-7.1,16.6-15.8,16.6s-15.8-7.6-15.8-16.6H-78.6z"/>
<circle id="XMLID_22_" class="st3" cx="-486.7" cy="98.7" r="70.5"/>
<path id="XMLID_48_" class="st6" d="M-417,109.1c-1-1.3-2.4,1.4-4.2,0.1c-1.5,1.2-3.4-0.7-5.4,1.7c-0.5,0.6-1.3,0.9-2.1,0.7
	c-2.1-0.5-4.5,2.1-7,5.1c-0.1,0.2-0.3,0.4-0.3,0.6c-2.8,6.4-5.8,6-9,5.4c-0.6-0.1-1.3,0-1.8,0.4c-3.2,2.4-6.5,5.6-10,4.9
	c-0.5-0.1-1.1,0-1.6,0.2c-3.7,1.9-7.6,2.1-11.7,3.3c-0.3,0.1-0.6,0.2-0.8,0.4c-4.4,3.4-9-1.4-13.7,1.2c-4.8,2-9.5-0.1-14-1.5
	c-0.1,0-0.2-0.1-0.4-0.1c-4.5-0.7-8.9-0.5-13-3.9c-4-2.7-7.8-1.1-11.4-4.7c-0.4-0.3-0.8-0.6-1.3-0.6c-3-0.2-5.8-2-8.4-4.3
	c-0.7-0.6-1.6-0.7-2.4-0.3c-2.8,1.4-5.3-2.6-7.6-5.6c-2.4-3.6-4.4-3.7-6.2-3.1c-0.4,0.1-0.7,0.1-1.1,0c-1.6-0.3-2.9-0.2-3.8,0
	c-1.2,0.3-1.9,3.8-1.9,4.8c0,3.1,0.1,3.6,0.2,7.1c0.2,3.6,0.4,6.9,0.7,6.5c0.3,1,0.7-0.6,1.1,4c0.4,5.2,1,5.3,1.5,8.3
	c0,0.1,0,0.1,0,0.2c0.6,5.3,1.2,3.8,2,7.8c0.7,6.8,1.5,1.8,2.4,3.1c0.8,2.1,1.7,2.6,2.6,6.3c0.1,0.2,0.1,0.5,0.3,0.7
	c0.9,1.3,1.9,5.2,2.9,2.7c1.1,1.4,2.2-1,3.4,3.7c1.1,1.8,2.3-1.2,3.5,3.7c0.1,0.4,0.3,0.9,0.6,1.2c1.2,1.1,2.4,4.6,3.6,2.8
	c1,2.4,2.1,1.9,3.2,2.6c0.6,0.4,1.3,0.3,2,0.2c1.1-0.3,2.3,2.3,3.5,4c0.1,0.2,0.2,0.3,0.3,0.5c1.3,3.6,2.7,1.1,4.1,1.5
	c0.4,0.1,0.8,0,1-0.2c1.5-1.4,3.1,3.6,4.6,2.3c1.7-0.5,3.3-1.8,5.1,1.7c0.1,0.3,0.3,0.5,0.5,0.7c1.3,1.2,2.6,2.1,3.9,1.6
	c0.7-0.3,1.8,0,2.4,0.5c1.2,1.2,2.5,1.1,3.7,0.3c0.4-0.2,0.9-0.3,1.4-0.3c1.7,0.1,3.3-1.6,5-0.8c1.9,1.2,3.9-0.5,5.9,1.5
	c2,0.8,3.9,3.2,5.9,0.7c1.6-0.7,3.3-2.9,4.9-2.2c0.6,0.3,1.2,0.4,1.8,0.1c1.3-0.6,2.6-0.4,3.9-0.4c0.3,0,0.7,0.1,0.9,0.2
	c1.7,1,3.4-1.1,5-1.6c1.6-0.6,3.2-1.9,4.7-1.8c0.4,0,0.8-0.1,1.1-0.3c1.2-0.7,2.4-2,3.6-1.9c0.5,0,1,0,1.4-0.3
	c0.9-0.5,1.8-1.2,2.7-1.8c0.6-0.4,1.2-0.3,1.9-0.1c1.2,0.5,2.4-1.4,3.5-2.8c0.1-0.2,0.3-0.4,0.3-0.6c1.1-2.7,2.2-3.7,3.3-4.3
	c0.5-0.3,0.8-0.7,1-1.2c1.2-3.6,2.4-0.7,3.6-0.9c1.1,1.5,2.2-2.3,3.2-4.3c0.2-0.3,0.4-0.6,0.6-0.8c1-0.8,2-2.6,3-3.1s2-2.4,2.9-5.1
	c0.8,1.5,1.5-3.7,2.2-4.6c0.3-0.3,0.4-0.8,0.4-1.2c0.8-10.3,1.5-2.9,2.1-6.7c0.6,4.8,1.2-1.9,1.7-3c0.1-0.2,0.2-0.5,0.2-0.8
	c0.5-4.5,1-2.7,1.4-5.2c0.4-2.7,0.8-3.1,1.1-6.6c0.3-6.7,0.5-3,0.7-7.1c0.1,0.9,0.2-2.4,0.2-6.7C-415.2,109.3-415.8,108.5-417,109.1
	z M-476.5,151.4c-3.5,0-9.5,0-13.2,0c-2.3,0-4.5-0.6-6.5-1.8c-9-5.3-3.6-8.6,5.6-7.4c1.2,0.1,2.3,0.2,3.5,0.2h7.9c1,0,2,0,2.9-0.1
	c9.5-1.1,14.6,2.5,5.6,7.6C-472.4,150.9-474.4,151.4-476.5,151.4z"/>
</svg>
