<?xml version="1.0" encoding="utf-8"?>
<!-- Generator: Adobe Illustrator 19.0.0, SVG Export Plug-In . SVG Version: 6.00 Build 0)  -->
<svg version="1.1" id="hat" xmlns="http://www.w3.org/2000/svg" xmlns:xlink="http://www.w3.org/1999/xlink" x="0px" y="0px"
	 viewBox="-387.3 18.4 566.3 542.2" style="enable-background:new -387.3 18.4 566.3 542.2;" xml:space="preserve">
<style type="text/css">
	.st0{fill:#FFEB59;}
	.st1{fill:#FF0000;}
	.st2{fill:#DA4DEF;}
	.st3{fill:#5858A3;}
	.st4{fill:#999999;}
	.st5{fill:none;stroke:#DA4DEF;stroke-width:3;stroke-miterlimit:10;}
	.st6{fill:#D1903B;}
</style>
<g id="XMLID_1_">
	<g id="XMLID_7_">
		<path id="XMLID_39_" class="st0" d="M-168.9,124c0.8,0.1,1.7,0.1,1.8,1.2c0.1,1.1-0.5,1.6-1.5,1.7c-0.4,0-0.7,0.1-1.1,0.1
			c-3.8,0.3-5.5,2.5-5.1,6.3c0.1,0.7,0.4,0.8,1,0.8c1.3,0,2.7,0,4,0c1.1,0,1.8,0.5,1.8,1.6s-0.8,1.4-1.8,1.4c-1.2,0-2.5,0.1-3.7,0
			c-1-0.1-1.3,0.3-1.3,1.3c0,5.3,0,10.5,0,15.8c0,0.6,0.1,1.1-0.2,1.6c-0.4,0.7-1.1,1.1-2,0.9c-1-0.2-1.4-0.9-1.4-1.9
			c0-3.8,0-7.7,0-11.5c0-0.9,0-1.7,0-2.6c0-1.1,0.3-2.5-0.2-3.3s-2-0.2-3-0.3c-0.9-0.1-1.5-0.5-1.5-1.4c-0.1-1,0.5-1.5,1.4-1.6
			c0,0,0.1,0,0.2,0c1-0.1,2.3,0.4,2.9-0.2c0.5-0.6,0.2-1.8,0.4-2.8c0.6-3.9,3.2-6.4,7.1-6.8C-170.4,124.2-169.7,124.1-168.9,124z"/>
		<path id="XMLID_34_" class="st0" d="M-175.5,38.8c0,4.3,0,8.6,0,12.9c0,0.3,0,0.5,0,0.8c0,1.9-0.6,2.8-1.9,2.8
			c-1.2,0-1.8-0.9-1.8-2.8c0-2,0-4.1,0-6.1c0-6.9,0-13.9,0-20.8c0-0.5,0-0.9,0-1.4c0-1.1,0.6-1.9,1.8-1.9c1.2,0,1.9,0.7,1.9,2
			c0,2.3,0,4.6,0,6.9C-175.5,33.6-175.5,36.2-175.5,38.8z"/>
		<path id="XMLID_33_" class="st0" d="M-152.5,38.6c0,4.7,0,9.5,0,14.2c0,1.6-0.6,2.4-1.8,2.3c-1.4-0.1-1.9-1-1.9-2.3
			c0-9.5,0-18.9,0-28.4c0-1.3,0.4-2.2,1.8-2.3c1.2-0.1,1.8,0.8,1.8,2.4C-152.5,29.3-152.5,34-152.5,38.6z"/>
		<path id="XMLID_27_" class="st0" d="M-161.1,137.8c2-2.6,4.6-3.8,7.7-3.7c1,0,1.6,0.3,1.6,1.4c0,1-0.5,1.6-1.5,1.8
			c-0.7,0.1-1.4,0.2-2.1,0.3c-3.5,0.5-5.5,2.6-5.6,6.1c-0.1,3.7,0,7.4-0.1,11.2c0,1.6-1.3,2.5-2.6,1.8c-0.7-0.3-0.9-0.9-0.9-1.6
			c0-6.4,0-12.8,0-19.3c0-1.2,0.7-1.8,1.8-1.8c1.1,0,1.6,0.7,1.7,1.8C-161,136.4-161.1,137.1-161.1,137.8z"/>
		<g id="XMLID_3_">
			<path id="XMLID_4_" class="st0" d="M-146.9,106c1.4,0,1.9-1,2.3-2.1c2.1-5.9,4.1-11.7,6.2-17.6c1.3-3.6,2.6-7.2,3.8-10.8
				c0.4-1.1,0.2-2-1-2.4c-1.1-0.4-1.8,0.2-2.2,1.2c-0.1,0.2-0.1,0.4-0.2,0.6c-2.7,7.9-5.5,15.8-8.2,23.7c-0.2,0.5-0.4,1-0.7,1.9
				c-1.7-4.8-3.2-9.3-4.7-13.7c-1.4-4.1-2.9-8.2-4.3-12.3c-0.3-0.9-0.8-1.6-1.8-1.6s-1.6,0.6-1.9,1.5c-0.1,0.3-0.2,0.6-0.3,0.9
				c-2.7,7.7-5.5,15.5-8.2,23.2c-0.2,0.5-0.2,1.1-0.8,1.5c-0.2-0.6-0.5-1.2-0.7-1.9c-2.7-7.9-5.5-15.8-8.2-23.7
				c-0.4-1.2-1.1-1.9-2.4-1.4c-1.2,0.4-1.4,1.3-1,2.5c3.4,9.6,6.8,19.2,10.2,28.8c0.3,1,1,1.6,2,1.6s1.7-0.6,2-1.6
				c0.6-1.6,1.2-3.3,1.7-4.9c2.4-6.7,4.8-13.3,7.2-20.1c0.6,0.5,0.6,1,0.8,1.5c2.7,7.6,5.4,15.3,8.1,22.9
				C-148.7,104.9-148.3,105.9-146.9,106z"/>
			<path id="XMLID_59_" class="st0" d="M-91.4,139.8c-0.6-4.4-4.2-6.7-8.6-5.8c-2.6,0.5-4.5,1.9-5.9,4.2c-2.3-5.3-9.9-6-13.8-0.5
				c0-0.6,0-1.1,0-1.5c0-1.2-0.3-2.3-1.8-2.3c-1.4,0-1.8,1-1.8,2.3c0,6.1,0,12.2,0,18.4c0,1.5,0.7,2.3,1.9,2.2
				c1.4-0.1,1.7-1,1.7-2.2c0-3.4,0-6.8,0-10.2c0-1.5,0.1-2.9,0.8-4.3c1.2-2.4,3.9-3.6,6.6-3c2.2,0.5,3.2,2.1,3.3,5
				c0,0.5,0,0.9,0,1.4c0,3.5,0,7,0,10.6c0,2,0.5,2.8,1.8,2.8s1.8-0.8,1.8-2.7c0-3.3,0-6.6,0-9.9c0-1.5,0.2-3.1,1-4.4
				c1.3-2.2,3.9-3.3,6.5-2.7c2.1,0.5,3.2,2.1,3.2,4.9c0.1,2.3,0,4.6,0,6.9c0,2,0,4.1,0,6.1c0,1.2,0.7,1.8,1.8,1.8
				c1,0,1.8-0.5,1.7-1.5C-91.2,150.1-90.7,144.9-91.4,139.8z"/>
			<path id="XMLID_60_" class="st0" d="M67.3,53c0-3.3,0-6.6,0-9.9c0-1.2,0-2.4,0.5-3.6c1.1-3,4.1-4.6,7.5-4.1c2.6,0.4,3.8,2,4,5.5
				c0,0.7,0,1.4,0,2.1c0,3.5,0,6.9,0,10.4c0,1.1,0.6,1.7,1.6,1.8c1,0.1,1.9-0.4,1.9-1.5c0.1-5.1,0.4-10.2-0.2-15.3
				c-0.4-3.4-2.4-5.3-5.7-5.9c-3.8-0.7-7,0.4-9.4,3.7c-0.4-0.5-0.2-1-0.2-1.5c0-3.4,0-6.8,0-10.2c0-1.2-0.4-2.2-1.7-2.2
				c-1.3,0-1.9,0.8-1.9,2.1c0,9.6,0,19.2,0,28.8c0,1.3,0.5,2.1,1.8,2.1C66.9,55.2,67.3,54.3,67.3,53z"/>
			<path id="XMLID_61_" class="st0" d="M78,83.3c-3.9-0.8-7.1,0.3-9.8,4c0-4.3,0-8.2,0-12.1c0-1.2-0.4-2.2-1.7-2.2
				c-1.3,0-1.9,0.8-1.9,2.1c0,9.6,0,19.2,0,28.8c0,1.3,0.5,2.1,1.8,2.1c1.4,0,1.8-0.9,1.8-2.2c0-3.3,0-6.6,0-9.9
				c0-1.3,0-2.6,0.5-3.8c1.1-2.9,4.1-4.5,7.5-4c2.6,0.4,3.8,1.9,4,5.5c0,0.5,0,1,0,1.5c0,3.7,0,7.3,0,11c0,1.2,0.7,1.8,1.8,1.8
				c1.1,0,1.8-0.6,1.8-1.7c0-4.9,0.3-9.9-0.2-14.8C83.2,86,81.2,83.9,78,83.3z"/>
			<path id="XMLID_62_" class="st0" d="M-117.5,86.1c2.6,0.4,3.8,1.9,4,5.4c0,0.6,0,1.1,0,1.7c0,3.6,0,7.2,0,10.9
				c0,1.2,0.6,1.9,1.7,1.9c1,0,1.8-0.5,1.8-1.6c0.1-5,0.4-10-0.2-15c-0.4-3.5-2.4-5.5-5.7-6.1c-3.8-0.7-7,0.3-9.7,4
				c0-4.3,0-8.1,0-12c0-1.2-0.3-2.1-1.7-2.3c-1.2-0.1-1.9,0.7-1.9,2.2c0,9.5,0,19.1,0,28.6c0,1.5,0.7,2.3,1.9,2.2
				c1.4-0.1,1.7-1,1.7-2.3c0-3.3,0-6.5,0-9.8c0-1.3,0-2.5,0.5-3.8C-123.9,87.3-121,85.7-117.5,86.1z"/>
			<path id="XMLID_65_" class="st0" d="M92.9,54.3c3.8,1.8,7.4,1,10.6-2.5c0.3,0.6,0.1,1.2,0.2,1.8c0.2,1.1,0.8,1.7,1.9,1.6
				c1,0,1.6-0.6,1.6-1.7c0-4.7,0.1-9.5-0.1-14.2c-0.2-4.1-2.4-6.3-6.5-6.9c-3.6-0.5-7,0.3-10,2.3c-0.9,0.6-1.3,1.5-0.7,2.5
				c0.6,1,1.4,0.5,2.1,0.1c1.6-0.9,3.3-1.5,5.1-1.9c4.4-0.8,6.5,0.9,6.6,5.2c0,1.3-0.4,1.4-1.5,1.5c-3.2,0-6.4,0-9.5,1.2
				c-2.8,1-4,3.1-3.6,6C89.4,51.6,90.8,53.3,92.9,54.3z M92.7,48c0.1-1.7,0.9-2.5,3-3.1c0.3-0.1,0.6,0.4,0.9,0.4
				c1.4-0.2,2.7,0.3,3.9,0.3c0.5,0,0.7,0,0.9,0c2.6,0,2.6-0.6,2.2,2c-0.5,3.9-4.5,6.1-8.1,4.8C93.7,51.8,92.6,49.9,92.7,48z"/>
			<path id="XMLID_68_" class="st0" d="M-16.3,83.2c-3.6-0.5-7,0.3-10.1,2.3c-0.9,0.6-1.3,1.5-0.7,2.5s1.4,0.5,2.1,0.1
				c1.6-0.9,3.3-1.5,5.1-1.9c4.4-0.8,6.6,1,6.6,5.3c0,1.1-0.3,1.3-1.4,1.3c-3.3,0-6.5,0-9.6,1.1c-2.8,1-4,3-3.7,5.9
				c0.3,2.4,1.6,4,3.7,5.1c3.8,1.9,7.7,1,10.9-2.7c0,0.9,0,1.4,0,2c0.1,1.1,0.8,1.7,1.8,1.7s1.6-0.6,1.6-1.7c0-4.8,0.1-9.6-0.1-14.4
				C-10.1,85.9-12.2,83.8-16.3,83.2z M-19.5,103.2c-2.6,0-4.4-1.4-4.7-3.6c-0.2-1.9,0.5-3.1,2.3-3.6c2.6-0.8,5.3-0.7,8-0.7
				c0.4,0,0.6,0.2,0.6,0.6C-12.6,99.7-15.5,103.2-19.5,103.2z"/>
			<path id="XMLID_71_" class="st0" d="M-59.8,95c2.2,0.1,4.5,0,6.7,0s4.5,0,6.7,0c1.3,0,1.8-0.6,1.8-1.9c0.2-7.2-5.9-11.8-12.8-9.5
				c-7.1,2.3-9.8,12.9-4.7,18.7c3.2,3.7,7.5,4.2,12,3.2c1.7-0.4,3.3-1,4.6-2.2c0.7-0.7,0.9-1.5,0.3-2.3c-0.6-0.9-1.4-0.3-2,0
				c-1.1,0.5-2.1,1.1-3.2,1.5c-5.4,2-10-0.9-10.6-6.3C-60.9,95.2-60.7,94.9-59.8,95z M-60.7,91.8c0.3-3.2,3.1-5.7,6.5-5.7
				c3.8,0,6.1,1.8,6.5,5.4c0.1,0.8,0,1.1-0.9,1c-1.9-0.1-3.8,0-5.6,0c-1.9,0-3.8,0-5.6,0C-60.4,92.5-60.7,92.5-60.7,91.8z"/>
			<path id="XMLID_74_" class="st0" d="M94,95c2.2,0.1,4.5,0,6.7,0s4.5,0,6.7,0c1.4,0,1.9-0.6,1.9-1.9c0.1-7.2-6-11.7-12.8-9.4
				c-6.9,2.3-9.7,12.6-4.8,18.5c3.2,3.9,7.5,4.4,12.1,3.4c1.7-0.4,3.4-1,4.7-2.3c0.7-0.6,0.8-1.4,0.3-2.2c-0.6-0.9-1.3-0.5-2-0.1
				c-1,0.5-2.1,1.1-3.2,1.5c-5.4,2-10.2-0.9-10.6-6.4C93,95.2,93.1,94.9,94,95z M93.2,91.8c0.3-3.1,3-5.6,6.2-5.7
				c3.8-0.1,6.1,1.6,6.7,5c0.2,1,0.1,1.6-1.2,1.5c-1.7-0.1-3.5,0-5.2,0c-1.9,0-3.8,0-5.6,0C93.5,92.5,93.1,92.6,93.2,91.8z"/>
			<path id="XMLID_77_" class="st0" d="M16.4,94.9c2.2,0.1,4.5,0,6.7,0s4.4,0,6.6,0c1.4,0,1.9-0.6,1.9-1.9
				c0.1-7.2-5.9-11.7-12.8-9.5c-7,2.3-9.6,12.5-4.8,18.6c3.9,4.9,11.9,4.8,16.5,1.4c0.2-0.2,0.5-0.4,0.6-0.7c0.5-0.7,0.5-1.4,0-2
				c-0.5-0.7-1.2-0.4-1.8-0.1c-1.1,0.5-2.2,1.2-3.3,1.6c-5.3,2-10-0.7-10.6-6.2C15.2,95.3,15.3,94.9,16.4,94.9z M15.4,91.8
				c0.2-3.1,3-5.6,6.3-5.7c3.9-0.1,6.2,1.8,6.6,5.2c0.1,0.9,0,1.3-1,1.2c-1.8-0.1-3.7,0-5.5,0c-1.9,0-3.8,0-5.6,0
				C15.7,92.5,15.4,92.5,15.4,91.8z"/>
			<path id="XMLID_80_" class="st0" d="M-83.8,54.7c1.7-0.4,3.4-1,4.7-2.3c0.7-0.6,0.8-1.4,0.3-2.2c-0.6-0.9-1.3-0.5-2-0.1
				c-1,0.5-2.1,1.1-3.2,1.5c-5.4,2-10.2-0.9-10.6-6.4c-0.1-0.8,0.1-1.1,0.9-1c2.2,0.1,4.5,0,6.7,0s4.5,0,6.7,0
				c1.4,0,1.9-0.6,1.9-1.9c0.1-7.2-6-11.7-12.8-9.4c-6.9,2.3-9.6,12.6-4.8,18.5C-92.7,55.2-88.4,55.7-83.8,54.7z M-94.4,41
				c0.1-2.9,2.9-5.5,6-5.7c3.9-0.2,6.3,1.5,6.9,4.9c0.2,1.1,0.1,1.7-1.3,1.6c-1.7-0.1-3.5,0-5.2,0c-1.9,0-3.8,0-5.6,0
				C-94.1,41.7-94.5,41.8-94.4,41z"/>
			<path id="XMLID_83_" class="st0" d="M-85,100.9c-0.6-0.8-1.3-0.4-1.9-0.1c-1.1,0.5-2.2,1.2-3.3,1.6c-5.3,2-9.9-0.8-10.6-6.4
				c-0.1-0.9,0.1-1.1,1-1.1c2.2,0.1,4.5,0,6.7,0s4.5,0,6.7,0c1.3,0,1.8-0.6,1.8-1.9c0.2-7.2-5.8-11.7-12.6-9.6
				c-7.1,2.2-9.9,12.5-5,18.6c3.2,4,7.5,4.5,12.2,3.4c1.7-0.4,3.4-1,4.7-2.3C-84.5,102.5-84.4,101.7-85,100.9z M-100.6,91.8
				c0.3-3,2.9-5.5,6-5.7c3.9-0.2,6.3,1.5,6.9,5c0.2,1,0.2,1.6-1.2,1.5c-1.7-0.1-3.5,0-5.2,0c-1.9,0-3.8,0-5.6,0
				C-100.2,92.5-100.7,92.6-100.6,91.8z"/>
			<path id="XMLID_86_" class="st0" d="M-142.9,134.3c-4.6,1.4-7.3,5.4-7.2,11.1c0,0.5,0,1.2,0.1,1.8c0.7,5.7,4.7,9.4,10.3,9.5
				c5.7,0.1,9.7-3.5,10.6-9.2c0.2-1.6,0.2-3.2,0-4.7C-130.3,136.1-136.3,132.3-142.9,134.3z M-133,148.5c-0.8,3.5-3.1,5.3-6.7,5.3
				c-3.4,0-5.7-1.9-6.5-5.3c-0.5-2.4-0.5-4.8,0.3-7.1c1-3,3.2-4.4,6.4-4.4c3.1,0,5.2,1.5,6.2,4.5c0.4,1.3,0.6,2.6,0.5,3.9
				C-132.7,146.3-132.8,147.4-133,148.5z"/>
			<path id="XMLID_89_" class="st0" d="M-136.3,55.2c5.5,0.1,9.4-3.2,10.5-8.6c0.4-1.9,0.4-3.8,0-5.6c-1.2-6.6-7.2-10.2-13.6-8.3
				c-4.6,1.4-7.3,5.4-7.3,11c0.1,0.9,0.1,1.8,0.3,2.7C-145.5,51.8-141.6,55.1-136.3,55.2z M-142.6,40.1c0.9-3.2,3.1-4.8,6.4-4.8
				s5.5,1.6,6.4,4.8c0.3,1.1,0.5,2.3,0.4,3.5c0,1.1,0,2.2-0.3,3.3c-0.9,3.5-3.1,5.3-6.9,5.2c-3.3,0-5.6-2-6.3-5.4
				C-143.2,44.5-143.2,42.3-142.6,40.1z"/>
			<path id="XMLID_92_" class="st0" d="M-18.1,47.2c2.1-9.7-4-16.4-12.7-14.7c-4.9,1-8,5.3-8,11.5c0.1,3.3,1,6.6,4,9
				C-30,56.9-20,56-18.1,47.2z M-21.9,47.4c-0.9,3.2-3.1,4.8-6.4,4.8s-5.5-1.6-6.4-4.8c-0.3-1.2-0.4-2.4-0.5-3.6
				c0.1-1.1,0.1-2.1,0.4-3.2c0.9-3.5,3.1-5.2,6.6-5.2c3.4,0,5.7,1.8,6.5,5.2C-21.2,42.8-21.2,45.1-21.9,47.4z"/>
			<path id="XMLID_93_" class="st0" d="M3.2,51.2c0,0.9,0,1.4,0,1.9c0,1.2,0.4,2.1,1.7,2.1c1.4,0,1.8-0.9,1.8-2.1
				c0-6.2,0-12.4,0-18.7c0-1.2-0.5-2.2-1.8-2.1c-1.3,0-1.8,0.9-1.8,2.2c0,3.3,0,6.6,0,9.9c0,1.1,0,2.2-0.4,3.3
				c-1,3.1-3.9,4.9-7.3,4.4c-2.7-0.4-3.9-2.2-3.9-5.8c0-3.9,0-7.8,0-11.6c0-1.6-0.7-2.5-1.9-2.4c-1.4,0.1-1.8,1.1-1.7,2.4
				c0,4,0,8.1,0,12.1c0,1.2,0.1,2.3,0.5,3.5c0.8,2.6,2.5,4.2,5.2,4.8C-2.6,55.7,0.6,54.7,3.2,51.2z"/>
			<path id="XMLID_94_" class="st0" d="M-42.5,32.4c-1.1-0.5-1.7,0-2.2,0.9c-0.2,0.3-0.3,0.7-0.4,1c-2.4,5.4-4.8,10.7-7.3,16.4
				c-0.4-0.9-0.7-1.5-1-2.1c-2.2-4.9-4.4-9.9-6.5-14.8c-0.7-1.5-1.4-1.9-2.5-1.4c-1.4,0.7-1.2,1.7-0.6,2.8c2.8,6,5.5,11.9,8.3,17.9
				c0.4,0.9,0.4,1.6,0,2.4c-0.9,1.8-1.7,3.6-2.6,5.4c-0.4,0.9-0.4,1.7,0.6,2.2c1,0.6,1.8,0.1,2.3-0.8c0.2-0.3,0.3-0.6,0.5-1
				c1.8-4,3.7-7.9,5.5-11.9c2.3-4.9,4.5-9.8,6.8-14.7C-41.2,33.8-41.3,32.9-42.5,32.4z"/>
			<path id="XMLID_95_" class="st0" d="M133,83.2c-1.2-0.5-1.8,0.2-2.3,1.2c-0.8,1.8-1.6,3.6-2.4,5.4c-1.7,3.8-3.4,7.6-5.2,11.8
				c-2.6-5.8-5-11.3-7.4-16.8c-0.5-1.1-1.1-2.1-2.5-1.5c-1.3,0.5-1.4,1.3-0.7,2.9c2.7,6,5.5,11.9,8.3,17.9c0.4,0.8,0.4,1.5,0,2.3
				c-0.9,1.7-1.6,3.4-2.4,5.1c-0.5,1.1-0.8,2.1,0.6,2.7c1.3,0.5,1.9-0.3,2.3-1.3c4.2-9,8.4-18,12.6-27
				C134.3,84.6,134.2,83.7,133,83.2z"/>
			<path id="XMLID_96_" class="st0" d="M153.9,43.9c-2.4-1.1-5-1.4-7.4-2.2c-2.1-0.7-2.9-1.6-2.8-3.1c0.1-1.6,1.1-2.6,3-3.1
				c1.8-0.5,3.6-0.3,5.3,0.5c0.9,0.4,1.7,1,2.5,1.4c0.5,0.3,1,0.5,1.5,0s0.6-1.1,0.4-1.7c-0.2-0.5-0.5-0.9-0.9-1.2
				c-3.3-3.1-10.4-3-13.7,0.1c-2.9,2.8-2.2,7.2,1.4,9c1.1,0.5,2.2,0.8,3.3,1.1c1.8,0.4,3.6,0.7,5.3,1.5c0.9,0.4,1.6,1.1,1.6,2.2
				c0.1,1.2-0.4,2.1-1.4,2.7c-0.9,0.6-2,0.8-3,0.9c-2.8,0.2-5.2-0.6-7.5-2c-0.6-0.4-1.3-0.7-1.9,0.1c-0.5,0.7-0.4,1.5,0.1,2.1
				s1.1,1,1.8,1.4c2,1,4.2,1.4,6.4,1.6c1.8,0,3.5-0.3,5.1-0.9c1.4-0.6,2.6-1.5,3.3-2.8C157.9,48.6,156.8,45.3,153.9,43.9z"/>
			<path id="XMLID_97_" class="st0" d="M54.2,54.7c1.6-0.4,3.2-1.1,4.4-2.3c0.6-0.7,0.7-1.5,0.2-2.2c-0.6-0.8-1.3-0.4-1.9,0
				c-0.5,0.3-1,0.6-1.6,0.9C50,54,44.8,51.2,44.2,45.3c0-0.5,0-0.9-0.1-1.5c0-0.5,0-1.3,0.1-2c0.6-4.2,3.2-6.4,7.4-6.4
				c2,0,3.6,1,5.2,2c0.5,0.3,1.1,0.7,1.7,0.2c0.6-0.6,0.6-1.3,0.3-2c-0.2-0.6-0.7-1-1.2-1.3c-3-2-6.3-2.5-9.8-1.4
				c-5.8,1.7-8.8,8.2-6.9,15C42.6,53.5,48.1,56.4,54.2,54.7z"/>
			<path id="XMLID_98_" class="st0" d="M59.6,103.2c-0.6-0.1-1.1-0.2-1.7-0.2c-2.6-0.1-3.9-1.3-4-4c-0.1-3.9,0-7.7-0.1-11.6
				c0-0.7,0.2-1,1-0.9c1.3,0.1,2.5,0,3.8,0c1,0,1.9-0.3,1.9-1.5s-0.8-1.6-1.9-1.6c-1.2,0-2.3-0.1-3.5,0c-0.9,0.1-1.3-0.2-1.2-1.2
				c0.1-1.3,0-2.5,0-3.8c0-1.2-0.8-1.9-2.1-1.8c-1.2,0-1.8,0.8-1.8,1.9c0,0.8,0,1.6,0,2.4c0,2.4,0.1,2.4-2.3,2.4c-0.2,0-0.3,0-0.5,0
				c-1,0.1-1.6,0.6-1.6,1.6s0.7,1.4,1.6,1.4c0.6,0,1.1,0.1,1.7,0c1.1-0.1,1.5-0.1,1.5,1.1c-0.1,1.8,0,3.1,0,5.1h0.1
				c0,3-0.2,4.6,0,6.8c0.4,4.4,4.9,7.5,9.2,6.4c0.7-0.2,1.3-0.5,1.2-1.4C60.8,103.6,60.3,103.3,59.6,103.2z"/>
			<path id="XMLID_99_" class="st0" d="M-114.1,53c0.5,1,1.1,1.8,2.2,1.8c1.2,0,1.8-0.8,2.2-1.8c1.4-3,2.8-6,4.2-9
				c1.5-3.1,2.9-6.2,4.4-9.3c0.5-1,0.4-1.8-0.6-2.3c-1.1-0.6-1.8-0.1-2.4,0.9c-0.2,0.4-0.3,0.7-0.5,1.1c-2.4,5.2-4.7,10.4-7.2,15.9
				c-0.4-0.8-0.6-1.2-0.8-1.7c-2.3-5-4.5-10-6.8-15c-0.5-1-1.2-1.7-2.4-1.2c-1.3,0.5-1.4,1.4-0.8,2.6C-119.7,41-116.9,47-114.1,53z"
				/>
			<path id="XMLID_100_" class="st0" d="M-74.7,124.1c-0.9-0.2-1.9-0.3-2.7-0.4c-3.8,0.2-7.1,1.2-9.9,3.6c-0.9,0.8-1.4,1.8-0.6,2.8
				c0.8,1.1,1.7,0.2,2.5-0.3c0.7-0.5,1.3-0.9,2-1.4c1.9-1.2,3.9-1.7,6.1-1.6c3.5,0.2,5.3,2.7,4.4,6.1c-0.2,0.8-0.6,1.6-1.1,2.3
				c-1.1,1.5-2.2,3-3.3,4.6c-1.5,2.1-2.4,4.4-2.3,7c0,0.7,0.1,1.4,1,1.5s1.2-0.4,1.3-1.2c0.2-2.3,1.4-4.1,2.8-5.9
				c1.5-2,3.3-3.7,4.6-5.9C-67.4,130.7-69.6,125.4-74.7,124.1z"/>
			<path id="XMLID_101_" class="st0" d="M136,32.5c-3.1,0-5.7,1.1-7.6,3.8c0-0.5,0-1.1,0-1.6c0-1.5-0.7-2.4-1.8-2.4
				c-1.4,0.1-1.8,1.1-1.8,2.4c0,6.1,0,12.1,0,18.2c0,1.6,0.7,2.5,1.9,2.4c1.5-0.1,1.7-1.1,1.7-2.4c0-3.6-0.1-7.1,0-10.7
				c0.1-3.6,2.1-5.7,5.6-6.3c0.7-0.1,1.4-0.2,2.1-0.3c1-0.2,1.5-0.7,1.5-1.8C137.6,32.7,136.9,32.5,136,32.5z"/>
			<path id="XMLID_102_" class="st0" d="M15.5,55.2c1.3,0,1.8-0.7,1.8-2.4c0-3.5-0.1-7,0-10.5c0.1-3.7,2.1-5.8,5.7-6.4
				c0.7-0.1,1.3-0.2,2-0.2c1.1-0.1,1.6-0.7,1.6-1.8c-0.1-1.1-0.8-1.3-1.7-1.3c-3.1,0-5.6,1.1-7.6,3.7c0-0.5,0-1,0-1.5
				c0-1.2-0.2-2.3-1.7-2.5c-1.1-0.1-1.9,0.8-1.9,2.4c0,6,0,12,0,18C13.7,54.4,14.3,55.2,15.5,55.2z"/>
			<path id="XMLID_103_" class="st0" d="M8.5,83.3c-3.2,0-5.8,1-7.8,3.8c0-0.5,0-1.1,0-1.6c0-1.6-0.7-2.4-1.8-2.4
				c-1.4,0.1-1.8,1.1-1.8,2.4c0,6.1,0,12.1,0,18.2c0,1.6,0.7,2.5,1.9,2.4c1.5-0.1,1.7-1.1,1.7-2.4c0-3.5-0.1-6.9,0-10.4
				c0.1-3.8,2-6,5.7-6.6c0.8-0.1,1.5-0.1,2.3-0.3c0.9-0.2,1.4-0.8,1.3-1.8C10,83.6,9.4,83.3,8.5,83.3z"/>
			<path id="XMLID_104_" class="st0" d="M-67.7,83.3c-3.1,0-5.6,1.2-7.3,3.8c-0.4-0.6-0.2-1.1-0.2-1.6c0-1.2-0.2-2.3-1.7-2.5
				c-1.2-0.1-1.9,0.8-1.9,2.4c0,6,0,12,0,18c0,1.7,0.6,2.5,1.8,2.5c1.2,0,1.8-0.7,1.8-2.4c0-3.6-0.1-7.1,0.1-10.7
				c0.1-3.5,2.1-5.7,5.5-6.2c0.7-0.1,1.4-0.2,2.1-0.3c1-0.1,1.6-0.7,1.6-1.7C-66,83.5-66.7,83.3-67.7,83.3z"/>
			<path id="XMLID_105_" class="st0" d="M116,32.3c-1.3,0-1.9,0.8-1.9,2.1c0,6.3,0,12.5,0,18.8c0,1.3,0.6,2.1,1.9,2
				c1.3,0,1.7-0.9,1.7-2.1c0-3.1,0-6.2,0-9.3s0-6.2,0-9.3C117.7,33.2,117.3,32.3,116,32.3z"/>
			<path id="XMLID_106_" class="st0" d="M163.4,44.9c0,0.8,0.1,1.7,1.1,1.7s1.1-0.9,1.1-1.7c0.2-3.4,0.4-7.2,0.5-10.2l0,0
				c0.2-3,0.4-6.7,0.5-10c0.1-1.6-0.9-2.5-2.3-2.4c-1.3,0-2.2,1-2.1,2.5C162.7,31.4,163,38.1,163.4,44.9z"/>
			<path id="XMLID_107_" class="st0" d="M164.6,50c-1.4-0.1-2.6,1.1-2.6,2.6c0,1.4,1.1,2.6,2.4,2.6c1.4,0,2.5-1.1,2.5-2.5
				C167,51.2,166,50,164.6,50z"/>
			<path id="XMLID_108_" class="st0" d="M-78.5,151.6c-1.3-0.1-2.5,1-2.6,2.5c-0.1,1.4,0.9,2.6,2.3,2.7c1.3,0.1,2.5-0.9,2.6-2.4
				S-77.1,151.7-78.5,151.6z"/>
			<path id="XMLID_109_" class="st0" d="M115.9,27.3c1.4,0,2.4-0.9,2.5-2.1c0.1-1.4-0.9-2.4-2.3-2.4c-1.3,0-2.4,0.9-2.5,2.1
				C113.5,26.2,114.5,27.3,115.9,27.3z"/>
		</g>
	</g>
</g>
<g id="XMLID_12_">
	<path id="XMLID_307_" class="st0" d="M-355.1,310c-1.4,0-2,1-2,2.4c0,10,0,20,0,30c0,1.4,0.6,2.4,2,2.4c5.3-0.1,10.7,0.7,16-0.5
		c4.4-1,6.7-3.5,7.2-7.6c0.5-4.5-1.2-7.4-5.8-9.7c4.3-2.4,5.9-5.9,4.8-10.4c-1-4.2-4.2-6-8-6.3C-345.6,309.8-350.3,310-355.1,310z
		 M-335.4,335.5c-0.1,3.1-1.6,5-4.6,5.7c-2.2,0.6-4.5,0.2-6.4,0.3c-7,0-7,0-7-6.6c0-6.3,0-6.3,6.4-6.2c2.4,0,4.9-0.3,7.3,0.5
		C-336.5,330.2-335.4,332.4-335.4,335.5z M-336.2,319.7c-0.2,3.3-2.5,5.5-6.2,5.7c-1.5,0.1-3,0-4.5,0c-6.5,0-6.5,0-6.5-6.5
		c0-5.8,0-5.8,5.9-5.8c1.8,0,3.7-0.1,5.5,0.1C-338,313.7-336.1,316-336.2,319.7z"/>
	<path id="XMLID_311_" class="st0" d="M-260.1,404.1c-2.2-0.1-4.1-1-6.1-1.9c-0.8-0.4-1.8-1.2-2.5,0.1c-0.6,1.2,0.1,2,1,2.7
		c2.6,1.7,5.5,2.3,8.5,2.4c7.1,0.1,10.9-3.5,11-10.5c0.1-4.4,0-8.8,0-13.2c0-2.5,0-4.9,0-7.4c0-1.2-0.4-2.2-1.7-2.4
		c-1.3-0.2-1.9,0.8-2,2c-0.1,0.6-0.1,1.2-0.1,1.9c-5.7-5-11.2-5.2-15.4-0.8c-4.1,4.4-4.1,13.1,0.1,17.5c4.2,4.4,9.8,4.2,15.5-0.9
		c0,1,0,1.9,0,2.7C-251.7,402.1-254.3,404.5-260.1,404.1z M-259.2,394.5c-4.6,0-7.3-3.2-7.4-8.7c0-5.4,2.7-8.7,7.3-8.7
		c4.7-0.1,7.4,3.1,7.5,8.5C-251.8,391.2-254.5,394.5-259.2,394.5z"/>
	<path id="XMLID_312_" class="st0" d="M-9.4,428c-3.3-1.2-6.3-0.5-9,1.7c-0.7,0.6-1.3,1.4-2,2.1c-4.1-5.7-8.8-5.9-14.5-0.7
		c-0.3-1.7,0.1-3.6-2.1-3.6c-1.1,0-1.7,0.9-1.7,2c0,6.9,0,13.8,0,20.6c0,1.1,0.5,1.8,1.7,1.9c1.4,0.1,1.9-0.7,1.9-2
		c0-3.1,0-6.2,0-9.4c0-1.3,0-2.6,0.1-3.9c0.5-4.1,3.2-6.4,6.9-6.1c3.2,0.2,4.4,2,4.5,6.6c0,4,0,8,0,11.9c0,1.3-0.2,2.8,1.7,2.8
		c2.1,0.1,2-1.6,2-2.9c0-4.1-0.1-8.2,0.1-12.3c0.2-3.9,2.9-6.3,6.5-6.2c3.3,0.1,4.7,1.9,4.7,6.3c0.1,4.2,0,8.4,0,12.6
		c0,1.2,0,2.5,1.7,2.5c1.6,0.1,2-1,2-2.3c0-5.1,0.1-10.1-0.2-15.2C-5.1,431.6-6.3,429.1-9.4,428z"/>
	<path id="XMLID_315_" class="st0" d="M-341.5,286.9c1.5,7.9-2.7,11.9-10.3,9.7c-1.1-0.3-2.2-0.9-3.3-1.2c-1-0.3-2.2-1.8-3-0.1
		c-0.7,1.5,0.5,2.4,1.7,3c3.5,1.8,7.3,2.5,11.2,1.7c4.7-1,7.3-3.6,7.5-8.3c0.3-7.5,0.2-15,0.2-22.5c0-1.2-0.5-2.2-1.8-2.3
		c-1.3-0.1-1.8,0.9-2,2.1c-0.1,0.5-0.1,1-0.2,1.6c-6-4.8-11.4-5-15.4-0.4c-4,4.5-3.9,13.2,0.3,17.5
		C-352.4,291.8-346.7,291.5-341.5,286.9z M-348.5,269.9c4.7,0,7.3,3.1,7.3,8.6c0,5.6-2.6,8.7-7.2,8.8c-4.8,0-7.6-3.2-7.5-8.8
		C-355.9,273.1-353.2,269.9-348.5,269.9z"/>
	<path id="XMLID_316_" class="st0" d="M-61.5,276.4c0,4.2,0,8.4,0,12.6c0,1.3,0.2,2.4,1.9,2.4c1.4,0,1.8-1,1.8-2.1
		c0-5.3,0.4-10.5-0.3-15.8c-0.4-3.2-2-5.7-5.4-6.4c-4.3-1-7.4,0.9-9.9,4.2c-4.1-5.7-9-6-14.3-0.7c-0.5-1.5,0.1-3.7-2.1-3.6
		c-2.4,0.1-1.8,2.3-1.8,3.8c0,5.8,0,11.6,0,17.4c0,1.4-0.5,3.3,1.9,3.3c2.2-0.1,1.7-1.8,1.7-3.2c0.1-4-0.1-8,0.1-11.9
		c0.3-4.1,3-6.5,6.7-6.3c3.2,0.2,4.5,1.9,4.5,6.5c0,4.2,0,8.4,0,12.6c0,1,0.1,2,1.3,2.3c0.6,0.2,1.3,0.1,1.8-0.4
		c0.7-0.7,0.6-1.6,0.6-2.4c0-4.1-0.1-8.2,0.1-12.2s3-6.5,6.7-6.3C-62.8,270.1-61.5,271.9-61.5,276.4z"/>
	<path id="XMLID_317_" class="st0" d="M-202.8,291.3c1.1,0,1.6-0.6,1.6-1.6c0.1-1.1,0-2.1,0.1-3.2c0.1-3.8-0.1-7.5,0.3-11.2
		c0.4-3.7,3.3-5.6,6.8-5.3c2.9,0.3,4.2,2,4.2,6.1c0,4.2,0,8.4,0,12.6c0,1.3,0,2.7,1.9,2.7c1.9,0,1.8-1.5,1.8-2.8
		c0-4.1-0.1-8.2,0.1-12.2c0.2-4,3-6.5,6.6-6.3c3.2,0.1,4.5,1.9,4.6,6.4c0.1,4.2,0,8.4,0,12.6c0,1.3,0.2,2.4,1.9,2.4
		c1.4,0,1.8-0.9,1.8-2.1c0-5.2,0.1-10.3-0.2-15.5c-0.1-2.9-1.5-5.4-4.5-6.5c-3.2-1.2-6.1-0.5-8.7,1.6c-0.8,0.6-1.4,1.5-2.1,2.2
		c-4.2-5.6-9-5.9-14.3-0.6c-0.5-1.6,0-3.6-2.1-3.7c-1.1,0-1.7,0.8-1.7,1.9c0,7,0,14,0,20.9C-204.7,290.8-203.9,291.3-202.8,291.3z"
		/>
	<path id="XMLID_318_" class="st0" d="M-261.4,327.4c0,4.8,0,9.7,0,14.5c0,2,0.8,3,2.9,2.9c5.5-0.1,11,0,16.4,0
		c1.1,0,2.3-0.1,2.4-1.5c0.1-1.7-1.2-1.7-2.5-1.7c-4.1,0-8.2-0.2-12.2,0.1c-2.8,0.2-3.5-0.8-3.2-3.4c0.2-2.3,0.2-4.7,0-7.1
		c-0.1-1.9,0.4-2.6,2.4-2.5c4,0.2,7.9,0.1,11.9,0c1.2,0,2.6,0.2,2.6-1.6c0-1.7-1.3-1.7-2.6-1.7c-4.1,0-8.2-0.1-12.2,0
		c-1.7,0.1-2.2-0.5-2.1-2.2c0.1-2.6,0.2-5.2,0-7.7c-0.2-2.2,0.7-2.5,2.6-2.4c4.2,0.1,8.4,0,12.6,0c1.3,0,2.9,0.3,2.8-1.7
		c-0.1-1.6-1.5-1.5-2.7-1.5c-5.3,0-10.5,0.1-15.8,0c-2.4,0-3.2,1-3.2,3.3C-261.3,317.9-261.4,322.6-261.4,327.4z"/>
	<path id="XMLID_321_" class="st0" d="M-128.1,420.7c0-1.5,0.4-3.5-1.8-3.5c-2.5,0-1.8,2.2-1.9,3.6c-0.1,3.4,0,6.9,0,11.1
		c-1.8-2-3.1-3.4-5-4c-3.9-1.2-7.3-0.5-10,2.4c-4,4.3-4.1,9.5-2.4,14.8c1.2,3.7,3.7,6.2,7.7,6.8c0.2,0,0.4,0,0.6,0.1
		c3.6,0.4,6.6-0.8,8.8-4c0.6,1.8-0.4,4,2,4c2.6,0,1.9-2.2,1.9-3.6C-128,439.1-128.1,429.9-128.1,420.7z M-137.9,448.9
		c-3.7,0.6-6.8-1.3-7.9-4.9c-0.8-2.5-0.8-5.1-0.2-7.6c0.9-3.7,3.4-5.8,7.1-5.7c3.7,0,6,2,6.9,5.9c0.2,1,0.3,2.1,0.4,2.8
		C-131.7,445-133.8,448.3-137.9,448.9z"/>
	<path id="XMLID_322_" class="st0" d="M-157,341.9c3.2,2.1,6.8,3.1,10.7,3c1.2-0.1,2.4,0,3.5-0.2c5-0.7,8.8-4.2,9.2-8.5
		c0.4-4.6-1.7-7.2-7.3-9c-2.9-0.9-5.8-1.6-8.6-2.5s-5.1-2.5-4.7-6c0.3-2.9,2.3-4.9,5.7-5.6c4.4-0.8,8.3,0.1,11.8,2.9
		c0.7,0.5,1.5,1.6,2.4,0.5c0.9-1,0.6-2-0.4-2.8c-0.7-0.6-1.5-1.3-2.3-1.7c-4.2-2.4-8.8-2.7-13.4-1.5c-4.8,1.3-7.6,4.7-7.6,9.1
		c-0.1,4.3,2,6.9,7.2,8.6c2.9,1,6,1.6,8.9,2.6c2.5,0.8,4.8,2,4.6,5.3c-0.2,2.9-2.1,4.9-5.4,5.5c-4.5,0.9-8.7,0-12.6-2.5
		c-0.9-0.6-1.9-2.4-3.1-0.6C-159.5,340.1-158.1,341.2-157,341.9z"/>
	<path id="XMLID_325_" class="st0" d="M-230,481c-2.2,0-1.6,2.1-1.8,3.5c0,0.1-0.3,0.2-0.4,0.2c-4.5-4.6-10-5.2-14.2-1.2
		c-3.3,3.2-4,7.2-3.6,11.6c0.4,4.5,2.1,8.3,6.6,9.8c4.3,1.5,8.3,0.8,11.7-3.9c0,4.4,0,7.8,0,11.2c0,1.2,0.6,2.1,1.9,2.1
		c1.1-0.1,1.7-0.9,1.7-2c0-0.5,0-1.1,0-1.6c0-8.7,0-17.4,0-26.1C-228.1,483.2-227.6,481-230,481z M-240.7,502.3
		c-2.2-0.4-3.8-1.6-4.6-3.6c-1.5-3.6-1.6-7.3,0.1-10.9c1.4-2.8,3.8-3.9,6.9-3.7c2.9,0.2,4.8,1.7,5.8,4.4c0.6,1.5,0.7,3.1,0.8,4.7
		C-231.7,499.8-235.3,503.4-240.7,502.3z"/>
	<path id="XMLID_326_" class="st0" d="M-187.4,439.3c0,0.6,0,1.3,0,1.9c0,2.7,0,5.4,0,8.1c0,1.4,0,2.7,1.9,2.6
		c1.7-0.1,1.7-1.3,1.7-2.6c0-6.2-0.1-12.5,0-18.7c0-2.2-0.8-2.8-2.9-2.8c-3.2,0.1-6.4-0.1-9.7,0.1c-1.9,0.1-2.1-0.7-2-2.3
		c0.3-3.3,1.6-4.7,5.6-5.4c1.1-0.2,2.4,0,2.2-1.6s-1.5-1.2-2.5-1.2c-5.1,0-8.3,2.8-8.8,7.9c-0.2,1.7-0.3,2.9-2.5,2.5
		c-1.2-0.2-2.5,0-2.5,1.7c0,1.8,1.5,1.6,2.6,1.5c1.9-0.2,2.3,0.6,2.3,2.3c-0.1,5.2,0,10.3,0,15.5c0,1.4-0.2,3,1.9,2.9
		c1.9-0.1,1.7-1.6,1.7-2.9c0-5.3,0-10.5,0-15.8c0-1.1-0.2-2,1.5-2.1C-187.4,430.2-187.4,430.1-187.4,439.3z"/>
	<path id="XMLID_327_" class="st0" d="M-372.8,396c0.5,1.1,0.8,2.5,2.6,2.5c1.7,0,2.1-1.2,2.6-2.4c4-9,8-18,12-27.1
		c0.5-1.1,1-2.1,1.4-3.3c0.3-0.9,0.1-1.8-0.9-2.2c-1-0.4-1.9-0.2-2.4,0.8c-0.4,0.9-0.8,1.8-1.2,2.6c-3.7,8.6-7.4,17.1-11.4,26.4
		c-4.2-9.7-8.1-18.8-12-27.8c-0.6-1.3-1.1-2.9-2.9-2.1c-1.9,0.8-1,2.2-0.4,3.5C-381.2,376.7-377,386.3-372.8,396z"/>
	<path id="XMLID_328_" class="st0" d="M-176.2,391.9c-1.2-1.7-2.2,0.3-3.2,0.8c-0.7,0.3-1.3,0.8-1.9,1.2c-7.5,4.1-15.7,0.5-17.4-7.9
		c-0.9-4.5-0.9-9,1-13.3c1.5-3.5,4.2-5.5,8-6.1c4.2-0.7,7.8,0.6,11.1,3.1c0.7,0.6,1.6,1.4,2.4,0.2c0.6-0.9,0.3-1.9-0.4-2.6
		c-0.4-0.4-0.8-0.7-1.2-1c-9.1-6.8-21.9-2.3-24.7,8.6c-1,4.1-1,8.3,0.1,12.4c2,7.2,7.1,11.1,14.9,11.1c3.3,0.2,6.7-0.8,9.7-2.9
		C-176.5,394.7-175,393.6-176.2,391.9z"/>
	<path id="XMLID_329_" class="st0" d="M-71.8,434.2c-0.4-5.1-4.8-7.8-9.8-6.7c-2.3,0.5-4.3,1.7-6.4,4.3c0-4.7,0-8.3,0-12
		c0-1.4-0.1-2.8-1.9-2.8c-1.7,0.1-1.8,1.5-1.8,2.9c0,9.8,0,19.5,0,29.3c0,1.3,0,2.7,1.9,2.7s1.8-1.5,1.8-2.8c0-4.1-0.1-8.2,0.1-12.2
		c0.3-4.1,3.3-6.5,7.4-6.4c3.6,0.1,5.1,2,5.1,6.6c0,4.2,0,8.4,0,12.6c0,1.1,0.3,2.1,1.8,2.2c1.4,0.1,1.9-0.7,1.9-2
		C-71.6,444.7-71.4,439.5-71.8,434.2z"/>
	<path id="XMLID_330_" class="st0" d="M-149.6,396.5c0-5.3,0.2-10.5-0.3-15.8c-0.4-5.1-4.7-7.8-9.7-6.8c-2.4,0.5-4.3,1.6-6.4,4.4
		c0-4.7,0-8.3,0-12c0-1.4-0.1-2.8-1.8-2.8s-1.9,1.4-1.9,2.8c0,9.8,0,19.5,0,29.3c0,1.3-0.1,2.7,1.8,2.7c1.9,0,1.8-1.4,1.8-2.7
		c0-4-0.1-7.9,0.1-11.9c0.2-4.3,3.2-6.9,7.4-6.7c3.8,0.1,5.2,2,5.2,6.9c0,4.1,0,8.2,0,12.2c0,1.1,0.2,2.2,1.7,2.2
		C-150.2,398.5-149.6,397.8-149.6,396.5z"/>
	<path id="XMLID_331_" class="st0" d="M-59.2,312.2c0,10.2,0,20.4,0,30.6c0,0.9,0.2,1.7,1.2,2c0.7,0.2,1.6,0.3,2-0.5
		c0.3-0.6,0.4-1.4,0.4-2.2c0.1-4.1-0.1-8.2,0.2-12.2c0.3-4.1,3.3-6.5,7.4-6.4c3.6,0.1,5.1,2,5.2,6.7c0,4.2,0,8.4,0,12.6
		c0,1.2,0.3,2.1,1.8,2.2c1.4,0,1.9-0.9,1.9-2c0-5.3,0.1-10.5-0.3-15.8c-0.3-3.8-2.5-5.9-6-6.6c-3.9-0.8-7.1,0.6-10.1,4.1
		c0-4.6,0-8.3,0-12.1c0-1.3-0.3-2.5-1.8-2.5C-58.7,310-59.2,311-59.2,312.2z"/>
	<path id="XMLID_332_" class="st0" d="M-52.6,373.8c-1.6,5.2-1.5,10.4,0.5,15.5c3.7,9.4,16.6,12.5,24.3,5.9c0.4-0.3,0.8-0.7,1.1-1.1
		c0.5-0.8,0.6-1.6-0.1-2.4s-1.4-0.2-2,0.2c-0.5,0.3-1,0.8-1.6,1.1c-8.5,5.7-17.7,1.5-19.2-8.5c-0.2-1.2-0.2-2.4-0.3-4.1
		c0.2-1.4,0.3-3.4,0.8-5.2c1.6-6.4,6.4-9.6,13-8.7c2.8,0.4,5,1.8,7.2,3.3c0.7,0.5,1.4,1.2,2.2,0.2c0.6-0.8,0.5-1.7-0.1-2.4
		c-0.4-0.5-0.9-0.9-1.4-1.3C-36.7,359.7-49.4,363.6-52.6,373.8z"/>
	<path id="XMLID_333_" class="st0" d="M-257.6,288.3c0,1.4-0.3,3.1,1.9,3s1.7-1.8,1.7-3.1c0.1-4-0.1-8,0.2-11.9
		c0.3-4.1,3.4-6.5,7.5-6.3c3.6,0.2,5.1,2,5.1,6.7c0,4.2,0,8.4,0,12.6c0,1.2,0.4,2.1,1.8,2.1c1.4,0,1.9-0.8,1.9-2
		c0-5.2,0.1-10.3-0.2-15.4c-0.3-4.1-3.1-6.3-6.9-7s-5.3,0.8-10.3,4.2c0-4.2,0-7.8,0-11.4c0-1.4,0.6-3.1-1.3-3.1
		c-1.9,0-1.6,1.7-1.6,3.2C-257.9,269.2-257.6,278.8-257.6,288.3z"/>
	<path id="XMLID_336_" class="st0" d="M-250.8,435.5c-0.1-3.6-1.5-6.5-5.3-7.6c-4.6-1.3-8.7-0.3-12.4,2.5c-0.8,0.6-0.9,1.5-0.4,2.3
		c0.7,0.9,1.5,0.5,2.3,0c2-1.1,4-2,6.3-2.1c4.1-0.2,5.9,1.6,6,5.7c0,1.5-0.4,2-2,2c-2.7,0.1-5.4,0.2-8,0.7c-2.9,0.5-5.3,1.9-5.5,5.4
		c-0.2,3.3,1.4,5.5,4.3,6.9c3.7,1.7,7.2,0.8,10.9-2.9c0.5,1.5-0.3,3.7,2.1,3.5c2.3-0.2,1.7-2.1,1.7-3.5
		C-250.6,444.1-250.6,439.8-250.8,435.5z M-254.3,442.6c-0.1,4.7-5.2,7.9-9.3,5.8c-1.6-0.8-2.4-2.1-2.3-3.9c0.1-1.8,1.3-2.5,2.8-3
		c2.4-0.8,4.9-0.5,7.4-0.6C-254.3,440.8-254.2,441.6-254.3,442.6z"/>
	<path id="XMLID_339_" class="st0" d="M-324.8,323.5c-0.6,0.5-0.7,1.4-0.3,2.1c0.6,0.9,1.5,0.6,2.3,0.1c2-1.1,4-2.1,6.3-2.2
		c4.2-0.2,6.1,1.7,6.1,6c0,1.5-0.5,1.7-1.9,1.8c-2.6,0.1-5.1,0.3-7.7,0.7c-4.1,0.6-6.1,2.8-5.9,6.3c0.1,3.3,2.8,6.1,6.4,6.6
		c3.5,0.5,6.6-0.4,8.8-3.6c0.7,1.5-0.2,3.7,2.1,3.6c2.5-0.1,1.8-2.3,1.8-3.7c0-4.5,0.1-9-0.2-13.5c-0.3-3.9-2.3-6.2-6-7
		C-317.4,319.7-321.3,320.7-324.8,323.5z M-311.7,339.3c-1.2,1.6-2.8,2.3-4.7,2.5c-2.9,0.3-5.3-1.2-5.6-3.6
		c-0.4-3.2,1.9-3.7,4.2-4.2c1.1-0.2,2.3-0.2,3.6-0.3c1.2,0.4,3.1-0.7,3.7,0.8C-309.9,336.1-310.6,337.9-311.7,339.3z"/>
	<path id="XMLID_342_" class="st0" d="M-124,382.8c-0.1-3.6-1.1-6.8-4.9-8.3c-3.6-1.4-10.6-0.2-12.8,2.2c-0.7,0.8-1.2,1.7-0.4,2.6
		c0.7,0.9,1.6,0.3,2.3-0.1c1.8-1,3.7-1.8,5.7-2.1c4.3-0.5,6.3,1.3,6.5,5.5c0.1,1.5-0.2,2.3-2,2.3c-2.7,0-5.4,0.2-8,0.7
		c-2.8,0.5-5,1.9-5.4,5.1c-0.4,2.9,1.2,5.6,4.1,7c3.6,1.7,7.3,0.9,11.1-2.6c0.3,1.7,0,3.7,2.3,3.4c2.1-0.3,1.5-2.1,1.5-3.3
		C-124,391-124,386.9-124,382.8z M-128.7,392.5c-1.2,1.8-2.9,2.7-5.1,2.9c-2.9,0.3-5.2-1.3-5.5-3.7c-0.4-3.1,1.9-3.7,4.2-4.1
		c1.2-0.3,2.5-0.2,3.8-0.3c1.2,0.3,2.9-0.6,3.5,0.7C-127.2,389.4-127.8,391.1-128.7,392.5z"/>
	<path id="XMLID_345_" class="st0" d="M-110.7,344.8c2.1-0.3,1.5-2.1,1.5-3.3c0.1-4.1,0.1-8.2,0-12.2c-0.1-3.6-1-6.8-4.8-8.3
		c-3.6-1.4-10.6-0.2-12.8,2.2c-0.7,0.8-1.2,1.7-0.4,2.6c0.7,0.9,1.5,0.3,2.3-0.1c1.8-1,3.7-1.8,5.7-2.1c4.4-0.5,6.5,1.5,6.5,5.8
		c0,1.6-0.6,1.9-2,1.9c-2.7,0.1-5.4,0.3-8,0.7c-2.8,0.5-5,1.9-5.4,5.1c-0.4,2.9,1.2,5.6,4.1,7c3.6,1.7,7.2,1,11-2.5
		C-112.6,343-113.1,345.2-110.7,344.8z M-113.9,339.1c-1.1,1.6-2.6,2.4-4.5,2.7c-3,0.4-5.6-1.1-5.9-3.5c-0.5-3.3,2-3.8,4.3-4.3
		c1.1-0.2,2.3-0.2,3.4-0.3c1.3,0.3,3-0.6,3.6,0.5C-112.3,335.8-112.9,337.6-113.9,339.1z"/>
	<path id="XMLID_348_" class="st0" d="M-66.6,329.3c-0.1-3.6-1-6.8-4.8-8.3c-3.6-1.4-10.6-0.2-12.8,2.2c-0.7,0.8-1.2,1.7-0.4,2.6
		c0.7,0.9,1.5,0.3,2.3-0.1c1.8-1,3.7-1.8,5.7-2.1c4.4-0.5,6.5,1.5,6.5,5.8c0,1.7-0.6,1.9-2,1.9c-2.7,0.1-5.4,0.3-8,0.7
		c-2.8,0.5-5,1.9-5.4,5.1c-0.4,2.9,1.2,5.6,4.1,7c3.6,1.7,7.2,1,11-2.5c0.6,1.4,0.1,3.6,2.4,3.3c2.1-0.3,1.5-2.1,1.5-3.3
		C-66.5,337.4-66.5,333.3-66.6,329.3z M-71.1,338.7c-1,1.6-2.4,2.6-4.3,3c-3.2,0.6-5.9-0.7-6.4-3.2c-0.5-2.6,1-4,4.8-4.5
		c1.1-0.1,2.1-0.1,3.3-0.2c1.1,0.3,2.7-0.7,3.3,0.7C-69.8,335.8-70.3,337.4-71.1,338.7z"/>
	<path id="XMLID_351_" class="st0" d="M-294.2,376.9c-0.6,0.7-0.9,1.5-0.2,2.4c0.6,0.8,1.4,0.4,2,0.1c2-1.1,4-2.1,6.3-2.3
		c4.2-0.3,6.2,1.6,6.2,5.8c0,1.6-0.5,1.9-2,2c-2.8,0.1-5.6,0.3-8.3,0.8c-2.7,0.5-4.8,1.9-5.1,5c-0.3,3.1,1.1,5.4,3.7,6.9
		c3.5,2,7.6,1.1,11.3-2.4c0.6,1.4,0,3.6,2.4,3.3c2.3-0.3,1.5-2.3,1.5-3.6c0.1-4.3,0.1-8.6-0.1-12.9c-0.2-4.1-2-6.5-5.4-7.5
		C-285.5,373.2-292.4,374.6-294.2,376.9z M-281.2,392.9c-1.3,1.8-3.1,2.6-5.2,2.6c-2.5,0-4.7-0.9-5.1-3.8s1.8-3.5,4-4
		c1.2-0.3,2.5-0.3,3.8-0.4c1.2,0.5,3-0.8,3.7,0.8C-279.4,389.7-280.1,391.4-281.2,392.9z"/>
	<path id="XMLID_354_" class="st0" d="M-180.3,481.6c-6.2-2.1-12.3,1.2-14,7.7c-1.3,5.3-0.9,10.3,3.6,14.1c3.4,2.9,10.1,3,14.3,0.5
		c1.2-0.7,2.8-1.5,1.9-3.2c-1-1.8-2.2-0.1-3.2,0.3c-0.8,0.3-1.5,0.8-2.3,1.1c-5.5,1.8-10.4-1-11.1-6.4c-0.2-1.4,0.1-2,1.6-1.9
		c2.1,0.1,4.3,0,6.4,0c2.3,0,4.5,0,6.8,0c1.2,0,2-0.3,2.2-1.7C-173.3,488-176.3,482.9-180.3,481.6z M-179.2,491.3
		c-1.6-0.1-3.2,0-4.8,0c-1.8,0-3.6,0-5.4,0c-0.9,0-1.6,0-1.5-1.3c0.4-2.9,3.1-5.5,6.4-5.7c3.8-0.3,6.4,1.6,7.2,4.9
		C-177,490.8-177.4,491.4-179.2,491.3z"/>
	<path id="XMLID_357_" class="st0" d="M-56.4,427.6c-4.7,1-8,4.3-8.7,9.2c-0.8,5.1-0.4,10.1,4.3,13.3c4.5,3,9.3,2.6,14,0.2
		c1.2-0.6,2.8-1.6,1.8-3.2s-2.2,0.1-3.3,0.4c-0.8,0.3-1.5,0.8-2.3,1.1c-5.3,1.7-9.6-0.7-10.7-5.6c-0.5-2.1,0-2.9,2.2-2.7
		c1.9,0.2,3.9,0,5.8,0c2.3,0,4.5,0,6.8,0c1.3,0,1.9-0.5,2.1-1.9C-43.8,431.8-49.9,426.2-56.4,427.6z M-50,437.7
		c-1.6-0.2-3.2,0-4.8,0c-1.2,0-2.4,0.1-3.5,0c-1-0.1-2.4,0.6-3-0.4c-0.6-1.2,0.2-2.5,0.9-3.6c1.7-2.7,4.3-3.5,7.3-3
		c2.5,0.4,4.3,1.8,5,4.4C-47.6,436.8-47.6,438-50,437.7z"/>
	<path id="XMLID_360_" class="st0" d="M-226.5,289.8c3.6,2.4,10.6,2,14.1-0.5c1-0.7,2-1.6,1.2-2.9c-0.8-1.4-1.9-0.2-2.8,0.2
		c-0.8,0.3-1.5,0.8-2.3,1.1c-5.2,2-9.9-0.1-11.2-5.1c-0.5-2-0.5-3.3,2.2-3c1.9,0.2,3.9,0,5.8,0c2.1,0,4.3-0.1,6.4,0
		c1.6,0.1,2.3-0.6,2.4-2.2c0.5-6.8-5.5-12-12.2-10.4c-4.7,1.1-7.9,4.6-8.5,9.7C-232.1,281.9-231.3,286.7-226.5,289.8z M-226.6,273.1
		c1.7-2.9,4.5-3.5,7.5-3c2.7,0.4,4.3,2.1,5,4.8c0.4,1.6,0.1,2.4-1.8,2.2c-1.6-0.1-3.2,0-4.8,0c-1.3,0-2.6,0.1-3.8,0
		c-1-0.1-2.5,0.5-3-0.4C-228.1,275.5-227.3,274.2-226.6,273.1z"/>
	<path id="XMLID_363_" class="st0" d="M-372.7,344.9c2.8,0,6.2-1,7.7-2.4c0.9-0.8,1.5-1.7,0.7-2.8c-0.7-1-1.5-0.2-2.3,0.1
		c-1,0.4-1.9,1.1-2.9,1.4c-5.5,2-10.3-0.6-11.3-5.9c-0.3-1.7,0.1-2.2,1.9-2.2c4.2,0.1,8.4,0,12.6,0c1.3,0,2.3-0.1,2.5-1.7
		c0.7-4.2-2.3-9.2-6.3-10.5c-4.4-1.5-8.4-0.6-11.4,2.9c-3.8,4.4-4,9.6-2,14.8C-381.6,343.1-377.9,345-372.7,344.9z M-379.5,326.6
		c1.7-2.9,4.5-3.5,7.5-3.1c2.7,0.4,4.3,2.1,5,4.8c0.4,1.6,0.2,2.4-1.8,2.2c-1.6-0.2-3.2,0-4.8,0c-1.3,0-2.6,0.1-3.8,0
		c-1-0.1-2.5,0.5-3-0.4C-381.1,329.1-380.2,327.7-379.5,326.6z"/>
	<path id="XMLID_366_" class="st0" d="M-233.1,374.1c-4.7,1.1-7.9,4.5-8.7,9.6c-0.9,5.7,1.1,11,5.1,13.3c3.8,2.2,10.8,1.9,14.1-0.7
		c1-0.8,1.9-1.7,1-3c-0.8-1.1-1.7-0.2-2.5,0.2c-0.9,0.4-1.7,0.9-2.6,1.3c-5.6,2.1-10.7-0.8-11.4-6.2c-0.2-1.3,0-2,1.6-1.9
		c2.1,0.1,4.3,0,6.4,0c2.3,0,4.5,0,6.8,0c1.5,0,2.1-0.5,2.2-2C-220.4,378-226.5,372.6-233.1,374.1z M-226.3,384.2
		c-1.6-0.1-3.2,0-4.8,0c-1.7,0-3.4-0.1-5.1,0c-2,0.1-2-0.7-1.5-2.3c1.1-3.3,3.7-5,7.4-4.8c3.1,0.2,5.2,2,5.9,4.9
		C-224.1,383.6-224.5,384.3-226.3,384.2z"/>
	<path id="XMLID_369_" class="st0" d="M-327.4,289c1.6,1.3,3.4,2.2,5.6,2.3c7.9,0.5,12.7-4.1,12.7-13.3c-0.1-3.6-1.4-7.7-5.8-10
		c-4.1-2.1-8.2-1.8-11.9,0.9C-332.6,273-332.9,284.5-327.4,289z M-326.9,274.6c1.2-3.4,4.2-5.1,7.9-4.6c4.6,0.7,7.1,5.9,5.8,12.2
		c-1,4.8-4.6,7.1-9.3,5.8c-3.4-0.9-5.1-3.9-5.1-9C-327.6,277.5-327.4,276-326.9,274.6z"/>
	<path id="XMLID_372_" class="st0" d="M-373.5,480.9c-6.6,0-11,4.9-11.1,12.3c0,7.6,4.1,12.3,10.9,12.3c6.9,0,11.2-4.5,11.2-12
		C-362.3,486-366.8,480.9-373.5,480.9z M-375.6,502.2c-0.1,0-0.2,0-0.3-0.1c-3.7-1.1-5.7-5.8-4.7-11.5c0.7-4.3,3.4-6.6,7.4-6.6
		c4.5,0.1,7.2,3.6,7.1,9.3C-366.1,500.1-370,503.7-375.6,502.2z"/>
	<path id="XMLID_375_" class="st0" d="M-337.9,440.1c0.1-7.6-4.3-12.7-11-12.7c-6.6,0-11.1,4.9-11.1,12.3c0,7.6,4.1,12.3,10.9,12.3
		C-342.2,452-338,447.5-337.9,440.1z M-356.3,439.7c0-6.1,2.9-9.4,7.9-9.1c3,0.2,5.1,1.8,6,4.6c1.3,4.1,1.5,8.4-1.6,11.9
		c-2.1,2.4-5,2.5-7.7,1.5C-355.7,447-356.2,443.4-356.3,439.7z"/>
	<path id="XMLID_378_" class="st0" d="M-109.1,291.3c6.9,0,11.2-4.5,11.3-11.9c0.1-7.6-4.3-12.7-11-12.7c-6.6,0-11.1,4.9-11.1,12.3
		C-120,286.6-115.9,291.3-109.1,291.3z M-116.1,276.3c0.8-4.6,4.2-7.1,8.5-6.4c3.8,0.6,6,4,6,9.1c0.1,6.7-3.7,10.3-9.3,9
		C-115.1,287.1-117.2,282.3-116.1,276.3z"/>
	<path id="XMLID_381_" class="st0" d="M-10.8,373.8c-6.6-0.1-11.1,4.9-11.1,12.3c0,7.6,4.1,12.3,10.8,12.4c7.1,0,11.3-4.6,11.3-12.2
		C0.2,378.8-4.2,373.9-10.8,373.8z M-5.9,393.4c-2.1,2.4-5,2.4-7.8,1.5c-3-0.9-4.6-4.1-4.6-8.8c0-6.2,3-9.6,8.1-9.1
		c3,0.3,5,2,5.8,4.8C-3.1,385.9-2.8,390-5.9,393.4z"/>
	<path id="XMLID_382_" class="st0" d="M-201,484.2c0-1.4,0.2-3.1-1.8-3.1c-1.9,0-1.9,1.6-1.9,3.1c0,4.1,0.1,8.2-0.2,12.2
		s-3.4,6.5-7.2,6.2c-3.5-0.2-4.9-2-5-6.5c-0.1-4.2,0-8.4,0-12.6c0-1.3-0.3-2.5-1.8-2.5s-1.8,1.2-1.8,2.5c0,4.8-0.1,9.7,0.1,14.5
		c0.3,5.1,3.2,7.4,8.1,7.6c3.2,0.1,5.5-1.3,7.5-3.7c0.8,1.4-0.3,3.9,2.4,3.6c2.3-0.3,1.5-2.3,1.5-3.6
		C-200.9,496-201,490.1-201,484.2z"/>
	<path id="XMLID_383_" class="st0" d="M-284,488c-0.2-3.9-2.5-6.2-6.1-6.9c-3.9-0.8-7.1,0.6-9.7,3.7c-0.7-1.5,0.1-4-2.3-3.7
		c-2.5,0.2-1.7,2.6-1.7,4.1c-0.1,5.7-0.1,11.4,0,17.1c0,1.4-0.5,3.3,1.9,3.2c2.2-0.1,1.7-1.9,1.7-3.2c0.1-3.9-0.1-7.7,0.1-11.6
		c0.2-4.3,3.3-6.8,7.5-6.6c3.6,0.2,5,2,5.1,6.7c0,4.2,0,8.4,0,12.6c0,1.2,0.4,2.1,1.8,2.1c1.4,0,1.9-0.8,1.9-2.1
		C-283.8,498.3-283.7,493.2-284,488z"/>
	<path id="XMLID_384_" class="st0" d="M-156.3,434.5c-0.2-3.9-2.5-6.2-6.1-6.9c-3.9-0.8-7.1,0.6-9.8,3.6c-0.7-1.4,0.1-3.9-2.3-3.7
		c-2.6,0.2-1.7,2.6-1.7,4.1c-0.1,5.6-0.1,11.2,0,16.7c0,1.4-0.7,3.6,1.9,3.6c2.4,0,1.7-2.1,1.7-3.4c0.1-3.8-0.1-7.5,0.1-11.3
		c0.2-4.3,3.2-6.8,7.5-6.6c3.6,0.2,5,2,5.1,6.7c0,4.2,0,8.4,0,12.6c0,1.2,0.4,2.1,1.8,2.1c1.4,0,1.9-0.8,1.9-2
		C-156.1,444.8-156,439.6-156.3,434.5z"/>
	<path id="XMLID_385_" class="st0" d="M-223.4,434.4c-0.2-3.9-2.5-6.1-6.1-6.9c-3.9-0.8-7.1,0.7-9.8,3.8c-0.5-1.7,0.2-4-2.2-3.9
		c-2.3,0.2-1.7,2.4-1.7,3.9c-0.1,5.8,0,11.6,0,17.4c0,1.4-0.4,3.3,2,3.2c2.2-0.1,1.6-1.9,1.7-3.2c0.1-3.9-0.1-7.7,0.1-11.6
		c0.2-4.3,3.3-6.8,7.5-6.6c3.6,0.2,5,2,5,6.7c0,4.2,0,8.4,0,12.6c0,1.2,0.4,2.1,1.9,2.1c1.4,0,1.8-0.9,1.8-2.1
		C-223.2,444.7-223.1,439.6-223.4,434.4z"/>
	<path id="XMLID_386_" class="st0" d="M-336.2,488.5c-0.4-5.6-4.8-8.6-10.2-7.4c-2.3,0.5-4.1,1.7-5.8,3.9c-0.6-1.9,0.1-4.3-2.4-4
		c-2.1,0.2-1.5,2.2-1.6,3.7c0,6,0,12,0,18c0,1.3-0.1,2.7,1.8,2.8c1.9,0,1.8-1.4,1.8-2.7c0-4.1-0.1-8.2,0.1-12.2
		c0.2-4.1,3.3-6.6,7.4-6.4c3.7,0.1,5.2,1.9,5.2,6.6c0.1,4.2,0,8.4,0,12.6c0,1.3,0.4,2.3,2,2.3c1.5-0.1,1.7-1.1,1.7-2.2
		C-336.1,498.4-335.9,493.4-336.2,488.5z"/>
	<path id="XMLID_387_" class="st0" d="M-327.1,377.1c3.6,0.2,5,2,5,6.7c0,4.2,0,8.4,0,12.6c0,1.2,0.4,2.1,1.9,2.1
		c1.4,0,1.9-0.9,1.9-2.1c0-5.2,0.1-10.3-0.2-15.4c-0.2-3.5-2.1-6-5.8-6.8c-4.1-0.9-7.3,0.5-10.1,3.6c-0.7-1.5,0.1-4-2.2-3.8
		c-2.5,0.2-1.7,2.6-1.7,4.1c-0.1,5.7-0.1,11.4,0,17.1c0,1.4-0.5,3.3,1.9,3.2c2.2-0.1,1.6-1.9,1.6-3.2c0.1-4-0.1-8,0.2-11.9
		C-334.3,379.2-331.2,376.8-327.1,377.1z"/>
	<path id="XMLID_388_" class="st0" d="M-313.8,452c1.5,0,1.8-1,1.8-2.1c0-6.8,0-13.5,0-20.3c0-0.9-0.4-1.7-1.2-2.1
		c-0.8-0.3-1.5,0.1-2,0.7c-0.6,0.7-0.4,1.6-0.4,2.5c0,4,0.1,7.9-0.1,11.9c-0.2,4-3.2,6.5-7,6.4c-3.6-0.1-5.1-1.9-5.2-6.6
		c-0.1-4.2,0-8.4,0-12.6c0-1.3-0.4-2.5-1.9-2.4c-1.3,0.1-1.7,1.1-1.7,2.3c0,5-0.2,10.1,0.2,15.1c0.3,4.7,3.2,7,7.8,7.2
		c3.2,0.1,5.6-1,7.9-3.8C-315.3,449.8-316.3,451.9-313.8,452z"/>
	<path id="XMLID_389_" class="st0" d="M-175.4,320.5c-1.7-0.7-2.1,1-2.6,2.1c-2.5,5.6-4.9,11.2-7.7,17.6c-2.7-6.2-5.1-11.7-7.5-17.1
		c-0.6-1.2-0.8-3.4-3-2.5c-2.1,0.9-0.9,2.5-0.3,3.8c1.9,4.3,3.6,8.8,5.9,12.9c2.5,4.5,3.2,8.6,0.1,13c-0.7,1-1.4,2.5,0.3,3.3
		c1.7,0.7,2.1-0.9,2.7-2c4.2-9.2,8.4-18.4,12.6-27.6C-174.3,322.7-173.6,321.2-175.4,320.5z"/>
	<path id="XMLID_390_" class="st0" d="M-301,320.5c-1.6,0.7-1.3,1.9-0.7,3.2c1.9,4,3.4,8.1,5.5,12c2.7,5,4.6,9.8,0.6,15.1
		c-0.7,0.9-0.8,2.1,0.5,2.7c1.3,0.7,2-0.3,2.5-1.3c4.4-9.7,8.8-19.3,13.2-29c0.5-1.2,0.4-2.2-0.8-2.7c-1.3-0.6-1.9,0.4-2.4,1.5
		c-0.6,1.3-1.1,2.6-1.7,3.8c-2,4.6-4,9.2-6.3,14.4c-2.8-6.4-5.3-12.2-7.9-17.9C-298.9,321.1-299.5,319.8-301,320.5z"/>
	<path id="XMLID_391_" class="st0" d="M-379,457.1c-0.7,1.1-1.7,2.7,0.2,3.5s2.2-1.1,2.8-2.3c4.2-9.1,8.3-18.2,12.4-27.3
		c0.6-1.3,1.4-2.8-0.5-3.5c-1.7-0.6-2.1,1-2.6,2.2c-2.5,5.6-4.9,11.2-7.7,17.5c-2.8-6.4-5.3-12.1-7.8-17.8c-0.5-1.2-1-2.6-2.7-1.8
		c-1.6,0.7-1.1,2-0.5,3.3c2.1,4.6,3.9,9.3,6.4,13.7C-376.6,449-376.1,452.9-379,457.1z"/>
	<path id="XMLID_392_" class="st0" d="M-21.1,342.8c2.4,1.7,5.1,2.3,7.9,2.1c0.9,0,1.7,0,2.6-0.1c3.7-0.5,6.3-2.8,6.6-6
		c0.3-3.4-1.1-5.3-5.2-6.7c-2-0.7-4.1-1.1-6.2-1.7c-1.5-0.5-2.7-1.3-2.6-3.2c0.1-1.9,1.2-2.9,2.9-3.4c2.5-0.8,4.8-0.2,7.1,1.1
		c1,0.5,2.2,2.2,3.2,0.6c1-1.7-0.5-2.8-1.8-3.5c-3.6-2-7.3-2.3-11.1-0.4c-2.5,1.3-3.9,3.2-3.9,6.2c0,2.9,1.8,4.5,4.2,5.4
		c2.1,0.8,4.3,1.2,6.5,1.9c1.8,0.5,3.5,1.3,3.3,3.6c-0.2,2.3-2,2.8-3.9,3.2c-2.9,0.5-5.5-0.2-8-1.7c-0.9-0.5-2-1.3-2.8,0
		C-22.8,341.2-22,342.1-21.1,342.8z"/>
	<path id="XMLID_393_" class="st0" d="M-82.3,377.2c2.5-0.6,4.9,0.1,7,1.4c0.9,0.6,2,1.9,2.9,0.2c0.7-1.3-0.3-2.3-1.3-3
		c-3.5-2.2-7.2-2.8-11-1.2c-2.8,1.1-4.6,3.1-4.6,6.3c0,3.2,2,4.8,4.7,5.7c2.1,0.7,4.3,1.2,6.5,1.8c1.7,0.5,3,1.3,2.9,3.3
		c-0.1,2.1-1.6,2.9-3.4,3.3c-3.1,0.7-5.9,0-8.6-1.6c-0.8-0.5-1.9-1.1-2.6-0.1c-0.7,1.1-0.1,2.1,0.9,2.8c2.3,1.7,5,2.3,7.9,2.3
		c1.2-0.1,2.4,0,3.5-0.3c3.4-0.7,5.6-3.1,5.8-6c0.2-3.3-1.1-5.2-5-6.4c-2-0.7-4.1-1.1-6.2-1.8c-1.6-0.5-2.9-1.4-2.8-3.4
		C-85.5,378.6-84,377.6-82.3,377.2z"/>
	<path id="XMLID_394_" class="st0" d="M-218,327.8c0.1,2.7,1.8,4.3,4.1,5.2c2.2,0.8,4.5,1.3,6.8,2c1.7,0.5,3.3,1.2,3.1,3.4
		c-0.2,2.3-1.8,2.9-3.7,3.3c-3,0.6-5.7-0.2-8.3-1.7c-0.9-0.5-1.9-1.1-2.6,0s0,2.1,0.9,2.7c2.4,1.7,5,2.3,7.9,2.2
		c1.1-0.1,2.2,0,3.2-0.2c3.5-0.6,5.9-3.1,6.1-6.1c0.2-3.3-1.1-5.1-5.1-6.4c-1.9-0.6-3.9-1.1-5.9-1.7c-1.7-0.5-3.2-1.3-3-3.6
		c0.2-2.2,1.8-3.1,3.7-3.4c2.4-0.5,4.6,0.2,6.7,1.6c0.8,0.5,1.8,1.7,2.8,0.4c1-1.4-0.1-2.5-1.2-3.2c-3.8-2.5-7.8-2.9-11.9-0.8
		C-216.8,322.8-218.1,324.9-218,327.8z"/>
	<path id="XMLID_395_" class="st0" d="M-153.2,270.5c4.4-0.9,3.5,2.2,3.5,4.6c0,1.8,0,3.6,0,5.5c0,2.6,0,5.1,0,7.7
		c0,1.4-0.2,3,1.9,3c1.9,0,1.7-1.6,1.7-2.8c0-3.9,0-7.7,0-11.6c0-2-0.8-4.4,0.4-5.9c0.9-1.2,3.2-0.3,4.9-0.4c1-0.1,1.7-0.5,1.7-1.5
		s-0.5-1.6-1.5-1.7c-1.1-0.1-2.2-0.1-3.2,0c-1.8,0.2-2.5-0.4-2.2-2.3c0.4-3.3,1.6-4.5,6-5.3c1-0.2,2-0.2,2-1.5
		c0-1.4-1.2-1.2-2.1-1.3c-5.1-0.2-8.7,2.4-9.3,7.3c-0.3,2.2-0.5,3.6-3.2,3.2c-1.1-0.2-1.9,0.5-1.9,1.7
		C-154.6,269.9-154,270.7-153.2,270.5z"/>
	<path id="XMLID_396_" class="st0" d="M-275.9,270.6c3-0.5,3.4,1,3.1,3.4c-0.2,1.4,0,2.8,0,4.2c0,1.6,0,3.2,0,4.8
		c0.1,5.8,2.5,8.2,8.2,8.4c1.2,0,2.6,0.4,2.7-1.4c0-1.5-1.4-1.3-2.4-1.4c-3.8-0.5-4.7-1.6-4.8-5.4c-0.1-2.8,0.2-5.6-0.1-8.4
		c-0.3-3.2,0.5-4.8,4-4.2c1.1,0.2,2.9,0.5,3-1.4c0.1-2.1-1.7-2-3.1-1.8c-3.2,0.5-4.5-0.7-3.9-3.9c0.1-0.6,0-1.3,0-1.9
		c-0.1-0.9-0.7-1.3-1.5-1.4c-0.9,0-1.8,0.2-1.9,1.2c-0.1,0.7-0.1,1.5-0.1,2.2c0.1,2.2,0.3,4.4-3.1,3.7c-1.1-0.2-1.8,0.6-1.7,1.8
		C-277.6,270.3-276.8,270.7-275.9,270.6z"/>
	<path id="XMLID_397_" class="st0" d="M-304.9,270.6c3-0.5,3.4,1,3.1,3.4c-0.2,1.4,0,2.8,0,4.2c0,1.6,0,3.2,0,4.8
		c0.1,5.8,2.5,8.2,8.2,8.4c1.2,0,2.6,0.4,2.7-1.4c0-1.5-1.4-1.3-2.4-1.4c-3.8-0.5-4.7-1.6-4.8-5.4c-0.1-2.8,0.2-5.6-0.1-8.4
		c-0.3-3.2,0.5-4.8,4-4.2c1.1,0.2,2.9,0.5,3-1.4c0.1-2.1-1.7-2-3.1-1.8c-3.2,0.5-4.5-0.7-3.9-3.9c0.1-0.6,0-1.3,0-1.9
		c-0.1-0.9-0.7-1.3-1.5-1.4c-0.9,0-1.8,0.2-1.9,1.2c-0.1,0.7-0.1,1.5-0.1,2.2c0.1,2.2,0.3,4.4-3.1,3.7c-1.1-0.2-1.8,0.6-1.7,1.8
		C-306.6,270.3-305.9,270.7-304.9,270.6z"/>
	<path id="XMLID_398_" class="st0" d="M-274.1,447.1c-0.9-1.2-1.9-0.2-2.8,0.3c-7.1,3.9-12.6,0.6-12.6-7.6s5.5-11.3,12.7-7.4
		c0.8,0.4,1.6,1.4,2.5,0.4c1-1.2,0.1-2.3-0.8-3c-2.7-2-5.8-2.8-9.1-2.1c-7.2,1.5-11,9.2-8.4,17.1c2.3,7.2,11.4,10,17.4,5.3
		C-274.2,449.2-273.2,448.3-274.1,447.1z"/>
	<path id="XMLID_399_" class="st0" d="M-298.8,397.1c0.1-1.6-1.3-1.3-2.4-1.5c-3.8-0.5-4.8-1.5-4.9-5.4c-0.1-2.1,0-4.3,0-6.4
		c0-1.9-0.5-4.2,0.3-5.6c0.8-1.3,3.2-0.3,4.8-0.5c1-0.1,1.7-0.4,1.8-1.4c0.1-1.2-0.7-1.7-1.8-1.8c-0.3,0-0.7-0.1-1,0
		c-3.9,0.8-4.9-1.1-4.3-4.5c0.1-0.5,0-1.1-0.1-1.6c-0.2-0.9-0.9-1.1-1.7-1.1s-1.5,0.3-1.7,1.2c-0.1,0.7-0.1,1.5-0.1,2.2
		c0,2.1,0.5,4.5-3.1,3.8c-1.1-0.2-1.8,0.6-1.8,1.7s0.8,1.6,1.7,1.4c3.5-0.7,3.2,1.5,3.1,3.7c0,1.3,0,2.6,0,3.9c0,1.6,0,3.2,0,4.8
		c0.1,5.8,2.5,8.2,8.2,8.4C-300.3,398.5-298.9,398.8-298.8,397.1z"/>
	<path id="XMLID_400_" class="st0" d="M-266.7,502.8c-3.4-0.1-4.8-2-4.8-5.2c0-2.8,0-5.6,0-8.4c0-4.3,0-4.3,4.4-4.4
		c1.2,0,2.6,0.3,2.6-1.5c0-1.9-1.5-1.7-2.8-1.7c-0.5,0-1.1-0.1-1.6,0c-2.2,0.4-2.7-0.6-2.7-2.7c0-1.6,1.2-4.3-1.6-4.4
		c-3.2-0.1-1.7,2.8-1.9,4.4c-0.1,1.7-0.1,3-2.4,2.6c-1.2-0.2-2.5-0.1-2.6,1.6c-0.1,1.8,1.4,1.7,2.5,1.6c2.1-0.3,2.5,0.7,2.4,2.6
		c-0.1,3.3-0.1,6.7,0,10c0.1,5.7,2.4,8,8.6,8.3c0.5,0,2,0.5,2.2-1.2C-264,502.6-265.6,502.8-266.7,502.8z"/>
	<path id="XMLID_401_" class="st0" d="M-235,324.1c2.1-0.3,2.5,0.6,2.5,2.5c-0.1,3.4-0.1,6.9,0,10.3c0.1,5.4,2.5,7.7,8.5,8
		c0.6,0,2.1,0.5,2.3-1.1c0.3-1.8-1.3-1.7-2.4-1.7c-3.4-0.1-4.8-2-4.8-5.1c0-3.4,0.1-6.9-0.1-10.3c-0.1-2.3,0.8-2.6,2.8-2.6
		c1.5,0,4.1,1.2,4.2-1.4c0.1-2.9-2.7-1.7-4.3-1.7c-2.1,0-2.7-0.6-2.7-2.7c0-1.6,1.4-4.5-1.8-4.4c-2.8,0.1-1.6,2.8-1.6,4.4
		c0,2-0.4,3-2.7,2.7c-1.1-0.2-2.3,0.1-2.3,1.5C-237.5,324.2-236.1,324.2-235,324.1z"/>
	<path id="XMLID_402_" class="st0" d="M-98.3,449.2c-3.4-0.1-4.8-2-4.8-5.2c0-3,0.2-6-0.1-9c-0.3-3.1,0.6-4.3,3.8-3.8
		c1.2,0.2,3.2,0.7,3.3-1.4c0.1-2.1-1.8-1.9-3.1-1.7c-3.3,0.5-4.4-0.8-3.9-4c0.2-1.2,0.6-3.1-1.6-3.2c-2.4-0.1-2,1.8-1.9,3.2
		c0.1,2.4,0.3,4.6-3.3,4c-0.9-0.2-1.6,0.5-1.7,1.5c0,1.1,0.6,1.7,1.6,1.6c3.8-0.7,3.4,1.8,3.4,4.2c0,1.2,0,2.4,0,3.5
		c0,1.6,0,3.2,0,4.8c0.1,5.7,2.6,8.1,8.3,8.3c1.1,0,2.4,0.3,2.6-1.2C-95.7,449.1-97.2,449.2-98.3,449.2z"/>
	<path id="XMLID_403_" class="st0" d="M-382.6,288.6c0,1.4,0.1,2.7,2,2.7s1.8-1.5,1.8-2.8c0-9.7,0-19.3,0-29c0-1.4,0-3.1-1.9-3.1
		s-1.8,1.7-1.8,3.1c0,4.8,0,9.7,0,14.5C-382.6,279-382.6,283.8-382.6,288.6z"/>
	<path id="XMLID_404_" class="st0" d="M-312.1,487.6c0-3,0-9.5,0-14.5c0-1.4-0.2-2.6-1.9-2.6s-1.9,1.5-1.9,2.9c0,9.8,0,19.6,0,29.4
		c0,1.3,0,2.7,1.9,2.7s1.9-1.8,1.9-3.1C-312,497.6-312,492.6-312.1,487.6C-312,487.6-312,487.6-312.1,487.6z"/>
	<path id="XMLID_405_" class="st0" d="M-91.1,320.7c-2.9,0.1-5,1.7-6.8,3.8c-0.1-0.5-0.2-0.7-0.3-0.9c-0.1-1.4,0.2-3.2-1.7-3.3
		c-2.1-0.1-1.9,1.8-1.9,3.4c0,5.9,0,11.8,0,17.7c0,1.4-0.6,3.3,1.8,3.4c2.5,0.1,1.8-1.9,1.9-3.3c0.1-2.8,0-5.6,0-8.4
		c0-6.6,1-7.8,7.6-9.2c1.1-0.2,2.3-0.5,2.1-1.9C-88.6,320.4-89.9,320.7-91.1,320.7z"/>
	<path id="XMLID_406_" class="st0" d="M-94.4,374.2c-2.9,0.1-5.2,1.5-7.4,4.2c0-1-0.1-1.4-0.1-1.8c0-1.4-0.1-2.9-1.8-2.8
		c-1.6,0.1-1.7,1.6-1.7,3c0,6.2,0,12.5,0,18.7c0,1.3-0.2,2.8,1.7,2.8c2.2,0.1,1.9-1.6,1.9-3c0-2.5,0-4.9,0-7.4c0-8,0.3-8.5,7.9-10.5
		c1-0.3,1.9-0.6,1.8-1.9C-92.1,374.1-93.3,374.2-94.4,374.2z"/>
	<path id="XMLID_505_" class="st0" d="M-135.1,289.1c0,1.4,0.3,2.3,2,2.3c1.5-0.1,1.6-1.1,1.6-2.3c0-2.8,0-5.6,0-8.4
		c0-7.7,0.5-8.4,7.9-10.3c1.1-0.3,2.1-0.7,1.8-2.1c-0.2-1.3-1.3-1.2-2.3-1.2c-2.9,0.1-5.3,1.4-7.4,4.2c-0.1-1-0.1-1.3-0.1-1.7
		c0-1.4-0.1-2.9-1.8-2.8c-1.7,0.1-1.7,1.6-1.7,2.9C-135.1,276.2-135.1,282.6-135.1,289.1z"/>
	<path id="XMLID_506_" class="st0" d="M-347.8,373.9c-1.7-0.1-1.9,1.3-1.9,2.7c0,6.3,0,12.7,0,19c0,1.3-0.1,2.8,1.8,2.8
		c2.2,0,1.9-1.6,1.9-3c0-3,0-6,0-9c0-3.2,0-6.4,0-9.7C-346,375.4-346.1,373.9-347.8,373.9z"/>
	<path id="XMLID_507_" class="st0" d="M-258.2,481c-1.5,0-1.8,1.2-1.8,2.5c0,6.6,0,13.1,0,19.7c0,1.3,0.2,2.4,1.9,2.4
		s1.8-1.1,1.8-2.4c0-3.2,0-6.4,0-9.7s0-6.7,0-10C-256.3,482.1-256.7,481-258.2,481z"/>
	<path id="XMLID_508_" class="st0" d="M-115,373.9c-1.5,0.1-1.8,1.3-1.7,2.6c0,3.1,0,6.2,0,9.4c0,3.3,0,6.7,0,10
		c0,1.4,0.1,2.7,2,2.6c1.7,0,1.7-1.3,1.7-2.5c0-6.4,0-12.9,0-19.3C-113,375.2-113.2,373.8-115,373.9z"/>
	<path id="XMLID_509_" class="st0" d="M-167.3,494.3c0,0.9,0,2,1.1,1.9c1.1,0,1.1-1.1,1.1-2c0.4-6.9,0.7-13.7,1.1-20.6
		c0.1-1.6-0.3-2.9-2.1-3c-2-0.1-2.4,1.4-2.4,3.1c0.2,3.3,0.4,6.6,0.5,10l0,0C-167.7,487.2-167.5,490.8-167.3,494.3z"/>
	<path id="XMLID_510_" class="st0" d="M-31.2,322.4c0.1,0.8,0.3,1.6,1.2,1.6c0.7,0,1.1-0.6,1.1-1.3c0.3-3.5,0.6-7,0.9-10.6
		c0.1-1.2-0.7-2.1-1.9-2.2c-1.4-0.1-2.2,0.8-2.2,2.2c0,1.3,0.2,2.6,0.4,4.7C-31.6,318.2-31.4,320.3-31.2,322.4z"/>
	<path id="XMLID_511_" class="st0" d="M18.8,393.3c-1-0.4-1.9,0.2-2.5,1c-0.7,1.1-1,2.6,0,3.2c2.3,1.4,1.6,2.8,0.4,4.4
		c-0.6,0.7-0.6,1.4,0.1,1.9c0.9,0.6,1.4-0.2,1.8-0.7c1.5-1.7,2.1-3.7,2.1-5.7C20.8,395.6,20.6,394,18.8,393.3z"/>
	<path id="XMLID_512_" class="st0" d="M-166,500.2c-1.7-0.1-2.6,0.8-2.6,2.5c-0.1,1.6,0.5,2.7,2.3,2.8s2.5-0.9,2.7-2.7
		C-163.8,501.6-164.2,500.2-166,500.2z"/>
	<path id="XMLID_513_" class="st0" d="M-347.7,363.5c-1.6,0-2.6,1-2.6,2.6c0,1.5,0.9,2.4,2.4,2.5c1.6,0,2.5-1,2.6-2.6
		C-345.5,364.5-346.3,363.5-347.7,363.5z"/>
	<path id="XMLID_514_" class="st0" d="M7.4,393.1c-1.7-0.1-2.5,0.9-2.6,2.6c-0.1,1.6,0.6,2.7,2.4,2.8c1.8,0.1,2.5-0.9,2.6-2.5
		C9.7,394.3,9.1,393.1,7.4,393.1z"/>
	<path id="XMLID_515_" class="st0" d="M-258,470.6c-1.6-0.1-2.6,1-2.6,2.6s1,2.6,2.6,2.5c1.5-0.1,2.2-1.1,2.3-2.7
		C-255.8,471.7-256.5,470.7-258,470.6z"/>
	<path id="XMLID_516_" class="st0" d="M-114.9,363.5c-1.5,0-2.4,1-2.4,2.4c0,1.6,0.9,2.6,2.5,2.6c1.5,0,2.3-0.9,2.4-2.5
		C-112.4,364.5-113.2,363.5-114.9,363.5z"/>
	<path id="XMLID_517_" class="st0" d="M-188,419.5c-0.1,1.7,0.9,2.6,2.5,2.7c1.4,0,2.3-0.9,2.5-2.4c0-1.6-0.9-2.6-2.5-2.7
		C-187,417.1-187.9,418-188,419.5z"/>
</g>
<path id="XMLID_10_" class="st1" d="M-384.7,347.4c-1,0-2-0.6-2.4-1.7c-0.5-1.3,0.2-2.8,1.5-3.3l104.9-39.1c1.3-0.5,2.8,0.2,3.3,1.5
	s-0.2,2.8-1.5,3.3l-104.9,39.1C-384.1,347.3-384.4,347.4-384.7,347.4z"/>
<path id="XMLID_13_" class="st1" d="M-261.5,347.4c-1,0-1.9-0.6-2.4-1.5c-0.6-1.3,0-2.8,1.3-3.4l87.2-39.1c1.3-0.6,2.8,0,3.4,1.3
	c0.6,1.3,0,2.8-1.3,3.4l-87.2,39.1C-260.7,347.3-261.1,347.4-261.5,347.4z"/>
<path id="XMLID_21_" class="st2" d="M102,387.8c-42.6,0-77,34.5-77,77.1v95.7h154v-95.7C179,422.3,144.6,387.8,102,387.8z"/>
<circle id="XMLID_20_" class="st3" cx="102.3" cy="464.9" r="70.5"/>
<path id="XMLID_44_" class="st4" d="M86.5,548.1"/>
<path id="XMLID_50_" class="st2" d="M157.6,443.8l-110.7,0.3l-0.3-0.3c0-27.3,24.8-49.4,55.5-49.4S157.6,416.6,157.6,443.8
	L157.6,443.8z"/>
<circle id="XMLID_57_" class="st5" cx="73.5" cy="467" r="19.1"/>
<path id="XMLID_18_" class="st5" d="M51.4,467c-13.2-13.7-20.2-11.3-20.2-11.3"/>
<path id="XMLID_16_" class="st5" d="M102.3,458.3c-7.1,0-9.7,6.7-9.7,6.7"/>
<circle id="XMLID_14_" class="st5" cx="131" cy="467" r="19.1"/>
<path id="XMLID_9_" class="st5" d="M150.1,467c13.2-13.7,20.2-11.3,20.2-11.3"/>
<path id="XMLID_6_" class="st5" d="M102.3,458.3c7.1,0,9.7,6.7,9.7,6.7"/>
<path id="XMLID_5_" class="st2" d="M117.4,508.6c0,9-7.1,16.6-15.8,16.6c-8.7,0-15.8-7.6-15.8-16.6H117.4z"/>
<circle id="XMLID_22_" class="st3" cx="-290.7" cy="88.9" r="70.5"/>
<path id="XMLID_48_" class="st6" d="M-221,99.3c-1-1.3-2.4,1.4-4.2,0.1c-1.5,1.2-3.4-0.7-5.4,1.7c-0.5,0.6-1.3,0.9-2.1,0.7
	c-2.1-0.5-4.5,2.1-7,5.1c-0.1,0.2-0.3,0.4-0.3,0.6c-2.8,6.4-5.8,6-9,5.4c-0.6-0.1-1.3,0-1.8,0.4c-3.2,2.4-6.5,5.6-10,4.9
	c-0.5-0.1-1.1,0-1.6,0.2c-3.7,1.9-7.6,2.1-11.7,3.3c-0.3,0.1-0.6,0.2-0.8,0.4c-4.4,3.4-9-1.4-13.7,1.2c-4.8,2-9.5-0.1-14-1.5
	c-0.1,0-0.2-0.1-0.4-0.1c-4.5-0.7-8.9-0.5-13-3.9c-4-2.7-7.8-1.1-11.4-4.7c-0.4-0.3-0.8-0.6-1.3-0.6c-3-0.2-5.8-2-8.4-4.3
	c-0.7-0.6-1.6-0.7-2.4-0.3c-2.8,1.4-5.3-2.6-7.6-5.6c-2.4-3.6-4.4-3.7-6.2-3.1c-0.4,0.1-0.7,0.1-1.1,0c-1.6-0.3-2.9-0.2-3.8,0
	c-1.2,0.3-1.9,3.8-1.9,4.8c0,3.1,0.1,3.6,0.2,7.1c0.2,3.6,0.4,6.9,0.7,6.5c0.3,1,0.7-0.6,1.1,4c0.4,5.2,1,5.3,1.5,8.3
	c0,0.1,0,0.1,0,0.2c0.6,5.3,1.2,3.8,2,7.8c0.7,6.8,1.5,1.8,2.4,3.1c0.8,2.1,1.7,2.6,2.6,6.3c0.1,0.2,0.1,0.5,0.3,0.7
	c0.9,1.3,1.9,5.2,2.9,2.7c1.1,1.4,2.2-1,3.4,3.7c1.1,1.8,2.3-1.2,3.5,3.7c0.1,0.4,0.3,0.9,0.6,1.2c1.2,1.1,2.4,4.6,3.6,2.8
	c1,2.4,2.1,1.9,3.2,2.6c0.6,0.4,1.3,0.3,2,0.2c1.1-0.3,2.3,2.3,3.5,4c0.1,0.2,0.2,0.3,0.3,0.5c1.3,3.6,2.7,1.1,4.1,1.5
	c0.4,0.1,0.8,0,1-0.2c1.5-1.4,3.1,3.6,4.6,2.3c1.7-0.5,3.3-1.8,5.1,1.7c0.1,0.3,0.3,0.5,0.5,0.7c1.3,1.2,2.6,2.1,3.9,1.6
	c0.7-0.3,1.8,0,2.4,0.5c1.2,1.2,2.5,1.1,3.7,0.3c0.4-0.2,0.9-0.3,1.4-0.3c1.7,0.1,3.3-1.6,5-0.8c1.9,1.2,3.9-0.5,5.9,1.5
	c2,0.8,3.9,3.2,5.9,0.7c1.6-0.7,3.3-2.9,4.9-2.2c0.6,0.3,1.2,0.4,1.8,0.1c1.3-0.6,2.6-0.4,3.9-0.4c0.3,0,0.7,0.1,0.9,0.2
	c1.7,1,3.4-1.1,5-1.6c1.6-0.6,3.2-1.9,4.7-1.8c0.4,0,0.8-0.1,1.1-0.3c1.2-0.7,2.4-2,3.6-1.9c0.5,0,1,0,1.4-0.3
	c0.9-0.5,1.8-1.2,2.7-1.8c0.6-0.4,1.2-0.3,1.9-0.1c1.2,0.5,2.4-1.4,3.5-2.8c0.1-0.2,0.3-0.4,0.3-0.6c1.1-2.7,2.2-3.7,3.3-4.3
	c0.5-0.3,0.8-0.7,1-1.2c1.2-3.6,2.4-0.7,3.6-0.9c1.1,1.5,2.2-2.3,3.2-4.3c0.2-0.3,0.4-0.6,0.6-0.8c1-0.8,2-2.6,3-3.1s2-2.4,2.9-5.1
	c0.8,1.5,1.5-3.7,2.2-4.6c0.3-0.3,0.4-0.8,0.4-1.2c0.8-10.3,1.5-2.9,2.1-6.7c0.6,4.8,1.2-1.9,1.7-3c0.1-0.2,0.2-0.5,0.2-0.8
	c0.5-4.5,1-2.7,1.4-5.2c0.4-2.7,0.8-3.1,1.1-6.6c0.3-6.7,0.5-3,0.7-7.1c0.1,0.9,0.2-2.4,0.2-6.7C-219.2,99.5-219.8,98.7-221,99.3z
	 M-280.5,141.6c-3.5,0-9.5,0-13.2,0c-2.3,0-4.5-0.6-6.5-1.8c-9-5.3-3.6-8.6,5.6-7.4c1.2,0.1,2.3,0.2,3.5,0.2h7.9c1,0,2,0,2.9-0.1
	c9.5-1.1,14.6,2.5,5.6,7.6C-276.4,141.1-278.4,141.6-280.5,141.6z"/>
</svg>
