<?xml version="1.0" encoding="utf-8"?>
<!-- Generator: Adobe Illustrator 19.0.0, SVG Export Plug-In . SVG Version: 6.00 Build 0)  -->
<svg version="1.1" id="Layer_1" xmlns="http://www.w3.org/2000/svg" xmlns:xlink="http://www.w3.org/1999/xlink" x="0px" y="0px"
	 viewBox="-738 144.2 466.4 466" style="enable-background:new -738 144.2 466.4 466;" xml:space="preserve">
<style type="text/css">
	.st0{fill:#F2E482;}
	.st1{fill:#E8C256;}
	.st2{fill:none;stroke:#252628;stroke-width:24;stroke-linecap:round;stroke-linejoin:round;stroke-miterlimit:10;}
	.st3{fill:none;stroke:#252628;stroke-width:17;stroke-linecap:round;stroke-linejoin:round;stroke-miterlimit:10;}
	.st4{fill:#252628;}
	.st5{fill:none;stroke:#252628;stroke-width:11;stroke-linecap:round;stroke-linejoin:round;stroke-miterlimit:10;}
</style>
<g id="base">
	<rect id="XMLID_28_" x="-738" y="144.2" class="st0" width="465.9" height="465.9"/>
</g>
<g id="shaow">
	<polygon id="XMLID_5_" class="st1" points="-271.6,364.3 -290.6,295.4 -290.7,409.8 -323.7,432 -339,473.2 -672.8,473.2 
		-516.9,610.2 -272.1,610.1 	"/>
</g>
<g id="layer1">
	<path id="XMLID_2_" class="st2" d="M-369.5,275.9h-267.2c-11,0-20,9-20,20v102.5c0,11,9,20,20,20h267.2c11,0,20-9,20-20V295.9
		C-349.5,284.9-358.5,275.9-369.5,275.9z"/>
	<polyline id="XMLID_3_" class="st3" points="-617.6,312.7 -590.6,386.5 -560.7,312.7 -533.9,386.5 -504.1,312.7 	"/>
	<line id="XMLID_7_" class="st3" x1="-479.1" y1="313.2" x2="-479.1" y2="386.2"/>
	<polyline id="XMLID_8_" class="st3" points="-449.1,386.2 -449.1,313.2 -392.1,386.5 -392.1,313.2 	"/>
	<path id="XMLID_23_" class="st4" d="M-281.7,403.2c-4.1,0-7.5-3.4-7.5-7.5c0-4.1,3.4-7.5,7.5-7.5h0.1v-9h-0.1
		c-4.1,0-7.5-3.4-7.5-7.5c0-4.1,3.4-7.5,7.5-7.5h0.1v-9h-0.1c-4.1,0-7.5-3.4-7.5-7.5c0-4.1,3.4-7.5,7.5-7.5h0.1v-8h-0.1
		c-4.1,0-7.5-3.4-7.5-7.5c0-4.1,3.4-7.5,7.5-7.5h0.1v-9h-0.1c-4.1,0-7.5-3.4-7.5-7.5c0-4.1,3.4-7.5,7.5-7.5h0.1v-16.8
		c0-6.6-5.4-12-12-12c-20,0-36.3-16.2-36.3-36.3c0-6.6-5.4-11.9-12-11.9h-320.9c-6.6,0-12,5.3-12,11.9c0,20-16.5,36.3-36.6,36.3
		c-6.6,0-12.2,5.3-12.2,12v16.8c1,0,0.5,0,0.7,0c4.1,0,7.6,3.4,7.6,7.5c0,4.1-3.6,7.5-7.7,7.5c-0.1,0,0.4,0-0.6,0v9c1,0,0.5,0,0.7,0
		c4.1,0,7.6,3.4,7.6,7.5c0,4.1-3.6,7.5-7.7,7.5c-0.1,0,0.4,0-0.6,0v8c1,0,0.5,0,0.7,0c4.1,0,7.6,3.4,7.6,7.5c0,4.1-3.6,7.5-7.7,7.5
		c-0.1,0,0.4,0-0.6,0v9c1,0,0.5,0,0.7,0c4.1,0,7.6,3.4,7.6,7.5c0,4.1-3.6,7.5-7.7,7.5c-0.1,0,0.4,0-0.6,0v9c1,0,0.5,0,0.7,0
		c4.1,0,7.6,3.4,7.6,7.5c0,4.1-3.6,7.5-7.7,7.5c-0.1,0,0.4,0-0.6,0v12.7c0,6.6,5.6,12,12.2,12c20,0,36.4,16.3,36.4,36.3
		c0,6.6,5.5,12,12.1,12H-342c6.6,0,12-5.4,12-12c0-20,16.3-36.3,36.3-36.3c6.6,0,12-5.4,12-12V403.2
		C-281.6,403.2-281.7,403.2-281.7,403.2z M-305.6,405.1c-24,4.8-42.4,23.1-47.2,47.1H-652c-4.8-24-23.6-42.3-47.6-47.1V287.2
		c24-4.8,42.8-23,47.6-47h299.2c4.8,24,23.2,42.2,47.2,47L-305.6,405.1L-305.6,405.1z"/>
</g>
<g id="Layer_4">
</g>
<g id="Layer_5">
	<path id="XMLID_1_" class="st5" d="M-671.1,539.9c0,0,3.2-0.2,18-0.2c14.8,0,23,3,23,16.2c0,13.2-16.5,14.3-16.5,14.3h-25v-59h21
		c0,0,17.9-1.1,17.9,12.6s-11.4,16-18.9,16"/>
	<path id="XMLID_9_" class="st5" d="M-608.6,510.2v45.1c0,6.3,8.5,15.3,20.5,15.3s21.5-8.2,21.5-14.6v-45.8"/>
	<polyline id="XMLID_6_" class="st5" points="-550.7,510.5 -526.6,539.9 -526.6,570.2 	"/>
	<line id="XMLID_11_" class="st5" x1="-502.6" y1="510.7" x2="-526.6" y2="539.9"/>
	<polyline id="XMLID_12_" class="st5" points="-451.6,570.2 -486.6,570.2 -486.6,510.2 -451.6,510.2 	"/>
	<line id="XMLID_13_" class="st5" x1="-454.6" y1="540.2" x2="-486.6" y2="540.2"/>
	<path id="XMLID_14_" class="st5" d="M-432.6,570.2v-28.7v-31.3h22c0,0,18.1-1.7,18.1,15s-17.5,17-17.5,17h-18.6"/>
	<path id="XMLID_16_" class="st5" d="M-390.7,569.7c0,0-12.4-27.5-23.9-27.5"/>
	<path id="XMLID_18_" class="st5" d="M-374.6,562.9c0,0,8.2,7.6,22.2,7.6s19.3-9.7,19.3-14.6c0-4.9-2.9-12-19.3-15.6
		c-16.4-3.6-20.9-7.3-20.9-15.1s15.3-26,40.2-8.6"/>
</g>
</svg>
