<?xml version="1.0" encoding="utf-8"?>
<!-- Generator: Adobe Illustrator 19.0.0, SVG Export Plug-In . SVG Version: 6.00 Build 0)  -->
<svg version="1.1" id="Layer_1" xmlns="http://www.w3.org/2000/svg" xmlns:xlink="http://www.w3.org/1999/xlink" x="0px" y="0px"
	 viewBox="-246 48.1 465.9 465.9" style="enable-background:new -246 48.1 465.9 465.9;" xml:space="preserve">
<style type="text/css">
	.st0{fill:#F1FF5E;}
	.st1{fill:#E8C256;}
	.st2{fill:none;stroke:#252628;stroke-width:24;stroke-linecap:round;stroke-linejoin:round;stroke-miterlimit:10;}
	.st3{fill:none;stroke:#252628;stroke-width:17;stroke-linecap:round;stroke-linejoin:round;stroke-miterlimit:10;}
	.st4{fill:#252628;}
	.st5{fill:none;stroke:#252628;stroke-width:11;stroke-linecap:round;stroke-linejoin:round;stroke-miterlimit:10;}
</style>
<g id="base">
	<rect id="XMLID_28_" x="-246" y="48.1" class="st0" width="465.9" height="465.9"/>
</g>
<g id="shaow">
	<polygon id="XMLID_5_" class="st1" points="220.4,268.2 201.4,199.3 201.3,313.7 168.3,335.9 153,377.1 -180.8,377.1 -24.9,514.1 
		219.9,514 	"/>
</g>
<g id="layer1">
	<path id="XMLID_2_" class="st2" d="M122.5,179.8h-267.2c-11,0-20,9-20,20v102.5c0,11,9,20,20,20h267.2c11,0,20-9,20-20V199.8
		C142.5,188.8,133.5,179.8,122.5,179.8z"/>
	<polyline id="XMLID_3_" class="st3" points="-125.6,216.6 -98.6,290.4 -68.7,216.6 -41.9,290.4 -12.1,216.6 	"/>
	<line id="XMLID_7_" class="st3" x1="12.9" y1="217.1" x2="12.9" y2="290.1"/>
	<polyline id="XMLID_8_" class="st3" points="42.9,290.1 42.9,217.1 99.9,290.4 99.9,217.1 	"/>
	<path id="XMLID_23_" class="st4" d="M210.3,307.1c-4.1,0-7.5-3.4-7.5-7.5s3.4-7.5,7.5-7.5h0.1v-9h-0.1c-4.1,0-7.5-3.4-7.5-7.5
		s3.4-7.5,7.5-7.5h0.1v-9h-0.1c-4.1,0-7.5-3.4-7.5-7.5s3.4-7.5,7.5-7.5h0.1v-8h-0.1c-4.1,0-7.5-3.4-7.5-7.5s3.4-7.5,7.5-7.5h0.1v-9
		h-0.1c-4.1,0-7.5-3.4-7.5-7.5s3.4-7.5,7.5-7.5h0.1v-16.8c0-6.6-5.4-12-12-12c-20,0-36.3-16.2-36.3-36.3c0-6.6-5.4-11.9-12-11.9
		h-320.9c-6.6,0-12,5.3-12,11.9c0,20-16.5,36.3-36.6,36.3c-6.6,0-12.2,5.3-12.2,12v16.8c1,0,0.5,0,0.7,0c4.1,0,7.6,3.4,7.6,7.5
		s-3.6,7.5-7.7,7.5c-0.1,0,0.4,0-0.6,0v9c1,0,0.5,0,0.7,0c4.1,0,7.6,3.4,7.6,7.5s-3.6,7.5-7.7,7.5c-0.1,0,0.4,0-0.6,0v8
		c1,0,0.5,0,0.7,0c4.1,0,7.6,3.4,7.6,7.5s-3.6,7.5-7.7,7.5c-0.1,0,0.4,0-0.6,0v9c1,0,0.5,0,0.7,0c4.1,0,7.6,3.4,7.6,7.5
		s-3.6,7.5-7.7,7.5c-0.1,0,0.4,0-0.6,0v9c1,0,0.5,0,0.7,0c4.1,0,7.6,3.4,7.6,7.5s-3.6,7.5-7.7,7.5c-0.1,0,0.4,0-0.6,0v12.7
		c0,6.6,5.6,12,12.2,12c20,0,36.4,16.3,36.4,36.3c0,6.6,5.5,12,12.1,12H150c6.6,0,12-5.4,12-12c0-20,16.3-36.3,36.3-36.3
		c6.6,0,12-5.4,12-12V307.1C210.4,307.1,210.3,307.1,210.3,307.1z M186.4,309c-24,4.8-42.4,23.1-47.2,47.1H-160
		c-4.8-24-23.6-42.3-47.6-47.1V191.1c24-4.8,42.8-23,47.6-47h299.2c4.8,24,23.2,42.2,47.2,47L186.4,309L186.4,309z"/>
</g>
<g id="Layer_4">
</g>
<g id="Layer_5">
	<path id="XMLID_1_" class="st5" d="M-179.1,443.8c0,0,3.2-0.2,18-0.2c14.8,0,23,3,23,16.2s-16.5,14.3-16.5,14.3h-25v-59h21
		c0,0,17.9-1.1,17.9,12.6s-11.4,16-18.9,16"/>
	<path id="XMLID_9_" class="st5" d="M-116.6,414.1v45.1c0,6.3,8.5,15.3,20.5,15.3s21.5-8.2,21.5-14.6v-45.8"/>
	<polyline id="XMLID_6_" class="st5" points="-58.7,414.4 -34.6,443.8 -34.6,474.1 	"/>
	<line id="XMLID_11_" class="st5" x1="-10.6" y1="414.6" x2="-34.6" y2="443.8"/>
	<polyline id="XMLID_12_" class="st5" points="40.4,474.1 5.4,474.1 5.4,414.1 40.4,414.1 	"/>
	<line id="XMLID_13_" class="st5" x1="37.4" y1="444.1" x2="5.4" y2="444.1"/>
	<path id="XMLID_14_" class="st5" d="M59.4,474.1v-28.7v-31.3h22c0,0,18.1-1.7,18.1,15s-17.5,17-17.5,17H63.4"/>
	<path id="XMLID_16_" class="st5" d="M101.3,473.6c0,0-12.4-27.5-23.9-27.5"/>
	<path id="XMLID_18_" class="st5" d="M117.4,466.8c0,0,8.2,7.6,22.2,7.6s19.3-9.7,19.3-14.6s-2.9-12-19.3-15.6s-20.9-7.3-20.9-15.1
		c0-7.8,15.3-26,40.2-8.6"/>
</g>
</svg>
