<?xml version="1.0" encoding="utf-8"?>
<!-- Generator: Adobe Illustrator 19.0.0, SVG Export Plug-In . SVG Version: 6.00 Build 0)  -->
<svg version="1.1" id="Layer_1" xmlns="http://www.w3.org/2000/svg" xmlns:xlink="http://www.w3.org/1999/xlink" x="0px" y="0px"
	 viewBox="-492 96.2 466.4 466" style="enable-background:new -492 96.2 466.4 466;" xml:space="preserve">
<style type="text/css">
	.st0{fill:#FFEB59;}
	.st1{fill:#E8C256;}
	.st2{fill:none;stroke:#252628;stroke-width:24;stroke-linecap:round;stroke-linejoin:round;stroke-miterlimit:10;}
	.st3{fill:none;stroke:#252628;stroke-width:17;stroke-linecap:round;stroke-linejoin:round;stroke-miterlimit:10;}
	.st4{fill:#252628;}
	.st5{fill:none;stroke:#252628;stroke-width:11;stroke-linecap:round;stroke-linejoin:round;stroke-miterlimit:10;}
</style>
<g id="base">
	<rect id="XMLID_28_" x="-492" y="96.2" class="st0" width="465.9" height="465.9"/>
</g>
<g id="shaow">
	<polygon id="XMLID_5_" class="st1" points="-25.6,316.3 -44.6,247.4 -44.7,361.8 -77.7,384 -93,425.2 -426.8,425.2 -270.9,562.2 
		-26.1,562.1 	"/>
</g>
<g id="layer1">
	<path id="XMLID_2_" class="st2" d="M-123.5,227.9h-267.2c-11,0-20,9-20,20v102.5c0,11,9,20,20,20h267.2c11,0,20-9,20-20V247.9
		C-103.5,236.9-112.5,227.9-123.5,227.9z"/>
	<polyline id="XMLID_3_" class="st3" points="-371.6,264.7 -344.6,338.5 -314.7,264.7 -287.9,338.5 -258.1,264.7 	"/>
	<line id="XMLID_7_" class="st3" x1="-233.1" y1="265.2" x2="-233.1" y2="338.2"/>
	<polyline id="XMLID_8_" class="st3" points="-203.1,338.2 -203.1,265.2 -146.1,338.5 -146.1,265.2 	"/>
	<path id="XMLID_23_" class="st4" d="M-35.7,355.2c-4.1,0-7.5-3.4-7.5-7.5s3.4-7.5,7.5-7.5h0.1v-9h-0.1c-4.1,0-7.5-3.4-7.5-7.5
		s3.4-7.5,7.5-7.5h0.1v-9h-0.1c-4.1,0-7.5-3.4-7.5-7.5s3.4-7.5,7.5-7.5h0.1v-8h-0.1c-4.1,0-7.5-3.4-7.5-7.5s3.4-7.5,7.5-7.5h0.1v-9
		h-0.1c-4.1,0-7.5-3.4-7.5-7.5s3.4-7.5,7.5-7.5h0.1v-16.8c0-6.6-5.4-12-12-12c-20,0-36.3-16.2-36.3-36.3c0-6.6-5.4-11.9-12-11.9
		h-320.9c-6.6,0-12,5.3-12,11.9c0,20-16.5,36.3-36.6,36.3c-6.6,0-12.2,5.3-12.2,12v16.8c1,0,0.5,0,0.7,0c4.1,0,7.6,3.4,7.6,7.5
		s-3.6,7.5-7.7,7.5c-0.1,0,0.4,0-0.6,0v9c1,0,0.5,0,0.7,0c4.1,0,7.6,3.4,7.6,7.5s-3.6,7.5-7.7,7.5c-0.1,0,0.4,0-0.6,0v8
		c1,0,0.5,0,0.7,0c4.1,0,7.6,3.4,7.6,7.5s-3.6,7.5-7.7,7.5c-0.1,0,0.4,0-0.6,0v9c1,0,0.5,0,0.7,0c4.1,0,7.6,3.4,7.6,7.5
		s-3.6,7.5-7.7,7.5c-0.1,0,0.4,0-0.6,0v9c1,0,0.5,0,0.7,0c4.1,0,7.6,3.4,7.6,7.5s-3.6,7.5-7.7,7.5c-0.1,0,0.4,0-0.6,0v12.7
		c0,6.6,5.6,12,12.2,12c20,0,36.4,16.3,36.4,36.3c0,6.6,5.5,12,12.1,12H-96c6.6,0,12-5.4,12-12c0-20,16.3-36.3,36.3-36.3
		c6.6,0,12-5.4,12-12V355.2C-35.6,355.2-35.7,355.2-35.7,355.2z M-59.6,357.1c-24,4.8-42.4,23.1-47.2,47.1H-406
		c-4.8-24-23.6-42.3-47.6-47.1V239.2c24-4.8,42.8-23,47.6-47h299.2c4.8,24,23.2,42.2,47.2,47L-59.6,357.1L-59.6,357.1z"/>
</g>
<g id="Layer_4">
</g>
<g id="Layer_5">
	<path id="XMLID_1_" class="st5" d="M-425.1,491.9c0,0,3.2-0.2,18-0.2s23,3,23,16.2c0,13.2-16.5,14.3-16.5,14.3h-25v-59h21
		c0,0,17.9-1.1,17.9,12.6s-11.4,16-18.9,16"/>
	<path id="XMLID_9_" class="st5" d="M-362.6,462.2v45.1c0,6.3,8.5,15.3,20.5,15.3s21.5-8.2,21.5-14.6v-45.8"/>
	<polyline id="XMLID_6_" class="st5" points="-304.7,462.5 -280.6,491.9 -280.6,522.2 	"/>
	<line id="XMLID_11_" class="st5" x1="-256.6" y1="462.7" x2="-280.6" y2="491.9"/>
	<polyline id="XMLID_12_" class="st5" points="-205.6,522.2 -240.6,522.2 -240.6,462.2 -205.6,462.2 	"/>
	<line id="XMLID_13_" class="st5" x1="-208.6" y1="492.2" x2="-240.6" y2="492.2"/>
	<path id="XMLID_14_" class="st5" d="M-186.6,522.2v-28.7v-31.3h22c0,0,18.1-1.7,18.1,15s-17.5,17-17.5,17h-18.6"/>
	<path id="XMLID_16_" class="st5" d="M-144.7,521.7c0,0-12.4-27.5-23.9-27.5"/>
	<path id="XMLID_18_" class="st5" d="M-128.6,514.9c0,0,8.2,7.6,22.2,7.6s19.3-9.7,19.3-14.6s-2.9-12-19.3-15.6s-20.9-7.3-20.9-15.1
		c0-7.8,15.3-26,40.2-8.6"/>
</g>
</svg>
