<?xml version="1.0" encoding="utf-8"?>
<!-- Generator: Adobe Illustrator 19.0.0, SVG Export Plug-In . SVG Version: 6.00 Build 0)  -->
<svg version="1.1" id="Layer_1" xmlns="http://www.w3.org/2000/svg" xmlns:xlink="http://www.w3.org/1999/xlink" x="0px" y="0px"
	 viewBox="1617 256.8 2038.9 390.4" style="enable-background:new 1617 256.8 2038.9 390.4;" xml:space="preserve">
<style type="text/css">
	.st0{fill:#5858A3;}
	.st1{fill:none;stroke:#F2E482;stroke-width:11;stroke-linecap:round;stroke-linejoin:round;stroke-miterlimit:10;}
</style>
<g id="guides">
	<g id="XMLID_70_">
	</g>
	<g id="XMLID_48_">
	</g>
	<g id="XMLID_40_">
	</g>
	<g id="XMLID_57_">
	</g>
	<g id="XMLID_111_">
	</g>
	<g id="XMLID_101_">
	</g>
	<g id="XMLID_91_">
	</g>
	<g id="XMLID_151_">
	</g>
	<g id="XMLID_141_">
	</g>
	<g id="XMLID_80_">
	</g>
	<g id="XMLID_131_">
	</g>
	<g id="XMLID_121_">
	</g>
</g>
<g id="circles">
	<circle id="XMLID_205_" class="st0" cx="2190.7" cy="553.6" r="25"/>
	<circle id="XMLID_204_" class="st0" cx="2190.7" cy="622.2" r="25"/>
	<circle id="XMLID_203_" class="st0" cx="2190.7" cy="416.5" r="25"/>
	<circle id="XMLID_202_" class="st0" cx="2190.7" cy="485.1" r="25"/>
	<circle id="XMLID_201_" class="st0" cx="2259.2" cy="553.7" r="25"/>
	<circle id="XMLID_200_" class="st0" cx="2259.2" cy="622.2" r="25"/>
	<circle id="XMLID_199_" class="st0" cx="2259.2" cy="416.5" r="25"/>
	<circle id="XMLID_198_" class="st0" cx="2259.2" cy="485.1" r="25"/>
	<circle id="XMLID_197_" class="st0" cx="2327.8" cy="416.5" r="25"/>
	<circle id="XMLID_196_" class="st0" cx="2396.4" cy="416.5" r="25"/>
	<circle id="XMLID_195_" class="st0" cx="2396.4" cy="485" r="25"/>
	<circle id="XMLID_194_" class="st0" cx="2465" cy="416.5" r="25"/>
	<circle id="XMLID_193_" class="st0" cx="2465" cy="485.1" r="25"/>
	<circle id="XMLID_192_" class="st0" cx="2533.6" cy="416.5" r="25"/>
	<circle id="XMLID_191_" class="st0" cx="2533.6" cy="485" r="25"/>
	<circle id="XMLID_190_" class="st0" cx="2602.2" cy="416.5" r="25"/>
	<circle id="XMLID_189_" class="st0" cx="2602.2" cy="485.1" r="25"/>
	<circle id="XMLID_188_" class="st0" cx="2670.7" cy="416.5" r="25"/>
	<circle id="XMLID_187_" class="st0" cx="2670.7" cy="485.1" r="25"/>
	<circle id="XMLID_186_" class="st0" cx="2739.3" cy="416.5" r="25"/>
	<circle id="XMLID_185_" class="st0" cx="2739.3" cy="485" r="25"/>
	<circle id="XMLID_184_" class="st0" cx="2807.9" cy="416.5" r="25"/>
	<circle id="XMLID_183_" class="st0" cx="2807.9" cy="485.1" r="25"/>
	<circle id="XMLID_180_" class="st0" cx="2876.5" cy="416.5" r="25"/>
	<circle id="XMLID_179_" class="st0" cx="2876.5" cy="485" r="25"/>
	<circle id="XMLID_176_" class="st0" cx="2945.1" cy="416.5" r="25"/>
	<circle id="XMLID_175_" class="st0" cx="2945.1" cy="485.1" r="25"/>
	<circle id="XMLID_229_" class="st0" cx="3009.5" cy="553.6" r="25"/>
	<circle id="XMLID_228_" class="st0" cx="3009.5" cy="622.2" r="25"/>
	<circle id="XMLID_227_" class="st0" cx="3009.5" cy="416.5" r="25"/>
	<circle id="XMLID_226_" class="st0" cx="3009.5" cy="485.1" r="25"/>
	<circle id="XMLID_245_" class="st0" cx="3080.2" cy="553.6" r="25"/>
	<circle id="XMLID_244_" class="st0" cx="3080.2" cy="622.2" r="25"/>
	<circle id="XMLID_243_" class="st0" cx="3080.2" cy="416.5" r="25"/>
	<circle id="XMLID_235_" class="st0" cx="2190.7" cy="281.8" r="25"/>
	<circle id="XMLID_234_" class="st0" cx="2259.2" cy="281.8" r="25"/>
	<circle id="XMLID_233_" class="st0" cx="2327.8" cy="281.8" r="25"/>
	<circle id="XMLID_232_" class="st0" cx="2396.4" cy="281.8" r="25"/>
	<circle id="XMLID_231_" class="st0" cx="2465" cy="281.8" r="25"/>
	<circle id="XMLID_230_" class="st0" cx="2533.6" cy="281.8" r="25"/>
	<circle id="XMLID_224_" class="st0" cx="2602.2" cy="281.8" r="25"/>
	<circle id="XMLID_223_" class="st0" cx="2670.7" cy="281.8" r="25"/>
	<circle id="XMLID_222_" class="st0" cx="2739.3" cy="281.8" r="25"/>
	<circle id="XMLID_221_" class="st0" cx="2807.9" cy="281.8" r="25"/>
	<circle id="XMLID_220_" class="st0" cx="2876.5" cy="281.8" r="25"/>
	<circle id="XMLID_219_" class="st0" cx="2945.1" cy="281.8" r="25"/>
	<circle id="XMLID_218_" class="st0" cx="3009.5" cy="281.8" r="25"/>
	<circle id="XMLID_217_" class="st0" cx="3080.2" cy="281.8" r="25"/>
	<circle id="XMLID_263_" class="st0" cx="2190.7" cy="350.4" r="25"/>
	<circle id="XMLID_262_" class="st0" cx="2259.2" cy="350.4" r="25"/>
	<circle id="XMLID_261_" class="st0" cx="2327.8" cy="350.4" r="25"/>
	<circle id="XMLID_260_" class="st0" cx="2396.4" cy="350.4" r="25"/>
	<circle id="XMLID_259_" class="st0" cx="2465" cy="350.4" r="25"/>
	<circle id="XMLID_258_" class="st0" cx="2533.6" cy="350.4" r="25"/>
	<circle id="XMLID_257_" class="st0" cx="2602.2" cy="350.4" r="25"/>
	<circle id="XMLID_253_" class="st0" cx="2670.7" cy="350.4" r="25"/>
	<circle id="XMLID_241_" class="st0" cx="2739.3" cy="350.4" r="25"/>
	<circle id="XMLID_240_" class="st0" cx="2807.9" cy="350.4" r="25"/>
	<circle id="XMLID_239_" class="st0" cx="2876.5" cy="350.4" r="25"/>
	<circle id="XMLID_238_" class="st0" cx="2945.1" cy="350.4" r="25"/>
	<circle id="XMLID_237_" class="st0" cx="3009.5" cy="350.4" r="25"/>
	<circle id="XMLID_236_" class="st0" cx="3080.2" cy="350.4" r="25"/>
	<circle id="XMLID_242_" class="st0" cx="3080.2" cy="485" r="25"/>
	<circle id="XMLID_166_" class="st0" cx="3150.8" cy="553.6" r="25"/>
	<circle id="XMLID_165_" class="st0" cx="3150.8" cy="622.2" r="25"/>
	<circle id="XMLID_164_" class="st0" cx="3150.8" cy="416.5" r="25"/>
	<circle id="XMLID_163_" class="st0" cx="3150.8" cy="281.8" r="25"/>
	<circle id="XMLID_162_" class="st0" cx="3150.8" cy="350.4" r="25"/>
	<circle id="XMLID_161_" class="st0" cx="3150.8" cy="485" r="25"/>
	<circle id="XMLID_212_" class="st0" cx="3217.3" cy="553.6" r="25"/>
	<circle id="XMLID_211_" class="st0" cx="3217.3" cy="622.2" r="25"/>
	<circle id="XMLID_210_" class="st0" cx="3217.3" cy="416.5" r="25"/>
	<circle id="XMLID_209_" class="st0" cx="3217.3" cy="485.1" r="25"/>
	<circle id="XMLID_208_" class="st0" cx="3288" cy="553.6" r="25"/>
	<circle id="XMLID_207_" class="st0" cx="3288" cy="622.2" r="25"/>
	<circle id="XMLID_206_" class="st0" cx="3288" cy="416.5" r="25"/>
	<circle id="XMLID_182_" class="st0" cx="3217.3" cy="281.8" r="25"/>
	<circle id="XMLID_181_" class="st0" cx="3288" cy="281.8" r="25"/>
	<circle id="XMLID_178_" class="st0" cx="3217.3" cy="350.4" r="25"/>
	<circle id="XMLID_174_" class="st0" cx="3288" cy="350.4" r="25"/>
	<circle id="XMLID_173_" class="st0" cx="3288" cy="485" r="25"/>
	<circle id="XMLID_172_" class="st0" cx="3358.7" cy="553.6" r="25"/>
	<circle id="XMLID_171_" class="st0" cx="3358.7" cy="622.2" r="25"/>
	<circle id="XMLID_170_" class="st0" cx="3358.7" cy="416.5" r="25"/>
	<circle id="XMLID_169_" class="st0" cx="3358.7" cy="281.8" r="25"/>
	<circle id="XMLID_168_" class="st0" cx="3358.7" cy="350.4" r="25"/>
	<circle id="XMLID_167_" class="st0" cx="3358.7" cy="485" r="25"/>
	<circle id="XMLID_295_" class="st0" cx="3425.2" cy="553.6" r="25"/>
	<circle id="XMLID_294_" class="st0" cx="3425.2" cy="622.2" r="25"/>
	<circle id="XMLID_293_" class="st0" cx="3425.2" cy="416.5" r="25"/>
	<circle id="XMLID_292_" class="st0" cx="3425.2" cy="281.8" r="25"/>
	<circle id="XMLID_291_" class="st0" cx="3425.2" cy="350.4" r="25"/>
	<circle id="XMLID_290_" class="st0" cx="3425.2" cy="485" r="25"/>
	<circle id="XMLID_344_" class="st0" cx="3493.7" cy="553.6" r="25"/>
	<circle id="XMLID_343_" class="st0" cx="3493.7" cy="622.2" r="25"/>
	<circle id="XMLID_342_" class="st0" cx="3493.7" cy="416.5" r="25"/>
	<circle id="XMLID_341_" class="st0" cx="3493.7" cy="281.8" r="25"/>
	<circle id="XMLID_340_" class="st0" cx="3493.7" cy="350.4" r="25"/>
	<circle id="XMLID_339_" class="st0" cx="3493.7" cy="485" r="25"/>
	<circle id="XMLID_338_" class="st0" cx="3564.4" cy="553.6" r="25"/>
	<circle id="XMLID_337_" class="st0" cx="3564.4" cy="622.2" r="25"/>
	<circle id="XMLID_336_" class="st0" cx="3564.4" cy="416.5" r="25"/>
	<circle id="XMLID_335_" class="st0" cx="3564.4" cy="281.8" r="25"/>
	<circle id="XMLID_334_" class="st0" cx="3564.4" cy="350.4" r="25"/>
	<circle id="XMLID_333_" class="st0" cx="3564.4" cy="485" r="25"/>
	<circle id="XMLID_332_" class="st0" cx="3630.9" cy="553.6" r="25"/>
	<circle id="XMLID_331_" class="st0" cx="3630.9" cy="622.2" r="25"/>
	<circle id="XMLID_330_" class="st0" cx="3630.9" cy="416.5" r="25"/>
	<circle id="XMLID_329_" class="st0" cx="3630.9" cy="281.8" r="25"/>
	<circle id="XMLID_328_" class="st0" cx="3630.9" cy="350.4" r="25"/>
	<circle id="XMLID_327_" class="st0" cx="3630.9" cy="485" r="25"/>
	<circle id="XMLID_289_" class="st0" cx="1845.7" cy="553.6" r="25"/>
	<circle id="XMLID_288_" class="st0" cx="1845.7" cy="622.2" r="25"/>
	<circle id="XMLID_287_" class="st0" cx="1845.7" cy="416.5" r="25"/>
	<circle id="XMLID_286_" class="st0" cx="1845.7" cy="281.8" r="25"/>
	<circle id="XMLID_285_" class="st0" cx="1845.7" cy="350.4" r="25"/>
	<circle id="XMLID_284_" class="st0" cx="1845.7" cy="485" r="25"/>
	<circle id="XMLID_283_" class="st0" cx="1916.3" cy="553.6" r="25"/>
	<circle id="XMLID_282_" class="st0" cx="1916.3" cy="622.2" r="25"/>
	<circle id="XMLID_281_" class="st0" cx="1916.3" cy="416.5" r="25"/>
	<circle id="XMLID_280_" class="st0" cx="1916.3" cy="281.8" r="25"/>
	<circle id="XMLID_279_" class="st0" cx="1916.3" cy="350.4" r="25"/>
	<circle id="XMLID_278_" class="st0" cx="1916.3" cy="485" r="25"/>
	<circle id="XMLID_277_" class="st0" cx="1982.8" cy="553.6" r="25"/>
	<circle id="XMLID_276_" class="st0" cx="1982.8" cy="622.2" r="25"/>
	<circle id="XMLID_275_" class="st0" cx="1982.8" cy="416.5" r="25"/>
	<circle id="XMLID_274_" class="st0" cx="1982.8" cy="485.1" r="25"/>
	<circle id="XMLID_273_" class="st0" cx="2053.5" cy="553.6" r="25"/>
	<circle id="XMLID_272_" class="st0" cx="2053.5" cy="622.2" r="25"/>
	<circle id="XMLID_271_" class="st0" cx="2053.5" cy="416.5" r="25"/>
	<circle id="XMLID_270_" class="st0" cx="1982.8" cy="281.8" r="25"/>
	<circle id="XMLID_269_" class="st0" cx="2053.5" cy="281.8" r="25"/>
	<circle id="XMLID_268_" class="st0" cx="1982.8" cy="350.4" r="25"/>
	<circle id="XMLID_326_" class="st0" cx="1642" cy="553.6" r="25"/>
	<circle id="XMLID_325_" class="st0" cx="1642" cy="622.2" r="25"/>
	<circle id="XMLID_324_" class="st0" cx="1642" cy="416.5" r="25"/>
	<circle id="XMLID_323_" class="st0" cx="1642" cy="281.8" r="25"/>
	<circle id="XMLID_322_" class="st0" cx="1642" cy="350.4" r="25"/>
	<circle id="XMLID_321_" class="st0" cx="1642" cy="485" r="25"/>
	<circle id="XMLID_320_" class="st0" cx="1712.7" cy="553.6" r="25"/>
	<circle id="XMLID_319_" class="st0" cx="1712.7" cy="622.2" r="25"/>
	<circle id="XMLID_318_" class="st0" cx="1712.7" cy="416.5" r="25"/>
	<circle id="XMLID_317_" class="st0" cx="1712.7" cy="281.8" r="25"/>
	<circle id="XMLID_316_" class="st0" cx="1712.7" cy="350.4" r="25"/>
	<circle id="XMLID_315_" class="st0" cx="1712.7" cy="485" r="25"/>
	<circle id="XMLID_314_" class="st0" cx="1779.2" cy="553.6" r="25"/>
	<circle id="XMLID_313_" class="st0" cx="1779.2" cy="622.2" r="25"/>
	<circle id="XMLID_312_" class="st0" cx="1779.2" cy="416.5" r="25"/>
	<circle id="XMLID_311_" class="st0" cx="1779.2" cy="485.1" r="25"/>
	<circle id="XMLID_310_" class="st0" cx="1779.2" cy="281.8" r="25"/>
	<circle id="XMLID_309_" class="st0" cx="1779.2" cy="350.4" r="25"/>
	<circle id="XMLID_267_" class="st0" cx="2053.5" cy="350.4" r="25"/>
	<circle id="XMLID_266_" class="st0" cx="2053.5" cy="485" r="25"/>
	<circle id="XMLID_265_" class="st0" cx="2124.2" cy="553.6" r="25"/>
	<circle id="XMLID_264_" class="st0" cx="2124.2" cy="622.2" r="25"/>
	<circle id="XMLID_216_" class="st0" cx="2124.2" cy="416.5" r="25"/>
	<circle id="XMLID_215_" class="st0" cx="2124.2" cy="281.8" r="25"/>
	<circle id="XMLID_214_" class="st0" cx="2124.2" cy="350.4" r="25"/>
	<circle id="XMLID_213_" class="st0" cx="2124.2" cy="485" r="25"/>
</g>
<g id="letters">
	<line id="XMLID_246_" class="st1" x1="2328.5" y1="539" x2="2328.5" y2="635.5"/>
	<polyline id="XMLID_249_" class="st1" points="2382.4,635.5 2382.4,539 2387.9,539 2456.6,635.5 2463.6,635.5 2463.6,539 	"/>
	<line id="XMLID_248_" class="st1" x1="2489.3" y1="539" x2="2568.9" y2="539"/>
	<line id="XMLID_247_" class="st1" x1="2532.7" y1="635.5" x2="2532.7" y2="539"/>
	<line id="XMLID_250_" class="st1" x1="2599.5" y1="539" x2="2599.5" y2="635.5"/>
	<path id="XMLID_225_" class="st1" d="M2730.9,587.3c0,26.7-22.6,51.3-49.3,51.3s-47.3-24.6-47.3-51.3s20.6-48.3,47.3-48.3
		C2708.3,539,2730.9,560.6,2730.9,587.3z"/>
	<line id="XMLID_252_" class="st1" x1="2732.3" y1="638.5" x2="2681.7" y2="638.5"/>
	<path id="XMLID_254_" class="st1" d="M2798.3,597.9"/>
	<path id="XMLID_251_" class="st1" d="M2765.2,539v72c0,10.6,14.8,27.1,35.7,27.1s37.9-16.6,37.9-27.1v-72"/>
	<polyline id="XMLID_255_" class="st1" points="2943.3,539 2882.1,539 2882.1,635.5 2943.3,635.5 	"/>
	<line id="XMLID_256_" class="st1" x1="2937" y1="588.8" x2="2882.1" y2="588.8"/>
	<circle id="XMLID_177_" class="st1" cx="2327.8" cy="485" r="29.8"/>
</g>
</svg>
