<?xml version="1.0" encoding="utf-8"?>
<!-- Generator: Adobe Illustrator 19.0.0, SVG Export Plug-In . SVG Version: 6.00 Build 0)  -->
<svg version="1.1" id="Layer_1" xmlns="http://www.w3.org/2000/svg" xmlns:xlink="http://www.w3.org/1999/xlink" x="0px" y="0px"
	 viewBox="539 85.6 2038.9 390.4" style="enable-background:new 539 85.6 2038.9 390.4;" xml:space="preserve">
<style type="text/css">
	.st0{fill:#5858A3;}
	.st1{fill:none;stroke:#F1FF5E;stroke-width:11;stroke-linecap:round;stroke-linejoin:round;stroke-miterlimit:10;}
</style>
<g id="guides">
	<g id="XMLID_70_">
	</g>
	<g id="XMLID_48_">
	</g>
	<g id="XMLID_40_">
	</g>
	<g id="XMLID_57_">
	</g>
	<g id="XMLID_111_">
	</g>
	<g id="XMLID_101_">
	</g>
	<g id="XMLID_91_">
	</g>
	<g id="XMLID_151_">
	</g>
	<g id="XMLID_141_">
	</g>
	<g id="XMLID_80_">
	</g>
	<g id="XMLID_131_">
	</g>
	<g id="XMLID_121_">
	</g>
</g>
<g id="circles">
	<circle id="XMLID_205_" class="st0" cx="1112.7" cy="382.4" r="25"/>
	<circle id="XMLID_204_" class="st0" cx="1112.7" cy="451" r="25"/>
	<circle id="XMLID_203_" class="st0" cx="1112.7" cy="245.3" r="25"/>
	<circle id="XMLID_202_" class="st0" cx="1112.7" cy="313.9" r="25"/>
	<circle id="XMLID_201_" class="st0" cx="1181.2" cy="382.5" r="25"/>
	<circle id="XMLID_200_" class="st0" cx="1181.2" cy="451" r="25"/>
	<circle id="XMLID_199_" class="st0" cx="1181.2" cy="245.3" r="25"/>
	<circle id="XMLID_198_" class="st0" cx="1181.2" cy="313.9" r="25"/>
	<circle id="XMLID_197_" class="st0" cx="1249.8" cy="245.3" r="25"/>
	<circle id="XMLID_196_" class="st0" cx="1318.4" cy="245.3" r="25"/>
	<circle id="XMLID_195_" class="st0" cx="1318.4" cy="313.8" r="25"/>
	<circle id="XMLID_194_" class="st0" cx="1387" cy="245.3" r="25"/>
	<circle id="XMLID_193_" class="st0" cx="1387" cy="313.9" r="25"/>
	<circle id="XMLID_192_" class="st0" cx="1455.6" cy="245.3" r="25"/>
	<circle id="XMLID_191_" class="st0" cx="1455.6" cy="313.8" r="25"/>
	<circle id="XMLID_190_" class="st0" cx="1524.2" cy="245.3" r="25"/>
	<circle id="XMLID_189_" class="st0" cx="1524.2" cy="313.9" r="25"/>
	<circle id="XMLID_188_" class="st0" cx="1592.7" cy="245.3" r="25"/>
	<circle id="XMLID_187_" class="st0" cx="1592.7" cy="313.9" r="25"/>
	<circle id="XMLID_186_" class="st0" cx="1661.3" cy="245.3" r="25"/>
	<circle id="XMLID_185_" class="st0" cx="1661.3" cy="313.8" r="25"/>
	<circle id="XMLID_184_" class="st0" cx="1729.9" cy="245.3" r="25"/>
	<circle id="XMLID_183_" class="st0" cx="1729.9" cy="313.9" r="25"/>
	<circle id="XMLID_180_" class="st0" cx="1798.5" cy="245.3" r="25"/>
	<circle id="XMLID_179_" class="st0" cx="1798.5" cy="313.8" r="25"/>
	<circle id="XMLID_176_" class="st0" cx="1867.1" cy="245.3" r="25"/>
	<circle id="XMLID_175_" class="st0" cx="1867.1" cy="313.9" r="25"/>
	<circle id="XMLID_229_" class="st0" cx="1931.5" cy="382.4" r="25"/>
	<circle id="XMLID_228_" class="st0" cx="1931.5" cy="451" r="25"/>
	<circle id="XMLID_227_" class="st0" cx="1931.5" cy="245.3" r="25"/>
	<circle id="XMLID_226_" class="st0" cx="1931.5" cy="313.9" r="25"/>
	<circle id="XMLID_245_" class="st0" cx="2002.2" cy="382.4" r="25"/>
	<circle id="XMLID_244_" class="st0" cx="2002.2" cy="451" r="25"/>
	<circle id="XMLID_243_" class="st0" cx="2002.2" cy="245.3" r="25"/>
	<circle id="XMLID_235_" class="st0" cx="1112.7" cy="110.6" r="25"/>
	<circle id="XMLID_234_" class="st0" cx="1181.2" cy="110.6" r="25"/>
	<circle id="XMLID_233_" class="st0" cx="1249.8" cy="110.6" r="25"/>
	<circle id="XMLID_232_" class="st0" cx="1318.4" cy="110.6" r="25"/>
	<circle id="XMLID_231_" class="st0" cx="1387" cy="110.6" r="25"/>
	<circle id="XMLID_230_" class="st0" cx="1455.6" cy="110.6" r="25"/>
	<circle id="XMLID_224_" class="st0" cx="1524.2" cy="110.6" r="25"/>
	<circle id="XMLID_223_" class="st0" cx="1592.7" cy="110.6" r="25"/>
	<circle id="XMLID_222_" class="st0" cx="1661.3" cy="110.6" r="25"/>
	<circle id="XMLID_221_" class="st0" cx="1729.9" cy="110.6" r="25"/>
	<circle id="XMLID_220_" class="st0" cx="1798.5" cy="110.6" r="25"/>
	<circle id="XMLID_219_" class="st0" cx="1867.1" cy="110.6" r="25"/>
	<circle id="XMLID_218_" class="st0" cx="1931.5" cy="110.6" r="25"/>
	<circle id="XMLID_217_" class="st0" cx="2002.2" cy="110.6" r="25"/>
	<circle id="XMLID_263_" class="st0" cx="1112.7" cy="179.2" r="25"/>
	<circle id="XMLID_262_" class="st0" cx="1181.2" cy="179.2" r="25"/>
	<circle id="XMLID_261_" class="st0" cx="1249.8" cy="179.2" r="25"/>
	<circle id="XMLID_260_" class="st0" cx="1318.4" cy="179.2" r="25"/>
	<circle id="XMLID_259_" class="st0" cx="1387" cy="179.2" r="25"/>
	<circle id="XMLID_258_" class="st0" cx="1455.6" cy="179.2" r="25"/>
	<circle id="XMLID_257_" class="st0" cx="1524.2" cy="179.2" r="25"/>
	<circle id="XMLID_253_" class="st0" cx="1592.7" cy="179.2" r="25"/>
	<circle id="XMLID_241_" class="st0" cx="1661.3" cy="179.2" r="25"/>
	<circle id="XMLID_240_" class="st0" cx="1729.9" cy="179.2" r="25"/>
	<circle id="XMLID_239_" class="st0" cx="1798.5" cy="179.2" r="25"/>
	<circle id="XMLID_238_" class="st0" cx="1867.1" cy="179.2" r="25"/>
	<circle id="XMLID_237_" class="st0" cx="1931.5" cy="179.2" r="25"/>
	<circle id="XMLID_236_" class="st0" cx="2002.2" cy="179.2" r="25"/>
	<circle id="XMLID_242_" class="st0" cx="2002.2" cy="313.8" r="25"/>
	<circle id="XMLID_166_" class="st0" cx="2072.8" cy="382.4" r="25"/>
	<circle id="XMLID_165_" class="st0" cx="2072.8" cy="451" r="25"/>
	<circle id="XMLID_164_" class="st0" cx="2072.8" cy="245.3" r="25"/>
	<circle id="XMLID_163_" class="st0" cx="2072.8" cy="110.6" r="25"/>
	<circle id="XMLID_162_" class="st0" cx="2072.8" cy="179.2" r="25"/>
	<circle id="XMLID_161_" class="st0" cx="2072.8" cy="313.8" r="25"/>
	<circle id="XMLID_212_" class="st0" cx="2139.3" cy="382.4" r="25"/>
	<circle id="XMLID_211_" class="st0" cx="2139.3" cy="451" r="25"/>
	<circle id="XMLID_210_" class="st0" cx="2139.3" cy="245.3" r="25"/>
	<circle id="XMLID_209_" class="st0" cx="2139.3" cy="313.9" r="25"/>
	<circle id="XMLID_208_" class="st0" cx="2210" cy="382.4" r="25"/>
	<circle id="XMLID_207_" class="st0" cx="2210" cy="451" r="25"/>
	<circle id="XMLID_206_" class="st0" cx="2210" cy="245.3" r="25"/>
	<circle id="XMLID_182_" class="st0" cx="2139.3" cy="110.6" r="25"/>
	<circle id="XMLID_181_" class="st0" cx="2210" cy="110.6" r="25"/>
	<circle id="XMLID_178_" class="st0" cx="2139.3" cy="179.2" r="25"/>
	<circle id="XMLID_174_" class="st0" cx="2210" cy="179.2" r="25"/>
	<circle id="XMLID_173_" class="st0" cx="2210" cy="313.8" r="25"/>
	<circle id="XMLID_172_" class="st0" cx="2280.7" cy="382.4" r="25"/>
	<circle id="XMLID_171_" class="st0" cx="2280.7" cy="451" r="25"/>
	<circle id="XMLID_170_" class="st0" cx="2280.7" cy="245.3" r="25"/>
	<circle id="XMLID_169_" class="st0" cx="2280.7" cy="110.6" r="25"/>
	<circle id="XMLID_168_" class="st0" cx="2280.7" cy="179.2" r="25"/>
	<circle id="XMLID_167_" class="st0" cx="2280.7" cy="313.8" r="25"/>
	<circle id="XMLID_295_" class="st0" cx="2347.2" cy="382.4" r="25"/>
	<circle id="XMLID_294_" class="st0" cx="2347.2" cy="451" r="25"/>
	<circle id="XMLID_293_" class="st0" cx="2347.2" cy="245.3" r="25"/>
	<circle id="XMLID_292_" class="st0" cx="2347.2" cy="110.6" r="25"/>
	<circle id="XMLID_291_" class="st0" cx="2347.2" cy="179.2" r="25"/>
	<circle id="XMLID_290_" class="st0" cx="2347.2" cy="313.8" r="25"/>
	<circle id="XMLID_344_" class="st0" cx="2415.7" cy="382.4" r="25"/>
	<circle id="XMLID_343_" class="st0" cx="2415.7" cy="451" r="25"/>
	<circle id="XMLID_342_" class="st0" cx="2415.7" cy="245.3" r="25"/>
	<circle id="XMLID_341_" class="st0" cx="2415.7" cy="110.6" r="25"/>
	<circle id="XMLID_340_" class="st0" cx="2415.7" cy="179.2" r="25"/>
	<circle id="XMLID_339_" class="st0" cx="2415.7" cy="313.8" r="25"/>
	<circle id="XMLID_338_" class="st0" cx="2486.4" cy="382.4" r="25"/>
	<circle id="XMLID_337_" class="st0" cx="2486.4" cy="451" r="25"/>
	<circle id="XMLID_336_" class="st0" cx="2486.4" cy="245.3" r="25"/>
	<circle id="XMLID_335_" class="st0" cx="2486.4" cy="110.6" r="25"/>
	<circle id="XMLID_334_" class="st0" cx="2486.4" cy="179.2" r="25"/>
	<circle id="XMLID_333_" class="st0" cx="2486.4" cy="313.8" r="25"/>
	<circle id="XMLID_332_" class="st0" cx="2552.9" cy="382.4" r="25"/>
	<circle id="XMLID_331_" class="st0" cx="2552.9" cy="451" r="25"/>
	<circle id="XMLID_330_" class="st0" cx="2552.9" cy="245.3" r="25"/>
	<circle id="XMLID_329_" class="st0" cx="2552.9" cy="110.6" r="25"/>
	<circle id="XMLID_328_" class="st0" cx="2552.9" cy="179.2" r="25"/>
	<circle id="XMLID_327_" class="st0" cx="2552.9" cy="313.8" r="25"/>
	<circle id="XMLID_289_" class="st0" cx="767.7" cy="382.4" r="25"/>
	<circle id="XMLID_288_" class="st0" cx="767.7" cy="451" r="25"/>
	<circle id="XMLID_287_" class="st0" cx="767.7" cy="245.3" r="25"/>
	<circle id="XMLID_286_" class="st0" cx="767.7" cy="110.6" r="25"/>
	<circle id="XMLID_285_" class="st0" cx="767.7" cy="179.2" r="25"/>
	<circle id="XMLID_284_" class="st0" cx="767.7" cy="313.8" r="25"/>
	<circle id="XMLID_283_" class="st0" cx="838.3" cy="382.4" r="25"/>
	<circle id="XMLID_282_" class="st0" cx="838.3" cy="451" r="25"/>
	<circle id="XMLID_281_" class="st0" cx="838.3" cy="245.3" r="25"/>
	<circle id="XMLID_280_" class="st0" cx="838.3" cy="110.6" r="25"/>
	<circle id="XMLID_279_" class="st0" cx="838.3" cy="179.2" r="25"/>
	<circle id="XMLID_278_" class="st0" cx="838.3" cy="313.8" r="25"/>
	<circle id="XMLID_277_" class="st0" cx="904.8" cy="382.4" r="25"/>
	<circle id="XMLID_276_" class="st0" cx="904.8" cy="451" r="25"/>
	<circle id="XMLID_275_" class="st0" cx="904.8" cy="245.3" r="25"/>
	<circle id="XMLID_274_" class="st0" cx="904.8" cy="313.9" r="25"/>
	<circle id="XMLID_273_" class="st0" cx="975.5" cy="382.4" r="25"/>
	<circle id="XMLID_272_" class="st0" cx="975.5" cy="451" r="25"/>
	<circle id="XMLID_271_" class="st0" cx="975.5" cy="245.3" r="25"/>
	<circle id="XMLID_270_" class="st0" cx="904.8" cy="110.6" r="25"/>
	<circle id="XMLID_269_" class="st0" cx="975.5" cy="110.6" r="25"/>
	<circle id="XMLID_268_" class="st0" cx="904.8" cy="179.2" r="25"/>
	<circle id="XMLID_326_" class="st0" cx="564" cy="382.4" r="25"/>
	<circle id="XMLID_325_" class="st0" cx="564" cy="451" r="25"/>
	<circle id="XMLID_324_" class="st0" cx="564" cy="245.3" r="25"/>
	<circle id="XMLID_323_" class="st0" cx="564" cy="110.6" r="25"/>
	<circle id="XMLID_322_" class="st0" cx="564" cy="179.2" r="25"/>
	<circle id="XMLID_321_" class="st0" cx="564" cy="313.8" r="25"/>
	<circle id="XMLID_320_" class="st0" cx="634.7" cy="382.4" r="25"/>
	<circle id="XMLID_319_" class="st0" cx="634.7" cy="451" r="25"/>
	<circle id="XMLID_318_" class="st0" cx="634.7" cy="245.3" r="25"/>
	<circle id="XMLID_317_" class="st0" cx="634.7" cy="110.6" r="25"/>
	<circle id="XMLID_316_" class="st0" cx="634.7" cy="179.2" r="25"/>
	<circle id="XMLID_315_" class="st0" cx="634.7" cy="313.8" r="25"/>
	<circle id="XMLID_314_" class="st0" cx="701.2" cy="382.4" r="25"/>
	<circle id="XMLID_313_" class="st0" cx="701.2" cy="451" r="25"/>
	<circle id="XMLID_312_" class="st0" cx="701.2" cy="245.3" r="25"/>
	<circle id="XMLID_311_" class="st0" cx="701.2" cy="313.9" r="25"/>
	<circle id="XMLID_310_" class="st0" cx="701.2" cy="110.6" r="25"/>
	<circle id="XMLID_309_" class="st0" cx="701.2" cy="179.2" r="25"/>
	<circle id="XMLID_267_" class="st0" cx="975.5" cy="179.2" r="25"/>
	<circle id="XMLID_266_" class="st0" cx="975.5" cy="313.8" r="25"/>
	<circle id="XMLID_265_" class="st0" cx="1046.2" cy="382.4" r="25"/>
	<circle id="XMLID_264_" class="st0" cx="1046.2" cy="451" r="25"/>
	<circle id="XMLID_216_" class="st0" cx="1046.2" cy="245.3" r="25"/>
	<circle id="XMLID_215_" class="st0" cx="1046.2" cy="110.6" r="25"/>
	<circle id="XMLID_214_" class="st0" cx="1046.2" cy="179.2" r="25"/>
	<circle id="XMLID_213_" class="st0" cx="1046.2" cy="313.8" r="25"/>
</g>
<g id="letters">
	<line id="XMLID_246_" class="st1" x1="1250.5" y1="367.8" x2="1250.5" y2="464.3"/>
	<polyline id="XMLID_249_" class="st1" points="1304.4,464.3 1304.4,367.8 1309.9,367.8 1378.6,464.3 1385.6,464.3 1385.6,367.8 	
		"/>
	<line id="XMLID_248_" class="st1" x1="1411.3" y1="367.8" x2="1490.9" y2="367.8"/>
	<line id="XMLID_247_" class="st1" x1="1454.7" y1="464.3" x2="1454.7" y2="367.8"/>
	<line id="XMLID_250_" class="st1" x1="1521.5" y1="367.8" x2="1521.5" y2="464.3"/>
	<path id="XMLID_225_" class="st1" d="M1652.9,416.1c0,26.7-22.6,51.3-49.3,51.3s-47.3-24.6-47.3-51.3s20.6-48.3,47.3-48.3
		S1652.9,389.4,1652.9,416.1z"/>
	<line id="XMLID_252_" class="st1" x1="1654.3" y1="467.3" x2="1603.7" y2="467.3"/>
	<path id="XMLID_254_" class="st1" d="M1720.3,426.7"/>
	<path id="XMLID_251_" class="st1" d="M1687.2,367.8v72c0,10.6,14.8,27.1,35.7,27.1c20.9,0,37.9-16.6,37.9-27.1v-72"/>
	<polyline id="XMLID_255_" class="st1" points="1865.3,367.8 1804.1,367.8 1804.1,464.3 1865.3,464.3 	"/>
	<line id="XMLID_256_" class="st1" x1="1859" y1="417.6" x2="1804.1" y2="417.6"/>
	<circle id="XMLID_177_" class="st1" cx="1249.8" cy="313.8" r="29.8"/>
</g>
</svg>
