<?xml version="1.0" encoding="utf-8"?>
<!-- Generator: Adobe Illustrator 19.0.0, SVG Export Plug-In . SVG Version: 6.00 Build 0)  -->
<svg version="1.1" id="Layer_1" xmlns="http://www.w3.org/2000/svg" xmlns:xlink="http://www.w3.org/1999/xlink" x="0px" y="0px"
	 viewBox="-195 -13.1 568.9 587.1" style="enable-background:new -195 -13.1 568.9 587.1;" xml:space="preserve">
<style type="text/css">
	.st0{fill:#DA4DEF;}
	.st1{fill:#A82626;}
	.st2{fill:#5858A3;}
	.st3{fill:#252628;}
	.st4{fill:none;stroke:#56D87B;stroke-width:4;stroke-miterlimit:10;}
	.st5{fill:#56D87B;}
	.st6{fill:none;stroke:#DBD85D;stroke-width:4;stroke-miterlimit:10;}
	.st7{fill:#DBD85D;}
	.st8{fill:none;}
	.st9{fill:none;stroke:#DD5454;stroke-width:3;stroke-miterlimit:10;}
	.st10{fill:#DD5454;stroke:#DD5454;stroke-width:3;stroke-linecap:round;stroke-linejoin:round;stroke-miterlimit:10;}
	.st11{fill:none;stroke:#DD5454;stroke-width:3;stroke-linecap:round;stroke-linejoin:round;stroke-miterlimit:10;}
	.st12{fill:#3CDDBE;}
	.st13{fill:none;stroke:#3CDDBE;stroke-width:14;stroke-linecap:round;stroke-miterlimit:10;}
	.st14{fill:none;stroke:#DD5454;stroke-width:5;stroke-linecap:round;stroke-linejoin:round;stroke-miterlimit:10;}
	.st15{fill:#999999;}
	.st16{fill:#D1903B;}
	.st17{fill:none;stroke:#A82626;stroke-width:7;stroke-linecap:round;stroke-miterlimit:10;}
	.st18{fill:none;stroke:#DBD85D;stroke-width:4;stroke-linecap:round;stroke-miterlimit:10;}
	.st19{fill:none;stroke:#DBD85D;stroke-linecap:round;stroke-miterlimit:10;}
	.st20{fill:none;stroke:#DA4DEF;stroke-width:3;stroke-miterlimit:10;}
	.st21{fill:#56A5DB;}
	.st22{fill:#56A5DB;stroke:#56A5DB;stroke-miterlimit:10;}
</style>
<path id="XMLID_74_" class="st0" d="M-118-13.1c-42.6,0-77,34.5-77,77.1v95.7h154V64C-41,21.4-75.4-13.1-118-13.1z"/>
<path id="XMLID_49_" class="st1" d="M67.6,405.6c3.4-34.3-72-39.5-63.9,33.3c8.1,72.9,2.5,107.8,2.5,107.8l28.3-30.1L67.6,405.6z"/>
<circle id="XMLID_79_" class="st2" cx="90.3" cy="73" r="70.5"/>
<circle id="XMLID_1_" class="st2" cx="90.3" cy="282" r="70.5"/>
<circle id="XMLID_93_" class="st2" cx="298.3" cy="282" r="70.5"/>
<circle id="XMLID_56_" class="st2" cx="-117.7" cy="64" r="70.5"/>
<circle id="XMLID_43_" class="st2" cx="89.3" cy="489" r="70.5"/>
<circle id="XMLID_42_" class="st2" cx="-118.7" cy="483" r="70.5"/>
<circle id="XMLID_31_" class="st2" cx="-117.7" cy="280" r="70.5"/>
<circle id="XMLID_12_" class="st2" cx="299.3" cy="75" r="70.5"/>
<circle id="XMLID_4_" class="st2" cx="298.3" cy="489" r="70.5"/>
<path id="XMLID_3_" class="st3" d="M130.3,300.7c0,16-18.1,30.2-40.4,30.2s-40.4-14.2-40.4-30.2H130.3z"/>
<path id="XMLID_2_" class="st4" d="M288.9,485.6c0,13.4-11.6,32.6-31.1,32.6c-15.9,0-28.8-13.9-28.8-32.6
	c0-13.4,10.1-18.4,29.9-18.4C274.8,467.2,288.9,472.2,288.9,485.6z"/>
<g id="XMLID_7_">
	<path id="XMLID_135_" class="st5" d="M223.8,471.2c0,0,0.3,0,0.8,0c0.1,0,0.1,0,0.3,0c0.3-0.1,0.5-0.1,0.9-0.2
		c0.7-0.1,1.8-0.4,3-0.8s2.7-0.9,4.2-1.3c3.1-1,6.9-2.2,11.1-3c2.1-0.4,4.3-0.8,6.5-1s4.5-0.3,6.8-0.3s4.6,0.2,6.8,0.5
		c2.2,0.3,4.4,0.7,6.4,1.3c2.1,0.5,4,1.1,5.8,1.8c1.8,0.6,3.5,1.4,5,2.1s2.9,1.4,4.1,2.1s2.2,1.2,3.1,1.7c1.7,1,2.6,1.6,2.6,1.6
		l-2.1,3.4c0,0-0.9-0.5-2.6-1.4c-0.8-0.5-1.8-0.9-3-1.5c-1.1-0.6-2.5-1.1-3.9-1.7c-1.5-0.6-3.1-1.2-4.8-1.7c-1.7-0.5-3.5-1-5.4-1.4
		s-3.9-0.7-5.9-0.9c-2-0.2-4.1-0.2-6.1-0.2c-2.1,0-4.1,0.3-6.1,0.5c-2,0.3-4,0.7-5.9,1.2c-3.8,1-7.2,2.2-10.2,3.3
		c-1.5,0.6-2.9,1.1-4.2,1.6c-1.3,0.5-2.5,0.9-3.6,1.2c-0.5,0.2-1.1,0.2-1.5,0.3c-0.6,0.1-1.2,0.1-1.6,0.2c-0.5,0-0.8,0-0.8,0
		L223.8,471.2z"/>
</g>
<path id="XMLID_8_" class="st4" d="M226,474.8c3.2,2.8,3,3.4,3,10.8"/>
<g id="XMLID_9_">
	<path id="XMLID_67_" class="st5" d="M289.9,485.6c0,0,0-0.1-0.1-0.2s-0.2-0.2-0.3-0.4c-0.1-0.2-0.4-0.5-0.5-0.8
		c-0.2-0.3-0.4-0.7-0.6-1.1s-0.4-0.9-0.6-1.5c-0.1-0.3-0.1-0.6-0.2-0.9c0-0.3-0.1-0.7-0.1-1c0-0.7,0-1.5,0.3-2.3
		c0.1-0.4,0.3-0.8,0.5-1.1c0.1-0.2,0.2-0.4,0.3-0.5l0.4-0.5c0.5-0.7,1.1-1.1,1.8-1.5c0.6-0.3,1.2-0.7,1.8-0.9
		c0.6-0.2,1.1-0.4,1.7-0.6c0.5-0.1,1-0.2,1.5-0.3c0.9-0.2,1.8-0.2,2.3-0.3c0.5-0.1,1-0.1,1-0.1v6.4c0,0-0.4,0-0.8,0
		s-1.1-0.1-1.8-0.1c-0.3,0-0.7,0-1.1,0s-0.7,0.1-1.1,0.1c-0.4,0.1-0.7,0.2-1,0.2c-0.3,0.1-0.6,0.2-0.8,0.4l-0.2,0.1l-0.1,0.1
		c-0.1,0.1-0.2,0.1-0.2,0.3c-0.1,0.2-0.2,0.4-0.3,0.7c0,0.2,0,0.3-0.1,0.5c0,0.2,0,0.3,0,0.5c0,0.3,0.1,0.7,0.2,1s0.2,0.6,0.3,0.9
		c0.1,0.3,0.2,0.5,0.2,0.6c0.1,0.2,0.2,0.4,0.2,0.5c0.1,0.1,0.1,0.2,0.1,0.2L289.9,485.6z"/>
</g>
<path id="XMLID_21_" class="st4" d="M308.5,485.6c0,13.4,11.6,32.6,31.1,32.6c15.9,0,28.8-13.9,28.8-32.6
	c0-13.4-10.1-18.4-29.9-18.4C322.6,467.2,308.5,472.2,308.5,485.6z"/>
<g id="XMLID_14_">
	<path id="XMLID_133_" class="st5" d="M373.9,478.7c0,0-0.3,0-0.8,0c-0.4,0-1-0.1-1.6-0.2c-0.4-0.1-1-0.2-1.5-0.3
		c-1.1-0.3-2.3-0.7-3.6-1.2c-1.2-0.5-2.7-1-4.2-1.6c-3-1.1-6.5-2.4-10.2-3.3c-1.9-0.5-3.8-0.9-5.9-1.2c-2-0.3-4.1-0.5-6.1-0.5
		c-2.1-0.1-4.1,0-6.1,0.2s-4,0.5-5.9,0.9s-3.7,0.9-5.4,1.4s-3.3,1.1-4.8,1.7c-1.4,0.6-2.8,1.2-3.9,1.7c-1.1,0.6-2.2,1-3,1.5
		c-1.6,0.9-2.6,1.4-2.6,1.4l-2.1-3.4c0,0,0.9-0.6,2.6-1.6c0.8-0.5,1.9-1.1,3.1-1.7c1.2-0.7,2.6-1.3,4.1-2.1c1.5-0.7,3.2-1.4,5-2.1
		s3.8-1.3,5.8-1.8c2.1-0.5,4.2-0.9,6.4-1.3c2.2-0.3,4.5-0.5,6.8-0.5c2.3-0.1,4.6,0.1,6.8,0.3c2.2,0.2,4.4,0.6,6.5,1
		c4.2,0.8,8,2,11.1,3c1.5,0.5,2.9,0.9,4.2,1.3c1.2,0.4,2.2,0.7,3,0.8c0.4,0.1,0.7,0.1,0.9,0.2c0.1,0,0.2,0,0.3,0c0.5,0,0.8,0,0.8,0
		L373.9,478.7z"/>
</g>
<path id="XMLID_13_" class="st4" d="M371.5,474.8c-3.2,2.8-3,3.4-3,10.8"/>
<g id="XMLID_10_">
	<path id="XMLID_104_" class="st5" d="M304.9,484c0,0,0-0.1,0.1-0.2c0-0.1,0.2-0.3,0.2-0.5c0.1-0.2,0.2-0.4,0.2-0.6
		c0.1-0.3,0.2-0.6,0.3-0.9c0.1-0.3,0.1-0.7,0.2-1c0-0.2,0-0.3,0-0.5s0-0.3-0.1-0.5c-0.1-0.3-0.2-0.6-0.3-0.7c0-0.1-0.2-0.2-0.2-0.3
		l-0.1-0.1l-0.2-0.1c-0.2-0.2-0.5-0.2-0.8-0.4c-0.3-0.1-0.7-0.2-1-0.2c-0.4,0-0.8-0.1-1.1-0.1c-0.4,0-0.8,0-1.1,0
		c-0.7,0-1.1,0.1-1.5,0.1s-0.5,0-0.5,0v-6.4c0,0,0.1,0,0.7,0.1c0.5,0.1,1.2,0.1,2.1,0.3c0.5,0.1,0.9,0.2,1.4,0.3
		c0.5,0.2,1.1,0.4,1.7,0.6s1.2,0.6,1.8,0.9c0.6,0.4,1.2,0.8,1.8,1.5l0.4,0.5c0.1,0.2,0.2,0.4,0.3,0.5c0.2,0.4,0.4,0.7,0.5,1.1
		c0.3,0.8,0.3,1.6,0.3,2.3c0,0.3-0.1,0.7-0.1,1c-0.1,0.3-0.1,0.6-0.2,0.9c-0.2,0.5-0.3,1-0.6,1.5c-0.2,0.4-0.4,0.8-0.6,1.1
		c-0.2,0.3-0.4,0.6-0.5,0.8c-0.2,0.2-0.3,0.3-0.3,0.4c-0.1,0.1-0.1,0.2-0.1,0.2L304.9,484z"/>
</g>
<path id="XMLID_95_" class="st6" d="M80.9,68c0,18.1,0,24.4-31.1,24.4C26.4,92.4,21,86.8,21,68c0-10.1,10.1-11.8,29.9-11.8
	C66.8,56.2,80.9,57.9,80.9,68z"/>
<g id="XMLID_92_">
	<path id="XMLID_106_" class="st7" d="M14.7,58.4c0,0,1-0.2,2.8-0.7s4.5-1.1,7.7-1.8c6.4-1.4,15.2-2.7,24.1-2.6
		c2.2,0,4.4,0.1,6.6,0.4c2.2,0.2,4.3,0.5,6.4,0.9c1,0.2,2,0.4,3,0.6c1,0.3,1.9,0.5,2.9,0.8c0.9,0.3,1.8,0.5,2.7,0.8
		c0.8,0.3,1.7,0.6,2.5,0.9s1.5,0.6,2.2,0.9s1.3,0.6,2,0.9c1.2,0.6,2.3,1.2,3.1,1.7c1.7,1,2.6,1.6,2.6,1.6l-2.1,3.4
		c0,0-0.9-0.5-2.5-1.4c-0.8-0.4-1.8-0.9-2.9-1.4c-0.6-0.2-1.2-0.5-1.8-0.8c-0.7-0.2-1.4-0.5-2.1-0.8c-0.7-0.2-1.5-0.5-2.3-0.7
		s-1.6-0.4-2.5-0.7c-0.9-0.2-1.8-0.4-2.7-0.6c-0.9-0.1-1.9-0.3-2.8-0.4c-1.9-0.2-3.9-0.5-5.9-0.5c-2-0.1-4.1-0.1-6.2,0
		c-8.3,0.3-16.5,2-22.6,3.6c-3,0.8-5.6,1.6-7.4,2.1c-1.8,0.5-2.9,0.8-2.9,0.8L14.7,58.4z"/>
</g>
<path id="XMLID_91_" class="st6" d="M18,61.8c3.2,2.8,3,3.4,3,10.8"/>
<g id="XMLID_88_">
	<path id="XMLID_102_" class="st7" d="M81.9,72.6c0,0,0-0.1-0.1-0.2s-0.2-0.2-0.3-0.4c-0.1-0.2-0.4-0.5-0.5-0.8
		c-0.2-0.3-0.4-0.7-0.6-1.1s-0.4-0.9-0.6-1.5c-0.1-0.3-0.1-0.6-0.2-0.9c0-0.3-0.1-0.7-0.1-1c0-0.7,0-1.5,0.3-2.3
		c0.1-0.4,0.3-0.8,0.5-1.1c0.1-0.2,0.2-0.4,0.3-0.5l0.4-0.5c0.5-0.7,1.1-1.1,1.8-1.5c0.6-0.3,1.2-0.7,1.8-0.9
		c0.6-0.2,1.1-0.4,1.7-0.6c0.5-0.1,1-0.2,1.5-0.3c0.9-0.2,1.8-0.2,2.3-0.3c0.5-0.1,1-0.1,1-0.1V65c0,0-0.4,0-0.8,0s-1.1-0.1-1.8-0.1
		c-0.3,0-0.7,0-1.1,0S86.7,65,86.3,65c-0.4,0.1-0.7,0.2-1,0.2c-0.3,0.1-0.6,0.2-0.8,0.4l-0.2,0.1l-0.1,0.1c-0.1,0.1-0.2,0.1-0.2,0.3
		c-0.1,0.2-0.2,0.4-0.3,0.7c0,0.2,0,0.3-0.1,0.5c0,0.2,0,0.3,0,0.5c0,0.3,0.1,0.7,0.2,1s0.2,0.6,0.3,0.9c0.1,0.3,0.2,0.5,0.2,0.6
		c0.1,0.2,0.2,0.4,0.2,0.5c0.1,0.1,0.1,0.2,0.1,0.2L81.9,72.6z"/>
</g>
<g id="XMLID_78_">
	<path id="XMLID_96_" class="st8" d="M90.7,61.8"/>
</g>
<path id="XMLID_100_" class="st6" d="M100.5,68c0,18.1,0,24.4,31.1,24.4c23.4,0,28.8-5.6,28.8-24.4c0-10.1-10.1-11.8-29.9-11.8
	C114.6,56.2,100.5,57.9,100.5,68z"/>
<g id="XMLID_97_">
	<path id="XMLID_76_" class="st7" d="M164.8,65.6c0,0-1.1-0.3-2.9-0.8s-4.3-1.3-7.4-2.1c-6.1-1.6-14.3-3.3-22.6-3.6
		c-2.1-0.1-4.1-0.1-6.2,0c-2,0.1-4,0.3-5.9,0.5c-1,0.1-1.9,0.3-2.8,0.4c-0.9,0.2-1.8,0.4-2.7,0.6c-0.9,0.2-1.7,0.4-2.5,0.7
		c-0.8,0.2-1.6,0.5-2.3,0.7c-0.7,0.3-1.4,0.5-2.1,0.8s-1.3,0.5-1.8,0.8c-1.2,0.5-2.1,1-2.9,1.4c-1.6,0.9-2.5,1.4-2.5,1.4L98.1,63
		c0,0,0.9-0.6,2.6-1.6c0.9-0.5,1.9-1.1,3.1-1.7c0.6-0.3,1.3-0.6,2-0.9s1.4-0.6,2.2-0.9c0.8-0.3,1.6-0.6,2.5-0.9s1.8-0.6,2.7-0.8
		c0.9-0.3,1.9-0.5,2.9-0.8c1-0.2,2-0.4,3-0.6c2.1-0.4,4.2-0.7,6.4-0.9c2.2-0.2,4.4-0.3,6.6-0.4c8.9-0.1,17.7,1.2,24.1,2.6
		c3.2,0.7,5.9,1.3,7.7,1.8c1.8,0.4,2.8,0.7,2.8,0.7L164.8,65.6z"/>
</g>
<g id="XMLID_84_">
	<path id="XMLID_73_" class="st7" d="M96.9,71c0,0,0-0.1,0.1-0.2c0-0.1,0.2-0.3,0.2-0.5c0.1-0.2,0.2-0.4,0.2-0.6
		c0.1-0.3,0.2-0.6,0.3-0.9c0.1-0.3,0.1-0.7,0.2-1c0-0.2,0-0.3,0-0.5s0-0.3-0.1-0.5c-0.1-0.3-0.2-0.6-0.3-0.7c0-0.1-0.2-0.2-0.2-0.3
		l-0.1-0.1L97,65.6c-0.2-0.2-0.5-0.2-0.8-0.4c-0.3-0.1-0.7-0.2-1-0.2c-0.4,0-0.8-0.1-1.1-0.1c-0.4,0-0.8,0-1.1,0
		c-0.7,0-1.1,0.1-1.5,0.1S91,65,91,65v-6.4c0,0,0.1,0,0.7,0.1c0.5,0.1,1.2,0.1,2.1,0.3c0.5,0.1,0.9,0.2,1.4,0.3
		c0.5,0.2,1.1,0.4,1.7,0.6s1.2,0.6,1.8,0.9c0.6,0.4,1.2,0.8,1.8,1.5l0.4,0.5c0.1,0.2,0.2,0.4,0.3,0.5c0.2,0.4,0.4,0.7,0.5,1.1
		c0.3,0.8,0.3,1.6,0.3,2.3c0,0.3-0.1,0.7-0.1,1c-0.1,0.3-0.1,0.6-0.2,0.9c-0.2,0.5-0.3,1-0.6,1.5c-0.2,0.4-0.4,0.8-0.6,1.1
		c-0.2,0.3-0.4,0.6-0.5,0.8c-0.2,0.2-0.3,0.3-0.3,0.4c-0.1,0.1-0.1,0.2-0.1,0.2L96.9,71z"/>
</g>
<g id="XMLID_81_">
	<path id="XMLID_68_" class="st8" d="M90.7,61.8"/>
</g>
<g id="XMLID_11_">
	<path id="XMLID_109_" class="st5" d="M281,534.1c0,0,0.5,0.4,1.3,1.2c0.2,0.2,0.4,0.4,0.7,0.6c0.2,0.2,0.5,0.3,0.8,0.5
		s0.6,0.4,0.9,0.6c0.3,0.2,0.7,0.4,1.1,0.6c0.4,0.2,0.8,0.4,1.2,0.6c0.4,0.2,0.9,0.3,1.4,0.5c0.2,0.1,0.5,0.2,0.7,0.3
		c0.3,0.1,0.5,0.1,0.8,0.2c0.5,0.1,1.1,0.3,1.6,0.4c0.6,0.1,1.1,0.2,1.7,0.3l0.9,0.1l0.9,0.1c0.6,0,1.2,0.1,1.8,0.1h1.8
		c0.6,0,1.2-0.1,1.8-0.1c0.6-0.1,1.2-0.1,1.8-0.2c1.2-0.2,2.4-0.3,3.5-0.6c1.1-0.2,2.2-0.6,3.2-0.9c1-0.3,1.9-0.7,2.7-1.1
		c0.8-0.4,1.6-0.7,2.2-1.1c0.6-0.4,1.2-0.7,1.6-1c0.8-0.6,1.2-1,1.2-1l0.2-0.1c0.8-0.6,2-0.5,2.6,0.3s0.5,1.9-0.3,2.6
		c0,0-0.6,0.4-1.5,1.2c-0.5,0.4-1.1,0.7-1.8,1.2c-0.7,0.5-1.6,0.8-2.5,1.3c-0.9,0.4-2,0.8-3.1,1.2c-1.1,0.3-2.3,0.8-3.5,1
		c-1.2,0.3-2.5,0.5-3.8,0.7c-0.7,0.1-1.3,0.1-2,0.2c-0.7,0.1-1.3,0.1-2,0.1s-1.4,0-2,0c-0.7,0-1.4-0.1-2-0.1l-1-0.1
		c-0.3,0-0.7-0.1-1-0.1c-0.7-0.1-1.3-0.2-1.9-0.3c-0.6-0.2-1.2-0.3-1.9-0.5c-0.3-0.1-0.6-0.2-0.9-0.2c-0.3-0.1-0.6-0.2-0.9-0.3
		c-0.6-0.2-1.1-0.4-1.6-0.6c-0.5-0.2-1-0.5-1.5-0.7s-0.9-0.5-1.4-0.7c-0.4-0.3-0.8-0.6-1.2-0.8c-0.4-0.3-0.7-0.5-1.1-0.7
		c-0.3-0.2-0.5-0.4-0.7-0.6c-0.8-0.8-1.3-1.2-1.3-1.2c-0.8-0.8-0.9-2.1-0.1-2.9S280.1,533.4,281,534.1L281,534.1z"/>
</g>
<path id="XMLID_15_" class="st9" d="M310.3,84.4c2.5,0,4.5,2,4.5,4.5s-2,4.5-4.5,4.5s-4.5-2-4.5-4.5"/>
<path id="XMLID_17_" class="st10" d="M369.7,76.9c0-61.4,8-72.4-70.5-72.4s-71.7,15-70.5,70.5c0,0,16.2-36.4,70.5-36.4
	S369.7,76.9,369.7,76.9z"/>
<path id="XMLID_18_" class="st11" d="M240.2,66.7c29.6-27.6,89.8-28.4,117.5,0"/>
<ellipse id="XMLID_6_" class="st10" cx="299.6" cy="1.3" rx="8.7" ry="1.5"/>
<path id="XMLID_30_" class="st12" d="M-46.4,269.2c0,0-27.2-5-71.2-5s-71.5,5-71.5,5c-1.6,0-2.9-1.3-2.9-2.9l3-17.7
	c0-1.6,1.3-2.9,2.9-2.9c0,0,32-5,68.5-5s68.2,5,68.2,5c1.6,0,2.9,1.3,2.9,2.9l3,17.7C-43.6,267.9-44.8,269.2-46.4,269.2z"/>
<g id="XMLID_34_">
	<path id="XMLID_35_" class="st12" d="M-117.1,206.1c-30.9,0-57,19.2-65.8,45.6h131.7C-60.1,225.3-86.2,206.1-117.1,206.1z"/>
</g>
<line id="XMLID_32_" class="st13" x1="-137" y1="200.7" x2="-98" y2="200.7"/>
<line id="XMLID_36_" class="st13" x1="-131.1" y1="214.9" x2="-103.5" y2="187.3"/>
<line id="XMLID_37_" class="st13" x1="-117" y1="220.7" x2="-117" y2="181.7"/>
<line id="XMLID_38_" class="st13" x1="-102.8" y1="214.9" x2="-130.4" y2="187.3"/>
<g id="XMLID_40_">
	<path id="XMLID_39_" class="st14" d="M276.8,119.2c2.5,3.9,6.8,7,11.8,7h21.1c5,0,9.3-3.1,11.8-7"/>
</g>
<path id="XMLID_44_" class="st15" d="M-133.5,147.2"/>
<path id="XMLID_48_" class="st16" d="M-49,493.4c-1-1.3-2.4,1.4-4.2,0.1c-1.5,1.2-3.4-0.7-5.4,1.7c-0.5,0.6-1.3,0.9-2.1,0.7
	c-2.1-0.5-4.5,2.1-7,5.1c-0.1,0.2-0.3,0.4-0.3,0.6c-2.8,6.4-5.8,6-9,5.4c-0.6-0.1-1.3,0-1.8,0.4c-3.2,2.4-6.5,5.6-10,4.9
	c-0.5-0.1-1.1,0-1.6,0.2c-3.7,1.9-7.6,2.1-11.7,3.3c-0.3,0.1-0.6,0.2-0.8,0.4c-4.4,3.4-9-1.4-13.7,1.2c-4.8,2-9.5-0.1-14-1.5
	c-0.1,0-0.2-0.1-0.4-0.1c-4.5-0.7-8.9-0.5-13-3.9c-4-2.7-7.8-1.1-11.4-4.7c-0.4-0.3-0.8-0.6-1.3-0.6c-3-0.2-5.8-2-8.4-4.3
	c-0.7-0.6-1.6-0.7-2.4-0.3c-2.8,1.4-5.3-2.6-7.6-5.6c-2.4-3.6-4.4-3.7-6.2-3.1c-0.4,0.1-0.7,0.1-1.1,0c-1.6-0.3-2.9-0.2-3.8,0
	c-1.2,0.3-1.9,3.8-1.9,4.8c0,3.1,0.1,3.6,0.2,7.1c0.2,3.6,0.4,6.9,0.7,6.5c0.3,1,0.7-0.6,1.1,4c0.4,5.2,1,5.3,1.5,8.3
	c0,0.1,0,0.1,0,0.2c0.6,5.3,1.2,3.8,2,7.8c0.7,6.8,1.5,1.8,2.4,3.1c0.8,2.1,1.7,2.6,2.6,6.3c0.1,0.2,0.1,0.5,0.3,0.7
	c0.9,1.3,1.9,5.2,2.9,2.7c1.1,1.4,2.2-1,3.4,3.7c1.1,1.8,2.3-1.2,3.5,3.7c0.1,0.4,0.3,0.9,0.6,1.2c1.2,1.1,2.4,4.6,3.6,2.8
	c1,2.4,2.1,1.9,3.2,2.6c0.6,0.4,1.3,0.3,2,0.2c1.1-0.3,2.3,2.3,3.5,4c0.1,0.2,0.2,0.3,0.3,0.5c1.3,3.6,2.7,1.1,4.1,1.5
	c0.4,0.1,0.8,0,1-0.2c1.5-1.4,3.1,3.6,4.6,2.3c1.7-0.5,3.3-1.8,5.1,1.7c0.1,0.3,0.3,0.5,0.5,0.7c1.3,1.2,2.6,2.1,3.9,1.6
	c0.7-0.3,1.8,0,2.4,0.5c1.2,1.2,2.5,1.1,3.7,0.3c0.4-0.2,0.9-0.3,1.4-0.3c1.7,0.1,3.3-1.6,5-0.8c1.9,1.2,3.9-0.5,5.9,1.5
	c2,0.8,3.9,3.2,5.9,0.7c1.6-0.7,3.3-2.9,4.9-2.2c0.6,0.3,1.2,0.4,1.8,0.1c1.3-0.6,2.6-0.4,3.9-0.4c0.3,0,0.7,0.1,0.9,0.2
	c1.7,1,3.4-1.1,5-1.6c1.6-0.6,3.2-1.9,4.7-1.8c0.4,0,0.8-0.1,1.1-0.3c1.2-0.7,2.4-2,3.6-1.9c0.5,0,1,0,1.4-0.3
	c0.9-0.5,1.8-1.2,2.7-1.8c0.6-0.4,1.2-0.3,1.9-0.1c1.2,0.5,2.4-1.4,3.5-2.8c0.1-0.2,0.3-0.4,0.3-0.6c1.1-2.7,2.2-3.7,3.3-4.3
	c0.5-0.3,0.8-0.7,1-1.2c1.2-3.6,2.4-0.7,3.6-0.9c1.1,1.5,2.2-2.3,3.2-4.3c0.2-0.3,0.4-0.6,0.6-0.8c1-0.8,2-2.6,3-3.1s2-2.4,2.9-5.1
	c0.8,1.5,1.5-3.7,2.2-4.6c0.3-0.3,0.4-0.8,0.4-1.2c0.8-10.3,1.5-2.9,2.1-6.7c0.6,4.8,1.2-1.9,1.7-3c0.1-0.2,0.2-0.5,0.2-0.8
	c0.5-4.5,1-2.7,1.4-5.2c0.4-2.7,0.8-3.1,1.1-6.6c0.3-6.7,0.5-3,0.7-7.1c0.1,0.9,0.2-2.4,0.2-6.7C-47.2,493.6-47.8,492.8-49,493.4z
	 M-108.5,535.7c-3.5,0-9.5,0-13.2,0c-2.3,0-4.5-0.6-6.5-1.8c-9-5.3-3.6-8.6,5.6-7.4c1.2,0.1,2.3,0.2,3.5,0.2h7.9c1,0,2,0,2.9-0.1
	c9.5-1.1,14.6,2.5,5.6,7.6C-104.4,535.2-106.4,535.7-108.5,535.7z"/>
<path id="XMLID_46_" class="st1" d="M159.8,496.8c-22.3-31-29.8-30.6-53.9-36.6c-16.4-4.1-33.1,1.7-50.9-24.2
	c4.3,38.2-26.8,24.7-36.3,50.7c-4.2-39.4,26.1-77.1,71-75.8S167.5,452.8,159.8,496.8z"/>
<path id="XMLID_41_" class="st1" d="M76.4,413.1l-23.6,14.5c-1.7,1-3.9,0.5-4.9-1.2L44,420c-1-1.7-0.5-3.9,1.2-4.9l23.6-14.5
	c1.7-1,3.9-0.5,4.9,1.2l3.9,6.4C78.6,409.8,78,412.1,76.4,413.1z"/>
<g id="XMLID_52_">
	<path id="XMLID_51_" class="st17" d="M65.7,530.2c2.1,9.3,11.9,16.4,23.6,16.4s21.5-7,23.6-16.4"/>
</g>
<path id="XMLID_82_" class="st18" d="M109.1,116.3c0,3.8-8.3,6.8-18.5,6.8s-18.5-3.1-18.5-6.8"/>
<g id="XMLID_83_">
	<path id="XMLID_63_" class="st7" d="M60,128.4c0,0-0.2-0.3-0.5-0.9c-0.3-0.6-0.8-1.5-1.3-2.5c-0.3-0.5-0.5-1.1-0.8-1.8
		c-0.3-0.6-0.5-1.3-0.8-2.1c-0.3-0.7-0.4-1.5-0.6-2.3c-0.1-0.4-0.1-0.8-0.2-1.2l-0.1-1.3c0-0.4,0-0.9,0-1.3c0-0.4,0-0.9,0-1.3
		c0-0.8,0.2-1.7,0.3-2.5s0.4-1.5,0.6-2.2c0.2-0.7,0.5-1.3,0.7-1.9c0.3-0.6,0.5-1.1,0.7-1.6s0.4-0.8,0.6-1.2c0.3-0.6,0.5-1,0.5-1
		c0.6-1.2,2.2-1.7,3.4-1c1.2,0.6,1.7,2.2,1,3.4c0,0.1-0.1,0.1-0.1,0.2l-0.1,0.1c0,0-0.2,0.3-0.5,0.8c-0.2,0.3-0.4,0.6-0.6,0.9
		c-0.2,0.4-0.4,0.8-0.7,1.2c-0.2,0.5-0.4,1-0.7,1.5c-0.2,0.5-0.4,1.1-0.6,1.7c-0.2,0.6-0.3,1.2-0.4,1.9c-0.1,0.3-0.1,0.7-0.1,1
		s-0.1,0.7-0.1,1v1c0,0.3,0.1,0.7,0.1,1c0.1,0.7,0.2,1.3,0.4,2c0.1,0.6,0.3,1.2,0.5,1.8s0.4,1.1,0.6,1.6c0.4,1,0.8,1.8,1.1,2.4
		c0.3,0.6,0.4,0.9,0.4,0.9c0.4,0.8,0,1.7-0.7,2.1C61.3,129.4,60.4,129.1,60,128.4z"/>
</g>
<g id="XMLID_53_">
	<path id="XMLID_28_" class="st7" d="M118.4,127c0,0,0.2-0.3,0.4-0.9c0.3-0.6,0.7-1.4,1.1-2.4c0.2-0.5,0.4-1.1,0.6-1.6
		c0.2-0.6,0.4-1.2,0.5-1.8c0.2-0.6,0.3-1.3,0.4-2c0-0.3,0.1-0.7,0.1-1v-1c0-0.3,0-0.7-0.1-1c0-0.3-0.1-0.7-0.1-1
		c-0.1-0.6-0.2-1.3-0.4-1.9c-0.2-0.6-0.4-1.2-0.6-1.7s-0.5-1-0.7-1.5s-0.5-0.9-0.7-1.2c-0.2-0.4-0.4-0.7-0.6-0.9
		c-0.3-0.5-0.5-0.8-0.5-0.8l-0.1-0.1c-0.7-1.2-0.4-2.7,0.8-3.5c1.2-0.7,2.7-0.4,3.5,0.8c0,0.1,0.1,0.1,0.1,0.2c0,0,0.2,0.4,0.5,1
		c0.2,0.3,0.4,0.7,0.6,1.2s0.4,1,0.7,1.6c0.2,0.6,0.4,1.2,0.7,1.9c0.2,0.7,0.4,1.4,0.6,2.2c0.1,0.8,0.3,1.6,0.3,2.5
		c0,0.4,0.1,0.8,0,1.3c0,0.4,0,0.9,0,1.3l-0.1,1.3c-0.1,0.4-0.1,0.8-0.2,1.2c-0.2,0.8-0.4,1.6-0.6,2.3s-0.5,1.4-0.8,2.1
		c-0.3,0.6-0.5,1.2-0.8,1.8c-0.5,1.1-1,1.9-1.3,2.5s-0.5,0.9-0.5,0.9c-0.4,0.7-1.4,1-2.1,0.6C118.3,128.6,118,127.7,118.4,127z"/>
</g>
<path id="XMLID_54_" class="st19" d="M30.1,93.5c7.5,5.2,27.6,11,48.7,0"/>
<path id="XMLID_55_" class="st19" d="M151,93.5c-7.5,5.2-27.6,11-48.7,0"/>
<path id="XMLID_50_" class="st0" d="M-62.4,42.9l-110.7,0.4l-0.3-0.4c0-27.3,24.8-49.4,55.5-49.4S-62.4,15.7-62.4,42.9L-62.4,42.9z"
	/>
<circle id="XMLID_57_" class="st20" cx="-146.5" cy="66.1" r="19.1"/>
<path id="XMLID_59_" class="st20" d="M-165.6,66.1c-13.2-13.7-20.2-11.3-20.2-11.3"/>
<path id="XMLID_85_" class="st20" d="M-117.7,57.4c-7.1,0-9.7,6.7-9.7,6.7"/>
<circle id="XMLID_89_" class="st20" cx="-89" cy="66.1" r="19.1"/>
<path id="XMLID_87_" class="st20" d="M-69.9,66.1c13.2-13.7,20.2-11.3,20.2-11.3"/>
<path id="XMLID_86_" class="st20" d="M-117.7,57.4c7.1,0,9.7,6.7,9.7,6.7"/>
<path id="XMLID_90_" class="st0" d="M-102.6,107.7c0,9-7.1,16.6-15.8,16.6s-15.8-7.6-15.8-16.6
	C-134.2,107.7-102.6,107.7-102.6,107.7z"/>
<g id="XMLID_94_">
	<path id="XMLID_137_" class="st21" d="M277,326.9c0,0-0.6-1.2-1.2-3.2c-0.3-1-0.6-2.3-0.8-3.7c-0.1-0.7-0.2-1.5-0.3-2.3
		c0-0.4-0.1-0.8-0.1-1.2v-0.3V316v-0.1l0,0v-0.1l0,0c0-0.2,0-0.4,0-0.6s0-0.5,0.1-0.9c0-0.3,0.1-0.7,0.1-0.9
		c0.1-0.6,0.3-1.2,0.5-1.7c0.4-1.1,1.1-2.3,1.9-3.3c1.6-2,4.1-3.6,7-4.2c0.4-0.1,0.7-0.1,1.1-0.2c0.3,0,0.8-0.1,1-0.1
		c0.6,0,1.1,0,1.7,0c1.1,0,2.3-0.1,3.4-0.1c2.3,0,4.6-0.1,7-0.1c2.3,0,4.7,0,7,0c1.1,0,2.3,0,3.4,0c0.6,0,1.1,0,1.7,0h0.2h0.3h0.1
		h0.4c0.2,0,0.2,0,0.5,0l0.6,0.1l0.6,0.1l0.5,0.1c0.4,0.1,0.7,0.2,1.1,0.3c0.7,0.2,1.3,0.6,2,0.9c1.2,0.7,2.3,1.6,3.1,2.7
		c1.7,2.1,2.6,4.6,2.7,6.9c0,0.3,0,0.6,0,0.9c0,0.2,0,0.4,0,0.7c0,0.4,0,0.8-0.1,1.2c-0.1,0.8-0.2,1.6-0.3,2.3
		c-0.3,1.4-0.6,2.7-1,3.7c-0.7,2-1.5,3.2-1.5,3.2s-0.8-1.2-1.5-3.2c-0.4-1-0.7-2.3-1-3.7c-0.1-0.7-0.2-1.5-0.3-2.3
		c0-0.4-0.1-0.8-0.1-1.2c0-0.2,0-0.4,0-0.6v-0.4c-0.1-1.2-0.7-2.4-1.6-3.3c-0.5-0.5-1-0.9-1.6-1.2c-0.3-0.2-0.6-0.3-0.9-0.4
		c-0.2-0.1-0.3-0.1-0.5-0.1l-0.2-0.1h-0.2h-0.2c0,0-0.2,0-0.4,0h-0.4h-0.1h-0.1c0.1,0-0.2,0,0.1,0l0,0h-0.2c-0.6,0-1.1,0-1.7,0
		c-1.1,0-2.3,0-3.4,0c-2.3,0-4.6,0-7,0c-2.3,0-4.7-0.1-7-0.1c-1.1,0-2.3-0.1-3.4-0.1c-0.6,0-1.1,0-1.7,0c-0.3,0-0.4,0-0.6,0
		s-0.4,0-0.5,0c-1.4,0.1-2.8,0.8-3.8,1.8c-0.5,0.5-0.9,1.1-1.2,1.7c-0.1,0.3-0.3,0.6-0.3,0.9c-0.1,0.2-0.1,0.3-0.1,0.4
		s-0.1,0.2-0.1,0.5c0,0.2,0,0.4-0.1,0.6l0,0c0,0.1,0-0.1,0-0.1l0,0v0.1v0.2v0.3c0,0.4-0.1,0.8-0.1,1.2c-0.1,0.8-0.2,1.6-0.3,2.3
		c-0.2,1.4-0.5,2.7-0.8,3.7C277.6,325.7,277,326.9,277,326.9z"/>
</g>
<path id="XMLID_98_" class="st22" d="M368.8,282c7.2-31,0-69.4,0-69.4l-6.8,12.3l-2.7-22.2L350,215l-4.6-23.9l-9.9,20.5l-5.7-15.2
	l-6.9,9.3l-7.3-23.6L302.7,201l-4.3-11.3l-7.6,12.6l-11-16.9l-2.7,14.6l-16.3-11l-6.3,22.5l-11-13.2l-4.3,29.9l-7.6-25.2
	c0,0-9,31.5-3.8,79c0,0,12.7-55.8,70.5-55.8S368.8,282,368.8,282z"/>
<g id="XMLID_58_">
</g>
<path id="XMLID_16_" class="st12" d="M-96.2,315.7c0,8-9.6,14.9-21.4,14.9s-21.4-6.9-21.4-14.9H-96.2z"/>
</svg>
