<?xml version="1.0" encoding="utf-8"?>
<!-- Generator: Adobe Illustrator 19.0.0, SVG Export Plug-In . SVG Version: 6.00 Build 0)  -->
<svg version="1.1" id="Layer_1" xmlns="http://www.w3.org/2000/svg" xmlns:xlink="http://www.w3.org/1999/xlink" x="0px" y="0px"
	 viewBox="-1151 560.3 187.6 185.5" style="enable-background:new -1151 560.3 187.6 185.5;" xml:space="preserve">
<style type="text/css">
	.st0{fill:#5858A3;}
	.st1{fill:#252628;}
	.st2{fill:#F2E482;}
	.st3{fill:none;stroke:#F2E482;stroke-width:8;stroke-linecap:round;stroke-linejoin:round;stroke-miterlimit:10;}
</style>
<g id="Layer_1_1_">
</g>
<g id="Layer_2">
	<circle id="XMLID_31_" class="st0" cx="-1124.3" cy="693.2" r="26.7"/>
	<path id="XMLID_30_" class="st1" d="M-1109.7,697.9c0,7.1-6.5,12.8-14.6,12.8c-8.1,0-14.6-5.7-14.6-12.8H-1109.7L-1109.7,697.9z"/>
	<circle id="XMLID_33_" class="st0" cx="-990.1" cy="692.2" r="26.7"/>
	<path id="XMLID_32_" class="st1" d="M-975.5,697.9c0,7.1-6.5,12.8-14.6,12.8s-14.6-5.7-14.6-12.8H-975.5L-975.5,697.9z"/>
	<g id="XMLID_1_">
		<path id="XMLID_27_" class="st2" d="M-1132.9,602.7c-1.5,0-3.2-0.4-4.9-1.6c-2.4-1.7-5,0.4-5.5,0.9l-0.1,0.1
			c-0.6,0.6-1.6,0.6-2.2,0c-0.6-0.6-0.6-1.6,0-2.2c0.1-0.1,0.2-0.2,0.3-0.2c4.5-4.4,3.6-8.5,2.6-12.8c-0.6-2.6-1.1-5.1-0.3-7.4
			c0.5-1.6,1.8-2.7,3.6-3.4c3.3-1.2,8.2-0.6,10.5,0.8c0.8,0.4,1,1.4,0.6,2.2c-0.4,0.8-1.4,1-2.2,0.6c-1.4-0.8-5.2-1.5-7.8-0.6
			c-0.9,0.3-1.5,0.8-1.7,1.4c-0.5,1.5-0.1,3.5,0.4,5.8c0.7,3.3,1.6,7.1-0.2,11.1c1.3,0,2.6,0.3,4,1.3c3,2.1,6,0.3,6,0.3
			c0.8-0.5,1.7-0.2,2.2,0.5c0.5,0.7,0.2,1.7-0.5,2.2C-1128.4,601.6-1130.3,602.7-1132.9,602.7z"/>
		<path id="XMLID_29_" class="st2" d="M-1133.9,590.6h-12.1c-0.9,0-1.6-0.7-1.6-1.6s0.7-1.6,1.6-1.6h12c0.9,0,1.6,0.7,1.6,1.6
			S-1133.1,590.6-1133.9,590.6z"/>
	</g>
	<g id="XMLID_51_">
		<path id="XMLID_53_" class="st2" d="M-1121.9,612.7c-1.5,0-3.2-0.4-4.9-1.6c-2.4-1.7-5,0.4-5.5,0.9l-0.1,0.1
			c-0.6,0.6-1.6,0.6-2.2,0c-0.6-0.6-0.6-1.6,0-2.2c0.1-0.1,0.2-0.2,0.3-0.2c4.5-4.4,3.6-8.5,2.6-12.8c-0.6-2.6-1.1-5.1-0.3-7.4
			c0.5-1.6,1.8-2.7,3.6-3.4c3.3-1.2,8.2-0.6,10.5,0.8c0.8,0.4,1,1.4,0.6,2.2c-0.4,0.8-1.4,1-2.2,0.6c-1.4-0.8-5.2-1.5-7.8-0.6
			c-0.9,0.3-1.5,0.8-1.7,1.4c-0.5,1.5-0.1,3.5,0.4,5.8c0.7,3.3,1.6,7.1-0.2,11.1c1.3,0,2.6,0.3,4,1.3c3,2.1,6,0.3,6,0.3
			c0.8-0.5,1.7-0.2,2.2,0.5c0.5,0.7,0.2,1.7-0.5,2.2C-1117.4,611.6-1119.3,612.7-1121.9,612.7z"/>
		<path id="XMLID_52_" class="st2" d="M-1122.9,600.6h-12.1c-0.9,0-1.6-0.7-1.6-1.6s0.7-1.6,1.6-1.6h12c0.9,0,1.6,0.7,1.6,1.6
			S-1122.1,600.6-1122.9,600.6z"/>
	</g>
	<g id="XMLID_54_">
		<path id="XMLID_56_" class="st2" d="M-1110.9,602.7c-1.5,0-3.2-0.4-4.9-1.6c-2.4-1.7-5,0.4-5.5,0.9l-0.1,0.1
			c-0.6,0.6-1.6,0.6-2.2,0c-0.6-0.6-0.6-1.6,0-2.2c0.1-0.1,0.2-0.2,0.3-0.2c4.5-4.4,3.6-8.5,2.6-12.8c-0.6-2.6-1.1-5.1-0.3-7.4
			c0.5-1.6,1.8-2.7,3.6-3.4c3.3-1.2,8.2-0.6,10.5,0.8c0.8,0.4,1,1.4,0.6,2.2c-0.4,0.8-1.4,1-2.2,0.6c-1.4-0.8-5.2-1.5-7.8-0.6
			c-0.9,0.3-1.5,0.8-1.7,1.4c-0.5,1.5-0.1,3.5,0.4,5.8c0.7,3.3,1.6,7.1-0.2,11.1c1.3,0,2.6,0.3,4,1.3c3,2.1,6,0.3,6,0.3
			c0.8-0.5,1.7-0.2,2.2,0.5c0.5,0.7,0.2,1.7-0.5,2.2C-1106.4,601.6-1108.3,602.7-1110.9,602.7z"/>
		<path id="XMLID_55_" class="st2" d="M-1111.9,590.6h-12.1c-0.9,0-1.6-0.7-1.6-1.6s0.7-1.6,1.6-1.6h12c0.9,0,1.6,0.7,1.6,1.6
			S-1111.1,590.6-1111.9,590.6z"/>
	</g>
	<g id="XMLID_37_">
		<path id="XMLID_39_" class="st2" d="M-986.7,611.5c-1.5,0-3.2-0.4-4.9-1.6c-2.4-1.7-5,0.4-5.5,0.9l-0.1,0.1
			c-0.6,0.6-1.6,0.6-2.2,0c-0.6-0.6-0.6-1.6,0-2.2c0.1-0.1,0.2-0.2,0.3-0.2c4.5-4.4,3.6-8.5,2.6-12.8c-0.6-2.6-1.1-5.1-0.3-7.4
			c0.5-1.6,1.8-2.7,3.6-3.4c3.3-1.2,8.2-0.6,10.5,0.8c0.8,0.4,1,1.4,0.6,2.2c-0.4,0.8-1.4,1-2.2,0.6c-1.4-0.8-5.2-1.5-7.8-0.6
			c-0.9,0.3-1.5,0.8-1.7,1.4c-0.5,1.5-0.1,3.5,0.4,5.8c0.7,3.3,1.6,7.1-0.2,11.1c1.3,0,2.6,0.3,4,1.3c3,2.1,6,0.3,6,0.3
			c0.8-0.5,1.7-0.2,2.2,0.5c0.5,0.7,0.2,1.7-0.5,2.2C-982.3,610.4-984.2,611.5-986.7,611.5z"/>
		<path id="XMLID_38_" class="st2" d="M-987.8,599.4h-12c-0.9,0-1.6-0.7-1.6-1.6s0.7-1.6,1.6-1.6h12c0.9,0,1.6,0.7,1.6,1.6
			S-986.9,599.4-987.8,599.4z"/>
	</g>
	<g id="XMLID_57_">
		<path id="XMLID_59_" class="st2" d="M-997.7,601.5c-1.5,0-3.2-0.4-4.9-1.6c-2.4-1.7-5,0.4-5.5,0.9l-0.1,0.1
			c-0.6,0.6-1.6,0.6-2.2,0c-0.6-0.6-0.6-1.6,0-2.2c0.1-0.1,0.2-0.2,0.3-0.2c4.5-4.4,3.6-8.5,2.6-12.8c-0.6-2.6-1.1-5.1-0.3-7.4
			c0.5-1.6,1.8-2.7,3.6-3.4c3.3-1.2,8.2-0.6,10.5,0.8c0.8,0.4,1,1.4,0.6,2.2c-0.4,0.8-1.4,1-2.2,0.6c-1.4-0.8-5.2-1.5-7.8-0.6
			c-0.9,0.3-1.5,0.8-1.7,1.4c-0.5,1.5-0.1,3.5,0.4,5.8c0.7,3.3,1.6,7.1-0.2,11.1c1.3,0,2.6,0.3,4,1.3c3,2.1,6,0.3,6,0.3
			c0.8-0.5,1.7-0.2,2.2,0.5c0.5,0.7,0.2,1.7-0.5,2.2C-993.3,600.4-995.2,601.5-997.7,601.5z"/>
		<path id="XMLID_58_" class="st2" d="M-998.8,589.4h-12c-0.9,0-1.6-0.7-1.6-1.6s0.7-1.6,1.6-1.6h12c0.9,0,1.6,0.7,1.6,1.6
			S-997.9,589.4-998.8,589.4z"/>
	</g>
	<g id="XMLID_60_">
		<path id="XMLID_62_" class="st2" d="M-976.7,601.5c-1.5,0-3.2-0.4-4.9-1.6c-2.4-1.7-5,0.4-5.5,0.9l-0.1,0.1
			c-0.6,0.6-1.6,0.6-2.2,0c-0.6-0.6-0.6-1.6,0-2.2c0.1-0.1,0.2-0.2,0.3-0.2c4.5-4.4,3.6-8.5,2.6-12.8c-0.6-2.6-1.1-5.1-0.3-7.4
			c0.5-1.6,1.8-2.7,3.6-3.4c3.3-1.2,8.2-0.6,10.5,0.8c0.8,0.4,1,1.4,0.6,2.2c-0.4,0.8-1.4,1-2.2,0.6c-1.4-0.8-5.2-1.5-7.8-0.6
			c-0.9,0.3-1.5,0.8-1.7,1.4c-0.5,1.5-0.1,3.5,0.4,5.8c0.7,3.3,1.6,7.1-0.2,11.1c1.3,0,2.6,0.3,4,1.3c3,2.1,6,0.3,6,0.3
			c0.8-0.5,1.7-0.2,2.2,0.5c0.5,0.7,0.2,1.7-0.5,2.2C-972.3,600.4-974.2,601.5-976.7,601.5z"/>
		<path id="XMLID_61_" class="st2" d="M-977.8,589.4h-12c-0.9,0-1.6-0.7-1.6-1.6s0.7-1.6,1.6-1.6h12c0.9,0,1.6,0.7,1.6,1.6
			S-976.9,589.4-977.8,589.4z"/>
	</g>
	<circle id="XMLID_374_" class="st0" cx="-1084.3" cy="602.3" r="6.5"/>
	<circle id="XMLID_373_" class="st0" cx="-1084.3" cy="620.1" r="6.5"/>
	<circle id="XMLID_372_" class="st0" cx="-1084.3" cy="566.8" r="6.5"/>
	<circle id="XMLID_371_" class="st0" cx="-1084.3" cy="584.5" r="6.5"/>
	<circle id="XMLID_370_" class="st0" cx="-1066.6" cy="602.3" r="6.5"/>
	<circle id="XMLID_369_" class="st0" cx="-1066.6" cy="620.1" r="6.5"/>
	<circle id="XMLID_368_" class="st0" cx="-1066.6" cy="566.8" r="6.5"/>
	<circle id="XMLID_367_" class="st0" cx="-1066.6" cy="584.5" r="6.5"/>
	<circle id="XMLID_366_" class="st0" cx="-1048.8" cy="566.8" r="6.5"/>
	<circle id="XMLID_365_" class="st0" cx="-1031" cy="566.8" r="6.5"/>
	<circle id="XMLID_364_" class="st0" cx="-1031" cy="584.5" r="6.5"/>
	<circle id="XMLID_363_" class="st0" cx="-1031" cy="602.5" r="6.5"/>
	<circle id="XMLID_362_" class="st0" cx="-1031" cy="620.3" r="6.5"/>
	<path id="XMLID_25_" class="st2" d="M-1048.6,624.9c-0.8,0-1.4-0.6-1.4-1.4v-23.6c0-0.8,0.6-1.4,1.4-1.4c0.8,0,1.4,0.6,1.4,1.4
		v23.6C-1047.2,624.3-1047.8,624.9-1048.6,624.9z"/>
	<path id="XMLID_5_" class="st2" d="M-1048.8,593.7c-5,0-9.1-4.1-9.1-9.1s4.1-9.1,9.1-9.1s9.1,4.1,9.1,9.1
		S-1043.8,593.7-1048.8,593.7z M-1048.8,578.3c-3.5,0-6.3,2.8-6.3,6.3s2.8,6.3,6.3,6.3s6.3-2.8,6.3-6.3S-1045.3,578.3-1048.8,578.3z
		"/>
	<path id="XMLID_40_" class="st3" d="M-1121.3,654.6c3.8-13,9.4-21.7,23.7-26.6l-2,10"/>
	<line id="XMLID_41_" class="st3" x1="-1109.6" y1="623.7" x2="-1097.6" y2="628"/>
	<path id="XMLID_43_" class="st3" d="M-1014.6,628.1c11.6,6.9,18.6,14.6,19.7,29.7l-9.1-4.5"/>
	<line id="XMLID_42_" class="st3" x1="-987.6" y1="647.2" x2="-994.8" y2="657.8"/>
	<path id="XMLID_45_" class="st3" d="M-1039.4,730.1c-12.2,5.8-22.5,7.3-35.6-0.2l8.8-5.1"/>
	<line id="XMLID_44_" class="st3" x1="-1070.3" y1="741.8" x2="-1075" y2="729.9"/>
	<line id="XMLID_28_" class="st3" x1="-1079.7" y1="694.5" x2="-1035.6" y2="694.5"/>
	<g id="XMLID_46_">
		<path id="XMLID_14_" class="st2" d="M-1082.5,714.9l1.9-19c0.2-2.2,2.2-3.8,4.4-3.6c2.2,0.2,3.8,2.2,3.6,4.4c0,0.2,0,0.3-0.1,0.5
			l-4.3,18.6c-0.3,1.5-1.8,2.4-3.3,2.1C-1081.7,717.6-1082.6,716.3-1082.5,714.9z"/>
	</g>
	<g id="XMLID_47_">
		<path id="XMLID_12_" class="st2" d="M-1072.2,702.9l0.5-8.7c0.1-1.4,1.3-2.4,2.6-2.4c1.4,0.1,2.4,1.3,2.4,2.6c0,0.1,0,0.2,0,0.3
			l-1.7,8.6c-0.2,1-1.2,1.7-2.2,1.5C-1071.6,704.7-1072.2,703.8-1072.2,702.9z"/>
	</g>
	<g id="XMLID_9_">
		<path id="XMLID_34_" class="st2" d="M-1038.4,715.8l-4.3-18.7c-0.5-2.2,0.9-4.3,3-4.8c2.2-0.5,4.3,0.9,4.8,3
			c0,0.2,0.1,0.3,0.1,0.5l1.9,19c0.2,1.5-1,2.9-2.5,3C-1036.8,718.1-1038.1,717.2-1038.4,715.8z"/>
	</g>
	<g id="XMLID_3_">
		<path id="XMLID_23_" class="st2" d="M-1046.9,703.4l-1.7-8.6c-0.3-1.4,0.6-2.7,2-2.9c1.4-0.3,2.7,0.6,2.9,2c0,0.1,0,0.2,0,0.3
			l0.5,8.7c0.1,1-0.7,1.9-1.8,2C-1045.9,705-1046.8,704.3-1046.9,703.4z"/>
	</g>
</g>
</svg>
