<?xml version="1.0" encoding="utf-8"?>
<!-- Generator: Adobe Illustrator 19.0.0, SVG Export Plug-In . SVG Version: 6.00 Build 0)  -->
<svg version="1.1" id="Layer_1" xmlns="http://www.w3.org/2000/svg" xmlns:xlink="http://www.w3.org/1999/xlink" x="0px" y="0px"
	 viewBox="-766 371.8 187.6 185.5" style="enable-background:new -766 371.8 187.6 185.5;" xml:space="preserve">
<style type="text/css">
	.st0{fill:#5858A3;}
	.st1{fill:#252628;}
	.st2{fill:#FFEB59;}
	.st3{fill:none;stroke:#FFEB59;stroke-width:8;stroke-linecap:round;stroke-linejoin:round;stroke-miterlimit:10;}
</style>
<g id="Layer_1_1_">
</g>
<g id="Layer_2">
	<circle id="XMLID_31_" class="st0" cx="-739.3" cy="504.7" r="26.7"/>
	<path id="XMLID_30_" class="st1" d="M-724.7,509.4c0,7.1-6.5,12.8-14.6,12.8c-8.1,0-14.6-5.7-14.6-12.8H-724.7z"/>
	<circle id="XMLID_33_" class="st0" cx="-605.1" cy="503.7" r="26.7"/>
	<path id="XMLID_32_" class="st1" d="M-590.5,509.4c0,7.1-6.5,12.8-14.6,12.8c-8.1,0-14.6-5.7-14.6-12.8H-590.5z"/>
	<g id="XMLID_1_">
		<path id="XMLID_27_" class="st2" d="M-747.9,414.2c-1.5,0-3.2-0.4-4.9-1.6c-2.4-1.7-5,0.4-5.5,0.9l-0.1,0.1
			c-0.6,0.6-1.6,0.6-2.2,0c-0.6-0.6-0.6-1.6,0-2.2c0.1-0.1,0.2-0.2,0.3-0.2c4.5-4.4,3.6-8.5,2.6-12.8c-0.6-2.6-1.1-5.1-0.3-7.4
			c0.5-1.6,1.8-2.7,3.6-3.4c3.3-1.2,8.2-0.6,10.5,0.8c0.8,0.4,1,1.4,0.6,2.2s-1.4,1-2.2,0.6c-1.4-0.8-5.2-1.5-7.8-0.6
			c-0.9,0.3-1.5,0.8-1.7,1.4c-0.5,1.5-0.1,3.5,0.4,5.8c0.7,3.3,1.6,7.1-0.2,11.1c1.3,0,2.6,0.3,4,1.3c3,2.1,6,0.3,6,0.3
			c0.8-0.5,1.7-0.2,2.2,0.5c0.5,0.7,0.2,1.7-0.5,2.2C-743.4,413.1-745.3,414.2-747.9,414.2z"/>
		<path id="XMLID_29_" class="st2" d="M-748.9,402.1H-761c-0.9,0-1.6-0.7-1.6-1.6c0-0.9,0.7-1.6,1.6-1.6h12c0.9,0,1.6,0.7,1.6,1.6
			C-747.4,401.4-748.1,402.1-748.9,402.1z"/>
	</g>
	<g id="XMLID_51_">
		<path id="XMLID_53_" class="st2" d="M-736.9,424.2c-1.5,0-3.2-0.4-4.9-1.6c-2.4-1.7-5,0.4-5.5,0.9l-0.1,0.1
			c-0.6,0.6-1.6,0.6-2.2,0c-0.6-0.6-0.6-1.6,0-2.2c0.1-0.1,0.2-0.2,0.3-0.2c4.5-4.4,3.6-8.5,2.6-12.8c-0.6-2.6-1.1-5.1-0.3-7.4
			c0.5-1.6,1.8-2.7,3.6-3.4c3.3-1.2,8.2-0.6,10.5,0.8c0.8,0.4,1,1.4,0.6,2.2s-1.4,1-2.2,0.6c-1.4-0.8-5.2-1.5-7.8-0.6
			c-0.9,0.3-1.5,0.8-1.7,1.4c-0.5,1.5-0.1,3.5,0.4,5.8c0.7,3.3,1.6,7.1-0.2,11.1c1.3,0,2.6,0.3,4,1.3c3,2.1,6,0.3,6,0.3
			c0.8-0.5,1.7-0.2,2.2,0.5c0.5,0.7,0.2,1.7-0.5,2.2C-732.4,423.1-734.3,424.2-736.9,424.2z"/>
		<path id="XMLID_52_" class="st2" d="M-737.9,412.1H-750c-0.9,0-1.6-0.7-1.6-1.6c0-0.9,0.7-1.6,1.6-1.6h12c0.9,0,1.6,0.7,1.6,1.6
			C-736.4,411.4-737.1,412.1-737.9,412.1z"/>
	</g>
	<g id="XMLID_54_">
		<path id="XMLID_56_" class="st2" d="M-725.9,414.2c-1.5,0-3.2-0.4-4.9-1.6c-2.4-1.7-5,0.4-5.5,0.9l-0.1,0.1
			c-0.6,0.6-1.6,0.6-2.2,0c-0.6-0.6-0.6-1.6,0-2.2c0.1-0.1,0.2-0.2,0.3-0.2c4.5-4.4,3.6-8.5,2.6-12.8c-0.6-2.6-1.1-5.1-0.3-7.4
			c0.5-1.6,1.8-2.7,3.6-3.4c3.3-1.2,8.2-0.6,10.5,0.8c0.8,0.4,1,1.4,0.6,2.2s-1.4,1-2.2,0.6c-1.4-0.8-5.2-1.5-7.8-0.6
			c-0.9,0.3-1.5,0.8-1.7,1.4c-0.5,1.5-0.1,3.5,0.4,5.8c0.7,3.3,1.6,7.1-0.2,11.1c1.3,0,2.6,0.3,4,1.3c3,2.1,6,0.3,6,0.3
			c0.8-0.5,1.7-0.2,2.2,0.5c0.5,0.7,0.2,1.7-0.5,2.2C-721.4,413.1-723.3,414.2-725.9,414.2z"/>
		<path id="XMLID_55_" class="st2" d="M-726.9,402.1H-739c-0.9,0-1.6-0.7-1.6-1.6c0-0.9,0.7-1.6,1.6-1.6h12c0.9,0,1.6,0.7,1.6,1.6
			C-725.4,401.4-726.1,402.1-726.9,402.1z"/>
	</g>
	<g id="XMLID_37_">
		<path id="XMLID_39_" class="st2" d="M-601.7,423c-1.5,0-3.2-0.4-4.9-1.6c-2.4-1.7-5,0.4-5.5,0.9l-0.1,0.1c-0.6,0.6-1.6,0.6-2.2,0
			c-0.6-0.6-0.6-1.6,0-2.2c0.1-0.1,0.2-0.2,0.3-0.2c4.5-4.4,3.6-8.5,2.6-12.8c-0.6-2.6-1.1-5.1-0.3-7.4c0.5-1.6,1.8-2.7,3.6-3.4
			c3.3-1.2,8.2-0.6,10.5,0.8c0.8,0.4,1,1.4,0.6,2.2c-0.4,0.8-1.4,1-2.2,0.6c-1.4-0.8-5.2-1.5-7.8-0.6c-0.9,0.3-1.5,0.8-1.7,1.4
			c-0.5,1.5-0.1,3.5,0.4,5.8c0.7,3.3,1.6,7.1-0.2,11.1c1.3,0,2.6,0.3,4,1.3c3,2.1,6,0.3,6,0.3c0.8-0.5,1.7-0.2,2.2,0.5
			s0.2,1.7-0.5,2.2C-597.3,421.9-599.2,423-601.7,423z"/>
		<path id="XMLID_38_" class="st2" d="M-602.8,410.9h-12c-0.9,0-1.6-0.7-1.6-1.6s0.7-1.6,1.6-1.6h12c0.9,0,1.6,0.7,1.6,1.6
			S-601.9,410.9-602.8,410.9z"/>
	</g>
	<g id="XMLID_57_">
		<path id="XMLID_59_" class="st2" d="M-612.7,413c-1.5,0-3.2-0.4-4.9-1.6c-2.4-1.7-5,0.4-5.5,0.9l-0.1,0.1c-0.6,0.6-1.6,0.6-2.2,0
			c-0.6-0.6-0.6-1.6,0-2.2c0.1-0.1,0.2-0.2,0.3-0.2c4.5-4.4,3.6-8.5,2.6-12.8c-0.6-2.6-1.1-5.1-0.3-7.4c0.5-1.6,1.8-2.7,3.6-3.4
			c3.3-1.2,8.2-0.6,10.5,0.8c0.8,0.4,1,1.4,0.6,2.2c-0.4,0.8-1.4,1-2.2,0.6c-1.4-0.8-5.2-1.5-7.8-0.6c-0.9,0.3-1.5,0.8-1.7,1.4
			c-0.5,1.5-0.1,3.5,0.4,5.8c0.7,3.3,1.6,7.1-0.2,11.1c1.3,0,2.6,0.3,4,1.3c3,2.1,6,0.3,6,0.3c0.8-0.5,1.7-0.2,2.2,0.5
			s0.2,1.7-0.5,2.2C-608.3,411.9-610.2,413-612.7,413z"/>
		<path id="XMLID_58_" class="st2" d="M-613.8,400.9h-12c-0.9,0-1.6-0.7-1.6-1.6s0.7-1.6,1.6-1.6h12c0.9,0,1.6,0.7,1.6,1.6
			S-612.9,400.9-613.8,400.9z"/>
	</g>
	<g id="XMLID_60_">
		<path id="XMLID_62_" class="st2" d="M-591.7,413c-1.5,0-3.2-0.4-4.9-1.6c-2.4-1.7-5,0.4-5.5,0.9l-0.1,0.1c-0.6,0.6-1.6,0.6-2.2,0
			c-0.6-0.6-0.6-1.6,0-2.2c0.1-0.1,0.2-0.2,0.3-0.2c4.5-4.4,3.6-8.5,2.6-12.8c-0.6-2.6-1.1-5.1-0.3-7.4c0.5-1.6,1.8-2.7,3.6-3.4
			c3.3-1.2,8.2-0.6,10.5,0.8c0.8,0.4,1,1.4,0.6,2.2c-0.4,0.8-1.4,1-2.2,0.6c-1.4-0.8-5.2-1.5-7.8-0.6c-0.9,0.3-1.5,0.8-1.7,1.4
			c-0.5,1.5-0.1,3.5,0.4,5.8c0.7,3.3,1.6,7.1-0.2,11.1c1.3,0,2.6,0.3,4,1.3c3,2.1,6,0.3,6,0.3c0.8-0.5,1.7-0.2,2.2,0.5
			s0.2,1.7-0.5,2.2C-587.3,411.9-589.2,413-591.7,413z"/>
		<path id="XMLID_61_" class="st2" d="M-592.8,400.9h-12c-0.9,0-1.6-0.7-1.6-1.6s0.7-1.6,1.6-1.6h12c0.9,0,1.6,0.7,1.6,1.6
			S-591.9,400.9-592.8,400.9z"/>
	</g>
	<circle id="XMLID_374_" class="st0" cx="-699.3" cy="413.8" r="6.5"/>
	<circle id="XMLID_373_" class="st0" cx="-699.3" cy="431.6" r="6.5"/>
	<circle id="XMLID_372_" class="st0" cx="-699.3" cy="378.3" r="6.5"/>
	<circle id="XMLID_371_" class="st0" cx="-699.3" cy="396" r="6.5"/>
	<circle id="XMLID_370_" class="st0" cx="-681.6" cy="413.8" r="6.5"/>
	<circle id="XMLID_369_" class="st0" cx="-681.6" cy="431.6" r="6.5"/>
	<circle id="XMLID_368_" class="st0" cx="-681.6" cy="378.3" r="6.5"/>
	<circle id="XMLID_367_" class="st0" cx="-681.6" cy="396" r="6.5"/>
	<circle id="XMLID_366_" class="st0" cx="-663.8" cy="378.3" r="6.5"/>
	<circle id="XMLID_365_" class="st0" cx="-646" cy="378.3" r="6.5"/>
	<circle id="XMLID_364_" class="st0" cx="-646" cy="396" r="6.5"/>
	<circle id="XMLID_363_" class="st0" cx="-646" cy="414" r="6.5"/>
	<circle id="XMLID_362_" class="st0" cx="-646" cy="431.8" r="6.5"/>
	<path id="XMLID_25_" class="st2" d="M-663.6,436.4c-0.8,0-1.4-0.6-1.4-1.4v-23.6c0-0.8,0.6-1.4,1.4-1.4c0.8,0,1.4,0.6,1.4,1.4V435
		C-662.2,435.8-662.8,436.4-663.6,436.4z"/>
	<path id="XMLID_5_" class="st2" d="M-663.8,405.2c-5,0-9.1-4.1-9.1-9.1s4.1-9.1,9.1-9.1s9.1,4.1,9.1,9.1S-658.8,405.2-663.8,405.2z
		 M-663.8,389.8c-3.5,0-6.3,2.8-6.3,6.3s2.8,6.3,6.3,6.3s6.3-2.8,6.3-6.3S-660.3,389.8-663.8,389.8z"/>
	<path id="XMLID_40_" class="st3" d="M-736.3,466.1c3.8-13,9.4-21.7,23.7-26.6l-2,10"/>
	<line id="XMLID_41_" class="st3" x1="-724.6" y1="435.2" x2="-712.6" y2="439.5"/>
	<path id="XMLID_43_" class="st3" d="M-629.6,439.6c11.6,6.9,18.6,14.6,19.7,29.7l-9.1-4.5"/>
	<line id="XMLID_42_" class="st3" x1="-602.6" y1="458.7" x2="-609.8" y2="469.3"/>
	<path id="XMLID_45_" class="st3" d="M-654.4,541.6c-12.2,5.8-22.5,7.3-35.6-0.2l8.8-5.1"/>
	<line id="XMLID_44_" class="st3" x1="-685.3" y1="553.3" x2="-690" y2="541.4"/>
	<line id="XMLID_28_" class="st3" x1="-694.7" y1="506" x2="-650.6" y2="506"/>
	<g id="XMLID_46_">
		<path id="XMLID_14_" class="st2" d="M-697.5,526.4l1.9-19c0.2-2.2,2.2-3.8,4.4-3.6c2.2,0.2,3.8,2.2,3.6,4.4c0,0.2,0,0.3-0.1,0.5
			l-4.3,18.6c-0.3,1.5-1.8,2.4-3.3,2.1C-696.7,529.1-697.6,527.8-697.5,526.4z"/>
	</g>
	<g id="XMLID_47_">
		<path id="XMLID_12_" class="st2" d="M-687.2,514.4l0.5-8.7c0.1-1.4,1.3-2.4,2.6-2.4c1.4,0.1,2.4,1.3,2.4,2.6c0,0.1,0,0.2,0,0.3
			l-1.7,8.6c-0.2,1-1.2,1.7-2.2,1.5C-686.6,516.2-687.2,515.3-687.2,514.4z"/>
	</g>
	<g id="XMLID_9_">
		<path id="XMLID_34_" class="st2" d="M-653.4,527.3l-4.3-18.7c-0.5-2.2,0.9-4.3,3-4.8c2.2-0.5,4.3,0.9,4.8,3c0,0.2,0.1,0.3,0.1,0.5
			l1.9,19c0.2,1.5-1,2.9-2.5,3C-651.8,529.6-653.1,528.7-653.4,527.3z"/>
	</g>
	<g id="XMLID_3_">
		<path id="XMLID_23_" class="st2" d="M-661.9,514.9l-1.7-8.6c-0.3-1.4,0.6-2.7,2-2.9c1.4-0.3,2.7,0.6,2.9,2c0,0.1,0,0.2,0,0.3
			l0.5,8.7c0.1,1-0.7,1.9-1.8,2C-660.9,516.5-661.8,515.8-661.9,514.9z"/>
	</g>
</g>
</svg>
