<?xml version="1.0" encoding="utf-8"?>
<!-- Generator: Adobe Illustrator 19.0.0, SVG Export Plug-In . SVG Version: 6.00 Build 0)  -->
<svg version="1.1" id="Layer_1" xmlns="http://www.w3.org/2000/svg" xmlns:xlink="http://www.w3.org/1999/xlink" x="0px" y="0px"
	 viewBox="-384 185.4 190.6 190.6" style="enable-background:new -384 185.4 190.6 190.6;" xml:space="preserve">
<style type="text/css">
	.st0{fill:#5858A3;}
	.st1{fill:#252628;}
	.st2{fill:#F1FF5E;}
	.st3{fill:none;stroke:#F1FF5E;stroke-width:8;stroke-linecap:round;stroke-linejoin:round;stroke-miterlimit:10;}
</style>
<g id="Layer_1_1_">
</g>
<g id="Layer_2">
	<circle id="XMLID_31_" class="st0" cx="-355.3" cy="319.3" r="26.7"/>
	<path id="XMLID_30_" class="st1" d="M-340.7,324c0,7.1-6.5,12.8-14.6,12.8c-8.1,0-14.6-5.7-14.6-12.8H-340.7z"/>
	<circle id="XMLID_33_" class="st0" cx="-221.1" cy="318.3" r="26.7"/>
	<path id="XMLID_32_" class="st1" d="M-206.5,324c0,7.1-6.5,12.8-14.6,12.8s-14.6-5.7-14.6-12.8H-206.5z"/>
	<g id="XMLID_1_">
		<path id="XMLID_27_" class="st2" d="M-363.9,228.8c-1.5,0-3.2-0.4-4.9-1.6c-2.4-1.7-5,0.4-5.5,0.9l-0.1,0.1
			c-0.6,0.6-1.6,0.6-2.2,0s-0.6-1.6,0-2.2c0.1-0.1,0.2-0.2,0.3-0.2c4.5-4.4,3.6-8.5,2.6-12.8c-0.6-2.6-1.1-5.1-0.3-7.4
			c0.5-1.6,1.8-2.7,3.6-3.4c3.3-1.2,8.2-0.6,10.5,0.8c0.8,0.4,1,1.4,0.6,2.2c-0.4,0.8-1.4,1-2.2,0.6c-1.4-0.8-5.2-1.5-7.8-0.6
			c-0.9,0.3-1.5,0.8-1.7,1.4c-0.5,1.5-0.1,3.5,0.4,5.8c0.7,3.3,1.6,7.1-0.2,11.1c1.3,0,2.6,0.3,4,1.3c3,2.1,6,0.3,6,0.3
			c0.8-0.5,1.7-0.2,2.2,0.5c0.5,0.7,0.2,1.7-0.5,2.2C-359.4,227.7-361.3,228.8-363.9,228.8z"/>
		<path id="XMLID_29_" class="st2" d="M-364.9,216.7H-377c-0.9,0-1.6-0.7-1.6-1.6c0-0.9,0.7-1.6,1.6-1.6h12c0.9,0,1.6,0.7,1.6,1.6
			C-363.4,216-364.1,216.7-364.9,216.7z"/>
	</g>
	<g id="XMLID_51_">
		<path id="XMLID_53_" class="st2" d="M-352.9,238.8c-1.5,0-3.2-0.4-4.9-1.6c-2.4-1.7-5,0.4-5.5,0.9l-0.1,0.1
			c-0.6,0.6-1.6,0.6-2.2,0s-0.6-1.6,0-2.2c0.1-0.1,0.2-0.2,0.3-0.2c4.5-4.4,3.6-8.5,2.6-12.8c-0.6-2.6-1.1-5.1-0.3-7.4
			c0.5-1.6,1.8-2.7,3.6-3.4c3.3-1.2,8.2-0.6,10.5,0.8c0.8,0.4,1,1.4,0.6,2.2c-0.4,0.8-1.4,1-2.2,0.6c-1.4-0.8-5.2-1.5-7.8-0.6
			c-0.9,0.3-1.5,0.8-1.7,1.4c-0.5,1.5-0.1,3.5,0.4,5.8c0.7,3.3,1.6,7.1-0.2,11.1c1.3,0,2.6,0.3,4,1.3c3,2.1,6,0.3,6,0.3
			c0.8-0.5,1.7-0.2,2.2,0.5c0.5,0.7,0.2,1.7-0.5,2.2C-348.4,237.7-350.3,238.8-352.9,238.8z"/>
		<path id="XMLID_52_" class="st2" d="M-353.9,226.7H-366c-0.9,0-1.6-0.7-1.6-1.6c0-0.9,0.7-1.6,1.6-1.6h12c0.9,0,1.6,0.7,1.6,1.6
			C-352.4,226-353.1,226.7-353.9,226.7z"/>
	</g>
	<g id="XMLID_54_">
		<path id="XMLID_56_" class="st2" d="M-341.9,228.8c-1.5,0-3.2-0.4-4.9-1.6c-2.4-1.7-5,0.4-5.5,0.9l-0.1,0.1
			c-0.6,0.6-1.6,0.6-2.2,0s-0.6-1.6,0-2.2c0.1-0.1,0.2-0.2,0.3-0.2c4.5-4.4,3.6-8.5,2.6-12.8c-0.6-2.6-1.1-5.1-0.3-7.4
			c0.5-1.6,1.8-2.7,3.6-3.4c3.3-1.2,8.2-0.6,10.5,0.8c0.8,0.4,1,1.4,0.6,2.2c-0.4,0.8-1.4,1-2.2,0.6c-1.4-0.8-5.2-1.5-7.8-0.6
			c-0.9,0.3-1.5,0.8-1.7,1.4c-0.5,1.5-0.1,3.5,0.4,5.8c0.7,3.3,1.6,7.1-0.2,11.1c1.3,0,2.6,0.3,4,1.3c3,2.1,6,0.3,6,0.3
			c0.8-0.5,1.7-0.2,2.2,0.5c0.5,0.7,0.2,1.7-0.5,2.2C-337.4,227.7-339.3,228.8-341.9,228.8z"/>
		<path id="XMLID_55_" class="st2" d="M-342.9,216.7H-355c-0.9,0-1.6-0.7-1.6-1.6c0-0.9,0.7-1.6,1.6-1.6h12c0.9,0,1.6,0.7,1.6,1.6
			C-341.4,216-342.1,216.7-342.9,216.7z"/>
	</g>
	<g id="XMLID_37_">
		<path id="XMLID_39_" class="st2" d="M-217.7,237.6c-1.5,0-3.2-0.4-4.9-1.6c-2.4-1.7-5,0.4-5.5,0.9l-0.1,0.1
			c-0.6,0.6-1.6,0.6-2.2,0c-0.6-0.6-0.6-1.6,0-2.2c0.1-0.1,0.2-0.2,0.3-0.2c4.5-4.4,3.6-8.5,2.6-12.8c-0.6-2.6-1.1-5.1-0.3-7.4
			c0.5-1.6,1.8-2.7,3.6-3.4c3.3-1.2,8.2-0.6,10.5,0.8c0.8,0.4,1,1.4,0.6,2.2c-0.4,0.8-1.4,1-2.2,0.6c-1.4-0.8-5.2-1.5-7.8-0.6
			c-0.9,0.3-1.5,0.8-1.7,1.4c-0.5,1.5-0.1,3.5,0.4,5.8c0.7,3.3,1.6,7.1-0.2,11.1c1.3,0,2.6,0.3,4,1.3c3,2.1,6,0.3,6,0.3
			c0.8-0.5,1.7-0.2,2.2,0.5s0.2,1.7-0.5,2.2C-213.3,236.5-215.2,237.6-217.7,237.6z"/>
		<path id="XMLID_38_" class="st2" d="M-218.8,225.5h-12c-0.9,0-1.6-0.7-1.6-1.6s0.7-1.6,1.6-1.6h12c0.9,0,1.6,0.7,1.6,1.6
			S-217.9,225.5-218.8,225.5z"/>
	</g>
	<g id="XMLID_57_">
		<path id="XMLID_59_" class="st2" d="M-228.7,227.6c-1.5,0-3.2-0.4-4.9-1.6c-2.4-1.7-5,0.4-5.5,0.9l-0.1,0.1
			c-0.6,0.6-1.6,0.6-2.2,0c-0.6-0.6-0.6-1.6,0-2.2c0.1-0.1,0.2-0.2,0.3-0.2c4.5-4.4,3.6-8.5,2.6-12.8c-0.6-2.6-1.1-5.1-0.3-7.4
			c0.5-1.6,1.8-2.7,3.6-3.4c3.3-1.2,8.2-0.6,10.5,0.8c0.8,0.4,1,1.4,0.6,2.2c-0.4,0.8-1.4,1-2.2,0.6c-1.4-0.8-5.2-1.5-7.8-0.6
			c-0.9,0.3-1.5,0.8-1.7,1.4c-0.5,1.5-0.1,3.5,0.4,5.8c0.7,3.3,1.6,7.1-0.2,11.1c1.3,0,2.6,0.3,4,1.3c3,2.1,6,0.3,6,0.3
			c0.8-0.5,1.7-0.2,2.2,0.5s0.2,1.7-0.5,2.2C-224.3,226.5-226.2,227.6-228.7,227.6z"/>
		<path id="XMLID_58_" class="st2" d="M-229.8,215.5h-12c-0.9,0-1.6-0.7-1.6-1.6s0.7-1.6,1.6-1.6h12c0.9,0,1.6,0.7,1.6,1.6
			S-228.9,215.5-229.8,215.5z"/>
	</g>
	<g id="XMLID_60_">
		<path id="XMLID_62_" class="st2" d="M-207.7,227.6c-1.5,0-3.2-0.4-4.9-1.6c-2.4-1.7-5,0.4-5.5,0.9l-0.1,0.1
			c-0.6,0.6-1.6,0.6-2.2,0c-0.6-0.6-0.6-1.6,0-2.2c0.1-0.1,0.2-0.2,0.3-0.2c4.5-4.4,3.6-8.5,2.6-12.8c-0.6-2.6-1.1-5.1-0.3-7.4
			c0.5-1.6,1.8-2.7,3.6-3.4c3.3-1.2,8.2-0.6,10.5,0.8c0.8,0.4,1,1.4,0.6,2.2c-0.4,0.8-1.4,1-2.2,0.6c-1.4-0.8-5.2-1.5-7.8-0.6
			c-0.9,0.3-1.5,0.8-1.7,1.4c-0.5,1.5-0.1,3.5,0.4,5.8c0.7,3.3,1.6,7.1-0.2,11.1c1.3,0,2.6,0.3,4,1.3c3,2.1,6,0.3,6,0.3
			c0.8-0.5,1.7-0.2,2.2,0.5s0.2,1.7-0.5,2.2C-203.3,226.5-205.2,227.6-207.7,227.6z"/>
		<path id="XMLID_61_" class="st2" d="M-208.8,215.5h-12c-0.9,0-1.6-0.7-1.6-1.6s0.7-1.6,1.6-1.6h12c0.9,0,1.6,0.7,1.6,1.6
			S-207.9,215.5-208.8,215.5z"/>
	</g>
	<circle id="XMLID_374_" class="st0" cx="-315.3" cy="228.4" r="6.5"/>
	<circle id="XMLID_373_" class="st0" cx="-315.3" cy="246.2" r="6.5"/>
	<circle id="XMLID_372_" class="st0" cx="-315.3" cy="192.9" r="6.5"/>
	<circle id="XMLID_371_" class="st0" cx="-315.3" cy="210.6" r="6.5"/>
	<circle id="XMLID_370_" class="st0" cx="-297.6" cy="228.4" r="6.5"/>
	<circle id="XMLID_369_" class="st0" cx="-297.6" cy="246.2" r="6.5"/>
	<circle id="XMLID_368_" class="st0" cx="-297.6" cy="192.9" r="6.5"/>
	<circle id="XMLID_367_" class="st0" cx="-297.6" cy="210.6" r="6.5"/>
	<circle id="XMLID_366_" class="st0" cx="-279.8" cy="192.9" r="6.5"/>
	<circle id="XMLID_365_" class="st0" cx="-262" cy="192.9" r="6.5"/>
	<circle id="XMLID_364_" class="st0" cx="-262" cy="210.6" r="6.5"/>
	<circle id="XMLID_363_" class="st0" cx="-262" cy="228.6" r="6.5"/>
	<circle id="XMLID_362_" class="st0" cx="-262" cy="246.4" r="6.5"/>
	<path id="XMLID_25_" class="st2" d="M-279.6,251c-0.8,0-1.4-0.6-1.4-1.4V226c0-0.8,0.6-1.4,1.4-1.4c0.8,0,1.4,0.6,1.4,1.4v23.6
		C-278.2,250.4-278.8,251-279.6,251z"/>
	<path id="XMLID_5_" class="st2" d="M-279.8,219.8c-5,0-9.1-4.1-9.1-9.1s4.1-9.1,9.1-9.1s9.1,4.1,9.1,9.1S-274.8,219.8-279.8,219.8z
		 M-279.8,204.4c-3.5,0-6.3,2.8-6.3,6.3s2.8,6.3,6.3,6.3s6.3-2.8,6.3-6.3S-276.3,204.4-279.8,204.4z"/>
	<path id="XMLID_40_" class="st3" d="M-352.3,280.7c3.8-13,9.4-21.7,23.7-26.6l-2,10"/>
	<line id="XMLID_41_" class="st3" x1="-340.6" y1="249.8" x2="-328.6" y2="254.1"/>
	<path id="XMLID_43_" class="st3" d="M-245.6,254.2c11.6,6.9,18.6,14.6,19.7,29.7l-9.1-4.5"/>
	<line id="XMLID_42_" class="st3" x1="-218.6" y1="273.3" x2="-225.8" y2="283.9"/>
	<path id="XMLID_45_" class="st3" d="M-270.4,356.2c-12.2,5.8-22.5,7.3-35.6-0.2l8.8-5.1"/>
	<line id="XMLID_44_" class="st3" x1="-301.3" y1="367.9" x2="-306" y2="356"/>
	<line id="XMLID_28_" class="st3" x1="-310.7" y1="320.6" x2="-266.6" y2="320.6"/>
	<g id="XMLID_46_">
		<path id="XMLID_14_" class="st2" d="M-313.5,341l1.9-19c0.2-2.2,2.2-3.8,4.4-3.6c2.2,0.2,3.8,2.2,3.6,4.4c0,0.2,0,0.3-0.1,0.5
			l-4.3,18.6c-0.3,1.5-1.8,2.4-3.3,2.1C-312.7,343.7-313.6,342.4-313.5,341z"/>
	</g>
	<g id="XMLID_47_">
		<path id="XMLID_12_" class="st2" d="M-303.2,329l0.5-8.7c0.1-1.4,1.3-2.4,2.6-2.4c1.4,0.1,2.4,1.3,2.4,2.6c0,0.1,0,0.2,0,0.3
			l-1.7,8.6c-0.2,1-1.2,1.7-2.2,1.5C-302.6,330.8-303.2,329.9-303.2,329z"/>
	</g>
	<g id="XMLID_9_">
		<path id="XMLID_34_" class="st2" d="M-269.4,341.9l-4.3-18.7c-0.5-2.2,0.9-4.3,3-4.8c2.2-0.5,4.3,0.9,4.8,3c0,0.2,0.1,0.3,0.1,0.5
			l1.9,19c0.2,1.5-1,2.9-2.5,3C-267.8,344.2-269.1,343.3-269.4,341.9z"/>
	</g>
	<g id="XMLID_3_">
		<path id="XMLID_23_" class="st2" d="M-277.9,329.5l-1.7-8.6c-0.3-1.4,0.6-2.7,2-2.9c1.4-0.3,2.7,0.6,2.9,2c0,0.1,0,0.2,0,0.3
			l0.5,8.7c0.1,1-0.7,1.9-1.8,2C-276.9,331.1-277.8,330.4-277.9,329.5z"/>
	</g>
</g>
</svg>
