<?xml version="1.0" encoding="utf-8"?>
<!-- Generator: Adobe Illustrator 19.0.0, SVG Export Plug-In . SVG Version: 6.00 Build 0)  -->
<svg version="1.1" id="Layer_1" xmlns="http://www.w3.org/2000/svg" xmlns:xlink="http://www.w3.org/1999/xlink" x="0px" y="0px"
	 viewBox="-384 185.4 190.6 190.6" style="enable-background:new -384 185.4 190.6 190.6;" xml:space="preserve">
<style type="text/css">
	.st0{fill:#5858A3;}
	.st1{fill:#F1FF5E;}
	.st2{fill:#252628;}
</style>
<g id="Layer_1_1_">
</g>
<g id="Layer_2">
	<g id="XMLID_1_">
	</g>
	<circle id="XMLID_7_" class="st0" cx="-366.7" cy="202.7" r="17.3"/>
	<circle id="XMLID_9_" class="st0" cx="-366.7" cy="254.7" r="17.3"/>
	<circle id="XMLID_10_" class="st0" cx="-366.7" cy="306.7" r="17.3"/>
	<circle id="XMLID_11_" class="st0" cx="-366.7" cy="358.7" r="17.3"/>
	<circle id="XMLID_15_" class="st0" cx="-314.7" cy="202.7" r="17.3"/>
	<circle id="XMLID_14_" class="st0" cx="-314.7" cy="254.7" r="17.3"/>
	<circle id="XMLID_13_" class="st0" cx="-314.7" cy="306.7" r="17.3"/>
	<circle id="XMLID_12_" class="st0" cx="-314.7" cy="358.7" r="17.3"/>
	<circle id="XMLID_19_" class="st0" cx="-262.7" cy="202.7" r="17.3"/>
	<circle id="XMLID_18_" class="st0" cx="-262.7" cy="254.7" r="17.3"/>
	<circle id="XMLID_17_" class="st1" cx="-262.7" cy="306.7" r="26.7"/>
	<circle id="XMLID_16_" class="st0" cx="-262.7" cy="358.7" r="17.3"/>
	<circle id="XMLID_23_" class="st0" cx="-210.7" cy="202.7" r="17.3"/>
	<circle id="XMLID_22_" class="st0" cx="-210.7" cy="254.7" r="17.3"/>
	<circle id="XMLID_21_" class="st0" cx="-210.7" cy="306.7" r="17.3"/>
	<circle id="XMLID_20_" class="st0" cx="-210.7" cy="358.7" r="17.3"/>
	<path id="XMLID_24_" class="st2" d="M-248.1,312.4c0,7.1-6.5,12.8-14.6,12.8c-8.1,0-14.6-5.7-14.6-12.8H-248.1z"/>
</g>
</svg>
