<?xml version="1.0" encoding="utf-8"?>
<!-- Generator: Adobe Illustrator 19.0.0, SVG Export Plug-In . SVG Version: 6.00 Build 0)  -->
<svg version="1.1" id="Layer_1" xmlns="http://www.w3.org/2000/svg" xmlns:xlink="http://www.w3.org/1999/xlink" x="0px" y="0px"
	 viewBox="-768 370.8 190.6 190.6" style="enable-background:new -768 370.8 190.6 190.6;" xml:space="preserve">
<style type="text/css">
	.st0{fill:#5858A3;}
	.st1{fill:#FFEB59;}
	.st2{fill:#252628;}
</style>
<g id="Layer_1_1_">
</g>
<g id="Layer_2">
	<g id="XMLID_1_">
	</g>
	<circle id="XMLID_7_" class="st0" cx="-750.7" cy="388.1" r="17.3"/>
	<circle id="XMLID_9_" class="st0" cx="-750.7" cy="440.1" r="17.3"/>
	<circle id="XMLID_10_" class="st0" cx="-750.7" cy="492.1" r="17.3"/>
	<circle id="XMLID_11_" class="st0" cx="-750.7" cy="544.1" r="17.3"/>
	<circle id="XMLID_15_" class="st0" cx="-698.7" cy="388.1" r="17.3"/>
	<circle id="XMLID_14_" class="st0" cx="-698.7" cy="440.1" r="17.3"/>
	<circle id="XMLID_13_" class="st0" cx="-698.7" cy="492.1" r="17.3"/>
	<circle id="XMLID_12_" class="st0" cx="-698.7" cy="544.1" r="17.3"/>
	<circle id="XMLID_19_" class="st0" cx="-646.7" cy="388.1" r="17.3"/>
	<circle id="XMLID_18_" class="st0" cx="-646.7" cy="440.1" r="17.3"/>
	<circle id="XMLID_17_" class="st1" cx="-646.7" cy="492.1" r="26.7"/>
	<circle id="XMLID_16_" class="st0" cx="-646.7" cy="544.1" r="17.3"/>
	<circle id="XMLID_23_" class="st0" cx="-594.7" cy="388.1" r="17.3"/>
	<circle id="XMLID_22_" class="st0" cx="-594.7" cy="440.1" r="17.3"/>
	<circle id="XMLID_21_" class="st0" cx="-594.7" cy="492.1" r="17.3"/>
	<circle id="XMLID_20_" class="st0" cx="-594.7" cy="544.1" r="17.3"/>
	<path id="XMLID_24_" class="st2" d="M-632.1,497.8c0,7.1-6.5,12.8-14.6,12.8s-14.6-5.7-14.6-12.8H-632.1z"/>
</g>
</svg>
