<?xml version="1.0" encoding="utf-8"?>
<!-- Generator: Adobe Illustrator 19.0.0, SVG Export Plug-In . SVG Version: 6.00 Build 0)  -->
<svg version="1.1" id="Layer_1" xmlns="http://www.w3.org/2000/svg" xmlns:xlink="http://www.w3.org/1999/xlink" x="0px" y="0px"
	 viewBox="-492 96.2 466.4 466" style="enable-background:new -492 96.2 466.4 466;" xml:space="preserve">
<style type="text/css">
	.st0{fill:#FFEB59;}
	.st1{fill:#E8C256;}
	.st2{fill:#FFEB59;stroke:#252628;stroke-width:24;stroke-linecap:round;stroke-linejoin:round;stroke-miterlimit:10;}
	.st3{fill:none;stroke:#252628;stroke-width:24;stroke-linecap:round;stroke-linejoin:round;stroke-miterlimit:10;}
	.st4{fill:none;stroke:#252628;stroke-width:11;stroke-linecap:round;stroke-linejoin:round;stroke-miterlimit:10;}
</style>
<g id="base">
	<rect id="XMLID_28_" x="-492" y="96.2" class="st0" width="465.9" height="465.9"/>
</g>
<g id="Layer_3">
	<polygon id="XMLID_5_" class="st1" points="-25.6,316.3 -196.8,193.5 -410.7,428.1 -242.1,562.2 -26.1,562.1 	"/>
</g>
<g id="layer1">
	<polyline id="XMLID_24_" class="st2" points="-437.3,278 -392.6,143.9 -325.6,143.9 -258.5,143.9 -191.5,143.9 -124.5,143.9 
		-81,278 	"/>
	<path id="XMLID_26_" class="st2" d="M-411.3,294.3V407c0,13.5,10.9,24.4,24.4,24.4h255.5c13.5,0,24.4-10.9,24.4-24.4V294.3"/>
	<line id="XMLID_19_" class="st3" x1="-258.5" y1="144.5" x2="-258.5" y2="276.2"/>
	<path id="XMLID_20_" class="st3" d="M-437.3,278l13.8,4.5c20,6.5,41.5,6.5,61.5,0l13.8-4.5l13.8,4.5c20,6.5,41.5,6.5,61.5,0
		l13.8-4.5l13.8,4.5c20,6.5,41.5,6.5,61.5,0l13.8-4.5l13.8,4.5c20,6.5,41.5,6.5,61.5,0l13.8-4.5"/>
	<line id="XMLID_21_" class="st3" x1="-325.6" y1="143.9" x2="-348.2" y2="278"/>
	<line id="XMLID_23_" class="st3" x1="-191.5" y1="143.9" x2="-170.1" y2="278"/>
	<rect id="XMLID_27_" x="-322.1" y="318.6" class="st3" width="174.1" height="72.1"/>
</g>
<g id="Layer_4">
	<path id="XMLID_46_" class="st4" d="M-284.3,463"/>
	<path id="XMLID_45_" class="st4" d="M-226.3,508.8"/>
	<path id="XMLID_44_" class="st4" d="M-265.3,463v59.5"/>
	<path id="XMLID_43_" class="st4" d="M-229.3,463.5"/>
	<polyline id="XMLID_42_" class="st4" points="-178.3,523 -213.3,523 -213.3,463 -178.3,463 	"/>
	<line id="XMLID_41_" class="st4" x1="-181.3" y1="493" x2="-213.3" y2="493"/>
	<polyline id="XMLID_40_" class="st4" points="-337.3,523 -372.3,523 -372.3,463 -337.3,463 	"/>
	<line id="XMLID_39_" class="st4" x1="-340.3" y1="493" x2="-372.3" y2="493"/>
	<path id="XMLID_38_" class="st4" d="M-159.3,523v-28.7V463h22c0,0,18.1-1.7,18.1,15s-17.4,17-17.4,17h-18.6"/>
	<path id="XMLID_37_" class="st4" d="M-117.4,522.5c0,0-12.4-27.5-23.9-27.5"/>
	<path id="XMLID_36_" class="st4" d="M-101.3,515.8c0,0,8.2,7.6,22.2,7.6s19.3-9.7,19.3-14.6s-2.9-12-19.3-15.6s-20.9-7.3-20.9-15.1
		s15.3-26,40.2-8.6"/>
	<path id="XMLID_35_" class="st4" d="M-438,515.8c0,0,8.2,7.6,22.2,7.6s19.3-9.7,19.3-14.6s-2.9-12-19.3-15.6
		c-16.4-3.6-20.9-7.3-20.9-15.1c0-7.8,15.3-26,40.2-8.6"/>
	<path id="XMLID_34_" class="st4" d="M-231.7,523.4h-33.6"/>
	<path id="XMLID_33_" class="st4" d="M-285.3,508.8"/>
	<path id="XMLID_32_" class="st4" d="M-318.3,463v59.5"/>
	<path id="XMLID_11_" class="st4" d="M-284.7,523.4h-33.6"/>
</g>
</svg>
