<?xml version="1.0" encoding="utf-8"?>
<!-- Generator: Adobe Illustrator 19.0.0, SVG Export Plug-In . SVG Version: 6.00 Build 0)  -->
<svg version="1.1" id="Layer_1" xmlns="http://www.w3.org/2000/svg" xmlns:xlink="http://www.w3.org/1999/xlink" x="0px" y="0px"
	 viewBox="-587.4 -22.7 419.5 566.7" style="enable-background:new -587.4 -22.7 419.5 566.7;" xml:space="preserve">
<style type="text/css">
	.st0{fill:#5858A3;}
	.st1{fill:none;stroke:#48488C;stroke-width:19;stroke-miterlimit:10;}
	.st2{fill:#252628;}
	.st3{fill:#F2E482;}
	.st4{fill:#444472;}
</style>
<rect id="XMLID_1_" x="-587.4" y="126.8" class="st0" width="419.5" height="416.1"/>
<g id="XMLID_58_">
</g>
<path id="XMLID_4_" class="st1" d="M-373.7,257.8"/>
<circle id="XMLID_374_" class="st2" cx="-452.5" cy="368.9" r="19.2"/>
<circle id="XMLID_373_" class="st2" cx="-452.5" cy="421.4" r="19.2"/>
<circle id="XMLID_372_" class="st2" cx="-452.5" cy="263.8" r="19.2"/>
<circle id="XMLID_371_" class="st2" cx="-452.5" cy="316.3" r="19.2"/>
<circle id="XMLID_370_" class="st2" cx="-399.9" cy="368.9" r="19.2"/>
<circle id="XMLID_369_" class="st2" cx="-399.9" cy="421.4" r="19.2"/>
<circle id="XMLID_368_" class="st2" cx="-399.9" cy="263.8" r="19.2"/>
<circle id="XMLID_367_" class="st2" cx="-399.9" cy="316.3" r="19.2"/>
<circle id="XMLID_366_" class="st2" cx="-347.4" cy="263.8" r="19.2"/>
<circle id="XMLID_365_" class="st2" cx="-294.8" cy="263.8" r="19.2"/>
<circle id="XMLID_364_" class="st2" cx="-294.8" cy="316.3" r="19.2"/>
<circle id="XMLID_363_" class="st2" cx="-294.8" cy="369.5" r="19.2"/>
<circle id="XMLID_362_" class="st2" cx="-294.8" cy="422.1" r="19.2"/>
<path id="XMLID_8_" class="st3" d="M-346.9,435.8c-2.3,0-4.2-1.9-4.2-4.2v-69.8c0-2.3,1.9-4.2,4.2-4.2s4.2,1.9,4.2,4.2v69.8
	C-342.7,433.9-344.6,435.8-346.9,435.8z"/>
<path id="XMLID_5_" class="st3" d="M-347.4,343.3c-14.9,0-27-12.1-27-27s12.1-27,27-27c14.9,0,27,12.1,27,27
	S-332.5,343.3-347.4,343.3z M-347.4,297.7c-10.2,0-18.6,8.3-18.6,18.6c0,10.2,8.3,18.6,18.6,18.6c10.2,0,18.6-8.3,18.6-18.6
	C-328.8,306.1-337.1,297.7-347.4,297.7z"/>
<path id="XMLID_10_" class="st1" d="M-272.5,126.9V88.1l-0.2-0.6c0-55.6-45.2-100.7-100.8-100.7s-101,45-101,100.6V88v38.8"/>
<path id="XMLID_9_" class="st4" d="M-587,215.9c22,339-12.2,304.1,292.5,328.1c-292.6,0-292.5,0-292.5,0V215.9z"/>
</svg>
