<?xml version="1.0" encoding="utf-8"?>
<!-- Generator: Adobe Illustrator 19.0.0, SVG Export Plug-In . SVG Version: 6.00 Build 0)  -->
<svg version="1.1" id="Layer_1" xmlns="http://www.w3.org/2000/svg" xmlns:xlink="http://www.w3.org/1999/xlink" x="0px" y="0px"
	 viewBox="-195 -13.1 568.9 587.1" style="enable-background:new -195 -13.1 568.9 587.1;" xml:space="preserve">
<style type="text/css">
	.st0{fill:#5858A3;}
	.st1{fill:#252628;}
	.st2{fill:none;stroke:#48488C;stroke-width:19;stroke-miterlimit:10;}
	.st3{fill:#F1FF5E;}
	.st4{fill:#444472;}
</style>
<rect id="XMLID_1_" x="-123.4" y="143.6" class="st0" width="419.5" height="416.1"/>
<circle id="XMLID_79_" class="st1" cx="-788.7" cy="41" r="70.5"/>
<path id="XMLID_3_" class="st1" d="M-612.7,166.7c0,16-18.1,30.2-40.4,30.2c-22.3,0-40.4-14.2-40.4-30.2H-612.7z"/>
<g id="XMLID_58_">
</g>
<path id="XMLID_4_" class="st2" d="M90.3,274.6"/>
<circle id="XMLID_374_" class="st1" cx="11.5" cy="385.7" r="19.2"/>
<circle id="XMLID_373_" class="st1" cx="11.5" cy="438.2" r="19.2"/>
<circle id="XMLID_372_" class="st1" cx="11.5" cy="280.6" r="19.2"/>
<circle id="XMLID_371_" class="st1" cx="11.5" cy="333.1" r="19.2"/>
<circle id="XMLID_370_" class="st1" cx="64.1" cy="385.7" r="19.2"/>
<circle id="XMLID_369_" class="st1" cx="64.1" cy="438.2" r="19.2"/>
<circle id="XMLID_368_" class="st1" cx="64.1" cy="280.6" r="19.2"/>
<circle id="XMLID_367_" class="st1" cx="64.1" cy="333.1" r="19.2"/>
<circle id="XMLID_366_" class="st1" cx="116.6" cy="280.6" r="19.2"/>
<circle id="XMLID_365_" class="st1" cx="169.2" cy="280.6" r="19.2"/>
<circle id="XMLID_364_" class="st1" cx="169.2" cy="333.1" r="19.2"/>
<circle id="XMLID_363_" class="st1" cx="169.2" cy="386.3" r="19.2"/>
<circle id="XMLID_362_" class="st1" cx="169.2" cy="438.9" r="19.2"/>
<path id="XMLID_8_" class="st3" d="M117.1,452.6c-2.3,0-4.2-1.9-4.2-4.2v-69.8c0-2.3,1.9-4.2,4.2-4.2c2.3,0,4.2,1.9,4.2,4.2v69.8
	C121.3,450.7,119.4,452.6,117.1,452.6z"/>
<path id="XMLID_5_" class="st3" d="M116.6,360.1c-14.9,0-27-12.1-27-27s12.1-27,27-27s27,12.1,27,27S131.5,360.1,116.6,360.1z
	 M116.6,314.5c-10.2,0-18.6,8.3-18.6,18.6c0,10.2,8.3,18.6,18.6,18.6c10.2,0,18.6-8.3,18.6-18.6
	C135.2,322.9,126.9,314.5,116.6,314.5z"/>
<path id="XMLID_10_" class="st2" d="M191.5,143.7v-38.8l-0.2-0.6c0-55.6-45.2-100.7-100.8-100.7s-101,45-101,100.6v0.6v38.8"/>
<path id="XMLID_9_" class="st4" d="M-123,232.7c22,339-12.2,304.1,292.5,328.1c-292.6,0-292.5,0-292.5,0V232.7z"/>
</svg>
