<?xml version="1.0" encoding="utf-8"?>
<!-- Generator: Adobe Illustrator 19.0.0, SVG Export Plug-In . SVG Version: 6.00 Build 0)  -->
<svg version="1.1" id="Layer_1" xmlns="http://www.w3.org/2000/svg" xmlns:xlink="http://www.w3.org/1999/xlink" x="0px" y="0px"
	 viewBox="-246 48.1 465.9 465.9" style="enable-background:new -246 48.1 465.9 465.9;" xml:space="preserve">
<style type="text/css">
	.st0{fill:#F1FF5E;}
	.st1{fill:#E8C256;}
	.st2{fill:#E9E655;stroke:#252628;stroke-width:24;stroke-linecap:round;stroke-linejoin:round;stroke-miterlimit:10;}
	.st3{fill:none;stroke:#252628;stroke-width:24;stroke-linecap:round;stroke-linejoin:round;stroke-miterlimit:10;}
	.st4{fill:none;stroke:#252628;stroke-width:11;stroke-linecap:round;stroke-linejoin:round;stroke-miterlimit:10;}
</style>
<g id="base">
	<rect id="XMLID_28_" x="-246" y="48.1" class="st0" width="465.9" height="465.9"/>
</g>
<g id="Layer_3">
	<polygon id="XMLID_5_" class="st1" points="220.4,268.2 49.2,145.4 -164.7,380 3.9,514.1 219.9,514 	"/>
</g>
<g id="layer1">
	<polyline id="XMLID_24_" class="st2" points="-191.3,229.9 -146.6,95.8 -79.6,95.8 -12.5,95.8 54.5,95.8 121.5,95.8 165,229.9 	"/>
	<path id="XMLID_26_" class="st2" d="M-165.3,246.2v112.7c0,13.5,10.9,24.4,24.4,24.4h255.5c13.5,0,24.4-10.9,24.4-24.4V246.2"/>
	<line id="XMLID_19_" class="st3" x1="-12.5" y1="96.4" x2="-12.5" y2="228.1"/>
	<path id="XMLID_20_" class="st3" d="M-191.3,229.9l13.8,4.5c20,6.5,41.5,6.5,61.5,0l13.8-4.5l13.8,4.5c20,6.5,41.5,6.5,61.5,0
		l13.8-4.5l13.8,4.5c20,6.5,41.5,6.5,61.5,0l13.8-4.5l13.8,4.5c20,6.5,41.5,6.5,61.5,0l13.8-4.5"/>
	<line id="XMLID_21_" class="st3" x1="-79.6" y1="95.8" x2="-102.2" y2="229.9"/>
	<line id="XMLID_23_" class="st3" x1="54.5" y1="95.8" x2="75.9" y2="229.9"/>
	<rect id="XMLID_27_" x="-76.1" y="270.5" class="st3" width="174.1" height="72.1"/>
</g>
<g id="Layer_4">
	<path id="XMLID_46_" class="st4" d="M-38.3,414.9"/>
	<path id="XMLID_45_" class="st4" d="M19.7,460.7"/>
	<path id="XMLID_44_" class="st4" d="M-19.3,414.9v59.5"/>
	<path id="XMLID_43_" class="st4" d="M16.7,415.4"/>
	<polyline id="XMLID_42_" class="st4" points="67.7,474.9 32.7,474.9 32.7,414.9 67.7,414.9 	"/>
	<line id="XMLID_41_" class="st4" x1="64.7" y1="444.9" x2="32.7" y2="444.9"/>
	<polyline id="XMLID_40_" class="st4" points="-91.3,474.9 -126.3,474.9 -126.3,414.9 -91.3,414.9 	"/>
	<line id="XMLID_39_" class="st4" x1="-94.3" y1="444.9" x2="-126.3" y2="444.9"/>
	<path id="XMLID_38_" class="st4" d="M86.7,474.9v-28.7v-31.3h22c0,0,18.1-1.7,18.1,15s-17.4,17-17.4,17H90.8"/>
	<path id="XMLID_37_" class="st4" d="M128.6,474.4c0,0-12.4-27.5-23.9-27.5"/>
	<path id="XMLID_36_" class="st4" d="M144.7,467.7c0,0,8.2,7.6,22.2,7.6s19.3-9.7,19.3-14.6s-2.9-12-19.3-15.6S146,437.8,146,430
		c0-7.8,15.3-26,40.2-8.6"/>
	<path id="XMLID_35_" class="st4" d="M-192,467.7c0,0,8.2,7.6,22.2,7.6s19.3-9.7,19.3-14.6s-2.9-12-19.3-15.6s-20.9-7.3-20.9-15.1
		c0-7.8,15.3-26,40.2-8.6"/>
	<path id="XMLID_34_" class="st4" d="M14.3,475.3h-33.6"/>
	<path id="XMLID_33_" class="st4" d="M-39.3,460.7"/>
	<path id="XMLID_32_" class="st4" d="M-72.3,414.9v59.5"/>
	<path id="XMLID_11_" class="st4" d="M-38.7,475.3h-33.6"/>
</g>
</svg>
