<?xml version="1.0" encoding="utf-8"?>
<!-- Generator: Adobe Illustrator 19.0.0, SVG Export Plug-In . SVG Version: 6.00 Build 0)  -->
<svg version="1.1" id="Layer_1" xmlns="http://www.w3.org/2000/svg" xmlns:xlink="http://www.w3.org/1999/xlink" x="0px" y="0px"
	 viewBox="-738 144.2 466.4 466" style="enable-background:new -738 144.2 466.4 466;" xml:space="preserve">
<style type="text/css">
	.st0{fill:#F2E482;}
	.st1{fill:#E8C256;}
	.st2{fill:#F2E482;stroke:#252628;stroke-width:24;stroke-linecap:round;stroke-linejoin:round;stroke-miterlimit:10;}
	.st3{fill:none;stroke:#252628;stroke-width:24;stroke-linecap:round;stroke-linejoin:round;stroke-miterlimit:10;}
	.st4{fill:none;stroke:#252628;stroke-width:11;stroke-linecap:round;stroke-linejoin:round;stroke-miterlimit:10;}
</style>
<g id="base">
	<rect id="XMLID_28_" x="-738" y="144.2" class="st0" width="465.9" height="465.9"/>
</g>
<g id="Layer_3">
	<polygon id="XMLID_5_" class="st1" points="-271.6,364.3 -442.8,241.5 -656.7,476.1 -488.1,610.2 -272.1,610.1 	"/>
</g>
<g id="layer1">
	<polyline id="XMLID_24_" class="st2" points="-683.3,326 -638.6,191.9 -571.6,191.9 -504.5,191.9 -437.5,191.9 -370.5,191.9 
		-327,326 	"/>
	<path id="XMLID_26_" class="st2" d="M-657.3,342.3V455c0,13.5,10.9,24.4,24.4,24.4h255.5c13.5,0,24.4-10.9,24.4-24.4V342.3"/>
	<line id="XMLID_19_" class="st3" x1="-504.5" y1="192.5" x2="-504.5" y2="324.2"/>
	<path id="XMLID_20_" class="st3" d="M-683.3,326l13.8,4.5c20,6.5,41.5,6.5,61.5,0l13.8-4.5l13.8,4.5c20,6.5,41.5,6.5,61.5,0
		l13.8-4.5l13.8,4.5c20,6.5,41.5,6.5,61.5,0l13.8-4.5l13.8,4.5c20,6.5,41.5,6.5,61.5,0l13.8-4.5"/>
	<line id="XMLID_21_" class="st3" x1="-571.6" y1="191.9" x2="-594.2" y2="326"/>
	<line id="XMLID_23_" class="st3" x1="-437.5" y1="191.9" x2="-416.1" y2="326"/>
	<rect id="XMLID_27_" x="-568.1" y="366.6" class="st3" width="174.1" height="72.1"/>
</g>
<g id="Layer_4">
	<path id="XMLID_46_" class="st4" d="M-530.3,511"/>
	<path id="XMLID_45_" class="st4" d="M-472.3,556.8"/>
	<path id="XMLID_44_" class="st4" d="M-511.3,511v59.5"/>
	<path id="XMLID_43_" class="st4" d="M-475.3,511.5"/>
	<polyline id="XMLID_42_" class="st4" points="-424.3,571 -459.3,571 -459.3,511 -424.3,511 	"/>
	<line id="XMLID_41_" class="st4" x1="-427.3" y1="541" x2="-459.3" y2="541"/>
	<polyline id="XMLID_40_" class="st4" points="-583.3,571 -618.3,571 -618.3,511 -583.3,511 	"/>
	<line id="XMLID_39_" class="st4" x1="-586.3" y1="541" x2="-618.3" y2="541"/>
	<path id="XMLID_38_" class="st4" d="M-405.3,571v-28.7V511h22c0,0,18.1-1.7,18.1,15s-17.4,17-17.4,17h-18.6"/>
	<path id="XMLID_37_" class="st4" d="M-363.4,570.5c0,0-12.4-27.5-23.9-27.5"/>
	<path id="XMLID_36_" class="st4" d="M-347.3,563.8c0,0,8.2,7.6,22.2,7.6s19.3-9.7,19.3-14.6c0-4.9-2.9-12-19.3-15.6
		c-16.4-3.6-20.9-7.3-20.9-15.1c0-7.8,15.3-26,40.2-8.6"/>
	<path id="XMLID_35_" class="st4" d="M-684,563.8c0,0,8.2,7.6,22.2,7.6s19.3-9.7,19.3-14.6c0-4.9-2.9-12-19.3-15.6
		c-16.4-3.6-20.9-7.3-20.9-15.1s15.3-26,40.2-8.6"/>
	<path id="XMLID_34_" class="st4" d="M-477.7,571.4h-33.6"/>
	<path id="XMLID_33_" class="st4" d="M-531.3,556.8"/>
	<path id="XMLID_32_" class="st4" d="M-564.3,511v59.5"/>
	<path id="XMLID_11_" class="st4" d="M-530.7,571.4h-33.6"/>
</g>
</svg>
