<?xml version="1.0" encoding="utf-8"?>
<!-- Generator: Adobe Illustrator 19.0.0, SVG Export Plug-In . SVG Version: 6.00 Build 0)  -->
<svg version="1.1" id="Layer_1" xmlns="http://www.w3.org/2000/svg" xmlns:xlink="http://www.w3.org/1999/xlink" x="0px" y="0px"
	 viewBox="-318.4 -19 419.5 566.7" style="enable-background:new -318.4 -19 419.5 566.7;" xml:space="preserve">
<style type="text/css">
	.st0{fill:#5858A3;}
	.st1{fill:none;stroke:#48488C;stroke-width:19;stroke-miterlimit:10;}
	.st2{fill:#252628;}
	.st3{fill:#FFEB59;}
	.st4{fill:#444472;}
</style>
<rect id="XMLID_1_" x="-318.4" y="130.5" class="st0" width="419.5" height="416.1"/>
<g id="XMLID_58_">
</g>
<path id="XMLID_4_" class="st1" d="M-104.7,261.5"/>
<circle id="XMLID_374_" class="st2" cx="-183.5" cy="372.6" r="19.2"/>
<circle id="XMLID_373_" class="st2" cx="-183.5" cy="425.1" r="19.2"/>
<circle id="XMLID_372_" class="st2" cx="-183.5" cy="267.5" r="19.2"/>
<circle id="XMLID_371_" class="st2" cx="-183.5" cy="320" r="19.2"/>
<circle id="XMLID_370_" class="st2" cx="-130.9" cy="372.6" r="19.2"/>
<circle id="XMLID_369_" class="st2" cx="-130.9" cy="425.1" r="19.2"/>
<circle id="XMLID_368_" class="st2" cx="-130.9" cy="267.5" r="19.2"/>
<circle id="XMLID_367_" class="st2" cx="-130.9" cy="320" r="19.2"/>
<circle id="XMLID_366_" class="st2" cx="-78.4" cy="267.5" r="19.2"/>
<circle id="XMLID_365_" class="st2" cx="-25.8" cy="267.5" r="19.2"/>
<circle id="XMLID_364_" class="st2" cx="-25.8" cy="320" r="19.2"/>
<circle id="XMLID_363_" class="st2" cx="-25.8" cy="373.2" r="19.2"/>
<circle id="XMLID_362_" class="st2" cx="-25.8" cy="425.8" r="19.2"/>
<path id="XMLID_8_" class="st3" d="M-77.9,439.5c-2.3,0-4.2-1.9-4.2-4.2v-69.8c0-2.3,1.9-4.2,4.2-4.2c2.3,0,4.2,1.9,4.2,4.2v69.8
	C-73.7,437.6-75.6,439.5-77.9,439.5z"/>
<path id="XMLID_5_" class="st3" d="M-78.4,347c-14.9,0-27-12.1-27-27s12.1-27,27-27s27,12.1,27,27S-63.5,347-78.4,347z M-78.4,301.4
	c-10.2,0-18.6,8.3-18.6,18.6c0,10.2,8.3,18.6,18.6,18.6c10.2,0,18.6-8.3,18.6-18.6C-59.8,309.8-68.1,301.4-78.4,301.4z"/>
<path id="XMLID_10_" class="st1" d="M-3.5,130.6V91.8l-0.2-0.6C-3.7,35.6-48.9-9.5-104.5-9.5s-101,45-101,100.6v0.6v38.8"/>
<path id="XMLID_9_" class="st4" d="M-318,219.6c22,339-12.2,304.1,292.5,328.1c-292.6,0-292.5,0-292.5,0V219.6z"/>
</svg>
