<?xml version="1.0" encoding="utf-8"?>
<!-- Generator: Adobe Illustrator 19.0.0, SVG Export Plug-In . SVG Version: 6.00 Build 0)  -->
<svg version="1.1" id="Layer_1" xmlns="http://www.w3.org/2000/svg" xmlns:xlink="http://www.w3.org/1999/xlink" x="0px" y="0px"
	 viewBox="0 0 674.9 268.4" style="enable-background:new 0 0 674.9 268.4;" xml:space="preserve">
<style type="text/css">
	.st0{fill:none;stroke:#F2E482;stroke-width:11;stroke-linecap:round;stroke-linejoin:round;stroke-miterlimit:10;}
	.st1{fill:#F2E482;}
</style>
<polyline id="XMLID_249_" class="st0" points="94.4,181.5 94.4,85 99.8,85 168.4,182 175.4,182 175.4,85.5 "/>
<line id="XMLID_248_" class="st0" x1="202.9" y1="85" x2="282.9" y2="85"/>
<line id="XMLID_247_" class="st0" x1="246.4" y1="181.5" x2="246.4" y2="85.5"/>
<line id="XMLID_250_" class="st0" x1="315.4" y1="85.5" x2="315.4" y2="181.5"/>
<path id="XMLID_225_" class="st0" d="M449.8,129.9c0,27.2-23.1,52.3-50.2,52.3s-48.2-25.1-48.2-52.3s21-49.2,48.2-49.2
	S449.8,102.8,449.8,129.9z"/>
<line id="XMLID_252_" class="st0" x1="449.9" y1="182" x2="398.9" y2="182"/>
<path id="XMLID_254_" class="st0" d="M518.1,144.6"/>
<path id="XMLID_251_" class="st0" d="M484.4,85.5v72.2c0,10.6,15,27.1,35.9,27.1c20.9,0,38.1-16.6,38.1-27.1V85.5"/>
<polyline id="XMLID_255_" class="st0" points="664.9,85 603.4,85 603.4,182 664.9,182 "/>
<line id="XMLID_256_" class="st0" x1="658.9" y1="135" x2="603.9" y2="135"/>
<circle id="XMLID_360_" class="st0" cx="38.2" cy="35.3" r="29.8"/>
<line id="XMLID_361_" class="st0" x1="36.4" y1="88.5" x2="36.4" y2="181.5"/>
<g id="XMLID_219_">
	<path id="XMLID_15_" class="st1" d="M2.8,260.2c-0.2-0.2-0.3-0.5-0.3-0.8v-17.9c0-0.3,0.1-0.6,0.3-0.8c0.2-0.2,0.5-0.3,0.9-0.3h5.6
		c3.2,0,5.7,0.9,7.5,2.6c1.8,1.8,2.7,4.2,2.7,7.5c0,3.2-0.9,5.7-2.7,7.5c-1.8,1.8-4.3,2.6-7.5,2.6H3.7C3.3,260.5,3,260.4,2.8,260.2z
		 M9.1,258.5c5.2,0,7.9-2.7,7.9-8.1c0-5.4-2.6-8.1-7.9-8.1H4.8v16.2H9.1z"/>
	<path id="XMLID_18_" class="st1" d="M23.4,242.8c-0.3-0.3-0.4-0.6-0.4-1.1c0-0.4,0.1-0.8,0.4-1c0.3-0.3,0.7-0.4,1.1-0.4
		s0.8,0.1,1.1,0.4c0.3,0.3,0.4,0.6,0.4,1c0,0.4-0.1,0.8-0.4,1.1c-0.3,0.3-0.7,0.4-1.1,0.4S23.7,243.1,23.4,242.8z M23.7,260.3
		c-0.2-0.2-0.3-0.5-0.3-0.8v-12.1c0-0.4,0.1-0.6,0.3-0.8s0.5-0.3,0.8-0.3s0.6,0.1,0.8,0.3s0.3,0.5,0.3,0.8v12.1
		c0,0.4-0.1,0.7-0.3,0.9c-0.2,0.2-0.5,0.3-0.8,0.3S23.9,260.5,23.7,260.3z"/>
	<path id="XMLID_21_" class="st1" d="M32.2,260.4c-0.8-0.2-1.5-0.5-2.1-0.9c-0.3-0.2-0.6-0.4-0.7-0.6c-0.1-0.2-0.2-0.4-0.2-0.7
		c0-0.2,0.1-0.5,0.2-0.6c0.1-0.2,0.3-0.2,0.6-0.2s0.6,0.1,1,0.4c0.6,0.3,1.1,0.6,1.7,0.8s1.3,0.3,2.1,0.3c1,0,1.8-0.2,2.4-0.5
		c0.6-0.4,0.9-0.9,0.9-1.6c0-0.4-0.1-0.8-0.3-1c-0.2-0.3-0.6-0.5-1.1-0.7c-0.5-0.2-1.3-0.4-2.3-0.6c-1.7-0.4-2.9-0.8-3.6-1.5
		s-1.1-1.4-1.1-2.5c0-0.8,0.2-1.5,0.7-2.2s1.1-1.1,1.9-1.5c0.8-0.4,1.7-0.5,2.8-0.5c0.7,0,1.5,0.1,2.2,0.3c0.7,0.2,1.3,0.5,1.9,0.8
		c0.6,0.5,1,0.9,1,1.4c0,0.2-0.1,0.5-0.2,0.6c-0.2,0.2-0.3,0.3-0.5,0.3c-0.2,0-0.6-0.2-1-0.5c-0.5-0.3-1-0.6-1.5-0.8
		s-1.1-0.3-1.8-0.3c-0.9,0-1.6,0.2-2.2,0.6s-0.8,0.9-0.8,1.6c0,0.4,0.1,0.8,0.3,1s0.5,0.5,1,0.7c0.5,0.2,1.1,0.4,2,0.6
		c1.3,0.3,2.3,0.6,3,0.9c0.7,0.3,1.2,0.8,1.5,1.3s0.5,1.1,0.5,1.9c0,1.2-0.5,2.2-1.5,2.9c-1,0.7-2.4,1.1-4,1.1
		C33.8,260.7,33,260.6,32.2,260.4z"/>
	<path id="XMLID_23_" class="st1" d="M46.1,259.8c-1-0.6-1.8-1.4-2.3-2.5s-0.8-2.4-0.8-3.8c0-1.4,0.3-2.7,0.8-3.8
		c0.6-1.1,1.4-2,2.4-2.6c1-0.6,2.2-0.9,3.5-0.9c0.7,0,1.4,0.1,2.2,0.3c0.7,0.2,1.3,0.5,1.9,0.9c0.3,0.2,0.6,0.5,0.7,0.7
		c0.1,0.2,0.2,0.5,0.2,0.7s-0.1,0.5-0.2,0.7c-0.1,0.2-0.3,0.3-0.6,0.3c-0.1,0-0.3,0-0.4-0.1c-0.2-0.1-0.3-0.2-0.4-0.2
		c-0.1-0.1-0.2-0.1-0.2-0.1c-0.5-0.3-1-0.6-1.4-0.8c-0.4-0.2-1-0.3-1.6-0.3c-1.4,0-2.5,0.5-3.3,1.4c-0.8,0.9-1.2,2.3-1.2,3.9
		c0,1.7,0.4,3,1.2,3.9c0.8,0.9,1.9,1.4,3.3,1.4c0.6,0,1.2-0.1,1.7-0.3c0.5-0.2,0.9-0.4,1.4-0.8c0.2-0.1,0.4-0.2,0.6-0.3
		c0.2-0.1,0.4-0.1,0.5-0.1c0.2,0,0.4,0.1,0.5,0.3c0.1,0.2,0.2,0.4,0.2,0.7c0,0.2-0.1,0.5-0.2,0.7c-0.1,0.2-0.4,0.4-0.7,0.7
		c-0.5,0.4-1.2,0.7-1.9,0.9c-0.8,0.2-1.5,0.3-2.3,0.3C48.2,260.7,47.1,260.4,46.1,259.8z"/>
	<path id="XMLID_25_" class="st1" d="M59.8,259.8c-1-0.6-1.8-1.4-2.3-2.5c-0.5-1.1-0.8-2.4-0.8-3.8s0.3-2.7,0.8-3.8
		c0.5-1.1,1.3-1.9,2.3-2.5c1-0.6,2.2-0.9,3.5-0.9c1.3,0,2.5,0.3,3.5,0.9c1,0.6,1.8,1.4,2.3,2.5c0.5,1.1,0.8,2.4,0.8,3.8
		s-0.3,2.7-0.8,3.8c-0.5,1.1-1.3,1.9-2.3,2.5c-1,0.6-2.2,0.9-3.5,0.9C62,260.7,60.8,260.4,59.8,259.8z M66.5,257.4
		c0.7-0.9,1.1-2.2,1.1-4c0-1.7-0.4-3-1.1-3.9s-1.8-1.4-3.2-1.4s-2.4,0.5-3.2,1.4s-1.1,2.2-1.1,3.9c0,1.7,0.4,3,1.1,4
		c0.7,0.9,1.8,1.4,3.2,1.4C64.7,258.8,65.7,258.3,66.5,257.4z"/>
	<path id="XMLID_28_" class="st1" d="M84.3,246.3c0.3,0,0.5,0.1,0.8,0.3s0.3,0.4,0.3,0.7c0,0.2,0,0.3-0.1,0.5l-5.6,12
		c-0.1,0.2-0.3,0.4-0.5,0.6s-0.5,0.2-0.7,0.2c-0.2,0-0.5-0.1-0.7-0.2s-0.4-0.3-0.5-0.6l-5.6-12c-0.1-0.1-0.1-0.3-0.1-0.4
		c0-0.3,0.1-0.5,0.4-0.7c0.3-0.2,0.5-0.3,0.8-0.3c0.2,0,0.4,0.1,0.6,0.2c0.2,0.1,0.3,0.3,0.4,0.5l4.8,10.8l4.8-10.7
		C83.5,246.5,83.9,246.3,84.3,246.3z"/>
	<path id="XMLID_30_" class="st1" d="M99.2,257.5c0.2,0.2,0.2,0.4,0.2,0.7c0,0.5-0.3,0.9-1,1.3c-0.7,0.4-1.4,0.7-2.2,0.9
		c-0.8,0.2-1.5,0.3-2.2,0.3c-2.2,0-3.9-0.6-5.1-1.9c-1.3-1.3-1.9-3-1.9-5.3c0-1.4,0.3-2.7,0.8-3.8c0.6-1.1,1.3-2,2.3-2.6
		c1-0.6,2.1-0.9,3.4-0.9c1.8,0,3.3,0.6,4.3,1.8s1.6,2.8,1.6,4.8c0,0.4-0.1,0.7-0.2,0.8c-0.2,0.2-0.4,0.3-0.7,0.3h-9.2
		c0.2,3.3,1.7,4.9,4.7,4.9c0.7,0,1.4-0.1,1.9-0.3c0.5-0.2,1.1-0.5,1.7-0.8c0.5-0.3,0.8-0.4,1-0.4C98.8,257.2,99,257.3,99.2,257.5z
		 M90.7,249.1c-0.7,0.8-1.2,1.8-1.3,3.2h8.1c0-1.4-0.4-2.5-1.1-3.3c-0.7-0.8-1.6-1.1-2.8-1.1C92.4,248,91.4,248.4,90.7,249.1z"/>
	<path id="XMLID_33_" class="st1" d="M111,247.2c0,0.3-0.1,0.5-0.3,0.7c-0.2,0.2-0.5,0.3-0.9,0.3l-0.9,0.1c-1.3,0.1-2.2,0.6-2.9,1.4
		c-0.6,0.8-0.9,1.7-0.9,2.8v7c0,0.4-0.1,0.7-0.3,0.9c-0.2,0.2-0.5,0.3-0.8,0.3s-0.6-0.1-0.8-0.3c-0.2-0.2-0.3-0.5-0.3-0.8v-12.1
		c0-0.4,0.1-0.6,0.3-0.8s0.5-0.3,0.8-0.3c0.3,0,0.6,0.1,0.8,0.3c0.2,0.2,0.3,0.5,0.3,0.8v1.6c0.4-0.8,1-1.5,1.7-1.9
		c0.7-0.4,1.6-0.7,2.5-0.8l0.4,0C110.6,246.2,111,246.5,111,247.2z"/>
	<path id="XMLID_35_" class="st1" d="M120.5,242.8c-0.3-0.3-0.4-0.6-0.4-1.1c0-0.4,0.1-0.8,0.4-1c0.3-0.3,0.7-0.4,1.1-0.4
		s0.8,0.1,1.1,0.4c0.3,0.3,0.4,0.6,0.4,1c0,0.4-0.1,0.8-0.4,1.1c-0.3,0.3-0.7,0.4-1.1,0.4S120.8,243.1,120.5,242.8z M120.8,260.3
		c-0.2-0.2-0.3-0.5-0.3-0.8v-12.1c0-0.4,0.1-0.6,0.3-0.8s0.5-0.3,0.8-0.3s0.6,0.1,0.8,0.3s0.3,0.5,0.3,0.8v12.1
		c0,0.4-0.1,0.7-0.3,0.9c-0.2,0.2-0.5,0.3-0.8,0.3S121,260.5,120.8,260.3z"/>
	<path id="XMLID_38_" class="st1" d="M139.1,251.7v7.8c0,0.4-0.1,0.6-0.3,0.8c-0.2,0.2-0.5,0.3-0.8,0.3c-0.4,0-0.7-0.1-0.9-0.3
		c-0.2-0.2-0.3-0.5-0.3-0.8v-7.6c0-1.3-0.3-2.2-0.8-2.8c-0.5-0.6-1.3-0.9-2.4-0.9c-1.3,0-2.3,0.4-3.1,1.2c-0.8,0.8-1.1,1.8-1.1,3.2
		v7c0,0.4-0.1,0.6-0.3,0.8c-0.2,0.2-0.5,0.3-0.8,0.3s-0.6-0.1-0.9-0.3c-0.2-0.2-0.3-0.5-0.3-0.8v-12.1c0-0.3,0.1-0.6,0.3-0.8
		c0.2-0.2,0.5-0.3,0.9-0.3c0.3,0,0.6,0.1,0.8,0.3c0.2,0.2,0.3,0.5,0.3,0.8v1.5c0.5-0.9,1.1-1.5,1.9-2c0.8-0.4,1.8-0.7,2.8-0.7
		C137.5,246.2,139.1,248,139.1,251.7z"/>
	<path id="XMLID_40_" class="st1" d="M155.5,240.4c0.2,0.2,0.3,0.5,0.3,0.8v18.2c0,0.3-0.1,0.6-0.3,0.8s-0.5,0.3-0.9,0.3
		c-0.4,0-0.6-0.1-0.8-0.3c-0.2-0.2-0.3-0.5-0.3-0.8v-1.5c-0.4,0.9-1,1.6-1.9,2c-0.8,0.5-1.8,0.7-2.9,0.7c-1.2,0-2.3-0.3-3.2-0.9
		c-0.9-0.6-1.7-1.5-2.2-2.6c-0.5-1.1-0.8-2.4-0.8-3.8c0-1.4,0.3-2.7,0.8-3.8c0.5-1.1,1.2-1.9,2.2-2.5c0.9-0.6,2-0.9,3.2-0.9
		c1.1,0,2,0.2,2.9,0.7c0.8,0.5,1.4,1.2,1.9,2v-7.7c0-0.3,0.1-0.6,0.3-0.8c0.2-0.2,0.5-0.3,0.8-0.3
		C155,240.1,155.3,240.2,155.5,240.4z M152.4,257.4c0.7-0.9,1.1-2.2,1.1-3.9c0-1.7-0.4-3-1.1-3.9c-0.7-0.9-1.8-1.4-3.1-1.4
		c-1.4,0-2.4,0.5-3.2,1.4c-0.8,0.9-1.1,2.2-1.1,3.9c0,1.7,0.4,3,1.1,4c0.8,0.9,1.8,1.4,3.2,1.4C150.6,258.8,151.6,258.3,152.4,257.4
		z"/>
	<path id="XMLID_43_" class="st1" d="M171.4,257.5c0.2,0.2,0.2,0.4,0.2,0.7c0,0.5-0.3,0.9-1,1.3c-0.7,0.4-1.4,0.7-2.2,0.9
		c-0.8,0.2-1.5,0.3-2.2,0.3c-2.2,0-3.9-0.6-5.1-1.9c-1.3-1.3-1.9-3-1.9-5.3c0-1.4,0.3-2.7,0.8-3.8c0.6-1.1,1.3-2,2.3-2.6
		c1-0.6,2.1-0.9,3.4-0.9c1.8,0,3.3,0.6,4.3,1.8s1.6,2.8,1.6,4.8c0,0.4-0.1,0.7-0.2,0.8c-0.2,0.2-0.4,0.3-0.7,0.3h-9.2
		c0.2,3.3,1.7,4.9,4.7,4.9c0.7,0,1.4-0.1,1.9-0.3c0.5-0.2,1.1-0.5,1.7-0.8c0.5-0.3,0.8-0.4,1-0.4
		C171.1,257.2,171.3,257.3,171.4,257.5z M162.9,249.1c-0.7,0.8-1.2,1.8-1.3,3.2h8.1c0-1.4-0.4-2.5-1.1-3.3c-0.7-0.8-1.6-1.1-2.8-1.1
		C164.7,248,163.7,248.4,162.9,249.1z"/>
	<path id="XMLID_46_" class="st1" d="M185.5,247.1c0.9,0.6,1.7,1.5,2.2,2.6c0.5,1.1,0.8,2.4,0.8,3.8c0,1.5-0.3,2.7-0.8,3.8
		c-0.5,1.1-1.2,1.9-2.2,2.5c-0.9,0.6-2,0.9-3.3,0.9c-1.1,0-2-0.2-2.9-0.7c-0.8-0.5-1.4-1.2-1.8-2v6.7c0,0.3-0.1,0.6-0.3,0.8
		c-0.2,0.2-0.5,0.3-0.8,0.3s-0.6-0.1-0.9-0.3c-0.2-0.2-0.3-0.5-0.3-0.8v-17.3c0-0.3,0.1-0.6,0.3-0.8c0.2-0.2,0.5-0.3,0.9-0.3
		s0.6,0.1,0.8,0.3c0.2,0.2,0.3,0.5,0.3,0.8v1.5c0.4-0.9,1-1.6,1.8-2c0.8-0.5,1.8-0.7,2.9-0.7C183.4,246.2,184.5,246.5,185.5,247.1z
		 M184.9,257.4c0.7-0.9,1.1-2.2,1.1-3.9c0-1.7-0.4-3-1.1-3.9c-0.7-0.9-1.8-1.4-3.2-1.4c-1.4,0-2.4,0.5-3.1,1.4
		c-0.7,0.9-1.1,2.2-1.1,3.9c0,1.7,0.4,3,1.1,3.9c0.7,0.9,1.8,1.4,3.1,1.4C183.1,258.8,184.2,258.3,184.9,257.4z"/>
	<path id="XMLID_49_" class="st1" d="M203.2,257.5c0.2,0.2,0.2,0.4,0.2,0.7c0,0.5-0.3,0.9-1,1.3c-0.7,0.4-1.4,0.7-2.2,0.9
		c-0.8,0.2-1.5,0.3-2.2,0.3c-2.2,0-3.9-0.6-5.1-1.9c-1.3-1.3-1.9-3-1.9-5.3c0-1.4,0.3-2.7,0.8-3.8c0.6-1.1,1.3-2,2.3-2.6
		c1-0.6,2.1-0.9,3.4-0.9c1.8,0,3.3,0.6,4.3,1.8s1.6,2.8,1.6,4.8c0,0.4-0.1,0.7-0.2,0.8c-0.2,0.2-0.4,0.3-0.7,0.3h-9.2
		c0.2,3.3,1.7,4.9,4.7,4.9c0.7,0,1.4-0.1,1.9-0.3c0.5-0.2,1.1-0.5,1.7-0.8c0.5-0.3,0.8-0.4,1-0.4
		C202.9,257.2,203.1,257.3,203.2,257.5z M194.7,249.1c-0.7,0.8-1.2,1.8-1.3,3.2h8.1c0-1.4-0.4-2.5-1.1-3.3c-0.7-0.8-1.6-1.1-2.8-1.1
		C196.5,248,195.5,248.4,194.7,249.1z"/>
	<path id="XMLID_52_" class="st1" d="M219,251.7v7.8c0,0.4-0.1,0.6-0.3,0.8c-0.2,0.2-0.5,0.3-0.8,0.3c-0.4,0-0.7-0.1-0.9-0.3
		c-0.2-0.2-0.3-0.5-0.3-0.8v-7.6c0-1.3-0.3-2.2-0.8-2.8c-0.5-0.6-1.3-0.9-2.4-0.9c-1.3,0-2.3,0.4-3.1,1.2c-0.8,0.8-1.1,1.8-1.1,3.2
		v7c0,0.4-0.1,0.6-0.3,0.8c-0.2,0.2-0.5,0.3-0.8,0.3s-0.6-0.1-0.9-0.3c-0.2-0.2-0.3-0.5-0.3-0.8v-12.1c0-0.3,0.1-0.6,0.3-0.8
		c0.2-0.2,0.5-0.3,0.9-0.3c0.3,0,0.6,0.1,0.8,0.3c0.2,0.2,0.3,0.5,0.3,0.8v1.5c0.5-0.9,1.1-1.5,1.9-2c0.8-0.4,1.8-0.7,2.8-0.7
		C217.4,246.2,219,248,219,251.7z"/>
	<path id="XMLID_54_" class="st1" d="M235.4,240.4c0.2,0.2,0.3,0.5,0.3,0.8v18.2c0,0.3-0.1,0.6-0.3,0.8s-0.5,0.3-0.9,0.3
		c-0.4,0-0.6-0.1-0.8-0.3c-0.2-0.2-0.3-0.5-0.3-0.8v-1.5c-0.4,0.9-1,1.6-1.9,2c-0.8,0.5-1.8,0.7-2.9,0.7c-1.2,0-2.3-0.3-3.2-0.9
		c-0.9-0.6-1.7-1.5-2.2-2.6c-0.5-1.1-0.8-2.4-0.8-3.8c0-1.4,0.3-2.7,0.8-3.8c0.5-1.1,1.2-1.9,2.2-2.5c0.9-0.6,2-0.9,3.2-0.9
		c1.1,0,2,0.2,2.9,0.7c0.8,0.5,1.4,1.2,1.9,2v-7.7c0-0.3,0.1-0.6,0.3-0.8c0.2-0.2,0.5-0.3,0.8-0.3
		C234.9,240.1,235.2,240.2,235.4,240.4z M232.3,257.4c0.7-0.9,1.1-2.2,1.1-3.9c0-1.7-0.4-3-1.1-3.9c-0.7-0.9-1.8-1.4-3.1-1.4
		c-1.4,0-2.4,0.5-3.2,1.4c-0.8,0.9-1.1,2.2-1.1,3.9c0,1.7,0.4,3,1.1,4c0.8,0.9,1.8,1.4,3.2,1.4C230.5,258.8,231.5,258.3,232.3,257.4
		z"/>
	<path id="XMLID_57_" class="st1" d="M251.3,257.5c0.2,0.2,0.2,0.4,0.2,0.7c0,0.5-0.3,0.9-1,1.3c-0.7,0.4-1.4,0.7-2.2,0.9
		c-0.8,0.2-1.5,0.3-2.2,0.3c-2.2,0-3.9-0.6-5.1-1.9c-1.3-1.3-1.9-3-1.9-5.3c0-1.4,0.3-2.7,0.8-3.8c0.6-1.1,1.3-2,2.3-2.6
		c1-0.6,2.1-0.9,3.4-0.9c1.8,0,3.3,0.6,4.3,1.8s1.6,2.8,1.6,4.8c0,0.4-0.1,0.7-0.2,0.8c-0.2,0.2-0.4,0.3-0.7,0.3h-9.2
		c0.2,3.3,1.7,4.9,4.7,4.9c0.7,0,1.4-0.1,1.9-0.3c0.5-0.2,1.1-0.5,1.7-0.8c0.5-0.3,0.8-0.4,1-0.4C251,257.2,251.2,257.3,251.3,257.5
		z M242.8,249.1c-0.7,0.8-1.2,1.8-1.3,3.2h8.1c0-1.4-0.4-2.5-1.1-3.3c-0.7-0.8-1.6-1.1-2.8-1.1C244.5,248,243.6,248.4,242.8,249.1z"
		/>
	<path id="XMLID_60_" class="st1" d="M267.1,251.7v7.8c0,0.4-0.1,0.6-0.3,0.8c-0.2,0.2-0.5,0.3-0.8,0.3c-0.4,0-0.7-0.1-0.9-0.3
		c-0.2-0.2-0.3-0.5-0.3-0.8v-7.6c0-1.3-0.3-2.2-0.8-2.8c-0.5-0.6-1.3-0.9-2.4-0.9c-1.3,0-2.3,0.4-3.1,1.2c-0.8,0.8-1.1,1.8-1.1,3.2
		v7c0,0.4-0.1,0.6-0.3,0.8c-0.2,0.2-0.5,0.3-0.8,0.3s-0.6-0.1-0.9-0.3c-0.2-0.2-0.3-0.5-0.3-0.8v-12.1c0-0.3,0.1-0.6,0.3-0.8
		c0.2-0.2,0.5-0.3,0.9-0.3c0.3,0,0.6,0.1,0.8,0.3c0.2,0.2,0.3,0.5,0.3,0.8v1.5c0.5-0.9,1.1-1.5,1.9-2c0.8-0.4,1.8-0.7,2.8-0.7
		C265.5,246.2,267.1,248,267.1,251.7z"/>
	<path id="XMLID_62_" class="st1" d="M278.8,259.7c0,0.3-0.1,0.6-0.4,0.7c-0.2,0.2-0.6,0.2-1.1,0.2l-0.8-0.1
		c-1.5-0.1-2.7-0.6-3.4-1.4c-0.7-0.8-1.1-2-1.1-3.6v-7.2h-1.9c-0.3,0-0.6-0.1-0.8-0.2c-0.2-0.2-0.3-0.4-0.3-0.6
		c0-0.3,0.1-0.5,0.3-0.7c0.2-0.2,0.4-0.3,0.8-0.3h1.9v-3.2c0-0.4,0.1-0.6,0.3-0.8c0.2-0.2,0.5-0.3,0.9-0.3c0.3,0,0.6,0.1,0.8,0.3
		c0.2,0.2,0.3,0.5,0.3,0.8v3.2h3.2c0.3,0,0.5,0.1,0.7,0.3c0.2,0.2,0.3,0.4,0.3,0.7c0,0.3-0.1,0.5-0.3,0.6c-0.2,0.2-0.4,0.2-0.7,0.2
		h-3.2v7.3c0,1.1,0.2,1.8,0.6,2.3c0.4,0.5,1.1,0.7,1.9,0.8l0.8,0.1C278.5,258.8,278.8,259.2,278.8,259.7z"/>
	<path id="XMLID_64_" class="st1" d="M290.7,260.4c-0.8-0.2-1.5-0.5-2.1-0.9c-0.3-0.2-0.6-0.4-0.7-0.6c-0.1-0.2-0.2-0.4-0.2-0.7
		c0-0.2,0.1-0.5,0.2-0.6c0.1-0.2,0.3-0.2,0.6-0.2s0.6,0.1,1,0.4c0.6,0.3,1.1,0.6,1.7,0.8s1.3,0.3,2.1,0.3c1,0,1.8-0.2,2.4-0.5
		c0.6-0.4,0.9-0.9,0.9-1.6c0-0.4-0.1-0.8-0.3-1c-0.2-0.3-0.6-0.5-1.1-0.7c-0.5-0.2-1.3-0.4-2.3-0.6c-1.7-0.4-2.9-0.8-3.6-1.5
		s-1.1-1.4-1.1-2.5c0-0.8,0.2-1.5,0.7-2.2s1.1-1.1,1.9-1.5c0.8-0.4,1.7-0.5,2.8-0.5c0.7,0,1.5,0.1,2.2,0.3c0.7,0.2,1.3,0.5,1.9,0.8
		c0.6,0.5,1,0.9,1,1.4c0,0.2-0.1,0.5-0.2,0.6c-0.2,0.2-0.3,0.3-0.5,0.3c-0.2,0-0.6-0.2-1-0.5c-0.5-0.3-1-0.6-1.5-0.8
		s-1.1-0.3-1.8-0.3c-0.9,0-1.6,0.2-2.2,0.6s-0.8,0.9-0.8,1.6c0,0.4,0.1,0.8,0.3,1s0.5,0.5,1,0.7c0.5,0.2,1.1,0.4,2,0.6
		c1.3,0.3,2.3,0.6,3,0.9c0.7,0.3,1.2,0.8,1.5,1.3s0.5,1.1,0.5,1.9c0,1.2-0.5,2.2-1.5,2.9c-1,0.7-2.4,1.1-4,1.1
		C292.4,260.7,291.5,260.6,290.7,260.4z"/>
	<path id="XMLID_66_" class="st1" d="M313.7,257.5c0.2,0.2,0.2,0.4,0.2,0.7c0,0.5-0.3,0.9-1,1.3c-0.7,0.4-1.4,0.7-2.2,0.9
		c-0.8,0.2-1.5,0.3-2.2,0.3c-2.2,0-3.9-0.6-5.1-1.9c-1.3-1.3-1.9-3-1.9-5.3c0-1.4,0.3-2.7,0.8-3.8s1.3-2,2.3-2.6
		c1-0.6,2.1-0.9,3.4-0.9c1.8,0,3.3,0.6,4.3,1.8c1.1,1.2,1.6,2.8,1.6,4.8c0,0.4-0.1,0.7-0.2,0.8c-0.2,0.2-0.4,0.3-0.7,0.3h-9.2
		c0.2,3.3,1.7,4.9,4.7,4.9c0.7,0,1.4-0.1,1.9-0.3s1.1-0.5,1.7-0.8c0.5-0.3,0.8-0.4,1-0.4C313.3,257.2,313.5,257.3,313.7,257.5z
		 M305.2,249.1c-0.7,0.8-1.2,1.8-1.3,3.2h8.1c0-1.4-0.4-2.5-1.1-3.3c-0.7-0.8-1.6-1.1-2.8-1.1C306.9,248,305.9,248.4,305.2,249.1z"
		/>
	<path id="XMLID_69_" class="st1" d="M317.7,260.3c-0.2-0.2-0.3-0.5-0.3-0.8v-18.2c0-0.4,0.1-0.6,0.3-0.8c0.2-0.2,0.5-0.3,0.8-0.3
		c0.3,0,0.6,0.1,0.8,0.3c0.2,0.2,0.3,0.5,0.3,0.8v18.2c0,0.4-0.1,0.6-0.3,0.8c-0.2,0.2-0.5,0.3-0.8,0.3
		C318.2,260.6,318,260.5,317.7,260.3z"/>
	<path id="XMLID_71_" class="st1" d="M324.4,260.3c-0.2-0.2-0.3-0.5-0.3-0.8v-18.2c0-0.4,0.1-0.6,0.3-0.8c0.2-0.2,0.5-0.3,0.8-0.3
		c0.3,0,0.6,0.1,0.8,0.3c0.2,0.2,0.3,0.5,0.3,0.8v18.2c0,0.4-0.1,0.6-0.3,0.8c-0.2,0.2-0.5,0.3-0.8,0.3
		C324.9,260.6,324.6,260.5,324.4,260.3z"/>
	<path id="XMLID_73_" class="st1" d="M342.1,257.5c0.2,0.2,0.2,0.4,0.2,0.7c0,0.5-0.3,0.9-1,1.3c-0.7,0.4-1.4,0.7-2.2,0.9
		c-0.8,0.2-1.5,0.3-2.2,0.3c-2.2,0-3.9-0.6-5.1-1.9c-1.3-1.3-1.9-3-1.9-5.3c0-1.4,0.3-2.7,0.8-3.8c0.6-1.1,1.3-2,2.3-2.6
		c1-0.6,2.1-0.9,3.4-0.9c1.8,0,3.3,0.6,4.3,1.8c1.1,1.2,1.6,2.8,1.6,4.8c0,0.4-0.1,0.7-0.2,0.8s-0.4,0.3-0.7,0.3h-9.2
		c0.2,3.3,1.7,4.9,4.7,4.9c0.7,0,1.4-0.1,1.9-0.3s1.1-0.5,1.7-0.8c0.5-0.3,0.8-0.4,1-0.4C341.7,257.2,341.9,257.3,342.1,257.5z
		 M333.6,249.1c-0.7,0.8-1.2,1.8-1.3,3.2h8.1c0-1.4-0.4-2.5-1.1-3.3c-0.7-0.8-1.6-1.1-2.8-1.1C335.3,248,334.3,248.4,333.6,249.1z"
		/>
	<path id="XMLID_76_" class="st1" d="M353.9,247.2c0,0.3-0.1,0.5-0.3,0.7s-0.5,0.3-0.9,0.3l-0.9,0.1c-1.3,0.1-2.2,0.6-2.9,1.4
		c-0.6,0.8-0.9,1.7-0.9,2.8v7c0,0.4-0.1,0.7-0.3,0.9c-0.2,0.2-0.5,0.3-0.8,0.3c-0.3,0-0.6-0.1-0.8-0.3c-0.2-0.2-0.3-0.5-0.3-0.8
		v-12.1c0-0.4,0.1-0.6,0.3-0.8s0.5-0.3,0.8-0.3c0.3,0,0.6,0.1,0.8,0.3c0.2,0.2,0.3,0.5,0.3,0.8v1.6c0.4-0.8,1-1.5,1.7-1.9
		c0.7-0.4,1.6-0.7,2.5-0.8l0.4,0C353.5,246.2,353.9,246.5,353.9,247.2z"/>
	<path id="XMLID_78_" class="st1" d="M358,260.4c-0.8-0.2-1.5-0.5-2.1-0.9c-0.3-0.2-0.6-0.4-0.7-0.6c-0.1-0.2-0.2-0.4-0.2-0.7
		c0-0.2,0.1-0.5,0.2-0.6c0.1-0.2,0.3-0.2,0.6-0.2s0.6,0.1,1,0.4c0.6,0.3,1.1,0.6,1.7,0.8c0.6,0.2,1.3,0.3,2.1,0.3
		c1,0,1.8-0.2,2.4-0.5c0.6-0.4,0.9-0.9,0.9-1.6c0-0.4-0.1-0.8-0.3-1c-0.2-0.3-0.6-0.5-1.1-0.7c-0.5-0.2-1.3-0.4-2.3-0.6
		c-1.7-0.4-2.9-0.8-3.6-1.5c-0.7-0.6-1.1-1.4-1.1-2.5c0-0.8,0.2-1.5,0.7-2.2c0.5-0.6,1.1-1.1,1.9-1.5s1.7-0.5,2.8-0.5
		c0.7,0,1.5,0.1,2.2,0.3c0.7,0.2,1.3,0.5,1.8,0.8c0.6,0.5,1,0.9,1,1.4c0,0.2-0.1,0.5-0.2,0.6s-0.3,0.3-0.5,0.3c-0.2,0-0.6-0.2-1-0.5
		c-0.5-0.3-1-0.6-1.5-0.8c-0.5-0.2-1.1-0.3-1.8-0.3c-0.9,0-1.6,0.2-2.2,0.6s-0.8,0.9-0.8,1.6c0,0.4,0.1,0.8,0.3,1
		c0.2,0.3,0.5,0.5,1,0.7c0.5,0.2,1.1,0.4,2,0.6c1.3,0.3,2.3,0.6,3,0.9c0.7,0.3,1.2,0.8,1.5,1.3c0.3,0.5,0.5,1.1,0.5,1.9
		c0,1.2-0.5,2.2-1.5,2.9s-2.4,1.1-4,1.1C359.6,260.7,358.8,260.6,358,260.4z"/>
	<path id="XMLID_80_" class="st1" d="M397,246.3c0.3,0,0.5,0.1,0.8,0.3c0.2,0.2,0.3,0.4,0.3,0.7c0,0.1,0,0.3-0.1,0.4l-4.8,12
		c-0.1,0.2-0.3,0.4-0.5,0.6s-0.5,0.2-0.7,0.2c-0.2,0-0.5-0.1-0.7-0.2s-0.4-0.3-0.5-0.6l-4-10.1l-3.9,10.1c-0.1,0.2-0.3,0.4-0.5,0.6
		s-0.5,0.2-0.7,0.2c-0.2,0-0.5-0.1-0.7-0.2s-0.4-0.3-0.5-0.6l-4.8-12c-0.1-0.2-0.1-0.3-0.1-0.4c0-0.3,0.1-0.6,0.4-0.8
		c0.3-0.2,0.5-0.3,0.8-0.3c0.5,0,0.8,0.2,1,0.7l3.9,10.6l4-10.5c0.1-0.2,0.3-0.4,0.5-0.6c0.2-0.1,0.4-0.2,0.6-0.2
		c0.2,0,0.5,0.1,0.7,0.2c0.2,0.1,0.3,0.3,0.4,0.6l4,10.5l4-10.5C396.3,246.5,396.6,246.3,397,246.3z"/>
	<path id="XMLID_82_" class="st1" d="M401.2,242.8c-0.3-0.3-0.4-0.6-0.4-1.1c0-0.4,0.1-0.8,0.4-1c0.3-0.3,0.7-0.4,1.1-0.4
		c0.5,0,0.8,0.1,1.1,0.4c0.3,0.3,0.4,0.6,0.4,1c0,0.4-0.1,0.8-0.4,1.1s-0.7,0.4-1.1,0.4C401.8,243.2,401.5,243.1,401.2,242.8z
		 M401.5,260.3c-0.2-0.2-0.3-0.5-0.3-0.8v-12.1c0-0.4,0.1-0.6,0.3-0.8s0.5-0.3,0.8-0.3c0.3,0,0.6,0.1,0.8,0.3s0.3,0.5,0.3,0.8v12.1
		c0,0.4-0.1,0.7-0.3,0.9c-0.2,0.2-0.5,0.3-0.8,0.3C402,260.6,401.7,260.5,401.5,260.3z"/>
	<path id="XMLID_85_" class="st1" d="M415.2,259.7c0,0.3-0.1,0.6-0.4,0.7c-0.2,0.2-0.6,0.2-1.1,0.2l-0.8-0.1
		c-1.5-0.1-2.7-0.6-3.4-1.4c-0.7-0.8-1.1-2-1.1-3.6v-7.2h-1.9c-0.3,0-0.6-0.1-0.8-0.2c-0.2-0.2-0.3-0.4-0.3-0.6
		c0-0.3,0.1-0.5,0.3-0.7c0.2-0.2,0.4-0.3,0.8-0.3h1.9v-3.2c0-0.4,0.1-0.6,0.3-0.8c0.2-0.2,0.5-0.3,0.9-0.3c0.3,0,0.6,0.1,0.8,0.3
		c0.2,0.2,0.3,0.5,0.3,0.8v3.2h3.2c0.3,0,0.5,0.1,0.7,0.3c0.2,0.2,0.3,0.4,0.3,0.7c0,0.3-0.1,0.5-0.3,0.6c-0.2,0.2-0.4,0.2-0.7,0.2
		h-3.2v7.3c0,1.1,0.2,1.8,0.6,2.3c0.4,0.5,1.1,0.7,1.9,0.8l0.8,0.1C414.9,258.8,415.2,259.2,415.2,259.7z"/>
	<path id="XMLID_87_" class="st1" d="M428.3,247.6c0.8,0.9,1.3,2.3,1.3,4.1v7.8c0,0.4-0.1,0.6-0.3,0.8c-0.2,0.2-0.5,0.3-0.8,0.3
		c-0.4,0-0.7-0.1-0.9-0.3c-0.2-0.2-0.3-0.5-0.3-0.8v-7.7c0-1.2-0.3-2.2-0.8-2.8c-0.5-0.6-1.3-0.9-2.4-0.9c-1.3,0-2.3,0.4-3.1,1.2
		s-1.1,1.8-1.1,3.2v7c0,0.4-0.1,0.6-0.3,0.8c-0.2,0.2-0.5,0.3-0.8,0.3c-0.4,0-0.7-0.1-0.9-0.3c-0.2-0.2-0.3-0.5-0.3-0.8v-18.2
		c0-0.3,0.1-0.6,0.3-0.8c0.2-0.2,0.5-0.3,0.8-0.3c0.4,0,0.6,0.1,0.8,0.3c0.2,0.2,0.3,0.5,0.3,0.8v7.5c0.5-0.8,1.1-1.5,1.9-1.9
		c0.8-0.4,1.8-0.7,2.8-0.7C426.2,246.2,427.5,246.6,428.3,247.6z"/>
	<path id="XMLID_89_" class="st1" d="M448.7,259.7c0,0.3-0.1,0.6-0.4,0.7c-0.2,0.2-0.6,0.2-1.1,0.2l-0.8-0.1
		c-1.5-0.1-2.7-0.6-3.4-1.4c-0.7-0.8-1.1-2-1.1-3.6v-7.2h-1.9c-0.3,0-0.6-0.1-0.8-0.2c-0.2-0.2-0.3-0.4-0.3-0.6
		c0-0.3,0.1-0.5,0.3-0.7c0.2-0.2,0.4-0.3,0.8-0.3h1.9v-3.2c0-0.4,0.1-0.6,0.3-0.8c0.2-0.2,0.5-0.3,0.9-0.3c0.3,0,0.6,0.1,0.8,0.3
		c0.2,0.2,0.3,0.5,0.3,0.8v3.2h3.2c0.3,0,0.5,0.1,0.7,0.3c0.2,0.2,0.3,0.4,0.3,0.7c0,0.3-0.1,0.5-0.3,0.6c-0.2,0.2-0.4,0.2-0.7,0.2
		h-3.2v7.3c0,1.1,0.2,1.8,0.6,2.3c0.4,0.5,1.1,0.7,1.9,0.8l0.8,0.1C448.3,258.8,448.7,259.2,448.7,259.7z"/>
	<path id="XMLID_91_" class="st1" d="M461.8,247.6c0.8,0.9,1.3,2.3,1.3,4.1v7.8c0,0.4-0.1,0.6-0.3,0.8c-0.2,0.2-0.5,0.3-0.8,0.3
		c-0.4,0-0.7-0.1-0.9-0.3c-0.2-0.2-0.3-0.5-0.3-0.8v-7.7c0-1.2-0.3-2.2-0.8-2.8c-0.5-0.6-1.3-0.9-2.4-0.9c-1.3,0-2.3,0.4-3.1,1.2
		s-1.1,1.8-1.1,3.2v7c0,0.4-0.1,0.6-0.3,0.8c-0.2,0.2-0.5,0.3-0.8,0.3c-0.4,0-0.7-0.1-0.9-0.3c-0.2-0.2-0.3-0.5-0.3-0.8v-18.2
		c0-0.3,0.1-0.6,0.3-0.8c0.2-0.2,0.5-0.3,0.8-0.3c0.4,0,0.6,0.1,0.8,0.3c0.2,0.2,0.3,0.5,0.3,0.8v7.5c0.5-0.8,1.1-1.5,1.9-1.9
		c0.8-0.4,1.8-0.7,2.8-0.7C459.7,246.2,460.9,246.6,461.8,247.6z"/>
	<path id="XMLID_93_" class="st1" d="M478.6,257.5c0.2,0.2,0.2,0.4,0.2,0.7c0,0.5-0.3,0.9-1,1.3c-0.7,0.4-1.4,0.7-2.2,0.9
		c-0.8,0.2-1.5,0.3-2.2,0.3c-2.2,0-3.9-0.6-5.1-1.9c-1.3-1.3-1.9-3-1.9-5.3c0-1.4,0.3-2.7,0.8-3.8c0.6-1.1,1.3-2,2.3-2.6
		c1-0.6,2.1-0.9,3.4-0.9c1.8,0,3.3,0.6,4.3,1.8c1.1,1.2,1.6,2.8,1.6,4.8c0,0.4-0.1,0.7-0.2,0.8s-0.4,0.3-0.7,0.3h-9.2
		c0.2,3.3,1.7,4.9,4.7,4.9c0.7,0,1.4-0.1,1.9-0.3s1.1-0.5,1.7-0.8c0.5-0.3,0.8-0.4,1-0.4C478.3,257.2,478.5,257.3,478.6,257.5z
		 M470.1,249.1c-0.7,0.8-1.2,1.8-1.3,3.2h8.1c0-1.4-0.4-2.5-1.1-3.3c-0.7-0.8-1.6-1.1-2.8-1.1C471.8,248,470.8,248.4,470.1,249.1z"
		/>
	<path id="XMLID_96_" class="st1" d="M492,260.4c-0.8-0.2-1.5-0.5-2.1-0.9c-0.3-0.2-0.6-0.4-0.7-0.6c-0.1-0.2-0.2-0.4-0.2-0.7
		c0-0.2,0.1-0.5,0.2-0.6c0.1-0.2,0.3-0.2,0.6-0.2s0.6,0.1,1,0.4c0.6,0.3,1.1,0.6,1.7,0.8c0.6,0.2,1.3,0.3,2.1,0.3
		c1,0,1.8-0.2,2.4-0.5c0.6-0.4,0.9-0.9,0.9-1.6c0-0.4-0.1-0.8-0.3-1c-0.2-0.3-0.6-0.5-1.1-0.7c-0.5-0.2-1.3-0.4-2.3-0.6
		c-1.7-0.4-2.9-0.8-3.6-1.5c-0.7-0.6-1.1-1.4-1.1-2.5c0-0.8,0.2-1.5,0.7-2.2c0.5-0.6,1.1-1.1,1.9-1.5s1.7-0.5,2.8-0.5
		c0.7,0,1.5,0.1,2.2,0.3c0.7,0.2,1.3,0.5,1.8,0.8c0.6,0.5,1,0.9,1,1.4c0,0.2-0.1,0.5-0.2,0.6s-0.3,0.3-0.5,0.3c-0.2,0-0.6-0.2-1-0.5
		c-0.5-0.3-1-0.6-1.5-0.8c-0.5-0.2-1.1-0.3-1.8-0.3c-0.9,0-1.6,0.2-2.2,0.6s-0.8,0.9-0.8,1.6c0,0.4,0.1,0.8,0.3,1
		c0.2,0.3,0.5,0.5,1,0.7c0.5,0.2,1.1,0.4,2,0.6c1.3,0.3,2.3,0.6,3,0.9c0.7,0.3,1.2,0.8,1.5,1.3c0.3,0.5,0.5,1.1,0.5,1.9
		c0,1.2-0.5,2.2-1.5,2.9s-2.4,1.1-4,1.1C493.6,260.7,492.8,260.6,492,260.4z"/>
	<path id="XMLID_98_" class="st1" d="M510.8,259.7c0,0.3-0.1,0.6-0.4,0.7c-0.2,0.2-0.6,0.2-1.1,0.2l-0.8-0.1
		c-1.5-0.1-2.7-0.6-3.4-1.4c-0.7-0.8-1.1-2-1.1-3.6v-7.2h-1.9c-0.3,0-0.6-0.1-0.8-0.2c-0.2-0.2-0.3-0.4-0.3-0.6
		c0-0.3,0.1-0.5,0.3-0.7c0.2-0.2,0.4-0.3,0.8-0.3h1.9v-3.2c0-0.4,0.1-0.6,0.3-0.8c0.2-0.2,0.5-0.3,0.9-0.3c0.3,0,0.6,0.1,0.8,0.3
		c0.2,0.2,0.3,0.5,0.3,0.8v3.2h3.2c0.3,0,0.5,0.1,0.7,0.3c0.2,0.2,0.3,0.4,0.3,0.7c0,0.3-0.1,0.5-0.3,0.6c-0.2,0.2-0.4,0.2-0.7,0.2
		h-3.2v7.3c0,1.1,0.2,1.8,0.6,2.3c0.4,0.5,1.1,0.7,1.9,0.8l0.8,0.1C510.5,258.8,510.8,259.2,510.8,259.7z"/>
	<path id="XMLID_100_" class="st1" d="M524.4,246.3c0.3,0,0.5,0.1,0.8,0.3s0.3,0.4,0.3,0.7c0,0.2,0,0.3-0.1,0.5l-8.1,17.4
		c-0.1,0.2-0.2,0.4-0.4,0.5c-0.2,0.1-0.4,0.2-0.6,0.2c-0.3,0-0.5-0.1-0.8-0.3c-0.2-0.2-0.3-0.4-0.3-0.7c0-0.2,0-0.3,0.1-0.5l2-4.3
		l-5.7-12.3c-0.1-0.1-0.1-0.3-0.1-0.4c0-0.3,0.1-0.5,0.4-0.7c0.3-0.2,0.5-0.3,0.8-0.3c0.2,0,0.4,0.1,0.6,0.2
		c0.2,0.1,0.3,0.3,0.4,0.5l4.8,10.8l4.8-10.7C523.6,246.5,523.9,246.3,524.4,246.3z"/>
	<path id="XMLID_102_" class="st1" d="M528.4,260.3c-0.2-0.2-0.3-0.5-0.3-0.8v-18.2c0-0.4,0.1-0.6,0.3-0.8c0.2-0.2,0.5-0.3,0.8-0.3
		c0.3,0,0.6,0.1,0.8,0.3c0.2,0.2,0.3,0.5,0.3,0.8v18.2c0,0.4-0.1,0.6-0.3,0.8c-0.2,0.2-0.5,0.3-0.8,0.3
		C528.9,260.6,528.6,260.5,528.4,260.3z"/>
	<path id="XMLID_104_" class="st1" d="M546.1,257.5c0.2,0.2,0.2,0.4,0.2,0.7c0,0.5-0.3,0.9-1,1.3c-0.7,0.4-1.4,0.7-2.2,0.9
		c-0.8,0.2-1.5,0.3-2.2,0.3c-2.2,0-3.9-0.6-5.1-1.9c-1.3-1.3-1.9-3-1.9-5.3c0-1.4,0.3-2.7,0.8-3.8c0.6-1.1,1.3-2,2.3-2.6
		c1-0.6,2.1-0.9,3.4-0.9c1.8,0,3.3,0.6,4.3,1.8c1.1,1.2,1.6,2.8,1.6,4.8c0,0.4-0.1,0.7-0.2,0.8s-0.4,0.3-0.7,0.3h-9.2
		c0.2,3.3,1.7,4.9,4.7,4.9c0.7,0,1.4-0.1,1.9-0.3s1.1-0.5,1.7-0.8c0.5-0.3,0.8-0.4,1-0.4C545.7,257.2,545.9,257.3,546.1,257.5z
		 M537.6,249.1c-0.7,0.8-1.2,1.8-1.3,3.2h8.1c0-1.4-0.4-2.5-1.1-3.3c-0.7-0.8-1.6-1.1-2.8-1.1C539.3,248,538.3,248.4,537.6,249.1z"
		/>
	<path id="XMLID_107_" class="st1" d="M552,260.4c-0.8-0.2-1.5-0.5-2.1-0.9c-0.3-0.2-0.6-0.4-0.7-0.6c-0.1-0.2-0.2-0.4-0.2-0.7
		c0-0.2,0.1-0.5,0.2-0.6c0.1-0.2,0.3-0.2,0.6-0.2s0.6,0.1,1,0.4c0.6,0.3,1.1,0.6,1.7,0.8c0.6,0.2,1.3,0.3,2.1,0.3
		c1,0,1.8-0.2,2.4-0.5c0.6-0.4,0.9-0.9,0.9-1.6c0-0.4-0.1-0.8-0.3-1c-0.2-0.3-0.6-0.5-1.1-0.7c-0.5-0.2-1.3-0.4-2.3-0.6
		c-1.7-0.4-2.9-0.8-3.6-1.5c-0.7-0.6-1.1-1.4-1.1-2.5c0-0.8,0.2-1.5,0.7-2.2c0.5-0.6,1.1-1.1,1.9-1.5s1.7-0.5,2.8-0.5
		c0.7,0,1.5,0.1,2.2,0.3c0.7,0.2,1.3,0.5,1.8,0.8c0.6,0.5,1,0.9,1,1.4c0,0.2-0.1,0.5-0.2,0.6s-0.3,0.3-0.5,0.3c-0.2,0-0.6-0.2-1-0.5
		c-0.5-0.3-1-0.6-1.5-0.8c-0.5-0.2-1.1-0.3-1.8-0.3c-0.9,0-1.6,0.2-2.2,0.6s-0.8,0.9-0.8,1.6c0,0.4,0.1,0.8,0.3,1
		c0.2,0.3,0.5,0.5,1,0.7c0.5,0.2,1.1,0.4,2,0.6c1.3,0.3,2.3,0.6,3,0.9c0.7,0.3,1.2,0.8,1.5,1.3c0.3,0.5,0.5,1.1,0.5,1.9
		c0,1.2-0.5,2.2-1.5,2.9s-2.4,1.1-4,1.1C553.6,260.7,552.8,260.6,552,260.4z"/>
	<path id="XMLID_109_" class="st1" d="M582.1,246.3c0.3,0,0.5,0.1,0.8,0.3s0.3,0.4,0.3,0.7c0,0.2,0,0.3-0.1,0.5l-8.1,17.4
		c-0.1,0.2-0.2,0.4-0.4,0.5c-0.2,0.1-0.4,0.2-0.6,0.2c-0.3,0-0.5-0.1-0.8-0.3c-0.2-0.2-0.3-0.4-0.3-0.7c0-0.2,0-0.3,0.1-0.5l2-4.3
		l-5.7-12.3c-0.1-0.1-0.1-0.3-0.1-0.4c0-0.3,0.1-0.5,0.4-0.7c0.3-0.2,0.5-0.3,0.8-0.3c0.2,0,0.4,0.1,0.6,0.2
		c0.2,0.1,0.3,0.3,0.4,0.5l4.8,10.8l4.8-10.7C581.3,246.5,581.6,246.3,582.1,246.3z"/>
	<path id="XMLID_111_" class="st1" d="M587.9,259.8c-1-0.6-1.8-1.4-2.3-2.5c-0.5-1.1-0.8-2.4-0.8-3.8s0.3-2.7,0.8-3.8
		c0.5-1.1,1.3-1.9,2.3-2.5c1-0.6,2.2-0.9,3.5-0.9s2.5,0.3,3.5,0.9c1,0.6,1.8,1.4,2.3,2.5c0.5,1.1,0.8,2.4,0.8,3.8s-0.3,2.7-0.8,3.8
		c-0.5,1.1-1.3,1.9-2.3,2.5c-1,0.6-2.2,0.9-3.5,0.9S588.9,260.4,587.9,259.8z M594.5,257.4c0.7-0.9,1.1-2.2,1.1-4
		c0-1.7-0.4-3-1.1-3.9c-0.7-0.9-1.8-1.4-3.2-1.4c-1.4,0-2.4,0.5-3.2,1.4c-0.7,0.9-1.1,2.2-1.1,3.9c0,1.7,0.4,3,1.1,4
		c0.7,0.9,1.8,1.4,3.2,1.4C592.7,258.8,593.8,258.3,594.5,257.4z"/>
	<path id="XMLID_114_" class="st1" d="M612.9,246.5c0.2,0.2,0.3,0.5,0.3,0.8v12.1c0,0.3-0.1,0.6-0.3,0.8c-0.2,0.2-0.5,0.3-0.8,0.3
		c-0.3,0-0.6-0.1-0.8-0.3c-0.2-0.2-0.3-0.5-0.3-0.8v-1.4c-0.4,0.8-1.1,1.5-1.8,1.9c-0.8,0.4-1.7,0.7-2.7,0.7c-1.7,0-2.9-0.5-3.8-1.4
		c-0.8-0.9-1.3-2.3-1.3-4.1v-7.8c0-0.3,0.1-0.6,0.3-0.8c0.2-0.2,0.5-0.3,0.9-0.3s0.6,0.1,0.8,0.3c0.2,0.2,0.3,0.5,0.3,0.8v7.7
		c0,1.2,0.2,2.2,0.7,2.7s1.3,0.9,2.4,0.9c1.2,0,2.2-0.4,3-1.2c0.7-0.8,1.1-1.8,1.1-3.1v-7c0-0.3,0.1-0.6,0.3-0.8
		c0.2-0.2,0.5-0.3,0.9-0.3S612.7,246.3,612.9,246.5z"/>
	<path id="XMLID_116_" class="st1" d="M625.3,260.3c-0.2-0.2-0.3-0.5-0.3-0.8v-18.2c0-0.4,0.1-0.6,0.3-0.8c0.2-0.2,0.5-0.3,0.8-0.3
		c0.3,0,0.6,0.1,0.8,0.3c0.2,0.2,0.3,0.5,0.3,0.8v18.2c0,0.4-0.1,0.6-0.3,0.8c-0.2,0.2-0.5,0.3-0.8,0.3
		C625.8,260.6,625.5,260.5,625.3,260.3z"/>
	<path id="XMLID_118_" class="st1" d="M633.9,259.8c-1-0.6-1.8-1.4-2.3-2.5c-0.5-1.1-0.8-2.4-0.8-3.8s0.3-2.7,0.8-3.8
		c0.5-1.1,1.3-1.9,2.3-2.5c1-0.6,2.2-0.9,3.5-0.9s2.5,0.3,3.5,0.9c1,0.6,1.8,1.4,2.3,2.5c0.5,1.1,0.8,2.4,0.8,3.8s-0.3,2.7-0.8,3.8
		c-0.5,1.1-1.3,1.9-2.3,2.5c-1,0.6-2.2,0.9-3.5,0.9S634.9,260.4,633.9,259.8z M640.6,257.4c0.7-0.9,1.1-2.2,1.1-4
		c0-1.7-0.4-3-1.1-3.9c-0.7-0.9-1.8-1.4-3.2-1.4c-1.4,0-2.4,0.5-3.2,1.4c-0.7,0.9-1.1,2.2-1.1,3.9c0,1.7,0.4,3,1.1,4
		c0.7,0.9,1.8,1.4,3.2,1.4C638.8,258.8,639.8,258.3,640.6,257.4z"/>
	<path id="XMLID_121_" class="st1" d="M658.4,246.3c0.3,0,0.5,0.1,0.8,0.3s0.3,0.4,0.3,0.7c0,0.2,0,0.3-0.1,0.5l-5.6,12
		c-0.1,0.2-0.3,0.4-0.5,0.6s-0.5,0.2-0.7,0.2c-0.2,0-0.5-0.1-0.7-0.2s-0.4-0.3-0.5-0.6l-5.6-12c-0.1-0.1-0.1-0.3-0.1-0.4
		c0-0.3,0.1-0.5,0.4-0.7c0.3-0.2,0.5-0.3,0.8-0.3c0.2,0,0.4,0.1,0.6,0.2c0.2,0.1,0.3,0.3,0.4,0.5l4.8,10.8l4.8-10.7
		C657.6,246.5,658,246.3,658.4,246.3z"/>
	<path id="XMLID_123_" class="st1" d="M673.3,257.5c0.2,0.2,0.2,0.4,0.2,0.7c0,0.5-0.3,0.9-1,1.3c-0.7,0.4-1.4,0.7-2.2,0.9
		c-0.8,0.2-1.5,0.3-2.2,0.3c-2.2,0-3.9-0.6-5.1-1.9c-1.3-1.3-1.9-3-1.9-5.3c0-1.4,0.3-2.7,0.8-3.8c0.6-1.1,1.3-2,2.3-2.6
		c1-0.6,2.1-0.9,3.4-0.9c1.8,0,3.3,0.6,4.3,1.8c1.1,1.2,1.6,2.8,1.6,4.8c0,0.4-0.1,0.7-0.2,0.8s-0.4,0.3-0.7,0.3h-9.2
		c0.2,3.3,1.7,4.9,4.7,4.9c0.7,0,1.4-0.1,1.9-0.3s1.1-0.5,1.7-0.8c0.5-0.3,0.8-0.4,1-0.4C672.9,257.2,673.1,257.3,673.3,257.5z
		 M664.8,249.1c-0.7,0.8-1.2,1.8-1.3,3.2h8.1c0-1.4-0.4-2.5-1.1-3.3c-0.7-0.8-1.6-1.1-2.8-1.1C666.5,248,665.5,248.4,664.8,249.1z"
		/>
</g>
</svg>
