<?xml version="1.0" encoding="utf-8"?>
<!-- Generator: Adobe Illustrator 19.0.0, SVG Export Plug-In . SVG Version: 6.00 Build 0)  -->
<svg version="1.1" id="Layer_1" xmlns="http://www.w3.org/2000/svg" xmlns:xlink="http://www.w3.org/1999/xlink" x="0px" y="0px"
	 viewBox="-195 -13.1 568.9 587.1" style="enable-background:new -195 -13.1 568.9 587.1;" xml:space="preserve">
<style type="text/css">
	.st0{fill:#5858A3;}
	.st1{fill:none;stroke:#3CDDBE;stroke-width:14;stroke-linecap:round;stroke-miterlimit:10;}
	.st2{fill:#3CDDBE;}
	.st3{fill:#373756;}
	.st4{fill:none;stroke:#DD5454;stroke-width:3;stroke-miterlimit:10;}
	.st5{fill:none;stroke:#DD5454;stroke-width:5;stroke-linecap:round;stroke-linejoin:round;stroke-miterlimit:10;}
	.st6{fill:#419E8C;}
	.st7{fill:none;stroke:#000000;stroke-miterlimit:10;}
	.st8{fill:#DD5454;}
	.st9{fill:#843A3A;}
</style>
<g id="Layer_1_1_">
	<g id="XMLID_2_">
	</g>
	<path id="XMLID_12_" class="st0" d="M88.9,453.3h-273.5l8.4-49c2-32,28.5-57,60.6-57H19.8c32.1,0,58.6,24.9,60.6,57L88.9,453.3z"/>
	<path id="XMLID_15_" class="st0" d="M363.6,453.3H90.1l8.4-49c2-32,28.5-57,60.6-57h135.4c32.1,0,58.6,24.9,60.6,57L363.6,453.3z"
		/>
	<circle id="XMLID_31_" class="st0" cx="-49.3" cy="242.4" r="84.2"/>
	<line id="XMLID_32_" class="st1" x1="-72" y1="147.7" x2="-26" y2="147.7"/>
	<line id="XMLID_36_" class="st1" x1="-65.3" y1="164.6" x2="-32.4" y2="131.7"/>
	<line id="XMLID_37_" class="st1" x1="-48" y1="171.7" x2="-48" y2="124.7"/>
	<line id="XMLID_38_" class="st1" x1="-31.5" y1="164.6" x2="-64.5" y2="131.7"/>
	<path id="XMLID_14_" class="st2" d="M-23.6,284.7c0,10-11.4,17.8-25.5,17.8s-25.5-7.8-25.5-17.8H-23.6z"/>
	<circle id="XMLID_21_" class="st0" cx="226.6" cy="242.4" r="84.2"/>
	<path id="XMLID_29_" class="st3" d="M-97.8,173.6c-21.6,15.2-35.8,40.4-35.8,68.9c0,46.5,37.7,84.2,84.2,84.2
		c8.8,0,17.3-1.4,25.2-3.9C-120.9,316.5-115.3,210.3-97.8,173.6z"/>
	<path id="XMLID_33_" class="st3" d="M178.1,173.6c-21.6,15.2-35.8,40.4-35.8,68.9c0,46.5,37.7,84.2,84.2,84.2
		c8.8,0,17.3-1.4,25.2-3.9C155,316.5,160.7,210.3,178.1,173.6z"/>
	<g id="XMLID_34_">
		<path id="XMLID_35_" class="st2" d="M-48.5,154.2c-36.9,0-68.1,22.5-78.6,54.5H30.2C19.6,176.7-11.7,154.2-48.5,154.2z"/>
	</g>
	<path id="XMLID_20_" class="st4" d="M239.8,253.6c3,0,5.4,2.4,5.4,5.4s-2.4,5.4-5.4,5.4s-5.4-2.4-5.4-5.4"/>
	<g id="XMLID_40_">
		<path id="XMLID_39_" class="st5" d="M199.8,295c2.9,4.7,8.1,8.2,14.1,8.2h25.3c5.9,0,11.1-3.6,14.1-8.3"/>
	</g>
	<path id="XMLID_27_" class="st3" d="M-184.7,453.4v0.3h29c-0.2-5-2.4-77.8,40.1-106c-2.2,0-4.3-0.1-6.4,0
		c-29.2,3-52.5,26.8-54.3,56.7L-184.7,453.4z"/>
	<path id="XMLID_25_" class="st3" d="M90,453.4v0.3h29c-0.2-5-2.4-77.8,40.1-106c-2.2,0-4.3-0.1-6.4,0c-29.2,3-52.5,26.8-54.3,56.7
		L90,453.4z"/>
	<path id="XMLID_30_" class="st2" d="M35.9,229.4c0,0-32.5-6-85-6s-85.4,6-85.4,6c-1.9,0-3.4-1.5-3.4-3.4l3.6-21.2
		c0-1.9,1.5-3.4,3.4-3.4c0,0,38.2-6,81.8-6s81.4,6,81.4,6c1.9,0,3.4,1.5,3.4,3.4l3.6,21.2C39.3,227.9,37.7,229.4,35.9,229.4z"/>
	<g id="XMLID_28_">
		<g id="XMLID_24_">
			<path id="XMLID_46_" class="st6" d="M-127.2,208.7h18.3c1.4-8,5.6-26.1,15.8-42.1C-109.1,176.3-121.3,190.7-127.2,208.7z"/>
			<path id="XMLID_47_" class="st6" d="M-93.1,166.5L-93.1,166.5L-93.1,166.5z"/>
			<path id="XMLID_48_" class="st6" d="M-108.1,208.7h-0.8c-0.4,2-0.6,3.9-0.6,3.9L-108.1,208.7z"/>
		</g>
		<g id="XMLID_41_">
			<path id="XMLID_45_" class="st6" d="M-97.4,197.6c-20.1,1.7-33.6,3.8-33.6,3.8c-1.9,0-3.4,1.5-3.4,3.4L-138,226
				c0,1.9,1.5,3.4,3.4,3.4c0,0,13-2.4,35.8-4.1C-100.2,218.6-101.4,207.5-97.4,197.6z"/>
		</g>
	</g>
</g>
<g id="hat">
	<path id="XMLID_53_" class="st7" d="M309.7,228.9"/>
	<path id="XMLID_52_" class="st8" d="M226.3,222.9c0,0,52.5,0.3,82.8,6c12.5-70.7-12.8-70.7-82.8-70.7s-95.4,0-82.8,70.7
		C173.8,223.2,226.3,222.9,226.3,222.9z"/>
	<path id="XMLID_51_" class="st9" d="M298.8,227.7L298.8,227.7c-45.3-12-117.8-7.7-146.8,0.2v-0.1c31-4.4,75.1-4.4,75.1-4.4
		S268.3,222.7,298.8,227.7z"/>
	<ellipse id="XMLID_16_" class="st8" cx="225.5" cy="157" rx="7.2" ry="2.8"/>
	<path id="XMLID_10_" class="st9" d="M308.1,228.7c-2.5-0.7-9.2-4.5-11.4-24.3c2.2,20.2-13.9,11.8-31.7,8.7
		c-16.2-2.8-20.1-3.7-38.9-3.7s-24.9,1.7-33.7,3.6c-45.4,10.1-40.9,0.5-30.2-49.9l0,0c-20.4,7-26.2,24.1-18.8,65.8
		c30.3-5.7,41.6-12,82.8-12S277.7,223.2,308.1,228.7z"/>
</g>
</svg>
