<?xml version="1.0" encoding="utf-8"?>
<!-- Generator: Adobe Illustrator 19.0.0, SVG Export Plug-In . SVG Version: 6.00 Build 0)  -->
<svg version="1.1" id="Layer_1" xmlns="http://www.w3.org/2000/svg" xmlns:xlink="http://www.w3.org/1999/xlink" x="0px" y="0px"
	 viewBox="0 0 167.6 185.2" style="enable-background:new 0 0 167.6 185.2;" xml:space="preserve">
<style type="text/css">
	.st0{fill:#EDDD4F;}
	.st1{fill:none;stroke:#EDDD4F;stroke-width:46;stroke-linecap:round;stroke-miterlimit:10;}
</style>
<g id="XMLID_2_">
	<path id="XMLID_63_" class="st0" d="M167.3,112.3c0,0,0,1,0.1,2.9c0,0.5,0,1,0.1,1.6c0,0.3,0,0.6,0,0.9c0,0.2,0,0.3,0,0.5l0,0.2
		l0,0.1l0,0.1l0,0l0,0.3c0,0.7,0,1.4,0,2.2c0,0.2,0,0.5,0,0.7c0,0.3,0,0.6,0,0.8c0,0.6,0,1.1-0.1,1.7c-0.3,4.4-1.1,9.6-2.8,15.3
		c-1.8,5.7-4.5,11.9-8.7,18c-4.1,6.1-9.7,12.3-17,17.4c-3.7,2.5-7.8,4.8-12.4,6.5c-4.6,1.7-9.6,2.9-14.8,3.3l-2,0.1l-1.5,0.1
		l-1.4,0.1l-0.4,0l-0.1,0c0.4,0-0.6,0-0.6,0l-0.2,0l-0.7,0l-1.4,0l-2.3-0.1c-1.6-0.1-2.9-0.3-4.2-0.4c-5.4-0.7-10.6-2.4-15.5-4.6
		c-4.9-2.2-9.4-5.1-13.5-8.4c-4.1-3.3-7.8-7.1-11-11.2c-6.5-8.2-11.2-17.7-13.7-28c-0.3-1.3-0.6-2.6-0.8-3.9c-0.2-1.3-0.4-2.6-0.6-4
		c-0.1-1.3-0.3-2.7-0.4-4c-0.1-1.2-0.1-2.3-0.2-3.4c-0.2-3.8-0.3-7.6-0.5-11.4C40,90.9,39.4,76.9,38.9,65
		c-1.1-23.9-1.8-39.8-1.8-39.8c-0.6-12.7,9.3-23.5,22-24c12.7-0.6,23.5,9.3,24,22c0,0.7,0,1.4,0,2.1c0,0-0.7,15.9-1.8,39.8
		c-0.5,11.9-1.2,25.9-1.8,40.8c-0.2,3.7-0.3,7.5-0.5,11.4c0,0.8-0.1,1.6-0.1,2.3c-0.1,0.6,0,1.2,0,1.8c0,0.6,0.1,1.2,0.1,1.8
		c0.1,0.6,0.1,1.2,0.2,1.9c0.7,5,2.7,10.3,5.6,15c1.5,2.3,3.2,4.5,5.1,6.3c1.9,1.8,3.9,3.5,6.1,4.7c2.1,1.2,4.3,2.2,6.5,2.7
		c0.5,0.1,1.2,0.3,1.5,0.3l0.6,0.1l1.4,0.1l0.7,0.1l0.2,0c0.1,0-0.9,0-0.4,0l0.1,0l0.4,0l1.4,0.1c0.7,0,1.4,0.1,2.1,0.1
		c4.5,0.2,9-1.1,13.2-3.4c4.2-2.3,7.8-5.6,10.7-9.1c2.9-3.5,5-7.3,6.4-10.7c1.4-3.4,2.2-6.6,2.6-9.2c0-0.3,0.1-0.5,0.1-0.8
		c0-0.1,0-0.3,0.1-0.4c0-0.1,0-0.2,0.1-0.4c0.1-0.8,0.1-1.5,0.2-2.2c0,0.6,0,0.1,0,0.3l0,0l0-0.1l0-0.1l0-0.2c0-0.2,0-0.3,0-0.5
		c0-0.3,0-0.6,0-0.9c0-0.6,0-1.1,0.1-1.6c0.1-1.9,0.1-2.9,0.1-2.9c0.3-6.4,5.7-11.4,12.1-11.1C162.3,101.5,167,106.4,167.3,112.3z"
		/>
</g>
<line id="XMLID_1_" class="st1" x1="60.1" y1="23" x2="23" y2="60.1"/>
<line id="XMLID_3_" class="st1" x1="60.1" y1="23.2" x2="99.6" y2="62.7"/>
</svg>
