<?xml version="1.0" encoding="utf-8"?>
<!-- Generator: Adobe Illustrator 19.0.0, SVG Export Plug-In . SVG Version: 6.00 Build 0)  -->
<svg version="1.1" xmlns="http://www.w3.org/2000/svg" xmlns:xlink="http://www.w3.org/1999/xlink" x="0px" y="0px"
	 viewBox="0 0 196.1 164.2" style="enable-background:new 0 0 196.1 164.2;" xml:space="preserve">
<style type="text/css">
	.st0{fill:#252628;stroke:#48488C;stroke-width:6;stroke-linecap:round;stroke-linejoin:round;stroke-miterlimit:10;}
	.st1{fill:none;stroke:#48488C;stroke-width:6;stroke-linecap:round;stroke-linejoin:round;stroke-miterlimit:10;}
	.st2{fill:#252628;stroke:#48488C;stroke-width:6;stroke-miterlimit:10;}
	.st3{fill:#262626;stroke:#48488C;stroke-width:6;stroke-linecap:round;stroke-linejoin:round;stroke-miterlimit:10;}
</style>
<g id="Layer_2">
	<polyline id="XMLID_24_" class="st0" points="24.3,62.5 45.4,3 77.2,3 109,3 140.7,3 172.5,3 193.1,62.5 	"/>
	<path id="XMLID_26_" class="st0" d="M36.6,68.3v53.4c0,6.4,5.2,11.6,11.6,11.6h121.1c6.4,0,11.6-5.2,11.6-11.6V68.3"/>
	<line id="XMLID_19_" class="st1" x1="109" y1="3.3" x2="108.7" y2="62.5"/>
	<path id="XMLID_20_" class="st0" d="M24.3,62.5l6.5,6.1c9.5,3.1,19.7,3.1,29.1,0l6.5-6.1l6.5,6.1c9.5,3.1,19.7,3.1,29.1,0l6.5-6.1
		l6.5,6.1c9.5,3.1,19.7,3.1,29.1,0l6.5-6.1l6.5,6.1c9.5,3.1,19.7,3.1,29.1,0l6.5-6.1"/>
	<line id="XMLID_21_" class="st1" x1="77.2" y1="3" x2="66.5" y2="62.5"/>
	<line id="XMLID_23_" class="st1" x1="140.7" y1="3" x2="150.9" y2="62.5"/>
	<rect id="XMLID_27_" x="98.2" y="79.8" class="st1" width="68.1" height="34.2"/>
</g>
<g id="Layer_3">
	<path id="XMLID_4_" class="st1" d="M90.4,127.9H5.5c-1.4,0-2.5-1.1-2.5-2.5l0,0c0-1.4,1.1-2.5,2.5-2.5h84.8c1.4,0,2.5,1.1,2.5,2.5
		l0,0C92.9,126.7,91.7,127.9,90.4,127.9z"/>
	<polyline id="XMLID_8_" class="st0" points="3.4,122.8 12.7,112.7 12.9,112.8 82.6,112.8 82.7,112.7 92.1,122.8 	"/>
	<line id="XMLID_2_" class="st1" x1="8" y1="116.7" x2="8" y2="89.7"/>
	<line id="XMLID_13_" class="st1" x1="86" y1="116.7" x2="86" y2="89.7"/>
	<path id="XMLID_3_" class="st2" d="M86.8,127.9H8.3v27.3c0,3.3,2.7,6,6,6h66.5c3.3,0,6-2.7,6-6V127.9z"/>
	<path id="XMLID_36_" class="st3" d="M77.3,80.2c0,4.1,3.3,7.4,7.4,7.4c4.1,0,7.4-3.3,7.4-7.4V80L81,58.9H14.2L3.1,80v0.2
		c0,4.1,3.3,7.4,7.4,7.4s7.4-3.3,7.4-7.4"/>
	<path id="XMLID_47_" class="st3" d="M17.9,80.2c0,4.1,3.3,7.4,7.4,7.4s7.4-3.3,7.4-7.4"/>
	<path id="XMLID_46_" class="st3" d="M32.7,80.2c0,4.1,3.3,7.4,7.4,7.4s7.4-3.3,7.4-7.4"/>
	<path id="XMLID_45_" class="st3" d="M47.6,80.2c0,4.1,3.3,7.4,7.4,7.4s7.4-3.3,7.4-7.4"/>
	<path id="XMLID_44_" class="st3" d="M62.4,80.2c0,4.1,3.3,7.4,7.4,7.4s7.4-3.3,7.4-7.4"/>
</g>
</svg>
