<?xml version="1.0" encoding="utf-8"?>
<!-- Generator: Adobe Illustrator 19.0.0, SVG Export Plug-In . SVG Version: 6.00 Build 0)  -->
<svg version="1.1" id="hat" xmlns="http://www.w3.org/2000/svg" xmlns:xlink="http://www.w3.org/1999/xlink" x="0px" y="0px"
	 viewBox="0 0 568.9 587.1" style="enable-background:new 0 0 568.9 587.1;" xml:space="preserve">
<style type="text/css">
	.st0{fill:#EDDD4F;}
	.st1{fill:#FF0000;}
	.st2{fill:#DA4DEF;}
	.st3{fill:#48488C;}
	.st4{fill:#999999;}
	.st5{fill:none;stroke:#DA4DEF;stroke-width:3;stroke-miterlimit:10;}
	.st6{fill:#D1903B;}
</style>
<image style="overflow:visible;" width="702" height="274" id="XMLID_2_" xlink:href="6BE21C64.jpg"  transform="matrix(1 0 0 1 622.4292 -101.2184)">
</image>
<g id="XMLID_1_">
	<g id="XMLID_7_">
		<path id="XMLID_39_" class="st0" d="M221.1,150.2c0.8,0.1,1.7,0.1,1.8,1.2c0.1,1.1-0.5,1.6-1.5,1.7c-0.4,0-0.7,0.1-1.1,0.1
			c-3.8,0.3-5.5,2.5-5.1,6.3c0.1,0.7,0.4,0.8,1,0.8c1.3,0,2.7,0,4,0c1.1,0,1.8,0.5,1.8,1.6c0,1.1-0.8,1.4-1.8,1.4
			c-1.2,0-2.5,0.1-3.7,0c-1-0.1-1.3,0.3-1.3,1.3c0,5.3,0,10.5,0,15.8c0,0.6,0.1,1.1-0.2,1.6c-0.4,0.7-1.1,1.1-2,0.9
			c-1-0.2-1.4-0.9-1.4-1.9c0-3.8,0-7.7,0-11.5c0-0.9,0-1.7,0-2.6c0-1.1,0.3-2.5-0.2-3.3c-0.5-0.8-2-0.2-3-0.3
			c-0.9-0.1-1.5-0.5-1.5-1.4c-0.1-1,0.5-1.5,1.4-1.6c0,0,0.1,0,0.2,0c1-0.1,2.3,0.4,2.9-0.2c0.5-0.6,0.2-1.8,0.4-2.8
			c0.6-3.9,3.2-6.4,7.1-6.8C219.6,150.4,220.3,150.3,221.1,150.2z"/>
		<path id="XMLID_34_" class="st0" d="M214.5,65c0,4.3,0,8.6,0,12.9c0,0.3,0,0.5,0,0.8c0,1.9-0.6,2.8-1.9,2.8
			c-1.2,0-1.8-0.9-1.8-2.8c0-2,0-4.1,0-6.1c0-6.9,0-13.9,0-20.8c0-0.5,0-0.9,0-1.4c0-1.1,0.6-1.9,1.8-1.9c1.2,0,1.9,0.7,1.9,2
			c0,2.3,0,4.6,0,6.9C214.5,59.8,214.5,62.4,214.5,65z"/>
		<path id="XMLID_33_" class="st0" d="M237.5,64.8c0,4.7,0,9.5,0,14.2c0,1.6-0.6,2.4-1.8,2.3c-1.4-0.1-1.9-1-1.9-2.3
			c0-9.5,0-18.9,0-28.4c0-1.3,0.4-2.2,1.8-2.3c1.2-0.1,1.8,0.8,1.8,2.4C237.5,55.5,237.5,60.2,237.5,64.8z"/>
		<path id="XMLID_27_" class="st0" d="M228.9,164c2-2.6,4.6-3.8,7.7-3.7c1,0,1.6,0.3,1.6,1.4c0,1-0.5,1.6-1.5,1.8
			c-0.7,0.1-1.4,0.2-2.1,0.3c-3.5,0.5-5.5,2.6-5.6,6.1c-0.1,3.7,0,7.4-0.1,11.2c0,1.6-1.3,2.5-2.6,1.8c-0.7-0.3-0.9-0.9-0.9-1.6
			c0-6.4,0-12.8,0-19.3c0-1.2,0.7-1.8,1.8-1.8c1.1,0,1.6,0.7,1.7,1.8C229,162.6,228.9,163.3,228.9,164z"/>
		<g id="XMLID_3_">
			<path id="XMLID_4_" class="st0" d="M243.1,132.2c1.4,0,1.9-1,2.3-2.1c2.1-5.9,4.1-11.7,6.2-17.6c1.3-3.6,2.6-7.2,3.8-10.8
				c0.4-1.1,0.2-2-1-2.4c-1.1-0.4-1.8,0.2-2.2,1.2c-0.1,0.2-0.1,0.4-0.2,0.6c-2.7,7.9-5.5,15.8-8.2,23.7c-0.2,0.5-0.4,1-0.7,1.9
				c-1.7-4.8-3.2-9.3-4.7-13.7c-1.4-4.1-2.9-8.2-4.3-12.3c-0.3-0.9-0.8-1.6-1.8-1.6c-1,0-1.6,0.6-1.9,1.5c-0.1,0.3-0.2,0.6-0.3,0.9
				c-2.7,7.7-5.5,15.5-8.2,23.2c-0.2,0.5-0.2,1.1-0.8,1.5c-0.2-0.6-0.5-1.2-0.7-1.9c-2.7-7.9-5.5-15.8-8.2-23.7
				c-0.4-1.2-1.1-1.9-2.4-1.4c-1.2,0.4-1.4,1.3-1,2.5c3.4,9.6,6.8,19.2,10.2,28.8c0.3,1,1,1.6,2,1.6c1,0,1.7-0.6,2-1.6
				c0.6-1.6,1.2-3.3,1.7-4.9c2.4-6.7,4.8-13.3,7.2-20.1c0.6,0.5,0.6,1,0.8,1.5c2.7,7.6,5.4,15.3,8.1,22.9
				C241.3,131.1,241.7,132.1,243.1,132.2z"/>
			<path id="XMLID_59_" class="st0" d="M298.6,166c-0.6-4.4-4.2-6.7-8.6-5.8c-2.6,0.5-4.5,1.9-5.9,4.2c-2.3-5.3-9.9-6-13.8-0.5
				c0-0.6,0-1.1,0-1.5c0-1.2-0.3-2.3-1.8-2.3c-1.4,0-1.8,1-1.8,2.3c0,6.1,0,12.2,0,18.4c0,1.5,0.7,2.3,1.9,2.2
				c1.4-0.1,1.7-1,1.7-2.2c0-3.4,0-6.8,0-10.2c0-1.5,0.1-2.9,0.8-4.3c1.2-2.4,3.9-3.6,6.6-3c2.2,0.5,3.2,2.1,3.3,5
				c0,0.5,0,0.9,0,1.4c0,3.5,0,7,0,10.6c0,2,0.5,2.8,1.8,2.8c1.3,0,1.8-0.8,1.8-2.7c0-3.3,0-6.6,0-9.9c0-1.5,0.2-3.1,1-4.4
				c1.3-2.2,3.9-3.3,6.5-2.7c2.1,0.5,3.2,2.1,3.2,4.9c0.1,2.3,0,4.6,0,6.9c0,2,0,4.1,0,6.1c0,1.2,0.7,1.8,1.8,1.8
				c1,0,1.8-0.5,1.7-1.5C298.8,176.3,299.3,171.1,298.6,166z"/>
			<path id="XMLID_60_" class="st0" d="M457.3,79.2c0-3.3,0-6.6,0-9.9c0-1.2,0-2.4,0.5-3.6c1.1-3,4.1-4.6,7.5-4.1
				c2.6,0.4,3.8,2,4,5.5c0,0.7,0,1.4,0,2.1c0,3.5,0,6.9,0,10.4c0,1.1,0.6,1.7,1.6,1.8c1,0.1,1.9-0.4,1.9-1.5
				c0.1-5.1,0.4-10.2-0.2-15.3c-0.4-3.4-2.4-5.3-5.7-5.9c-3.8-0.7-7,0.4-9.4,3.7c-0.4-0.5-0.2-1-0.2-1.5c0-3.4,0-6.8,0-10.2
				c0-1.2-0.4-2.2-1.7-2.2c-1.3,0-1.9,0.8-1.9,2.1c0,9.6,0,19.2,0,28.8c0,1.3,0.5,2.1,1.8,2.1C456.9,81.4,457.3,80.5,457.3,79.2z"/>
			<path id="XMLID_61_" class="st0" d="M468,109.5c-3.9-0.8-7.1,0.3-9.8,4c0-4.3,0-8.2,0-12.1c0-1.2-0.4-2.2-1.7-2.2
				c-1.3,0-1.9,0.8-1.9,2.1c0,9.6,0,19.2,0,28.8c0,1.3,0.5,2.1,1.8,2.1c1.4,0,1.8-0.9,1.8-2.2c0-3.3,0-6.6,0-9.9
				c0-1.3,0-2.6,0.5-3.8c1.1-2.9,4.1-4.5,7.5-4c2.6,0.4,3.8,1.9,4,5.5c0,0.5,0,1,0,1.5c0,3.7,0,7.3,0,11c0,1.2,0.7,1.8,1.8,1.8
				c1.1,0,1.8-0.6,1.8-1.7c0-4.9,0.3-9.9-0.2-14.8C473.2,112.2,471.2,110.1,468,109.5z"/>
			<path id="XMLID_62_" class="st0" d="M272.5,112.3c2.6,0.4,3.8,1.9,4,5.4c0,0.6,0,1.1,0,1.7c0,3.6,0,7.2,0,10.9
				c0,1.2,0.6,1.9,1.7,1.9c1,0,1.8-0.5,1.8-1.6c0.1-5,0.4-10-0.2-15c-0.4-3.5-2.4-5.5-5.7-6.1c-3.8-0.7-7,0.3-9.7,4
				c0-4.3,0-8.1,0-12c0-1.2-0.3-2.1-1.7-2.3c-1.2-0.1-1.9,0.7-1.9,2.2c0,9.5,0,19.1,0,28.6c0,1.5,0.7,2.3,1.9,2.2
				c1.4-0.1,1.7-1,1.7-2.3c0-3.3,0-6.5,0-9.8c0-1.3,0-2.5,0.5-3.8C266.1,113.5,269,111.9,272.5,112.3z"/>
			<path id="XMLID_65_" class="st0" d="M482.9,80.5c3.8,1.8,7.4,1,10.6-2.5c0.3,0.6,0.1,1.2,0.2,1.8c0.2,1.1,0.8,1.7,1.9,1.6
				c1,0,1.6-0.6,1.6-1.7c0-4.7,0.1-9.5-0.1-14.2c-0.2-4.1-2.4-6.3-6.5-6.9c-3.6-0.5-7,0.3-10,2.3c-0.9,0.6-1.3,1.5-0.7,2.5
				c0.6,1,1.4,0.5,2.1,0.1c1.6-0.9,3.3-1.5,5.1-1.9c4.4-0.8,6.5,0.9,6.6,5.2c0,1.3-0.4,1.4-1.5,1.5c-3.2,0-6.4,0-9.5,1.2
				c-2.8,1-4,3.1-3.6,6C479.4,77.8,480.8,79.5,482.9,80.5z M482.7,74.2c0.1-1.7,0.9-2.5,3-3.1c0.3-0.1,0.6,0.4,0.9,0.4
				c1.4-0.2,2.7,0.3,3.9,0.3c0.5,0,0.7,0,0.9,0c2.6,0,2.6-0.6,2.2,2c-0.5,3.9-4.5,6.1-8.1,4.8C483.7,78,482.6,76.1,482.7,74.2z"/>
			<path id="XMLID_68_" class="st0" d="M373.7,109.4c-3.6-0.5-7,0.3-10.1,2.3c-0.9,0.6-1.3,1.5-0.7,2.5c0.6,1,1.4,0.5,2.1,0.1
				c1.6-0.9,3.3-1.5,5.1-1.9c4.4-0.8,6.6,1,6.6,5.3c0,1.1-0.3,1.3-1.4,1.3c-3.3,0-6.5,0-9.6,1.1c-2.8,1-4,3-3.7,5.9
				c0.3,2.4,1.6,4,3.7,5.1c3.8,1.9,7.7,1,10.9-2.7c0,0.9,0,1.4,0,2c0.1,1.1,0.8,1.7,1.8,1.7c1,0,1.6-0.6,1.6-1.7
				c0-4.8,0.1-9.6-0.1-14.4C379.9,112.1,377.8,110,373.7,109.4z M370.5,129.4c-2.6,0-4.4-1.4-4.7-3.6c-0.2-1.9,0.5-3.1,2.3-3.6
				c2.6-0.8,5.3-0.7,8-0.7c0.4,0,0.6,0.2,0.6,0.6C377.4,125.9,374.5,129.4,370.5,129.4z"/>
			<path id="XMLID_71_" class="st0" d="M330.2,121.2c2.2,0.1,4.5,0,6.7,0s4.5,0,6.7,0c1.3,0,1.8-0.6,1.8-1.9
				c0.2-7.2-5.9-11.8-12.8-9.5c-7.1,2.3-9.8,12.9-4.7,18.7c3.2,3.7,7.5,4.2,12,3.2c1.7-0.4,3.3-1,4.6-2.2c0.7-0.7,0.9-1.5,0.3-2.3
				c-0.6-0.9-1.4-0.3-2,0c-1.1,0.5-2.1,1.1-3.2,1.5c-5.4,2-10-0.9-10.6-6.3C329.1,121.4,329.3,121.1,330.2,121.2z M329.3,118
				c0.3-3.2,3.1-5.7,6.5-5.7c3.8,0,6.1,1.8,6.5,5.4c0.1,0.8,0,1.1-0.9,1c-1.9-0.1-3.8,0-5.6,0c-1.9,0-3.8,0-5.6,0
				C329.6,118.7,329.3,118.7,329.3,118z"/>
			<path id="XMLID_74_" class="st0" d="M484,121.2c2.2,0.1,4.5,0,6.7,0s4.5,0,6.7,0c1.4,0,1.9-0.6,1.9-1.9c0.1-7.2-6-11.7-12.8-9.4
				c-6.9,2.3-9.7,12.6-4.8,18.5c3.2,3.9,7.5,4.4,12.1,3.4c1.7-0.4,3.4-1,4.7-2.3c0.7-0.6,0.8-1.4,0.3-2.2c-0.6-0.9-1.3-0.5-2-0.1
				c-1,0.5-2.1,1.1-3.2,1.5c-5.4,2-10.2-0.9-10.6-6.4C483,121.4,483.1,121.1,484,121.2z M483.2,118c0.3-3.1,3-5.6,6.2-5.7
				c3.8-0.1,6.1,1.6,6.7,5c0.2,1,0.1,1.6-1.2,1.5c-1.7-0.1-3.5,0-5.2,0c-1.9,0-3.8,0-5.6,0C483.5,118.7,483.1,118.8,483.2,118z"/>
			<path id="XMLID_77_" class="st0" d="M406.4,121.1c2.2,0.1,4.5,0,6.7,0c2.2,0,4.4,0,6.6,0c1.4,0,1.9-0.6,1.9-1.9
				c0.1-7.2-5.9-11.7-12.8-9.5c-7,2.3-9.6,12.5-4.8,18.6c3.9,4.9,11.9,4.8,16.5,1.4c0.2-0.2,0.5-0.4,0.6-0.7c0.5-0.7,0.5-1.4,0-2
				c-0.5-0.7-1.2-0.4-1.8-0.1c-1.1,0.5-2.2,1.2-3.3,1.6c-5.3,2-10-0.7-10.6-6.2C405.2,121.5,405.3,121.1,406.4,121.1z M405.4,118
				c0.2-3.1,3-5.6,6.3-5.7c3.9-0.1,6.2,1.8,6.6,5.2c0.1,0.9,0,1.3-1,1.2c-1.8-0.1-3.7,0-5.5,0c-1.9,0-3.8,0-5.6,0
				C405.7,118.7,405.4,118.7,405.4,118z"/>
			<path id="XMLID_80_" class="st0" d="M306.2,80.9c1.7-0.4,3.4-1,4.7-2.3c0.7-0.6,0.8-1.4,0.3-2.2c-0.6-0.9-1.3-0.5-2-0.1
				c-1,0.5-2.1,1.1-3.2,1.5c-5.4,2-10.2-0.9-10.6-6.4c-0.1-0.8,0.1-1.1,0.9-1c2.2,0.1,4.5,0,6.7,0c2.2,0,4.5,0,6.7,0
				c1.4,0,1.9-0.6,1.9-1.9c0.1-7.2-6-11.7-12.8-9.4c-6.9,2.3-9.6,12.6-4.8,18.5C297.3,81.4,301.6,81.9,306.2,80.9z M295.6,67.2
				c0.1-2.9,2.9-5.5,6-5.7c3.9-0.2,6.3,1.5,6.9,4.9c0.2,1.1,0.1,1.7-1.3,1.6c-1.7-0.1-3.5,0-5.2,0c-1.9,0-3.8,0-5.6,0
				C295.9,67.9,295.5,68,295.6,67.2z"/>
			<path id="XMLID_83_" class="st0" d="M305,127.1c-0.6-0.8-1.3-0.4-1.9-0.1c-1.1,0.5-2.2,1.2-3.3,1.6c-5.3,2-9.9-0.8-10.6-6.4
				c-0.1-0.9,0.1-1.1,1-1.1c2.2,0.1,4.5,0,6.7,0c2.2,0,4.5,0,6.7,0c1.3,0,1.8-0.6,1.8-1.9c0.2-7.2-5.8-11.7-12.6-9.6
				c-7.1,2.2-9.9,12.5-5,18.6c3.2,4,7.5,4.5,12.2,3.4c1.7-0.4,3.4-1,4.7-2.3C305.5,128.7,305.6,127.9,305,127.1z M289.4,118
				c0.3-3,2.9-5.5,6-5.7c3.9-0.2,6.3,1.5,6.9,5c0.2,1,0.2,1.6-1.2,1.5c-1.7-0.1-3.5,0-5.2,0c-1.9,0-3.8,0-5.6,0
				C289.8,118.7,289.3,118.8,289.4,118z"/>
			<path id="XMLID_86_" class="st0" d="M247.1,160.5c-4.6,1.4-7.3,5.4-7.2,11.1c0,0.5,0,1.2,0.1,1.8c0.7,5.7,4.7,9.4,10.3,9.5
				c5.7,0.1,9.7-3.5,10.6-9.2c0.2-1.6,0.2-3.2,0-4.7C259.7,162.3,253.7,158.5,247.1,160.5z M257,174.7c-0.8,3.5-3.1,5.3-6.7,5.3
				c-3.4,0-5.7-1.9-6.5-5.3c-0.5-2.4-0.5-4.8,0.3-7.1c1-3,3.2-4.4,6.4-4.4c3.1,0,5.2,1.5,6.2,4.5c0.4,1.3,0.6,2.6,0.5,3.9
				C257.3,172.5,257.2,173.6,257,174.7z"/>
			<path id="XMLID_89_" class="st0" d="M253.7,81.4c5.5,0.1,9.4-3.2,10.5-8.6c0.4-1.9,0.4-3.8,0-5.6c-1.2-6.6-7.2-10.2-13.6-8.3
				c-4.6,1.4-7.3,5.4-7.3,11c0.1,0.9,0.1,1.8,0.3,2.7C244.5,78,248.4,81.3,253.7,81.4z M247.4,66.3c0.9-3.2,3.1-4.8,6.4-4.8
				c3.3,0,5.5,1.6,6.4,4.8c0.3,1.1,0.5,2.3,0.4,3.5c0,1.1,0,2.2-0.3,3.3c-0.9,3.5-3.1,5.3-6.9,5.2c-3.3,0-5.6-2-6.3-5.4
				C246.8,70.7,246.8,68.5,247.4,66.3z"/>
			<path id="XMLID_92_" class="st0" d="M371.9,73.4c2.1-9.7-4-16.4-12.7-14.7c-4.9,1-8,5.3-8,11.5c0.1,3.3,1,6.6,4,9
				C360,83.1,370,82.2,371.9,73.4z M368.1,73.6c-0.9,3.2-3.1,4.8-6.4,4.8c-3.3,0-5.5-1.6-6.4-4.8c-0.3-1.2-0.4-2.4-0.5-3.6
				c0.1-1.1,0.1-2.1,0.4-3.2c0.9-3.5,3.1-5.2,6.6-5.2c3.4,0,5.7,1.8,6.5,5.2C368.8,69,368.8,71.3,368.1,73.6z"/>
			<path id="XMLID_93_" class="st0" d="M393.2,77.4c0,0.9,0,1.4,0,1.9c0,1.2,0.4,2.1,1.7,2.1c1.4,0,1.8-0.9,1.8-2.1
				c0-6.2,0-12.4,0-18.7c0-1.2-0.5-2.2-1.8-2.1c-1.3,0-1.8,0.9-1.8,2.2c0,3.3,0,6.6,0,9.9c0,1.1,0,2.2-0.4,3.3
				c-1,3.1-3.9,4.9-7.3,4.4c-2.7-0.4-3.9-2.2-3.9-5.8c0-3.9,0-7.8,0-11.6c0-1.6-0.7-2.5-1.9-2.4c-1.4,0.1-1.8,1.1-1.7,2.4
				c0,4,0,8.1,0,12.1c0,1.2,0.1,2.3,0.5,3.5c0.8,2.6,2.5,4.2,5.2,4.8C387.4,81.9,390.6,80.9,393.2,77.4z"/>
			<path id="XMLID_94_" class="st0" d="M347.5,58.6c-1.1-0.5-1.7,0-2.2,0.9c-0.2,0.3-0.3,0.7-0.4,1c-2.4,5.4-4.8,10.7-7.3,16.4
				c-0.4-0.9-0.7-1.5-1-2.1c-2.2-4.9-4.4-9.9-6.5-14.8c-0.7-1.5-1.4-1.9-2.5-1.4c-1.4,0.7-1.2,1.7-0.6,2.8c2.8,6,5.5,11.9,8.3,17.9
				c0.4,0.9,0.4,1.6,0,2.4c-0.9,1.8-1.7,3.6-2.6,5.4c-0.4,0.9-0.4,1.7,0.6,2.2c1,0.6,1.8,0.1,2.3-0.8c0.2-0.3,0.3-0.6,0.5-1
				c1.8-4,3.7-7.9,5.5-11.9c2.3-4.9,4.5-9.8,6.8-14.7C348.8,60,348.7,59.1,347.5,58.6z"/>
			<path id="XMLID_95_" class="st0" d="M523,109.4c-1.2-0.5-1.8,0.2-2.3,1.2c-0.8,1.8-1.6,3.6-2.4,5.4c-1.7,3.8-3.4,7.6-5.2,11.8
				c-2.6-5.8-5-11.3-7.4-16.8c-0.5-1.1-1.1-2.1-2.5-1.5c-1.3,0.5-1.4,1.3-0.7,2.9c2.7,6,5.5,11.9,8.3,17.9c0.4,0.8,0.4,1.5,0,2.3
				c-0.9,1.7-1.6,3.4-2.4,5.1c-0.5,1.1-0.8,2.1,0.6,2.7c1.3,0.5,1.9-0.3,2.3-1.3c4.2-9,8.4-18,12.6-27
				C524.3,110.8,524.2,109.9,523,109.4z"/>
			<path id="XMLID_96_" class="st0" d="M543.9,70.1c-2.4-1.1-5-1.4-7.4-2.2c-2.1-0.7-2.9-1.6-2.8-3.1c0.1-1.6,1.1-2.6,3-3.1
				c1.8-0.5,3.6-0.3,5.3,0.5c0.9,0.4,1.7,1,2.5,1.4c0.5,0.3,1,0.5,1.5,0c0.5-0.5,0.6-1.1,0.4-1.7c-0.2-0.5-0.5-0.9-0.9-1.2
				c-3.3-3.1-10.4-3-13.7,0.1c-2.9,2.8-2.2,7.2,1.4,9c1.1,0.5,2.2,0.8,3.3,1.1c1.8,0.4,3.6,0.7,5.3,1.5c0.9,0.4,1.6,1.1,1.6,2.2
				c0.1,1.2-0.4,2.1-1.4,2.7c-0.9,0.6-2,0.8-3,0.9c-2.8,0.2-5.2-0.6-7.5-2c-0.6-0.4-1.3-0.7-1.9,0.1c-0.5,0.7-0.4,1.5,0.1,2.1
				c0.5,0.6,1.1,1,1.8,1.4c2,1,4.2,1.4,6.4,1.6c1.8,0,3.5-0.3,5.1-0.9c1.4-0.6,2.6-1.5,3.3-2.8C547.9,74.8,546.8,71.5,543.9,70.1z"
				/>
			<path id="XMLID_97_" class="st0" d="M444.2,80.9c1.6-0.4,3.2-1.1,4.4-2.3c0.6-0.7,0.7-1.5,0.2-2.2c-0.6-0.8-1.3-0.4-1.9,0
				c-0.5,0.3-1,0.6-1.6,0.9c-5.3,2.9-10.5,0.1-11.1-5.8c0-0.5,0-0.9-0.1-1.5c0-0.5,0-1.3,0.1-2c0.6-4.2,3.2-6.4,7.4-6.4
				c2,0,3.6,1,5.2,2c0.5,0.3,1.1,0.7,1.7,0.2c0.6-0.6,0.6-1.3,0.3-2c-0.2-0.6-0.7-1-1.2-1.3c-3-2-6.3-2.5-9.8-1.4
				c-5.8,1.7-8.8,8.2-6.9,15C432.6,79.7,438.1,82.6,444.2,80.9z"/>
			<path id="XMLID_98_" class="st0" d="M449.6,129.4c-0.6-0.1-1.1-0.2-1.7-0.2c-2.6-0.1-3.9-1.3-4-4c-0.1-3.9,0-7.7-0.1-11.6
				c0-0.7,0.2-1,1-0.9c1.3,0.1,2.5,0,3.8,0c1,0,1.9-0.3,1.9-1.5c0-1.2-0.8-1.6-1.9-1.6c-1.2,0-2.3-0.1-3.5,0
				c-0.9,0.1-1.3-0.2-1.2-1.2c0.1-1.3,0-2.5,0-3.8c0-1.2-0.8-1.9-2.1-1.8c-1.2,0-1.8,0.8-1.8,1.9c0,0.8,0,1.6,0,2.4
				c0,2.4,0.1,2.4-2.3,2.4c-0.2,0-0.3,0-0.5,0c-1,0.1-1.6,0.6-1.6,1.6c0,1,0.7,1.4,1.6,1.4c0.6,0,1.1,0.1,1.7,0
				c1.1-0.1,1.5-0.1,1.5,1.1c-0.1,1.8,0,3.1,0,5.1c0,0,0.1,0,0.1,0c0,3-0.2,4.6,0,6.8c0.4,4.4,4.9,7.5,9.2,6.4
				c0.7-0.2,1.3-0.5,1.2-1.4C450.8,129.8,450.3,129.5,449.6,129.4z"/>
			<path id="XMLID_99_" class="st0" d="M275.9,79.2c0.5,1,1.1,1.8,2.2,1.8c1.2,0,1.8-0.8,2.2-1.8c1.4-3,2.8-6,4.2-9
				c1.5-3.1,2.9-6.2,4.4-9.3c0.5-1,0.4-1.8-0.6-2.3c-1.1-0.6-1.8-0.1-2.4,0.9c-0.2,0.4-0.3,0.7-0.5,1.1c-2.4,5.2-4.7,10.4-7.2,15.9
				c-0.4-0.8-0.6-1.2-0.8-1.7c-2.3-5-4.5-10-6.8-15c-0.5-1-1.2-1.7-2.4-1.2c-1.3,0.5-1.4,1.4-0.8,2.6
				C270.3,67.2,273.1,73.2,275.9,79.2z"/>
			<path id="XMLID_100_" class="st0" d="M315.3,150.3c-0.9-0.2-1.9-0.3-2.7-0.4c-3.8,0.2-7.1,1.2-9.9,3.6c-0.9,0.8-1.4,1.8-0.6,2.8
				c0.8,1.1,1.7,0.2,2.5-0.3c0.7-0.5,1.3-0.9,2-1.4c1.9-1.2,3.9-1.7,6.1-1.6c3.5,0.2,5.3,2.7,4.4,6.1c-0.2,0.8-0.6,1.6-1.1,2.3
				c-1.1,1.5-2.2,3-3.3,4.6c-1.5,2.1-2.4,4.4-2.3,7c0,0.7,0.1,1.4,1,1.5c0.9,0.1,1.2-0.4,1.3-1.2c0.2-2.3,1.4-4.1,2.8-5.9
				c1.5-2,3.3-3.7,4.6-5.9C322.6,156.9,320.4,151.6,315.3,150.3z"/>
			<path id="XMLID_101_" class="st0" d="M526,58.7c-3.1,0-5.7,1.1-7.6,3.8c0-0.5,0-1.1,0-1.6c0-1.5-0.7-2.4-1.8-2.4
				c-1.4,0.1-1.8,1.1-1.8,2.4c0,6.1,0,12.1,0,18.2c0,1.6,0.7,2.5,1.9,2.4c1.5-0.1,1.7-1.1,1.7-2.4c0-3.6-0.1-7.1,0-10.7
				c0.1-3.6,2.1-5.7,5.6-6.3c0.7-0.1,1.4-0.2,2.1-0.3c1-0.2,1.5-0.7,1.5-1.8C527.6,58.9,526.9,58.7,526,58.7z"/>
			<path id="XMLID_102_" class="st0" d="M405.5,81.4c1.3,0,1.8-0.7,1.8-2.4c0-3.5-0.1-7,0-10.5c0.1-3.7,2.1-5.8,5.7-6.4
				c0.7-0.1,1.3-0.2,2-0.2c1.1-0.1,1.6-0.7,1.6-1.8c-0.1-1.1-0.8-1.3-1.7-1.3c-3.1,0-5.6,1.1-7.6,3.7c0-0.5,0-1,0-1.5
				c0-1.2-0.2-2.3-1.7-2.5c-1.1-0.1-1.9,0.8-1.9,2.4c0,6,0,12,0,18C403.7,80.6,404.3,81.4,405.5,81.4z"/>
			<path id="XMLID_103_" class="st0" d="M398.5,109.5c-3.2,0-5.8,1-7.8,3.8c0-0.5,0-1.1,0-1.6c0-1.6-0.7-2.4-1.8-2.4
				c-1.4,0.1-1.8,1.1-1.8,2.4c0,6.1,0,12.1,0,18.2c0,1.6,0.7,2.5,1.9,2.4c1.5-0.1,1.7-1.1,1.7-2.4c0-3.5-0.1-6.9,0-10.4
				c0.1-3.8,2-6,5.7-6.6c0.8-0.1,1.5-0.1,2.3-0.3c0.9-0.2,1.4-0.8,1.3-1.8C400,109.8,399.4,109.5,398.5,109.5z"/>
			<path id="XMLID_104_" class="st0" d="M322.3,109.5c-3.1,0-5.6,1.2-7.3,3.8c-0.4-0.6-0.2-1.1-0.2-1.6c0-1.2-0.2-2.3-1.7-2.5
				c-1.2-0.1-1.9,0.8-1.9,2.4c0,6,0,12,0,18c0,1.7,0.6,2.5,1.8,2.5c1.2,0,1.8-0.7,1.8-2.4c0-3.6-0.1-7.1,0.1-10.7
				c0.1-3.5,2.1-5.7,5.5-6.2c0.7-0.1,1.4-0.2,2.1-0.3c1-0.1,1.6-0.7,1.6-1.7C324,109.7,323.3,109.5,322.3,109.5z"/>
			<path id="XMLID_105_" class="st0" d="M506,58.5c-1.3,0-1.9,0.8-1.9,2.1c0,6.3,0,12.5,0,18.8c0,1.3,0.6,2.1,1.9,2
				c1.3,0,1.7-0.9,1.7-2.1c0-3.1,0-6.2,0-9.3c0-3.1,0-6.2,0-9.3C507.7,59.4,507.3,58.5,506,58.5z"/>
			<path id="XMLID_106_" class="st0" d="M553.4,71.1c0,0.8,0.1,1.7,1.1,1.7c1,0,1.1-0.9,1.1-1.7c0.2-3.4,0.4-7.2,0.5-10.2
				c0,0,0,0,0,0c0.2-3,0.4-6.7,0.5-10c0.1-1.6-0.9-2.5-2.3-2.4c-1.3,0-2.2,1-2.1,2.5C552.7,57.6,553,64.3,553.4,71.1z"/>
			<path id="XMLID_107_" class="st0" d="M554.6,76.2c-1.4-0.1-2.6,1.1-2.6,2.6c0,1.4,1.1,2.6,2.4,2.6c1.4,0,2.5-1.1,2.5-2.5
				C557,77.4,556,76.2,554.6,76.2z"/>
			<path id="XMLID_108_" class="st0" d="M311.5,177.8c-1.3-0.1-2.5,1-2.6,2.5c-0.1,1.4,0.9,2.6,2.3,2.7c1.3,0.1,2.5-0.9,2.6-2.4
				C313.9,179.1,312.9,177.9,311.5,177.8z"/>
			<path id="XMLID_109_" class="st0" d="M505.9,53.5c1.4,0,2.4-0.9,2.5-2.1c0.1-1.4-0.9-2.4-2.3-2.4c-1.3,0-2.4,0.9-2.5,2.1
				C503.5,52.4,504.5,53.5,505.9,53.5z"/>
		</g>
	</g>
</g>
<image style="overflow:visible;" width="724" height="245" id="XMLID_8_" xlink:href="6BE21C6C.jpg"  transform="matrix(1 0 0 1 751.1597 254.538)">
</image>
<g id="XMLID_12_">
	<path id="XMLID_307_" class="st0" d="M34.9,336.2c-1.4,0-2,1-2,2.4c0,10,0,20,0,30c0,1.4,0.6,2.4,2,2.4c5.3-0.1,10.7,0.7,16-0.5
		c4.4-1,6.7-3.5,7.2-7.6c0.5-4.5-1.2-7.4-5.8-9.7c4.3-2.4,5.9-5.9,4.8-10.4c-1-4.2-4.2-6-8-6.3C44.4,336,39.7,336.2,34.9,336.2z
		 M54.6,361.7c-0.1,3.1-1.6,5-4.6,5.7c-2.2,0.6-4.5,0.2-6.4,0.3c-7,0-7,0-7-6.6c0-6.3,0-6.3,6.4-6.2c2.4,0,4.9-0.3,7.3,0.5
		C53.5,356.4,54.6,358.6,54.6,361.7z M53.8,345.9c-0.2,3.3-2.5,5.5-6.2,5.7c-1.5,0.1-3,0-4.5,0c-6.5,0-6.5,0-6.5-6.5
		c0-5.8,0-5.8,5.9-5.8c1.8,0,3.7-0.1,5.5,0.1C52,339.9,53.9,342.2,53.8,345.9z"/>
	<path id="XMLID_311_" class="st0" d="M129.9,430.3c-2.2-0.1-4.1-1-6.1-1.9c-0.8-0.4-1.8-1.2-2.5,0.1c-0.6,1.2,0.1,2,1,2.7
		c2.6,1.7,5.5,2.3,8.5,2.4c7.1,0.1,10.9-3.5,11-10.5c0.1-4.4,0-8.8,0-13.2c0-2.5,0-4.9,0-7.4c0-1.2-0.4-2.2-1.7-2.4
		c-1.3-0.2-1.9,0.8-2,2c-0.1,0.6-0.1,1.2-0.1,1.9c-5.7-5-11.2-5.2-15.4-0.8c-4.1,4.4-4.1,13.1,0.1,17.5c4.2,4.4,9.8,4.2,15.5-0.9
		c0,1,0,1.9,0,2.7C138.3,428.3,135.7,430.7,129.9,430.3z M130.8,420.7c-4.6,0-7.3-3.2-7.4-8.7c0-5.4,2.7-8.7,7.3-8.7
		c4.7-0.1,7.4,3.1,7.5,8.5C138.2,417.4,135.5,420.7,130.8,420.7z"/>
	<path id="XMLID_312_" class="st0" d="M380.6,454.2c-3.3-1.2-6.3-0.5-9,1.7c-0.7,0.6-1.3,1.4-2,2.1c-4.1-5.7-8.8-5.9-14.5-0.7
		c-0.3-1.7,0.1-3.6-2.1-3.6c-1.1,0-1.7,0.9-1.7,2c0,6.9,0,13.8,0,20.6c0,1.1,0.5,1.8,1.7,1.9c1.4,0.1,1.9-0.7,1.9-2
		c0-3.1,0-6.2,0-9.4c0-1.3,0-2.6,0.1-3.9c0.5-4.1,3.2-6.4,6.9-6.1c3.2,0.2,4.4,2,4.5,6.6c0,4,0,8,0,11.9c0,1.3-0.2,2.8,1.7,2.8
		c2.1,0.1,2-1.6,2-2.9c0-4.1-0.1-8.2,0.1-12.3c0.2-3.9,2.9-6.3,6.5-6.2c3.3,0.1,4.7,1.9,4.7,6.3c0.1,4.2,0,8.4,0,12.6
		c0,1.2,0,2.5,1.7,2.5c1.6,0.1,2-1,2-2.3c0-5.1,0.1-10.1-0.2-15.2C384.9,457.8,383.7,455.3,380.6,454.2z"/>
	<path id="XMLID_315_" class="st0" d="M48.5,313.1c1.5,7.9-2.7,11.9-10.3,9.7c-1.1-0.3-2.2-0.9-3.3-1.2c-1-0.3-2.2-1.8-3-0.1
		c-0.7,1.5,0.5,2.4,1.7,3c3.5,1.8,7.3,2.5,11.2,1.7c4.7-1,7.3-3.6,7.5-8.3c0.3-7.5,0.2-15,0.2-22.5c0-1.2-0.5-2.2-1.8-2.3
		c-1.3-0.1-1.8,0.9-2,2.1c-0.1,0.5-0.1,1-0.2,1.6c-6-4.8-11.4-5-15.4-0.4c-4,4.5-3.9,13.2,0.3,17.5C37.6,318,43.3,317.7,48.5,313.1z
		 M41.5,296.1c4.7,0,7.3,3.1,7.3,8.6c0,5.6-2.6,8.7-7.2,8.8c-4.8,0-7.6-3.2-7.5-8.8C34.1,299.3,36.8,296.1,41.5,296.1z"/>
	<path id="XMLID_316_" class="st0" d="M328.5,302.6c0,4.2,0,8.4,0,12.6c0,1.3,0.2,2.4,1.9,2.4c1.4,0,1.8-1,1.8-2.1
		c0-5.3,0.4-10.5-0.3-15.8c-0.4-3.2-2-5.7-5.4-6.4c-4.3-1-7.4,0.9-9.9,4.2c-4.1-5.7-9-6-14.3-0.7c-0.5-1.5,0.1-3.7-2.1-3.6
		c-2.4,0.1-1.8,2.3-1.8,3.8c0,5.8,0,11.6,0,17.4c0,1.4-0.5,3.3,1.9,3.3c2.2-0.1,1.7-1.8,1.7-3.2c0.1-4-0.1-8,0.1-11.9
		c0.3-4.1,3-6.5,6.7-6.3c3.2,0.2,4.5,1.9,4.5,6.5c0,4.2,0,8.4,0,12.6c0,1,0.1,2,1.3,2.3c0.6,0.2,1.3,0.1,1.8-0.4
		c0.7-0.7,0.6-1.6,0.6-2.4c0-4.1-0.1-8.2,0.1-12.2c0.2-4,3-6.5,6.7-6.3C327.2,296.3,328.5,298.1,328.5,302.6z"/>
	<path id="XMLID_317_" class="st0" d="M187.2,317.5c1.1,0,1.6-0.6,1.6-1.6c0.1-1.1,0-2.1,0.1-3.2c0.1-3.8-0.1-7.5,0.3-11.2
		c0.4-3.7,3.3-5.6,6.8-5.3c2.9,0.3,4.2,2,4.2,6.1c0,4.2,0,8.4,0,12.6c0,1.3,0,2.7,1.9,2.7c1.9,0,1.8-1.5,1.8-2.8
		c0-4.1-0.1-8.2,0.1-12.2c0.2-4,3-6.5,6.6-6.3c3.2,0.1,4.5,1.9,4.6,6.4c0.1,4.2,0,8.4,0,12.6c0,1.3,0.2,2.4,1.9,2.4
		c1.4,0,1.8-0.9,1.8-2.1c0-5.2,0.1-10.3-0.2-15.5c-0.1-2.9-1.5-5.4-4.5-6.5c-3.2-1.2-6.1-0.5-8.7,1.6c-0.8,0.6-1.4,1.5-2.1,2.2
		c-4.2-5.6-9-5.9-14.3-0.6c-0.5-1.6,0-3.6-2.1-3.7c-1.1,0-1.7,0.8-1.7,1.9c0,7,0,14,0,20.9C185.3,317,186.1,317.5,187.2,317.5z"/>
	<path id="XMLID_318_" class="st0" d="M128.6,353.6c0,4.8,0,9.7,0,14.5c0,2,0.8,3,2.9,2.9c5.5-0.1,11,0,16.4,0
		c1.1,0,2.3-0.1,2.4-1.5c0.1-1.7-1.2-1.7-2.5-1.7c-4.1,0-8.2-0.2-12.2,0.1c-2.8,0.2-3.5-0.8-3.2-3.4c0.2-2.3,0.2-4.7,0-7.1
		c-0.1-1.9,0.4-2.6,2.4-2.5c4,0.2,7.9,0.1,11.9,0c1.2,0,2.6,0.2,2.6-1.6c0-1.7-1.3-1.7-2.6-1.7c-4.1,0-8.2-0.1-12.2,0
		c-1.7,0.1-2.2-0.5-2.1-2.2c0.1-2.6,0.2-5.2,0-7.7c-0.2-2.2,0.7-2.5,2.6-2.4c4.2,0.1,8.4,0,12.6,0c1.3,0,2.9,0.3,2.8-1.7
		c-0.1-1.6-1.5-1.5-2.7-1.5c-5.3,0-10.5,0.1-15.8,0c-2.4,0-3.2,1-3.2,3.3C128.7,344.1,128.6,348.8,128.6,353.6z"/>
	<path id="XMLID_321_" class="st0" d="M261.9,446.9c0-1.5,0.4-3.5-1.8-3.5c-2.5,0-1.8,2.2-1.9,3.6c-0.1,3.4,0,6.9,0,11.1
		c-1.8-2-3.1-3.4-5-4c-3.9-1.2-7.3-0.5-10,2.4c-4,4.3-4.1,9.5-2.4,14.8c1.2,3.7,3.7,6.2,7.7,6.8c0.2,0,0.4,0,0.6,0.1
		c3.6,0.4,6.6-0.8,8.8-4c0.6,1.8-0.4,4,2,4c2.6,0,1.9-2.2,1.9-3.6C262,465.3,261.9,456.1,261.9,446.9z M252.1,475.1
		c-3.7,0.6-6.8-1.3-7.9-4.9c-0.8-2.5-0.8-5.1-0.2-7.6c0.9-3.7,3.4-5.8,7.1-5.7c3.7,0,6,2,6.9,5.9c0.2,1,0.3,2.1,0.4,2.8
		C258.3,471.2,256.2,474.5,252.1,475.1z"/>
	<path id="XMLID_322_" class="st0" d="M233,368.1c3.2,2.1,6.8,3.1,10.7,3c1.2-0.1,2.4,0,3.5-0.2c5-0.7,8.8-4.2,9.2-8.5
		c0.4-4.6-1.7-7.2-7.3-9c-2.9-0.9-5.8-1.6-8.6-2.5c-2.8-0.9-5.1-2.5-4.7-6c0.3-2.9,2.3-4.9,5.7-5.6c4.4-0.8,8.3,0.1,11.8,2.9
		c0.7,0.5,1.5,1.6,2.4,0.5c0.9-1,0.6-2-0.4-2.8c-0.7-0.6-1.5-1.3-2.3-1.7c-4.2-2.4-8.8-2.7-13.4-1.5c-4.8,1.3-7.6,4.7-7.6,9.1
		c-0.1,4.3,2,6.9,7.2,8.6c2.9,1,6,1.6,8.9,2.6c2.5,0.8,4.8,2,4.6,5.3c-0.2,2.9-2.1,4.9-5.4,5.5c-4.5,0.9-8.7,0-12.6-2.5
		c-0.9-0.6-1.9-2.4-3.1-0.6C230.5,366.3,231.9,367.4,233,368.1z"/>
	<path id="XMLID_325_" class="st0" d="M160,507.2c-2.2,0-1.6,2.1-1.8,3.5c0,0.1-0.3,0.2-0.4,0.2c-4.5-4.6-10-5.2-14.2-1.2
		c-3.3,3.2-4,7.2-3.6,11.6c0.4,4.5,2.1,8.3,6.6,9.8c4.3,1.5,8.3,0.8,11.7-3.9c0,4.4,0,7.8,0,11.2c0,1.2,0.6,2.1,1.9,2.1
		c1.1-0.1,1.7-0.9,1.7-2c0-0.5,0-1.1,0-1.6c0-8.7,0-17.4,0-26.1C161.9,509.4,162.4,507.2,160,507.2z M149.3,528.5
		c-2.2-0.4-3.8-1.6-4.6-3.6c-1.5-3.6-1.6-7.3,0.1-10.9c1.4-2.8,3.8-3.9,6.9-3.7c2.9,0.2,4.8,1.7,5.8,4.4c0.6,1.5,0.7,3.1,0.8,4.7
		C158.3,526,154.7,529.6,149.3,528.5z"/>
	<path id="XMLID_326_" class="st0" d="M202.6,465.5c0,0.6,0,1.3,0,1.9c0,2.7,0,5.4,0,8.1c0,1.4,0,2.7,1.9,2.6
		c1.7-0.1,1.7-1.3,1.7-2.6c0-6.2-0.1-12.5,0-18.7c0-2.2-0.8-2.8-2.9-2.8c-3.2,0.1-6.4-0.1-9.7,0.1c-1.9,0.1-2.1-0.7-2-2.3
		c0.3-3.3,1.6-4.7,5.6-5.4c1.1-0.2,2.4,0,2.2-1.6c-0.2-1.6-1.5-1.2-2.5-1.2c-5.1,0-8.3,2.8-8.8,7.9c-0.2,1.7-0.3,2.9-2.5,2.5
		c-1.2-0.2-2.5,0-2.5,1.7c0,1.8,1.5,1.6,2.6,1.5c1.9-0.2,2.3,0.6,2.3,2.3c-0.1,5.2,0,10.3,0,15.5c0,1.4-0.2,3,1.9,2.9
		c1.9-0.1,1.7-1.6,1.7-2.9c0-5.3,0-10.5,0-15.8c0-1.1-0.2-2,1.5-2.1C202.6,456.4,202.6,456.3,202.6,465.5z"/>
	<path id="XMLID_327_" class="st0" d="M17.2,422.2c0.5,1.1,0.8,2.5,2.6,2.5c1.7,0,2.1-1.2,2.6-2.4c4-9,8-18,12-27.1
		c0.5-1.1,1-2.1,1.4-3.3c0.3-0.9,0.1-1.8-0.9-2.2c-1-0.4-1.9-0.2-2.4,0.8c-0.4,0.9-0.8,1.8-1.2,2.6c-3.7,8.6-7.4,17.1-11.4,26.4
		c-4.2-9.7-8.1-18.8-12-27.8c-0.6-1.3-1.1-2.9-2.9-2.1c-1.9,0.8-1,2.2-0.4,3.5C8.8,402.9,13,412.5,17.2,422.2z"/>
	<path id="XMLID_328_" class="st0" d="M213.8,418.1c-1.2-1.7-2.2,0.3-3.2,0.8c-0.7,0.3-1.3,0.8-1.9,1.2c-7.5,4.1-15.7,0.5-17.4-7.9
		c-0.9-4.5-0.9-9,1-13.3c1.5-3.5,4.2-5.5,8-6.1c4.2-0.7,7.8,0.6,11.1,3.1c0.7,0.6,1.6,1.4,2.4,0.2c0.6-0.9,0.3-1.9-0.4-2.6
		c-0.4-0.4-0.8-0.7-1.2-1c-9.1-6.8-21.9-2.3-24.7,8.6c-1,4.1-1,8.3,0.1,12.4c2,7.2,7.1,11.1,14.9,11.1c3.3,0.2,6.7-0.8,9.7-2.9
		C213.5,420.9,215,419.8,213.8,418.1z"/>
	<path id="XMLID_329_" class="st0" d="M318.2,460.4c-0.4-5.1-4.8-7.8-9.8-6.7c-2.3,0.5-4.3,1.7-6.4,4.3c0-4.7,0-8.3,0-12
		c0-1.4-0.1-2.8-1.9-2.8c-1.7,0.1-1.8,1.5-1.8,2.9c0,9.8,0,19.5,0,29.3c0,1.3,0,2.7,1.9,2.7c1.9,0,1.8-1.5,1.8-2.8
		c0-4.1-0.1-8.2,0.1-12.2c0.3-4.1,3.3-6.5,7.4-6.4c3.6,0.1,5.1,2,5.1,6.6c0,4.2,0,8.4,0,12.6c0,1.1,0.3,2.1,1.8,2.2
		c1.4,0.1,1.9-0.7,1.9-2C318.4,470.9,318.6,465.7,318.2,460.4z"/>
	<path id="XMLID_330_" class="st0" d="M240.4,422.7c0-5.3,0.2-10.5-0.3-15.8c-0.4-5.1-4.7-7.8-9.7-6.8c-2.4,0.5-4.3,1.6-6.4,4.4
		c0-4.7,0-8.3,0-12c0-1.4-0.1-2.8-1.8-2.8c-1.7,0-1.9,1.4-1.9,2.8c0,9.8,0,19.5,0,29.3c0,1.3-0.1,2.7,1.8,2.7c1.9,0,1.8-1.4,1.8-2.7
		c0-4-0.1-7.9,0.1-11.9c0.2-4.3,3.2-6.9,7.4-6.7c3.8,0.1,5.2,2,5.2,6.9c0,4.1,0,8.2,0,12.2c0,1.1,0.2,2.2,1.7,2.2
		C239.8,424.7,240.4,424,240.4,422.7z"/>
	<path id="XMLID_331_" class="st0" d="M330.8,338.4c0,10.2,0,20.4,0,30.6c0,0.9,0.2,1.7,1.2,2c0.7,0.2,1.6,0.3,2-0.5
		c0.3-0.6,0.4-1.4,0.4-2.2c0.1-4.1-0.1-8.2,0.2-12.2c0.3-4.1,3.3-6.5,7.4-6.4c3.6,0.1,5.1,2,5.2,6.7c0,4.2,0,8.4,0,12.6
		c0,1.2,0.3,2.1,1.8,2.2c1.4,0,1.9-0.9,1.9-2c0-5.3,0.1-10.5-0.3-15.8c-0.3-3.8-2.5-5.9-6-6.6c-3.9-0.8-7.1,0.6-10.1,4.1
		c0-4.6,0-8.3,0-12.1c0-1.3-0.3-2.5-1.8-2.5C331.3,336.2,330.8,337.2,330.8,338.4z"/>
	<path id="XMLID_332_" class="st0" d="M337.4,400c-1.6,5.2-1.5,10.4,0.5,15.5c3.7,9.4,16.6,12.5,24.3,5.9c0.4-0.3,0.8-0.7,1.1-1.1
		c0.5-0.8,0.6-1.6-0.1-2.4c-0.7-0.8-1.4-0.2-2,0.2c-0.5,0.3-1,0.8-1.6,1.1c-8.5,5.7-17.7,1.5-19.2-8.5c-0.2-1.2-0.2-2.4-0.3-4.1
		c0.2-1.4,0.3-3.4,0.8-5.2c1.6-6.4,6.4-9.6,13-8.7c2.8,0.4,5,1.8,7.2,3.3c0.7,0.5,1.4,1.2,2.2,0.2c0.6-0.8,0.5-1.7-0.1-2.4
		c-0.4-0.5-0.9-0.9-1.4-1.3C353.3,385.9,340.6,389.8,337.4,400z"/>
	<path id="XMLID_333_" class="st0" d="M132.4,314.5c0,1.4-0.3,3.1,1.9,3c2.2-0.1,1.7-1.8,1.7-3.1c0.1-4-0.1-8,0.2-11.9
		c0.3-4.1,3.4-6.5,7.5-6.3c3.6,0.2,5.1,2,5.1,6.7c0,4.2,0,8.4,0,12.6c0,1.2,0.4,2.1,1.8,2.1c1.4,0,1.9-0.8,1.9-2
		c0-5.2,0.1-10.3-0.2-15.4c-0.3-4.1-3.1-6.3-6.9-7c-3.8-0.7-5.3,0.8-10.3,4.2c0-4.2,0-7.8,0-11.4c0-1.4,0.6-3.1-1.3-3.1
		c-1.9,0-1.6,1.7-1.6,3.2C132.1,295.4,132.4,305,132.4,314.5z"/>
	<path id="XMLID_336_" class="st0" d="M139.2,461.7c-0.1-3.6-1.5-6.5-5.3-7.6c-4.6-1.3-8.7-0.3-12.4,2.5c-0.8,0.6-0.9,1.5-0.4,2.3
		c0.7,0.9,1.5,0.5,2.3,0c2-1.1,4-2,6.3-2.1c4.1-0.2,5.9,1.6,6,5.7c0,1.5-0.4,2-2,2c-2.7,0.1-5.4,0.2-8,0.7c-2.9,0.5-5.3,1.9-5.5,5.4
		c-0.2,3.3,1.4,5.5,4.3,6.9c3.7,1.7,7.2,0.8,10.9-2.9c0.5,1.5-0.3,3.7,2.1,3.5c2.3-0.2,1.7-2.1,1.7-3.5
		C139.4,470.3,139.4,466,139.2,461.7z M135.7,468.8c-0.1,4.7-5.2,7.9-9.3,5.8c-1.6-0.8-2.4-2.1-2.3-3.9c0.1-1.8,1.3-2.5,2.8-3
		c2.4-0.8,4.9-0.5,7.4-0.6C135.7,467,135.8,467.8,135.7,468.8z"/>
	<path id="XMLID_339_" class="st0" d="M65.2,349.7c-0.6,0.5-0.7,1.4-0.3,2.1c0.6,0.9,1.5,0.6,2.3,0.1c2-1.1,4-2.1,6.3-2.2
		c4.2-0.2,6.1,1.7,6.1,6c0,1.5-0.5,1.7-1.9,1.8c-2.6,0.1-5.1,0.3-7.7,0.7c-4.1,0.6-6.1,2.8-5.9,6.3c0.1,3.3,2.8,6.1,6.4,6.6
		c3.5,0.5,6.6-0.4,8.8-3.6c0.7,1.5-0.2,3.7,2.1,3.6c2.5-0.1,1.8-2.3,1.8-3.7c0-4.5,0.1-9-0.2-13.5c-0.3-3.9-2.3-6.2-6-7
		C72.6,345.9,68.7,346.9,65.2,349.7z M78.3,365.5c-1.2,1.6-2.8,2.3-4.7,2.5c-2.9,0.3-5.3-1.2-5.6-3.6c-0.4-3.2,1.9-3.7,4.2-4.2
		c1.1-0.2,2.3-0.2,3.6-0.3c1.2,0.4,3.1-0.7,3.7,0.8C80.1,362.3,79.4,364.1,78.3,365.5z"/>
	<path id="XMLID_342_" class="st0" d="M266,409c-0.1-3.6-1.1-6.8-4.9-8.3c-3.6-1.4-10.6-0.2-12.8,2.2c-0.7,0.8-1.2,1.7-0.4,2.6
		c0.7,0.9,1.6,0.3,2.3-0.1c1.8-1,3.7-1.8,5.7-2.1c4.3-0.5,6.3,1.3,6.5,5.5c0.1,1.5-0.2,2.3-2,2.3c-2.7,0-5.4,0.2-8,0.7
		c-2.8,0.5-5,1.9-5.4,5.1c-0.4,2.9,1.2,5.6,4.1,7c3.6,1.7,7.3,0.9,11.1-2.6c0.3,1.7,0,3.7,2.3,3.4c2.1-0.3,1.5-2.1,1.5-3.3
		C266,417.2,266,413.1,266,409z M261.3,418.7c-1.2,1.8-2.9,2.7-5.1,2.9c-2.9,0.3-5.2-1.3-5.5-3.7c-0.4-3.1,1.9-3.7,4.2-4.1
		c1.2-0.3,2.5-0.2,3.8-0.3c1.2,0.3,2.9-0.6,3.5,0.7C262.8,415.6,262.2,417.3,261.3,418.7z"/>
	<path id="XMLID_345_" class="st0" d="M279.3,371c2.1-0.3,1.5-2.1,1.5-3.3c0.1-4.1,0.1-8.2,0-12.2c-0.1-3.6-1-6.8-4.8-8.3
		c-3.6-1.4-10.6-0.2-12.8,2.2c-0.7,0.8-1.2,1.7-0.4,2.6c0.7,0.9,1.5,0.3,2.3-0.1c1.8-1,3.7-1.8,5.7-2.1c4.4-0.5,6.5,1.5,6.5,5.8
		c0,1.6-0.6,1.9-2,1.9c-2.7,0.1-5.4,0.3-8,0.7c-2.8,0.5-5,1.9-5.4,5.1c-0.4,2.9,1.2,5.6,4.1,7c3.6,1.7,7.2,1,11-2.5
		C277.4,369.2,276.9,371.4,279.3,371z M276.1,365.3c-1.1,1.6-2.6,2.4-4.5,2.7c-3,0.4-5.6-1.1-5.9-3.5c-0.5-3.3,2-3.8,4.3-4.3
		c1.1-0.2,2.3-0.2,3.4-0.3c1.3,0.3,3-0.6,3.6,0.5C277.7,362,277.1,363.8,276.1,365.3z"/>
	<path id="XMLID_348_" class="st0" d="M323.4,355.5c-0.1-3.6-1-6.8-4.8-8.3c-3.6-1.4-10.6-0.2-12.8,2.2c-0.7,0.8-1.2,1.7-0.4,2.6
		c0.7,0.9,1.5,0.3,2.3-0.1c1.8-1,3.7-1.8,5.7-2.1c4.4-0.5,6.5,1.5,6.5,5.8c0,1.7-0.6,1.9-2,1.9c-2.7,0.1-5.4,0.3-8,0.7
		c-2.8,0.5-5,1.9-5.4,5.1c-0.4,2.9,1.2,5.6,4.1,7c3.6,1.7,7.2,1,11-2.5c0.6,1.4,0.1,3.6,2.4,3.3c2.1-0.3,1.5-2.1,1.5-3.3
		C323.5,363.6,323.5,359.5,323.4,355.5z M318.9,364.9c-1,1.6-2.4,2.6-4.3,3c-3.2,0.6-5.9-0.7-6.4-3.2c-0.5-2.6,1-4,4.8-4.5
		c1.1-0.1,2.1-0.1,3.3-0.2c1.1,0.3,2.7-0.7,3.3,0.7C320.2,362,319.7,363.6,318.9,364.9z"/>
	<path id="XMLID_351_" class="st0" d="M95.8,403.1c-0.6,0.7-0.9,1.5-0.2,2.4c0.6,0.8,1.4,0.4,2,0.1c2-1.1,4-2.1,6.3-2.3
		c4.2-0.3,6.2,1.6,6.2,5.8c0,1.6-0.5,1.9-2,2c-2.8,0.1-5.6,0.3-8.3,0.8c-2.7,0.5-4.8,1.9-5.1,5c-0.3,3.1,1.1,5.4,3.7,6.9
		c3.5,2,7.6,1.1,11.3-2.4c0.6,1.4,0,3.6,2.4,3.3c2.3-0.3,1.5-2.3,1.5-3.6c0.1-4.3,0.1-8.6-0.1-12.9c-0.2-4.1-2-6.5-5.4-7.5
		C104.5,399.4,97.6,400.8,95.8,403.1z M108.8,419.1c-1.3,1.8-3.1,2.6-5.2,2.6c-2.5,0-4.7-0.9-5.1-3.8c-0.4-2.9,1.8-3.5,4-4
		c1.2-0.3,2.5-0.3,3.8-0.4c1.2,0.5,3-0.8,3.7,0.8C110.6,415.9,109.9,417.6,108.8,419.1z"/>
	<path id="XMLID_354_" class="st0" d="M209.7,507.8c-6.2-2.1-12.3,1.2-14,7.7c-1.3,5.3-0.9,10.3,3.6,14.1c3.4,2.9,10.1,3,14.3,0.5
		c1.2-0.7,2.8-1.5,1.9-3.2c-1-1.8-2.2-0.1-3.2,0.3c-0.8,0.3-1.5,0.8-2.3,1.1c-5.5,1.8-10.4-1-11.1-6.4c-0.2-1.4,0.1-2,1.6-1.9
		c2.1,0.1,4.3,0,6.4,0c2.3,0,4.5,0,6.8,0c1.2,0,2-0.3,2.2-1.7C216.7,514.2,213.7,509.1,209.7,507.8z M210.8,517.5
		c-1.6-0.1-3.2,0-4.8,0c-1.8,0-3.6,0-5.4,0c-0.9,0-1.6,0-1.5-1.3c0.4-2.9,3.1-5.5,6.4-5.7c3.8-0.3,6.4,1.6,7.2,4.9
		C213,517,212.6,517.6,210.8,517.5z"/>
	<path id="XMLID_357_" class="st0" d="M333.6,453.8c-4.7,1-8,4.3-8.7,9.2c-0.8,5.1-0.4,10.1,4.3,13.3c4.5,3,9.3,2.6,14,0.2
		c1.2-0.6,2.8-1.6,1.8-3.2c-1-1.6-2.2,0.1-3.3,0.4c-0.8,0.3-1.5,0.8-2.3,1.1c-5.3,1.7-9.6-0.7-10.7-5.6c-0.5-2.1,0-2.9,2.2-2.7
		c1.9,0.2,3.9,0,5.8,0c2.3,0,4.5,0,6.8,0c1.3,0,1.9-0.5,2.1-1.9C346.2,458,340.1,452.4,333.6,453.8z M340,463.9
		c-1.6-0.2-3.2,0-4.8,0c-1.2,0-2.4,0.1-3.5,0c-1-0.1-2.4,0.6-3-0.4c-0.6-1.2,0.2-2.5,0.9-3.6c1.7-2.7,4.3-3.5,7.3-3
		c2.5,0.4,4.3,1.8,5,4.4C342.4,463,342.4,464.2,340,463.9z"/>
	<path id="XMLID_360_" class="st0" d="M163.5,316c3.6,2.4,10.6,2,14.1-0.5c1-0.7,2-1.6,1.2-2.9c-0.8-1.4-1.9-0.2-2.8,0.2
		c-0.8,0.3-1.5,0.8-2.3,1.1c-5.2,2-9.9-0.1-11.2-5.1c-0.5-2-0.5-3.3,2.2-3c1.9,0.2,3.9,0,5.8,0c2.1,0,4.3-0.1,6.4,0
		c1.6,0.1,2.3-0.6,2.4-2.2c0.5-6.8-5.5-12-12.2-10.4c-4.7,1.1-7.9,4.6-8.5,9.7C157.9,308.1,158.7,312.9,163.5,316z M163.4,299.3
		c1.7-2.9,4.5-3.5,7.5-3c2.7,0.4,4.3,2.1,5,4.8c0.4,1.6,0.1,2.4-1.8,2.2c-1.6-0.1-3.2,0-4.8,0c-1.3,0-2.6,0.1-3.8,0
		c-1-0.1-2.5,0.5-3-0.4C161.9,301.7,162.7,300.4,163.4,299.3z"/>
	<path id="XMLID_363_" class="st0" d="M17.3,371.1c2.8,0,6.2-1,7.7-2.4c0.9-0.8,1.5-1.7,0.7-2.8c-0.7-1-1.5-0.2-2.3,0.1
		c-1,0.4-1.9,1.1-2.9,1.4c-5.5,2-10.3-0.6-11.3-5.9c-0.3-1.7,0.1-2.2,1.9-2.2c4.2,0.1,8.4,0,12.6,0c1.3,0,2.3-0.1,2.5-1.7
		c0.7-4.2-2.3-9.2-6.3-10.5c-4.4-1.5-8.4-0.6-11.4,2.9c-3.8,4.4-4,9.6-2,14.8C8.4,369.3,12.1,371.2,17.3,371.1z M10.5,352.8
		c1.7-2.9,4.5-3.5,7.5-3.1c2.7,0.4,4.3,2.1,5,4.8c0.4,1.6,0.2,2.4-1.8,2.2c-1.6-0.2-3.2,0-4.8,0c-1.3,0-2.6,0.1-3.8,0
		c-1-0.1-2.5,0.5-3-0.4C8.9,355.3,9.8,353.9,10.5,352.8z"/>
	<path id="XMLID_366_" class="st0" d="M156.9,400.3c-4.7,1.1-7.9,4.5-8.7,9.6c-0.9,5.7,1.1,11,5.1,13.3c3.8,2.2,10.8,1.9,14.1-0.7
		c1-0.8,1.9-1.7,1-3c-0.8-1.1-1.7-0.2-2.5,0.2c-0.9,0.4-1.7,0.9-2.6,1.3c-5.6,2.1-10.7-0.8-11.4-6.2c-0.2-1.3,0-2,1.6-1.9
		c2.1,0.1,4.3,0,6.4,0c2.3,0,4.5,0,6.8,0c1.5,0,2.1-0.5,2.2-2C169.6,404.2,163.5,398.8,156.9,400.3z M163.7,410.4
		c-1.6-0.1-3.2,0-4.8,0c-1.7,0-3.4-0.1-5.1,0c-2,0.1-2-0.7-1.5-2.3c1.1-3.3,3.7-5,7.4-4.8c3.1,0.2,5.2,2,5.9,4.9
		C165.9,409.8,165.5,410.5,163.7,410.4z"/>
	<path id="XMLID_369_" class="st0" d="M62.6,315.2c1.6,1.3,3.4,2.2,5.6,2.3c7.9,0.5,12.7-4.1,12.7-13.3c-0.1-3.6-1.4-7.7-5.8-10
		c-4.1-2.1-8.2-1.8-11.9,0.9C57.4,299.2,57.1,310.7,62.6,315.2z M63.1,300.8c1.2-3.4,4.2-5.1,7.9-4.6c4.6,0.7,7.1,5.9,5.8,12.2
		c-1,4.8-4.6,7.1-9.3,5.8c-3.4-0.9-5.1-3.9-5.1-9C62.4,303.7,62.6,302.2,63.1,300.8z"/>
	<path id="XMLID_372_" class="st0" d="M16.5,507.1c-6.6,0-11,4.9-11.1,12.3c0,7.6,4.1,12.3,10.9,12.3c6.9,0,11.2-4.5,11.2-12
		C27.7,512.2,23.2,507.1,16.5,507.1z M14.4,528.4c-0.1,0-0.2,0-0.3-0.1c-3.7-1.1-5.7-5.8-4.7-11.5c0.7-4.3,3.4-6.6,7.4-6.6
		c4.5,0.1,7.2,3.6,7.1,9.3C23.9,526.3,20,529.9,14.4,528.4z"/>
	<path id="XMLID_375_" class="st0" d="M52.1,466.3c0.1-7.6-4.3-12.7-11-12.7c-6.6,0-11.1,4.9-11.1,12.3c0,7.6,4.1,12.3,10.9,12.3
		C47.8,478.2,52,473.7,52.1,466.3z M33.7,465.9c0-6.1,2.9-9.4,7.9-9.1c3,0.2,5.1,1.8,6,4.6c1.3,4.1,1.5,8.4-1.6,11.9
		c-2.1,2.4-5,2.5-7.7,1.5C34.3,473.2,33.8,469.6,33.7,465.9z"/>
	<path id="XMLID_378_" class="st0" d="M280.9,317.5c6.9,0,11.2-4.5,11.3-11.9c0.1-7.6-4.3-12.7-11-12.7c-6.6,0-11.1,4.9-11.1,12.3
		C270,312.8,274.1,317.5,280.9,317.5z M273.9,302.5c0.8-4.6,4.2-7.1,8.5-6.4c3.8,0.6,6,4,6,9.1c0.1,6.7-3.7,10.3-9.3,9
		C274.9,313.3,272.8,308.5,273.9,302.5z"/>
	<path id="XMLID_381_" class="st0" d="M379.2,400c-6.6-0.1-11.1,4.9-11.1,12.3c0,7.6,4.1,12.3,10.8,12.4c7.1,0,11.3-4.6,11.3-12.2
		C390.2,405,385.8,400.1,379.2,400z M384.1,419.6c-2.1,2.4-5,2.4-7.8,1.5c-3-0.9-4.6-4.1-4.6-8.8c0-6.2,3-9.6,8.1-9.1
		c3,0.3,5,2,5.8,4.8C386.9,412.1,387.2,416.2,384.1,419.6z"/>
	<path id="XMLID_382_" class="st0" d="M189,510.4c0-1.4,0.2-3.1-1.8-3.1c-1.9,0-1.9,1.6-1.9,3.1c0,4.1,0.1,8.2-0.2,12.2
		c-0.3,4-3.4,6.5-7.2,6.2c-3.5-0.2-4.9-2-5-6.5c-0.1-4.2,0-8.4,0-12.6c0-1.3-0.3-2.5-1.8-2.5c-1.5,0-1.8,1.2-1.8,2.5
		c0,4.8-0.1,9.7,0.1,14.5c0.3,5.1,3.2,7.4,8.1,7.6c3.2,0.1,5.5-1.3,7.5-3.7c0.8,1.4-0.3,3.9,2.4,3.6c2.3-0.3,1.5-2.3,1.5-3.6
		C189.1,522.2,189,516.3,189,510.4z"/>
	<path id="XMLID_383_" class="st0" d="M106,514.2c-0.2-3.9-2.5-6.2-6.1-6.9c-3.9-0.8-7.1,0.6-9.7,3.7c-0.7-1.5,0.1-4-2.3-3.7
		c-2.5,0.2-1.7,2.6-1.7,4.1c-0.1,5.7-0.1,11.4,0,17.1c0,1.4-0.5,3.3,1.9,3.2c2.2-0.1,1.7-1.9,1.7-3.2c0.1-3.9-0.1-7.7,0.1-11.6
		c0.2-4.3,3.3-6.8,7.5-6.6c3.6,0.2,5,2,5.1,6.7c0,4.2,0,8.4,0,12.6c0,1.2,0.4,2.1,1.8,2.1c1.4,0,1.9-0.8,1.9-2.1
		C106.2,524.5,106.3,519.4,106,514.2z"/>
	<path id="XMLID_384_" class="st0" d="M233.7,460.7c-0.2-3.9-2.5-6.2-6.1-6.9c-3.9-0.8-7.1,0.6-9.8,3.6c-0.7-1.4,0.1-3.9-2.3-3.7
		c-2.6,0.2-1.7,2.6-1.7,4.1c-0.1,5.6-0.1,11.2,0,16.7c0,1.4-0.7,3.6,1.9,3.6c2.4,0,1.7-2.1,1.7-3.4c0.1-3.8-0.1-7.5,0.1-11.3
		c0.2-4.3,3.2-6.8,7.5-6.6c3.6,0.2,5,2,5.1,6.7c0,4.2,0,8.4,0,12.6c0,1.2,0.4,2.1,1.8,2.1c1.4,0,1.9-0.8,1.9-2
		C233.9,471,234,465.8,233.7,460.7z"/>
	<path id="XMLID_385_" class="st0" d="M166.6,460.6c-0.2-3.9-2.5-6.1-6.1-6.9c-3.9-0.8-7.1,0.7-9.8,3.8c-0.5-1.7,0.2-4-2.2-3.9
		c-2.3,0.2-1.7,2.4-1.7,3.9c-0.1,5.8,0,11.6,0,17.4c0,1.4-0.4,3.3,2,3.2c2.2-0.1,1.6-1.9,1.7-3.2c0.1-3.9-0.1-7.7,0.1-11.6
		c0.2-4.3,3.3-6.8,7.5-6.6c3.6,0.2,5,2,5,6.7c0,4.2,0,8.4,0,12.6c0,1.2,0.4,2.1,1.9,2.1c1.4,0,1.8-0.9,1.8-2.1
		C166.8,470.9,166.9,465.8,166.6,460.6z"/>
	<path id="XMLID_386_" class="st0" d="M53.8,514.7c-0.4-5.6-4.8-8.6-10.2-7.4c-2.3,0.5-4.1,1.7-5.8,3.9c-0.6-1.9,0.1-4.3-2.4-4
		c-2.1,0.2-1.5,2.2-1.6,3.7c0,6,0,12,0,18c0,1.3-0.1,2.7,1.8,2.8c1.9,0,1.8-1.4,1.8-2.7c0-4.1-0.1-8.2,0.1-12.2
		c0.2-4.1,3.3-6.6,7.4-6.4c3.7,0.1,5.2,1.9,5.2,6.6c0.1,4.2,0,8.4,0,12.6c0,1.3,0.4,2.3,2,2.3c1.5-0.1,1.7-1.1,1.7-2.2
		C53.9,524.6,54.1,519.6,53.8,514.7z"/>
	<path id="XMLID_387_" class="st0" d="M62.9,403.3c3.6,0.2,5,2,5,6.7c0,4.2,0,8.4,0,12.6c0,1.2,0.4,2.1,1.9,2.1
		c1.4,0,1.9-0.9,1.9-2.1c0-5.2,0.1-10.3-0.2-15.4c-0.2-3.5-2.1-6-5.8-6.8c-4.1-0.9-7.3,0.5-10.1,3.6c-0.7-1.5,0.1-4-2.2-3.8
		c-2.5,0.2-1.7,2.6-1.7,4.1c-0.1,5.7-0.1,11.4,0,17.1c0,1.4-0.5,3.3,1.9,3.2c2.2-0.1,1.6-1.9,1.6-3.2c0.1-4-0.1-8,0.2-11.9
		C55.7,405.4,58.8,403,62.9,403.3z"/>
	<path id="XMLID_388_" class="st0" d="M76.2,478.2c1.5,0,1.8-1,1.8-2.1c0-6.8,0-13.5,0-20.3c0-0.9-0.4-1.7-1.2-2.1
		c-0.8-0.3-1.5,0.1-2,0.7c-0.6,0.7-0.4,1.6-0.4,2.5c0,4,0.1,7.9-0.1,11.9c-0.2,4-3.2,6.5-7,6.4c-3.6-0.1-5.1-1.9-5.2-6.6
		c-0.1-4.2,0-8.4,0-12.6c0-1.3-0.4-2.5-1.9-2.4c-1.3,0.1-1.7,1.1-1.7,2.3c0,5-0.2,10.1,0.2,15.1c0.3,4.7,3.2,7,7.8,7.2
		c3.2,0.1,5.6-1,7.9-3.8C74.7,476,73.7,478.1,76.2,478.2z"/>
	<path id="XMLID_389_" class="st0" d="M214.6,346.7c-1.7-0.7-2.1,1-2.6,2.1c-2.5,5.6-4.9,11.2-7.7,17.6c-2.7-6.2-5.1-11.7-7.5-17.1
		c-0.6-1.2-0.8-3.4-3-2.5c-2.1,0.9-0.9,2.5-0.3,3.8c1.9,4.3,3.6,8.8,5.9,12.9c2.5,4.5,3.2,8.6,0.1,13c-0.7,1-1.4,2.5,0.3,3.3
		c1.7,0.7,2.1-0.9,2.7-2c4.2-9.2,8.4-18.4,12.6-27.6C215.7,348.9,216.4,347.4,214.6,346.7z"/>
	<path id="XMLID_390_" class="st0" d="M89,346.7c-1.6,0.7-1.3,1.9-0.7,3.2c1.9,4,3.4,8.1,5.5,12c2.7,5,4.6,9.8,0.6,15.1
		c-0.7,0.9-0.8,2.1,0.5,2.7c1.3,0.7,2-0.3,2.5-1.3c4.4-9.7,8.8-19.3,13.2-29c0.5-1.2,0.4-2.2-0.8-2.7c-1.3-0.6-1.9,0.4-2.4,1.5
		c-0.6,1.3-1.1,2.6-1.7,3.8c-2,4.6-4,9.2-6.3,14.4c-2.8-6.4-5.3-12.2-7.9-17.9C91.1,347.3,90.5,346,89,346.7z"/>
	<path id="XMLID_391_" class="st0" d="M11,483.3c-0.7,1.1-1.7,2.7,0.2,3.5c1.9,0.8,2.2-1.1,2.8-2.3c4.2-9.1,8.3-18.2,12.4-27.3
		c0.6-1.3,1.4-2.8-0.5-3.5c-1.7-0.6-2.1,1-2.6,2.2c-2.5,5.6-4.9,11.2-7.7,17.5c-2.8-6.4-5.3-12.1-7.8-17.8c-0.5-1.2-1-2.6-2.7-1.8
		c-1.6,0.7-1.1,2-0.5,3.3c2.1,4.6,3.9,9.3,6.4,13.7C13.4,475.2,13.9,479.1,11,483.3z"/>
	<path id="XMLID_392_" class="st0" d="M368.9,369c2.4,1.7,5.1,2.3,7.9,2.1c0.9,0,1.7,0,2.6-0.1c3.7-0.5,6.3-2.8,6.6-6
		c0.3-3.4-1.1-5.3-5.2-6.7c-2-0.7-4.1-1.1-6.2-1.7c-1.5-0.5-2.7-1.3-2.6-3.2c0.1-1.9,1.2-2.9,2.9-3.4c2.5-0.8,4.8-0.2,7.1,1.1
		c1,0.5,2.2,2.2,3.2,0.6c1-1.7-0.5-2.8-1.8-3.5c-3.6-2-7.3-2.3-11.1-0.4c-2.5,1.3-3.9,3.2-3.9,6.2c0,2.9,1.8,4.5,4.2,5.4
		c2.1,0.8,4.3,1.2,6.5,1.9c1.8,0.5,3.5,1.3,3.3,3.6c-0.2,2.3-2,2.8-3.9,3.2c-2.9,0.5-5.5-0.2-8-1.7c-0.9-0.5-2-1.3-2.8,0
		C367.2,367.4,368,368.3,368.9,369z"/>
	<path id="XMLID_393_" class="st0" d="M307.7,403.4c2.5-0.6,4.9,0.1,7,1.4c0.9,0.6,2,1.9,2.9,0.2c0.7-1.3-0.3-2.3-1.3-3
		c-3.5-2.2-7.2-2.8-11-1.2c-2.8,1.1-4.6,3.1-4.6,6.3c0,3.2,2,4.8,4.7,5.7c2.1,0.7,4.3,1.2,6.5,1.8c1.7,0.5,3,1.3,2.9,3.3
		c-0.1,2.1-1.6,2.9-3.4,3.3c-3.1,0.7-5.9,0-8.6-1.6c-0.8-0.5-1.9-1.1-2.6-0.1c-0.7,1.1-0.1,2.1,0.9,2.8c2.3,1.7,5,2.3,7.9,2.3
		c1.2-0.1,2.4,0,3.5-0.3c3.4-0.7,5.6-3.1,5.8-6c0.2-3.3-1.1-5.2-5-6.4c-2-0.7-4.1-1.1-6.2-1.8c-1.6-0.5-2.9-1.4-2.8-3.4
		C304.5,404.8,306,403.8,307.7,403.4z"/>
	<path id="XMLID_394_" class="st0" d="M172,354c0.1,2.7,1.8,4.3,4.1,5.2c2.2,0.8,4.5,1.3,6.8,2c1.7,0.5,3.3,1.2,3.1,3.4
		c-0.2,2.3-1.8,2.9-3.7,3.3c-3,0.6-5.7-0.2-8.3-1.7c-0.9-0.5-1.9-1.1-2.6,0c-0.7,1.1,0,2.1,0.9,2.7c2.4,1.7,5,2.3,7.9,2.2
		c1.1-0.1,2.2,0,3.2-0.2c3.5-0.6,5.9-3.1,6.1-6.1c0.2-3.3-1.1-5.1-5.1-6.4c-1.9-0.6-3.9-1.1-5.9-1.7c-1.7-0.5-3.2-1.3-3-3.6
		c0.2-2.2,1.8-3.1,3.7-3.4c2.4-0.5,4.6,0.2,6.7,1.6c0.8,0.5,1.8,1.7,2.8,0.4c1-1.4-0.1-2.5-1.2-3.2c-3.8-2.5-7.8-2.9-11.9-0.8
		C173.2,349,171.9,351.1,172,354z"/>
	<path id="XMLID_395_" class="st0" d="M236.8,296.7c4.4-0.9,3.5,2.2,3.5,4.6c0,1.8,0,3.6,0,5.5c0,2.6,0,5.1,0,7.7c0,1.4-0.2,3,1.9,3
		c1.9,0,1.7-1.6,1.7-2.8c0-3.9,0-7.7,0-11.6c0-2-0.8-4.4,0.4-5.9c0.9-1.2,3.2-0.3,4.9-0.4c1-0.1,1.7-0.5,1.7-1.5
		c0-1-0.5-1.6-1.5-1.7c-1.1-0.1-2.2-0.1-3.2,0c-1.8,0.2-2.5-0.4-2.2-2.3c0.4-3.3,1.6-4.5,6-5.3c1-0.2,2-0.2,2-1.5
		c0-1.4-1.2-1.2-2.1-1.3c-5.1-0.2-8.7,2.4-9.3,7.3c-0.3,2.2-0.5,3.6-3.2,3.2c-1.1-0.2-1.9,0.5-1.9,1.7
		C235.4,296.1,236,296.9,236.8,296.7z"/>
	<path id="XMLID_396_" class="st0" d="M114.1,296.8c3-0.5,3.4,1,3.1,3.4c-0.2,1.4,0,2.8,0,4.2c0,1.6,0,3.2,0,4.8
		c0.1,5.8,2.5,8.2,8.2,8.4c1.2,0,2.6,0.4,2.7-1.4c0-1.5-1.4-1.3-2.4-1.4c-3.8-0.5-4.7-1.6-4.8-5.4c-0.1-2.8,0.2-5.6-0.1-8.4
		c-0.3-3.2,0.5-4.8,4-4.2c1.1,0.2,2.9,0.5,3-1.4c0.1-2.1-1.7-2-3.1-1.8c-3.2,0.5-4.5-0.7-3.9-3.9c0.1-0.6,0-1.3,0-1.9
		c-0.1-0.9-0.7-1.3-1.5-1.4c-0.9,0-1.8,0.2-1.9,1.2c-0.1,0.7-0.1,1.5-0.1,2.2c0.1,2.2,0.3,4.4-3.1,3.7c-1.1-0.2-1.8,0.6-1.7,1.8
		C112.4,296.5,113.2,296.9,114.1,296.8z"/>
	<path id="XMLID_397_" class="st0" d="M85.1,296.8c3-0.5,3.4,1,3.1,3.4c-0.2,1.4,0,2.8,0,4.2c0,1.6,0,3.2,0,4.8
		c0.1,5.8,2.5,8.2,8.2,8.4c1.2,0,2.6,0.4,2.7-1.4c0-1.5-1.4-1.3-2.4-1.4c-3.8-0.5-4.7-1.6-4.8-5.4c-0.1-2.8,0.2-5.6-0.1-8.4
		c-0.3-3.2,0.5-4.8,4-4.2c1.1,0.2,2.9,0.5,3-1.4c0.1-2.1-1.7-2-3.1-1.8c-3.2,0.5-4.5-0.7-3.9-3.9c0.1-0.6,0-1.3,0-1.9
		c-0.1-0.9-0.7-1.3-1.5-1.4c-0.9,0-1.8,0.2-1.9,1.2c-0.1,0.7-0.1,1.5-0.1,2.2c0.1,2.2,0.3,4.4-3.1,3.7c-1.1-0.2-1.8,0.6-1.7,1.8
		C83.4,296.5,84.1,296.9,85.1,296.8z"/>
	<path id="XMLID_398_" class="st0" d="M115.9,473.3c-0.9-1.2-1.9-0.2-2.8,0.3c-7.1,3.9-12.6,0.6-12.6-7.6c0-8.2,5.5-11.3,12.7-7.4
		c0.8,0.4,1.6,1.4,2.5,0.4c1-1.2,0.1-2.3-0.8-3c-2.7-2-5.8-2.8-9.1-2.1c-7.2,1.5-11,9.2-8.4,17.1c2.3,7.2,11.4,10,17.4,5.3
		C115.8,475.4,116.8,474.5,115.9,473.3z"/>
	<path id="XMLID_399_" class="st0" d="M91.2,423.3c0.1-1.6-1.3-1.3-2.4-1.5c-3.8-0.5-4.8-1.5-4.9-5.4c-0.1-2.1,0-4.3,0-6.4
		c0-1.9-0.5-4.2,0.3-5.6c0.8-1.3,3.2-0.3,4.8-0.5c1-0.1,1.7-0.4,1.8-1.4c0.1-1.2-0.7-1.7-1.8-1.8c-0.3,0-0.7-0.1-1,0
		c-3.9,0.8-4.9-1.1-4.3-4.5c0.1-0.5,0-1.1-0.1-1.6c-0.2-0.9-0.9-1.1-1.7-1.1c-0.8,0-1.5,0.3-1.7,1.2c-0.1,0.7-0.1,1.5-0.1,2.2
		c0,2.1,0.5,4.5-3.1,3.8c-1.1-0.2-1.8,0.6-1.8,1.7c0,1.1,0.8,1.6,1.7,1.4c3.5-0.7,3.2,1.5,3.1,3.7c0,1.3,0,2.6,0,3.9
		c0,1.6,0,3.2,0,4.8c0.1,5.8,2.5,8.2,8.2,8.4C89.7,424.7,91.1,425,91.2,423.3z"/>
	<path id="XMLID_400_" class="st0" d="M123.3,529c-3.4-0.1-4.8-2-4.8-5.2c0-2.8,0-5.6,0-8.4c0-4.3,0-4.3,4.4-4.4
		c1.2,0,2.6,0.3,2.6-1.5c0-1.9-1.5-1.7-2.8-1.7c-0.5,0-1.1-0.1-1.6,0c-2.2,0.4-2.7-0.6-2.7-2.7c0-1.6,1.2-4.3-1.6-4.4
		c-3.2-0.1-1.7,2.8-1.9,4.4c-0.1,1.7-0.1,3-2.4,2.6c-1.2-0.2-2.5-0.1-2.6,1.6c-0.1,1.8,1.4,1.7,2.5,1.6c2.1-0.3,2.5,0.7,2.4,2.6
		c-0.1,3.3-0.1,6.7,0,10c0.1,5.7,2.4,8,8.6,8.3c0.5,0,2,0.5,2.2-1.2C126,528.8,124.4,529,123.3,529z"/>
	<path id="XMLID_401_" class="st0" d="M155,350.3c2.1-0.3,2.5,0.6,2.5,2.5c-0.1,3.4-0.1,6.9,0,10.3c0.1,5.4,2.5,7.7,8.5,8
		c0.6,0,2.1,0.5,2.3-1.1c0.3-1.8-1.3-1.7-2.4-1.7c-3.4-0.1-4.8-2-4.8-5.1c0-3.4,0.1-6.9-0.1-10.3c-0.1-2.3,0.8-2.6,2.8-2.6
		c1.5,0,4.1,1.2,4.2-1.4c0.1-2.9-2.7-1.7-4.3-1.7c-2.1,0-2.7-0.6-2.7-2.7c0-1.6,1.4-4.5-1.8-4.4c-2.8,0.1-1.6,2.8-1.6,4.4
		c0,2-0.4,3-2.7,2.7c-1.1-0.2-2.3,0.1-2.3,1.5C152.5,350.4,153.9,350.4,155,350.3z"/>
	<path id="XMLID_402_" class="st0" d="M291.7,475.4c-3.4-0.1-4.8-2-4.8-5.2c0-3,0.2-6-0.1-9c-0.3-3.1,0.6-4.3,3.8-3.8
		c1.2,0.2,3.2,0.7,3.3-1.4c0.1-2.1-1.8-1.9-3.1-1.7c-3.3,0.5-4.4-0.8-3.9-4c0.2-1.2,0.6-3.1-1.6-3.2c-2.4-0.1-2,1.8-1.9,3.2
		c0.1,2.4,0.3,4.6-3.3,4c-0.9-0.2-1.6,0.5-1.7,1.5c0,1.1,0.6,1.7,1.6,1.6c3.8-0.7,3.4,1.8,3.4,4.2c0,1.2,0,2.4,0,3.5
		c0,1.6,0,3.2,0,4.8c0.1,5.7,2.6,8.1,8.3,8.3c1.1,0,2.4,0.3,2.6-1.2C294.3,475.3,292.8,475.4,291.7,475.4z"/>
	<path id="XMLID_403_" class="st0" d="M7.4,314.8c0,1.4,0.1,2.7,2,2.7c1.9,0,1.8-1.5,1.8-2.8c0-9.7,0-19.3,0-29c0-1.4,0-3.1-1.9-3.1
		c-1.9,0-1.8,1.7-1.8,3.1c0,4.8,0,9.7,0,14.5C7.4,305.2,7.4,310,7.4,314.8z"/>
	<path id="XMLID_404_" class="st0" d="M77.9,513.8c0-3,0-9.5,0-14.5c0-1.4-0.2-2.6-1.9-2.6c-1.7,0-1.9,1.5-1.9,2.9
		c0,9.8,0,19.6,0,29.4c0,1.3,0,2.7,1.9,2.7c1.9,0,1.9-1.8,1.9-3.1C78,523.8,78,518.8,77.9,513.8C78,513.8,78,513.8,77.9,513.8z"/>
	<path id="XMLID_405_" class="st0" d="M298.9,346.9c-2.9,0.1-5,1.7-6.8,3.8c-0.1-0.5-0.2-0.7-0.3-0.9c-0.1-1.4,0.2-3.2-1.7-3.3
		c-2.1-0.1-1.9,1.8-1.9,3.4c0,5.9,0,11.8,0,17.7c0,1.4-0.6,3.3,1.8,3.4c2.5,0.1,1.8-1.9,1.9-3.3c0.1-2.8,0-5.6,0-8.4
		c0-6.6,1-7.8,7.6-9.2c1.1-0.2,2.3-0.5,2.1-1.9C301.4,346.6,300.1,346.9,298.9,346.9z"/>
	<path id="XMLID_406_" class="st0" d="M295.6,400.4c-2.9,0.1-5.2,1.5-7.4,4.2c0-1-0.1-1.4-0.1-1.8c0-1.4-0.1-2.9-1.8-2.8
		c-1.6,0.1-1.7,1.6-1.7,3c0,6.2,0,12.5,0,18.7c0,1.3-0.2,2.8,1.7,2.8c2.2,0.1,1.9-1.6,1.9-3c0-2.5,0-4.9,0-7.4c0-8,0.3-8.5,7.9-10.5
		c1-0.3,1.9-0.6,1.8-1.9C297.9,400.3,296.7,400.4,295.6,400.4z"/>
	<path id="XMLID_505_" class="st0" d="M254.9,315.3c0,1.4,0.3,2.3,2,2.3c1.5-0.1,1.6-1.1,1.6-2.3c0-2.8,0-5.6,0-8.4
		c0-7.7,0.5-8.4,7.9-10.3c1.1-0.3,2.1-0.7,1.8-2.1c-0.2-1.3-1.3-1.2-2.3-1.2c-2.9,0.1-5.3,1.4-7.4,4.2c-0.1-1-0.1-1.3-0.1-1.7
		c0-1.4-0.1-2.9-1.8-2.8c-1.7,0.1-1.7,1.6-1.7,2.9C254.9,302.4,254.9,308.8,254.9,315.3z"/>
	<path id="XMLID_506_" class="st0" d="M42.2,400.1c-1.7-0.1-1.9,1.3-1.9,2.7c0,6.3,0,12.7,0,19c0,1.3-0.1,2.8,1.8,2.8
		c2.2,0,1.9-1.6,1.9-3c0-3,0-6,0-9c0-3.2,0-6.4,0-9.7C44,401.6,43.9,400.1,42.2,400.1z"/>
	<path id="XMLID_507_" class="st0" d="M131.8,507.2c-1.5,0-1.8,1.2-1.8,2.5c0,6.6,0,13.1,0,19.7c0,1.3,0.2,2.4,1.9,2.4
		c1.7,0,1.8-1.1,1.8-2.4c0-3.2,0-6.4,0-9.7c0-3.3,0-6.7,0-10C133.7,508.3,133.3,507.2,131.8,507.2z"/>
	<path id="XMLID_508_" class="st0" d="M275,400.1c-1.5,0.1-1.8,1.3-1.7,2.6c0,3.1,0,6.2,0,9.4c0,3.3,0,6.7,0,10c0,1.4,0.1,2.7,2,2.6
		c1.7,0,1.7-1.3,1.7-2.5c0-6.4,0-12.9,0-19.3C277,401.4,276.8,400,275,400.1z"/>
	<path id="XMLID_509_" class="st0" d="M222.7,520.5c0,0.9,0,2,1.1,1.9c1.1,0,1.1-1.1,1.1-2c0.4-6.9,0.7-13.7,1.1-20.6
		c0.1-1.6-0.3-2.9-2.1-3c-2-0.1-2.4,1.4-2.4,3.1c0.2,3.3,0.4,6.6,0.5,10c0,0,0,0,0,0C222.3,513.4,222.5,517,222.7,520.5z"/>
	<path id="XMLID_510_" class="st0" d="M358.8,348.6c0.1,0.8,0.3,1.6,1.2,1.6c0.7,0,1.1-0.6,1.1-1.3c0.3-3.5,0.6-7,0.9-10.6
		c0.1-1.2-0.7-2.1-1.9-2.2c-1.4-0.1-2.2,0.8-2.2,2.2c0,1.3,0.2,2.6,0.4,4.7C358.4,344.4,358.6,346.5,358.8,348.6z"/>
	<path id="XMLID_511_" class="st0" d="M408.8,419.5c-1-0.4-1.9,0.2-2.5,1c-0.7,1.1-1,2.6,0,3.2c2.3,1.4,1.6,2.8,0.4,4.4
		c-0.6,0.7-0.6,1.4,0.1,1.9c0.9,0.6,1.4-0.2,1.8-0.7c1.5-1.7,2.1-3.7,2.1-5.7C410.8,421.8,410.6,420.2,408.8,419.5z"/>
	<path id="XMLID_512_" class="st0" d="M224,526.4c-1.7-0.1-2.6,0.8-2.6,2.5c-0.1,1.6,0.5,2.7,2.3,2.8c1.8,0.1,2.5-0.9,2.7-2.7
		C226.2,527.8,225.8,526.4,224,526.4z"/>
	<path id="XMLID_513_" class="st0" d="M42.3,389.7c-1.6,0-2.6,1-2.6,2.6c0,1.5,0.9,2.4,2.4,2.5c1.6,0,2.5-1,2.6-2.6
		C44.5,390.7,43.7,389.7,42.3,389.7z"/>
	<path id="XMLID_514_" class="st0" d="M397.4,419.3c-1.7-0.1-2.5,0.9-2.6,2.6c-0.1,1.6,0.6,2.7,2.4,2.8c1.8,0.1,2.5-0.9,2.6-2.5
		C399.7,420.5,399.1,419.3,397.4,419.3z"/>
	<path id="XMLID_515_" class="st0" d="M132,496.8c-1.6-0.1-2.6,1-2.6,2.6c0,1.6,1,2.6,2.6,2.5c1.5-0.1,2.2-1.1,2.3-2.7
		C134.2,497.9,133.5,496.9,132,496.8z"/>
	<path id="XMLID_516_" class="st0" d="M275.1,389.7c-1.5,0-2.4,1-2.4,2.4c0,1.6,0.9,2.6,2.5,2.6c1.5,0,2.3-0.9,2.4-2.5
		C277.6,390.7,276.8,389.7,275.1,389.7z"/>
	<path id="XMLID_517_" class="st0" d="M202,445.7c-0.1,1.7,0.9,2.6,2.5,2.7c1.4,0,2.3-0.9,2.5-2.4c0-1.6-0.9-2.6-2.5-2.7
		C203,443.3,202.1,444.2,202,445.7z"/>
</g>
<path id="XMLID_10_" class="st1" d="M5.3,373.6c-1,0-2-0.6-2.4-1.7c-0.5-1.3,0.2-2.8,1.5-3.3l104.9-39.1c1.3-0.5,2.8,0.2,3.3,1.5
	c0.5,1.3-0.2,2.8-1.5,3.3L6.2,373.4C5.9,373.5,5.6,373.6,5.3,373.6z"/>
<path id="XMLID_13_" class="st1" d="M128.5,373.6c-1,0-1.9-0.6-2.4-1.5c-0.6-1.3,0-2.8,1.3-3.4l87.2-39.1c1.3-0.6,2.8,0,3.4,1.3
	c0.6,1.3,0,2.8-1.3,3.4l-87.2,39.1C129.3,373.5,128.9,373.6,128.5,373.6z"/>
<path id="XMLID_21_" class="st2" d="M492,414c-42.6,0-77,34.5-77,77.1v95.7h154v-95.7C569,448.5,534.6,414,492,414z"/>
<circle id="XMLID_20_" class="st3" cx="492.3" cy="491.1" r="70.5"/>
<path id="XMLID_44_" class="st4" d="M476.5,574.3"/>
<path id="XMLID_50_" class="st2" d="M547.6,470l-110.7,0.3l-0.3-0.3c0-27.3,24.8-49.4,55.5-49.4S547.6,442.8,547.6,470L547.6,470z"
	/>
<circle id="XMLID_57_" class="st5" cx="463.5" cy="493.2" r="19.1"/>
<path id="XMLID_18_" class="st5" d="M441.4,493.2c-13.2-13.7-20.2-11.3-20.2-11.3"/>
<path id="XMLID_16_" class="st5" d="M492.3,484.5c-7.1,0-9.7,6.7-9.7,6.7"/>
<circle id="XMLID_14_" class="st5" cx="521" cy="493.2" r="19.1"/>
<path id="XMLID_9_" class="st5" d="M540.1,493.2c13.2-13.7,20.2-11.3,20.2-11.3"/>
<path id="XMLID_6_" class="st5" d="M492.3,484.5c7.1,0,9.7,6.7,9.7,6.7"/>
<path id="XMLID_5_" class="st2" d="M507.4,534.8c0,9-7.1,16.6-15.8,16.6c-8.7,0-15.8-7.6-15.8-16.6H507.4z"/>
<circle id="XMLID_22_" class="st3" cx="99.3" cy="115.1" r="70.5"/>
<path id="XMLID_48_" class="st6" d="M169,125.5c-1-1.3-2.4,1.4-4.2,0.1c-1.5,1.2-3.4-0.7-5.4,1.7c-0.5,0.6-1.3,0.9-2.1,0.7
	c-2.1-0.5-4.5,2.1-7,5.1c-0.1,0.2-0.3,0.4-0.3,0.6c-2.8,6.4-5.8,6-9,5.4c-0.6-0.1-1.3,0-1.8,0.4c-3.2,2.4-6.5,5.6-10,4.9
	c-0.5-0.1-1.1,0-1.6,0.2c-3.7,1.9-7.6,2.1-11.7,3.3c-0.3,0.1-0.6,0.2-0.8,0.4c-4.4,3.4-9-1.4-13.7,1.2c-4.8,2-9.5-0.1-14-1.5
	c-0.1,0-0.2-0.1-0.4-0.1c-4.5-0.7-8.9-0.5-13-3.9c-4-2.7-7.8-1.1-11.4-4.7c-0.4-0.3-0.8-0.6-1.3-0.6c-3-0.2-5.8-2-8.4-4.3
	c-0.7-0.6-1.6-0.7-2.4-0.3c-2.8,1.4-5.3-2.6-7.6-5.6c-2.4-3.6-4.4-3.7-6.2-3.1c-0.4,0.1-0.7,0.1-1.1,0c-1.6-0.3-2.9-0.2-3.8,0
	c-1.2,0.3-1.9,3.8-1.9,4.8c0,3.1,0.1,3.6,0.2,7.1c0.2,3.6,0.4,6.9,0.7,6.5c0.3,1,0.7-0.6,1.1,4c0.4,5.2,1,5.3,1.5,8.3
	c0,0.1,0,0.1,0,0.2c0.6,5.3,1.2,3.8,2,7.8c0.7,6.8,1.5,1.8,2.4,3.1c0.8,2.1,1.7,2.6,2.6,6.3c0.1,0.2,0.1,0.5,0.3,0.7
	c0.9,1.3,1.9,5.2,2.9,2.7c1.1,1.4,2.2-1,3.4,3.7c1.1,1.8,2.3-1.2,3.5,3.7c0.1,0.4,0.3,0.9,0.6,1.2c1.2,1.1,2.4,4.6,3.6,2.8
	c1,2.4,2.1,1.9,3.2,2.6c0.6,0.4,1.3,0.3,2,0.2c1.1-0.3,2.3,2.3,3.5,4c0.1,0.2,0.2,0.3,0.3,0.5c1.3,3.6,2.7,1.1,4.1,1.5
	c0.4,0.1,0.8,0,1-0.2c1.5-1.4,3.1,3.6,4.6,2.3c1.7-0.5,3.3-1.8,5.1,1.7c0.1,0.3,0.3,0.5,0.5,0.7c1.3,1.2,2.6,2.1,3.9,1.6
	c0.7-0.3,1.8,0,2.4,0.5c1.2,1.2,2.5,1.1,3.7,0.3c0.4-0.2,0.9-0.3,1.4-0.3c1.7,0.1,3.3-1.6,5-0.8c1.9,1.2,3.9-0.5,5.9,1.5
	c2,0.8,3.9,3.2,5.9,0.7c1.6-0.7,3.3-2.9,4.9-2.2c0.6,0.3,1.2,0.4,1.8,0.1c1.3-0.6,2.6-0.4,3.9-0.4c0.3,0,0.7,0.1,0.9,0.2
	c1.7,1,3.4-1.1,5-1.6c1.6-0.6,3.2-1.9,4.7-1.8c0.4,0,0.8-0.1,1.1-0.3c1.2-0.7,2.4-2,3.6-1.9c0.5,0,1,0,1.4-0.3
	c0.9-0.5,1.8-1.2,2.7-1.8c0.6-0.4,1.2-0.3,1.9-0.1c1.2,0.5,2.4-1.4,3.5-2.8c0.1-0.2,0.3-0.4,0.3-0.6c1.1-2.7,2.2-3.7,3.3-4.3
	c0.5-0.3,0.8-0.7,1-1.2c1.2-3.6,2.4-0.7,3.6-0.9c1.1,1.5,2.2-2.3,3.2-4.3c0.2-0.3,0.4-0.6,0.6-0.8c1-0.8,2-2.6,3-3.1
	c1-0.5,2-2.4,2.9-5.1c0.8,1.5,1.5-3.7,2.2-4.6c0.3-0.3,0.4-0.8,0.4-1.2c0.8-10.3,1.5-2.9,2.1-6.7c0.6,4.8,1.2-1.9,1.7-3
	c0.1-0.2,0.2-0.5,0.2-0.8c0.5-4.5,1-2.7,1.4-5.2c0.4-2.7,0.8-3.1,1.1-6.6c0.3-6.7,0.5-3,0.7-7.1c0.1,0.9,0.2-2.4,0.2-6.7
	C170.8,125.7,170.2,124.9,169,125.5z M109.5,167.8c-3.5,0-9.5,0-13.2,0c-2.3,0-4.5-0.6-6.5-1.8c-9-5.3-3.6-8.6,5.6-7.4
	c1.2,0.1,2.3,0.2,3.5,0.2l7.9,0c1,0,2,0,2.9-0.1c9.5-1.1,14.6,2.5,5.6,7.6C113.6,167.3,111.6,167.8,109.5,167.8z"/>
</svg>
