<?xml version="1.0" encoding="utf-8"?>
<!-- Generator: Adobe Illustrator 19.0.0, SVG Export Plug-In . SVG Version: 6.00 Build 0)  -->
<svg version="1.1" xmlns="http://www.w3.org/2000/svg" xmlns:xlink="http://www.w3.org/1999/xlink" x="0px" y="0px"
	 viewBox="0 0 465.9 465.9" style="enable-background:new 0 0 465.9 465.9;" xml:space="preserve">
<style type="text/css">
	.st0{fill:#EDDD4F;}
	.st1{fill:#E8C256;}
	.st2{fill:none;stroke:#252628;stroke-width:24;stroke-linecap:round;stroke-linejoin:round;stroke-miterlimit:10;}
	.st3{fill:none;stroke:#252628;stroke-width:17;stroke-linecap:round;stroke-linejoin:round;stroke-miterlimit:10;}
	.st4{fill:#252628;}
</style>
<g id="base">
	<rect id="XMLID_28_" class="st0" width="465.9" height="465.9"/>
</g>
<g id="shaow">
	<polygon id="XMLID_5_" class="st1" points="466.4,220.1 447.4,151.2 447.3,289.6 414.3,303.8 399,357 65.2,357 221.1,466 
		465.9,465.9 	"/>
</g>
<g id="layer1">
	<path id="XMLID_2_" class="st2" d="M368.5,162.7H101.3c-11,0-20,9-20,20v102.5c0,11,9,20,20,20h267.2c11,0,20-9,20-20V182.7
		C388.5,171.7,379.5,162.7,368.5,162.7z"/>
	<polyline id="XMLID_3_" class="st3" points="120.4,199.5 147.4,273.3 177.3,199.5 204.1,273.3 233.9,199.5 	"/>
	<line id="XMLID_7_" class="st3" x1="258.9" y1="200" x2="258.9" y2="273"/>
	<polyline id="XMLID_8_" class="st3" points="288.9,273 288.9,200 345.9,273.3 345.9,200 	"/>
	<path id="XMLID_23_" class="st4" d="M456.3,290c-4.1,0-7.5-3.4-7.5-7.5s3.4-7.5,7.5-7.5c0,0,0.1,0,0.1,0v-9c0,0-0.1,0-0.1,0
		c-4.1,0-7.5-3.4-7.5-7.5s3.4-7.5,7.5-7.5c0,0,0.1,0,0.1,0v-9c0,0-0.1,0-0.1,0c-4.1,0-7.5-3.4-7.5-7.5s3.4-7.5,7.5-7.5
		c0,0,0.1,0,0.1,0v-8c0,0-0.1,0-0.1,0c-4.1,0-7.5-3.4-7.5-7.5s3.4-7.5,7.5-7.5c0,0,0.1,0,0.1,0v-9c0,0-0.1,0-0.1,0
		c-4.1,0-7.5-3.4-7.5-7.5s3.4-7.5,7.5-7.5c0,0,0.1,0,0.1,0v-16.8c0-6.6-5.4-12-12-12c-20,0-36.3-16.2-36.3-36.3
		c0-6.6-5.4-11.9-12-11.9H75.2c-6.6,0-12,5.3-12,11.9c0,20-16.5,36.3-36.6,36.3c-6.6,0-12.2,5.3-12.2,12V180c1,0,0.5,0,0.7,0
		c4.1,0,7.6,3.4,7.6,7.5S19.1,195,15,195c-0.1,0,0.4,0-0.6,0v9c1,0,0.5,0,0.7,0c4.1,0,7.6,3.4,7.6,7.5S19.1,219,15,219
		c-0.1,0,0.4,0-0.6,0v8c1,0,0.5,0,0.7,0c4.1,0,7.6,3.4,7.6,7.5S19.1,242,15,242c-0.1,0,0.4,0-0.6,0v9c1,0,0.5,0,0.7,0
		c4.1,0,7.6,3.4,7.6,7.5S19.1,266,15,266c-0.1,0,0.4,0-0.6,0v9c1,0,0.5,0,0.7,0c4.1,0,7.6,3.4,7.6,7.5S19.1,290,15,290
		c-0.1,0,0.4,0-0.6,0v12.7c0,6.6,5.6,12,12.2,12c20,0,36.4,16.3,36.4,36.3c0,6.6,5.5,12,12.1,12H396c6.6,0,12-5.4,12-12
		c0-20,16.3-36.3,36.3-36.3c6.6,0,12-5.4,12-12L456.3,290C456.4,290,456.3,290,456.3,290z M432.4,291.9c-24,4.8-42.4,23.1-47.2,47.1
		H86c-4.8-24-23.6-42.3-47.6-47.1V174c24-4.8,42.8-23,47.6-47h299.2c4.8,24,23.2,42.2,47.2,47V291.9z"/>
</g>
</svg>
