<?xml version="1.0" encoding="utf-8"?>
<!-- Generator: Adobe Illustrator 19.0.0, SVG Export Plug-In . SVG Version: 6.00 Build 0)  -->
<svg version="1.1" xmlns="http://www.w3.org/2000/svg" xmlns:xlink="http://www.w3.org/1999/xlink" x="0px" y="0px"
	 viewBox="0 0 465.9 465.9" style="enable-background:new 0 0 465.9 465.9;" xml:space="preserve">
<style type="text/css">
	.st0{fill:#EDDD4F;}
	.st1{fill:#E8C256;}
	.st2{fill:none;stroke:#252628;stroke-width:24;stroke-linecap:round;stroke-linejoin:round;stroke-miterlimit:10;}
	.st3{fill:none;stroke:#252628;stroke-width:17;stroke-linecap:round;stroke-linejoin:round;stroke-miterlimit:10;}
	.st4{fill:#252628;}
	.st5{fill:none;stroke:#252628;stroke-width:11;stroke-linecap:round;stroke-linejoin:round;stroke-miterlimit:10;}
</style>
<g id="base">
	<rect id="XMLID_28_" class="st0" width="465.9" height="465.9"/>
</g>
<g id="shaow">
	<polygon id="XMLID_5_" class="st1" points="466.4,220.1 447.4,151.2 447.3,265.6 414.3,287.8 399,329 65.2,329 221.1,466 
		465.9,465.9 	"/>
</g>
<g id="layer1">
	<path id="XMLID_2_" class="st2" d="M368.5,131.7H101.3c-11,0-20,9-20,20v102.5c0,11,9,20,20,20h267.2c11,0,20-9,20-20V151.7
		C388.5,140.7,379.5,131.7,368.5,131.7z"/>
	<polyline id="XMLID_3_" class="st3" points="120.4,168.5 147.4,242.3 177.3,168.5 204.1,242.3 233.9,168.5 	"/>
	<line id="XMLID_7_" class="st3" x1="258.9" y1="169" x2="258.9" y2="242"/>
	<polyline id="XMLID_8_" class="st3" points="288.9,242 288.9,169 345.9,242.3 345.9,169 	"/>
	<path id="XMLID_23_" class="st4" d="M456.3,259c-4.1,0-7.5-3.4-7.5-7.5s3.4-7.5,7.5-7.5c0,0,0.1,0,0.1,0v-9c0,0-0.1,0-0.1,0
		c-4.1,0-7.5-3.4-7.5-7.5s3.4-7.5,7.5-7.5c0,0,0.1,0,0.1,0v-9c0,0-0.1,0-0.1,0c-4.1,0-7.5-3.4-7.5-7.5s3.4-7.5,7.5-7.5
		c0,0,0.1,0,0.1,0v-8c0,0-0.1,0-0.1,0c-4.1,0-7.5-3.4-7.5-7.5s3.4-7.5,7.5-7.5c0,0,0.1,0,0.1,0v-9c0,0-0.1,0-0.1,0
		c-4.1,0-7.5-3.4-7.5-7.5s3.4-7.5,7.5-7.5c0,0,0.1,0,0.1,0v-16.8c0-6.6-5.4-12-12-12c-20,0-36.3-16.2-36.3-36.3
		c0-6.6-5.4-11.9-12-11.9H75.2c-6.6,0-12,5.3-12,11.9c0,20-16.5,36.3-36.6,36.3c-6.6,0-12.2,5.3-12.2,12V149c1,0,0.5,0,0.7,0
		c4.1,0,7.6,3.4,7.6,7.5S19.1,164,15,164c-0.1,0,0.4,0-0.6,0v9c1,0,0.5,0,0.7,0c4.1,0,7.6,3.4,7.6,7.5S19.1,188,15,188
		c-0.1,0,0.4,0-0.6,0v8c1,0,0.5,0,0.7,0c4.1,0,7.6,3.4,7.6,7.5S19.1,211,15,211c-0.1,0,0.4,0-0.6,0v9c1,0,0.5,0,0.7,0
		c4.1,0,7.6,3.4,7.6,7.5S19.1,235,15,235c-0.1,0,0.4,0-0.6,0v9c1,0,0.5,0,0.7,0c4.1,0,7.6,3.4,7.6,7.5S19.1,259,15,259
		c-0.1,0,0.4,0-0.6,0v12.7c0,6.6,5.6,12,12.2,12c20,0,36.4,16.3,36.4,36.3c0,6.6,5.5,12,12.1,12H396c6.6,0,12-5.4,12-12
		c0-20,16.3-36.3,36.3-36.3c6.6,0,12-5.4,12-12L456.3,259C456.4,259,456.3,259,456.3,259z M432.4,260.9c-24,4.8-42.4,23.1-47.2,47.1
		H86c-4.8-24-23.6-42.3-47.6-47.1V143c24-4.8,42.8-23,47.6-47h299.2c4.8,24,23.2,42.2,47.2,47V260.9z"/>
</g>
<g id="Layer_4">
</g>
<g id="Layer_5">
	<path id="XMLID_1_" class="st5" d="M66.9,395.7c0,0,3.2-0.2,18-0.2s23,3,23,16.2c0,13.2-16.5,14.3-16.5,14.3h-25v-59h21
		c0,0,17.9-1.1,17.9,12.6c0,13.7-11.4,16-18.9,16"/>
	<path id="XMLID_9_" class="st5" d="M129.4,366v45.1c0,6.3,8.5,15.3,20.5,15.3s21.5-8.2,21.5-14.6V366"/>
	<polyline id="XMLID_6_" class="st5" points="187.3,366.3 211.4,395.7 211.4,426 	"/>
	<line id="XMLID_11_" class="st5" x1="235.4" y1="366.5" x2="211.4" y2="395.7"/>
	<polyline id="XMLID_12_" class="st5" points="286.4,426 251.4,426 251.4,366 286.4,366 	"/>
	<line id="XMLID_13_" class="st5" x1="283.4" y1="396" x2="251.4" y2="396"/>
	<path id="XMLID_14_" class="st5" d="M305.4,426v-28.7V366h22c0,0,18.1-1.7,18.1,15S328,398,328,398h-18.6"/>
	<path id="XMLID_16_" class="st5" d="M347.3,425.5c0,0-12.4-27.5-23.9-27.5"/>
	<path id="XMLID_18_" class="st5" d="M363.4,418.7c0,0,8.2,7.6,22.2,7.6s19.3-9.7,19.3-14.6s-2.9-12-19.3-15.6s-20.9-7.3-20.9-15.1
		c0-7.8,15.3-26,40.2-8.6"/>
</g>
</svg>
