<?xml version="1.0" encoding="utf-8"?>
<!-- Generator: Adobe Illustrator 19.0.0, SVG Export Plug-In . SVG Version: 6.00 Build 0)  -->
<svg version="1.1" id="Layer_1" xmlns="http://www.w3.org/2000/svg" xmlns:xlink="http://www.w3.org/1999/xlink" x="0px" y="0px"
	 viewBox="0 0 568.9 587.1" style="enable-background:new 0 0 568.9 587.1;" xml:space="preserve">
<style type="text/css">
	.st0{fill:#DA4DEF;}
	.st1{fill:#A82626;}
	.st2{fill:#48488C;}
	.st3{fill:#252628;}
	.st4{fill:none;stroke:#56D87B;stroke-width:4;stroke-miterlimit:10;}
	.st5{fill:#56D87B;}
	.st6{fill:none;stroke:#DBD85D;stroke-width:4;stroke-miterlimit:10;}
	.st7{fill:#DBD85D;}
	.st8{fill:none;}
	.st9{fill:none;stroke:#DD5454;stroke-width:3;stroke-miterlimit:10;}
	.st10{fill:#DD5454;stroke:#DD5454;stroke-width:3;stroke-linecap:round;stroke-linejoin:round;stroke-miterlimit:10;}
	.st11{fill:none;stroke:#DD5454;stroke-width:3;stroke-linecap:round;stroke-linejoin:round;stroke-miterlimit:10;}
	.st12{fill:#3CDDBE;}
	.st13{fill:none;stroke:#3CDDBE;stroke-width:14;stroke-linecap:round;stroke-miterlimit:10;}
	.st14{fill:none;stroke:#DD5454;stroke-width:5;stroke-linecap:round;stroke-linejoin:round;stroke-miterlimit:10;}
	.st15{fill:none;stroke:#3CDDBE;stroke-width:8;stroke-linecap:round;stroke-miterlimit:10;}
	.st16{fill:#999999;}
	.st17{fill:#D1903B;}
	.st18{fill:none;stroke:#A82626;stroke-width:7;stroke-linecap:round;stroke-miterlimit:10;}
	.st19{fill:none;stroke:#DBD85D;stroke-width:4;stroke-linecap:round;stroke-miterlimit:10;}
	.st20{fill:none;stroke:#DBD85D;stroke-linecap:round;stroke-miterlimit:10;}
	.st21{fill:none;stroke:#DA4DEF;stroke-width:3;stroke-miterlimit:10;}
	.st22{fill:#56A5DB;}
	.st23{fill:#56A5DB;stroke:#56A5DB;stroke-miterlimit:10;}
</style>
<path id="XMLID_74_" class="st0" d="M77,0C34.4,0,0,34.5,0,77.1v95.7h154V77.1C154,34.5,119.6,0,77,0z"/>
<path id="XMLID_49_" class="st1" d="M262.6,418.7c3.4-34.3-72-39.5-63.9,33.3c8.1,72.9,2.5,107.8,2.5,107.8l28.3-30.1L262.6,418.7z"
	/>
<circle id="XMLID_79_" class="st2" cx="285.3" cy="86.1" r="70.5"/>
<circle id="XMLID_1_" class="st2" cx="285.3" cy="295.1" r="70.5"/>
<circle id="XMLID_93_" class="st2" cx="493.3" cy="295.1" r="70.5"/>
<circle id="XMLID_56_" class="st2" cx="77.3" cy="77.1" r="70.5"/>
<circle id="XMLID_43_" class="st2" cx="284.3" cy="502.1" r="70.5"/>
<circle id="XMLID_42_" class="st2" cx="77.3" cy="503.1" r="70.5"/>
<circle id="XMLID_31_" class="st2" cx="77.3" cy="293.1" r="70.5"/>
<circle id="XMLID_12_" class="st2" cx="494.3" cy="88.1" r="70.5"/>
<circle id="XMLID_4_" class="st2" cx="493.3" cy="502.1" r="70.5"/>
<path id="XMLID_3_" class="st3" d="M325.3,313.8c0,16-18.1,30.2-40.4,30.2c-22.3,0-40.4-14.2-40.4-30.2H325.3z"/>
<path id="XMLID_2_" class="st4" d="M483.9,498.7c0,13.4-11.6,32.6-31.1,32.6c-15.9,0-28.8-13.9-28.8-32.6
	c0-13.4,10.1-18.4,29.9-18.4C469.8,480.3,483.9,485.3,483.9,498.7z"/>
<g id="XMLID_7_">
	<path id="XMLID_135_" class="st5" d="M418.8,484.3c0,0,0.3,0,0.8,0c0.1,0,0.1,0,0.3,0c0.3-0.1,0.5-0.1,0.9-0.2
		c0.7-0.1,1.8-0.4,3-0.8c1.2-0.4,2.7-0.9,4.2-1.3c3.1-1,6.9-2.2,11.1-3c2.1-0.4,4.3-0.8,6.5-1c2.2-0.2,4.5-0.3,6.8-0.3
		c2.3,0,4.6,0.2,6.8,0.5c2.2,0.3,4.4,0.7,6.4,1.3c2.1,0.5,4,1.1,5.8,1.8c1.8,0.6,3.5,1.4,5,2.1c1.5,0.7,2.9,1.4,4.1,2.1
		c1.2,0.7,2.2,1.2,3.1,1.7c1.7,1,2.6,1.6,2.6,1.6l-2.1,3.4c0,0-0.9-0.5-2.6-1.4c-0.8-0.5-1.8-0.9-3-1.5c-1.1-0.6-2.5-1.1-3.9-1.7
		c-1.5-0.6-3.1-1.2-4.8-1.7c-1.7-0.5-3.5-1-5.4-1.4c-1.9-0.4-3.9-0.7-5.9-0.9c-2-0.2-4.1-0.2-6.1-0.2c-2.1,0-4.1,0.3-6.1,0.5
		c-2,0.3-4,0.7-5.9,1.2c-3.8,1-7.2,2.2-10.2,3.3c-1.5,0.6-2.9,1.1-4.2,1.6c-1.3,0.5-2.5,0.9-3.6,1.2c-0.5,0.2-1.1,0.2-1.5,0.3
		c-0.6,0.1-1.2,0.1-1.6,0.2c-0.5,0-0.8,0-0.8,0L418.8,484.3z"/>
</g>
<path id="XMLID_8_" class="st4" d="M421,487.9c3.2,2.8,3,3.4,3,10.8"/>
<g id="XMLID_9_">
	<path id="XMLID_67_" class="st5" d="M484.9,498.7c0,0,0-0.1-0.1-0.2c-0.1-0.1-0.2-0.2-0.3-0.4c-0.1-0.2-0.4-0.5-0.5-0.8
		c-0.2-0.3-0.4-0.7-0.6-1.1c-0.2-0.4-0.4-0.9-0.6-1.5c-0.1-0.3-0.1-0.6-0.2-0.9c0-0.3-0.1-0.7-0.1-1c0-0.7,0-1.5,0.3-2.3
		c0.1-0.4,0.3-0.8,0.5-1.1c0.1-0.2,0.2-0.4,0.3-0.5l0.4-0.5c0.5-0.7,1.1-1.1,1.8-1.5c0.6-0.3,1.2-0.7,1.8-0.9
		c0.6-0.2,1.1-0.4,1.7-0.6c0.5-0.1,1-0.2,1.5-0.3c0.9-0.2,1.8-0.2,2.3-0.3c0.5-0.1,1-0.1,1-0.1v6.4c0,0-0.4,0-0.8,0
		c-0.4,0-1.1-0.1-1.8-0.1c-0.3,0-0.7,0-1.1,0c-0.4,0-0.7,0.1-1.1,0.1c-0.4,0.1-0.7,0.2-1,0.2c-0.3,0.1-0.6,0.2-0.8,0.4l-0.2,0.1
		l-0.1,0.1c-0.1,0.1-0.2,0.1-0.2,0.3c-0.1,0.2-0.2,0.4-0.3,0.7c0,0.2,0,0.3-0.1,0.5c0,0.2,0,0.3,0,0.5c0,0.3,0.1,0.7,0.2,1
		c0.1,0.3,0.2,0.6,0.3,0.9c0.1,0.3,0.2,0.5,0.2,0.6c0.1,0.2,0.2,0.4,0.2,0.5c0.1,0.1,0.1,0.2,0.1,0.2L484.9,498.7z"/>
</g>
<path id="XMLID_21_" class="st4" d="M503.5,498.7c0,13.4,11.6,32.6,31.1,32.6c15.9,0,28.8-13.9,28.8-32.6
	c0-13.4-10.1-18.4-29.9-18.4C517.6,480.3,503.5,485.3,503.5,498.7z"/>
<g id="XMLID_14_">
	<path id="XMLID_133_" class="st5" d="M568.9,491.8c0,0-0.3,0-0.8,0c-0.4,0-1-0.1-1.6-0.2c-0.4-0.1-1-0.2-1.5-0.3
		c-1.1-0.3-2.3-0.7-3.6-1.2c-1.2-0.5-2.7-1-4.2-1.6c-3-1.1-6.5-2.4-10.2-3.3c-1.9-0.5-3.8-0.9-5.9-1.2c-2-0.3-4.1-0.5-6.1-0.5
		c-2.1-0.1-4.1,0-6.1,0.2c-2,0.2-4,0.5-5.9,0.9c-1.9,0.4-3.7,0.9-5.4,1.4c-1.7,0.5-3.3,1.1-4.8,1.7c-1.4,0.6-2.8,1.2-3.9,1.7
		c-1.1,0.6-2.2,1-3,1.5c-1.6,0.9-2.6,1.4-2.6,1.4l-2.1-3.4c0,0,0.9-0.6,2.6-1.6c0.8-0.5,1.9-1.1,3.1-1.7c1.2-0.7,2.6-1.3,4.1-2.1
		c1.5-0.7,3.2-1.4,5-2.1c1.8-0.7,3.8-1.3,5.8-1.8c2.1-0.5,4.2-0.9,6.4-1.3c2.2-0.3,4.5-0.5,6.8-0.5c2.3-0.1,4.6,0.1,6.8,0.3
		c2.2,0.2,4.4,0.6,6.5,1c4.2,0.8,8,2,11.1,3c1.5,0.5,2.9,0.9,4.2,1.3c1.2,0.4,2.2,0.7,3,0.8c0.4,0.1,0.7,0.1,0.9,0.2
		c0.1,0,0.2,0,0.3,0c0.5,0,0.8,0,0.8,0L568.9,491.8z"/>
</g>
<path id="XMLID_13_" class="st4" d="M566.5,487.9c-3.2,2.8-3,3.4-3,10.8"/>
<g id="XMLID_10_">
	<path id="XMLID_104_" class="st5" d="M499.9,497.1c0,0,0-0.1,0.1-0.2c0-0.1,0.2-0.3,0.2-0.5c0.1-0.2,0.2-0.4,0.2-0.6
		c0.1-0.3,0.2-0.6,0.3-0.9c0.1-0.3,0.1-0.7,0.2-1c0-0.2,0-0.3,0-0.5c0-0.2,0-0.3-0.1-0.5c-0.1-0.3-0.2-0.6-0.3-0.7
		c0-0.1-0.2-0.2-0.2-0.3l-0.1-0.1l-0.2-0.1c-0.2-0.2-0.5-0.2-0.8-0.4c-0.3-0.1-0.7-0.2-1-0.2c-0.4,0-0.8-0.1-1.1-0.1
		c-0.4,0-0.8,0-1.1,0c-0.7,0-1.1,0.1-1.5,0.1c-0.4,0-0.5,0-0.5,0v-6.4c0,0,0.1,0,0.7,0.1c0.5,0.1,1.2,0.1,2.1,0.3
		c0.5,0.1,0.9,0.2,1.4,0.3c0.5,0.2,1.1,0.4,1.7,0.6c0.6,0.2,1.2,0.6,1.8,0.9c0.6,0.4,1.2,0.8,1.8,1.5l0.4,0.5
		c0.1,0.2,0.2,0.4,0.3,0.5c0.2,0.4,0.4,0.7,0.5,1.1c0.3,0.8,0.3,1.6,0.3,2.3c0,0.3-0.1,0.7-0.1,1c-0.1,0.3-0.1,0.6-0.2,0.9
		c-0.2,0.5-0.3,1-0.6,1.5c-0.2,0.4-0.4,0.8-0.6,1.1c-0.2,0.3-0.4,0.6-0.5,0.8c-0.2,0.2-0.3,0.3-0.3,0.4c-0.1,0.1-0.1,0.2-0.1,0.2
		L499.9,497.1z"/>
</g>
<path id="XMLID_95_" class="st6" d="M275.9,81.1c0,18.1,0,24.4-31.1,24.4c-23.4,0-28.8-5.6-28.8-24.4c0-10.1,10.1-11.8,29.9-11.8
	C261.8,69.3,275.9,71,275.9,81.1z"/>
<g id="XMLID_92_">
	<path id="XMLID_106_" class="st7" d="M209.7,71.5c0,0,1-0.2,2.8-0.7c1.8-0.5,4.5-1.1,7.7-1.8c6.4-1.4,15.2-2.7,24.1-2.6
		c2.2,0,4.4,0.1,6.6,0.4c2.2,0.2,4.3,0.5,6.4,0.9c1,0.2,2,0.4,3,0.6c1,0.3,1.9,0.5,2.9,0.8c0.9,0.3,1.8,0.5,2.7,0.8
		c0.8,0.3,1.7,0.6,2.5,0.9c0.8,0.3,1.5,0.6,2.2,0.9c0.7,0.3,1.3,0.6,2,0.9c1.2,0.6,2.3,1.2,3.1,1.7c1.7,1,2.6,1.6,2.6,1.6l-2.1,3.4
		c0,0-0.9-0.5-2.5-1.4c-0.8-0.4-1.8-0.9-2.9-1.4c-0.6-0.2-1.2-0.5-1.8-0.8c-0.7-0.2-1.4-0.5-2.1-0.8c-0.7-0.2-1.5-0.5-2.3-0.7
		c-0.8-0.2-1.6-0.4-2.5-0.7c-0.9-0.2-1.8-0.4-2.7-0.6c-0.9-0.1-1.9-0.3-2.8-0.4c-1.9-0.2-3.9-0.5-5.9-0.5c-2-0.1-4.1-0.1-6.2,0
		c-8.3,0.3-16.5,2-22.6,3.6c-3,0.8-5.6,1.6-7.4,2.1c-1.8,0.5-2.9,0.8-2.9,0.8L209.7,71.5z"/>
</g>
<path id="XMLID_91_" class="st6" d="M213,74.9c3.2,2.8,3,3.4,3,10.8"/>
<g id="XMLID_88_">
	<path id="XMLID_102_" class="st7" d="M276.9,85.7c0,0,0-0.1-0.1-0.2c-0.1-0.1-0.2-0.2-0.3-0.4c-0.1-0.2-0.4-0.5-0.5-0.8
		c-0.2-0.3-0.4-0.7-0.6-1.1c-0.2-0.4-0.4-0.9-0.6-1.5c-0.1-0.3-0.1-0.6-0.2-0.9c0-0.3-0.1-0.7-0.1-1c0-0.7,0-1.5,0.3-2.3
		c0.1-0.4,0.3-0.8,0.5-1.1c0.1-0.2,0.2-0.4,0.3-0.5l0.4-0.5c0.5-0.7,1.1-1.1,1.8-1.5c0.6-0.3,1.2-0.7,1.8-0.9
		c0.6-0.2,1.1-0.4,1.7-0.6c0.5-0.1,1-0.2,1.5-0.3c0.9-0.2,1.8-0.2,2.3-0.3c0.5-0.1,1-0.1,1-0.1v6.4c0,0-0.4,0-0.8,0
		c-0.4,0-1.1-0.1-1.8-0.1c-0.3,0-0.7,0-1.1,0c-0.4,0-0.7,0.1-1.1,0.1c-0.4,0.1-0.7,0.2-1,0.2c-0.3,0.1-0.6,0.2-0.8,0.4l-0.2,0.1
		l-0.1,0.1c-0.1,0.1-0.2,0.1-0.2,0.3c-0.1,0.2-0.2,0.4-0.3,0.7c0,0.2,0,0.3-0.1,0.5c0,0.2,0,0.3,0,0.5c0,0.3,0.1,0.7,0.2,1
		c0.1,0.3,0.2,0.6,0.3,0.9c0.1,0.3,0.2,0.5,0.2,0.6c0.1,0.2,0.2,0.4,0.2,0.5c0.1,0.1,0.1,0.2,0.1,0.2L276.9,85.7z"/>
</g>
<g id="XMLID_78_">
	<path id="XMLID_96_" class="st8" d="M285.7,74.9"/>
</g>
<path id="XMLID_100_" class="st6" d="M295.5,81.1c0,18.1,0,24.4,31.1,24.4c23.4,0,28.8-5.6,28.8-24.4c0-10.1-10.1-11.8-29.9-11.8
	C309.6,69.3,295.5,71,295.5,81.1z"/>
<g id="XMLID_97_">
	<path id="XMLID_76_" class="st7" d="M359.8,78.7c0,0-1.1-0.3-2.9-0.8c-1.8-0.5-4.3-1.3-7.4-2.1c-6.1-1.6-14.3-3.3-22.6-3.6
		c-2.1-0.1-4.1-0.1-6.2,0c-2,0.1-4,0.3-5.9,0.5c-1,0.1-1.9,0.3-2.8,0.4c-0.9,0.2-1.8,0.4-2.7,0.6c-0.9,0.2-1.7,0.4-2.5,0.7
		c-0.8,0.2-1.6,0.5-2.3,0.7c-0.7,0.3-1.4,0.5-2.1,0.8c-0.7,0.3-1.3,0.5-1.8,0.8c-1.2,0.5-2.1,1-2.9,1.4c-1.6,0.9-2.5,1.4-2.5,1.4
		l-2.1-3.4c0,0,0.9-0.6,2.6-1.6c0.9-0.5,1.9-1.1,3.1-1.7c0.6-0.3,1.3-0.6,2-0.9c0.7-0.3,1.4-0.6,2.2-0.9c0.8-0.3,1.6-0.6,2.5-0.9
		c0.9-0.3,1.8-0.6,2.7-0.8c0.9-0.3,1.9-0.5,2.9-0.8c1-0.2,2-0.4,3-0.6c2.1-0.4,4.2-0.7,6.4-0.9c2.2-0.2,4.4-0.3,6.6-0.4
		c8.9-0.1,17.7,1.2,24.1,2.6c3.2,0.7,5.9,1.3,7.7,1.8c1.8,0.4,2.8,0.7,2.8,0.7L359.8,78.7z"/>
</g>
<g id="XMLID_84_">
	<path id="XMLID_73_" class="st7" d="M291.9,84.1c0,0,0-0.1,0.1-0.2c0-0.1,0.2-0.3,0.2-0.5c0.1-0.2,0.2-0.4,0.2-0.6
		c0.1-0.3,0.2-0.6,0.3-0.9c0.1-0.3,0.1-0.7,0.2-1c0-0.2,0-0.3,0-0.5c0-0.2,0-0.3-0.1-0.5c-0.1-0.3-0.2-0.6-0.3-0.7
		c0-0.1-0.2-0.2-0.2-0.3l-0.1-0.1l-0.2-0.1c-0.2-0.2-0.5-0.2-0.8-0.4c-0.3-0.1-0.7-0.2-1-0.2c-0.4,0-0.8-0.1-1.1-0.1
		c-0.4,0-0.8,0-1.1,0c-0.7,0-1.1,0.1-1.5,0.1c-0.4,0-0.5,0-0.5,0v-6.4c0,0,0.1,0,0.7,0.1c0.5,0.1,1.2,0.1,2.1,0.3
		c0.5,0.1,0.9,0.2,1.4,0.3c0.5,0.2,1.1,0.4,1.7,0.6c0.6,0.2,1.2,0.6,1.8,0.9c0.6,0.4,1.2,0.8,1.8,1.5l0.4,0.5
		c0.1,0.2,0.2,0.4,0.3,0.5c0.2,0.4,0.4,0.7,0.5,1.1c0.3,0.8,0.3,1.6,0.3,2.3c0,0.3-0.1,0.7-0.1,1c-0.1,0.3-0.1,0.6-0.2,0.9
		c-0.2,0.5-0.3,1-0.6,1.5c-0.2,0.4-0.4,0.8-0.6,1.1c-0.2,0.3-0.4,0.6-0.5,0.8c-0.2,0.2-0.3,0.3-0.3,0.4c-0.1,0.1-0.1,0.2-0.1,0.2
		L291.9,84.1z"/>
</g>
<g id="XMLID_81_">
	<path id="XMLID_68_" class="st8" d="M285.7,74.9"/>
</g>
<g id="XMLID_11_">
	<path id="XMLID_109_" class="st5" d="M476,547.2c0,0,0.5,0.4,1.3,1.2c0.2,0.2,0.4,0.4,0.7,0.6c0.2,0.2,0.5,0.3,0.8,0.5
		c0.3,0.2,0.6,0.4,0.9,0.6c0.3,0.2,0.7,0.4,1.1,0.6c0.4,0.2,0.8,0.4,1.2,0.6c0.4,0.2,0.9,0.3,1.4,0.5c0.2,0.1,0.5,0.2,0.7,0.3
		c0.3,0.1,0.5,0.1,0.8,0.2c0.5,0.1,1.1,0.3,1.6,0.4c0.6,0.1,1.1,0.2,1.7,0.3l0.9,0.1l0.9,0.1c0.6,0,1.2,0.1,1.8,0.1l1.8,0
		c0.6,0,1.2-0.1,1.8-0.1c0.6-0.1,1.2-0.1,1.8-0.2c1.2-0.2,2.4-0.3,3.5-0.6c1.1-0.2,2.2-0.6,3.2-0.9c1-0.3,1.9-0.7,2.7-1.1
		c0.8-0.4,1.6-0.7,2.2-1.1c0.6-0.4,1.2-0.7,1.6-1c0.8-0.6,1.2-1,1.2-1l0.2-0.1c0.8-0.6,2-0.5,2.6,0.3c0.6,0.8,0.5,1.9-0.3,2.6
		c0,0-0.6,0.4-1.5,1.2c-0.5,0.4-1.1,0.7-1.8,1.2c-0.7,0.5-1.6,0.8-2.5,1.3c-0.9,0.4-2,0.8-3.1,1.2c-1.1,0.3-2.3,0.8-3.5,1
		c-1.2,0.3-2.5,0.5-3.8,0.7c-0.7,0.1-1.3,0.1-2,0.2c-0.7,0.1-1.3,0.1-2,0.1c-0.7,0-1.4,0-2,0c-0.7,0-1.4-0.1-2-0.1l-1-0.1
		c-0.3,0-0.7-0.1-1-0.1c-0.7-0.1-1.3-0.2-1.9-0.3c-0.6-0.2-1.2-0.3-1.9-0.5c-0.3-0.1-0.6-0.2-0.9-0.2c-0.3-0.1-0.6-0.2-0.9-0.3
		c-0.6-0.2-1.1-0.4-1.6-0.6c-0.5-0.2-1-0.5-1.5-0.7c-0.5-0.2-0.9-0.5-1.4-0.7c-0.4-0.3-0.8-0.6-1.2-0.8c-0.4-0.3-0.7-0.5-1.1-0.7
		c-0.3-0.2-0.5-0.4-0.7-0.6c-0.8-0.8-1.3-1.2-1.3-1.2c-0.8-0.8-0.9-2.1-0.1-2.9S475.1,546.5,476,547.2L476,547.2z"/>
</g>
<path id="XMLID_15_" class="st9" d="M505.3,97.5c2.5,0,4.5,2,4.5,4.5s-2,4.5-4.5,4.5c-2.5,0-4.5-2-4.5-4.5"/>
<path id="XMLID_17_" class="st10" d="M564.7,90c0-61.4,8-72.4-70.5-72.4s-71.7,15-70.5,70.5c0,0,16.2-36.4,70.5-36.4
	S564.7,90,564.7,90z"/>
<path id="XMLID_18_" class="st11" d="M435.2,79.8c29.6-27.6,89.8-28.4,117.5,0"/>
<ellipse id="XMLID_6_" class="st10" cx="494.6" cy="14.4" rx="8.7" ry="1.5"/>
<path id="XMLID_30_" class="st12" d="M148.6,282.3H5.9c-1.6,0-2.9-1.3-2.9-2.9l3-17.7c0-1.6,1.3-2.9,2.9-2.9h136.6
	c1.6,0,2.9,1.3,2.9,2.9l3,17.7C151.4,281,150.2,282.3,148.6,282.3z"/>
<g id="XMLID_34_">
	<path id="XMLID_35_" class="st12" d="M77.9,219.2c-30.9,0-57,19.2-65.8,45.6h131.7C134.9,238.4,108.8,219.2,77.9,219.2z"/>
</g>
<line id="XMLID_32_" class="st13" x1="58" y1="213.8" x2="97" y2="213.8"/>
<line id="XMLID_36_" class="st13" x1="63.9" y1="228" x2="91.5" y2="200.4"/>
<line id="XMLID_37_" class="st13" x1="78" y1="233.8" x2="78" y2="194.8"/>
<line id="XMLID_38_" class="st13" x1="92.2" y1="228" x2="64.6" y2="200.4"/>
<g id="XMLID_40_">
	<path id="XMLID_39_" class="st14" d="M471.8,132.3c2.5,3.9,6.8,7,11.8,7h21.1c5,0,9.3-3.1,11.8-7"/>
</g>
<path id="XMLID_33_" class="st15" d="M58,334.8c0,0,1.1,2.4,4,3s27,0,27,0"/>
<path id="XMLID_44_" class="st16" d="M61.5,160.3"/>
<path id="XMLID_48_" class="st17" d="M146,506.5c-1-1.3-2.4,1.4-4.2,0.1c-1.8,1.3-3.9-1.2-6.4,3c-2.5-2.1-5.3,1.1-8.3,4.8
	c-3.1,7.4-6.5,6.2-10.1,5.5c-3.6,2.6-7.5,6.9-11.6,5.2c-4.1,2.5-8.4,2.5-13,3.9c-4.5,4-9.2-1.2-14.1,1.5c-4.8,2-9.6-0.1-14.1-1.5
	c-4.6-0.7-9-0.5-13.2-3.9c-4.2-2.9-8.2-0.9-12-5.2c-3.8,0.1-7.3-2.5-10.5-5.5c-3.2,3.3-6.2-1.3-8.7-4.8c-2.6-4-4.8-3.7-6.7-3
	c-1.9-0.5-3.4-0.4-4.4-0.1c-1.2,0.3-1.9,3.8-1.9,4.8c0,3.1,0.1,3.6,0.2,7.1c0.2,3.6,0.4,6.9,0.7,6.5c0.3,1,0.7-0.6,1.1,4
	c0.5,5.3,1,5.3,1.6,8.4c0.6,5.5,1.3,3.9,2,7.9c0.7,6.8,1.5,1.8,2.4,3.1c0.9,2.2,1.8,2.6,2.7,6.7c1,1,2,5.6,3.1,2.9
	c1.1,1.4,2.2-1,3.4,3.7c1.2,1.9,2.4-1.5,3.7,4.6c1.3,0.4,2.6,5.1,4,3c1.4,3.1,2.8,1.3,4.3,3.7c1.5-2.9,3,1.1,4.6,3.2
	c1.6,4.6,3.2,0.6,4.8,2.1c1.6-3,3.3,3.2,5,1.7c1.7-0.5,3.5-1.9,5.2,2.2c1.8,1.7,3.6,3.1,5.4,1c1.8,3,3.7,2.8,5.6,1.4
	c1.9,0.8,3.8-1.5,5.7-0.7c1.9,1.2,3.9-0.5,5.9,1.5c2,0.8,3.9,3.2,5.9,0.7c1.9-0.9,3.8-3.7,5.7-1.5c1.9-1.5,3.7-1,5.5-1
	c1.8,1.5,3.6-0.9,5.3-1.3c1.7-0.6,3.5-2.2,5.1-1.7c1.7-0.5,3.3-2.9,4.9-2.1c1.6-0.6,3.2-2.2,4.7-2.8c1.5,1.9,3-0.9,4.4-2.5
	c1.4-3.5,2.8-4.4,4.1-5c1.3-4.9,2.6-1.5,3.9-1.8c1.2,1.7,2.4-3.2,3.6-4.9c1.1-0.6,2.2-2.7,3.3-3.3c1-0.5,2-2.4,2.9-5.1
	c0.9,1.7,1.8-5.6,2.6-4.6c0.8-12.1,1.5-4,2.2-7.9c0.7,5.3,1.3-3.4,1.9-3.1c0.6-5.3,1-3.2,1.5-5.8c0.4-2.7,0.8-3.1,1.1-6.6
	c0.3-6.7,0.5-3,0.7-7.1c0.1,0.9,0.2-2.4,0.2-6.7C147.8,506.7,147.2,505.9,146,506.5z M89.3,548.8H70.2c-7.6-4-3-9,3.6-9h11.8
	C92.3,539.8,96.9,544.8,89.3,548.8z"/>
<path id="XMLID_46_" class="st1" d="M354.8,509.9c-22.3-31-29.8-30.6-53.9-36.6c-16.4-4.1-33.1,1.7-50.9-24.2
	c4.3,38.2-26.8,24.7-36.3,50.7c-4.2-39.4,26.1-77.1,71-75.8S362.5,465.9,354.8,509.9z"/>
<path id="XMLID_41_" class="st1" d="M271.4,426.2l-23.6,14.5c-1.7,1-3.9,0.5-4.9-1.2l-3.9-6.4c-1-1.7-0.5-3.9,1.2-4.9l23.6-14.5
	c1.7-1,3.9-0.5,4.9,1.2l3.9,6.4C273.6,422.9,273,425.2,271.4,426.2z"/>
<g id="XMLID_52_">
	<path id="XMLID_51_" class="st18" d="M260.7,543.3c2.1,9.3,11.9,16.4,23.6,16.4c11.7,0,21.5-7,23.6-16.4"/>
</g>
<path id="XMLID_82_" class="st19" d="M304.1,129.4c0,3.8-8.3,6.8-18.5,6.8c-10.2,0-18.5-3.1-18.5-6.8"/>
<g id="XMLID_83_">
	<path id="XMLID_63_" class="st7" d="M255,141.5c0,0-0.2-0.3-0.5-0.9c-0.3-0.6-0.8-1.5-1.3-2.5c-0.3-0.5-0.5-1.1-0.8-1.8
		c-0.3-0.6-0.5-1.3-0.8-2.1c-0.3-0.7-0.4-1.5-0.6-2.3c-0.1-0.4-0.1-0.8-0.2-1.2l-0.1-1.3c0-0.4,0-0.9,0-1.3c0-0.4,0-0.9,0-1.3
		c0-0.8,0.2-1.7,0.3-2.5c0.1-0.8,0.4-1.5,0.6-2.2c0.2-0.7,0.5-1.3,0.7-1.9c0.3-0.6,0.5-1.1,0.7-1.6c0.2-0.5,0.4-0.8,0.6-1.2
		c0.3-0.6,0.5-1,0.5-1c0.6-1.2,2.2-1.7,3.4-1c1.2,0.6,1.7,2.2,1,3.4c0,0.1-0.1,0.1-0.1,0.2l-0.1,0.1c0,0-0.2,0.3-0.5,0.8
		c-0.2,0.3-0.4,0.6-0.6,0.9c-0.2,0.4-0.4,0.8-0.7,1.2c-0.2,0.5-0.4,1-0.7,1.5c-0.2,0.5-0.4,1.1-0.6,1.7c-0.2,0.6-0.3,1.2-0.4,1.9
		c-0.1,0.3-0.1,0.7-0.1,1c0,0.3-0.1,0.7-0.1,1l0,1c0,0.3,0.1,0.7,0.1,1c0.1,0.7,0.2,1.3,0.4,2c0.1,0.6,0.3,1.2,0.5,1.8
		c0.2,0.6,0.4,1.1,0.6,1.6c0.4,1,0.8,1.8,1.1,2.4c0.3,0.6,0.4,0.9,0.4,0.9c0.4,0.8,0,1.7-0.7,2.1C256.3,142.5,255.4,142.2,255,141.5
		z"/>
</g>
<g id="XMLID_53_">
	<path id="XMLID_28_" class="st7" d="M313.4,140.1c0,0,0.2-0.3,0.4-0.9c0.3-0.6,0.7-1.4,1.1-2.4c0.2-0.5,0.4-1.1,0.6-1.6
		c0.2-0.6,0.4-1.2,0.5-1.8c0.2-0.6,0.3-1.3,0.4-2c0-0.3,0.1-0.7,0.1-1l0-1c0-0.3,0-0.7-0.1-1c0-0.3-0.1-0.7-0.1-1
		c-0.1-0.6-0.2-1.3-0.4-1.9c-0.2-0.6-0.4-1.2-0.6-1.7c-0.2-0.5-0.5-1-0.7-1.5c-0.2-0.5-0.5-0.9-0.7-1.2c-0.2-0.4-0.4-0.7-0.6-0.9
		c-0.3-0.5-0.5-0.8-0.5-0.8l-0.1-0.1c-0.7-1.2-0.4-2.7,0.8-3.5c1.2-0.7,2.7-0.4,3.5,0.8c0,0.1,0.1,0.1,0.1,0.2c0,0,0.2,0.4,0.5,1
		c0.2,0.3,0.4,0.7,0.6,1.2c0.2,0.5,0.4,1,0.7,1.6c0.2,0.6,0.4,1.2,0.7,1.9c0.2,0.7,0.4,1.4,0.6,2.2c0.1,0.8,0.3,1.6,0.3,2.5
		c0,0.4,0.1,0.8,0,1.3c0,0.4,0,0.9,0,1.3l-0.1,1.3c-0.1,0.4-0.1,0.8-0.2,1.2c-0.2,0.8-0.4,1.6-0.6,2.3c-0.2,0.7-0.5,1.4-0.8,2.1
		c-0.3,0.6-0.5,1.2-0.8,1.8c-0.5,1.1-1,1.9-1.3,2.5c-0.3,0.6-0.5,0.9-0.5,0.9c-0.4,0.7-1.4,1-2.1,0.6
		C313.3,141.7,313,140.8,313.4,140.1z"/>
</g>
<path id="XMLID_54_" class="st20" d="M225.1,106.6c7.5,5.2,27.6,11,48.7,0"/>
<path id="XMLID_55_" class="st20" d="M346,106.6c-7.5,5.2-27.6,11-48.7,0"/>
<path id="XMLID_50_" class="st0" d="M132.6,56L21.9,56.4L21.6,56c0-27.3,24.8-49.4,55.5-49.4S132.6,28.8,132.6,56L132.6,56z"/>
<circle id="XMLID_57_" class="st21" cx="48.5" cy="79.2" r="19.1"/>
<path id="XMLID_59_" class="st21" d="M29.4,79.2C16.2,65.5,9.2,67.9,9.2,67.9"/>
<path id="XMLID_85_" class="st21" d="M77.3,70.5c-7.1,0-9.7,6.7-9.7,6.7"/>
<circle id="XMLID_89_" class="st21" cx="106" cy="79.2" r="19.1"/>
<path id="XMLID_87_" class="st21" d="M125.1,79.2c13.2-13.7,20.2-11.3,20.2-11.3"/>
<path id="XMLID_86_" class="st21" d="M77.3,70.5c7.1,0,9.7,6.7,9.7,6.7"/>
<path id="XMLID_90_" class="st0" d="M92.4,120.8c0,9-7.1,16.6-15.8,16.6s-15.8-7.6-15.8-16.6H92.4z"/>
<g id="XMLID_94_">
	<path id="XMLID_137_" class="st22" d="M472,340c0,0-0.6-1.2-1.2-3.2c-0.3-1-0.6-2.3-0.8-3.7c-0.1-0.7-0.2-1.5-0.3-2.3
		c0-0.4-0.1-0.8-0.1-1.2l0-0.3l0-0.2l0-0.1l0,0l0-0.1l0,0c0-0.2,0-0.4,0-0.6c0-0.2,0-0.5,0.1-0.9c0-0.3,0.1-0.7,0.1-0.9
		c0.1-0.6,0.3-1.2,0.5-1.7c0.4-1.1,1.1-2.3,1.9-3.3c1.6-2,4.1-3.6,7-4.2c0.4-0.1,0.7-0.1,1.1-0.2c0.3,0,0.8-0.1,1-0.1
		c0.6,0,1.1,0,1.7,0c1.1,0,2.3-0.1,3.4-0.1c2.3,0,4.6-0.1,7-0.1c2.3,0,4.7,0,7,0c1.1,0,2.3,0,3.4,0c0.6,0,1.1,0,1.7,0l0.2,0l0.3,0
		l0.1,0l0.4,0c0.2,0,0.2,0,0.5,0l0.6,0.1l0.6,0.1l0.5,0.1c0.4,0.1,0.7,0.2,1.1,0.3c0.7,0.2,1.3,0.6,2,0.9c1.2,0.7,2.3,1.6,3.1,2.7
		c1.7,2.1,2.6,4.6,2.7,6.9c0,0.3,0,0.6,0,0.9c0,0.2,0,0.4,0,0.7c0,0.4,0,0.8-0.1,1.2c-0.1,0.8-0.2,1.6-0.3,2.3
		c-0.3,1.4-0.6,2.7-1,3.7c-0.7,2-1.5,3.2-1.5,3.2s-0.8-1.2-1.5-3.2c-0.4-1-0.7-2.3-1-3.7c-0.1-0.7-0.2-1.5-0.3-2.3
		c0-0.4-0.1-0.8-0.1-1.2c0-0.2,0-0.4,0-0.6l0-0.4c-0.1-1.2-0.7-2.4-1.6-3.3c-0.5-0.5-1-0.9-1.6-1.2c-0.3-0.2-0.6-0.3-0.9-0.4
		c-0.2-0.1-0.3-0.1-0.5-0.1l-0.2-0.1l-0.2,0l-0.2,0c0,0-0.2,0-0.4,0l-0.4,0l-0.1,0l-0.1,0c0.1,0-0.2,0,0.1,0l0,0l-0.2,0
		c-0.6,0-1.1,0-1.7,0c-1.1,0-2.3,0-3.4,0c-2.3,0-4.6,0-7,0c-2.3,0-4.7-0.1-7-0.1c-1.1,0-2.3-0.1-3.4-0.1c-0.6,0-1.1,0-1.7,0
		c-0.3,0-0.4,0-0.6,0c-0.2,0-0.4,0-0.5,0c-1.4,0.1-2.8,0.8-3.8,1.8c-0.5,0.5-0.9,1.1-1.2,1.7c-0.1,0.3-0.3,0.6-0.3,0.9
		c-0.1,0.2-0.1,0.3-0.1,0.4c0,0.1-0.1,0.2-0.1,0.5c0,0.2,0,0.4-0.1,0.6l0,0c0,0.1,0-0.1,0-0.1l0,0l0,0.1l0,0.2l0,0.3
		c0,0.4-0.1,0.8-0.1,1.2c-0.1,0.8-0.2,1.6-0.3,2.3c-0.2,1.4-0.5,2.7-0.8,3.7C472.6,338.8,472,340,472,340z"/>
</g>
<path id="XMLID_98_" class="st23" d="M563.8,295.1c7.2-31,0-69.4,0-69.4L557,238l-2.7-22.2l-9.3,12.3l-4.6-23.9l-9.9,20.5l-5.7-15.2
	l-6.9,9.3l-7.3-23.6l-12.9,18.9l-4.3-11.3l-7.6,12.6l-11-16.9l-2.7,14.6l-16.3-11l-6.3,22.5l-11-13.2l-4.3,29.9l-7.6-25.2
	c0,0-9,31.5-3.8,79c0,0,12.7-55.8,70.5-55.8S563.8,295.1,563.8,295.1z"/>
<g id="XMLID_58_">
</g>
</svg>
