<?xml version="1.0" encoding="utf-8"?>
<!-- Generator: Adobe Illustrator 19.0.0, SVG Export Plug-In . SVG Version: 6.00 Build 0)  -->
<svg version="1.1" xmlns="http://www.w3.org/2000/svg" xmlns:xlink="http://www.w3.org/1999/xlink" x="0px" y="0px"
	 viewBox="0 0 255.7 256.3" style="enable-background:new 0 0 255.7 256.3;" xml:space="preserve">
<style type="text/css">
	.st0{fill:#48488C;}
	.st1{fill:none;stroke:#EDDD4F;stroke-width:11;stroke-linecap:round;stroke-linejoin:round;stroke-miterlimit:10;}
	.st2{fill:#EDDD4F;}
</style>
<g id="Layer_2">
</g>
<g id="Layer_1">
	<circle id="XMLID_374_" class="st0" cx="25" cy="162.2" r="25"/>
	<circle id="XMLID_373_" class="st0" cx="25" cy="231.3" r="25"/>
	<circle id="XMLID_372_" class="st0" cx="25" cy="25" r="25"/>
	<circle id="XMLID_371_" class="st0" cx="25" cy="93.6" r="25"/>
	<circle id="XMLID_370_" class="st0" cx="93.6" cy="162.2" r="25"/>
	<circle id="XMLID_369_" class="st0" cx="93.6" cy="231.3" r="25"/>
	<circle id="XMLID_368_" class="st0" cx="93.6" cy="25" r="25"/>
	<circle id="XMLID_367_" class="st0" cx="93.6" cy="93.6" r="25"/>
	<circle id="XMLID_366_" class="st0" cx="162.2" cy="25" r="25"/>
	<circle id="XMLID_365_" class="st0" cx="230.7" cy="25" r="25"/>
	<circle id="XMLID_364_" class="st0" cx="230.7" cy="93.6" r="25"/>
	<circle id="XMLID_363_" class="st0" cx="230.7" cy="163" r="25"/>
	<circle id="XMLID_362_" class="st0" cx="230.7" cy="231.3" r="25"/>
	<circle id="XMLID_360_" class="st1" cx="162.2" cy="93.6" r="29.8"/>
	<path id="XMLID_39_" class="st2" d="M187.5,259.3c-4.4,0-8-3.6-8-8v-102c0-4.4,3.6-8,8-8s8,3.6,8,8v102
		C195.5,255.8,191.9,259.3,187.5,259.3z"/>
</g>
</svg>
