<?xml version="1.0" encoding="utf-8"?>
<!-- Generator: Adobe Illustrator 19.0.0, SVG Export Plug-In . SVG Version: 6.00 Build 0)  -->
<svg version="1.1" xmlns="http://www.w3.org/2000/svg" xmlns:xlink="http://www.w3.org/1999/xlink" x="0px" y="0px"
	 viewBox="0 0 190.6 190.6" style="enable-background:new 0 0 190.6 190.6;" xml:space="preserve">
<style type="text/css">
	.st0{fill:#48488C;}
	.st1{fill:#252628;}
	.st2{fill:#EDDD4F;}
	.st3{fill:none;stroke:#EDDD4F;stroke-width:8;stroke-linecap:round;stroke-linejoin:round;stroke-miterlimit:10;}
</style>
<g id="Layer_1">
</g>
<g id="Layer_2">
	<circle id="XMLID_31_" class="st0" cx="28.7" cy="133.9" r="26.7"/>
	<path id="XMLID_30_" class="st1" d="M43.3,138.6c0,7.1-6.5,12.8-14.6,12.8s-14.6-5.7-14.6-12.8H43.3z"/>
	<circle id="XMLID_33_" class="st0" cx="162.9" cy="132.9" r="26.7"/>
	<path id="XMLID_32_" class="st1" d="M177.5,138.6c0,7.1-6.5,12.8-14.6,12.8s-14.6-5.7-14.6-12.8H177.5z"/>
	<g id="XMLID_1_">
		<path id="XMLID_27_" class="st2" d="M20.1,43.4c-1.5,0-3.2-0.4-4.9-1.6c-2.4-1.7-5,0.4-5.5,0.9c0,0-0.1,0.1-0.1,0.1
			c-0.6,0.6-1.6,0.6-2.2,0c-0.6-0.6-0.6-1.6,0-2.2c0.1-0.1,0.2-0.2,0.3-0.2c4.5-4.4,3.6-8.5,2.6-12.8c-0.6-2.6-1.1-5.1-0.3-7.4
			c0.5-1.6,1.8-2.7,3.6-3.4c3.3-1.2,8.2-0.6,10.5,0.8c0.8,0.4,1,1.4,0.6,2.2c-0.4,0.8-1.4,1-2.2,0.6c-1.4-0.8-5.2-1.5-7.8-0.6
			c-0.9,0.3-1.5,0.8-1.7,1.4c-0.5,1.5-0.1,3.5,0.4,5.8c0.7,3.3,1.6,7.1-0.2,11.1c1.3,0,2.6,0.3,4,1.3c3,2.1,6,0.3,6,0.3
			c0.8-0.5,1.7-0.2,2.2,0.5c0.5,0.7,0.2,1.7-0.5,2.2C24.6,42.3,22.7,43.4,20.1,43.4z"/>
		<path id="XMLID_29_" class="st2" d="M19.1,31.3H7c-0.9,0-1.6-0.7-1.6-1.6s0.7-1.6,1.6-1.6h12c0.9,0,1.6,0.7,1.6,1.6
			S19.9,31.3,19.1,31.3z"/>
	</g>
	<g id="XMLID_51_">
		<path id="XMLID_53_" class="st2" d="M31.1,53.4c-1.5,0-3.2-0.4-4.9-1.6c-2.4-1.7-5,0.4-5.5,0.9c0,0-0.1,0.1-0.1,0.1
			c-0.6,0.6-1.6,0.6-2.2,0c-0.6-0.6-0.6-1.6,0-2.2c0.1-0.1,0.2-0.2,0.3-0.2c4.5-4.4,3.6-8.5,2.6-12.8c-0.6-2.6-1.1-5.1-0.3-7.4
			c0.5-1.6,1.8-2.7,3.6-3.4c3.3-1.2,8.2-0.6,10.5,0.8c0.8,0.4,1,1.4,0.6,2.2c-0.4,0.8-1.4,1-2.2,0.6c-1.4-0.8-5.2-1.5-7.8-0.6
			c-0.9,0.3-1.5,0.8-1.7,1.4c-0.5,1.5-0.1,3.5,0.4,5.8c0.7,3.3,1.6,7.1-0.2,11.1c1.3,0,2.6,0.3,4,1.3c3,2.1,6,0.3,6,0.3
			c0.8-0.5,1.7-0.2,2.2,0.5c0.5,0.7,0.2,1.7-0.5,2.2C35.6,52.3,33.7,53.4,31.1,53.4z"/>
		<path id="XMLID_52_" class="st2" d="M30.1,41.3H18c-0.9,0-1.6-0.7-1.6-1.6c0-0.9,0.7-1.6,1.6-1.6h12c0.9,0,1.6,0.7,1.6,1.6
			C31.6,40.6,30.9,41.3,30.1,41.3z"/>
	</g>
	<g id="XMLID_54_">
		<path id="XMLID_56_" class="st2" d="M42.1,43.4c-1.5,0-3.2-0.4-4.9-1.6c-2.4-1.7-5,0.4-5.5,0.9c0,0-0.1,0.1-0.1,0.1
			c-0.6,0.6-1.6,0.6-2.2,0c-0.6-0.6-0.6-1.6,0-2.2c0.1-0.1,0.2-0.2,0.3-0.2c4.5-4.4,3.6-8.5,2.6-12.8c-0.6-2.6-1.1-5.1-0.3-7.4
			c0.5-1.6,1.8-2.7,3.6-3.4c3.3-1.2,8.2-0.6,10.5,0.8c0.8,0.4,1,1.4,0.6,2.2c-0.4,0.8-1.4,1-2.2,0.6c-1.4-0.8-5.2-1.5-7.8-0.6
			c-0.9,0.3-1.5,0.8-1.7,1.4c-0.5,1.5-0.1,3.5,0.4,5.8c0.7,3.3,1.6,7.1-0.2,11.1c1.3,0,2.6,0.3,4,1.3c3,2.1,6,0.3,6,0.3
			c0.8-0.5,1.7-0.2,2.2,0.5c0.5,0.7,0.2,1.7-0.5,2.2C46.6,42.3,44.7,43.4,42.1,43.4z"/>
		<path id="XMLID_55_" class="st2" d="M41.1,31.3H29c-0.9,0-1.6-0.7-1.6-1.6s0.7-1.6,1.6-1.6h12c0.9,0,1.6,0.7,1.6,1.6
			S41.9,31.3,41.1,31.3z"/>
	</g>
	<g id="XMLID_37_">
		<path id="XMLID_39_" class="st2" d="M166.3,52.2c-1.5,0-3.2-0.4-4.9-1.6c-2.4-1.7-5,0.4-5.5,0.9c0,0-0.1,0.1-0.1,0.1
			c-0.6,0.6-1.6,0.6-2.2,0c-0.6-0.6-0.6-1.6,0-2.2c0.1-0.1,0.2-0.2,0.3-0.2c4.5-4.4,3.6-8.5,2.6-12.8c-0.6-2.6-1.1-5.1-0.3-7.4
			c0.5-1.6,1.8-2.7,3.6-3.4c3.3-1.2,8.2-0.6,10.5,0.8c0.8,0.4,1,1.4,0.6,2.2c-0.4,0.8-1.4,1-2.2,0.6c-1.4-0.8-5.2-1.5-7.8-0.6
			c-0.9,0.3-1.5,0.8-1.7,1.4c-0.5,1.5-0.1,3.5,0.4,5.8c0.7,3.3,1.6,7.1-0.2,11.1c1.3,0,2.6,0.3,4,1.3c3,2.1,6,0.3,6,0.3
			c0.8-0.5,1.7-0.2,2.2,0.5c0.5,0.7,0.2,1.7-0.5,2.2C170.7,51.1,168.8,52.2,166.3,52.2z"/>
		<path id="XMLID_38_" class="st2" d="M165.2,40.1h-12c-0.9,0-1.6-0.7-1.6-1.6c0-0.9,0.7-1.6,1.6-1.6h12c0.9,0,1.6,0.7,1.6,1.6
			C166.8,39.4,166.1,40.1,165.2,40.1z"/>
	</g>
	<g id="XMLID_57_">
		<path id="XMLID_59_" class="st2" d="M155.3,42.2c-1.5,0-3.2-0.4-4.9-1.6c-2.4-1.7-5,0.4-5.5,0.9c0,0-0.1,0.1-0.1,0.1
			c-0.6,0.6-1.6,0.6-2.2,0c-0.6-0.6-0.6-1.6,0-2.2c0.1-0.1,0.2-0.2,0.3-0.2c4.5-4.4,3.6-8.5,2.6-12.8c-0.6-2.6-1.1-5.1-0.3-7.4
			c0.5-1.6,1.8-2.7,3.6-3.4c3.3-1.2,8.2-0.6,10.5,0.8c0.8,0.4,1,1.4,0.6,2.2c-0.4,0.8-1.4,1-2.2,0.6c-1.4-0.8-5.2-1.5-7.8-0.6
			c-0.9,0.3-1.5,0.8-1.7,1.4c-0.5,1.5-0.1,3.5,0.4,5.8c0.7,3.3,1.6,7.1-0.2,11.1c1.3,0,2.6,0.3,4,1.3c3,2.1,6,0.3,6,0.3
			c0.8-0.5,1.7-0.2,2.2,0.5c0.5,0.7,0.2,1.7-0.5,2.2C159.7,41.1,157.8,42.2,155.3,42.2z"/>
		<path id="XMLID_58_" class="st2" d="M154.2,30.1h-12c-0.9,0-1.6-0.7-1.6-1.6s0.7-1.6,1.6-1.6h12c0.9,0,1.6,0.7,1.6,1.6
			S155.1,30.1,154.2,30.1z"/>
	</g>
	<g id="XMLID_60_">
		<path id="XMLID_62_" class="st2" d="M176.3,42.2c-1.5,0-3.2-0.4-4.9-1.6c-2.4-1.7-5,0.4-5.5,0.9c0,0-0.1,0.1-0.1,0.1
			c-0.6,0.6-1.6,0.6-2.2,0c-0.6-0.6-0.6-1.6,0-2.2c0.1-0.1,0.2-0.2,0.3-0.2c4.5-4.4,3.6-8.5,2.6-12.8c-0.6-2.6-1.1-5.1-0.3-7.4
			c0.5-1.6,1.8-2.7,3.6-3.4c3.3-1.2,8.2-0.6,10.5,0.8c0.8,0.4,1,1.4,0.6,2.2c-0.4,0.8-1.4,1-2.2,0.6c-1.4-0.8-5.2-1.5-7.8-0.6
			c-0.9,0.3-1.5,0.8-1.7,1.4c-0.5,1.5-0.1,3.5,0.4,5.8c0.7,3.3,1.6,7.1-0.2,11.1c1.3,0,2.6,0.3,4,1.3c3,2.1,6,0.3,6,0.3
			c0.8-0.5,1.7-0.2,2.2,0.5c0.5,0.7,0.2,1.7-0.5,2.2C180.7,41.1,178.8,42.2,176.3,42.2z"/>
		<path id="XMLID_61_" class="st2" d="M175.2,30.1h-12c-0.9,0-1.6-0.7-1.6-1.6s0.7-1.6,1.6-1.6h12c0.9,0,1.6,0.7,1.6,1.6
			S176.1,30.1,175.2,30.1z"/>
	</g>
	<circle id="XMLID_374_" class="st0" cx="68.7" cy="43" r="6.5"/>
	<circle id="XMLID_373_" class="st0" cx="68.7" cy="60.8" r="6.5"/>
	<circle id="XMLID_372_" class="st0" cx="68.7" cy="7.5" r="6.5"/>
	<circle id="XMLID_371_" class="st0" cx="68.7" cy="25.2" r="6.5"/>
	<circle id="XMLID_370_" class="st0" cx="86.4" cy="43" r="6.5"/>
	<circle id="XMLID_369_" class="st0" cx="86.4" cy="60.8" r="6.5"/>
	<circle id="XMLID_368_" class="st0" cx="86.4" cy="7.5" r="6.5"/>
	<circle id="XMLID_367_" class="st0" cx="86.4" cy="25.2" r="6.5"/>
	<circle id="XMLID_366_" class="st0" cx="104.2" cy="7.5" r="6.5"/>
	<circle id="XMLID_365_" class="st0" cx="122" cy="7.5" r="6.5"/>
	<circle id="XMLID_364_" class="st0" cx="122" cy="25.2" r="6.5"/>
	<circle id="XMLID_363_" class="st0" cx="122" cy="43.2" r="6.5"/>
	<circle id="XMLID_362_" class="st0" cx="122" cy="61" r="6.5"/>
	<path id="XMLID_25_" class="st2" d="M104.4,65.6c-0.8,0-1.4-0.6-1.4-1.4V40.6c0-0.8,0.6-1.4,1.4-1.4s1.4,0.6,1.4,1.4v23.6
		C105.8,65,105.2,65.6,104.4,65.6z"/>
	<path id="XMLID_5_" class="st2" d="M104.2,34.4c-5,0-9.1-4.1-9.1-9.1c0-5,4.1-9.1,9.1-9.1s9.1,4.1,9.1,9.1
		C113.3,30.3,109.2,34.4,104.2,34.4z M104.2,19c-3.5,0-6.3,2.8-6.3,6.3c0,3.5,2.8,6.3,6.3,6.3s6.3-2.8,6.3-6.3
		C110.5,21.8,107.7,19,104.2,19z"/>
	<path id="XMLID_40_" class="st3" d="M31.7,95.3c3.8-13,9.4-21.7,23.7-26.6l-2,10"/>
	<line id="XMLID_41_" class="st3" x1="43.4" y1="64.4" x2="55.4" y2="68.7"/>
	<path id="XMLID_43_" class="st3" d="M138.4,68.8c11.6,6.9,18.6,14.6,19.7,29.7L149,94"/>
	<line id="XMLID_42_" class="st3" x1="165.4" y1="87.9" x2="158.2" y2="98.5"/>
	<path id="XMLID_45_" class="st3" d="M113.6,170.8c-12.2,5.8-22.5,7.3-35.6-0.2l8.8-5.1"/>
	<line id="XMLID_44_" class="st3" x1="82.7" y1="182.5" x2="78" y2="170.6"/>
	<line id="XMLID_28_" class="st3" x1="73.3" y1="135.2" x2="117.4" y2="135.2"/>
	<g id="XMLID_46_">
		<path id="XMLID_14_" class="st2" d="M70.5,155.6l1.9-19c0.2-2.2,2.2-3.8,4.4-3.6c2.2,0.2,3.8,2.2,3.6,4.4c0,0.2,0,0.3-0.1,0.5
			L76,156.5c-0.3,1.5-1.8,2.4-3.3,2.1C71.3,158.3,70.4,157,70.5,155.6z"/>
	</g>
	<g id="XMLID_47_">
		<path id="XMLID_12_" class="st2" d="M80.8,143.6l0.5-8.7c0.1-1.4,1.3-2.4,2.6-2.4c1.4,0.1,2.4,1.3,2.4,2.6c0,0.1,0,0.2,0,0.3
			l-1.7,8.6c-0.2,1-1.2,1.7-2.2,1.5C81.4,145.4,80.8,144.5,80.8,143.6z"/>
	</g>
	<g id="XMLID_9_">
		<path id="XMLID_34_" class="st2" d="M114.6,156.5l-4.3-18.7c-0.5-2.2,0.9-4.3,3-4.8c2.2-0.5,4.3,0.9,4.8,3c0,0.2,0.1,0.3,0.1,0.5
			l1.9,19c0.2,1.5-1,2.9-2.5,3C116.2,158.8,114.9,157.9,114.6,156.5z"/>
	</g>
	<g id="XMLID_3_">
		<path id="XMLID_23_" class="st2" d="M106.1,144.1l-1.7-8.6c-0.3-1.4,0.6-2.7,2-2.9c1.4-0.3,2.7,0.6,2.9,2c0,0.1,0,0.2,0,0.3
			l0.5,8.7c0.1,1-0.7,1.9-1.8,2C107.1,145.7,106.2,145,106.1,144.1z"/>
	</g>
</g>
</svg>
