<?xml version="1.0" encoding="utf-8"?>
<!-- Generator: Adobe Illustrator 19.0.0, SVG Export Plug-In . SVG Version: 6.00 Build 0)  -->
<svg version="1.1" xmlns="http://www.w3.org/2000/svg" xmlns:xlink="http://www.w3.org/1999/xlink" x="0px" y="0px"
	 viewBox="0 0 190.6 190.6" style="enable-background:new 0 0 190.6 190.6;" xml:space="preserve">
<style type="text/css">
	.st0{fill:#48488C;}
	.st1{fill:#EDDD4F;}
	.st2{fill:#252628;}
</style>
<g id="Layer_1">
</g>
<g id="Layer_2">
	<g id="XMLID_1_">
	</g>
	<circle id="XMLID_7_" class="st0" cx="17.3" cy="17.3" r="17.3"/>
	<circle id="XMLID_9_" class="st0" cx="17.3" cy="69.3" r="17.3"/>
	<circle id="XMLID_10_" class="st0" cx="17.3" cy="121.3" r="17.3"/>
	<circle id="XMLID_11_" class="st0" cx="17.3" cy="173.3" r="17.3"/>
	<circle id="XMLID_15_" class="st0" cx="69.3" cy="17.3" r="17.3"/>
	<circle id="XMLID_14_" class="st0" cx="69.3" cy="69.3" r="17.3"/>
	<circle id="XMLID_13_" class="st0" cx="69.3" cy="121.3" r="17.3"/>
	<circle id="XMLID_12_" class="st0" cx="69.3" cy="173.3" r="17.3"/>
	<circle id="XMLID_19_" class="st0" cx="121.3" cy="17.3" r="17.3"/>
	<circle id="XMLID_18_" class="st0" cx="121.3" cy="69.3" r="17.3"/>
	<circle id="XMLID_17_" class="st1" cx="121.3" cy="121.3" r="26.7"/>
	<circle id="XMLID_16_" class="st0" cx="121.3" cy="173.3" r="17.3"/>
	<circle id="XMLID_23_" class="st0" cx="173.3" cy="17.3" r="17.3"/>
	<circle id="XMLID_22_" class="st0" cx="173.3" cy="69.3" r="17.3"/>
	<circle id="XMLID_21_" class="st0" cx="173.3" cy="121.3" r="17.3"/>
	<circle id="XMLID_20_" class="st0" cx="173.3" cy="173.3" r="17.3"/>
	<path id="XMLID_24_" class="st2" d="M135.9,127c0,7.1-6.5,12.8-14.6,12.8s-14.6-5.7-14.6-12.8H135.9z"/>
</g>
</svg>
