<?xml version="1.0" encoding="utf-8"?>
<!-- Generator: Adobe Illustrator 19.0.0, SVG Export Plug-In . SVG Version: 6.00 Build 0)  -->
<svg version="1.1" xmlns="http://www.w3.org/2000/svg" xmlns:xlink="http://www.w3.org/1999/xlink" x="0px" y="0px"
	 viewBox="0 0 465.9 465.9" style="enable-background:new 0 0 465.9 465.9;" xml:space="preserve">
<style type="text/css">
	.st0{fill:#EDDD4F;}
	.st1{fill:#E8C256;}
	.st2{fill:#E9E655;stroke:#252628;stroke-width:24;stroke-linecap:round;stroke-linejoin:round;stroke-miterlimit:10;}
	.st3{fill:none;stroke:#252628;stroke-width:24;stroke-linecap:round;stroke-linejoin:round;stroke-miterlimit:10;}
</style>
<g id="base">
	<rect id="XMLID_28_" class="st0" width="465.9" height="465.9"/>
</g>
<g id="Layer_3">
	<polygon id="XMLID_5_" class="st1" points="466.4,220.1 295.2,97.3 88.3,385.9 199.9,466 465.9,465.9 	"/>
</g>
<g id="layer1">
	<polyline id="XMLID_24_" class="st2" points="54.7,230.8 99.4,96.7 166.4,96.7 233.5,96.7 300.5,96.7 367.5,96.7 411,230.8 	"/>
	<path id="XMLID_26_" class="st2" d="M80.7,247.1v112.7c0,13.5,10.9,24.4,24.4,24.4h255.5c13.5,0,24.4-10.9,24.4-24.4V247.1"/>
	<line id="XMLID_19_" class="st3" x1="233.5" y1="97.3" x2="233.5" y2="229"/>
	<path id="XMLID_20_" class="st3" d="M54.7,230.8l13.8,4.5c20,6.5,41.5,6.5,61.5,0l13.8-4.5l13.8,4.5c20,6.5,41.5,6.5,61.5,0
		l13.8-4.5l13.8,4.5c20,6.5,41.5,6.5,61.5,0l13.8-4.5l13.8,4.5c20,6.5,41.5,6.5,61.5,0l13.8-4.5"/>
	<line id="XMLID_21_" class="st3" x1="166.4" y1="96.7" x2="143.8" y2="230.8"/>
	<line id="XMLID_23_" class="st3" x1="300.5" y1="96.7" x2="321.9" y2="230.8"/>
	<rect id="XMLID_27_" x="169.9" y="271.4" class="st3" width="174.1" height="72.1"/>
</g>
</svg>
