<?xml version="1.0" encoding="utf-8"?>
<!-- Generator: Adobe Illustrator 19.0.0, SVG Export Plug-In . SVG Version: 6.00 Build 0)  -->
<svg version="1.1" xmlns="http://www.w3.org/2000/svg" xmlns:xlink="http://www.w3.org/1999/xlink" x="0px" y="0px"
	 viewBox="0 0 465.9 465.9" style="enable-background:new 0 0 465.9 465.9;" xml:space="preserve">
<style type="text/css">
	.st0{fill:#EDDD4F;}
	.st1{fill:#E8C256;}
	.st2{fill:#E9E655;stroke:#252628;stroke-width:24;stroke-linecap:round;stroke-linejoin:round;stroke-miterlimit:10;}
	.st3{fill:none;stroke:#252628;stroke-width:24;stroke-linecap:round;stroke-linejoin:round;stroke-miterlimit:10;}
	.st4{fill:none;stroke:#252628;stroke-width:11;stroke-linecap:round;stroke-linejoin:round;stroke-miterlimit:10;}
</style>
<g id="base">
	<rect id="XMLID_28_" class="st0" width="465.9" height="465.9"/>
</g>
<g id="Layer_3">
	<polygon id="XMLID_5_" class="st1" points="466.4,220.1 295.2,97.3 81.3,331.9 249.9,466 465.9,465.9 	"/>
</g>
<g id="layer1">
	<polyline id="XMLID_24_" class="st2" points="54.7,181.8 99.4,47.7 166.4,47.7 233.5,47.7 300.5,47.7 367.5,47.7 411,181.8 	"/>
	<path id="XMLID_26_" class="st2" d="M80.7,198.1v112.7c0,13.5,10.9,24.4,24.4,24.4h255.5c13.5,0,24.4-10.9,24.4-24.4V198.1"/>
	<line id="XMLID_19_" class="st3" x1="233.5" y1="48.3" x2="233.5" y2="180"/>
	<path id="XMLID_20_" class="st3" d="M54.7,181.8l13.8,4.5c20,6.5,41.5,6.5,61.5,0l13.8-4.5l13.8,4.5c20,6.5,41.5,6.5,61.5,0
		l13.8-4.5l13.8,4.5c20,6.5,41.5,6.5,61.5,0l13.8-4.5l13.8,4.5c20,6.5,41.5,6.5,61.5,0l13.8-4.5"/>
	<line id="XMLID_21_" class="st3" x1="166.4" y1="47.7" x2="143.8" y2="181.8"/>
	<line id="XMLID_23_" class="st3" x1="300.5" y1="47.7" x2="321.9" y2="181.8"/>
	<rect id="XMLID_27_" x="169.9" y="222.4" class="st3" width="174.1" height="72.1"/>
</g>
<g id="Layer_4">
	<path id="XMLID_46_" class="st4" d="M207.7,366.8"/>
	<path id="XMLID_45_" class="st4" d="M265.7,412.6"/>
	<path id="XMLID_44_" class="st4" d="M226.7,366.8v59.5"/>
	<path id="XMLID_43_" class="st4" d="M262.7,367.3"/>
	<polyline id="XMLID_42_" class="st4" points="313.7,426.8 278.7,426.8 278.7,366.8 313.7,366.8 	"/>
	<line id="XMLID_41_" class="st4" x1="310.7" y1="396.8" x2="278.7" y2="396.8"/>
	<polyline id="XMLID_40_" class="st4" points="154.7,426.8 119.7,426.8 119.7,366.8 154.7,366.8 	"/>
	<line id="XMLID_39_" class="st4" x1="151.7" y1="396.8" x2="119.7" y2="396.8"/>
	<path id="XMLID_38_" class="st4" d="M332.7,426.8v-28.7v-31.3h22c0,0,18.1-1.7,18.1,15s-17.4,17-17.4,17h-18.6"/>
	<path id="XMLID_37_" class="st4" d="M374.6,426.3c0,0-12.4-27.5-23.9-27.5"/>
	<path id="XMLID_36_" class="st4" d="M390.7,419.6c0,0,8.2,7.6,22.2,7.6s19.3-9.7,19.3-14.6s-2.9-12-19.3-15.6s-20.9-7.3-20.9-15.1
		c0-7.8,15.3-26,40.2-8.6"/>
	<path id="XMLID_35_" class="st4" d="M54,419.6c0,0,8.2,7.6,22.2,7.6s19.3-9.7,19.3-14.6s-2.9-12-19.3-15.6s-20.9-7.3-20.9-15.1
		c0-7.8,15.3-26,40.2-8.6"/>
	<path id="XMLID_34_" class="st4" d="M260.3,427.2h-33.6"/>
	<path id="XMLID_33_" class="st4" d="M206.7,412.6"/>
	<path id="XMLID_32_" class="st4" d="M173.7,366.8v59.5"/>
	<path id="XMLID_11_" class="st4" d="M207.3,427.2h-33.6"/>
</g>
</svg>
