<?xml version="1.0" encoding="utf-8"?>
<!-- Generator: Adobe Illustrator 19.0.0, SVG Export Plug-In . SVG Version: 6.00 Build 0)  -->
<svg version="1.1" id="Layer_1" xmlns="http://www.w3.org/2000/svg" xmlns:xlink="http://www.w3.org/1999/xlink" x="0px" y="0px"
	 viewBox="0 0 568.9 587.1" style="enable-background:new 0 0 568.9 587.1;" xml:space="preserve">
<style type="text/css">
	.st0{fill:#48488C;}
	.st1{fill:#252628;}
	.st2{fill:none;stroke:#48488C;stroke-width:19;stroke-miterlimit:10;}
	.st3{fill:#EDDD4F;}
	.st4{fill:#444472;}
</style>
<rect id="XMLID_1_" x="71.6" y="156.7" class="st0" width="419.5" height="416.1"/>
<circle id="XMLID_79_" class="st1" cx="-593.7" cy="54.1" r="70.5"/>
<path id="XMLID_3_" class="st1" d="M-417.7,179.8c0,16-18.1,30.2-40.4,30.2c-22.3,0-40.4-14.2-40.4-30.2H-417.7z"/>
<g id="XMLID_58_">
</g>
<path id="XMLID_4_" class="st2" d="M285.3,287.7"/>
<circle id="XMLID_374_" class="st1" cx="206.5" cy="398.8" r="19.2"/>
<circle id="XMLID_373_" class="st1" cx="206.5" cy="451.3" r="19.2"/>
<circle id="XMLID_372_" class="st1" cx="206.5" cy="293.7" r="19.2"/>
<circle id="XMLID_371_" class="st1" cx="206.5" cy="346.2" r="19.2"/>
<circle id="XMLID_370_" class="st1" cx="259.1" cy="398.8" r="19.2"/>
<circle id="XMLID_369_" class="st1" cx="259.1" cy="451.3" r="19.2"/>
<circle id="XMLID_368_" class="st1" cx="259.1" cy="293.7" r="19.2"/>
<circle id="XMLID_367_" class="st1" cx="259.1" cy="346.2" r="19.2"/>
<circle id="XMLID_366_" class="st1" cx="311.6" cy="293.7" r="19.2"/>
<circle id="XMLID_365_" class="st1" cx="364.2" cy="293.7" r="19.2"/>
<circle id="XMLID_364_" class="st1" cx="364.2" cy="346.2" r="19.2"/>
<circle id="XMLID_363_" class="st1" cx="364.2" cy="399.4" r="19.2"/>
<circle id="XMLID_362_" class="st1" cx="364.2" cy="452" r="19.2"/>
<path id="XMLID_8_" class="st3" d="M312.1,465.7c-2.3,0-4.2-1.9-4.2-4.2v-69.8c0-2.3,1.9-4.2,4.2-4.2c2.3,0,4.2,1.9,4.2,4.2v69.8
	C316.3,463.8,314.4,465.7,312.1,465.7z"/>
<path id="XMLID_5_" class="st3" d="M311.6,373.2c-14.9,0-27-12.1-27-27s12.1-27,27-27c14.9,0,27,12.1,27,27S326.5,373.2,311.6,373.2
	z M311.6,327.6c-10.2,0-18.6,8.3-18.6,18.6c0,10.2,8.3,18.6,18.6,18.6c10.2,0,18.6-8.3,18.6-18.6C330.2,336,321.9,327.6,311.6,327.6
	z"/>
<path id="XMLID_10_" class="st2" d="M386.5,156.8V118l-0.2-0.6c0-55.6-45.2-100.7-100.8-100.7S184.5,61.7,184.5,117.3l0,0.6v38.8"/>
<path id="XMLID_9_" class="st4" d="M72,245.8c22,339-12.2,304.1,292.5,328.1c-292.6,0-292.5,0-292.5,0V245.8z"/>
</svg>
