<?xml version="1.0" encoding="utf-8"?>
<!-- Generator: Adobe Illustrator 19.0.0, SVG Export Plug-In . SVG Version: 6.00 Build 0)  -->
<svg version="1.1" xmlns="http://www.w3.org/2000/svg" xmlns:xlink="http://www.w3.org/1999/xlink" x="0px" y="0px"
	 viewBox="0 0 568.9 587.1" style="enable-background:new 0 0 568.9 587.1;" xml:space="preserve">
<style type="text/css">
	.st0{fill:#48488C;}
	.st1{fill:none;stroke:#3CDDBE;stroke-width:14;stroke-linecap:round;stroke-miterlimit:10;}
	.st2{fill:#3CDDBE;}
	.st3{fill:#373756;}
	.st4{fill:none;stroke:#DD5454;stroke-width:3;stroke-miterlimit:10;}
	.st5{fill:none;stroke:#DD5454;stroke-width:5;stroke-linecap:round;stroke-linejoin:round;stroke-miterlimit:10;}
	.st6{fill:#419E8C;}
	.st7{fill:none;stroke:#000000;stroke-miterlimit:10;}
	.st8{fill:#DD5454;}
	.st9{fill:#843A3A;}
</style>
<g id="Layer_1">
	<g id="XMLID_2_">
	</g>
	<path id="XMLID_12_" class="st0" d="M283.9,466.4H10.4l8.4-49c2-32,28.5-57,60.6-57h135.4c32.1,0,58.6,24.9,60.6,57L283.9,466.4z"
		/>
	<path id="XMLID_15_" class="st0" d="M558.6,466.4H285.1l8.4-49c2-32,28.5-57,60.6-57h135.4c32.1,0,58.6,24.9,60.6,57L558.6,466.4z"
		/>
	<circle id="XMLID_31_" class="st0" cx="145.7" cy="255.5" r="84.2"/>
	<line id="XMLID_32_" class="st1" x1="123" y1="160.8" x2="169" y2="160.8"/>
	<line id="XMLID_36_" class="st1" x1="129.7" y1="177.7" x2="162.6" y2="144.8"/>
	<line id="XMLID_37_" class="st1" x1="147" y1="184.8" x2="147" y2="137.8"/>
	<line id="XMLID_38_" class="st1" x1="163.5" y1="177.7" x2="130.5" y2="144.8"/>
	<path id="XMLID_14_" class="st2" d="M171.4,297.8c0,10-11.4,17.8-25.5,17.8c-14.1,0-25.5-7.8-25.5-17.8H171.4z"/>
	<circle id="XMLID_21_" class="st0" cx="421.6" cy="255.5" r="84.2"/>
	<path id="XMLID_29_" class="st3" d="M97.2,186.7c-21.6,15.2-35.8,40.4-35.8,68.9c0,46.5,37.7,84.2,84.2,84.2
		c8.8,0,17.3-1.4,25.2-3.9C74.1,329.6,79.7,223.4,97.2,186.7z"/>
	<path id="XMLID_33_" class="st3" d="M373.1,186.7c-21.6,15.2-35.8,40.4-35.8,68.9c0,46.5,37.7,84.2,84.2,84.2
		c8.8,0,17.3-1.4,25.2-3.9C350,329.6,355.7,223.4,373.1,186.7z"/>
	<g id="XMLID_34_">
		<path id="XMLID_35_" class="st2" d="M146.5,167.3c-36.9,0-68.1,22.5-78.6,54.5h157.3C214.6,189.8,183.3,167.3,146.5,167.3z"/>
	</g>
	<path id="XMLID_20_" class="st4" d="M434.8,266.7c3,0,5.4,2.4,5.4,5.4s-2.4,5.4-5.4,5.4c-3,0-5.4-2.4-5.4-5.4"/>
	<g id="XMLID_40_">
		<path id="XMLID_39_" class="st5" d="M394.8,308.1c2.9,4.7,8.1,8.2,14.1,8.2h25.3c5.9,0,11.1-3.6,14.1-8.3"/>
	</g>
	<path id="XMLID_27_" class="st3" d="M10.3,466.5c0,0,0,0.3,0,0.3h29c-0.2-5-2.4-77.8,40.1-106c-2.2,0-4.3-0.1-6.4,0
		c-29.2,3-52.5,26.8-54.3,56.7L10.3,466.5z"/>
	<path id="XMLID_25_" class="st3" d="M285,466.5c0,0,0,0.3,0,0.3h29c-0.2-5-2.4-77.8,40.1-106c-2.2,0-4.3-0.1-6.4,0
		c-29.2,3-52.5,26.8-54.3,56.7L285,466.5z"/>
	<path id="XMLID_30_" class="st2" d="M230.9,242.5c0,0-32.5-6-85-6s-85.4,6-85.4,6c-1.9,0-3.4-1.5-3.4-3.4l3.6-21.2
		c0-1.9,1.5-3.4,3.4-3.4c0,0,38.2-6,81.8-6s81.4,6,81.4,6c1.9,0,3.4,1.5,3.4,3.4l3.6,21.2C234.3,241,232.7,242.5,230.9,242.5z"/>
	<g id="XMLID_28_">
		<g id="XMLID_24_">
			<path id="XMLID_46_" class="st6" d="M67.8,221.8h18.3c1.4-8,5.6-26.1,15.8-42.1C85.9,189.4,73.7,203.8,67.8,221.8z"/>
			<polygon id="XMLID_47_" class="st6" points="101.9,179.6 101.9,179.6 101.9,179.6 			"/>
			<path id="XMLID_48_" class="st6" d="M86.9,221.8h-0.8c-0.4,2-0.6,3.9-0.6,3.9L86.9,221.8z"/>
		</g>
		<g id="XMLID_41_">
			<path id="XMLID_45_" class="st6" d="M97.6,210.7c-20.1,1.7-33.6,3.8-33.6,3.8c-1.9,0-3.4,1.5-3.4,3.4l-3.6,21.2
				c0,1.9,1.5,3.4,3.4,3.4c0,0,13-2.4,35.8-4.1C94.8,231.7,93.6,220.6,97.6,210.7z"/>
		</g>
	</g>
</g>
<g id="hat">
	<path id="XMLID_53_" class="st7" d="M504.7,242"/>
	<path id="XMLID_52_" class="st8" d="M421.3,236c0,0,52.5,0.3,82.8,6c12.5-70.7-12.8-70.7-82.8-70.7s-95.4,0-82.8,70.7
		C368.8,236.3,421.3,236,421.3,236z"/>
	<path id="XMLID_51_" class="st9" d="M493.8,240.8C493.8,240.8,493.8,240.8,493.8,240.8c-45.3-12-117.8-7.7-146.8,0.2v-0.1
		c31-4.4,75.1-4.4,75.1-4.4S463.3,235.8,493.8,240.8z"/>
	<ellipse id="XMLID_16_" class="st8" cx="420.5" cy="170.1" rx="7.2" ry="2.8"/>
	<path id="XMLID_10_" class="st9" d="M503.1,241.8c-2.5-0.7-9.2-4.5-11.4-24.3c2.2,20.2-13.9,11.8-31.7,8.7
		c-16.2-2.8-20.1-3.7-38.9-3.7c-18.8,0-24.9,1.7-33.7,3.6c-45.4,10.1-40.9,0.5-30.2-49.9h0c-20.4,7-26.2,24.1-18.8,65.8
		c30.3-5.7,41.6-12,82.8-12S472.7,236.3,503.1,241.8z"/>
</g>
</svg>
