<?xml version="1.0" encoding="utf-8"?>
<!-- Generator: Adobe Illustrator 19.0.0, SVG Export Plug-In . SVG Version: 6.00 Build 0)  -->
<svg version="1.1" xmlns="http://www.w3.org/2000/svg" xmlns:xlink="http://www.w3.org/1999/xlink" x="0px" y="0px"
	 viewBox="0 0 465.9 465.9" style="enable-background:new 0 0 465.9 465.9;" xml:space="preserve">
<style type="text/css">
	.st0{fill:#EDDD4F;}
	.st1{fill:#E8C256;}
	.st2{fill:none;stroke:#252628;stroke-width:24;stroke-linecap:round;stroke-linejoin:round;stroke-miterlimit:10;}
	.st3{fill:#252628;stroke:#252628;stroke-width:17;stroke-linecap:round;stroke-linejoin:round;stroke-miterlimit:10;}
</style>
<g id="base">
	<rect id="XMLID_28_" class="st0" width="465.9" height="465.9"/>
</g>
<g id="shaow">
	<polygon id="XMLID_5_" class="st1" points="465.4,382.6 440.3,361 30,361 183.8,465.8 465.4,465.9 	"/>
</g>
<g id="layer1">
	<g id="XMLID_3_">
		<path id="XMLID_8_" class="st2" d="M234.4,312.7c-16.5-34.7-52-58.8-93-58.8c-56.8,0-102.9,46.1-102.9,102.9"/>
		<path id="XMLID_12_" class="st2" d="M430.3,356.9c0-56.8-46.1-102.9-102.9-102.9c-41,0-76.5,24-93,58.8
			c6.4,13.4,9.9,28.4,9.9,44.2"/>
		<path id="XMLID_10_" class="st2" d="M244.3,356.9c0-15.8-3.6-30.8-9.9-44.2"/>
	</g>
	<circle id="XMLID_7_" class="st3" cx="141.4" cy="161.3" r="62.5"/>
	<circle id="XMLID_11_" class="st3" cx="332.4" cy="161.3" r="62.5"/>
	<line id="XMLID_1_" class="st2" x1="38.4" y1="357" x2="430.4" y2="357"/>
</g>
</svg>
